<svg xmlns="http://www.w3.org/2000/svg"><defs><font id="MullerBold" horiz-adv-x="590"><font-face font-family="Muller Bold" font-weight="700" ascent="780" descent="-220" x-height="480" cap-height="700" bbox="-160 -273 1300 974" underline-thickness="50" underline-position="-225" unicode-range="U+0020-25CA"/><glyph glyph-name="f_f" unicode="ff" horiz-adv-x="729" d="M740 594q-38 20-84 20-85 0-85-76v-58h146V363H571V0H432v363H244V0H106v363H23v117h83v29q0 97 58.5 146T315 704q82 0 156-35 50 61 151 61 65 0 118-20V594zM244 480h188v51q0 24 1 35-36 24-90 24-46 0-72.5-21T244 508v-28z"/><glyph glyph-name="f_f_i" unicode="ffi" horiz-adv-x="951" d="M244 0H106v363H23v117h83v29q0 97 58.5 146T315 704q82 0 167-37 60 63 176 63 83 0 167-31V581q-72 33-141 33-51 0-82-22t-31-68v-44h319V0H751v363H571V0H432v363H244V0zm0 508v-28h188v45q0 23 3 43-43 22-96 22-44 0-69.5-21T244 508z"/><glyph glyph-name="f_f_l" unicode="ffl" horiz-adv-x="961" d="M632 724q81 0 150-30l118 20V0H761v587q-46 20-94 20-43 0-69.5-21T571 522v-42h129V363H571V0H432v363H244V0H106v363H23v117h83v29q0 97 58.5 146T315 704q83 0 167-37 54 57 150 57zM432 480v45q0 23 3 43-43 22-96 22-44 0-69.5-21T244 508v-28h188z"/><glyph glyph-name=".notdef" horiz-adv-x="222"/><glyph glyph-name=".null" horiz-adv-x="0"/><glyph glyph-name="nonmarkingreturn" horiz-adv-x="333"/><glyph glyph-name="space" horiz-adv-x="222"/><glyph glyph-name="exclam" unicode="!" horiz-adv-x="270" d="M199 240H71l-9 460h146zm20-171q0-41-24-61.5T135-13 75 8 51 69q0 39 24.5 60t59.5 21q36 0 60-21t24-60z"/><glyph glyph-name="quotedbl" unicode="&quot;" horiz-adv-x="402" d="M338 481h-98v219h124zm-188 0H52v219h124z"/><glyph glyph-name="numbersign" unicode="#" horiz-adv-x="687" d="M199 0H67l35 151H34v102h92l42 175H84v102h108l36 151h132l-36-151h129l36 151h132l-36-151h67V428h-91l-42-175h83V151H495L460 0H328l35 151H234zm101 428l-42-175h129l42 175H300z"/><glyph glyph-name="dollar" unicode="$" horiz-adv-x="605" d="M352-130H243v119Q128 0 42 49v143q112-74 251-74 64 0 95.5 15.5T420 185q0 26-20.5 45T346 260.5t-73 23-80 27-73 37T66.5 407 46 495q0 85 54 134.5T243 691v119h109V690q106-10 177-50V500q-89 64-216 62-114-2-114-65 0-24 20.5-41.5t54-28.5 73.5-22 79.5-27 73-37.5 54-59.5 20.5-89q0-98-60.5-147T352-12v-118z"/><glyph glyph-name="percent" unicode="%" horiz-adv-x="921" d="M308-60H208l409 820h100zm83 602q0-81-52-126.5T211 370q-77 0-129.5 45.5T29 542t52.5 126.5T211 714q76 0 128-45.5T391 542zm-250 0q0-29 17.5-49t52.5-20q33 0 50.5 20t17.5 49-17.5 49-50.5 20q-35 0-52.5-20T141 542zm751-384q0-81-52-126.5T712-14q-77 0-129.5 45.5T530 158t52.5 126.5T712 330q76 0 128-45.5T892 158zm-250 0q0-29 17.5-49T712 89q33 0 50.5 20t17.5 49-17.5 49-50.5 20q-35 0-52.5-20T642 158z"/><glyph glyph-name="ampersand" unicode="&amp;" horiz-adv-x="725" d="M594 129L728 0H569l-57 53q-96-67-227-67-110 0-177 52T41 173q0 113 139 191-78 84-78 159 0 83 66.5 137T337 714q91 0 151-49t60-126q0-67-47.5-113T374 341l128-124q34 60 33 125h137q0-115-78-213zM415 533q0 32-21 50.5T334 602q-45 0-72-24t-27-57q0-44 58-102 57 26 89.5 52.5T415 533zM184 186q0-39 31.5-61t88.5-22q66 0 119 33L263 285q-79-44-79-99z"/><glyph glyph-name="quotesingle" unicode="'" horiz-adv-x="214" d="M150 481H52v219h124z"/><glyph glyph-name="parenleft" unicode="(" horiz-adv-x="315" d="M186 810h112q-56-97-88-218.5T178 350t32-241.5T298-110H186Q117-13 76.5 109T36 350t40.5 241T186 810z"/><glyph glyph-name="parenright" unicode=")" horiz-adv-x="315" d="M17 810h112q69-97 109.5-219T279 350t-40.5-241T129-110H17q56 97 88 218.5T137 350t-32 241.5T17 810z"/><glyph glyph-name="asterisk" unicode="*" horiz-adv-x="480" d="M240 445l-65-123-106 74 88 90-124 25 44 122 114-57-16 124h130l-16-124 114 57 44-122-124-25 88-90-106-74z"/><glyph glyph-name="plus" unicode="+" horiz-adv-x="540" d="M329 409h175V291H329V116H211v175H36v118h175v175h118V409z"/><glyph glyph-name="comma" unicode="," horiz-adv-x="262" d="M118-145H6l63 269h147z"/><glyph glyph-name="hyphen" unicode="-" horiz-adv-x="482" d="M55 302h372V185H55v117z"/><glyph glyph-name="period" unicode="." horiz-adv-x="249" d="M209 69q0-40-24-61t-60-21T64.5 8 40 69t24.5 61 60.5 21 60-21 24-61z"/><glyph glyph-name="slash" unicode="/" horiz-adv-x="451" d="M122-59H23l306 818h99z"/><glyph glyph-name="zero" unicode="0" horiz-adv-x="706" d="M43 340q0 157 77.5 255.5T353 694t232.5-98.5T663 340 585.5 84.5 353-14 120.5 84.5 43 340zm470 0q0 222-160 222T193 340t160-222 160 222z"/><glyph glyph-name="one" unicode="1" horiz-adv-x="461" d="M216 680h109V129h114V0H51v129h128v401L51 482v135z"/><glyph glyph-name="two" unicode="2" horiz-adv-x="596" d="M63 622q101 72 234 72 109 0 178.5-51T545 493q0-77-49.5-131.5T361 257q-100-59-123-80-27-26-28-49l340 1V0H40v67q0 55 16.5 99t54 79 62.5 52.5 76 47.5q3 2 5 3t5 3 5 3q6 4 25.5 14.5T315 383t21 13.5 21 15 15.5 15.5 13.5 18 7 19 3 23q0 37-30 56.5T283 563q-114 0-220-81v140z"/><glyph glyph-name="three" unicode="3" horiz-adv-x="596" d="M527 506q0-52-27.5-90.5T424 360q57-17 94-60.5T555 186q0-52-22.5-91.5T471 32 384.5-2.5 283-14Q158-14 47 32v139q98-55 224-53 63 0 102 22t39 67q0 79-118 79H182l1 128 94-1q51 0 79.5 18.5T385 485q0 37-32 57.5T260 563q-101 0-201-61v139q98 53 222 53 110 0 178-49t68-139z"/><glyph glyph-name="four" unicode="4" horiz-adv-x="655" d="M373 680h149V249h103V124H522V0H379v124H22v124zm6-431v248L178 249h201z"/><glyph glyph-name="five" unicode="5" horiz-adv-x="589" d="M89 681h432V552l-297 1-9-133q48 10 88 10 110 0 179.5-53T552 213q0-112-83-169.5T264-14Q140-14 45 32v139q85-54 202-54 70 0 112.5 25t42.5 73q0 100-166 100-90 0-171-29z"/><glyph glyph-name="six" unicode="6" horiz-adv-x="642" d="M192 394q86 46 182 46 98 0 167.5-58T611 220q0-111-75-172.5T351-14Q43-14 43 340q0 90 26 159.5t71 111T242 673t124 21q97 0 187-42V520q-73 48-167 48-171 0-194-174zm0-121q10-90 47-127.5T339 108q54 0 88 26t34 79q0 102-133 102-72 0-136-42z"/><glyph glyph-name="seven" unicode="7" horiz-adv-x="566" d="M25 681h523V573L269 0H107l269 552H25v129z"/><glyph glyph-name="eight" unicode="8" horiz-adv-x="658" d="M66 506q0 76 66 132t196 56q123 0 193-57.5T592 502q1-92-86-157 111-55 111-161 0-83-71.5-140.5T330-14q-143 0-216 59T41 189q0 51 29 96.5t77 74.5q-81 55-81 146zm279-226q-14 5-48.5 16T244 314q-55-46-53-107 1-46 38.5-74.5T341 104q55 0 91 21t36 55q0 17-7 31t-16 22.5-28.5 18-32 14.5-39.5 14zm103 211q0 37-32.5 61T322 576q-52 0-82.5-20.5T209 505q0-17 8-31.5t17-23.5 30-18.5 33-14 40-13.5q11-3 32.5-9.5T400 386q50 50 48 105z"/><glyph glyph-name="nine" unicode="9" horiz-adv-x="642" d="M31 460q0 111 75 172.5T291 694q308 0 308-354 0-90-26-159.5t-71-111T400 7 276-14q-97 0-187 42v132q73-48 167-48 171 0 194 174-86-46-181-46-99 0-168.5 58T31 460zm272 112q-54 0-88-26t-34-79q0-102 133-102 69 0 136 41-10 91-47 128.5T303 572z"/><glyph glyph-name="colon" unicode=":" horiz-adv-x="281" d="M225 373q0-41-24-61.5T141 291t-60.5 21T56 373t24.5 61 60.5 21 60-21 24-61zm0-304q0-40-24-61t-60-21T80.5 8 56 69t24.5 61 60.5 21 60-21 24-61z"/><glyph glyph-name="semicolon" unicode=";" horiz-adv-x="291" d="M132-145H20l63 269h147zm99 546q0-41-24-62t-61-21q-36 0-60 21.5T62 401t24 60.5 60 20.5q37 0 61-20.5t24-60.5z"/><glyph glyph-name="less" unicode="&lt;" horiz-adv-x="506" d="M437 261V136L39 281v138l398 145V439l-277-89z"/><glyph glyph-name="equal" unicode="=" horiz-adv-x="578" d="M519 391H59v117h460V391zm0-199H59v117h460V192z"/><glyph glyph-name="greater" unicode="&gt;" horiz-adv-x="506" d="M467 281L69 136v125l277 89-277 89v125l398-145V281z"/><glyph glyph-name="question" unicode="?" horiz-adv-x="499" d="M292 230H160q0 35 16.5 69.5T216 361t46 51.5 39.5 49T318 507q0 75-114 75-84 0-169-49v132q91 49 194 49 104 0 171.5-43T468 539q0-38-18-75.5t-44-67-52-57-44-56-18-53.5zm19-161q0-40-24-61t-60-21-60.5 21T142 69t24.5 61 60.5 21 60-21 24-61z"/><glyph glyph-name="at" unicode="@" horiz-adv-x="1048" d="M37 240q0 92 33 176.5T163.5 568 320 674.5 532 714q115 0 208.5-40.5t150-105 86.5-139 30-149.5q0-136-58.5-205T788 6q-60 0-104 27t-61 74q-44-76-141-76-87 0-138 62t-51 145q0 85 50.5 146.5T484 446q89 0 136-67v55h106V187q0-78 69-78 85 0 85 171 0 56-22 111.5t-63.5 102-110 75.5T532 598q-169 0-268.5-105T164 240q0-173 115.5-265T571-117q109 0 217 35v-115q-101-36-221-36-107 0-201.5 30.5t-168.5 88-117 149T37 240zm572 37q-10 30-36 49.5T511 346q-45 0-71.5-31.5T413 238t26.5-76.5T511 130q35 0 61 20t37 49v78z"/><glyph glyph-name="A" unicode="A" horiz-adv-x="739" d="M158 0H3l286 700h162L736 0H581l-51 131H210zm196 506l-97-251h226l-98 251q-10 28-15 55-6-31-16-55z"/><glyph glyph-name="B" unicode="B" horiz-adv-x="686" d="M75 700h306q115 0 178.5-44.5T623 523q0-117-106-153 58-17 96-59.5T651 196q0-57-25-97.5T558.5 38t-87-29T376 0H75v700zm426-488q0 90-119 90H224V122h150q59 0 93 19t34 71zm-27 285q0 80-106 80H225V417h151q44 0 71 20.5t27 59.5z"/><glyph glyph-name="C" unicode="C" horiz-adv-x="654" d="M36 342q0 92 32.5 165.5t86 117.5T274 691.5 412 714q110 0 200-45V526q-71 55-175 55-102 0-174.5-60.5T190 342q0-56 21-99.5t56.5-69.5 79-39.5T437 120q116 0 180 58V31q-93-45-203-45-72 0-138 22T155.5 72t-87 112T36 342z"/><glyph glyph-name="D" unicode="D" horiz-adv-x="742" d="M75 700h262q180 0 273.5-95.5T704 350 610.5 95.5 337 0H75v700zm476-350q0 108-54.5 163T337 568H225V132h112q105 0 159.5 55T551 350z"/><glyph glyph-name="E" unicode="E" horiz-adv-x="618" d="M75 700h493V568H225V419h313V288H225V132h349V0H75v700z"/><glyph glyph-name="F" unicode="F" horiz-adv-x="603" d="M75 700h494V565H225V402h315V267H225V0H75v700z"/><glyph glyph-name="G" unicode="G" horiz-adv-x="702" d="M37 350q0 92 32 163.5T155.5 628 277 692.5 418 714q114 0 215-45V526q-82 54-195 54-104 0-176-57.5T190 350q0-66 22.5-114t59.5-72.5 76-35.5 82-11 77 13v250h143V33Q540-14 422-14q-60 0-115.5 13t-105 41.5-85.5 70-57.5 103T37 350z"/><glyph glyph-name="H" unicode="H" horiz-adv-x="764" d="M539 700h150V0H539v282H225V0H75v700h150V418h314v282z"/><glyph glyph-name="I" unicode="I" horiz-adv-x="300" d="M75 700h150V0H75v700z"/><glyph glyph-name="J" unicode="J" horiz-adv-x="515" d="M109 700h336V211q0-116-70-170T195-13Q93-13 14 23v140q62-38 145-38 136 0 136 103v337H109v135z"/><glyph glyph-name="K" unicode="K" horiz-adv-x="691" d="M225 0H75v700h150V422h113l177 278h167L455 359 695 0H529L338 286H225V0z"/><glyph glyph-name="L" unicode="L" horiz-adv-x="581" d="M75 700h150V135h343V0H75v700z"/><glyph glyph-name="M" unicode="M" horiz-adv-x="907" d="M693 700h139V0H682v431L497 150h-87L225 432V0H75v700h139l240-364z"/><glyph glyph-name="N" unicode="N" horiz-adv-x="764" d="M225 0H75v700h141l326-457q-3 43-3 96v361h150V0H548L222 457q3-43 3-96V0z"/><glyph glyph-name="O" unicode="O" horiz-adv-x="816" d="M36 350q0 72 23.5 137t69 116T246 684t162 30 162-30 117.5-81 69-116T780 350t-23.5-137-69-116T570 16 408-14 246 16 128.5 97t-69 116T36 350zm590 0q0 97-57 161t-161 64q-105 0-162-64t-57-161 57-161 162-64q104 0 161 64t57 161z"/><glyph glyph-name="P" unicode="P" horiz-adv-x="666" d="M75 700h264q302 0 302-235T339 230H225V0H75v700zm413-235q0 103-142 103H225V362h121q142 0 142 103z"/><glyph glyph-name="Q" unicode="Q" horiz-adv-x="816" d="M780 32L679-59l-86 86q-80-41-185-41-90 0-162 30T128.5 97t-69 116T36 350t23.5 137 69 116T246 684t162 30 162-30 117.5-81 69-116T780 350q0-139-81-238zM189 350q0-97 57-161t162-64q40 0 74 13l-84 84 96 95 96-95q36 54 36 128 0 97-57 162t-161 65q-105 0-162-64.5T189 350z"/><glyph glyph-name="R" unicode="R" horiz-adv-x="706" d="M225 0H75v700h288q55 0 101.5-11t88-36 65-71T641 472q0-159-153-208L697 0H524L335 245H225V0zm0 568V370h145q51 0 84.5 24.5T488 469q0 51-33 75t-85 24H225z"/><glyph glyph-name="S" unicode="S" horiz-adv-x="606" d="M44 515q0 97 73 148t183 51q132 0 227-54V520q-89 64-216 62-114-2-114-65 0-28 28.5-49t71-33.5 92-32 92-42 71-66.5T580 192q0-57-21.5-98T498 30 412-3.5 307-14Q161-14 48 49v143q112-74 248-74 131 0 131 67 0 30-28.5 52.5t-71 36-92 33-92 42-71 65.5T44 515z"/><glyph glyph-name="T" unicode="T" horiz-adv-x="605" d="M13 700h579V565H377V0H228v565H13v135z"/><glyph glyph-name="U" unicode="U" horiz-adv-x="750" d="M533 700h149V263q0-60-17-108t-46-79-69-52-83.5-29.5T375-14t-91.5 8.5T200 24t-69 52-46 79-17 108v437h150V271q0-150 157-150 158 0 158 150v429z"/><glyph glyph-name="V" unicode="V" horiz-adv-x="711" d="M432 0H278L6 700h162l187-524 188 524h162z"/><glyph glyph-name="W" unicode="W" horiz-adv-x="1056" d="M884 700h162L830 0H667L528 477 389 0H226L10 700h162l139-529 151 529h132l151-529z"/><glyph glyph-name="X" unicode="X" horiz-adv-x="678" d="M169 0H-6l251 363L9 700h175l155-230 154 230h176L433 363 684 0H508L339 255z"/><glyph glyph-name="Y" unicode="Y" horiz-adv-x="702" d="M426 0H277v248L3 700h169l179-314 179 314h169L426 248V0z"/><glyph glyph-name="Z" unicode="Z" horiz-adv-x="614" d="M580 0H32v108l338 457H47v135h521V592L229 135h351V0z"/><glyph glyph-name="bracketleft" unicode="[" horiz-adv-x="331" d="M302-110H61v920h241V685H201V16h101v-126z"/><glyph glyph-name="backslash" unicode="\" horiz-adv-x="451" d="M428-59h-99L23 759h99z"/><glyph glyph-name="bracketright" unicode="]" horiz-adv-x="331" d="M270-110H29V16h101v669H29v125h241v-920z"/><glyph glyph-name="asciicircum" unicode="^" d="M181 354H32l202 346h122l202-346H409L295 562z"/><glyph glyph-name="underscore" unicode="_" horiz-adv-x="484" d="M484-173H0v118h484v-118z"/><glyph glyph-name="grave" unicode="`" horiz-adv-x="253" d="M243 764H109L1 912h152z"/><glyph glyph-name="a" unicode="a" horiz-adv-x="555" d="M488 124q0-32 34-32 14 0 26 4V5Q510-9 471-9q-76 0-106 54-75-59-173-59-71 0-119.5 39.5T24 133q0 57 34 95t79 51.5 98 13.5q59 0 114-13v17q0 37-29 59t-84 22q-80 0-170-36v120q96 32 186 32 236 0 236-217V124zm-221 86q-43 0-72-16t-29-50q0-26 21.5-42.5T241 85q63 0 108 39v75q-46 11-82 11z"/><glyph glyph-name="b" unicode="b" horiz-adv-x="622" d="M59 700h139V429q57 65 158 65 109 0 171.5-74.5T590 240 527.5 60.5 356-14q-115 0-174 84V0H59v700zm389-460q0 58-34 97.5T322 377q-43 0-76.5-23T197 297V183q15-34 48.5-57t76.5-23q58 0 92 39.5t34 97.5z"/><glyph glyph-name="c" unicode="c" horiz-adv-x="490" d="M32 233q0 66 23.5 118t62.5 82.5 86 46 99 15.5q83 0 148-35V338q-56 36-128 36-63 0-106-33t-43-101q0-65 43-99.5T321 106q77 0 135 35V18q-75-32-162-32-108 0-185 63.5T32 233z"/><glyph glyph-name="d" unicode="d" horiz-adv-x="622" d="M425 700h138V0H441v70q-61-84-174-84-109 0-172 74.5T32 240t63 179.5T267 494q99 0 158-65v271zm0-403q-15 34-48.5 57T300 377q-58 0-92-39.5T174 240t34-97.5 92-39.5q43 0 76.5 23t48.5 57v114z"/><glyph glyph-name="e" unicode="e" horiz-adv-x="547" d="M32 240q0 65 23 115.5t60.5 79.5 79 44 84.5 15q72 0 124.5-27t77.5-69.5 34.5-96T510 195H172q11-50 58-74.5T341 96q79 0 145 29V16q-71-30-176-30-120 0-199 67T32 240zm353 45q5 33-19 68t-82 35q-46 0-79-27.5T171 285h214z"/><glyph glyph-name="f" unicode="f" horiz-adv-x="403" d="M244 0H106v363H23v117h83v47q0 52 16.5 90t44.5 58.5 59.5 29.5 68.5 9q66 0 118-20V577q-35 20-83 20-86 0-86-76v-41h147V363H244V0z"/><glyph glyph-name="g" unicode="g" horiz-adv-x="622" d="M32 240q0 105 63 179.5T267 494q113 0 174-84v70h122V13q0-66-23-115.5t-62.5-77-87.5-41T287-234q-110 0-203 45v122q84-50 185-50 156 0 156 124v44q-59-65-158-65-109 0-172 74.5T32 240zm393 57q-15 34-48.5 57T300 377q-58 0-92-39.5T174 240t34-97.5 92-39.5q43 0 76.5 22t48.5 55v117z"/><glyph glyph-name="h" unicode="h" d="M59 700h139V436q62 58 144 58 92 0 143.5-55.5T537 297V0H398v279q0 47-25.5 71T305 374q-65 0-107-61V0H59v700z"/><glyph glyph-name="i" unicode="i" horiz-adv-x="260" d="M199 0H60v480h139V0zm12 639q0-39-23-59t-59-20q-35 0-58 20t-23 59q0 38 23 58t58 20 58.5-20 23.5-58z"/><glyph glyph-name="j" unicode="j" horiz-adv-x="259" d="M199-68q0-87-47.5-126.5T31-234q-52 0-86 14v119q21-10 50-10 66 0 66 68v523h138V-68zm12 707q0-39-23-59t-58-20-58.5 20T48 639q0 38 23.5 58t58.5 20 58-20 23-58z"/><glyph glyph-name="k" unicode="k" horiz-adv-x="547" d="M548 0H392L254 190h-56V0H59v700h139V301h58l122 179h156L369 243z"/><glyph glyph-name="l" unicode="l" horiz-adv-x="261" d="M61 730h139V0H61v730z"/><glyph glyph-name="m" unicode="m" horiz-adv-x="875" d="M198 0H59v480h123v-56q23 27 63 48.5t90 21.5q99 0 147-71 73 71 160 71 92 0 135.5-57.5T821 304V0H683v295q0 37-20.5 58T608 374q-53 0-95-48 1-7 1-22V0H376v295q0 37-20.5 58T301 374q-59 0-103-58V0z"/><glyph glyph-name="n" unicode="n" d="M182 419q65 75 160 75 92 0 143.5-55.5T537 297V0H398v279q0 47-25.5 71T305 374q-65 0-107-61V0H59v480h123v-61z"/><glyph glyph-name="o" unicode="o" horiz-adv-x="594" d="M32 240q0 120 77 187t188 67q112 0 188.5-67T562 240 485.5 53 297-14q-111 0-188 67T32 240zm389 0q0 57-33 93.5T297 370t-90.5-36.5T174 240t32.5-93.5T297 110t91 36.5 33 93.5z"/><glyph glyph-name="p" unicode="p" horiz-adv-x="622" d="M182 410q59 84 174 84 109 0 171.5-74.5T590 240 527.5 60.5 356-14q-99 0-158 65v-271H59v700h123v-70zm266-170q0 58-34 97.5T322 377q-43 0-76.5-23T197 297V183q15-34 48.5-57t76.5-23q58 0 92 39.5t34 97.5z"/><glyph glyph-name="q" unicode="q" horiz-adv-x="622" d="M32 240q0 105 63 179.5T267 494q113 0 174-84v70h122v-700H425V51q-59-65-158-65-109 0-172 74.5T32 240zm393 57q-15 34-48.5 57T300 377q-58 0-92-39.5T174 240t34-97.5 92-39.5q43 0 76.5 23t48.5 57v114z"/><glyph glyph-name="r" unicode="r" horiz-adv-x="391" d="M182 408q27 42 78 65t116 17V355q-57 10-106.5-10T198 282V0H59v480h123v-72z"/><glyph glyph-name="s" unicode="s" horiz-adv-x="477" d="M38 346q0 77 57 112.5T238 494q93 0 177-41V339q-31 21-78.5 35T247 388q-67 0-67-38 0-22 28-36t68-24.5 79.5-25.5 67.5-48 28-82q0-54-31.5-88t-78-47T233-14Q118-14 42 31v115q78-51 183-51 84 0 84 36 0 21-28 35t-67.5 25-79.5 26.5-68 48T38 346z"/><glyph glyph-name="t" unicode="t" horiz-adv-x="418" d="M95 620l138 33V480h152V363H233V175q0-72 77-72 46 0 87 16V7q-60-21-129-21-76 0-124.5 39T95 148v215H14v117h81v140z"/><glyph glyph-name="u" unicode="u" d="M392 480h139V0H408v61q-65-75-160-75-94 0-144.5 55T53 183v297h139V201q0-47 24-71t68-24q64 0 108 61v313z"/><glyph glyph-name="v" unicode="v" horiz-adv-x="560" d="M403 480h148L353 0H207L9 480h148l123-333z"/><glyph glyph-name="w" unicode="w" horiz-adv-x="817" d="M658 480h147L651 0H504l-95 313L314 0H166L12 480h148l87-329 96 329h132l95-329z"/><glyph glyph-name="x" unicode="x" horiz-adv-x="530" d="M362 480h157L346 242 529 0H372L266 147 159 0H2l183 242L11 480h157l98-144z"/><glyph glyph-name="y" unicode="y" horiz-adv-x="563" d="M290 156l119 324h144L340-58q-71-175-207-175-29 0-75 11v115q33-7 57-7 76 0 114 105l1 2L3 480h147z"/><glyph glyph-name="z" unicode="z" horiz-adv-x="482" d="M44 480h391v-90L210 116h241V0H31v90l225 275H44v115z"/><glyph glyph-name="braceleft" unicode="{" horiz-adv-x="357" d="M319 12v-122q-102-23-160 16T101 31v191q0 69-74 67v122q74-2 74 67v191q0 86 58 125t160 16V688q-43 7-60.5-13T241 608V460q0-51-25.5-79.5T156 350q34-2 59.5-30.5T241 240V92q0-47 17.5-67T319 12z"/><glyph glyph-name="bar" unicode="|" horiz-adv-x="262" d="M201-100H61v910h140v-910z"/><glyph glyph-name="braceright" unicode="}" horiz-adv-x="357" d="M256 31q0-86-58-125T38-110V12q43-7 60.5 13T116 92v148q0 51 25.5 79.5T201 350q-34 2-59.5 30.5T116 460v148q0 47-17.5 67T38 688v122q102 23 160-16t58-125V478q0-69 74-67V289q-74 2-74-67V31z"/><glyph glyph-name="asciitilde" unicode="~" horiz-adv-x="601" d="M546 407q9-76-27-118t-100-42q-39 0-113.5 27T209 300q-35 0-29-43H62q-9 77 27.5 118t96.5 41q44 0 115.5-26t96.5-26q35 0 30 43h118z"/><glyph glyph-name="exclamdown" unicode="¡" horiz-adv-x="260" d="M203-219H57l9 460h128zm11 631q0-40-24-60.5T130 331t-60 20.5T46 412t24 61 60 21 60-20.5 24-61.5z"/><glyph glyph-name="cent" unicode="¢" horiz-adv-x="507" d="M366 109q54 9 92 32V18Q414-1 366-8v-112h-96v107Q170-6 102 57T34 233q0 118 68 184t168 76v107h96V490q49-9 87-30V338q-39 25-87 32V109zm-96 258q-94-27-94-127 0-50 26-82t68-44v253z"/><glyph glyph-name="sterling" unicode="£" horiz-adv-x="603" d="M566 0H38v122h26q32 0 50.5 24t18.5 61v72H53v112h80v62q0 121 70 181t175 60q85 0 161-37V535q-56 44-133 44-58 0-95.5-32T273 450v-59h194V279H273v-72q0-60-34-85h327V0z"/><glyph glyph-name="currency" unicode="¤" horiz-adv-x="569" d="M180 177l-62-62-69 69 58 57q-31 46-31 109 0 62 31 109l-58 58 68 69 63-63q46 24 104 24t104-24l63 63 69-69-59-59q31-47 31-108 0-63-31-108l59-58-69-69-62 62q-47-24-105-24t-104 24zm15 173q0-38 23.5-63t65.5-25 65.5 25 23.5 63-23.5 63-65.5 25-65.5-25-23.5-63z"/><glyph glyph-name="yen" unicode="¥" horiz-adv-x="714" d="M525 680h161L485 348h108v-96H431v-52h162v-96H431V0H282v104H121v96h161v52H121v96h107L27 680h161l168-300z"/><glyph glyph-name="brokenbar" unicode="¦" horiz-adv-x="274" d="M207 438H67v372h140V438zm0-538H67v372h140v-372z"/><glyph glyph-name="section" unicode="§" horiz-adv-x="522" d="M467 113q0-54-31.5-88t-78-47T249-35Q144-35 68 10v111q77-49 174-49 42 0 62.5 7.5T325 109q0 31-107 62-8 3-12 4-35 11-59 21.5T98 224t-38 43-13 59q0 81 71 129-61 41-61 111 0 77 58 112.5T261 714q90 0 174-41V563q-32 19-78.5 32T271 608q-72 0-72-38 0-12 7.5-21.5t29.5-19 33-13 47-13.5q2-1 3.5-1t3-1 3.5-1q71-21 112-53.5t41-93.5q0-76-70-126 58-43 58-114zM249 291q17-5 57-17 39 24 39 59 0 21-17 34t-49 26q-39 13-61 20-43-21-43-61 0-22 18-34.5t56-26.5z"/><glyph glyph-name="dieresis" unicode="¨" horiz-adv-x="346" d="M355 833q0-31-21.5-52.5T281 759t-53 21.5-22 52.5 22 53 53 22 52.5-22 21.5-53zm-214 0q0-31-21.5-52.5T67 759t-53 21.5T-8 833t22 53 53 22 52.5-22 21.5-53z"/><glyph glyph-name="copyright" unicode="©" horiz-adv-x="846" d="M806 350q0-87-33-158T685.5 77t-122-67.5T423-14 282.5 9.5 160.5 77 73 192 40 350t33 158 87.5 115 122 67.5T423 714t140.5-23.5 122-67.5T773 508t33-158zM578 180q-65-34-142-34-38 0-73.5 11.5T296 192t-49.5 61.5T228 342q0 105 64.5 158.5T448 554q75 0 130-34v-89q-53 30-110 30-52 0-88.5-27T343 348q0-58 35.5-83.5T466 239q57 0 112 30v-89zM90 350q0-149 99.5-233.5T423 32t233.5 84.5T756 350t-99.5 233.5T423 668t-233.5-84.5T90 350z"/><glyph glyph-name="guillemotleft" unicode="«" horiz-adv-x="559" d="M526 46H386L257 227v26l129 181h140L390 240zm-228 0H158L29 227v26l129 181h140L162 240z"/><glyph glyph-name="logicalnot" unicode="¬" horiz-adv-x="577" d="M515 238H396v124H47v118h468V238z"/><glyph glyph-name="registered" unicode="®" horiz-adv-x="839" d="M799 350q0-113-56-198T602 26.5 420-14q-98 0-183 40.5T96 152 40 350t56 198 141 125.5T420 714q97 0 182-40.5T743 548t56-198zm-709 0q0-150 97-233t233-83q87 0 160.5 34T702 175.5 750 350t-48 174.5T580.5 632 420 666q-136 0-233-83T90 350zm270-191h-96v391h189q63 0 109.5-33T609 416q0-47-23-77.5T526 297l106-138H523l-96 128h-67V159zm0 301v-95h81q66 0 66 47 0 48-66 48h-81z"/><glyph glyph-name="macron" unicode="¯" horiz-adv-x="360" d="M17 877h326V767H17v110z"/><glyph glyph-name="degree" unicode="°" horiz-adv-x="416" d="M384 547q0-80-50.5-125T208 377 82 422 31 547q0 77 51.5 122T208 714t125-45 51-122zm-250 0q0-34 20.5-54.5T209 472t53.5 20 19.5 55q0 33-19.5 52.5T209 619t-54.5-19.5T134 547z"/><glyph glyph-name="plusminus" unicode="±" horiz-adv-x="576" d="M347 648V473h175V355H347V180H229v175H54v118h175v175h118zM522 0H54v118h468V0z"/><glyph glyph-name="acute" unicode="´" horiz-adv-x="240" d="M143 764H9l90 148h152z"/><glyph glyph-name="paragraph" unicode="¶" horiz-adv-x="731" d="M402-220H259v487q-107 0-168.5 57.5T29 484q0 101 61.5 158.5T259 700h398v-920H514v785H402v-785z"/><glyph glyph-name="periodcentered" unicode="·" horiz-adv-x="264" d="M216 239q0-41-24-61.5T132 157t-60.5 21T47 239t24.5 61 60.5 21 60-21 24-61z"/><glyph glyph-name="cedilla" unicode="¸" horiz-adv-x="222" d="M62 0h97l-13-48q94-9 94-87 1-49-42-74T96-234-6-215v86q34-20 80-20 62 0 62 30 0 18-27.5 24.5T40-93z"/><glyph glyph-name="guillemotright" unicode="»" horiz-adv-x="559" d="M401 46H261l136 194-136 194h140l129-181v-26zm-228 0H33l136 194L33 434h140l129-181v-26z"/><glyph glyph-name="onequarter" unicode="¼" horiz-adv-x="916" d="M729 408h97V154h59V72h-59V0h-92v72H522v81zm5-254v135L624 154h110zM236-14h-45l458 728h45zm-77 694h70V356h75v-84H46v84h89v227l-86-28v87z"/><glyph glyph-name="onehalf" unicode="½" horiz-adv-x="879" d="M232-14h-45l458 728h45zm319 387q63 44 143 44 67 0 108.5-31t41.5-92q0-47-29.5-80T735 151q-26-15-35-20t-25-15.5-22-18-6-14.5l198 1V0H538v43q0 28 9.5 52.5t19 39.5 33.5 33.5 33.5 24T672 215q4 3 16.5 10t17 9.5T719 243t12.5 10 8.5 10.5 6.5 12.5 1.5 14q0 42-63 42-68 0-134-50v91zM155 680h70V356h75v-84H42v84h89v227l-86-28v87z"/><glyph glyph-name="threequarters" unicode="¾" horiz-adv-x="971" d="M294-14h-45l458 728h45zm490 422h97V154h59V72h-59V0h-92v72H577v81zm5-254v135L679 154h110zM332 581q0-65-57-88 74-25 74-104 0-61-48-91t-118-30-141 28v90q59-34 133-32 82 0 82 48 0 43-66 43h-68l1 83h56q61 0 61 39 0 42-71 42-63 0-121-38v90q61 33 134 33 66 0 107.5-29.5T332 581z"/><glyph glyph-name="questiondown" unicode="¿" horiz-adv-x="492" d="M460-184q-93-49-194-49-104 0-171.5 43T27-58q0 38 18 76t44 67 52 56.5 44 56 18 53.5h132q0-43-24.5-85.5T256 94t-54.5-62T177-26q0-75 114-75 84 0 169 49v-132zM352 412q0-40-24-60.5T268 331q-37 0-61 20.5T183 412q0 41 24 61.5t61 20.5q36 0 60-21t24-61z"/><glyph glyph-name="Agrave" unicode="À" horiz-adv-x="739" d="M158 0H3l286 700h162L736 0H581l-51 131H210zm196 506l-97-251h226l-98 251q-10 28-15 55-6-31-16-55zm102 258H322L214 912h152z"/><glyph glyph-name="Aacute" unicode="Á" horiz-adv-x="739" d="M158 0H3l286 700h162L736 0H581l-51 131H210zm196 506l-97-251h226l-98 251q-10 28-15 55-6-31-16-55zm61 258H281l90 148h152z"/><glyph glyph-name="Acircumflex" unicode="Â" horiz-adv-x="739" d="M158 0H3l286 700h162L736 0H581l-51 131H210zm196 506l-97-251h226l-98 251q-10 28-15 55-6-31-16-55zm-46 406h123l124-155H423l-53 65-53-65H184z"/><glyph glyph-name="Atilde" unicode="Ã" horiz-adv-x="739" d="M158 0H3l286 700h162L736 0H581l-51 131H210zm196 506l-97-251h226l-98 251q-10 28-15 55-6-31-16-55zm193 379q14-60-14-99.5T453 746q-37 0-84 21t-58 21q-16 0-21.5-11.5T288 752H188q-14 60 14 99.5t79 39.5q37 0 84-21t59-21q16 0 21.5 11.5T447 885h100z"/><glyph glyph-name="Adieresis" unicode="Ä" horiz-adv-x="739" d="M158 0H3l286 700h162L736 0H581l-51 131H210zm196 506l-97-251h226l-98 251q-10 28-15 55-6-31-16-55zm196 327q0-31-21.5-52.5T476 759t-53 21.5-22 52.5 22 53 53 22 52.5-22 21.5-53zm-214 0q0-31-21.5-52.5T262 759t-53 21.5-22 52.5 22 53 53 22 52.5-22 21.5-53z"/><glyph glyph-name="Aring" unicode="Å" horiz-adv-x="739" d="M158 0H3l286 700h162L736 0H581l-51 131H210zm196 506l-97-251h226l-98 251q-10 28-15 55-6-31-16-55zm139 350q0-56-36-88.5T368 735q-52 0-88.5 32.5T243 856q0 54 36.5 86t88.5 32 88.5-32 36.5-86zm-166-1q0-19 12-31t30-12 30 12 12 31-12 30.5-30 11.5-30-11.5-12-30.5z"/><glyph glyph-name="AE" unicode="Æ" horiz-adv-x="1012" d="M644 288V132h325V0H494v135H228L140 0H-16l457 700h522V568H644V419h289V288H644zm-341-33h190v292z"/><glyph glyph-name="Ccedilla" unicode="Ç" horiz-adv-x="654" d="M617 178V31Q550-2 468-11l-10-37q94-9 94-87 1-49-42-74t-102-25-102 19v86q34-20 80-20 62 0 62 30 0 18-27.5 24.5T352-93l19 81q-66 6-125 31T139.5 86 64 194.5 36 342q0 92 32.5 165.5t86 117.5T274 691.5 412 714q110 0 200-45V526q-71 55-175 55-102 0-174.5-60.5T190 342q0-56 21-99.5t56.5-69.5 79-39.5T437 120q116 0 180 58z"/><glyph glyph-name="Egrave" unicode="È" horiz-adv-x="618" d="M75 700h493V568H225V419h313V288H225V132h349V0H75v700zm343 64H284L176 912h152z"/><glyph glyph-name="Eacute" unicode="É" horiz-adv-x="618" d="M75 700h493V568H225V419h313V288H225V132h349V0H75v700zm302 64H243l90 148h152z"/><glyph glyph-name="Ecircumflex" unicode="Ê" horiz-adv-x="618" d="M75 700h493V568H225V419h313V288H225V132h349V0H75v700zm195 212h123l124-155H385l-53 65-53-65H146z"/><glyph glyph-name="Edieresis" unicode="Ë" horiz-adv-x="618" d="M75 700h493V568H225V419h313V288H225V132h349V0H75v700zm437 133q0-31-21.5-52.5T438 759t-53 21.5-22 52.5 22 53 53 22 52.5-22 21.5-53zm-214 0q0-31-21.5-52.5T224 759t-53 21.5-22 52.5 22 53 53 22 52.5-22 21.5-53z"/><glyph glyph-name="Igrave" unicode="Ì" horiz-adv-x="300" d="M75 700h150V0H75v700zm163 64H104L-4 912h152z"/><glyph glyph-name="Iacute" unicode="Í" horiz-adv-x="300" d="M75 700h150V0H75v700zm122 64H63l90 148h152z"/><glyph glyph-name="Icircumflex" unicode="Î" horiz-adv-x="300" d="M75 700h150V0H75v700zm15 212h123l124-155H205l-53 65-53-65H-34z"/><glyph glyph-name="Idieresis" unicode="Ï" horiz-adv-x="300" d="M75 700h150V0H75v700zm257 133q0-31-21.5-52.5T258 759t-53 21.5-22 52.5 22 53 53 22 52.5-22 21.5-53zm-214 0q0-31-21.5-52.5T44 759t-53 21.5-22 52.5 22 53 53 22 52.5-22 21.5-53z"/><glyph glyph-name="Eth" unicode="Ð" horiz-adv-x="752" d="M86 700h262q180 0 273.5-95.5T715 350 621.5 95.5 348 0H86v294H12v111h74v295zm150-568h112q105 0 159.5 55T562 350t-54.5 163T348 568H236V405h155V294H236V132z"/><glyph glyph-name="Ntilde" unicode="Ñ" horiz-adv-x="764" d="M225 0H75v700h141l326-457q-3 43-3 96v361h150V0H548L222 457q3-43 3-96V0zm335 885q14-60-14-99.5T466 746q-37 0-84 21t-58 21q-16 0-21.5-11.5T301 752H201q-14 60 14 99.5t79 39.5q37 0 84-21t59-21q16 0 21.5 11.5T460 885h100z"/><glyph glyph-name="Ograve" unicode="Ò" horiz-adv-x="816" d="M36 350q0 72 23.5 137t69 116T246 684t162 30 162-30 117.5-81 69-116T780 350t-23.5-137-69-116T570 16 408-14 246 16 128.5 97t-69 116T36 350zm590 0q0 97-57 161t-161 64q-105 0-162-64t-57-161 57-161 162-64q104 0 161 64t57 161zM495 764H361L253 912h152z"/><glyph glyph-name="Oacute" unicode="Ó" horiz-adv-x="816" d="M36 350q0 72 23.5 137t69 116T246 684t162 30 162-30 117.5-81 69-116T780 350t-23.5-137-69-116T570 16 408-14 246 16 128.5 97t-69 116T36 350zm590 0q0 97-57 161t-161 64q-105 0-162-64t-57-161 57-161 162-64q104 0 161 64t57 161zM454 764H320l90 148h152z"/><glyph glyph-name="Ocircumflex" unicode="Ô" horiz-adv-x="816" d="M36 350q0 72 23.5 137t69 116T246 684t162 30 162-30 117.5-81 69-116T780 350t-23.5-137-69-116T570 16 408-14 246 16 128.5 97t-69 116T36 350zm590 0q0 97-57 161t-161 64q-105 0-162-64t-57-161 57-161 162-64q104 0 161 64t57 161zM347 912h123l124-155H462l-53 65-53-65H223z"/><glyph glyph-name="Otilde" unicode="Õ" horiz-adv-x="816" d="M36 350q0 72 23.5 137t69 116T246 684t162 30 162-30 117.5-81 69-116T780 350t-23.5-137-69-116T570 16 408-14 246 16 128.5 97t-69 116T36 350zm590 0q0 97-57 161t-161 64q-105 0-162-64t-57-161 57-161 162-64q104 0 161 64t57 161zm-40 535q14-60-14-99.5T492 746q-37 0-84 21t-58 21q-16 0-21.5-11.5T327 752H227q-14 60 14 99.5t79 39.5q37 0 84-21t59-21q16 0 21.5 11.5T486 885h100z"/><glyph glyph-name="Odieresis" unicode="Ö" horiz-adv-x="816" d="M36 350q0 72 23.5 137t69 116T246 684t162 30 162-30 117.5-81 69-116T780 350t-23.5-137-69-116T570 16 408-14 246 16 128.5 97t-69 116T36 350zm590 0q0 97-57 161t-161 64q-105 0-162-64t-57-161 57-161 162-64q104 0 161 64t57 161zm-37 483q0-31-21.5-52.5T515 759t-53 21.5-22 52.5 22 53 53 22 52.5-22 21.5-53zm-214 0q0-31-21.5-52.5T301 759t-53 21.5-22 52.5 22 53 53 22 52.5-22 21.5-53z"/><glyph glyph-name="multiply" unicode="×" horiz-adv-x="504" d="M252 273L127 148l-78 77 125 126L49 476l78 77 125-125 125 125 78-77-125-125 125-126-78-77z"/><glyph glyph-name="Oslash" unicode="Ø" horiz-adv-x="816" d="M739 748l-83-115q61-51 92.5-125T780 350q0-72-23.5-137t-69-116T570 16 408-14q-106 0-187 42l-54-76H67l87 120q-58 51-88 123.5T36 350q0 72 23.5 137t69 116T246 684t162 30q101 0 180-38l52 72h99zM408 575q-105 0-162-64t-57-161q0-94 53-155l260 362q-39 18-94 18zM306 146q44-21 102-21 104 0 161 64t57 161q0 100-57 161z"/><glyph glyph-name="Ugrave" unicode="Ù" horiz-adv-x="750" d="M533 700h149V263q0-60-17-108t-46-79-69-52-83.5-29.5T375-14t-91.5 8.5T200 24t-69 52-46 79-17 108v437h150V271q0-150 157-150 158 0 158 150v429zm-72 64H327L219 912h152z"/><glyph glyph-name="Uacute" unicode="Ú" horiz-adv-x="750" d="M533 700h149V263q0-60-17-108t-46-79-69-52-83.5-29.5T375-14t-91.5 8.5T200 24t-69 52-46 79-17 108v437h150V271q0-150 157-150 158 0 158 150v429zm-113 64H286l90 148h152z"/><glyph glyph-name="Ucircumflex" unicode="Û" horiz-adv-x="750" d="M533 700h149V263q0-60-17-108t-46-79-69-52-83.5-29.5T375-14t-91.5 8.5T200 24t-69 52-46 79-17 108v437h150V271q0-150 157-150 158 0 158 150v429zM313 912h123l124-155H428l-53 65-53-65H189z"/><glyph glyph-name="Udieresis" unicode="Ü" horiz-adv-x="750" d="M533 700h149V263q0-60-17-108t-46-79-69-52-83.5-29.5T375-14t-91.5 8.5T200 24t-69 52-46 79-17 108v437h150V271q0-150 157-150 158 0 158 150v429zm22 133q0-31-21.5-52.5T481 759t-53 21.5-22 52.5 22 53 53 22 52.5-22 21.5-53zm-214 0q0-31-21.5-52.5T267 759t-53 21.5-22 52.5 22 53 53 22 52.5-22 21.5-53z"/><glyph glyph-name="Yacute" unicode="Ý" horiz-adv-x="702" d="M426 0H277v248L3 700h169l179-314 179 314h169L426 248V0zm-30 764H262l90 148h152z"/><glyph glyph-name="Thorn" unicode="Þ" horiz-adv-x="665" d="M225 585h114q302 0 302-235 0-233-302-235H225V0H75v700h150V585zm0-338h121q142 0 142 103T346 453H225V247z"/><glyph glyph-name="germandbls" unicode="ß" d="M568 143q0-77-58.5-117T370-14q-64 0-118 24v109q46-23 90-23 38 0 61.5 15t23.5 44q0 21-22 48t-49 49.5-49 52.5-22 58q0 36 36 85.5t36 89.5q0 33-20.5 50T282 605q-39 0-61.5-21.5T198 523V0H59v490q0 107 58 165t165 59q102 1 154.5-47T489 561q0-37-19.5-71t-39-61-19.5-46q0-21 24.5-47.5t54-50 54-62T568 143z"/><glyph glyph-name="agrave" unicode="à" horiz-adv-x="555" d="M488 124q0-32 34-32 14 0 26 4V5Q510-9 471-9q-76 0-106 54-75-59-173-59-71 0-119.5 39.5T24 133q0 57 34 95t79 51.5 98 13.5q59 0 114-13v17q0 37-29 59t-84 22q-80 0-170-36v120q96 32 186 32 236 0 236-217V124zm-221 86q-43 0-72-16t-29-50q0-26 21.5-42.5T241 85q63 0 108 39v75q-46 11-82 11zm73 341H206L98 699h152z"/><glyph glyph-name="aacute" unicode="á" horiz-adv-x="555" d="M488 124q0-32 34-32 14 0 26 4V5Q510-9 471-9q-76 0-106 54-75-59-173-59-71 0-119.5 39.5T24 133q0 57 34 95t79 51.5 98 13.5q59 0 114-13v17q0 37-29 59t-84 22q-80 0-170-36v120q96 32 186 32 236 0 236-217V124zm-221 86q-43 0-72-16t-29-50q0-26 21.5-42.5T241 85q63 0 108 39v75q-46 11-82 11zm32 341H165l90 148h152z"/><glyph glyph-name="acircumflex" unicode="â" horiz-adv-x="555" d="M488 124q0-32 34-32 14 0 26 4V5Q510-9 471-9q-76 0-106 54-75-59-173-59-71 0-119.5 39.5T24 133q0 57 34 95t79 51.5 98 13.5q59 0 114-13v17q0 37-29 59t-84 22q-80 0-170-36v120q96 32 186 32 236 0 236-217V124zm-221 86q-43 0-72-16t-29-50q0-26 21.5-42.5T241 85q63 0 108 39v75q-46 11-82 11zm-75 489h123l124-155H307l-53 65-53-65H68z"/><glyph glyph-name="atilde" unicode="ã" horiz-adv-x="555" d="M488 124q0-32 34-32 14 0 26 4V5Q510-9 471-9q-76 0-106 54-75-59-173-59-71 0-119.5 39.5T24 133q0 57 34 95t79 51.5 98 13.5q59 0 114-13v17q0 37-29 59t-84 22q-80 0-170-36v120q96 32 186 32 236 0 236-217V124zm-221 86q-43 0-72-16t-29-50q0-26 21.5-42.5T241 85q63 0 108 39v75q-46 11-82 11zm164 462q14-60-14-99.5T337 533q-37 0-84 21t-58 21q-16 0-21.5-11.5T172 539H72q-14 60 14 99.5t79 39.5q37 0 84-21t59-21q16 0 21.5 11.5T331 672h100z"/><glyph glyph-name="adieresis" unicode="ä" horiz-adv-x="555" d="M488 124q0-32 34-32 14 0 26 4V5Q510-9 471-9q-76 0-106 54-75-59-173-59-71 0-119.5 39.5T24 133q0 57 34 95t79 51.5 98 13.5q59 0 114-13v17q0 37-29 59t-84 22q-80 0-170-36v120q96 32 186 32 236 0 236-217V124zm-221 86q-43 0-72-16t-29-50q0-26 21.5-42.5T241 85q63 0 108 39v75q-46 11-82 11zm167 410q0-31-21.5-52.5T360 546t-53 21.5-22 52.5 22 53 53 22 52.5-22 21.5-53zm-214 0q0-31-21.5-52.5T146 546t-53 21.5T71 620t22 53 53 22 52.5-22 21.5-53z"/><glyph glyph-name="aring" unicode="å" horiz-adv-x="555" d="M488 124q0-32 34-32 14 0 26 4V5Q510-9 471-9q-76 0-106 54-75-59-173-59-71 0-119.5 39.5T24 133q0 57 34 95t79 51.5 98 13.5q59 0 114-13v17q0 37-29 59t-84 22q-80 0-170-36v120q96 32 186 32 236 0 236-217V124zm-221 86q-43 0-72-16t-29-50q0-26 21.5-42.5T241 85q63 0 108 39v75q-46 11-82 11zm110 433q0-56-36-88.5T252 522q-52 0-88.5 32.5T127 643q0 54 36.5 86t88.5 32 88.5-32 36.5-86zm-166-1q0-19 12-31t30-12 30 12 12 31-12 30.5-30 11.5-30-11.5-12-30.5z"/><glyph glyph-name="ae" unicode="æ" horiz-adv-x="868" d="M431 63q-98-77-231-77-75 0-125.5 39T24 133q0 45 18.5 77.5t51.5 50 70.5 25T246 293q67 0 118-13v16q0 81-126 81-84 0-172-37v122q96 32 187 32 133 0 184-74 68 74 172 74 91 0 148.5-46.5t74-113.5-.5-141H493q11-48 58-72.5T662 96q80 0 144 29V17q-73-31-176-31-130 0-199 77zm-264 81q0-29 21.5-43.5T244 86q78 0 142 50-11 29-14 66-59 9-93 9-48 0-80-16t-32-51zm438 243q-47 0-79.5-28T492 282h214q5 35-19 70t-82 35z"/><glyph glyph-name="ccedilla" unicode="ç" horiz-adv-x="490" d="M456 141V18Q403-4 348-10l-10-38q93-9 93-87 1-49-42-74t-102-25-102 19v86q34-20 80-20 62 0 62 30 0 18-27.5 24.5T231-93l20 82Q157 1 94.5 63T32 233q0 66 23.5 118t62.5 82.5 86 46 99 15.5q83 0 148-35V338q-56 36-128 36-63 0-106-33t-43-101q0-65 43-99.5T321 106q77 0 135 35z"/><glyph glyph-name="egrave" unicode="è" horiz-adv-x="547" d="M32 240q0 65 23 115.5t60.5 79.5 79 44 84.5 15q72 0 124.5-27t77.5-69.5 34.5-96T510 195H172q11-50 58-74.5T341 96q79 0 145 29V16q-71-30-176-30-120 0-199 67T32 240zm353 45q5 33-19 68t-82 35q-46 0-79-27.5T171 285h214zm-18 259H233L125 692h152z"/><glyph glyph-name="eacute" unicode="é" horiz-adv-x="547" d="M32 240q0 65 23 115.5t60.5 79.5 79 44 84.5 15q72 0 124.5-27t77.5-69.5 34.5-96T510 195H172q11-50 58-74.5T341 96q79 0 145 29V16q-71-30-176-30-120 0-199 67T32 240zm353 45q5 33-19 68t-82 35q-46 0-79-27.5T171 285h214zm-59 259H192l90 148h152z"/><glyph glyph-name="ecircumflex" unicode="ê" horiz-adv-x="547" d="M32 240q0 65 23 115.5t60.5 79.5 79 44 84.5 15q72 0 124.5-27t77.5-69.5 34.5-96T510 195H172q11-50 58-74.5T341 96q79 0 145 29V16q-71-30-176-30-120 0-199 67T32 240zm353 45q5 33-19 68t-82 35q-46 0-79-27.5T171 285h214zM219 692h123l124-155H334l-53 65-53-65H95z"/><glyph glyph-name="edieresis" unicode="ë" horiz-adv-x="547" d="M32 240q0 65 23 115.5t60.5 79.5 79 44 84.5 15q72 0 124.5-27t77.5-69.5 34.5-96T510 195H172q11-50 58-74.5T341 96q79 0 145 29V16q-71-30-176-30-120 0-199 67T32 240zm353 45q5 33-19 68t-82 35q-46 0-79-27.5T171 285h214zm76 328q0-31-21.5-52.5T387 539t-53 21.5-22 52.5 22 53 53 22 52.5-22 21.5-53zm-214 0q0-31-21.5-52.5T173 539t-53 21.5T98 613t22 53 53 22 52.5-22 21.5-53z"/><glyph glyph-name="igrave" unicode="ì" horiz-adv-x="259" d="M199 0H60v480h139V0zm12 544H80L-1 692h148z"/><glyph glyph-name="iacute" unicode="í" horiz-adv-x="259" d="M60 480h139V0H60v480zm116 64H42l90 148h152z"/><glyph glyph-name="icircumflex" unicode="î" horiz-adv-x="259" d="M69 689h123l103-152H170l-39 61-40-61H-33zm-9-209h139V0H60v480z"/><glyph glyph-name="idieresis" unicode="ï" horiz-adv-x="259" d="M293 613q0-29-20.5-49T224 544q-29 0-49.5 20T154 613t20.5 49.5T224 683q28 0 48.5-20.5T293 613zm-187 0q0-28-20.5-48.5T36 544q-28 0-48.5 20T-33 613t20.5 49.5T36 683t49-20.5 21-49.5zM60 480h139V0H60v480z"/><glyph glyph-name="eth" unicode="ð" horiz-adv-x="585" d="M546 277q0-149-70.5-220T289-14q-112 0-184 61T33 217q0 100 60 160.5T242 438q54 0 98.5-20t66.5-54q0 8-2 26-19 109-114 166l-80-80-64 64 55 54q-49 11-101 11v105q98 0 185-31l75 75 64-64-54-54q175-115 175-359zm-371-60q0-46 28.5-79.5T289 104q56 0 83 31.5t30 76.5q0 46-30 81t-86 35q-54 0-82.5-33T175 217z"/><glyph glyph-name="ntilde" unicode="ñ" d="M182 419q65 75 160 75 92 0 143.5-55.5T537 297V0H398v279q0 47-25.5 71T305 374q-65 0-107-61V0H59v480h123v-61zm286 246q14-60-14-99.5T374 526q-37 0-84 21t-58 21q-16 0-21.5-11.5T209 532H109q-14 60 14 99.5t79 39.5q37 0 84-21t59-21q16 0 21.5 11.5T368 665h100z"/><glyph glyph-name="ograve" unicode="ò" horiz-adv-x="594" d="M32 240q0 120 77 187t188 67q112 0 188.5-67T562 240 485.5 53 297-14q-111 0-188 67T32 240zm389 0q0 57-33 93.5T297 370t-90.5-36.5T174 240t32.5-93.5T297 110t91 36.5 33 93.5zm-36 298H251L143 686h152z"/><glyph glyph-name="oacute" unicode="ó" horiz-adv-x="594" d="M32 240q0 120 77 187t188 67q112 0 188.5-67T562 240 485.5 53 297-14q-111 0-188 67T32 240zm389 0q0 57-33 93.5T297 370t-90.5-36.5T174 240t32.5-93.5T297 110t91 36.5 33 93.5zm-77 298H210l90 148h152z"/><glyph glyph-name="ocircumflex" unicode="ô" horiz-adv-x="594" d="M32 240q0 120 77 187t188 67q112 0 188.5-67T562 240 485.5 53 297-14q-111 0-188 67T32 240zm389 0q0 57-33 93.5T297 370t-90.5-36.5T174 240t32.5-93.5T297 110t91 36.5 33 93.5zM237 686h123l124-155H352l-53 65-53-65H113z"/><glyph glyph-name="otilde" unicode="õ" horiz-adv-x="594" d="M32 240q0 120 77 187t188 67q112 0 188.5-67T562 240 485.5 53 297-14q-111 0-188 67T32 240zm389 0q0 57-33 93.5T297 370t-90.5-36.5T174 240t32.5-93.5T297 110t91 36.5 33 93.5zm55 419q14-60-14-99.5T382 520q-37 0-84 21t-58 21q-16 0-21.5-11.5T217 526H117q-14 60 14 99.5t79 39.5q37 0 84-21t59-21q16 0 21.5 11.5T376 659h100z"/><glyph glyph-name="odieresis" unicode="ö" horiz-adv-x="594" d="M32 240q0 120 77 187t188 67q112 0 188.5-67T562 240 485.5 53 297-14q-111 0-188 67T32 240zm389 0q0 57-33 93.5T297 370t-90.5-36.5T174 240t32.5-93.5T297 110t91 36.5 33 93.5zm58 367q0-31-21.5-52.5T405 533t-53 21.5-22 52.5 22 53 53 22 52.5-22 21.5-53zm-214 0q0-31-21.5-52.5T191 533t-53 21.5-22 52.5 22 53 53 22 52.5-22 21.5-53z"/><glyph glyph-name="divide" unicode="÷" horiz-adv-x="558" d="M519 291H39v118h480V291zM364 127q0-41-24-62t-60-21-60.5 21-24.5 62q0 40 24.5 60.5T280 208t60-20.5 24-60.5zm0 447q0-41-24-62t-60-21-60.5 21-24.5 62q0 40 24.5 60.5T280 655t60-20.5 24-60.5z"/><glyph glyph-name="oslash" unicode="ø" horiz-adv-x="594" d="M520 543l-61-96q103-68 103-207 0-120-76.5-187T297-14q-63 0-118 23l-46-71H73l61 96Q32 103 32 240q0 120 77 187t188 67q64 0 117-22l46 71h60zM297 370q-58 0-90.5-36.5T174 240q0-58 32-93l139 215q-24 8-48 8zm-49-252q24-8 49-8 58 0 91 36.5t33 93.5q0 58-34 94z"/><glyph glyph-name="ugrave" unicode="ù" d="M392 480h139V0H408v61q-65-75-160-75-94 0-144.5 55T53 183v297h139V201q0-47 24-71t68-24q64 0 108 61v313zm-11 64H247L139 692h152z"/><glyph glyph-name="uacute" unicode="ú" d="M392 480h139V0H408v61q-65-75-160-75-94 0-144.5 55T53 183v297h139V201q0-47 24-71t68-24q64 0 108 61v313zm-52 64H206l90 148h152z"/><glyph glyph-name="ucircumflex" unicode="û" d="M392 480h139V0H408v61q-65-75-160-75-94 0-144.5 55T53 183v297h139V201q0-47 24-71t68-24q64 0 108 61v313zM233 692h123l124-155H348l-53 65-53-65H109z"/><glyph glyph-name="udieresis" unicode="ü" d="M392 480h139V0H408v61q-65-75-160-75-94 0-144.5 55T53 183v297h139V201q0-47 24-71t68-24q64 0 108 61v313zm83 133q0-31-21.5-52.5T401 539t-53 21.5-22 52.5 22 53 53 22 52.5-22 21.5-53zm-214 0q0-31-21.5-52.5T187 539t-53 21.5-22 52.5 22 53 53 22 52.5-22 21.5-53z"/><glyph glyph-name="yacute" unicode="ý" horiz-adv-x="563" d="M290 156l119 324h144L340-58q-71-175-207-175-29 0-75 11v115q33-7 57-7 76 0 114 105l1 2L3 480h147zm29 388H185l90 148h152z"/><glyph glyph-name="thorn" unicode="þ" horiz-adv-x="622" d="M59 700h139V422q63 72 161 72 108 0 169.5-75.5T590 240q0-105-63-179.5T359-14q-99 0-161 68v-274H59v920zm389-460q0 58-34 97.5T323 377q-44 0-77.5-23.5T197 294V187q17-35 50.5-57.5T323 106q56-1 90.5 37.5T448 240z"/><glyph glyph-name="ydieresis" unicode="ÿ" horiz-adv-x="563" d="M290 156l119 324h144L340-58q-71-175-207-175-29 0-75 11v115q33-7 57-7 76 0 114 105l1 2L3 480h147zm164 457q0-31-21.5-52.5T380 539t-53 21.5-22 52.5 22 53 53 22 52.5-22 21.5-53zm-214 0q0-31-21.5-52.5T166 539t-53 21.5T91 613t22 53 53 22 52.5-22 21.5-53z"/><glyph glyph-name="Amacron" unicode="Ā" horiz-adv-x="739" d="M158 0H3l286 700h162L736 0H581l-51 131H210zm196 506l-97-251h226l-98 251q-10 28-15 55-6-31-16-55zM206 877h326V767H206v110z"/><glyph glyph-name="amacron" unicode="ā" horiz-adv-x="555" d="M488 124q0-32 34-32 14 0 26 4V5Q510-9 471-9q-76 0-106 54-75-59-173-59-71 0-119.5 39.5T24 133q0 57 34 95t79 51.5 98 13.5q59 0 114-13v17q0 37-29 59t-84 22q-80 0-170-36v120q96 32 186 32 236 0 236-217V124zm-221 86q-43 0-72-16t-29-50q0-26 21.5-42.5T241 85q63 0 108 39v75q-46 11-82 11zM90 664h326V554H90v110z"/><glyph glyph-name="Abreve" unicode="Ă" horiz-adv-x="739" d="M158 0H3l286 700h162L736 0H581l-51 131H210zm196 506l-97-251h226l-98 251q-10 28-15 55-6-31-16-55zm172 288q-64-45-157-45-92 0-156 45v109q69-43 156-43 88 0 157 43V794z"/><glyph glyph-name="abreve" unicode="ă" horiz-adv-x="555" d="M488 124q0-32 34-32 14 0 26 4V5Q510-9 471-9q-76 0-106 54-75-59-173-59-71 0-119.5 39.5T24 133q0 57 34 95t79 51.5 98 13.5q59 0 114-13v17q0 37-29 59t-84 22q-80 0-170-36v120q96 32 186 32 236 0 236-217V124zm-221 86q-43 0-72-16t-29-50q0-26 21.5-42.5T241 85q63 0 108 39v75q-46 11-82 11zm143 371q-64-45-157-45-92 0-156 45v109q69-43 156-43 88 0 157 43V581z"/><glyph glyph-name="Aogonek" unicode="Ą" horiz-adv-x="739" d="M664-97q-1-16 9-24.5t26-8.5q21 0 41 13v-94q-36-23-87-23-54 0-84 28.5T540-134q0 71 75 134h-34l-51 131H210L158 0H3l286 700h162L736 0q-36-24-54.5-50T664-97zM354 506l-97-251h226l-98 251q-10 28-15 55-8-37-16-55z"/><glyph glyph-name="aogonek" unicode="ą" horiz-adv-x="556" d="M241 85q63 0 108 39v75q-46 11-82 11-43 0-72-16t-29-50q0-26 21.5-42.5T241 85zm306-201v-94q-35-19-82-19-54-1-84 28t-29 72q0 71 69 128-38 13-56 46-75-59-173-59-71 0-119.5 39.5T24 133q0 57 34 95t79 51.5 98 13.5q59 0 114-13v17q0 37-29 59t-84 22q-80 0-170-36v120q96 32 186 32 236 0 236-217V124q0-32 34-32 14 0 26 4V5q-36-24-54.5-50.5T476-93q-1-16 8.5-24t26.5-8q19 0 36 9z"/><glyph glyph-name="Cacute" unicode="Ć" horiz-adv-x="654" d="M36 342q0 92 32.5 165.5t86 117.5T274 691.5 412 714q110 0 200-45V526q-71 55-175 55-102 0-174.5-60.5T190 342q0-56 21-99.5t56.5-69.5 79-39.5T437 120q116 0 180 58V31q-93-45-203-45-72 0-138 22T155.5 72t-87 112T36 342zm414 422H316l90 148h152z"/><glyph glyph-name="cacute" unicode="ć" horiz-adv-x="490" d="M32 233q0 66 23.5 118t62.5 82.5 86 46 99 15.5q83 0 148-35V338q-56 36-128 36-63 0-106-33t-43-101q0-65 43-99.5T321 106q77 0 135 35V18q-75-32-162-32-108 0-185 63.5T32 233zm309 311H207l90 148h152z"/><glyph glyph-name="Cdotaccent" unicode="Ċ" horiz-adv-x="654" d="M36 342q0 92 32.5 165.5t86 117.5T274 691.5 412 714q110 0 200-45V526q-71 55-175 55-102 0-174.5-60.5T190 342q0-56 21-99.5t56.5-69.5 79-39.5T437 120q116 0 180 58V31q-93-45-203-45-72 0-138 22T155.5 72t-87 112T36 342zm286 492q0 38 23 58.5t58 20.5 58.5-20.5T485 834q0-39-23-59t-59-20q-35 0-58 20t-23 59z"/><glyph glyph-name="cdotaccent" unicode="ċ" horiz-adv-x="490" d="M32 233q0 66 23.5 118t62.5 82.5 86 46 99 15.5q83 0 148-35V338q-56 36-128 36-63 0-106-33t-43-101q0-65 43-99.5T321 106q77 0 135 35V18q-75-32-162-32-108 0-185 63.5T32 233zm181 381q0 38 23 58.5t58 20.5 58.5-20.5T376 614q0-39-23-59t-59-20q-35 0-58 20t-23 59z"/><glyph glyph-name="Ccaron" unicode="Č" horiz-adv-x="654" d="M36 342q0 92 32.5 165.5t86 117.5T274 691.5 412 714q110 0 200-45V526q-71 55-175 55-102 0-174.5-60.5T190 342q0-56 21-99.5t56.5-69.5 79-39.5T437 120q116 0 180 58V31q-93-45-203-45-72 0-138 22T155.5 72t-87 112T36 342zm561 573L467 760H344L213 915h133l59-71 60 71h132z"/><glyph glyph-name="ccaron" unicode="č" horiz-adv-x="490" d="M32 233q0 66 23.5 118t62.5 82.5 86 46 99 15.5q83 0 148-35V338q-56 36-128 36-63 0-106-33t-43-101q0-65 43-99.5T321 106q77 0 135 35V18q-75-32-162-32-108 0-185 63.5T32 233zm456 462L358 540H235L104 695h133l59-71 60 71h132z"/><glyph glyph-name="Dcaron" unicode="Ď" horiz-adv-x="742" d="M75 700h262q180 0 273.5-95.5T704 350 610.5 95.5 337 0H75v700zm476-350q0 108-54.5 163T337 568H225V132h112q105 0 159.5 55T551 350zm-15 565L406 760H283L152 915h133l59-71 60 71h132z"/><glyph glyph-name="dcaron" unicode="ď" horiz-adv-x="621" d="M625 700h119l-32-202H609zm-200 0h138V0H441v70q-61-84-174-84-109 0-172 74.5T32 240t63 179.5T267 494q99 0 158-65v271zm0-403q-15 34-48.5 57T300 377q-58 0-92-39.5T174 240t34-97.5 92-39.5q43 0 76.5 23t48.5 57v114z"/><glyph glyph-name="Dcroat" unicode="Đ" horiz-adv-x="752" d="M86 700h262q180 0 273.5-95.5T715 350 621.5 95.5 348 0H86v294H12v111h74v295zm150-568h112q105 0 159.5 55T562 350t-54.5 163T348 568H236V405h155V294H236V132z"/><glyph glyph-name="dcroat" unicode="đ" horiz-adv-x="621" d="M563 636h62v-86h-62V0H441v70q-61-84-174-84-109 0-172 74.5T32 240t63 179.5T267 494q99 0 158-65v121H286v86h139v64h138v-64zM300 103q43 0 76.5 23t48.5 57v114q-15 34-48.5 57T300 377q-58 0-92-39.5T174 240t34-97.5 92-39.5z"/><glyph glyph-name="Emacron" unicode="Ē" horiz-adv-x="618" d="M75 700h493V568H225V419h313V288H225V132h349V0H75v700zm93 177h326V767H168v110z"/><glyph glyph-name="emacron" unicode="ē" horiz-adv-x="547" d="M32 240q0 65 23 115.5t60.5 79.5 79 44 84.5 15q72 0 124.5-27t77.5-69.5 34.5-96T510 195H172q11-50 58-74.5T341 96q79 0 145 29V16q-71-30-176-30-120 0-199 67T32 240zm353 45q5 33-19 68t-82 35q-46 0-79-27.5T171 285h214zM117 657h326V547H117v110z"/><glyph glyph-name="Edotaccent" unicode="Ė" horiz-adv-x="618" d="M75 700h493V568H225V419h313V288H225V132h349V0H75v700zm174 134q0 38 23 58.5t58 20.5 58.5-20.5T412 834q0-39-23-59t-59-20q-35 0-58 20t-23 59z"/><glyph glyph-name="edotaccent" unicode="ė" horiz-adv-x="547" d="M32 240q0 65 23 115.5t60.5 79.5 79 44 84.5 15q72 0 124.5-27t77.5-69.5 34.5-96T510 195H172q11-50 58-74.5T341 96q79 0 145 29V16q-71-30-176-30-120 0-199 67T32 240zm353 45q5 33-19 68t-82 35q-46 0-79-27.5T171 285h214zM198 614q0 38 23 58.5t58 20.5 58.5-20.5T361 614q0-39-23-59t-59-20q-35 0-58 20t-23 59z"/><glyph glyph-name="Eogonek" unicode="Ę" horiz-adv-x="618" d="M574 132V0q-36-24-56.5-51T498-98q-1-16 8.5-24t26.5-8q23 0 41 12v-94q-37-22-87-22-54-1-84 28t-29 72q0 33 21.5 69T455 0H75v700h493V568H225V419h313V288H225V132h349z"/><glyph glyph-name="eogonek" unicode="ę" horiz-adv-x="547" d="M473-211q-36-23-87-23-54 0-84 28.5T273-134q0 67 68 121-10-1-31-1-120 0-199 67T32 240q0 65 23 115.5t60.5 79.5 79 44 84.5 15q72 0 124.5-27t77.5-69.5 34.5-96T510 195H172q11-50 58-74.5T341 96q79 0 145 29V16q-89-65-89-113 0-33 35-33 22 0 41 13v-94zM284 388q-46 0-79-27.5T171 285h214q5 33-19 68t-82 35z"/><glyph glyph-name="Ecaron" unicode="Ě" horiz-adv-x="618" d="M75 700h493V568H225V419h313V288H225V132h349V0H75v700zm449 215L394 760H271L140 915h133l59-71 60 71h132z"/><glyph glyph-name="ecaron" unicode="ě" horiz-adv-x="547" d="M32 240q0 65 23 115.5t60.5 79.5 79 44 84.5 15q72 0 124.5-27t77.5-69.5 34.5-96T510 195H172q11-50 58-74.5T341 96q79 0 145 29V16q-71-30-176-30-120 0-199 67T32 240zm353 45q5 33-19 68t-82 35q-46 0-79-27.5T171 285h214zm88 410L343 540H220L89 695h133l59-71 60 71h132z"/><glyph glyph-name="Gbreve" unicode="Ğ" horiz-adv-x="702" d="M37 350q0 92 32 163.5T155.5 628 277 692.5 418 714q114 0 215-45V526q-82 54-195 54-104 0-176-57.5T190 350q0-66 22.5-114t59.5-72.5 76-35.5 82-11 77 13v250h143V33Q540-14 422-14q-60 0-115.5 13t-105 41.5-85.5 70-57.5 103T37 350zm517 444q-64-45-157-45-92 0-156 45v109q69-43 156-43 88 0 157 43V794z"/><glyph glyph-name="gbreve" unicode="ğ" horiz-adv-x="622" d="M32 240q0 105 63 179.5T267 494q113 0 174-84v70h122V13q0-66-23-115.5t-62.5-77-87.5-41T287-234q-110 0-203 45v122q84-50 185-50 156 0 156 124v44q-59-65-158-65-109 0-172 74.5T32 240zm393 57q-15 34-48.5 57T300 377q-58 0-92-39.5T174 240t34-97.5 92-39.5q43 0 76.5 22t48.5 55v117zm14 277q-64-45-157-45-92 0-156 45v109q69-43 156-43 88 0 157 43V574z"/><glyph glyph-name="Gdotaccent" unicode="Ġ" horiz-adv-x="702" d="M37 350q0 92 32 163.5T155.5 628 277 692.5 418 714q114 0 215-45V526q-82 54-195 54-104 0-176-57.5T190 350q0-66 22.5-114t59.5-72.5 76-35.5 82-11 77 13v250h143V33Q540-14 422-14q-60 0-115.5 13t-105 41.5-85.5 70-57.5 103T37 350zm278 484q0 38 23 58.5t58 20.5 58.5-20.5T478 834q0-39-23-59t-59-20q-35 0-58 20t-23 59z"/><glyph glyph-name="gdotaccent" unicode="ġ" horiz-adv-x="622" d="M32 240q0 105 63 179.5T267 494q113 0 174-84v70h122V13q0-66-23-115.5t-62.5-77-87.5-41T287-234q-110 0-203 45v122q84-50 185-50 156 0 156 124v44q-59-65-158-65-109 0-172 74.5T32 240zm393 57q-15 34-48.5 57T300 377q-58 0-92-39.5T174 240t34-97.5 92-39.5q43 0 76.5 22t48.5 55v117zM200 614q0 38 23 58.5t58 20.5 58.5-20.5T363 614q0-39-23-59t-59-20q-35 0-58 20t-23 59z"/><glyph glyph-name="Gcommaaccent" unicode="Ģ" horiz-adv-x="702" d="M37 350q0 92 32 163.5T155.5 628 277 692.5 418 714q114 0 215-45V526q-82 54-195 54-104 0-176-57.5T190 350q0-66 22.5-114t59.5-72.5 76-35.5 82-11 77 13v250h143V33Q540-14 422-14q-60 0-115.5 13t-105 41.5-85.5 70-57.5 103T37 350zm396-623H321l32 210h128z"/><glyph glyph-name="gcommaaccent" unicode="ģ" horiz-adv-x="622" d="M354 540H235l47 194h103zM32 240q0 105 63 179.5T267 494q113 0 174-84v70h122V13q0-66-23-115.5t-62.5-77-87.5-41T287-234q-110 0-203 45v122q84-50 185-50 156 0 156 124v44q-59-65-158-65-109 0-172 74.5T32 240zm393 57q-15 34-48.5 57T300 377q-58 0-92-39.5T174 240t34-97.5 92-39.5q43 0 76.5 22t48.5 55v117z"/><glyph glyph-name="Hbar" unicode="Ħ" horiz-adv-x="778" d="M232 0H82v497H14v96h68v107h150V593h314v107h150V593h68v-96h-68V0H546v289H232V0zm0 497v-86h314v86H232z"/><glyph glyph-name="hbar" unicode="ħ" horiz-adv-x="588" d="M196 435q61 59 144 59 92 0 143.5-55.5T535 297V0H397v279q0 47-25.5 71T304 374q-64 0-108-61V0H58v546H5v86h53v68h138v-68h141v-86H196V435z"/><glyph glyph-name="Imacron" unicode="Ī" horiz-adv-x="300" d="M75 700h150V0H75v700zm-87 177h326V767H-12v110z"/><glyph glyph-name="imacron" unicode="ī" horiz-adv-x="259" d="M6 661h246v-97H6v97zm54-181h139V0H60v480z"/><glyph glyph-name="Iogonek" unicode="Į" horiz-adv-x="300" d="M165-98q-1-16 8.5-24t26.5-8q23 0 41 12v-94q-37-22-87-22-54-1-84 28t-29 72q0 66 66 134H75v700h150V0h1q-63-55-61-98z"/><glyph glyph-name="iogonek" unicode="į" horiz-adv-x="260" d="M213 639q0-39-23-59t-58-20-58.5 20T50 639q0 38 23.5 58t58.5 20 58-20 23-58zM145-98q0-32 35-32 23 0 41 12v-94q-37-22-87-22-54-1-83.5 27.5T21-134Q21-67 83 0H61v480h139V0q-55-55-55-98z"/><glyph glyph-name="Idotaccent" unicode="İ" horiz-adv-x="300" d="M75 700h150V0H75v700zm-6 134q0 38 23 58.5t58 20.5 58.5-20.5T232 834q0-39-23-59t-59-20q-35 0-58 20t-23 59z"/><glyph glyph-name="dotlessi" unicode="ı" horiz-adv-x="261" d="M61 480h139V0H61v480z"/><glyph glyph-name="IJ" unicode="Ĳ" horiz-adv-x="815" d="M75 700h150V0H75v700zm334 0h336V211q0-116-70-170T495-13q-102 0-181 36v140q62-38 145-38 136 0 136 103v337H409v135z"/><glyph glyph-name="ij" unicode="ĳ" horiz-adv-x="519" d="M199 0H60v480h139V0zm12 639q0-39-23-59t-59-20q-35 0-58 20t-23 59q0 38 23 58t58 20 58.5-20 23.5-58zM459-68q0-87-47.5-126.5T291-234q-52 0-86 14v119q21-10 50-10 66 0 66 68v523h138V-68zm12 707q0-39-23-59t-58-20-58.5 20-23.5 59q0 38 23.5 58t58.5 20 58-20 23-58z"/><glyph glyph-name="Kcommaaccent" unicode="Ķ" horiz-adv-x="691" d="M225 0H75v700h150V422h113l177 278h167L455 359 695 0H529L338 286H225V0zm158-263H271l32 210h128z"/><glyph glyph-name="kcommaaccent" unicode="ķ" horiz-adv-x="547" d="M548 0H392L254 190h-56V0H59v700h139V301h58l122 179h156L369 243zM309-263H197l32 210h128z"/><glyph glyph-name="Lacute" unicode="Ĺ" horiz-adv-x="581" d="M75 700h150V135h343V0H75v700zm121 64H62l90 148h152z"/><glyph glyph-name="lacute" unicode="ĺ" horiz-adv-x="261" d="M61 730h139V0H61v730zm123 47H50l90 148h152z"/><glyph glyph-name="Lcommaaccent" unicode="Ļ" horiz-adv-x="581" d="M75 700h150V135h343V0H75v700zm267-963H230l32 210h128z"/><glyph glyph-name="lcommaaccent" unicode="ļ" horiz-adv-x="261" d="M61 730h139V0H61v730zm91-993H40L72-53h128z"/><glyph glyph-name="Lcaron" unicode="Ľ" horiz-adv-x="582" d="M377 700h119l-32-202H361zm-302 0h150V135h343V0H75v700z"/><glyph glyph-name="lcaron" unicode="ľ" horiz-adv-x="260" d="M261 730h119l-32-202H245zm-200 0h139V0H61v730z"/><glyph glyph-name="Ldot" unicode="Ŀ" horiz-adv-x="588" d="M475 388q0-38-22.5-57.5T396 311t-56.5 19.5T317 388q0 37 22.5 56.5T396 464t56.5-19.5T475 388zM75 700h150V135h343V0H75v700z"/><glyph glyph-name="ldot" unicode="ŀ" horiz-adv-x="397" d="M61 730h139V0H61v730zm352-380q0-41-24-61.5T329 268t-60.5 21-24.5 61 24.5 61 60.5 21 60-21 24-61z"/><glyph glyph-name="Lslash" unicode="Ł" horiz-adv-x="604" d="M591 0H98v247l-80-31v122l80 31v331h150V425l174 68V371l-174-68V135h343V0z"/><glyph glyph-name="lslash" unicode="ł" horiz-adv-x="360" d="M111 730h139V442l78 31V364l-78-31V0H111v278l-78-31v109l78 32v342z"/><glyph glyph-name="Nacute" unicode="Ń" horiz-adv-x="764" d="M225 0H75v700h141l326-457q-3 43-3 96v361h150V0H548L222 457q3-43 3-96V0zm203 764H294l90 148h152z"/><glyph glyph-name="nacute" unicode="ń" d="M182 419q65 75 160 75 92 0 143.5-55.5T537 297V0H398v279q0 47-25.5 71T305 374q-65 0-107-61V0H59v480h123v-61zm154 125H202l90 148h152z"/><glyph glyph-name="Ncommaaccent" unicode="Ņ" horiz-adv-x="764" d="M225 0H75v700h141l326-457q-3 43-3 96v361h150V0H548L222 457q3-43 3-96V0zm192-263H305l32 210h128z"/><glyph glyph-name="ncommaaccent" unicode="ņ" d="M182 419q65 75 160 75 92 0 143.5-55.5T537 297V0H398v279q0 47-25.5 71T305 374q-65 0-107-61V0H59v480h123v-61zm139-682H209l32 210h128z"/><glyph glyph-name="Ncaron" unicode="Ň" horiz-adv-x="764" d="M225 0H75v700h141l326-457q-3 43-3 96v361h150V0H548L222 457q3-43 3-96V0zm350 915L445 760H322L191 915h133l59-71 60 71h132z"/><glyph glyph-name="ncaron" unicode="ň" d="M182 419q65 75 160 75 92 0 143.5-55.5T537 297V0H398v279q0 47-25.5 71T305 374q-65 0-107-61V0H59v480h123v-61zm301 276L353 540H230L99 695h133l59-71 60 71h132z"/><glyph glyph-name="Eng" unicode="Ŋ" horiz-adv-x="764" d="M689-45q0-89-46.5-137.5T517-231q-34 0-76 11v125q17-5 34-5 64 0 64 69v44L222 457q3-43 3-96V0H75v700h141l326-457q-3 43-3 96v361h150V-45z"/><glyph glyph-name="eng" unicode="ŋ" d="M537-75q0-85-48-122t-114-37q-45 0-80 14v111q17-7 39-7 64 0 64 66v329q0 47-25.5 71T305 374q-65 0-107-61V0H59v480h123v-61q65 75 160 75 92 0 143.5-55.5T537 297V-75z"/><glyph glyph-name="Omacron" unicode="Ō" horiz-adv-x="816" d="M36 350q0 72 23.5 137t69 116T246 684t162 30 162-30 117.5-81 69-116T780 350t-23.5-137-69-116T570 16 408-14 246 16 128.5 97t-69 116T36 350zm590 0q0 97-57 161t-161 64q-105 0-162-64t-57-161 57-161 162-64q104 0 161 64t57 161zM245 877h326V767H245v110z"/><glyph glyph-name="omacron" unicode="ō" horiz-adv-x="594" d="M32 240q0 120 77 187t188 67q112 0 188.5-67T562 240 485.5 53 297-14q-111 0-188 67T32 240zm389 0q0 57-33 93.5T297 370t-90.5-36.5T174 240t32.5-93.5T297 110t91 36.5 33 93.5zM135 651h326V541H135v110z"/><glyph glyph-name="Ohungarumlaut" unicode="Ő" horiz-adv-x="816" d="M36 350q0 72 23.5 137t69 116T246 684t162 30 162-30 117.5-81 69-116T780 350t-23.5-137-69-116T570 16 408-14 246 16 128.5 97t-69 116T36 350zm590 0q0 97-57 161t-161 64q-105 0-162-64t-57-161 57-161 162-64q104 0 161 64t57 161zm-74 424H425l72 153h136zm-181 0H244l72 153h136z"/><glyph glyph-name="ohungarumlaut" unicode="ő" horiz-adv-x="594" d="M32 240q0 120 77 187t188 67q112 0 188.5-67T562 240 485.5 53 297-14q-111 0-188 67T32 240zm389 0q0 57-33 93.5T297 370t-90.5-36.5T174 240t32.5-93.5T297 110t91 36.5 33 93.5zm21 308H315l72 153h136zm-181 0H134l72 153h136z"/><glyph glyph-name="OE" unicode="Œ" horiz-adv-x="1044" d="M529 0q-53-14-121-14-90 0-162 30T128.5 97t-69 116T36 350t23.5 137 69 116T246 684t162 30q68 0 121-14h466V568H676V419h289V288H676V132h325V0H529zM190 350q0-102 63.5-165.5T417 121q55 0 112 21v417q-58 20-112 20-100 0-163.5-63T190 350z"/><glyph glyph-name="oe" unicode="œ" horiz-adv-x="935" d="M486 84q-62-98-201-98-104 0-178.5 67T32 240t74 187 178 67q65 0 118-24.5t83-71.5q67 96 189 96 92 0 150-46.5t74.5-114T898 193H560q11-48 58.5-72.5T730 96q79 0 143 29V17q-72-31-175-31-144 0-212 98zM174 240q0-57 32.5-93.5T297 110t91 36.5 33 93.5-33 93.5-91 36.5-90.5-36.5T174 240zm498 147q-47 0-79.5-28T559 282h214q5 35-19 70t-82 35z"/><glyph glyph-name="Racute" unicode="Ŕ" horiz-adv-x="706" d="M225 0H75v700h288q55 0 101.5-11t88-36 65-71T641 472q0-159-153-208L697 0H524L335 245H225V0zm0 568V370h145q51 0 84.5 24.5T488 469q0 51-33 75t-85 24H225zm160 196H251l90 148h152z"/><glyph glyph-name="racute" unicode="ŕ" horiz-adv-x="391" d="M182 408q27 42 78 65t116 17V355q-57 10-106.5-10T198 282V0H59v480h123v-72zm77 136H125l90 148h152z"/><glyph glyph-name="Rcommaaccent" unicode="Ŗ" horiz-adv-x="706" d="M225 0H75v700h288q55 0 101.5-11t88-36 65-71T641 472q0-159-153-208L697 0H524L335 245H225V0zm0 568V370h145q51 0 84.5 24.5T488 469q0 51-33 75t-85 24H225zm156-831H269l32 210h128z"/><glyph glyph-name="rcommaaccent" unicode="ŗ" horiz-adv-x="391" d="M182 408q27 42 78 65t116 17V355q-57 10-106.5-10T198 282V0H59v480h123v-72zm-35-671H35L67-53h128z"/><glyph glyph-name="Rcaron" unicode="Ř" horiz-adv-x="706" d="M225 0H75v700h288q55 0 101.5-11t88-36 65-71T641 472q0-159-153-208L697 0H524L335 245H225V0zm0 568V370h145q51 0 84.5 24.5T488 469q0 51-33 75t-85 24H225zm307 347L402 760H279L148 915h133l59-71 60 71h132z"/><glyph glyph-name="rcaron" unicode="ř" horiz-adv-x="390" d="M181 408q27 42 78 65t116 17V355q-57 10-106.5-10T197 282V0H58v480h123v-72zm224 287L275 540H152L21 695h133l59-71 60 71h132z"/><glyph glyph-name="Sacute" unicode="Ś" horiz-adv-x="606" d="M44 515q0 97 73 148t183 51q132 0 227-54V520q-89 64-216 62-114-2-114-65 0-28 28.5-49t71-33.5 92-32 92-42 71-66.5T580 192q0-57-21.5-98T498 30 412-3.5 307-14Q161-14 48 49v143q112-74 248-74 131 0 131 67 0 30-28.5 52.5t-71 36-92 33-92 42-71 65.5T44 515zm296 249H206l90 148h152z"/><glyph glyph-name="sacute" unicode="ś" horiz-adv-x="477" d="M38 346q0 77 57 112.5T238 494q93 0 177-41V339q-31 21-78.5 35T247 388q-67 0-67-38 0-22 28-36t68-24.5 79.5-25.5 67.5-48 28-82q0-54-31.5-88t-78-47T233-14Q118-14 42 31v115q78-51 183-51 84 0 84 36 0 21-28 35t-67.5 25-79.5 26.5-68 48T38 346zm245 198H149l90 148h152z"/><glyph glyph-name="Scedilla" unicode="Ş" horiz-adv-x="606" d="M197 517q0-28 28.5-49t71-33.5 92-32 92-42 71-66.5T580 192q0-98-60-146.5T360-11l-10-37q94-9 94-87 1-49-42-74t-102-25-102 19v86q34-20 80-20 62 0 62 30 0 18-27.5 24.5T244-93l19 81Q146-5 48 49v143q112-74 248-74 131 0 131 67 0 30-28.5 52.5t-71 36-92 33-92 42-71 65.5T44 515q0 97 73 148t183 51q132 0 227-54V520q-89 64-216 62-114-2-114-65z"/><glyph glyph-name="scedilla" unicode="ş" horiz-adv-x="477" d="M180 350q0-22 28-36t68-24.5 79.5-25.5 67.5-48 28-82Q451 14 302-9l-11-39q92-9 94-87 0-49-42.5-74T241-234q-58 0-103 19v86q35-20 81-20 62 0 62 30 0 18-28 24.5T185-93l19 80Q108-8 42 31v115q78-51 183-51 84 0 84 36 0 21-28 35t-67.5 25-79.5 26.5-68 48T38 346q0 77 57 112.5T238 494q93 0 177-41V339q-31 21-78.5 35T247 388q-67 0-67-38z"/><glyph glyph-name="Scaron" unicode="Š" horiz-adv-x="606" d="M44 515q0 97 73 148t183 51q132 0 227-54V520q-89 64-216 62-114-2-114-65 0-28 28.5-49t71-33.5 92-32 92-42 71-66.5T580 192q0-57-21.5-98T498 30 412-3.5 307-14Q161-14 48 49v143q112-74 248-74 131 0 131 67 0 30-28.5 52.5t-71 36-92 33-92 42-71 65.5T44 515zm443 400L357 760H234L103 915h133l59-71 60 71h132z"/><glyph glyph-name="scaron" unicode="š" horiz-adv-x="477" d="M38 346q0 77 57 112.5T238 494q93 0 177-41V339q-31 21-78.5 35T247 388q-67 0-67-38 0-22 28-36t68-24.5 79.5-25.5 67.5-48 28-82q0-54-31.5-88t-78-47T233-14Q118-14 42 31v115q78-51 183-51 84 0 84 36 0 21-28 35t-67.5 25-79.5 26.5-68 48T38 346zm392 349L300 540H177L46 695h133l59-71 60 71h132z"/><glyph glyph-name="Tcommaaccent" unicode="Ţ" horiz-adv-x="605" d="M13 700h579V565H377V0H228v565H13v135zm312-963H213l32 210h128z"/><glyph glyph-name="tcommaaccent" unicode="ţ" horiz-adv-x="418" d="M95 620l138 33V480h152V363H233V175q0-72 77-72 46 0 87 16V7q-60-21-129-21-76 0-124.5 39T95 148v215H14v117h81v140zm176-883H159l32 210h128z"/><glyph glyph-name="Tcaron" unicode="Ť" horiz-adv-x="605" d="M13 700h579V565H377V0H228v565H13v135zm483 215L366 760H243L112 915h133l59-71 60 71h132z"/><glyph glyph-name="tcaron" unicode="ť" horiz-adv-x="418" d="M314 743h119l-32-198H298zM95 620l138 33V480h152V363H233V175q0-72 77-72 46 0 87 16V7q-60-21-129-21-76 0-124.5 39T95 148v215H14v117h81v140z"/><glyph glyph-name="Tbar" unicode="Ŧ" horiz-adv-x="617" d="M383 0H234v282H115v102h119v181H19v135h579V565H383V384h118V282H383V0z"/><glyph glyph-name="tbar" unicode="ŧ" horiz-adv-x="419" d="M234 174q0-38 19-55t58-17q46 0 87 16V7q-66-21-129-21-76 0-124.5 39T96 148v63H43v83h53v76H15v110h81v140l138 33V480h152V370H234v-76h123v-83H234v-37z"/><glyph glyph-name="Umacron" unicode="Ū" horiz-adv-x="750" d="M533 700h149V263q0-60-17-108t-46-79-69-52-83.5-29.5T375-14t-91.5 8.5T200 24t-69 52-46 79-17 108v437h150V271q0-150 157-150 158 0 158 150v429zM211 877h326V767H211v110z"/><glyph glyph-name="umacron" unicode="ū" d="M392 480h139V0H408v61q-65-75-160-75-94 0-144.5 55T53 183v297h139V201q0-47 24-71t68-24q64 0 108 61v313zM131 657h326V547H131v110z"/><glyph glyph-name="Uring" unicode="Ů" horiz-adv-x="750" d="M533 700h149V263q0-60-17-108t-46-79-69-52-83.5-29.5T375-14t-91.5 8.5T200 24t-69 52-46 79-17 108v437h150V271q0-150 157-150 158 0 158 150v429zm-35 156q0-56-36-88.5T373 735q-52 0-88.5 32.5T248 856q0 54 36.5 86t88.5 32 88.5-32 36.5-86zm-166-1q0-19 12-31t30-12 30 12 12 31-12 30.5-30 11.5-30-11.5-12-30.5z"/><glyph glyph-name="uring" unicode="ů" d="M392 480h139V0H408v61q-65-75-160-75-94 0-144.5 55T53 183v297h139V201q0-47 24-71t68-24q64 0 108 61v313zm26 156q0-56-36-88.5T293 515q-52 0-88.5 32.5T168 636q0 54 36.5 86t88.5 32 88.5-32 36.5-86zm-166-1q0-19 12-31t30-12 30 12 12 31-12 30.5-30 11.5-30-11.5-12-30.5z"/><glyph glyph-name="Uhungarumlaut" unicode="Ű" horiz-adv-x="750" d="M533 700h149V263q0-60-17-108t-46-79-69-52-83.5-29.5T375-14t-91.5 8.5T200 24t-69 52-46 79-17 108v437h150V271q0-150 157-150 158 0 158 150v429zm-15 74H391l72 153h136zm-181 0H210l72 153h136z"/><glyph glyph-name="uhungarumlaut" unicode="ű" d="M392 480h139V0H408v61q-65-75-160-75-94 0-144.5 55T53 183v297h139V201q0-47 24-71t68-24q64 0 108 61v313zm46 74H311l72 153h136zm-181 0H130l72 153h136z"/><glyph glyph-name="Uogonek" unicode="Ų" horiz-adv-x="750" d="M562-212q-37-22-87-22-54-1-84 28t-29 72q2 63 56 122-14-2-43-2-48 0-91.5 8.5T200 24t-69 52-46 79-17 108v437h150V271q0-150 157-150 158 0 158 150v429h149V263q0-143-92-214-57-43-80.5-82T486-98q0-32 35-32 23 0 41 12v-94z"/><glyph glyph-name="uogonek" unicode="ų" d="M531 480V0q-36-24-54.5-50T459-97q-1-16 9-24.5t26-8.5q18 0 37 8v-96q-36-16-83-16-54 0-84 28.5T335-134q0 71 73 134v61q-65-75-160-75-94 0-144.5 55T53 183v297h139V201q0-47 24-71t68-24q64 0 108 61v313h139z"/><glyph glyph-name="Wcircumflex" unicode="Ŵ" horiz-adv-x="1056" d="M884 700h162L830 0H667L528 477 389 0H226L10 700h162l139-529 151 529h132l151-529zM467 912h123l124-155H582l-53 65-53-65H343z"/><glyph glyph-name="wcircumflex" unicode="ŵ" horiz-adv-x="817" d="M658 480h147L651 0H504l-95 313L314 0H166L12 480h148l87-329 96 329h132l95-329zM347 692h123l124-155H462l-53 65-53-65H223z"/><glyph glyph-name="Ycircumflex" unicode="Ŷ" horiz-adv-x="702" d="M426 0H277v248L3 700h169l179-314 179 314h169L426 248V0zM289 912h123l124-155H404l-53 65-53-65H165z"/><glyph glyph-name="ycircumflex" unicode="ŷ" horiz-adv-x="563" d="M290 156l119 324h144L340-58q-71-175-207-175-29 0-75 11v115q33-7 57-7 76 0 114 105l1 2L3 480h147zm-78 536h123l124-155H327l-53 65-53-65H88z"/><glyph glyph-name="Ydieresis" unicode="Ÿ" horiz-adv-x="702" d="M426 0H277v248L3 700h169l179-314 179 314h169L426 248V0zm105 833q0-31-21.5-52.5T457 759t-53 21.5-22 52.5 22 53 53 22 52.5-22 21.5-53zm-214 0q0-31-21.5-52.5T243 759t-53 21.5-22 52.5 22 53 53 22 52.5-22 21.5-53z"/><glyph glyph-name="Zacute" unicode="Ź" horiz-adv-x="614" d="M580 0H32v108l338 457H47v135h521V592L229 135h351V0zM358 764H224l90 148h152z"/><glyph glyph-name="zacute" unicode="ź" horiz-adv-x="482" d="M44 480h391v-90L210 116h241V0H31v90l225 275H44v115zm248 64H158l90 148h152z"/><glyph glyph-name="Zdotaccent" unicode="Ż" horiz-adv-x="614" d="M580 0H32v108l338 457H47v135h521V592L229 135h351V0zM230 834q0 38 23 58.5t58 20.5 58.5-20.5T393 834q0-39-23-59t-59-20q-35 0-58 20t-23 59z"/><glyph glyph-name="zdotaccent" unicode="ż" horiz-adv-x="482" d="M44 480h391v-90L210 116h241V0H31v90l225 275H44v115zm120 134q0 38 23 58.5t58 20.5 58.5-20.5T327 614q0-39-23-59t-59-20q-35 0-58 20t-23 59z"/><glyph glyph-name="Zcaron" unicode="Ž" horiz-adv-x="614" d="M580 0H32v108l338 457H47v135h521V592L229 135h351V0zm-75 915L375 760H252L121 915h133l59-71 60 71h132z"/><glyph glyph-name="zcaron" unicode="ž" horiz-adv-x="482" d="M44 480h391v-90L210 116h241V0H31v90l225 275H44v115zm395 215L309 540H186L55 695h133l59-71 60 71h132z"/><glyph glyph-name="Scommaaccent" unicode="Ș" horiz-adv-x="606" d="M44 515q0 97 73 148t183 51q132 0 227-54V520q-89 64-216 62-114-2-114-65 0-28 28.5-49t71-33.5 92-32 92-42 71-66.5T580 192q0-57-21.5-98T498 30 412-3.5 307-14Q161-14 48 49v143q112-74 248-74 131 0 131 67 0 30-28.5 52.5t-71 36-92 33-92 42-71 65.5T44 515zm286-778H218l32 210h128z"/><glyph glyph-name="scommaaccent" unicode="ș" horiz-adv-x="477" d="M38 346q0 77 57 112.5T238 494q93 0 177-41V339q-31 21-78.5 35T247 388q-67 0-67-38 0-22 28-36t68-24.5 79.5-25.5 67.5-48 28-82q0-54-31.5-88t-78-47T233-14Q118-14 42 31v115q78-51 183-51 84 0 84 36 0 21-28 35t-67.5 25-79.5 26.5-68 48T38 346zm230-609H156l32 210h128z"/><glyph glyph-name="uni021A" unicode="Ț" horiz-adv-x="605" d="M13 700h579V565H377V0H228v565H13v135zm312-963H213l32 210h128z"/><glyph glyph-name="uni021B" unicode="ț" horiz-adv-x="418" d="M95 620l138 33V480h152V363H233V175q0-72 77-72 46 0 87 16V7q-60-21-129-21-76 0-124.5 39T95 148v215H14v117h81v140zm176-883H159l32 210h128z"/><glyph glyph-name="circumflex" unicode="ˆ" horiz-adv-x="368" d="M122 912h123l124-155H237l-53 65-53-65H-2z"/><glyph glyph-name="caron" unicode="ˇ" horiz-adv-x="368" d="M376 915L246 760H123L-8 915h133l59-71 60 71h132z"/><glyph glyph-name="breve" unicode="˘" horiz-adv-x="359" d="M336 791q-64-45-157-45-92 0-156 45v109q69-43 156-43 88 0 157 43V791z"/><glyph glyph-name="dotaccent" unicode="˙" horiz-adv-x="156" d="M-2 837q0 38 23 58.5T79 916t58.5-20.5T161 837q0-39-23-59t-59-20q-35 0-58 20t-23 59z"/><glyph glyph-name="ring" unicode="˚" horiz-adv-x="247" d="M248 856q0-56-36-88.5T123 735q-52 0-88.5 32.5T-2 856q0 54 36.5 86t88.5 32 88.5-32 36.5-86zm-166-1q0-19 12-31t30-12 30 12 12 31-12 30.5-30 11.5-30-11.5T82 855z"/><glyph glyph-name="ogonek" unicode="˛" horiz-adv-x="225" d="M83 0h119q-36-24-54.5-50.5T130-98q-1-16 8.5-24t26.5-8q23 0 41 12v-94q-37-22-87-22-54-1-84 28T6-134Q6-59 83 0z"/><glyph glyph-name="tilde" unicode="˜" horiz-adv-x="400" d="M380 885q14-60-14-99.5T286 746q-37 0-84 21t-58 21q-16 0-21.5-11.5T121 752H21q-14 60 14 99.5t79 39.5q37 0 84-21t59-21q16 0 21.5 11.5T280 885h100z"/><glyph glyph-name="hungarumlaut" unicode="˝" horiz-adv-x="430" d="M344 774H217l72 153h136zm-181 0H36l72 153h136z"/><glyph glyph-name="uni0326" unicode="̦" horiz-adv-x="160" d="M133-263H21L53-53h128z"/><glyph glyph-name="uni0401" unicode="Ё" horiz-adv-x="617" d="M512 833q0-31-21.5-52.5T438 759t-53 21.5-22 52.5 22 53 53 22 52.5-22 21.5-53zm-214 0q0-31-21.5-52.5T224 759t-53 21.5-22 52.5 22 53 53 22 52.5-22 21.5-53zM75 700h493V568H225V419h313V288H225V132h349V0H75v700z"/><glyph glyph-name="uni0410" unicode="А" horiz-adv-x="739" d="M158 0H3l286 700h162L736 0H581l-51 131H210zm196 506l-97-251h226l-98 251q-10 28-15 55-6-31-16-55z"/><glyph glyph-name="uni0411" unicode="Б" horiz-adv-x="675" d="M225 440h154q55 0 100.5-10.5t84.5-34 61-68.5 22-107Q647 0 379 0H75v700h515V565H225V440zm0-308h155q53 0 83.5 18.5T494 220t-30.5 69.5T380 308H225V132z"/><glyph glyph-name="uni0412" unicode="В" horiz-adv-x="687" d="M75 700h306q115 0 178.5-44.5T623 523q0-117-106-153 58-17 96-59.5T651 196q0-57-25-97.5T558.5 38t-87-29T376 0H75v700zm426-488q0 90-119 90H224V122h150q59 0 93 19t34 71zm-27 285q0 80-106 80H225V417h151q44 0 71 20.5t27 59.5z"/><glyph glyph-name="uni0413" unicode="Г" horiz-adv-x="576" d="M225 0H75v700h489V565H225V0z"/><glyph glyph-name="uni0414" unicode="Д" horiz-adv-x="809" d="M153-152H21v284h82q111 199 111 568h476V132h89v-284H647V0H153v-152zm201 717q-19-293-92-433h278v433H354z"/><glyph glyph-name="uni0415" unicode="Е" horiz-adv-x="617" d="M75 700h493V568H225V419h313V288H225V132h349V0H75v700z"/><glyph glyph-name="uni0416" unicode="Ж" horiz-adv-x="987" d="M171 0H4l209 359L18 700h167l150-278h84v278h150V422h84l150 278h167L774 359 984 0H817L652 286h-83V0H419v286h-83z"/><glyph glyph-name="uni0417" unicode="З" horiz-adv-x="624" d="M587 190q0-56-25-97.5T494 29 402.5-3.5 298-14Q166-14 39 31v144q114-56 248-54 149 0 149 91 0 82-126 82H152l1 132h147q51 0 80 18.5t29 54.5q0 80-139 80-104 2-219-54v143q110 46 232 46 127 0 201.5-48.5T559 523q0-56-30-95.5T447 370q61-17 100.5-62T587 190z"/><glyph glyph-name="uni0418" unicode="И" horiz-adv-x="764" d="M689 0H539v361q0 53 3 96L216 0H75v700h150V339q0-53-3-96l326 457h141V0z"/><glyph glyph-name="uni0419" unicode="Й" horiz-adv-x="764" d="M539 0h150v700H548L222 243q3 44 3 96v361H75V0h141l326 457q-3-43-3-96V0zm0 794q-64-45-157-45-92 0-156 45v109q69-43 156-43 88 0 157 43V794z"/><glyph glyph-name="uni041A" unicode="К" horiz-adv-x="691" d="M225 0H75v700h150V422h113l177 278h167L455 359 695 0H529L338 286H225V0z"/><glyph glyph-name="uni041B" unicode="Л" horiz-adv-x="754" d="M199 700h480V0H529v565H337q-6-76-11-126.5T311 322t-21.5-109-30-88.5-42-72-56.5-44T87-9Q45-9 9 4v132q21-6 48-5 19 1 35 12.5t28.5 35 22 48 16.5 65 12 72 9.5 82.5 7 83 6 88 5.5 83z"/><glyph glyph-name="uni041C" unicode="М" horiz-adv-x="907" d="M693 700h139V0H682v431L497 150h-87L225 432V0H75v700h139l240-364z"/><glyph glyph-name="uni041D" unicode="Н" horiz-adv-x="764" d="M539 700h150V0H539v282H225V0H75v700h150V418h314v282z"/><glyph glyph-name="uni041E" unicode="О" horiz-adv-x="816" d="M36 350q0 72 23.5 137t69 116T246 684t162 30 162-30 117.5-81 69-116T780 350t-23.5-137-69-116T570 16 408-14 246 16 128.5 97t-69 116T36 350zm590 0q0 97-57 161t-161 64q-105 0-162-64t-57-161 57-161 162-64q104 0 161 64t57 161z"/><glyph glyph-name="uni041F" unicode="П" horiz-adv-x="759" d="M225 0H75v700h609V0H535v565H225V0z"/><glyph glyph-name="uni0420" unicode="Р" horiz-adv-x="667" d="M75 700h264q302 0 302-235T339 230H225V0H75v700zm413-235q0 103-142 103H225V362h121q142 0 142 103z"/><glyph glyph-name="uni0421" unicode="С" horiz-adv-x="654" d="M36 342q0 92 32.5 165.5t86 117.5T274 691.5 412 714q110 0 200-45V526q-71 55-175 55-102 0-174.5-60.5T190 342q0-56 21-99.5t56.5-69.5 79-39.5T437 120q116 0 180 58V31q-93-45-203-45-72 0-138 22T155.5 72t-87 112T36 342z"/><glyph glyph-name="uni0422" unicode="Т" horiz-adv-x="605" d="M13 700h579V565H377V0H228v565H13v135z"/><glyph glyph-name="uni0423" unicode="У" horiz-adv-x="666" d="M415 160Q370 64 313.5 25T185-14Q138-14 79 3v127q39-13 81-13 38 0 64.5 13.5T268 180l12 25L1 700h166l184-360 153 360h165z"/><glyph glyph-name="uni0424" unicode="Ф" horiz-adv-x="879" d="M513-39H369v88q-160 7-253.5 86T22 350t93.5 215T369 651v88h144v-88q158-8 251-87t93-214-93-214-251-87v-88zM172 350q0-73 47.5-121T369 174v352q-102-7-149.5-55T172 350zm341 176V174q100 8 147 56t47 120-47 120-147 56z"/><glyph glyph-name="uni0425" unicode="Х" horiz-adv-x="678" d="M169 0H-6l251 363L9 700h175l155-230 154 230h176L433 363 684 0H508L339 255z"/><glyph glyph-name="uni0426" unicode="Ц" horiz-adv-x="804" d="M774-152H642V0H75v700h150V135h310v565h150V135h89v-287z"/><glyph glyph-name="uni0427" unicode="Ч" horiz-adv-x="697" d="M622 0H472v251q-93-30-177-30-120 1-188 62T39 462v238h150V467q0-55 39-82t105-27q70 0 139 28v314h150V0z"/><glyph glyph-name="uni0428" unicode="Ш" horiz-adv-x="1051" d="M976 0H75v700h150V135h226v565h150V135h226v565h149V0z"/><glyph glyph-name="uni0429" unicode="Щ" horiz-adv-x="1095" d="M1065-152H933l1 152H75v700h150V135h226v565h150V135h226v565h149V135h89v-287z"/><glyph glyph-name="uni042A" unicode="Ъ" horiz-adv-x="773" d="M446 0H182v565H16v135h316V470h114q302-2 302-235Q748 0 446 0zM332 338V132h121q142 0 142 103T453 338H332z"/><glyph glyph-name="uni042B" unicode="Ы" horiz-adv-x="923" d="M339 0H75v700h150V470h114q302-2 302-235Q641 0 339 0zM225 338V132h121q142 0 142 103T346 338H225zM848 0H698v700h150V0z"/><glyph glyph-name="uni042C" unicode="Ь" horiz-adv-x="667" d="M339 0H75v700h150V470h114q302-2 302-235Q641 0 339 0zM225 338V132h121q142 0 142 103T346 338H225z"/><glyph glyph-name="uni042D" unicode="Э" horiz-adv-x="658" d="M45 669q90 45 202 45 72 0 137-22.5t119-66 86-117T621 341q0-72-21.5-132T542 108.5t-85-69-102.5-41T243-14Q138-14 45 31v148q66-58 176-58 98 0 166 38.5T470 286H154v129h313q-31 162-243 164-110 0-179-53v143z"/><glyph glyph-name="uni042E" unicode="Ю" horiz-adv-x="1105" d="M1069 350q0-72-23.5-137t-69-116T859 16 697-14q-155 0-248.5 85T336 283H225V0H75v700h150V418h111q19 127 112.5 211.5T697 714q90 0 162-30t117.5-81 69-116 23.5-137zm-590 0q0-97 57-161t162-64q104 0 161 64t57 161-57 161-161 64q-105 0-162-64t-57-161z"/><glyph glyph-name="uni042F" unicode="Я" horiz-adv-x="695" d="M188 0H15l195 257Q54 309 54 466q0 118 80 176t201 58h285V0H470v238H365zm20 466q0-51 34.5-77t93.5-26h134v205H336q-59 0-93.5-25.5T208 466z"/><glyph glyph-name="uni0430" unicode="а" horiz-adv-x="563" d="M488 124q0-32 34-32 14 0 26 4V5Q510-9 471-9q-76 0-106 54-75-59-173-59-71 0-119.5 39.5T24 133q0 57 34 95t79 51.5 98 13.5q59 0 114-13v17q0 37-29 59t-84 22q-80 0-170-36v120q96 32 186 32 236 0 236-217V124zm-221 86q-43 0-72-16t-29-50q0-26 21.5-42.5T241 85q63 0 108 39v75q-46 11-82 11z"/><glyph glyph-name="uni0431" unicode="б" horiz-adv-x="583" d="M550 219q0-111-71-172T295-14q-114 0-185 71.5T39 276q0 233 147 325 58 36 125.5 51t118 25 78.5 37V587q-34-28-114.5-40.5T269 511q-38-21-60-58.5T181 375q54 75 156 75 92 0 152.5-62T550 219zm-369-1q0-47 28-84t86-37 85.5 36.5T408 218t-27.5 84.5T295 339q-57 0-85.5-37.5T181 218z"/><glyph glyph-name="uni0432" unicode="в" horiz-adv-x="549" d="M353 0H59v480h286q80 0 119-36.5t39-90.5q0-82-74-110 85-28 85-113 0-57-38-93.5T353 0zM198 199V95h114q64 0 64 51 0 53-64 53H198zm-1 186V283h106q60 0 60 50 0 52-61 52H197z"/><glyph glyph-name="uni0433" unicode="г" horiz-adv-x="440" d="M198 0H59v480h366V363H198V0z"/><glyph glyph-name="uni0434" unicode="д" horiz-adv-x="652" d="M149-127H21v233h67q75 130 70 374h395V106h72v-233H497V0H149v-127zm137 501q-6-164-54-268h183v268H286z"/><glyph glyph-name="uni0435" unicode="е" horiz-adv-x="545" d="M32 240q0 65 23 115.5t60.5 79.5 79 44 84.5 15q72 0 124.5-27t77.5-69.5 34.5-96T510 195H172q11-50 58-74.5T341 96q79 0 145 29V16q-71-30-176-30-120 0-199 67T32 240zm353 45q5 33-19 68t-82 35q-46 0-79-27.5T171 285h214z"/><glyph glyph-name="uni0436" unicode="ж" horiz-adv-x="787" d="M785 0H636L517 179h-54V0H324v179h-54L151 0H2l166 241L16 480h148l115-191h45v191h139V289h45l115 191h148L619 241z"/><glyph glyph-name="uni0437" unicode="з" horiz-adv-x="487" d="M453 133q0-61-60-103.5T217-13Q109-13 34 26v111q29-16 76-28.5T199 96q112 0 112 54 0 28-24.5 37.5T219 197h-89v92h89q82 0 82 45 0 51-94 51-40 0-87-12t-77-28v110q75 40 181 40 115 0 167-41.5T443 352q0-41-22.5-68T362 247q91-28 91-114z"/><glyph glyph-name="uni0438" unicode="и" horiz-adv-x="591" d="M180 0H59v480h139V210l214 270h120V0H394v270z"/><glyph glyph-name="uni0439" unicode="й" horiz-adv-x="591" d="M449 578q-65-40-153-40t-153 40v104q69-38 153-38t153 38V578zM180 0H59v480h139V210l214 270h120V0H394v270z"/><glyph glyph-name="uni043A" unicode="к" horiz-adv-x="548" d="M198 0H59v480h139V301h58l122 179h156L369 243 548 0H392L254 190h-56V0z"/><glyph glyph-name="uni043B" unicode="л" horiz-adv-x="593" d="M272 370q-6-88-16.5-151.5t-30.5-118T171 18 89-10Q52-10 13 4v110q15-6 29-6 52 0 73 93t29 279h390V0H395v370H272z"/><glyph glyph-name="uni043C" unicode="м" horiz-adv-x="682" d="M194 0H59v480h133l149-238 150 238h132V0H489v283L376 104h-69L194 283V0z"/><glyph glyph-name="uni043D" unicode="н" d="M198 0H59v480h139V298h194v182h139V0H392v182H198V0z"/><glyph glyph-name="uni043E" unicode="о" horiz-adv-x="594" d="M32 240q0 120 77 187t188 67q112 0 188.5-67T562 240 485.5 53 297-14q-111 0-188 67T32 240zm389 0q0 57-33 93.5T297 370t-90.5-36.5T174 240t32.5-93.5T297 110t91 36.5 33 93.5z"/><glyph glyph-name="uni043F" unicode="п" d="M198 0H59v480h472V0H392v363H198V0z"/><glyph glyph-name="uni0440" unicode="р" horiz-adv-x="622" d="M182 410q59 84 174 84 109 0 171.5-74.5T590 240 527.5 60.5 356-14q-99 0-158 65v-271H59v700h123v-70zm266-170q0 58-34 97.5T322 377q-43 0-76.5-23T197 297V183q15-34 48.5-57t76.5-23q58 0 92 39.5t34 97.5z"/><glyph glyph-name="uni0441" unicode="с" horiz-adv-x="493" d="M32 233q0 66 23.5 118t62.5 82.5 86 46 99 15.5q83 0 148-35V338q-56 36-128 36-63 0-106-33t-43-101q0-65 43-99.5T321 106q77 0 135 35V18q-75-32-162-32-108 0-185 63.5T32 233z"/><glyph glyph-name="uni0442" unicode="т" horiz-adv-x="476" d="M307 0H169v363H16v117h444V363H307V0z"/><glyph glyph-name="uni0443" unicode="у" horiz-adv-x="563" d="M290 156l119 324h144L340-58q-71-175-207-175-29 0-75 11v115q33-7 57-7 76 0 114 105l1 2L3 480h147z"/><glyph glyph-name="uni0444" unicode="ф" horiz-adv-x="748" d="M440-220H308v206Q186-9 108.5 59.5T31 240t77.5 180.5T308 494v206h132V494q122-5 199.5-73.5T717 240 639.5 59.5 440-14v-206zM170 240q0-57 36-95.5T309 102v276q-67-4-103-42.5T170 240zm271 138V102q67 4 103 42.5t36 95.5-36 95.5T441 378z"/><glyph glyph-name="uni0445" unicode="х" horiz-adv-x="530" d="M362 480h157L346 242 529 0H372L266 147 159 0H2l183 242L11 480h157l98-144z"/><glyph glyph-name="uni0446" unicode="ц" horiz-adv-x="626" d="M598-127H470V0H59v480h139V117h189v363h139V114h72v-241z"/><glyph glyph-name="uni0447" unicode="ч" horiz-adv-x="540" d="M481 0H343v150q-54-20-123-20-82 0-134.5 45T33 309v171h139V322q0-75 86-75 50 0 85 15v218h138V0z"/><glyph glyph-name="uni0448" unicode="ш" horiz-adv-x="814" d="M755 0H59v480h139V117h140v363h138V117h141v363h138V0z"/><glyph glyph-name="uni0449" unicode="щ" horiz-adv-x="855" d="M827-127H699V0H59v480h139V117h140v363h138V117h141v363h138V114h72v-241z"/><glyph glyph-name="uni044A" unicode="ъ" horiz-adv-x="607" d="M279 330h112q91 0 142.5-46.5T585 165 533.5 46.5 391 0H141v371H17v109h262V330zm0-230h78q41 0 63 17t22 48-22 48-63 17h-78V100z"/><glyph glyph-name="uni044B" unicode="ы" horiz-adv-x="779" d="M309 0H59v480h139V330h111q91 0 142.5-46.5T503 165 451.5 46.5 309 0zM197 230V100h78q41 0 63 17t22 48-22 48-63 17h-78zM720 0H581v480h139V0z"/><glyph glyph-name="uni044C" unicode="ь" horiz-adv-x="525" d="M309 0H59v480h139V330h111q91 0 142.5-46.5T503 165 451.5 46.5 309 0zM197 230V100h78q41 0 63 17t22 48-22 48-63 17h-78z"/><glyph glyph-name="uni044D" unicode="э" horiz-adv-x="506" d="M474 231q0-62-23.5-111T389 43 306.5.5 215-14q-97 0-178 42v114q64-42 148-42 132 0 150 88H128v104h207q-11 44-52 66t-100 22q-79 0-141-42v114q70 42 158 42 114 0 194-66.5T474 231z"/><glyph glyph-name="uni044E" unicode="ю" horiz-adv-x="836" d="M804 240q0-120-77-187T539-14q-92 0-164 52.5T285 185h-87V0H59v480h139V295h87q18 94 90 146.5T539 494q111 0 188-67t77-187zm-388 0q0-59 32-97.5t91-38.5q60 0 92 38.5t32 97.5-32 97.5-92 38.5q-59 0-91-38.5T416 240z"/><glyph glyph-name="uni044F" unicode="я" horiz-adv-x="556" d="M173 0H17l126 161q-48 21-73 61t-25 90q0 71 50.5 119.5T237 480h260V0H358v143h-78zm13 308q0-29 20.5-45t58.5-16h93v123h-93q-79 0-79-62z"/><glyph glyph-name="uni0451" unicode="ё" horiz-adv-x="545" d="M461 613q0-31-21.5-52.5T387 539t-53 21.5-22 52.5 22 53 53 22 52.5-22 21.5-53zm-214 0q0-31-21.5-52.5T173 539t-53 21.5T98 613t22 53 53 22 52.5-22 21.5-53zM32 240q0 65 23 115.5t60.5 79.5 79 44 84.5 15q72 0 124.5-27t77.5-69.5 34.5-96T510 195H172q11-50 58-74.5T341 96q79 0 145 29V16q-71-30-176-30-120 0-199 67T32 240zm353 45q5 33-19 68t-82 35q-46 0-79-27.5T171 285h214z"/><glyph glyph-name="Wgrave" unicode="Ẁ" horiz-adv-x="1056" d="M884 700h162L830 0H667L528 477 389 0H226L10 700h162l139-529 151 529h132l151-529zm-269 64H481L373 912h152z"/><glyph glyph-name="wgrave" unicode="ẁ" horiz-adv-x="817" d="M658 480h147L651 0H504l-95 313L314 0H166L12 480h148l87-329 96 329h132l95-329zm-163 64H361L253 692h152z"/><glyph glyph-name="Wacute" unicode="Ẃ" horiz-adv-x="1056" d="M884 700h162L830 0H667L528 477 389 0H226L10 700h162l139-529 151 529h132l151-529zm-310 64H440l90 148h152z"/><glyph glyph-name="wacute" unicode="ẃ" horiz-adv-x="817" d="M658 480h147L651 0H504l-95 313L314 0H166L12 480h148l87-329 96 329h132l95-329zm-204 64H320l90 148h152z"/><glyph glyph-name="Wdieresis" unicode="Ẅ" horiz-adv-x="1056" d="M884 700h162L830 0H667L528 477 389 0H226L10 700h162l139-529 151 529h132l151-529zM709 833q0-31-21.5-52.5T635 759t-53 21.5-22 52.5 22 53 53 22 52.5-22 21.5-53zm-214 0q0-31-21.5-52.5T421 759t-53 21.5-22 52.5 22 53 53 22 52.5-22 21.5-53z"/><glyph glyph-name="wdieresis" unicode="ẅ" horiz-adv-x="817" d="M658 480h147L651 0H504l-95 313L314 0H166L12 480h148l87-329 96 329h132l95-329zm-69 133q0-31-21.5-52.5T515 539t-53 21.5-22 52.5 22 53 53 22 52.5-22 21.5-53zm-214 0q0-31-21.5-52.5T301 539t-53 21.5-22 52.5 22 53 53 22 52.5-22 21.5-53z"/><glyph glyph-name="Ygrave" unicode="Ỳ" horiz-adv-x="702" d="M426 0H277v248L3 700h169l179-314 179 314h169L426 248V0zm11 764H303L195 912h152z"/><glyph glyph-name="ygrave" unicode="ỳ" horiz-adv-x="563" d="M290 156l119 324h144L340-58q-71-175-207-175-29 0-75 11v115q33-7 57-7 76 0 114 105l1 2L3 480h147zm70 388H226L118 692h152z"/><glyph glyph-name="endash" unicode="–" horiz-adv-x="578" d="M523 185H55v117h468V185z"/><glyph glyph-name="emdash" unicode="—" horiz-adv-x="774" d="M719 185H55v117h664V185z"/><glyph glyph-name="quoteleft" unicode="‘" horiz-adv-x="264" d="M175 431H28l98 269h112z"/><glyph glyph-name="quoteright" unicode="’" horiz-adv-x="259" d="M147 431H35l63 269h147z"/><glyph glyph-name="quotesinglbase" unicode="‚" horiz-adv-x="262" d="M118-145H6l63 269h147z"/><glyph glyph-name="quotedblleft" unicode="“" horiz-adv-x="456" d="M367 431H220l98 269h112zm-192 0H28l98 269h112z"/><glyph glyph-name="quotedblright" unicode="”" horiz-adv-x="451" d="M339 431H227l63 269h147zm-192 0H35l63 269h147z"/><glyph glyph-name="quotedblbase" unicode="„" horiz-adv-x="454" d="M310-145H198l63 269h147zm-192 0H6l63 269h147z"/><glyph glyph-name="dagger" unicode="†" horiz-adv-x="540" d="M345-220H196v565H29v135h167v220h149V480h166V345H345v-565z"/><glyph glyph-name="daggerdbl" unicode="‡" horiz-adv-x="592" d="M371-220H221V26H50v132h171v190H50v132h171v220h150V480h171V348H371V158h171V26H371v-246z"/><glyph glyph-name="bullet" unicode="•" horiz-adv-x="384" d="M66 350q0 60 36 90.5t90 30.5q55 0 90.5-30.5T318 350t-35.5-91-90.5-31q-54 0-90 31t-36 91z"/><glyph glyph-name="ellipsis" unicode="…" horiz-adv-x="739" d="M699 69q0-40-24-61t-60-21-60.5 21T530 69t24.5 61 60.5 21 60-21 24-61zm-490 0q0-40-24-61t-60-21T64.5 8 40 69t24.5 61 60.5 21 60-21 24-61zm245 0q0-40-24-61t-60-21-60.5 21T285 69t24.5 61 60.5 21 60-21 24-61z"/><glyph glyph-name="perthousand" unicode="‰" horiz-adv-x="1329" d="M308-60H208l409 820h100zm83 602q0-81-52-126.5T211 370q-77 0-129.5 45.5T29 542t52.5 126.5T211 714q76 0 128-45.5T391 542zm-250 0q0-29 17.5-49t52.5-20q33 0 50.5 20t17.5 49-17.5 49-50.5 20q-35 0-52.5-20T141 542zm751-384q0-81-52-126.5T712-14q-77 0-129.5 45.5T530 158t52.5 126.5T712 330q76 0 128-45.5T892 158zm-250 0q0-29 17.5-49T712 89q33 0 50.5 20t17.5 49-17.5 49-50.5 20q-35 0-52.5-20T642 158zm658 0q0-79-52-125.5T1120-14 991 32.5 938 158t53 125.5 129 46.5 128-46.5 52-125.5zm-249 0q0-29 17.5-49t52.5-20q33 0 50.5 20t17.5 49-17.5 49-50.5 20q-35 0-52.5-20t-17.5-49z"/><glyph glyph-name="guilsinglleft" unicode="‹" horiz-adv-x="331" d="M298 46H158L29 227v26l129 181h140L162 240z"/><glyph glyph-name="guilsinglright" unicode="›" horiz-adv-x="331" d="M173 46H33l136 194L33 434h140l129-181v-26z"/><glyph glyph-name="fraction" unicode="⁄" horiz-adv-x="182" d="M-115-14h-45l458 728h45z"/><glyph glyph-name="Euro" unicode="€" horiz-adv-x="727" d="M674 31q-93-45-199-45-123 0-220.5 62T123 227H34v89h74v48H34v89h89q35 117 131.5 179T473 694q111 0 201-45V506q-72 55-175 55-67 0-122.5-27.5T292 453h252v-89H262q-1-8-1-24t1-24h282v-89H291q29-53 85-80t122-27q110 0 176 58V31z"/><glyph glyph-name="trademark" unicode="™" horiz-adv-x="681" d="M381 442h-78v258h71l85-118 86 118h71V442h-78v141l-58-81h-41l-58 81V442zm-189 0h-77v188H38v70h231v-70h-77V442z"/><glyph glyph-name="oneeighth" unicode="⅛" horiz-adv-x="910" d="M546 302q0 46 40 80.5T704 417q73 0 116-35t44-82q1-54-49-92 64-34 64-96 0-51-43-86T706-9q-86 0-130.5 36T531 114q0 61 61 101-46 32-46 87zm170-137q-54 18-59 20-31-27-29-59 0-26 21.5-42T712 68q30 0 50.5 11t20.5 30q0 15-10.5 26t-22 16.5T716 165zm56 127q-1 21-19.5 34.5T701 340q-28 0-45-11t-17-27 11.5-27 23.5-16.5 37-13.5q2-1 36-11 25 28 25 58zM231-14h-45l458 728h45zm-73 694h70V356h75v-84H45v84h89v227l-86-28v87z"/><glyph glyph-name="threeeighths" unicode="⅜" horiz-adv-x="921" d="M557 302q0 46 40 80.5T715 417q73 0 116-35t44-82q1-54-49-92 64-34 64-96 0-51-43-86T717-9q-86 0-130.5 36T542 114q0 61 61 101-46 32-46 87zm170-137q-54 18-59 20-31-27-29-59 0-26 21.5-42T723 68q30 0 50.5 11t20.5 30q0 15-10.5 26t-22 16.5T727 165zm56 127q-1 21-19.5 34.5T712 340q-28 0-45-11t-17-27 11.5-27 23.5-16.5 37-13.5q2-1 36-11 25 28 25 58zM252-14h-45l458 728h45zm80 595q0-65-57-88 74-25 74-104 0-61-48-91t-118-30-141 28v90q59-34 133-32 82 0 82 48 0 43-66 43h-68l1 83h56q61 0 61 39 0 42-71 42-63 0-121-38v90q61 33 134 33 66 0 107.5-29.5T332 581z"/><glyph glyph-name="fiveeighths" unicode="⅝" horiz-adv-x="919" d="M555 302q0 46 40 80.5T713 417q73 0 116-35t44-82q1-54-49-92 64-34 64-96 0-51-43-86T715-9q-86 0-130.5 36T540 114q0 61 61 101-46 32-46 87zm170-137q-54 18-59 20-31-27-29-59 0-26 21.5-42T721 68q30 0 50.5 11t20.5 30q0 15-10.5 26t-22 16.5T725 165zm56 127q-1 21-19.5 34.5T710 340q-28 0-45-11t-17-27 11.5-27 23.5-16.5 37-13.5q2-1 36-11 25 28 25 58zM251-14h-45l458 728h45zM65 680h262v-84H153l-5-68q27 5 48 5 66 0 108-32.5T346 400t-51-103-125-35q-73 0-131 28v90q48-32 120-32 90 0 90 54 0 56-97 56-53 0-100-18z"/><glyph glyph-name="seveneighths" unicode="⅞" horiz-adv-x="844" d="M164-14h-45l458 728h45zm316 316q0 46 40 80.5T638 417q73 0 116-35t44-82q1-54-49-92 64-34 64-96 0-51-43-86T640-9q-86 0-130.5 36T465 114q0 61 61 101-46 32-46 87zm170-137q-54 18-59 20-31-27-29-59 0-26 21.5-42T646 68q30 0 50.5 11t20.5 30q0 15-10.5 26t-22 16.5T650 165zm56 127q-1 21-19.5 34.5T635 340q-28 0-45-11t-17-27 11.5-27 23.5-16.5 37-13.5q2-1 36-11 25 28 25 58zm-524-21H78l153 325H32v84h309v-71z"/><glyph glyph-name="partialdiff" unicode="∂" horiz-adv-x="586" d="M546 290q0-147-70-225.5T283-14q-110 0-180 65T33 220q0 101 60 163t149 62q55 0 100-22t65-59q-2 18-4 30-23 102-105 150t-197 42v124q92 0 170-24t140.5-72.5T510 482t36-192zm-371-73q0-48 28-84t86-36 83.5 33.5T402 212q0 48-29 85t-87 37q-56 0-83.5-35.5T175 217z"/><glyph glyph-name="emptyset" unicode="∅" horiz-adv-x="812" d="M747 700l-81-95q105-105 105-255 0-151-107-257.5T406-14q-118 0-213 68L147 0H65l82 95Q42 202 42 350q0 151 106.5 257.5T406 714q118 0 212-69l47 55h82zm-341-56q-122 0-208-86t-86-208q0-118 80-201l380 443q-74 52-166 52zM239 108q76-52 167-52 122 0 208 86t86 208q0 116-81 202z"/><glyph glyph-name="product" unicode="∏" horiz-adv-x="786" d="M271-220H122v798H33v122h719V578h-88v-798H514v798H271v-798z"/><glyph glyph-name="summation" unicode="∑" horiz-adv-x="581" d="M535 0H37v81l235 269L37 619v81h495V565H262l176-201v-28L262 135h273V0z"/><glyph glyph-name="minus" unicode="−" horiz-adv-x="518" d="M459 289H59v118h400V289z"/><glyph glyph-name="radical" unicode="√" horiz-adv-x="767" d="M404 0H279L126 345H21v135h195l126-310 279 610h157z"/><glyph glyph-name="infinity" unicode="∞" horiz-adv-x="876" d="M438 446q90 113 196 113 82 0 137.5-54.5T827 358t-55.5-146.5T634 157q-106 0-196 113-90-113-196-113-82 0-137.5 54.5T49 358t55.5 146.5T242 559q106 0 196-113zm-64-88q-61 83-115 83-33 0-55.5-21.5T181 358t22.5-61.5T259 275q55 0 115 83zm321 0q0 40-22.5 61.5T617 441q-57 0-115-83 61-83 115-83 33 0 55.5 21.5T695 358z"/><glyph glyph-name="integral" unicode="∫" horiz-adv-x="460" d="M161 614q0 96 54.5 138T348 794q55 0 104-18V656q-37 14-73 14-79 0-79-74V-54q0-96-54.5-138T113-234q-55 0-104 18v120q37-14 70-14 82 0 82 74v650z"/><glyph glyph-name="approxequal" unicode="≈" horiz-adv-x="615" d="M550 531q9-76-27-118t-100-42q-39 0-113.5 27T213 424q-35 0-29-43H66q-9 77 27.5 118.5T190 541q44 0 115.5-26.5T402 488q35 0 30 43h118zm0-193q9-76-27-118t-100-42q-39 0-113.5 27T213 231q-35 0-29-43H66q-9 77 27.5 118t96.5 41q44 0 115.5-26t96.5-26q35 0 30 43h118z"/><glyph glyph-name="notequal" unicode="≠" horiz-adv-x="578" d="M195 91H93l56 101H59v117h156l46 82H59v117h267l57 101h103l-57-101h90V391H363l-46-82h202V192H252z"/><glyph glyph-name="lessequal" unicode="≤" horiz-adv-x="520" d="M453 299V174L55 318v139l398 144V477l-277-89zm0-299H55v118h398V0z"/><glyph glyph-name="greaterequal" unicode="≥" horiz-adv-x="522" d="M466 325L68 180v125l277 89-277 89v125l398-145V325zm0-325H68v118h398V0z"/><glyph glyph-name="lozenge" unicode="◊" horiz-adv-x="594" d="M375 0H220L32 350l188 350h155l187-350zM174 350l123-225 124 225-124 225z"/><glyph glyph-name="i.loclTRK" horiz-adv-x="259" d="M60 480h139V0H60v480zM48 614q0 38 23 58.5t58 20.5 58.5-20.5T211 614q0-39-23-59t-59-20q-35 0-58 20t-23 59z"/><glyph glyph-name="a.ss01" horiz-adv-x="622" d="M441 70q-61-84-174-84-109 0-172 74.5T32 240t63 179.5T267 494q113 0 174-84v70h122V0H441v70zM174 240q0-58 34-97.5t92-39.5q43 0 76.5 23t48.5 57v114q-15 34-48.5 57T300 377q-58 0-92-39.5T174 240z"/><glyph glyph-name="aacute.ss01" horiz-adv-x="622" d="M441 70q-61-84-174-84-109 0-172 74.5T32 240t63 179.5T267 494q113 0 174-84v70h122V0H441v70zM174 240q0-58 34-97.5t92-39.5q43 0 76.5 23t48.5 57v114q-15 34-48.5 57T300 377q-58 0-92-39.5T174 240zm183 304H223l90 148h152z"/><glyph glyph-name="abreve.ss01" horiz-adv-x="622" d="M441 70q-61-84-174-84-109 0-172 74.5T32 240t63 179.5T267 494q113 0 174-84v70h122V0H441v70zM174 240q0-58 34-97.5t92-39.5q43 0 76.5 23t48.5 57v114q-15 34-48.5 57T300 377q-58 0-92-39.5T174 240zm294 334q-64-45-157-45-92 0-156 45v109q69-43 156-43 88 0 157 43V574z"/><glyph glyph-name="acircumflex.ss01" horiz-adv-x="622" d="M441 70q-61-84-174-84-109 0-172 74.5T32 240t63 179.5T267 494q113 0 174-84v70h122V0H441v70zM174 240q0-58 34-97.5t92-39.5q43 0 76.5 23t48.5 57v114q-15 34-48.5 57T300 377q-58 0-92-39.5T174 240zm76 452h123l124-155H365l-53 65-53-65H126z"/><glyph glyph-name="adieresis.ss01" horiz-adv-x="622" d="M441 70q-61-84-174-84-109 0-172 74.5T32 240t63 179.5T267 494q113 0 174-84v70h122V0H441v70zM174 240q0-58 34-97.5t92-39.5q43 0 76.5 23t48.5 57v114q-15 34-48.5 57T300 377q-58 0-92-39.5T174 240zm318 373q0-31-21.5-52.5T418 539t-53 21.5-22 52.5 22 53 53 22 52.5-22 21.5-53zm-214 0q0-31-21.5-52.5T204 539t-53 21.5-22 52.5 22 53 53 22 52.5-22 21.5-53z"/><glyph glyph-name="agrave.ss01" horiz-adv-x="622" d="M441 70q-61-84-174-84-109 0-172 74.5T32 240t63 179.5T267 494q113 0 174-84v70h122V0H441v70zM174 240q0-58 34-97.5t92-39.5q43 0 76.5 23t48.5 57v114q-15 34-48.5 57T300 377q-58 0-92-39.5T174 240zm224 304H264L156 692h152z"/><glyph glyph-name="amacron.ss01" horiz-adv-x="622" d="M441 70q-61-84-174-84-109 0-172 74.5T32 240t63 179.5T267 494q113 0 174-84v70h122V0H441v70zM174 240q0-58 34-97.5t92-39.5q43 0 76.5 23t48.5 57v114q-15 34-48.5 57T300 377q-58 0-92-39.5T174 240zm-26 417h326V547H148v110z"/><glyph glyph-name="aogonek.ss01" horiz-adv-x="622" d="M563 0q-35-23-54-49.5T491-98q-1-16 8.5-24t26.5-8q19 0 37 9v-96q-35-17-83-17-54-1-84 28t-29 72q0 70 74 134v70q-61-84-174-84-109 0-172 74.5T32 240t63 179.5T267 494q113 0 174-84v70h122V0zM300 103q43 0 76.5 23t48.5 57v114q-15 34-48.5 57T300 377q-58 0-92-39.5T174 240t34-97.5 92-39.5z"/><glyph glyph-name="aring.ss01" horiz-adv-x="622" d="M441 70q-61-84-174-84-109 0-172 74.5T32 240t63 179.5T267 494q113 0 174-84v70h122V0H441v70zM174 240q0-58 34-97.5t92-39.5q43 0 76.5 23t48.5 57v114q-15 34-48.5 57T300 377q-58 0-92-39.5T174 240zm261 396q0-56-36-88.5T310 515q-52 0-88.5 32.5T185 636q0 54 36.5 86t88.5 32 88.5-32 36.5-86zm-166-1q0-19 12-31t30-12 30 12 12 31-12 30.5-30 11.5-30-11.5-12-30.5z"/><glyph glyph-name="atilde.ss01" horiz-adv-x="622" d="M441 70q-61-84-174-84-109 0-172 74.5T32 240t63 179.5T267 494q113 0 174-84v70h122V0H441v70zM174 240q0-58 34-97.5t92-39.5q43 0 76.5 23t48.5 57v114q-15 34-48.5 57T300 377q-58 0-92-39.5T174 240zm315 425q14-60-14-99.5T395 526q-37 0-84 21t-58 21q-16 0-21.5-11.5T230 532H130q-14 60 14 99.5t79 39.5q37 0 84-21t59-21q16 0 21.5 11.5T389 665h100z"/><glyph glyph-name="ae.ss01" horiz-adv-x="949" d="M441 70q-61-84-174-84-109 0-172 74.5T32 240t63 179.5T267 494q113 0 174-84v70h116v-71q50 85 155 85 64 0 110.5-27t68-71 29-98-7.5-108H575q11-46 58-70t110-24q76 0 134 29V17q-60-31-141-31-118 0-179 87V0H441v70zM174 240q0-58 34-97.5t92-39.5q43 0 76.5 23t48.5 57v114q-15 34-48.5 57T300 377q-58 0-92-39.5T174 240zm513 147q-47 0-79.5-28T574 282h214q5 35-19 70t-82 35z"/><glyph glyph-name="y.ss01" d="M531 0q-1-115-76.5-174.5T262-234q-108 0-189 43v120q67-46 170-46 149 0 149 124v38q-61-59-144-59-94 0-144.5 55T53 183v297h139V201q0-47 24-71t68-24q64 0 108 61v313h139V0z"/><glyph glyph-name="yacute.ss01" d="M531 0q-1-115-76.5-174.5T262-234q-108 0-189 43v120q67-46 170-46 149 0 149 124v38q-61-59-144-59-94 0-144.5 55T53 183v297h139V201q0-47 24-71t68-24q64 0 108 61v313h139V0zM340 544H206l90 148h152z"/><glyph glyph-name="ycircumflex.ss01" d="M531 0q-1-115-76.5-174.5T262-234q-108 0-189 43v120q67-46 170-46 149 0 149 124v38q-61-59-144-59-94 0-144.5 55T53 183v297h139V201q0-47 24-71t68-24q64 0 108 61v313h139V0zM233 692h123l124-155H348l-53 65-53-65H109z"/><glyph glyph-name="ydieresis.ss01" d="M531 0q-1-115-76.5-174.5T262-234q-108 0-189 43v120q67-46 170-46 149 0 149 124v38q-61-59-144-59-94 0-144.5 55T53 183v297h139V201q0-47 24-71t68-24q64 0 108 61v313h139V0zm-56 613q0-31-21.5-52.5T401 539t-53 21.5-22 52.5 22 53 53 22 52.5-22 21.5-53zm-214 0q0-31-21.5-52.5T187 539t-53 21.5-22 52.5 22 53 53 22 52.5-22 21.5-53z"/><glyph glyph-name="ygrave.ss01" d="M531 0q-1-115-76.5-174.5T262-234q-108 0-189 43v120q67-46 170-46 149 0 149 124v38q-61-59-144-59-94 0-144.5 55T53 183v297h139V201q0-47 24-71t68-24q64 0 108 61v313h139V0zM381 544H247L139 692h152z"/><glyph glyph-name="f_b" horiz-adv-x="998" d="M574 429q59 65 158 65 109 0 171.5-74.5T966 240 903.5 60.5 732-14q-115 0-174 84V0H435v577q-46 20-95 20-43 0-69.5-20T244 516v-36h130V363H244V0H106v363H23v117h83v38q0 95 56.5 145.5T306 714q81 0 150-30l118 20V429zm-1-246q15-34 48.5-57t76.5-23q58 0 92 39.5t34 97.5-34 97.5-92 39.5q-43 0-76.5-23T573 297V183z"/><glyph glyph-name="f_f_b" horiz-adv-x="1324" d="M900 429q59 65 158 65 109 0 171.5-74.5T1292 240t-62.5-179.5T1058-14q-115 0-174 84V0H761v587q-46 20-94 20-43 0-69.5-21T571 522v-42h129V363H571V0H432v363H244V0H106v363H23v117h83v29q0 97 58.5 146T315 704q83 0 167-37 54 57 150 57 81 0 150-30l118 20V429zm-468 51v45q0 23 3 43-43 22-96 22-44 0-69.5-21T244 508v-28h188zm468-297q15-34 48.5-57t76.5-23q58 0 92 39.5t34 97.5-34 97.5-92 39.5q-43 0-76.5-23T900 297V183z"/><glyph glyph-name="f_f_h" horiz-adv-x="1292" d="M900 435q61 59 144 59 92 0 143.5-55.5T1239 297V0h-139v279q0 47-25.5 71t-67.5 24q-65 0-107-61V0H761v587q-46 20-94 20-43 0-69.5-21T571 522v-42h129V363H571V0H432v363H244V0H106v363H23v117h83v29q0 97 58.5 146T315 704q83 0 167-37 54 57 150 57 81 0 150-30l118 20V435zm-468 45v45q0 23 3 43-43 22-96 22-44 0-69.5-21T244 508v-28h188z"/><glyph glyph-name="f_f_j" horiz-adv-x="951" d="M890-75q0-85-48-122t-114-37q-45 0-80 14v111q19-7 39-7 64 0 64 66v413H571V0H432v363H244V0H106v363H23v117h83v29q0 97 58.5 146T315 704q82 0 167-37 60 63 176 63 83 0 167-31V581q-72 33-141 33-51 0-82-22t-31-68v-44h319V-75zM244 508v-28h188v45q0 23 3 43-43 22-96 22-44 0-69.5-21T244 508z"/><glyph glyph-name="f_f_k" horiz-adv-x="1249" d="M1236 480l-167-239L1250 0h-153L956 190h-56V0H761v587q-46 20-94 20-43 0-69.5-21T571 522v-42h129V363H571V0H432v363H244V0H106v363H23v117h83v29q0 97 58.5 146T315 704q83 0 167-37 54 57 150 57 81 0 150-30l118 20V301h61l122 179h153zm-804 0v45q0 23 3 43-43 22-96 22-44 0-69.5-21T244 508v-28h188z"/><glyph glyph-name="f_h" horiz-adv-x="966" d="M574 435q61 59 144 59 92 0 143.5-55.5T913 297V0H774v279q0 47-25.5 71T681 374q-65 0-107-61V0H435v577q-46 20-95 20-43 0-69.5-20T244 516v-36h130V363H244V0H106v363H23v117h83v38q0 95 56.5 145.5T306 714q81 0 150-30l118 20V435z"/><glyph glyph-name="f_i" horiz-adv-x="611" d="M244 480h306V0H412v363H244V0H106v363H23v117h83v32q0 100 62 151t164 51q78 0 166-31V565q-69 32-141 32-51 0-82-21.5T244 511v-31z"/><glyph glyph-name="f_j" horiz-adv-x="611" d="M244 480h306V-75q0-44-14.5-76.5t-39-49.5-51.5-25-57-8q-44 0-79 14v111q18-7 39-7 64 0 64 66v413H244V0H106v363H23v117h83v32q0 100 62 151t164 51q78 0 166-31V565q-69 32-141 32-51 0-82-21.5T244 511v-31z"/><glyph glyph-name="f_k" horiz-adv-x="923" d="M910 480L743 241 924 0H771L630 190h-56V0H435v577q-46 20-95 20-43 0-69.5-20T244 516v-36h130V363H244V0H106v363H23v117h83v38q0 95 56.5 145.5T306 714q81 0 150-30l118 20V301h61l122 179h153z"/><glyph glyph-name="f_l" horiz-adv-x="635" d="M306 714q81 0 150-30l118 20V0H435v577q-46 20-95 20-43 0-69.5-20T244 516v-36h130V363H244V0H106v363H23v117h83v38q0 95 56.5 145.5T306 714z"/><glyph glyph-name="uni0414.loclBGR" horiz-adv-x="829" d="M158-152H26v284h80l227 568h163l228-568h79v-284H671V0H158v-152zm257 700L263 132h303z"/><glyph glyph-name="uni041B.loclBGR" horiz-adv-x="707" d="M276 700h154L703 0H541L353 524 166 0H4z"/><glyph glyph-name="uni0424.loclBGR" horiz-adv-x="910" d="M528-94H385V0Q224 10 130 108T36 350t94 242 255 108v94h143v-94q161-11 253.5-108.5T874 350t-92.5-241.5T528 0v-94zM186 350q0-38 10-73t31.5-68 62-54.5T385 129v442q-55-4-95.5-25.5t-62-54.5-31.5-68-10-73zm342 220V130q54 4 94 25.5t61.5 54.5 31 68 9.5 72-9.5 72-31 68-61.5 54.5-94 25.5z"/><glyph glyph-name="uni0432.loclBGR" horiz-adv-x="591" d="M510 537q0-90-81-141 60-21 95.5-69T560 212q0-100-70-163T309-14q-120 0-190.5 71T47 280v112q0 152 68 237t192 85q87 0 145-51t58-126zm-135-16q0 30-20 51.5T301 594q-112 0-115-186l100 18q46 10 67.5 36t21.5 59zM186 274q0-165 120-165 53 0 84 30t31 78-34.5 79-95.5 20l-105-18v-24z"/><glyph glyph-name="uni0433.loclBGR" horiz-adv-x="488" d="M447 31q-76-45-191-45Q28-14 28 136q0 52 29 85.5t70 46.5 82 21.5 70 21.5 29 35q0 41-72 41-102 0-177-48v114q85 41 187 41 88 0 146-35.5T450 346q0-52-29-85.5T351 213t-82-23-70-21.5-29-33.5q0-22 22.5-31t70.5-9q109 0 184 52V31z"/><glyph glyph-name="uni0434.loclBGR" horiz-adv-x="622" d="M32 240q0 105 63 179.5T267 494q113 0 174-84v70h122V13q0-66-23-115.5t-62.5-77-87.5-41T287-234q-110 0-203 45v122q84-50 185-50 156 0 156 124v44q-59-65-158-65-109 0-172 74.5T32 240zm393 57q-15 34-48.5 57T300 377q-58 0-92-39.5T174 240t34-97.5 92-39.5q43 0 76.5 22t48.5 55v117z"/><glyph glyph-name="uni0436.loclBGR" horiz-adv-x="787" d="M151 0H2l166 240L16 480h148l109-181h51v401h139V299h51l109 181h148L619 240 785 0H636L511 189h-48V0H324v189h-48z"/><glyph glyph-name="uni0438.loclBGR" d="M392 480h139V0H408v61q-65-75-160-75-94 0-144.5 55T53 183v297h139V201q0-47 24-71t68-24q64 0 108 61v313z"/><glyph glyph-name="uni0439.loclBGR" d="M446 578q-65-40-153-40t-153 40v104q69-38 153-38t153 38V578zm-54-98h139V0H408v61q-65-75-160-75-94 0-144.5 55T53 183v297h139V201q0-47 24-71t68-24q64 0 108 61v313z"/><glyph glyph-name="uni043A.loclBGR" horiz-adv-x="548" d="M548 0H392L254 190h-56V0H59v700h139V301h58l122 179h156L369 243z"/><glyph glyph-name="uni043B.loclBGR" horiz-adv-x="560" d="M551 0H403L280 333 157 0H9l198 480h146z"/><glyph glyph-name="uni043F.loclBGR" d="M182 419q65 75 160 75 92 0 143.5-55.5T537 297V0H398v279q0 47-25.5 71T305 374q-65 0-107-61V0H59v480h123v-61z"/><glyph glyph-name="uni0442.loclBGR" horiz-adv-x="875" d="M198 0H59v480h123v-56q23 27 63 48.5t90 21.5q99 0 147-71 73 71 160 71 92 0 135.5-57.5T821 304V0H683v295q0 37-20.5 58T608 374q-53 0-95-48 1-7 1-22V0H376v295q0 37-20.5 58T301 374q-59 0-103-58V0z"/><glyph glyph-name="uni0446.loclBGR" horiz-adv-x="629" d="M531 125q0-15 9-24t23-9h39v-219H475V-3q-55 7-72 59-61-70-155-70T103.5 41 53 183v297h139V201q0-47 24-71t68-24q64 0 108 61v313h139V125z"/><glyph glyph-name="uni0448.loclBGR" horiz-adv-x="875" d="M677 480h139V0H693v56q-23-27-63-48.5T540-14q-99 0-147 71-73-71-160-71-92 0-135.5 57.5T54 176v304h138V185q0-37 20.5-58t54.5-21q53 0 95 48-1 7-1 22v304h138V185q0-37 20.5-58t54.5-21q59 0 103 58v316z"/><glyph glyph-name="uni0449.loclBGR" horiz-adv-x="914" d="M816 125q0-15 9-24t23-9h40v-219H761V-3q-52 5-71 54-61-65-150-65-100 0-146 72-74-72-161-72-92 0-135.5 57.5T54 176v304h139V185q0-37 20-58t54-21q52 0 95 47-1 8-1 23v304h139V185q0-37 20-58t54-21q60 0 104 58v316h138V125z"/><glyph glyph-name="uni044E.loclBGR" horiz-adv-x="836" d="M804 240q0-120-77-187T539-14q-92 0-164 52.5T285 185h-87V0H59v700h139V295h87q18 94 90 146.5T539 494q111 0 188-67t77-187zm-388 0q0-59 32-97.5t91-38.5q60 0 92 38.5t32 97.5-32 97.5-92 38.5q-59 0-91-38.5T416 240z"/><glyph glyph-name="uni0430.ss01" horiz-adv-x="622" d="M441 70q-61-84-174-84-109 0-172 74.5T32 240t63 179.5T267 494q113 0 174-84v70h122V0H441v70zM174 240q0-58 34-97.5t92-39.5q43 0 76.5 23t48.5 57v114q-15 34-48.5 57T300 377q-58 0-92-39.5T174 240z"/><glyph glyph-name="uni0437.ss01" horiz-adv-x="475" d="M406 318q0-91-81-142 60-19 95.5-68T456-7q0-107-76-166.5T192-233q-102 0-178 42v119q71-47 158-47 63 0 104 28.5T317-5q0 53-37 83.5T179 95l-61-14v110l68 16q85 21 85 95 0 41-29.5 60.5T166 382q-75 0-144-43v115q79 40 172 40 88 0 150-46t62-130z"/><glyph glyph-name="uni0443.ss01" d="M531 0q-1-115-76.5-174.5T262-234q-108 0-189 43v120q67-46 170-46 149 0 149 124v38q-61-59-144-59-94 0-144.5 55T53 183v297h139V201q0-47 24-71t68-24q64 0 108 61v313h139V0z"/><glyph glyph-name="zero.osf" horiz-adv-x="668" d="M631 260q0-109-78-191.5T334-14q-140 0-218 82.5T38 260t78 191.5T334 534q141 0 219-82.5T631 260zm-443 0q0-60 38.5-101T334 118t108 41 39 101-39 101-108 41-107.5-41T188 260z"/><glyph glyph-name="one.osf" horiz-adv-x="464" d="M216 520h109V129h114V0H51v129h128v241L51 322v135z"/><glyph glyph-name="two.osf" horiz-adv-x="556" d="M509 0H39v64q0 28 9.5 51.5t19.5 38 36.5 31.5 37.5 22.5 47.5 21.5 43.5 19q81 37 99 53 23 20 23 45 0 27-25 42t-66 15q-94 0-202-64v140q101 55 222 55 93 0 156.5-46T504 358q0-43-21.5-76.5T436 231t-65-37q-17-8-50-23t-51-24.5-28-18.5l267 1V0z"/><glyph glyph-name="three.osf" horiz-adv-x="554" d="M490 346q0-52-27.5-90.5T387 200q57-17 94-60.5T518 26q0-68-40-114.5t-97-66T256-174q-111 0-216 43V5q97-49 204-47 54 0 92.5 22T375 47q0 41-29.5 60T270 126H169v128l85-1q41 0 67.5 19t26.5 53q0 37-30.5 57.5T235 403q-89 0-183-49v135q89 45 203 45 102 0 168.5-49T490 346z"/><glyph glyph-name="four.osf" horiz-adv-x="613" d="M340 520h149V89h100V-36H489v-124H346v124H19V88zm6-431v236L170 89h176z"/><glyph glyph-name="five.osf" horiz-adv-x="547" d="M83 521h402V392l-267 1-9-133q43 10 78 10 96 0 162.5-54T516 53q0-75-41-128t-101-76-130-23q-116 0-205 43V4q81-47 189-47 57 0 97.5 25.5T366 55q0 49-39 74.5T220 155q-80 0-161-29z"/><glyph glyph-name="six.osf" horiz-adv-x="616" d="M198 402q73 38 159 38 91 0 159-59.5T584 217q0-111-73-171T331-14q-144 0-216 91.5T43 334q0 92 27.5 163.5t73.5 113T244.5 673 359 694q95 0 171-41V527q-67 41-151 41-63 0-114-38.5T198 402zm-3-125q16-169 130-169 46 0 77.5 26t31.5 79-34.5 77.5T318 315q-67 0-123-38z"/><glyph glyph-name="seven.osf" horiz-adv-x="519" d="M20 521h486V413L244-160H82l253 552H20v129z"/><glyph glyph-name="eight.osf" horiz-adv-x="628" d="M66 506q0 76 64 132t183 56q113 0 180.5-58T562 502q1-92-86-157 111-55 111-161 0-83-69-140.5T315-14q-132 0-203 59T41 189q0 50 29 96t77 75q-81 54-81 146zm255-220q-57 20-77 28-56-46-54-107 1-46 34.5-73t94.5-27q54 0 86 21.5t32 55.5q0 40-24.5 59T321 286zm97 205q0 36-30 60.5T311 576t-74.5-21.5T209 502q0-33 23.5-55.5T310 404q26-9 60-18 50 48 48 105z"/><glyph glyph-name="nine.osf" horiz-adv-x="605" d="M26 303q0 111 73.5 171T279 534q144 0 216-91.5T567 186q0-92-27.5-163.5T466-90.5 365.5-153 251-174q-95 0-171 41V-7q68-41 151-41 40 0 74.5 13.5T371 18t41 101q-71-39-158-39-91 0-159.5 59.5T26 303zm260 109q-46 0-78-26t-32-79 34.5-77.5T293 205q67 0 123 38-16 169-130 169z"/><glyph glyph-name="zero.sinf" horiz-adv-x="432" d="M403 104q0-94-47-153.5T216-109 76-49.5 29 104t47 153.5T216 317t140-59.5T403 104zm-277 0q0-127 90-127 91 0 91 127t-91 127q-90 0-90-127z"/><glyph glyph-name="one.sinf" horiz-adv-x="306" d="M145 308h70V-16h75v-84H32v84h89v227l-86-28v87z"/><glyph glyph-name="two.sinf" horiz-adv-x="366" d="M40 273q63 44 143 44 67 0 108.5-31t41.5-92q0-47-29.5-80T224 51q-26-15-35-20t-25-15.5-22-18-6-14.5l198 1v-84H27v43q0 28 9.5 52.5t19 39.5T89 68.5t33.5 24T161 115q4 3 16.5 10t17 9.5T208 143t12.5 10 8.5 10.5 6.5 12.5 1.5 14q0 42-63 42-68 0-134-50v91z"/><glyph glyph-name="three.sinf" horiz-adv-x="366" d="M321 204q0-65-57-88 74-25 74-104 0-61-48-91t-118-30T31-81V9q59-34 133-32 82 0 82 48 0 43-66 43h-68l1 83h56q61 0 61 39 0 42-71 42-63 0-121-38v90q61 33 134 33 66 0 107.5-29.5T321 204z"/><glyph glyph-name="four.sinf" horiz-adv-x="403" d="M225 308h97V54h59v-82h-59v-72h-92v72H18v81zm5-254v135L120 54h110z"/><glyph glyph-name="five.sinf" horiz-adv-x="362" d="M56 309h262v-84H144l-5-68q27 5 48 5 66 0 108-32.5T337 29 286-74t-125-35q-73 0-131 28V9q48-32 120-32 90 0 90 54 0 56-97 56-53 0-100-18z"/><glyph glyph-name="six.sinf" horiz-adv-x="395" d="M127 142q48 24 103 24 59 0 101.5-35T374 33q0-68-45.5-105T215-109Q29-109 29 106q0 104 55.5 157.5T224 317q60 0 115-26v-85q-48 29-103 29-94 0-109-93zm-1-78q6-52 26.5-72.5T208-29q69 0 69 58 0 56-76 56-39 0-75-21z"/><glyph glyph-name="seven.sinf" horiz-adv-x="340" d="M167-100H63l153 325H17v84h309v-71z"/><glyph glyph-name="eight.sinf" horiz-adv-x="403" d="M42 202q0 46 40 80.5T200 317q73 0 116-35t44-82q1-54-49-92 64-34 64-96 0-51-43-86t-130-35q-86 0-130.5 36T27 14q0 61 61 101-46 32-46 87zM212 65q-54 18-59 20-31-27-29-59 0-26 21.5-42T208-32q30 0 50.5 11T279 9q0 15-10.5 26t-22 16.5T212 65zm56 127q-1 21-19.5 34.5T197 240q-28 0-45-11t-17-27 11.5-27 23.5-16.5 37-13.5q2-1 36-11 25 28 25 58z"/><glyph glyph-name="nine.sinf" horiz-adv-x="395" d="M21 175q0 68 45.5 105T179 317q187 0 187-215 0-104-56-157.5T171-109q-60 0-115 26V3q46-30 103-30 94 0 109 93-46-23-103-23-59 0-101.5 35T21 175zm165 62q-68 0-68-58 0-56 76-56 39 0 75 21-6 52-26.5 72.5T186 237z"/><glyph glyph-name="zero.sups" horiz-adv-x="432" d="M403 581q0-94-47-153.5T216 368 76 427.5 29 581t47 153.5T216 794t140-59.5T403 581zm-277 0q0-127 90-127 91 0 91 127t-91 127q-90 0-90-127z"/><glyph glyph-name="one.sups" horiz-adv-x="306" d="M145 780h70V456h75v-84H32v84h89v227l-86-28v87z"/><glyph glyph-name="two.sups" horiz-adv-x="367" d="M41 750q63 44 143 44 67 0 108.5-31t41.5-92q0-47-29.5-80T225 528q-26-15-35-20t-25-15.5-22-18-6-14.5l198 1v-84H28v43q0 28 9.5 52.5t19 39.5T90 545.5t33.5 24T162 592q4 3 16.5 10t17 9.5T209 620t12.5 10 8.5 10.5 6.5 12.5 1.5 14q0 42-63 42-68 0-134-50v91z"/><glyph glyph-name="three.sups" horiz-adv-x="366" d="M321 681q0-65-57-88 74-25 74-104 0-61-48-91t-118-30-141 28v90q59-34 133-32 82 0 82 48 0 43-66 43h-68l1 83h56q61 0 61 39 0 42-71 42-63 0-121-38v90q61 33 134 33 66 0 107.5-29.5T321 681z"/><glyph glyph-name="four.sups" horiz-adv-x="403" d="M225 780h97V526h59v-82h-59v-72h-92v72H18v81zm5-254v135L120 526h110z"/><glyph glyph-name="five.sups" horiz-adv-x="362" d="M56 780h262v-84H144l-5-68q27 5 48 5 66 0 108-32.5T337 500t-51-103-125-35q-73 0-131 28v90q48-32 120-32 90 0 90 54 0 56-97 56-53 0-100-18z"/><glyph glyph-name="six.sups" horiz-adv-x="395" d="M127 619q48 24 103 24 59 0 101.5-35t42.5-98q0-68-45.5-105T215 368Q29 368 29 583q0 104 55.5 157.5T224 794q60 0 115-26v-85q-48 29-103 29-94 0-109-93zm-1-78q6-52 26.5-72.5T208 448q69 0 69 58 0 56-76 56-39 0-75-21z"/><glyph glyph-name="seven.sups" horiz-adv-x="340" d="M167 371H63l153 325H17v84h309v-71z"/><glyph glyph-name="eight.sups" horiz-adv-x="403" d="M42 679q0 46 40 80.5T200 794q73 0 116-35t44-82q1-54-49-92 64-34 64-96 0-51-43-86t-130-35q-86 0-130.5 36T27 491q0 61 61 101-46 32-46 87zm170-137q-54 18-59 20-31-27-29-59 0-26 21.5-42t62.5-16q30 0 50.5 11t20.5 30q0 15-10.5 26t-22 16.5T212 542zm56 127q-1 21-19.5 34.5T197 717q-28 0-45-11t-17-27q0-22 17-33.5t55-23.5q2-1 36-11 25 28 25 58z"/><glyph glyph-name="nine.sups" horiz-adv-x="396" d="M22 652q0 68 45.5 105T180 794q187 0 187-215 0-104-56-157.5T172 368q-60 0-115 26v86q46-30 103-30 94 0 109 93-46-23-103-23-59 0-101.5 35T22 652zm165 62q-68 0-68-58 0-56 76-56 39 0 75 21-6 52-26.5 72.5T187 714z"/><glyph glyph-name="zero.tf" horiz-adv-x="643" d="M616 340q0-156-75-255T322-14q-145 0-220 99T27 340t75 255 220 99q144 0 219-99t75-255zm-439 0q0-109 37-165.5T322 118t107.5 56.5T466 340t-36.5 165.5T322 562t-108-56.5T177 340z"/><glyph glyph-name="one.tf" horiz-adv-x="643" d="M301 680h110V129h196V0H56v129h208v401L90 463v136z"/><glyph glyph-name="two.tf" horiz-adv-x="643" d="M76 622q114 72 243 72 112 0 182-50.5T571 493q0-78-49.5-132.5T387 257q-9-5-26.5-15t-27-15.5-24-14-23-14T267 185t-17-14.5-12-14-8.5-14.5-2.5-14l359 1V0H57v67q0 33 8 62.5t17 51 30.5 45 34.5 36 43 32.5 41.5 26.5T276 346q9 5 14 8 80 44 100 63 31 30 31 70 0 37-30.5 56.5T306 563q-111 0-230-81v140z"/><glyph glyph-name="three.tf" horiz-adv-x="643" d="M560 506q0-52-27.5-90.5T457 360q57-17 94-60.5T588 186q0-101-79.5-150.5T306-14Q173-14 60 33v140q101-57 234-55 151 2 151 89 0 79-122 79H208l1 128 98-1q53-1 82 18t29 54q0 78-135 78-111 0-211-63v139q100 55 232 55 117 0 186.5-48.5T560 506z"/><glyph glyph-name="four.tf" horiz-adv-x="643" d="M368 680h149V249h100V124H517V0H374v124H17v124zm6-431v248L173 249h201z"/><glyph glyph-name="five.tf" horiz-adv-x="643" d="M106 681h452V552l-317 1-9-134q57 11 105 11 112 0 182-53t70-164q0-112-84.5-169.5T291-14Q157-14 62 32v139q85-54 212-54 77 0 121 25t44 73q0 100-176 100-100 0-181-29z"/><glyph glyph-name="six.tf" horiz-adv-x="643" d="M193 394q86 46 182 46 98 0 167.5-58T612 220q0-111-75-172.5T352-14Q44-14 44 334q0 93 26 163.5T141 610t102 63 124 21q97 0 187-42V520q-73 48-167 48-171 0-194-174zm0-121q10-90 47-127.5T340 108q54 0 88 26t34 79q0 102-133 102-71 0-136-42z"/><glyph glyph-name="seven.tf" horiz-adv-x="643" d="M48 681h553V573L312 0H150l279 552H48v129z"/><glyph glyph-name="eight.tf" horiz-adv-x="643" d="M58 506q0 76 66 132t196 56q123 0 193-57.5T584 502q1-92-86-156 111-57 111-162 0-83-71.5-140.5T322-14q-143 0-216 59T33 189q0 51 29 96.5t77 74.5q-81 55-81 146zm279-226q-13 5-47.5 16T236 314q-55-46-53-107 1-46 38.5-74.5T333 104q55 0 91 21t36 55q0 17-7 31t-16 22.5-28.5 18-32 14.5-39.5 14zm103 211q0 37-32.5 61T314 576q-52 0-82.5-20.5T201 505q0-17 8-31.5t17-23.5 30-18.5 33-14 40-13.5q30-9 63-18 50 48 48 105z"/><glyph glyph-name="nine.tf" horiz-adv-x="643" d="M31 460q0 111 75 172.5T291 694q308 0 308-354 0-90-26-159.5t-71-111T400 7 276-14q-97 0-187 42v132q73-48 167-48 171 0 194 174-86-46-181-46-99 0-168.5 58T31 460zm272 112q-54 0-88-26t-34-79q0-102 133-102 69 0 136 41-10 91-47 128.5T303 572z"/><glyph glyph-name="zero.tosf" horiz-adv-x="643" d="M618 260q0-109-78-191.5T321-14q-140 0-218 82.5T25 260t78 191.5T321 534q141 0 219-82.5T618 260zm-443 0q0-60 38.5-101T321 118t108 41 39 101-39 101-108 41-107.5-41T175 260z"/><glyph glyph-name="one.tosf" horiz-adv-x="643" d="M299 520h110V129h196V0H54v129h208v241L88 303v136z"/><glyph glyph-name="two.tosf" horiz-adv-x="643" d="M580 0H55v64q0 34 15 63t37 48 56 36 60.5 26.5T286 257q73 21 106.5 40t33.5 50q0 56-119 56-52 0-113.5-20.5T78 325v140q110 69 242 69 117 0 186-46.5T575 350q0-59-36.5-96T435 191q-17-7-80.5-28T264 128l316 1V0z"/><glyph glyph-name="three.tosf" horiz-adv-x="643" d="M559 346q0-52-27.5-90.5T456 200q57-17 94-60.5T587 26q0-101-79.5-150.5T306-174q-133 0-244 46V11q98-55 232-53 150 2 150 89 0 79-120 79H210l1 128 96-1q51-1 80.5 18t29.5 54q0 78-133 78-110 0-210-61v139q98 53 230 53 116 0 185.5-48.5T559 346z"/><glyph glyph-name="four.tosf" horiz-adv-x="643" d="M368 520h149V89h103V-36H517v-124H374v124H17V88zm6-431v248L173 89h201z"/><glyph glyph-name="five.tosf" horiz-adv-x="643" d="M108 521h448V392l-313 1-9-134q57 11 105 11 110 0 179-53.5T587 53q0-112-83.5-169.5T293-174q-134 0-229 46V11q85-54 212-54 74 0 117.5 25T437 55q0 100-172 100-100 0-181-29z"/><glyph glyph-name="six.tosf" horiz-adv-x="643" d="M193 394q86 46 182 46 98 0 167.5-58T612 220q0-111-75-172.5T352-14Q44-14 44 340q0 90 26 159.5t71 111T243 673t124 21q97 0 187-42V520q-73 48-167 48-171 0-194-174zm0-121q10-90 47-127.5T340 108q54 0 88 26t34 79q0 102-133 102-71 0-136-42z"/><glyph glyph-name="seven.tosf" horiz-adv-x="643" d="M48 521h553V413L312-160H150l279 552H48v129z"/><glyph glyph-name="eight.tosf" horiz-adv-x="643" d="M58 506q0 76 66 132t196 56q123 0 193-57.5T584 502q1-92-86-156 111-57 111-162 0-83-71.5-140.5T322-14q-143 0-216 59T33 189q0 51 29 96.5t77 74.5q-81 55-81 146zm278-226q-13 5-47.5 16T235 314q-55-46-53-107 1-46 38.5-74.5T332 104q55 0 91 21t36 55q0 17-7 31t-16 22.5-28.5 18-32 14.5-39.5 14zm104 211q0 37-32.5 61T314 576q-52 0-82.5-20.5T201 505q0-17 8-31.5t17-23.5 30-18.5 33-14 40-13.5q30-9 63-18 50 48 48 105z"/><glyph glyph-name="nine.tosf" horiz-adv-x="643" d="M31 300q0 111 75 172.5T291 534q308 0 308-354 0-90-26-159.5t-71-111T400-153t-124-21q-97 0-187 42V0q73-48 167-48 171 0 194 174-86-46-181-46-99 0-168.5 58T31 300zm272 112q-54 0-88-26t-34-79q0-102 133-102 69 0 136 41-10 91-47 128.5T303 412z"/><glyph glyph-name="zero.dnom" horiz-adv-x="432" d="M403 204q0-94-47-153.5T216-9 76 50.5 29 204t47 153.5T216 417t140-59.5T403 204zm-277 0q0-127 90-127 91 0 91 127t-91 127q-90 0-90-127z"/><glyph glyph-name="one.dnom" horiz-adv-x="306" d="M145 408h70V84h75V0H32v84h89v227l-86-28v87z"/><glyph glyph-name="two.dnom" horiz-adv-x="366" d="M40 373q63 44 143 44 67 0 108.5-31t41.5-92q0-47-29.5-80T224 151q-26-15-35-20t-25-15.5-22-18-6-14.5l198 1V0H27v43q0 28 9.5 52.5t19 39.5T89 168.5t33.5 24T161 215q4 3 16.5 10t17 9.5T208 243t12.5 10 8.5 10.5 6.5 12.5 1.5 14q0 42-63 42-68 0-134-50v91z"/><glyph glyph-name="three.dnom" horiz-adv-x="366" d="M321 304q0-65-57-88 74-25 74-104 0-61-48-91T172-9 31 19v90q59-34 133-32 82 0 82 48 0 43-66 43h-68l1 83h56q61 0 61 39 0 42-71 42-63 0-121-38v90q61 33 134 33 66 0 107.5-29.5T321 304z"/><glyph glyph-name="four.dnom" horiz-adv-x="403" d="M225 408h97V154h59V72h-59V0h-92v72H18v81zm5-254v135L120 154h110z"/><glyph glyph-name="five.dnom" horiz-adv-x="362" d="M56 409h262v-84H144l-5-68q27 5 48 5 66 0 108-32.5T337 129 286 26 161-9Q88-9 30 19v90q48-32 120-32 90 0 90 54 0 56-97 56-53 0-100-18z"/><glyph glyph-name="six.dnom" horiz-adv-x="395" d="M127 242q48 24 103 24 59 0 101.5-35t42.5-98q0-68-45.5-105T215-9Q29-9 29 206q0 104 55.5 157.5T224 417q60 0 115-26v-85q-48 29-103 29-94 0-109-93zm-1-78q6-52 26.5-72.5T208 71q69 0 69 58 0 56-76 56-39 0-75-21z"/><glyph glyph-name="seven.dnom" horiz-adv-x="340" d="M167 0H63l153 325H17v84h309v-71z"/><glyph glyph-name="eight.dnom" horiz-adv-x="403" d="M42 302q0 46 40 80.5T200 417q73 0 116-35t44-82q1-54-49-92 64-34 64-96 0-51-43-86T202-9Q116-9 71.5 27T27 114q0 61 61 101-46 32-46 87zm170-137q-54 18-59 20-31-27-29-59 0-26 21.5-42T208 68q30 0 50.5 11t20.5 30q0 15-10.5 26t-22 16.5T212 165zm56 127q-1 21-19.5 34.5T197 340q-28 0-45-11t-17-27 11.5-27 23.5-16.5 37-13.5q2-1 36-11 25 28 25 58z"/><glyph glyph-name="nine.dnom" horiz-adv-x="395" d="M21 275q0 68 45.5 105T179 417q187 0 187-215 0-104-56-157.5T171-9Q111-9 56 17v86q46-30 103-30 94 0 109 93-46-23-103-23-59 0-101.5 35T21 275zm165 62q-68 0-68-58 0-56 76-56 39 0 75 21-6 52-26.5 72.5T186 337z"/><glyph glyph-name="zero.numr" horiz-adv-x="432" d="M403 481q0-94-47-153.5T216 268 76 327.5 29 481t47 153.5T216 694t140-59.5T403 481zm-277 0q0-127 90-127 91 0 91 127t-91 127q-90 0-90-127z"/><glyph glyph-name="one.numr" horiz-adv-x="306" d="M145 680h70V356h75v-84H32v84h89v227l-86-28v87z"/><glyph glyph-name="two.numr" horiz-adv-x="367" d="M41 650q63 44 143 44 67 0 108.5-31t41.5-92q0-47-29.5-80T225 428q-26-15-35-20t-25-15.5-22-18-6-14.5l198 1v-84H28v43q0 28 9.5 52.5t19 39.5T90 445.5t33.5 24T162 492q4 3 16.5 10t17 9.5T209 520t12.5 10 8.5 10.5 6.5 12.5 1.5 14q0 42-63 42-68 0-134-50v91z"/><glyph glyph-name="three.numr" horiz-adv-x="366" d="M321 581q0-65-57-88 74-25 74-104 0-61-48-91t-118-30-141 28v90q59-34 133-32 82 0 82 48 0 43-66 43h-68l1 83h56q61 0 61 39 0 42-71 42-63 0-121-38v90q61 33 134 33 66 0 107.5-29.5T321 581z"/><glyph glyph-name="four.numr" horiz-adv-x="403" d="M225 680h97V426h59v-82h-59v-72h-92v72H18v81zm5-254v135L120 426h110z"/><glyph glyph-name="five.numr" horiz-adv-x="362" d="M56 680h262v-84H144l-5-68q27 5 48 5 66 0 108-32.5T337 400t-51-103-125-35q-73 0-131 28v90q48-32 120-32 90 0 90 54 0 56-97 56-53 0-100-18z"/><glyph glyph-name="six.numr" horiz-adv-x="395" d="M127 519q48 24 103 24 59 0 101.5-35t42.5-98q0-68-45.5-105T215 268Q29 268 29 483q0 104 55.5 157.5T224 694q60 0 115-26v-85q-48 29-103 29-94 0-109-93zm-1-78q6-52 26.5-72.5T208 348q69 0 69 58 0 56-76 56-39 0-75-21z"/><glyph glyph-name="seven.numr" horiz-adv-x="340" d="M167 271H63l153 325H17v84h309v-71z"/><glyph glyph-name="eight.numr" horiz-adv-x="403" d="M42 579q0 46 40 80.5T200 694q73 0 116-35t44-82q1-54-49-92 64-34 64-96 0-51-43-86t-130-35q-86 0-130.5 36T27 391q0 61 61 101-46 32-46 87zm170-137q-54 18-59 20-31-27-29-59 0-26 21.5-42t62.5-16q30 0 50.5 11t20.5 30q0 15-10.5 26t-22 16.5T212 442zm56 127q-1 21-19.5 34.5T197 617q-28 0-45-11t-17-27q0-22 17-33.5t55-23.5q2-1 36-11 25 28 25 58z"/><glyph glyph-name="nine.numr" horiz-adv-x="396" d="M22 552q0 68 45.5 105T180 694q187 0 187-215 0-104-56-157.5T172 268q-60 0-115 26v86q46-30 103-30 94 0 109 93-46-23-103-23-59 0-101.5 35T22 552zm165 62q-68 0-68-58 0-56 76-56 39 0 75 21-6 52-26.5 72.5T187 614z"/><glyph glyph-name="emdash.case" horiz-adv-x="782" d="M723 291H59v118h664V291z"/><glyph glyph-name="endash.case" horiz-adv-x="586" d="M527 291H59v118h468V291z"/><glyph glyph-name="hyphen.case" horiz-adv-x="490" d="M59 409h372V291H59v118z"/><glyph glyph-name="guillemotleft.case" horiz-adv-x="595" d="M538 156H398L269 337v26l129 181h140L402 350zm-228 0H170L41 337v26l129 181h140L174 350z"/><glyph glyph-name="guillemotright.case" horiz-adv-x="595" d="M425 156H285l136 194-136 194h140l129-181v-26zm-228 0H57l136 194L57 544h140l129-181v-26z"/><glyph glyph-name="guilsinglleft.case" horiz-adv-x="367" d="M310 156H170L41 337v26l129 181h140L174 350z"/><glyph glyph-name="guilsinglright.case" horiz-adv-x="367" d="M197 156H57l136 194L57 544h140l129-181v-26z"/><glyph glyph-name="cent.tf" horiz-adv-x="643" d="M433 109q52 7 93 32V18Q484 0 433-9v-111h-96v107q-99 8-167 71t-68 175q0 117 67.5 183T337 493v107h96V490q47-9 88-30V338q-35 23-88 33V109zm-96 258q-93-29-93-127 0-49 25.5-81t67.5-45v253z"/><glyph glyph-name="currency.tf" horiz-adv-x="643" d="M218 177l-82-82-69 69 78 78q-31 45-31 108 0 62 31 109l-78 78 68 69 83-83q46 24 104 24t104-24l82 83 69-69-78-78q31-49 31-109 0-61-31-108l78-78-69-69-82 82q-46-24-104-24t-104 24zm15 173q0-38 23.5-63t65.5-25 65.5 25 23.5 63-23.5 63-65.5 25-65.5-25-23.5-63z"/><glyph glyph-name="dollar.tf" horiz-adv-x="643" d="M369-130h-96v118Q155-1 65 49v143q112-74 251-74 65 0 96.5 14.5T444 183t-40 58.5-97 38T193 316t-97 66.5T56 497q0 87 60 136.5T273 692v118h96V691q99-11 170-51V500q-89 64-216 62-114-2-114-63 0-33 40-54t97-36.5T460 372t97-67 40-115Q597 3 369-13v-117z"/><glyph glyph-name="Euro.tf" horiz-adv-x="643" d="M281 227q31-53 89-80t125-27q62 0 113 21V6q-66-20-136-20-124 0-225 62T111 227H22v89h74v48H22v89h90q35 116 134 178.5T464 694q71 0 139-20V540q-55 21-112 21-64 0-121.5-28T282 453h230v-89H250q-1-8-1-24t1-24h262v-89H281z"/><glyph glyph-name="sterling.tf" horiz-adv-x="643" d="M601 0H46v122h26q32 0 50.5 24t18.5 61v72H65v112h76v62q0 122 70.5 181.5T399 694q85 0 161-37V535q-60 44-139 44-65 0-102.5-32T281 450v-59h194V279H281v-72q0-60-34-85h354V0z"/><glyph glyph-name="yen.tf" horiz-adv-x="643" d="M467 680h161L442 348h116v-96H396v-52h162v-96H396V0H247v104H86v96h161v52H86v96h115L15 680h161l146-294z"/></font>
</defs>
</svg>
