<svg xmlns="http://www.w3.org/2000/svg"><defs><font id="MullerLight" horiz-adv-x="582"><font-face font-family="Muller Light" font-weight="300" ascent="780" descent="-220" x-height="480" cap-height="700" bbox="-158 -234 1230 946" underline-thickness="50" underline-position="-225" unicode-range="U+0020-25CA"/><glyph glyph-name="f_f" unicode="ff" horiz-adv-x="678" d="M700 646q-46 23-105 23-119 0-119-113v-76h194v-53H476V0h-56v427H166V0h-56v427H23v53h87v55q0 78 50 120.5T288 698q82 0 155-45 41 68 139 68 66 0 118-22v-53zM166 480h253v78q0 24 5 49-59 38-134 38-56 0-90-28t-34-82v-55z"/><glyph glyph-name="f_f_i" unicode="ffi" horiz-adv-x="859" d="M166 0h-56v427H23v53h87v55q0 78 50.5 120.5T291 698q79 0 158-47 46 67 149 67 75 0 150-39v-57q-73 43-147 43-57 0-91-28.5T476 552v-72h302V0h-57v427H476V0h-56v427H166V0zm0 535v-55h253v72q0 28 8 54-60 39-133 39-59 0-93.5-28T166 535z"/><glyph glyph-name="f_f_l" unicode="ffl" horiz-adv-x="869" d="M731 689v4l57 15V0h-57v636q-61 29-130 29-57 0-91-29t-34-88v-68h169v-53H476V0h-56v427H166V0h-56v427H23v53h87v55q0 78 50.5 120.5T291 698q79 0 158-47 48 67 149 67 70 0 133-29zM419 480v68q0 32 9 58-60 39-134 39-59 0-93.5-28T166 535v-55h253z"/><glyph glyph-name=".notdef" horiz-adv-x="257"/><glyph glyph-name=".null" horiz-adv-x="0"/><glyph glyph-name="nonmarkingreturn" horiz-adv-x="333"/><glyph glyph-name="space" horiz-adv-x="257"/><glyph glyph-name="exclam" unicode="!" horiz-adv-x="216" d="M133 189H83l-5 511h59zm14-159q0-18-11-28T108-8 80 2 69 30t11 28 28 10 28-10 11-28z"/><glyph glyph-name="quotedbl" unicode="&quot;" horiz-adv-x="292" d="M220 540h-40v160h55zm-114 0H66v160h55z"/><glyph glyph-name="numbersign" unicode="#" horiz-adv-x="650" d="M140 0H83l42 179H39v50h98l53 223H89v50h113l42 179h57l-42-179h210l42 179h57l-42-179h85v-50h-97l-53-223h100v-50H449L407 0h-57l42 179H182zm107 452l-53-223h211l53 223H247z"/><glyph glyph-name="dollar" unicode="$" horiz-adv-x="573" d="M306-130h-50v120Q137-2 48 48v59q106-62 241-62 186 0 186 121 0 42-23.5 71.5t-61 45.5-82.5 29-90.5 27-83 33.5-61 55T50 513q0 80 58.5 125T256 690v120h50V691q109-7 185-49v-60q-86 53-203 53-79 0-128.5-29.5T110 515q0-40 23.5-67.5t61-43 82.5-28 90.5-27 83-34.5 61-57 23.5-88q0-91-64-135T306-11v-119z"/><glyph glyph-name="percent" unicode="%" horiz-adv-x="885" d="M267-60h-57l409 820h57zm81 620q0-70-45.5-110.5T192 409q-66 0-112 40.5T34 560t46 110.5T192 711q65 0 110.5-40.5T348 560zm-260 0q0-45 28.5-73t75.5-28q46 0 74 28t28 73-28 73-74 28q-47 0-75.5-28T88 560zm763-420q0-70-45.5-110.5T695-11q-66 0-112 40.5T537 140t46 110.5T695 291q65 0 110.5-40.5T851 140zm-260 0q0-45 28.5-73T695 39q46 0 74 28t28 73-28 73-74 28q-47 0-75.5-28T591 140z"/><glyph glyph-name="ampersand" unicode="&amp;" horiz-adv-x="695" d="M560 116L687 0h-72l-88 79q-97-90-245-90-107 0-168.5 49.5T52 165q0 112 156 203-92 90-92 170 0 72 59 122.5T325 711q80 0 130-40.5T505 565q0-34-17.5-65T438 444t-61.5-43-67.5-38l-12-6 221-202q54 72 52 166h59q0-115-69-205zM324 657q-68 0-109-35t-41-85q0-62 83-143 102 52 134 78 55 45 56 89 0 44-33 70t-90 26zM111 168q0-57 46-91t129-34q120 0 199 74L248 330q-61-35-99-73t-38-89z"/><glyph glyph-name="quotesingle" unicode="'" horiz-adv-x="178" d="M106 540H66v160h55z"/><glyph glyph-name="parenleft" unicode="(" horiz-adv-x="271" d="M194 809h56q-66-95-103-217.5T110 350t37-241.5T250-109h-56Q126-12 86.5 109.5T47 350t39.5 240.5T194 809z"/><glyph glyph-name="parenright" unicode=")" horiz-adv-x="272" d="M22 809h56q68-97 107.5-218.5T225 350t-39.5-240.5T78-109H22q65 95 102 217.5T161 350t-37 241.5T22 809z"/><glyph glyph-name="asterisk" unicode="*" horiz-adv-x="436" d="M218 510l-79-119-43 30 87 110-133 37 19 50 128-49-5 131h52l-6-131 129 49 18-50-132-37 87-110-43-30z"/><glyph glyph-name="plus" unicode="+" horiz-adv-x="533" d="M294 377h191v-54H294V131h-54v192H48v54h192v192h54V377z"/><glyph glyph-name="comma" unicode="," horiz-adv-x="215" d="M76-147H29L82 77h60z"/><glyph glyph-name="hyphen" unicode="-" horiz-adv-x="485" d="M67 273h351v-54H67v54z"/><glyph glyph-name="period" unicode="." horiz-adv-x="206" d="M143 31q0-18-11.5-28.5T103-8 74.5 2.5 63 31t11.5 28.5T103 70t28.5-10.5T143 31z"/><glyph glyph-name="slash" unicode="/" horiz-adv-x="414" d="M79-58H36l298 816h43z"/><glyph glyph-name="zero" unicode="0" horiz-adv-x="704" d="M55 340q0 159 75 255t222 96 222-96 75-255-75-255-222-96-222 96-75 255zm534 0q0 139-59.5 217T352 635t-177.5-78T115 340t59.5-217T352 45t177.5 78T589 340z"/><glyph glyph-name="one" unicode="1" horiz-adv-x="418" d="M219 680h43V57h133V0H54v57h149v559L54 560v57z"/><glyph glyph-name="two" unicode="2" horiz-adv-x="568" d="M70 627q95 64 212 64 102 0 164-46.5T508 516q0-41-15.5-76.5t-47.5-65-59-49-73-46.5q-99-59-128-82-73-61-74-141l403 1V0H46v30q0 57 17.5 102t53 78.5 67 55.5 79.5 49q3 1 4.5 2t4 2.5 4.5 2.5q38 22 53.5 32t44.5 31.5 41 37.5 22.5 41 10.5 53q0 56-45.5 87.5T278 636q-108 0-208-68v59z"/><glyph glyph-name="three" unicode="3" horiz-adv-x="586" d="M505 509q0-54-30.5-96.5T391 356q60-15 101-58t41-116q0-92-67.5-142.5T293-11Q152-11 56 33v59q97-48 232-47 86 0 137 35t51 105q0 72-50.5 105T292 323H191v57l95-1q79 0 120.5 35.5T448 504q0 59-46.5 95.5T273 636q-108 0-205-49v58q94 46 212 46 102 0 163.5-51.5T505 509z"/><glyph glyph-name="four" unicode="4" horiz-adv-x="641" d="M410 680h65V214h135v-55H475V0h-59v159H27v53zm6-466v386L101 214h315z"/><glyph glyph-name="five" unicode="5" horiz-adv-x="576" d="M97 680h399v-57H153l-15-234q66 20 137 20 69 0 124-19.5t92.5-68.5T529 199q0-96-70.5-153T275-11Q149-11 57 35v56q92-47 211-47 92 0 146.5 41T469 199q0 82-59.5 119T256 355q-88 0-181-32z"/><glyph glyph-name="six" unicode="6" horiz-adv-x="615" d="M115 333q104 85 229 85 93 0 161-55.5T573 207q0-102-68-160T335-11q-139 0-209 88.5T56 325q0 184 82.5 275T360 691q86 0 156-38v-56q-71 38-155 38-110 0-177-72.5T115 333zm2-61q10-112 65-170t149-58q80 0 131 40.5T513 205q0 81-51.5 119.5T330 363q-125 0-213-91z"/><glyph glyph-name="seven" unicode="7" horiz-adv-x="528" d="M31 680h477v-53L208 0h-64l298 623H31v57z"/><glyph glyph-name="eight" unicode="8" horiz-adv-x="645" d="M77 521q0 70 62 120t182 50q112 0 178.5-54T568 510q1-54-26-101t-77-79q127-56 127-161 0-75-68-127.5T325-11q-130 0-201 56T53 185q0 55 32 106t93 84Q77 427 77 521zm250-202q-61 17-98 31-56-25-86.5-68T112 191q0-67 55-107t159-40q93 0 150 35t57 87q0 27-11.5 49t-26 35.5-45 27-50 20T341 315q-9 3-14 4zm182 181q0 56-50 96t-139 40q-87 0-135-33t-48-82q0-27 11.5-48.5T174 438t41.5-25.5 45-18.5 50.5-15q9-3 14-4 12-4 42-12t46-13q96 54 96 150z"/><glyph glyph-name="nine" unicode="9" horiz-adv-x="614" d="M42 473q0 102 67.5 160T279 691q139 0 209.5-89T559 355q0-184-82.5-275T255-11q-88 0-156 38v56q71-38 154-38 110 0 177 72.5T499 347q-103-85-228-85-93 0-161 55.5T42 473zm60 2q0-81 51.5-119.5T285 317q124 0 212 90-10 112-65 170.5T283 636q-80 0-130.5-41T102 475z"/><glyph glyph-name="colon" unicode=":" horiz-adv-x="214" d="M147 397q0-19-11.5-29T107 358t-28.5 10T67 397q0 18 11.5 28.5T107 436t28.5-10.5T147 397zm0-366q0-18-11.5-28.5T107-8 78.5 2.5 67 31t11.5 28.5T107 70t28.5-10.5T147 31z"/><glyph glyph-name="semicolon" unicode=";" horiz-adv-x="282" d="M116-147H69l53 224h60zm65 583q0-19-11.5-29T141 397t-28.5 10-11.5 29q0 18 11.5 28.5T141 475t28.5-10.5T181 436z"/><glyph glyph-name="less" unicode="&lt;" horiz-adv-x="484" d="M412 221v-56L44 321v58l368 156v-56L102 350z"/><glyph glyph-name="equal" unicode="=" horiz-adv-x="549" d="M479 414H70v54h409v-54zm0-182H70v54h409v-54z"/><glyph glyph-name="greater" unicode="&gt;" horiz-adv-x="484" d="M440 321L72 165v56l310 129L72 479v56l368-156v-58z"/><glyph glyph-name="question" unicode="?" horiz-adv-x="490" d="M260 199h-57q0 44 29.5 91.5t65 82.5 65 80.5T392 541q0 57-45 85.5T222 655q-92 0-184-55v57q87 54 193 54 99 0 160-43t61-122q0-40-20-79.5t-48-72-56-63.5-48-65.5-20-66.5zm11-168q0-18-11.5-28.5T231-8 202.5 2.5 191 31t11.5 28.5T231 70t28.5-10.5T271 31z"/><glyph glyph-name="at" unicode="@" horiz-adv-x="1054" d="M47 240q0 92 33 176t93 150 154 105.5T535 711q110 0 201.5-40t148-104 87-139 30.5-149q0-132-52-201T813 9q-60 0-99 29.5T665 124q-23-43-66-68t-95-25q-84 0-139.5 58T309 237q0 91 55.5 149.5T504 445q52 0 93.5-25t61.5-62v78h56V164q0-105 99-105 61 0 94.5 59T942 279q0 66-27 131.5T839 531t-128.5 89.5T535 655q-132 0-231.5-59.5T155 443t-49-203q0-129 63-224.5t165-143T560-175q119 0 221 36v-56q-97-36-222-36-102 0-194 31t-163 89T89 38 47 240zm612 43q-14 46-53.5 78T510 393q-61 0-103-43t-42-112 42-112 103-43q56 0 95.5 32t53.5 78v90z"/><glyph glyph-name="A" unicode="A" horiz-adv-x="713" d="M75 0H11l312 700h67L701 0h-64l-83 188H159zm272 617L182 244h348L365 617q-3 8-9 22-6-14-9-22z"/><glyph glyph-name="B" unicode="B" horiz-adv-x="684" d="M97 700h272q110 0 173.5-44.5T606 524q0-65-36.5-104.5T480 368q62-13 107.5-55T634 190q0-46-18-81.5T571.5 53 508 20.5 439 4t-68-4H97v700zm477-504q0 140-185 140H157V57h203q35 0 60 2t56 10 51 22 33.5 41 13.5 64zm-28 320q0 127-181 127H157V392h237q65 0 108.5 30.5T546 516z"/><glyph glyph-name="C" unicode="C" horiz-adv-x="656" d="M50 343q0 88 31.5 160T165 619.5t116 68T414 711q110 0 196-47v-60q-79 51-187 51-59 0-113.5-19.5t-100-56.5-72.5-98-27-138q0-73 27.5-131.5t73-94 101-54T426 45q112 0 191 51V37q-88-48-203-48-67 0-131 23T166.5 77.5 82 189 50 343z"/><glyph glyph-name="D" unicode="D" horiz-adv-x="735" d="M97 700h217q181 0 276-96t95-254-95-254T314 0H97v700zm529-350q0 136-79.5 214.5T315 643H157V57h158q152 0 231.5 78.5T626 350z"/><glyph glyph-name="E" unicode="E" horiz-adv-x="621" d="M97 700h465v-57H156V381h376v-57H156V57h413V0H97v700z"/><glyph glyph-name="F" unicode="F" horiz-adv-x="600" d="M97 700h467v-57H156V370h379v-57H156V0H97v700z"/><glyph glyph-name="G" unicode="G" horiz-adv-x="707" d="M49 350q0 89 31.5 159.5T165 623t118 65.5T419 711q115 0 207-46v-60q-83 50-199 50-61 0-116-18t-101-53-73.5-95.5T109 350q0-80 27.5-141t74.5-95.5T313.5 62 431 45q84 0 153 32v292h60V36Q544-11 427-11q-74 0-139.5 20.5T167.5 71 81 184 49 350z"/><glyph glyph-name="H" unicode="H" horiz-adv-x="766" d="M610 700h59V0h-59v323H156V0H97v700h59V380h454v320z"/><glyph glyph-name="I" unicode="I" horiz-adv-x="253" d="M97 700h59V0H97v700z"/><glyph glyph-name="J" unicode="J" horiz-adv-x="516" d="M150 700h275V192q0-101-61-151.5T203-10Q92-10 23 33v59q67-45 170-45 173 0 173 147v449H150v57z"/><glyph glyph-name="K" unicode="K" horiz-adv-x="660" d="M156 0H97v700h59V386h183l226 314h68L388 359 657 0h-69L341 330H156V0z"/><glyph glyph-name="L" unicode="L" horiz-adv-x="577" d="M97 700h59V57h405V0H97v700z"/><glyph glyph-name="M" unicode="M" horiz-adv-x="901" d="M754 700h50V0h-59v586L469 178h-37L156 586V0H97v700h50l304-449z"/><glyph glyph-name="N" unicode="N" horiz-adv-x="766" d="M156 0H97v700h54l459-599v599h59V0h-54L156 600V0z"/><glyph glyph-name="O" unicode="O" horiz-adv-x="824" d="M48 350q0 68 23 131.5T138 597t115 83 159 31 159-31 115-83 67-115.5T776 350t-23-131.5T686 103 571 20 412-11 253 20t-115 83-67 115.5T48 350zm668 0q0 79-32 146.5t-103 113T412 655t-169-45.5-103-113T108 350t32-146.5 103-113T412 45t169 45.5 103 113T716 350z"/><glyph glyph-name="P" unicode="P" horiz-adv-x="656" d="M97 700h230q295 0 295-222 0-223-295-223H156V0H97v700zm465-222q0 92-62.5 128.5T330 643H157V312h173q232 0 232 166z"/><glyph glyph-name="Q" unicode="Q" horiz-adv-x="824" d="M777-22l-39-38L627 51q-91-62-215-62-88 0-159 31t-115 83-67 115.5T48 350t23 131.5T138 597t115 83 159 31 159-31 115-83 67-115.5T776 350q0-161-107-265zM108 350q0-79 32-146.5t103-113T412 45q97 0 173 48L446 232l38 38 143-143q89 86 89 223 0 79-32 146.5t-103 113T412 655t-169-45.5-103-113T108 350z"/><glyph glyph-name="R" unicode="R" horiz-adv-x="690" d="M156 0H97v700h269q49 0 92-11t81-34 60.5-65 22.5-98q0-93-58-143t-144-61L669 0h-74L351 283H156V0zm1 643V340h213q80 0 136 36t56 116-55.5 115.5T370 643H157z"/><glyph glyph-name="S" unicode="S" horiz-adv-x="577" d="M54 533q0 86 67 132t164 46q121 0 206-49v-60q-84 53-202 53-77 0-126-29.5T114 535q0-40 23.5-68.5t61-46 83-32 91-31 83-38.5 61-60 23.5-89q0-63-36-105T414 5.5 292-11Q160-11 53 48v59q106-62 235-62 85 0 138.5 29t53.5 92q0 42-23.5 72.5t-61 48.5-83 33-91 31.5-83 37.5-61 57.5T54 533z"/><glyph glyph-name="T" unicode="T" horiz-adv-x="599" d="M14 700h571v-57H329V0h-59v643H14v57z"/><glyph glyph-name="U" unicode="U" horiz-adv-x="751" d="M603 700h59V250q0-137-79-199T376-11q-61 0-111 14t-90.5 43-63 81T89 250v450h59V252q0-207 228-207 227 0 227 207v448z"/><glyph glyph-name="V" unicode="V" horiz-adv-x="685" d="M373 0h-61L15 700h64L342 67l264 633h64z"/><glyph glyph-name="W" unicode="W" horiz-adv-x="998" d="M914 700h65L757 0h-66L499 598 306 0h-65L19 700h65L274 74l198 623h54L724 74z"/><glyph glyph-name="X" unicode="X" horiz-adv-x="629" d="M77 0H6l273 360L21 700h71l223-293 223 293h70L350 360 623 0h-70L315 313z"/><glyph glyph-name="Y" unicode="Y" horiz-adv-x="644" d="M352 0h-60v273L17 700h66l239-373 239 373h66L352 273V0z"/><glyph glyph-name="Z" unicode="Z" horiz-adv-x="580" d="M548 0H31v53l433 590H45v57h491v-53L102 57h446V0z"/><glyph glyph-name="bracketleft" unicode="[" horiz-adv-x="264" d="M240-110H73v920h167v-57H132V-53h108v-57z"/><glyph glyph-name="backslash" unicode="\" horiz-adv-x="414" d="M378-58h-43L37 758h43z"/><glyph glyph-name="bracketright" unicode="]" horiz-adv-x="265" d="M192-110H25v57h107v806H25v57h167v-920z"/><glyph glyph-name="asciicircum" unicode="^" horiz-adv-x="515" d="M115 390H51l182 310h50l181-310h-63L258 637z"/><glyph glyph-name="underscore" unicode="_" horiz-adv-x="443" d="M443-140H0v54h443v-54z"/><glyph glyph-name="grave" unicode="`" horiz-adv-x="177" d="M161 773H98L0 915h71z"/><glyph glyph-name="a" unicode="a" horiz-adv-x="542" d="M455 87q0-42 43-42 16 0 37 7V6Q508-4 483-4q-76 0-83 74-75-81-197-81-69 0-118 36.5T36 131q0 82 62 119.5T248 288q77 0 151-21v32q0 64-40 102t-113 38q-92 0-172-34v56q85 30 178 30 96 0 149.5-52T455 292V87zM94 134q0-47 35-71.5T214 38q55 0 104 24.5t81 69.5v88q-76 20-143 20-68 0-115-25.5T94 134z"/><glyph glyph-name="b" unicode="b" horiz-adv-x="618" d="M78 700h57V387q30 45 81 74.5T334 491q103 0 171-70.5T573 240 505 59.5 334-11Q205-11 129 99V0H78v700zm438-460q0 91-53.5 145T327 439q-67 0-119-38.5T134 305V175q22-57 74-95.5T327 41q81 0 135 54.5T516 240z"/><glyph glyph-name="c" unicode="c" horiz-adv-x="494" d="M45 237q0 84 39.5 143.5t96.5 85T304 491q88 0 145-39v-55q-56 42-138 42-86 0-147.5-51T102 238q0-95 59.5-146T305 41q83 0 149 39V23q-68-34-157-34-102 0-177 64T45 237z"/><glyph glyph-name="d" unicode="d" horiz-adv-x="618" d="M484 700h56V0h-51v99Q415-11 284-11q-103 0-171 70.5T45 240t68 180.5T284 491q68 0 119-29.5t81-74.5v313zm0-395q-22 57-74 95.5T291 439q-82 0-135.5-54T102 240q0-90 54-144.5T291 41q67 0 119 38.5t74 95.5v130z"/><glyph glyph-name="e" unicode="e" horiz-adv-x="548" d="M45 240q0 117 71.5 184T282 491q53 0 95-16.5t67.5-44.5 42.5-64 18.5-74.5T501 214H102q5-86 66-129.5T317 41q90 0 157 39V24q-65-35-165-35-113 0-188.5 64T45 240zm406 24q7 63-33.5 119T286 439q-74 0-127-46.5T102 264h349z"/><glyph glyph-name="f" unicode="f" horiz-adv-x="368" d="M166 0h-56v427H23v53h87v68q0 86 46.5 124.5T272 711q66 0 118-22v-53q-46 23-105 23-119 0-119-113v-66h194v-53H166V0z"/><glyph glyph-name="g" unicode="g" horiz-adv-x="618" d="M45 240q0 110 68 180.5T284 491q131 0 205-110v99h51V0q0-115-74.5-173T283-231q-104 0-192 45v55q88-48 185-48 90 0 149 43.5T484 0v95q-29-47-80.5-76.5T284-11q-103 0-171 70.5T45 240zm439 65q-22 57-74 95.5T291 439q-82 0-135.5-54T102 240q0-90 54-144.5T291 41q67 0 119 36.5t74 90.5v137z"/><glyph glyph-name="h" unicode="h" d="M78 700h57V400q29 37 76 64t104 27q85 0 140-53.5T510 296V0h-57v289q0 72-40 111t-104 39q-57 0-101.5-32T135 329V0H78v700z"/><glyph glyph-name="i" unicode="i" horiz-adv-x="219" d="M138 0H81v480h57V0zm9 626q0-18-11-28t-27-10q-17 0-28 9.5T70 626q0 17 11.5 27.5T109 664t27-10.5 11-27.5z"/><glyph glyph-name="j" unicode="j" horiz-adv-x="218" d="M137-100q0-71-37-101T8-231q-41 0-71 12v53q23-11 57-11 87 0 87 85v572h56v-580zm10 726q0-19-11-28.5t-28-9.5q-16 0-27.5 10T69 626q0 17 11.5 27.5T108 664t27.5-10.5T147 626z"/><glyph glyph-name="k" unicode="k" horiz-adv-x="509" d="M505 0h-67L243 219H135V0H78v700h57V272h111l168 208h66L291 244z"/><glyph glyph-name="l" unicode="l" horiz-adv-x="219" d="M81 730h57V0H81v730z"/><glyph glyph-name="m" unicode="m" horiz-adv-x="891" d="M135 0H78v480h51v-80q27 35 72 63t103 28q55 0 95.5-24.5T460 398q81 93 182 93 82 0 129.5-52.5T819 303V0h-56v304q0 60-34.5 97.5T636 439q-91 0-157-93 3-21 3-43V0h-57v304q0 60-34.5 97.5T298 439q-95 0-163-102V0z"/><glyph glyph-name="n" unicode="n" d="M129 394q28 39 77 68t109 29q85 0 140-53.5T510 296V0h-57v289q0 72-40 111t-104 39q-57 0-101.5-32T135 329V0H78v480h51v-86z"/><glyph glyph-name="o" unicode="o" horiz-adv-x="595" d="M45 240q0 116 74.5 183.5T297 491q104 0 178.5-67.5T550 240 475.5 56.5 297-11q-103 0-177.5 67.5T45 240zm448 0q0 91-56 144t-139 53-139.5-53T102 240t56.5-144T298 43t139 53 56 144z"/><glyph glyph-name="p" unicode="p" horiz-adv-x="618" d="M129 381q76 110 205 110 103 0 171-70.5T573 240 505 59.5 334-11q-67 0-118 29.5T135 93v-313H78v700h51v-99zm387-141q0 90-54 144.5T327 439q-67 0-119-38.5T134 305V175q22-57 74-95.5T327 41q82 0 135.5 54T516 240z"/><glyph glyph-name="q" unicode="q" horiz-adv-x="618" d="M45 240q0 110 68 180.5T284 491q131 0 205-110v99h51v-700h-56V93q-30-45-81-74.5T284-11q-103 0-171 70.5T45 240zm439 65q-22 57-74 95.5T291 439q-81 0-135-54.5T102 240q0-91 53.5-145T291 41q67 0 119 38.5t74 95.5v130z"/><glyph glyph-name="r" unicode="r" horiz-adv-x="354" d="M129 369q27 55 85 90t127 31v-57q-76 6-131-34.5T135 293V0H78v480h51V369z"/><glyph glyph-name="s" unicode="s" horiz-adv-x="461" d="M50 360q0 66 52 98.5T226 491q94 0 167-41v-54q-69 44-163 44-51 0-87-19.5T107 361q0-34 32.5-56t79.5-34.5 93.5-27 79-45.5 32.5-79q0-67-54-98.5T234-11Q120-11 49 36v56q76-51 182-51 136 0 136 76 0 34-32.5 55.5t-79.5 34-93.5 27.5-79 46.5T50 360z"/><glyph glyph-name="t" unicode="t" horiz-adv-x="393" d="M106 633l56 15V480h201v-53H162V149q0-56 27-81t84-25q54 0 105 22V13q-53-23-120-23-71 0-111.5 38T106 139v288H16v53h90v153z"/><glyph glyph-name="u" unicode="u" d="M447 480h57V0h-52v86q-28-39-76.5-68T266-11q-88 0-141 53T72 184v296h57V191q0-73 38-111.5T272 41q58 0 102.5 32t72.5 78v329z"/><glyph glyph-name="v" unicode="v" horiz-adv-x="530" d="M449 480h63L295 0h-60L17 480h63L265 64z"/><glyph glyph-name="w" unicode="w" horiz-adv-x="801" d="M718 480h60L605 0h-61L400 400 256 0h-60L23 480h60L226 64l148 413h52L574 64z"/><glyph glyph-name="x" unicode="x" horiz-adv-x="488" d="M397 480h66L277 247 473 0h-66L244 206 81 0H15l197 247L25 480h66l153-193z"/><glyph glyph-name="y" unicode="y" horiz-adv-x="536" d="M278 63l179 417h60L274-79q-67-152-172-152-24 0-51 6v50q22-6 44-6 42 0 73.5 30T226-58l24 56L14 480h60z"/><glyph glyph-name="z" unicode="z" horiz-adv-x="456" d="M47 480h360v-50L102 50h321V0H34v50l306 380H47v50z"/><glyph glyph-name="braceleft" unicode="{" horiz-adv-x="289" d="M249-60v-50q-67-13-101 15.5T114-5v241q0 46-26 69t-59 20v50q32-3 58.5 20t26.5 69v241q0 61 34 90t101 15v-50q-42 6-59-13.5T173 682V460q0-48-18-76t-45-34q27-6 45-34t18-76V18q0-45 17-64.5T249-60z"/><glyph glyph-name="bar" unicode="|" horiz-adv-x="205" d="M132-100H73v910h59v-910z"/><glyph glyph-name="braceright" unicode="}" horiz-adv-x="289" d="M175-5q0-61-34-89.5T40-110v50q42-6 58.5 13T115 18v222q0 48 18 76t46 34q-28 6-46 34t-18 76v222q0 46-16.5 65T40 760v50q67 14 101-15t34-90V464q0-46 26.5-69t58.5-20v-50q-33 3-59-20t-26-69V-5z"/><glyph glyph-name="asciitilde" unicode="~" horiz-adv-x="585" d="M515 375q2-47-24.5-75T418 272q-36 0-121.5 31T176 334q-23 0-36-13t-12-36H74q-1 47 25.5 74.5T170 387q38 0 122-30.5T413 326q49 0 48 49h54z"/><glyph glyph-name="exclamdown" unicode="¡" horiz-adv-x="202" d="M130-217H71l5 511h50zm10 670q0-18-11-28t-28-10-28 10-11 28 11 28 28 10 28-10 11-28z"/><glyph glyph-name="cent" unicode="¢" horiz-adv-x="509" d="M328 42q73 5 129 38V23Q400-5 328-10v-110h-50v110q-96 7-163 70.5T48 237q0 114 67 179t163 74v110h50V490q73-3 124-38v-55q-49 37-124 42V42zm-50 395q-74-11-123.5-61T105 238q0-87 49-136.5T278 43v394z"/><glyph glyph-name="sterling" unicode="£" horiz-adv-x="603" d="M561 0H38v57h35q34 0 53.5 24t19.5 65v163H63v55h83v97q0 115 65 172.5T371 691q81 0 146-38v-57q-64 40-139 40-74 0-123-43.5T206 460v-96h236v-55H206V146q0-68-36-89h391V0z"/><glyph glyph-name="currency" unicode="¤" horiz-adv-x="576" d="M174 194l-64-64-40 40 62 62q-41 49-41 118t41 118l-62 62 40 40 64-64q50 33 114 33 63 0 115-33l64 64 40-40-63-62q41-49 41-118t-41-118l63-62-40-40-64 64q-52-33-115-33-64 0-114 33zm-27 156q0-62 39.5-99T287 214t101 37 40 99-40 99-101 37-100.5-37-39.5-99z"/><glyph glyph-name="yen" unicode="¥" horiz-adv-x="651" d="M552 680h65L383 317h149v-50H355v-74h177v-50H355V0h-60v143H119v50h176v74H119v50h148L33 680h65l227-353z"/><glyph glyph-name="brokenbar" unicode="¦" horiz-adv-x="223" d="M141 459H82v351h59V459zm0-559H82v351h59v-351z"/><glyph glyph-name="section" unicode="§" horiz-adv-x="492" d="M429 94q0-64-53.5-96T241-34Q138-34 68 12v53q33-23 81-36t90-13q133 0 133 77 0 15-4.5 27t-17 22-21 16-32 14-33 11-38.5 12q-32 9-50 15t-43.5 18T93 253.5 68.5 289 58 338q0 76 90 131-80 38-80 112 0 64 51.5 97T246 711q88 0 158-40v-53q-69 43-155 43-52 0-88-20.5T125 582q0-17 8.5-31t18.5-23 33-18.5 36.5-13.5 44.5-13q3-1 5-1.5t4.5-1 4.5-1.5q39-11 61-19.5t49-24.5 40-40.5 13-57.5q0-74-94-130 80-38 80-113zM243 245q9-3 27.5-8t27.5-8q37 14 63 41t26 59q0 18-7 32.5t-17 24-29 18-33 13.5-39 12q-50 15-62 19-36-13-61.5-41.5T113 346q0-42 32.5-62.5T243 245z"/><glyph glyph-name="dieresis" unicode="¨" horiz-adv-x="291" d="M288 836q0-17-12-29t-29-12-29.5 12-12.5 29 12.5 29.5T247 878t29-12.5 12-29.5zm-201 0q0-17-12-29t-29-12-29.5 12T4 836t12.5 29.5T46 878t29-12.5T87 836z"/><glyph glyph-name="copyright" unicode="©" horiz-adv-x="851" d="M800 350q0-86-33.5-157t-88-114T559 12.5 426-11 292.5 12.5 172.5 79t-88 114T51 350t33.5 157 88 114 120 66.5T426 711t133-23.5T678.5 621t88-114T800 350zM573 183q-62-34-134-34-79 0-139 50t-60 143q0 102 63 155.5T450 551q70 0 123-34v-44q-51 34-115 34-70 0-119.5-40T289 344q0-77 46.5-114T450 193q65 0 123 33v-43zM75 350q0-107 53.5-186T260 48.5 426 12q64 0 125.5 21.5t112 62.5T745 203t31 147-31 147-81.5 107-112 62.5T426 688q-88 0-166-36.5T128.5 536 75 350z"/><glyph glyph-name="guillemotleft" unicode="«" horiz-adv-x="462" d="M402 63h-61L220 234v12l121 171h61L277 240zm-172 0h-61L48 234v12l121 171h61L105 240z"/><glyph glyph-name="logicalnot" unicode="¬" horiz-adv-x="579" d="M503 284h-56v142H66v54h437V284z"/><glyph glyph-name="registered" unicode="®" horiz-adv-x="851" d="M800 350q0-86-33.5-157t-88-114T559 12.5 426-11 292.5 12.5 172.5 79t-88 114T51 350t33.5 157 88 114 120 66.5T426 711t133-23.5T678.5 621t88-114T800 350zm-725 0q0-107 53.5-186T260 48.5 426 12q64 0 125.5 21.5t112 62.5T745 203t31 147-31 147-81.5 107-112 62.5T426 688q-88 0-166-36.5T128.5 536 75 350zm257-198h-43v394h161q25 0 48.5-5.5t47-18 38-38T598 423q0-89-89-112l113-159h-50L465 305q-7-1-21-1H332V152zm0 352V346h114q21 0 35.5 2t33.5 8.5 29.5 23.5 10.5 43q0 81-109 81H332z"/><glyph glyph-name="macron" unicode="¯" horiz-adv-x="333" d="M27 847h280v-52H27v52z"/><glyph glyph-name="degree" unicode="°" horiz-adv-x="393" d="M347 568q0-67-44-107t-106-40-106.5 40T46 568q0 66 44.5 106.5T197 715t106-40 44-107zm-258 0q0-48 31-76.5t77-28.5 76.5 28.5T304 568q0 47-30.5 75.5T197 672t-77-28-31-76z"/><glyph glyph-name="plusminus" unicode="±" horiz-adv-x="576" d="M316 591V400h191v-54H316V154h-54v192H70v54h192v191h54zM507 0H70v54h437V0z"/><glyph glyph-name="acute" unicode="´" horiz-adv-x="177" d="M89 773H27l90 142h71z"/><glyph glyph-name="paragraph" unicode="¶" horiz-adv-x="618" d="M313-220h-60v507q-102 0-160.5 54.5T34 493t58.5 152T253 700h282v-920h-60v863H313v-863z"/><glyph glyph-name="periodcentered" unicode="·" horiz-adv-x="213" d="M147 239q0-18-11.5-28.5T107 200t-28.5 10.5T67 239t11.5 28.5T107 278t28.5-10.5T147 239z"/><glyph glyph-name="cedilla" unicode="¸" horiz-adv-x="213" d="M80 0h50l-19-74q48 6 80-12.5t33-56.5q1-42-32.5-65T99-231q-53 0-98 20v49q41-23 92-23 40 0 61 12t20 32q0 25-39 33t-81-3z"/><glyph glyph-name="guillemotright" unicode="»" horiz-adv-x="461" d="M292 63h-61l125 177-125 177h61l121-171v-12zm-171 0H60l125 177L60 417h61l121-171v-12z"/><glyph glyph-name="onequarter" unicode="¼" horiz-adv-x="919" d="M753 408h54V137h77V91h-77V0h-49v91H530v44zm6-271v204L592 137h167zM217-12h-28l457 723h28zm-58 692h37V319h74v-47H54v47h93v308l-87-32v47z"/><glyph glyph-name="onehalf" unicode="½" horiz-adv-x="876" d="M213-12h-28l457 723h28zm347 388q57 39 131 39 63 0 101-28.5t38-80.5q0-46-30.5-78.5T715 163q-4-2-18.5-11t-19-11.5-17-10.5-16.5-12-13.5-11.5-13-13T609 80t-7-16-2-17h233V0H546v24q0 44 22.5 79.5t42.5 50 63 39.5q5 3 8 5 62 38 78 56 20 24 20 53 0 62-93 62-65 0-127-43v50zM155 680h37V319h74v-47H50v47h93v308l-87-32v47z"/><glyph glyph-name="threequarters" unicode="¾" horiz-adv-x="972" d="M287-12h-28l457 723h28zm519 420h54V137h77V91h-77V0h-49v91H583v44zm6-271v204L645 137h167zM330 580q0-31-17-56t-44-34q77-24 77-103 0-57-42-87.5T197 269q-82 0-142 27v49q56-30 138-30 105 0 105 75 0 73-99 73h-63v47h57q43 0 66 18t23 48q0 32-25.5 50.5T185 645q-64 0-123-31v49q58 28 129 28 63 0 101-30.5t38-80.5z"/><glyph glyph-name="questiondown" unicode="¿" horiz-adv-x="480" d="M447-173q-90-55-193-55-98 0-159.5 43.5T33-62q0 39 20 79t48 72 56 63.5 48 65.5 20 66h57q0-36-19.5-73T215 142.5 159.5 80t-47-67T93-57q0-57 45-85.5T263-171q92 0 184 54v-56zM293 452q0-17-11.5-27.5T253 414t-28.5 10.5T213 452q0 19 11.5 29t28.5 10 28.5-10 11.5-29z"/><glyph glyph-name="Agrave" unicode="À" horiz-adv-x="713" d="M75 0H11l312 700h67L701 0h-64l-83 188H159zm272 617L182 244h348L365 617q-3 8-9 22-6-14-9-22zm61 156h-63l-98 142h71z"/><glyph glyph-name="Aacute" unicode="Á" horiz-adv-x="713" d="M75 0H11l312 700h67L701 0h-64l-83 188H159zm272 617L182 244h348L365 617q-3 8-9 22-6-14-9-22zm16 156h-62l90 142h71z"/><glyph glyph-name="Acircumflex" unicode="Â" horiz-adv-x="713" d="M75 0H11l312 700h67L701 0h-64l-83 188H159zm272 617L182 244h348L365 617q-3 8-9 22-6-14-9-22zm-15 294h51l130-137h-65l-90 94-90-94h-65z"/><glyph glyph-name="Atilde" unicode="Ã" horiz-adv-x="713" d="M75 0H11l312 700h67L701 0h-64l-83 188H159zm272 617L182 244h348L365 617q-3 8-9 22-6-14-9-22zm164 249q6-43-15-67.5T439 774q-32 0-86 24t-70 24q-18 0-26.5-12t-6.5-31h-50q-6 42 15 67.5t55 25.5q31 0 86-24t71-24q37 0 34 42h50z"/><glyph glyph-name="Adieresis" unicode="Ä" horiz-adv-x="713" d="M75 0H11l312 700h67L701 0h-64l-83 188H159zm272 617L182 244h348L365 617q-3 8-9 22-6-14-9-22zm149 219q0-17-12-29t-29-12-29.5 12-12.5 29 12.5 29.5T455 878t29-12.5 12-29.5zm-201 0q0-17-12-29t-29-12-29.5 12-12.5 29 12.5 29.5T254 878t29-12.5 12-29.5z"/><glyph glyph-name="Aring" unicode="Å" horiz-adv-x="713" d="M75 0H11l312 700h67L701 0h-64l-83 188H159zm272 617L182 244h348L365 617q-3 8-9 22-6-14-9-22zm109 232q0-44-30-71.5T354 750t-72.5 27.5T251 849q0 43 30.5 70t72.5 27q41 0 71.5-27t30.5-70zm-161-1q0-27 17.5-42.5T354 790t41.5 15.5T413 848q0 26-17.5 42T354 906t-41.5-16-17.5-42z"/><glyph glyph-name="AE" unicode="Æ" horiz-adv-x="992" d="M558 324V57h382V0H499v190H186L52 0h-66l489 700h459v-57H558V381h346v-57H558zm-337-80h278v394z"/><glyph glyph-name="Ccedilla" unicode="Ç" horiz-adv-x="656" d="M617 96V37Q539-5 439-11l-16-63q48 6 79.5-12.5T535-143q1-42-32.5-65T410-231q-53 0-98 20v49q41-23 92-23 40 0 61 12t21 32q-1 25-40 33t-80-3l23 101q-65 4-124.5 28.5T156.5 86 79 195.5 50 343q0 88 31.5 160T165 619.5t116 68T414 711q110 0 196-47v-60q-79 51-187 51-59 0-113.5-19.5t-100-56.5-72.5-98-27-138q0-73 27.5-131.5t73-94 101-54T426 45q112 0 191 51z"/><glyph glyph-name="Egrave" unicode="È" horiz-adv-x="621" d="M97 700h465v-57H156V381h376v-57H156V57h413V0H97v700zm290 73h-63l-98 142h71z"/><glyph glyph-name="Eacute" unicode="É" horiz-adv-x="621" d="M97 700h465v-57H156V381h376v-57H156V57h413V0H97v700zm245 73h-62l90 142h71z"/><glyph glyph-name="Ecircumflex" unicode="Ê" horiz-adv-x="621" d="M97 700h465v-57H156V381h376v-57H156V57h413V0H97v700zm214 211h51l130-137h-65l-90 94-90-94h-65z"/><glyph glyph-name="Edieresis" unicode="Ë" horiz-adv-x="621" d="M97 700h465v-57H156V381h376v-57H156V57h413V0H97v700zm378 136q0-17-12-29t-29-12-29.5 12-12.5 29 12.5 29.5T434 878t29-12.5 12-29.5zm-201 0q0-17-12-29t-29-12-29.5 12-12.5 29 12.5 29.5T233 878t29-12.5 12-29.5z"/><glyph glyph-name="Igrave" unicode="Ì" horiz-adv-x="253" d="M97 700h59V0H97v700zm84 73h-63L20 915h71z"/><glyph glyph-name="Iacute" unicode="Í" horiz-adv-x="253" d="M97 700h59V0H97v700zm39 73H74l90 142h71z"/><glyph glyph-name="Icircumflex" unicode="Î" horiz-adv-x="253" d="M97 700h59V0H97v700zm8 211h51l130-137h-65l-90 94-90-94h-65z"/><glyph glyph-name="Idieresis" unicode="Ï" horiz-adv-x="253" d="M97 700h59V0H97v700zm172 136q0-17-12-29t-29-12-29.5 12-12.5 29 12.5 29.5T228 878t29-12.5 12-29.5zm-201 0q0-17-12-29t-29-12-29.5 12-12.5 29 12.5 29.5T27 878t29-12.5T68 836z"/><glyph glyph-name="Eth" unicode="Ð" horiz-adv-x="738" d="M100 700h217q181 0 276-96t95-254-95-254T317 0H100v322H19v54h81v324zm60-643h158q152 0 231.5 78.5T629 350t-79.5 214.5T318 643H160V376h224v-54H160V57z"/><glyph glyph-name="Ntilde" unicode="Ñ" horiz-adv-x="766" d="M156 0H97v700h54l459-599v599h59V0h-54L156 600V0zm384 866q6-43-15-67.5T468 774q-32 0-86 24t-70 24q-18 0-26.5-12t-6.5-31h-50q-6 42 15 67.5t55 25.5q31 0 86-24t71-24q37 0 34 42h50z"/><glyph glyph-name="Ograve" unicode="Ò" horiz-adv-x="824" d="M48 350q0 68 23 131.5T138 597t115 83 159 31 159-31 115-83 67-115.5T776 350t-23-131.5T686 103 571 20 412-11 253 20t-115 83-67 115.5T48 350zm668 0q0 79-32 146.5t-103 113T412 655t-169-45.5-103-113T108 350t32-146.5 103-113T412 45t169 45.5 103 113T716 350zM465 773h-63l-98 142h71z"/><glyph glyph-name="Oacute" unicode="Ó" horiz-adv-x="824" d="M48 350q0 68 23 131.5T138 597t115 83 159 31 159-31 115-83 67-115.5T776 350t-23-131.5T686 103 571 20 412-11 253 20t-115 83-67 115.5T48 350zm668 0q0 79-32 146.5t-103 113T412 655t-169-45.5-103-113T108 350t32-146.5 103-113T412 45t169 45.5 103 113T716 350zM420 773h-62l90 142h71z"/><glyph glyph-name="Ocircumflex" unicode="Ô" horiz-adv-x="824" d="M48 350q0 68 23 131.5T138 597t115 83 159 31 159-31 115-83 67-115.5T776 350t-23-131.5T686 103 571 20 412-11 253 20t-115 83-67 115.5T48 350zm668 0q0 79-32 146.5t-103 113T412 655t-169-45.5-103-113T108 350t32-146.5 103-113T412 45t169 45.5 103 113T716 350zM389 911h51l130-137h-65l-90 94-90-94h-65z"/><glyph glyph-name="Otilde" unicode="Õ" horiz-adv-x="824" d="M48 350q0 68 23 131.5T138 597t115 83 159 31 159-31 115-83 67-115.5T776 350t-23-131.5T686 103 571 20 412-11 253 20t-115 83-67 115.5T48 350zm668 0q0 79-32 146.5t-103 113T412 655t-169-45.5-103-113T108 350t32-146.5 103-113T412 45t169 45.5 103 113T716 350zM568 866q6-43-15-67.5T496 774q-32 0-86 24t-70 24q-18 0-26.5-12t-6.5-31h-50q-6 42 15 67.5t55 25.5q31 0 86-24t71-24q37 0 34 42h50z"/><glyph glyph-name="Odieresis" unicode="Ö" horiz-adv-x="824" d="M48 350q0 68 23 131.5T138 597t115 83 159 31 159-31 115-83 67-115.5T776 350t-23-131.5T686 103 571 20 412-11 253 20t-115 83-67 115.5T48 350zm668 0q0 79-32 146.5t-103 113T412 655t-169-45.5-103-113T108 350t32-146.5 103-113T412 45t169 45.5 103 113T716 350zM553 836q0-17-12-29t-29-12-29.5 12-12.5 29 12.5 29.5T512 878t29-12.5 12-29.5zm-201 0q0-17-12-29t-29-12-29.5 12-12.5 29 12.5 29.5T311 878t29-12.5 12-29.5z"/><glyph glyph-name="multiply" unicode="×" horiz-adv-x="458" d="M229 315L98 184l-36 37 130 130L62 481l36 37 131-130 130 130 37-37-131-130 131-130-37-37z"/><glyph glyph-name="Oslash" unicode="Ø" horiz-adv-x="824" d="M732 748l-84-115q62-51 95-126.5T776 350q0-68-23-131.5T686 103 571 20 412-11q-111 0-195 50l-64-87H96l82 114q-63 50-96.5 126T48 350q0 68 23 131.5T138 597t115 83 159 31q114 0 198-51l65 88h57zm-320-93q-98 0-169-45.5t-103-113T108 350q0-69 26.5-132T213 113l363 499q-70 43-164 43zM251 86q71-41 161-41 98 0 169 45.5t103 113T716 350q0 68-26 130.5T614 586z"/><glyph glyph-name="Ugrave" unicode="Ù" horiz-adv-x="751" d="M603 700h59V250q0-137-79-199T376-11q-61 0-111 14t-90.5 43-63 81T89 250v450h59V252q0-207 228-207 227 0 227 207v448zm-175 73h-63l-98 142h71z"/><glyph glyph-name="Uacute" unicode="Ú" horiz-adv-x="751" d="M603 700h59V250q0-137-79-199T376-11q-61 0-111 14t-90.5 43-63 81T89 250v450h59V252q0-207 228-207 227 0 227 207v448zm-220 73h-62l90 142h71z"/><glyph glyph-name="Ucircumflex" unicode="Û" horiz-adv-x="751" d="M603 700h59V250q0-137-79-199T376-11q-61 0-111 14t-90.5 43-63 81T89 250v450h59V252q0-207 228-207 227 0 227 207v448zM352 911h51l130-137h-65l-90 94-90-94h-65z"/><glyph glyph-name="Udieresis" unicode="Ü" horiz-adv-x="751" d="M603 700h59V250q0-137-79-199T376-11q-61 0-111 14t-90.5 43-63 81T89 250v450h59V252q0-207 228-207 227 0 227 207v448zm-87 136q0-17-12-29t-29-12-29.5 12-12.5 29 12.5 29.5T475 878t29-12.5 12-29.5zm-201 0q0-17-12-29t-29-12-29.5 12-12.5 29 12.5 29.5T274 878t29-12.5 12-29.5z"/><glyph glyph-name="Yacute" unicode="Ý" horiz-adv-x="644" d="M352 0h-60v273L17 700h66l239-373 239 373h66L352 273V0zm-21 773h-62l90 142h71z"/><glyph glyph-name="Thorn" unicode="Þ" horiz-adv-x="655" d="M156 572h171q295 0 295-222T327 128H156V0H97v700h59V572zm1-388h173q232 0 232 166 0 92-62 129t-170 37H157V184z"/><glyph glyph-name="germandbls" unicode="ß" horiz-adv-x="592" d="M555 148q0-78-58.5-118.5T354-11q-72 0-127 27v50q54-27 117-27 67 0 111 27.5t44 85.5q0 28-16 55.5t-38.5 49-45.5 42-39 42-16 41.5q0 28 19 55.5t38 57.5 19 65q0 42-35 71.5T290 661q-69 0-112-40t-43-112V0H78v500q0 99 57.5 155T290 711q89 1 137.5-43.5T476 566q0-38-19-70t-37.5-57-18.5-47q0-18 16-38.5t38.5-40.5 45-43 38.5-55 16-67z"/><glyph glyph-name="agrave" unicode="à" horiz-adv-x="542" d="M455 87q0-42 43-42 16 0 37 7V6Q508-4 483-4q-76 0-83 74-75-81-197-81-69 0-118 36.5T36 131q0 82 62 119.5T248 288q77 0 151-21v32q0 64-40 102t-113 38q-92 0-172-34v56q85 30 178 30 96 0 149.5-52T455 292V87zM94 134q0-47 35-71.5T214 38q55 0 104 24.5t81 69.5v88q-76 20-143 20-68 0-115-25.5T94 134zm206 419h-63l-98 142h71z"/><glyph glyph-name="aacute" unicode="á" horiz-adv-x="542" d="M455 87q0-42 43-42 16 0 37 7V6Q508-4 483-4q-76 0-83 74-75-81-197-81-69 0-118 36.5T36 131q0 82 62 119.5T248 288q77 0 151-21v32q0 64-40 102t-113 38q-92 0-172-34v56q85 30 178 30 96 0 149.5-52T455 292V87zM94 134q0-47 35-71.5T214 38q55 0 104 24.5t81 69.5v88q-76 20-143 20-68 0-115-25.5T94 134zm161 419h-62l90 142h71z"/><glyph glyph-name="acircumflex" unicode="â" horiz-adv-x="542" d="M455 87q0-42 43-42 16 0 37 7V6Q508-4 483-4q-76 0-83 74-75-81-197-81-69 0-118 36.5T36 131q0 82 62 119.5T248 288q77 0 151-21v32q0 64-40 102t-113 38q-92 0-172-34v56q85 30 178 30 96 0 149.5-52T455 292V87zM94 134q0-47 35-71.5T214 38q55 0 104 24.5t81 69.5v88q-76 20-143 20-68 0-115-25.5T94 134zm130 557h51l130-137h-65l-90 94-90-94H95z"/><glyph glyph-name="atilde" unicode="ã" horiz-adv-x="542" d="M455 87q0-42 43-42 16 0 37 7V6Q508-4 483-4q-76 0-83 74-75-81-197-81-69 0-118 36.5T36 131q0 82 62 119.5T248 288q77 0 151-21v32q0 64-40 102t-113 38q-92 0-172-34v56q85 30 178 30 96 0 149.5-52T455 292V87zM94 134q0-47 35-71.5T214 38q55 0 104 24.5t81 69.5v88q-76 20-143 20-68 0-115-25.5T94 134zm309 512q6-43-15-67.5T331 554q-32 0-86 24t-70 24q-18 0-26.5-12t-6.5-31H92q-6 42 15 67.5t55 25.5q31 0 86-24t71-24q37 0 34 42h50z"/><glyph glyph-name="adieresis" unicode="ä" horiz-adv-x="542" d="M455 87q0-42 43-42 16 0 37 7V6Q508-4 483-4q-76 0-83 74-75-81-197-81-69 0-118 36.5T36 131q0 82 62 119.5T248 288q77 0 151-21v32q0 64-40 102t-113 38q-92 0-172-34v56q85 30 178 30 96 0 149.5-52T455 292V87zM94 134q0-47 35-71.5T214 38q55 0 104 24.5t81 69.5v88q-76 20-143 20-68 0-115-25.5T94 134zm294 482q0-17-12-29t-29-12-29.5 12-12.5 29 12.5 29.5T347 658t29-12.5 12-29.5zm-201 0q0-17-12-29t-29-12-29.5 12-12.5 29 12.5 29.5T146 658t29-12.5 12-29.5z"/><glyph glyph-name="aring" unicode="å" horiz-adv-x="542" d="M455 87q0-42 43-42 16 0 37 7V6Q508-4 483-4q-76 0-83 74-75-81-197-81-69 0-118 36.5T36 131q0 82 62 119.5T248 288q77 0 151-21v32q0 64-40 102t-113 38q-92 0-172-34v56q85 30 178 30 96 0 149.5-52T455 292V87zM94 134q0-47 35-71.5T214 38q55 0 104 24.5t81 69.5v88q-76 20-143 20-68 0-115-25.5T94 134zm254 495q0-44-30-71.5T246 530t-72.5 27.5T143 629q0 43 30.5 70t72.5 27q41 0 71.5-27t30.5-70zm-161-1q0-27 17.5-42.5T246 570t41.5 15.5T305 628q0 26-17.5 42T246 686t-41.5-16-17.5-42z"/><glyph glyph-name="ae" unicode="æ" horiz-adv-x="909" d="M456 92Q363-11 209-11q-73 0-123 36.5T36 131q0 82 63 119.5T255 288q84 0 157-21v32q0 66-41.5 103T246 439q-92 0-172-34v56q85 30 178 30 165 0 198-126 28 60 83 93t118 33q64 0 111.5-25.5t70-66T864 309t-3-100H469q6-83 66.5-125.5T681 41q84 0 151 39V27q-65-38-163-38-65 0-122 26t-91 77zM94 134q0-47 36-71.5T221 38q131 0 212 91-17 42-20 91-80 20-151 20-72 0-120-25t-48-81zm557 305q-74 0-126-47.5T469 259h342q4 30-3 60t-24 57.5-51.5 45T651 439z"/><glyph glyph-name="ccedilla" unicode="ç" horiz-adv-x="494" d="M454 80V23Q394-6 318-11l-16-63q48 6 79.5-12.5T414-143q1-42-32.5-65T289-231q-53 0-98 20v49q41-23 92-23 40 0 61 12t21 32q-1 25-40 33t-80-3L268-9q-94 8-158.5 71.5T45 237q0 84 39.5 143.5t96.5 85T304 491q88 0 145-39v-55q-56 42-138 42-86 0-147.5-51T102 238q0-95 59.5-146T305 41q83 0 149 39z"/><glyph glyph-name="egrave" unicode="è" horiz-adv-x="548" d="M45 240q0 117 71.5 184T282 491q53 0 95-16.5t67.5-44.5 42.5-64 18.5-74.5T501 214H102q5-86 66-129.5T317 41q90 0 157 39V24q-65-35-165-35-113 0-188.5 64T45 240zm406 24q7 63-33.5 119T286 439q-74 0-127-46.5T102 264h349zM335 553h-63l-98 142h71z"/><glyph glyph-name="eacute" unicode="é" horiz-adv-x="548" d="M45 240q0 117 71.5 184T282 491q53 0 95-16.5t67.5-44.5 42.5-64 18.5-74.5T501 214H102q5-86 66-129.5T317 41q90 0 157 39V24q-65-35-165-35-113 0-188.5 64T45 240zm406 24q7 63-33.5 119T286 439q-74 0-127-46.5T102 264h349zM290 553h-62l90 142h71z"/><glyph glyph-name="ecircumflex" unicode="ê" horiz-adv-x="548" d="M45 240q0 117 71.5 184T282 491q53 0 95-16.5t67.5-44.5 42.5-64 18.5-74.5T501 214H102q5-86 66-129.5T317 41q90 0 157 39V24q-65-35-165-35-113 0-188.5 64T45 240zm406 24q7 63-33.5 119T286 439q-74 0-127-46.5T102 264h349zM259 691h51l130-137h-65l-90 94-90-94h-65z"/><glyph glyph-name="edieresis" unicode="ë" horiz-adv-x="548" d="M45 240q0 117 71.5 184T282 491q53 0 95-16.5t67.5-44.5 42.5-64 18.5-74.5T501 214H102q5-86 66-129.5T317 41q90 0 157 39V24q-65-35-165-35-113 0-188.5 64T45 240zm406 24q7 63-33.5 119T286 439q-74 0-127-46.5T102 264h349zm-28 352q0-17-12-29t-29-12-29.5 12-12.5 29 12.5 29.5T382 658t29-12.5 12-29.5zm-201 0q0-17-12-29t-29-12-29.5 12-12.5 29 12.5 29.5T181 658t29-12.5 12-29.5z"/><glyph glyph-name="igrave" unicode="ì" horiz-adv-x="219" d="M138 0H81v480h57V0zm27 553h-55L25 695h64z"/><glyph glyph-name="iacute" unicode="í" horiz-adv-x="219" d="M81 480h57V0H81v480zm36 73H55l90 142h71z"/><glyph glyph-name="icircumflex" unicode="î" horiz-adv-x="219" d="M85 681h51l103-127h-61l-67 84-67-84h-62zm-4-201h57V0H81v480z"/><glyph glyph-name="idieresis" unicode="ï" horiz-adv-x="219" d="M225 616q0-15-11.5-26.5T186 578q-15 0-26.5 11.5T148 616t11.5 27 26.5 12q16 0 27.5-12t11.5-27zm-155 0q0-15-11-26.5T32 578 5 589.5-6 616t11.5 27T32 655t26.5-12T70 616zm11-136h57V0H81v480z"/><glyph glyph-name="eth" unicode="ð" horiz-adv-x="594" d="M540 269q0-132-68-206T291-11q-107 0-176.5 64T45 222q0 97 67.5 160.5T274 446q75 0 135-37t80-103q0 7-2 23-20 207-199 283L184 508l-33 33 88 88q-67 17-137 17v54q93 0 178-30l85 85 33-33-73-73q215-104 215-380zm-438-47q0-81 52-130t137-49q79 0 126.5 43T478 203q-2 87-58 138.5T283 393q-78 0-129.5-47.5T102 222z"/><glyph glyph-name="ntilde" unicode="ñ" d="M129 394q28 39 77 68t109 29q85 0 140-53.5T510 296V0h-57v289q0 72-40 111t-104 39q-57 0-101.5-32T135 329V0H78v480h51v-86zm319 252q6-43-15-67.5T376 554q-32 0-86 24t-70 24q-18 0-26.5-12t-6.5-31h-50q-6 42 15 67.5t55 25.5q31 0 86-24t71-24q37 0 34 42h50z"/><glyph glyph-name="ograve" unicode="ò" horiz-adv-x="595" d="M45 240q0 116 74.5 183.5T297 491q104 0 178.5-67.5T550 240 475.5 56.5 297-11q-103 0-177.5 67.5T45 240zm448 0q0 91-56 144t-139 53-139.5-53T102 240t56.5-144T298 43t139 53 56 144zM350 550h-63l-98 142h71z"/><glyph glyph-name="oacute" unicode="ó" horiz-adv-x="595" d="M45 240q0 116 74.5 183.5T297 491q104 0 178.5-67.5T550 240 475.5 56.5 297-11q-103 0-177.5 67.5T45 240zm448 0q0 91-56 144t-139 53-139.5-53T102 240t56.5-144T298 43t139 53 56 144zM305 550h-62l90 142h71z"/><glyph glyph-name="ocircumflex" unicode="ô" horiz-adv-x="595" d="M45 240q0 116 74.5 183.5T297 491q104 0 178.5-67.5T550 240 475.5 56.5 297-11q-103 0-177.5 67.5T45 240zm448 0q0 91-56 144t-139 53-139.5-53T102 240t56.5-144T298 43t139 53 56 144zM274 688h51l130-137h-65l-90 94-90-94h-65z"/><glyph glyph-name="otilde" unicode="õ" horiz-adv-x="595" d="M45 240q0 116 74.5 183.5T297 491q104 0 178.5-67.5T550 240 475.5 56.5 297-11q-103 0-177.5 67.5T45 240zm448 0q0 91-56 144t-139 53-139.5-53T102 240t56.5-144T298 43t139 53 56 144zm-40 403q6-43-15-67.5T381 551q-32 0-86 24t-70 24q-18 0-26.5-12t-6.5-31h-50q-6 42 15 67.5t55 25.5q31 0 86-24t71-24q37 0 34 42h50z"/><glyph glyph-name="odieresis" unicode="ö" horiz-adv-x="595" d="M45 240q0 116 74.5 183.5T297 491q104 0 178.5-67.5T550 240 475.5 56.5 297-11q-103 0-177.5 67.5T45 240zm448 0q0 91-56 144t-139 53-139.5-53T102 240t56.5-144T298 43t139 53 56 144zm-55 373q0-17-12-29t-29-12-29.5 12-12.5 29 12.5 29.5T397 655t29-12.5 12-29.5zm-201 0q0-17-12-29t-29-12-29.5 12-12.5 29 12.5 29.5T196 655t29-12.5 12-29.5z"/><glyph glyph-name="divide" unicode="÷" horiz-adv-x="634" d="M557 323H77v54h480v-54zM356 126q0-19-11-29t-28-10-28.5 10-11.5 29q0 18 11.5 28t28.5 10 28-10 11-28zm0 447q0-19-11-29t-28-10-28.5 10-11.5 29q0 18 11.5 28t28.5 10 28-10 11-28z"/><glyph glyph-name="oslash" unicode="ø" horiz-adv-x="595" d="M520 543l-67-101q97-70 97-202 0-116-74.5-183.5T297-11q-64 0-122 28l-50-76H75l64 99q-94 69-94 200 0 116 74.5 183.5T297 491q66 0 121-28l51 80h51zM298 437q-83 0-139.5-53T102 240q0-100 69-154l216 332q-43 19-89 19zM206 63q42-20 91-20 83 0 139.5 53T493 240q0 99-70 156z"/><glyph glyph-name="ugrave" unicode="ù" d="M447 480h57V0h-52v86q-28-39-76.5-68T266-11q-88 0-141 53T72 184v296h57V191q0-73 38-111.5T272 41q58 0 102.5 32t72.5 78v329zm-103 73h-63l-98 142h71z"/><glyph glyph-name="uacute" unicode="ú" d="M447 480h57V0h-52v86q-28-39-76.5-68T266-11q-88 0-141 53T72 184v296h57V191q0-73 38-111.5T272 41q58 0 102.5 32t72.5 78v329zm-148 73h-62l90 142h71z"/><glyph glyph-name="ucircumflex" unicode="û" d="M447 480h57V0h-52v86q-28-39-76.5-68T266-11q-88 0-141 53T72 184v296h57V191q0-73 38-111.5T272 41q58 0 102.5 32t72.5 78v329zM268 691h51l130-137h-65l-90 94-90-94h-65z"/><glyph glyph-name="udieresis" unicode="ü" d="M447 480h57V0h-52v86q-28-39-76.5-68T266-11q-88 0-141 53T72 184v296h57V191q0-73 38-111.5T272 41q58 0 102.5 32t72.5 78v329zm-15 136q0-17-12-29t-29-12-29.5 12-12.5 29 12.5 29.5T391 658t29-12.5 12-29.5zm-201 0q0-17-12-29t-29-12-29.5 12-12.5 29 12.5 29.5T190 658t29-12.5 12-29.5z"/><glyph glyph-name="yacute" unicode="ý" horiz-adv-x="536" d="M278 63l179 417h60L274-79q-67-152-172-152-24 0-51 6v50q22-6 44-6 42 0 73.5 30T226-58l24 56L14 480h60zm-9 490h-62l90 142h71z"/><glyph glyph-name="thorn" unicode="þ" horiz-adv-x="618" d="M78 700h57V387q30 45 81 74.5T334 491q103 0 171-70.5T573 240 505 59.5 334-11q-67 0-118 29.5T135 93v-313H78v920zm438-460q0 90-54 144.5T327 439q-67 0-119-38.5T134 305V175q22-57 74-95.5T327 41q82 0 135.5 54T516 240z"/><glyph glyph-name="ydieresis" unicode="ÿ" horiz-adv-x="536" d="M278 63l179 417h60L274-79q-67-152-172-152-24 0-51 6v50q22-6 44-6 42 0 73.5 30T226-58l24 56L14 480h60zm124 553q0-17-12-29t-29-12-29.5 12-12.5 29 12.5 29.5T361 658t29-12.5 12-29.5zm-201 0q0-17-12-29t-29-12-29.5 12-12.5 29 12.5 29.5T160 658t29-12.5 12-29.5z"/><glyph glyph-name="Amacron" unicode="Ā" horiz-adv-x="713" d="M75 0H11l312 700h67L701 0h-64l-83 188H159zm272 617L182 244h348L365 617q-3 8-9 22-6-14-9-22zM215 847h280v-52H215v52z"/><glyph glyph-name="amacron" unicode="ā" horiz-adv-x="542" d="M455 87q0-42 43-42 16 0 37 7V6Q508-4 483-4q-76 0-83 74-75-81-197-81-69 0-118 36.5T36 131q0 82 62 119.5T248 288q77 0 151-21v32q0 64-40 102t-113 38q-92 0-172-34v56q85 30 178 30 96 0 149.5-52T455 292V87zM94 134q0-47 35-71.5T214 38q55 0 104 24.5t81 69.5v88q-76 20-143 20-68 0-115-25.5T94 134zm13 493h280v-52H107v52z"/><glyph glyph-name="Abreve" unicode="Ă" horiz-adv-x="713" d="M75 0H11l312 700h67L701 0h-64l-83 188H159zm272 617L182 244h348L365 617q-3 8-9 22-6-14-9-22zm142 198q-56-41-134-41-79 0-133 41v57q60-44 133-44t134 44v-57z"/><glyph glyph-name="abreve" unicode="ă" horiz-adv-x="542" d="M455 87q0-42 43-42 16 0 37 7V6Q508-4 483-4q-76 0-83 74-75-81-197-81-69 0-118 36.5T36 131q0 82 62 119.5T248 288q77 0 151-21v32q0 64-40 102t-113 38q-92 0-172-34v56q85 30 178 30 96 0 149.5-52T455 292V87zM94 134q0-47 35-71.5T214 38q55 0 104 24.5t81 69.5v88q-76 20-143 20-68 0-115-25.5T94 134zm287 461q-56-41-134-41-79 0-133 41v57q60-44 133-44t134 44v-57z"/><glyph glyph-name="Aogonek" unicode="Ą" horiz-adv-x="713" d="M598-140q-1-22 13-33.5t40-11.5q33 0 65 21v-46q-33-21-78-21t-69.5 23-24.5 61q0 70 89 156l-79 179H159L75 0H11l312 700h67L701 0q-45-31-74.5-69.5T598-140zM347 617L182 244h349L365 617q-3 8-9 22-6-14-9-22z"/><glyph glyph-name="aogonek" unicode="ą" horiz-adv-x="542" d="M535 52V6q-46-31-75-68t-28-68q-1-23 13-36t40-13q24 0 49 11v-45q-26-13-62-13-44-1-69 23t-25 61q0 70 86 140-58 9-64 72-75-81-197-81-69 0-118 36.5T36 131q0 82 62 119.5T248 288q77 0 151-21v32q0 64-40 102t-113 38q-92 0-172-34v56q85 30 178 30 96 0 149.5-52T455 292V87q0-42 43-42 16 0 37 7zM214 38q55 0 104 24.5t81 69.5v88q-76 20-143 20-68 0-115-25.5T94 134q0-47 35-71.5T214 38z"/><glyph glyph-name="Cacute" unicode="Ć" horiz-adv-x="656" d="M50 343q0 88 31.5 160T165 619.5t116 68T414 711q110 0 196-47v-60q-79 51-187 51-59 0-113.5-19.5t-100-56.5-72.5-98-27-138q0-73 27.5-131.5t73-94 101-54T426 45q112 0 191 51V37q-88-48-203-48-67 0-131 23T166.5 77.5 82 189 50 343zm359 430h-62l90 142h71z"/><glyph glyph-name="cacute" unicode="ć" horiz-adv-x="494" d="M45 237q0 84 39.5 143.5t96.5 85T304 491q88 0 145-39v-55q-56 42-138 42-86 0-147.5-51T102 238q0-95 59.5-146T305 41q83 0 149 39V23q-68-34-157-34-102 0-177 64T45 237zm265 316h-62l90 142h71z"/><glyph glyph-name="Cdotaccent" unicode="Ċ" horiz-adv-x="656" d="M50 343q0 88 31.5 160T165 619.5t116 68T414 711q110 0 196-47v-60q-79 51-187 51-59 0-113.5-19.5t-100-56.5-72.5-98-27-138q0-73 27.5-131.5t73-94 101-54T426 45q112 0 191 51V37q-88-48-203-48-67 0-131 23T166.5 77.5 82 189 50 343zm302 480q0 21 13.5 33t33.5 12 33-12 13-33q0-22-13-34t-33-12-33.5 12-13.5 34z"/><glyph glyph-name="cdotaccent" unicode="ċ" horiz-adv-x="494" d="M45 237q0 84 39.5 143.5t96.5 85T304 491q88 0 145-39v-55q-56 42-138 42-86 0-147.5-51T102 238q0-95 59.5-146T305 41q83 0 149 39V23q-68-34-157-34-102 0-177 64T45 237zm208 366q0 21 13.5 33t33.5 12 33-12 13-33q0-22-13-34t-33-12-33.5 12-13.5 34z"/><glyph glyph-name="Ccaron" unicode="Č" horiz-adv-x="656" d="M50 343q0 88 31.5 160T165 619.5t116 68T414 711q110 0 196-47v-60q-79 51-187 51-59 0-113.5-19.5t-100-56.5-72.5-98-27-138q0-73 27.5-131.5t73-94 101-54T426 45q112 0 191 51V37q-88-48-203-48-67 0-131 23T166.5 77.5 82 189 50 343zm509 558L429 764h-51L249 901h65l90-94 90 94h65z"/><glyph glyph-name="ccaron" unicode="č" horiz-adv-x="494" d="M45 237q0 84 39.5 143.5t96.5 85T304 491q88 0 145-39v-55q-56 42-138 42-86 0-147.5-51T102 238q0-95 59.5-146T305 41q83 0 149 39V23q-68-34-157-34-102 0-177 64T45 237zm415 444L330 544h-51L150 681h65l90-94 90 94h65z"/><glyph glyph-name="Dcaron" unicode="Ď" horiz-adv-x="735" d="M97 700h217q181 0 276-96t95-254-95-254T314 0H97v700zm529-350q0 136-79.5 214.5T315 643H157V57h158q152 0 231.5 78.5T626 350zM498 901L368 764h-51L188 901h65l90-94 90 94h65z"/><glyph glyph-name="dcaron" unicode="ď" horiz-adv-x="618" d="M618 700h56l-25-172h-49zm-134 0h56V0h-51v99Q415-11 284-11q-103 0-171 70.5T45 240t68 180.5T284 491q68 0 119-29.5t81-74.5v313zm0-395q-22 57-74 95.5T291 439q-82 0-135.5-54T102 240q0-90 54-144.5T291 41q67 0 119 38.5t74 95.5v130z"/><glyph glyph-name="Dcroat" unicode="Đ" horiz-adv-x="738" d="M100 700h217q181 0 276-96t95-254-95-254T317 0H100v322H19v54h81v324zm60-643h158q152 0 231.5 78.5T629 350t-79.5 214.5T318 643H160V376h224v-54H160V57z"/><glyph glyph-name="dcroat" unicode="đ" horiz-adv-x="618" d="M540 624h71v-43h-71V0h-51v99Q415-11 284-11q-103 0-171 70.5T45 240t68 180.5T284 491q68 0 119-29.5t81-74.5v194H299v43h185v76h56v-76zM291 41q67 0 119 38.5t74 95.5v130q-22 57-74 95.5T291 439q-82 0-135.5-54T102 240q0-90 54-144.5T291 41z"/><glyph glyph-name="Emacron" unicode="Ē" horiz-adv-x="621" d="M97 700h465v-57H156V381h376v-57H156V57h413V0H97v700zm97 147h280v-52H194v52z"/><glyph glyph-name="emacron" unicode="ē" horiz-adv-x="548" d="M45 240q0 117 71.5 184T282 491q53 0 95-16.5t67.5-44.5 42.5-64 18.5-74.5T501 214H102q5-86 66-129.5T317 41q90 0 157 39V24q-65-35-165-35-113 0-188.5 64T45 240zm406 24q7 63-33.5 119T286 439q-74 0-127-46.5T102 264h349zM142 627h280v-52H142v52z"/><glyph glyph-name="Edotaccent" unicode="Ė" horiz-adv-x="621" d="M97 700h465v-57H156V381h376v-57H156V57h413V0H97v700zm188 123q0 21 13.5 33t33.5 12 33-12 13-33q0-22-13-34t-33-12-33.5 12-13.5 34z"/><glyph glyph-name="edotaccent" unicode="ė" horiz-adv-x="548" d="M45 240q0 117 71.5 184T282 491q53 0 95-16.5t67.5-44.5 42.5-64 18.5-74.5T501 214H102q5-86 66-129.5T317 41q90 0 157 39V24q-65-35-165-35-113 0-188.5 64T45 240zm406 24q7 63-33.5 119T286 439q-74 0-127-46.5T102 264h349zM233 603q0 21 13.5 33t33.5 12 33-12 13-33q0-22-13-34t-33-12-33.5 12-13.5 34z"/><glyph glyph-name="Eogonek" unicode="Ę" horiz-adv-x="621" d="M569-170v-48q-31-14-69-14-44-1-69 23t-25 61q0 76 95 148H97v700h465v-57H156V381h376v-57H156V57h413V0q-49-31-79.5-68T460-136q-1-23 13-36t40-13q29 0 56 15z"/><glyph glyph-name="eogonek" unicode="ę" horiz-adv-x="548" d="M463-210q-33-21-78-21-44-1-69 22.5T291-147q0 70 96 144-40-8-78-8-113 0-188.5 64T45 240q0 117 71.5 184T282 491q65 0 114.5-25.5t73-65.5 33.5-89-2-97H102q5-86 66-129.5T317 41q90 0 157 39V24Q344-74 345-136q-1-22 13-35t40-14q35 2 65 21v-46zM286 439q-74 0-127-46.5T102 264h349q7 63-33.5 119T286 439z"/><glyph glyph-name="Ecaron" unicode="Ě" horiz-adv-x="621" d="M97 700h465v-57H156V381h376v-57H156V57h413V0H97v700zm395 201L362 764h-51L182 901h65l90-94 90 94h65z"/><glyph glyph-name="ecaron" unicode="ě" horiz-adv-x="548" d="M45 240q0 117 71.5 184T282 491q53 0 95-16.5t67.5-44.5 42.5-64 18.5-74.5T501 214H102q5-86 66-129.5T317 41q90 0 157 39V24q-65-35-165-35-113 0-188.5 64T45 240zm406 24q7 63-33.5 119T286 439q-74 0-127-46.5T102 264h349zm-11 417L310 544h-51L130 681h65l90-94 90 94h65z"/><glyph glyph-name="Gbreve" unicode="Ğ" horiz-adv-x="707" d="M49 350q0 89 31.5 159.5T165 623t118 65.5T419 711q115 0 207-46v-60q-83 50-199 50-61 0-116-18t-101-53-73.5-95.5T109 350q0-80 27.5-141t74.5-95.5T313.5 62 431 45q84 0 153 32v292h60V36Q544-11 427-11q-74 0-139.5 20.5T167.5 71 81 184 49 350zm489 465q-56-41-134-41-79 0-133 41v57q60-44 133-44t134 44v-57z"/><glyph glyph-name="gbreve" unicode="ğ" horiz-adv-x="618" d="M45 240q0 110 68 180.5T284 491q131 0 205-110v99h51V0q0-115-74.5-173T283-231q-104 0-192 45v55q88-48 185-48 90 0 149 43.5T484 0v95q-29-47-80.5-76.5T284-11q-103 0-171 70.5T45 240zm439 65q-22 57-74 95.5T291 439q-82 0-135.5-54T102 240q0-90 54-144.5T291 41q67 0 119 36.5t74 90.5v137zm-60 290q-56-41-134-41-79 0-133 41v57q60-44 133-44t134 44v-57z"/><glyph glyph-name="Gdotaccent" unicode="Ġ" horiz-adv-x="707" d="M49 350q0 89 31.5 159.5T165 623t118 65.5T419 711q115 0 207-46v-60q-83 50-199 50-61 0-116-18t-101-53-73.5-95.5T109 350q0-80 27.5-141t74.5-95.5T313.5 62 431 45q84 0 153 32v292h60V36Q544-11 427-11q-74 0-139.5 20.5T167.5 71 81 184 49 350zm306 473q0 21 13.5 33t33.5 12 33-12 13-33q0-22-13-34t-33-12-33.5 12-13.5 34z"/><glyph glyph-name="gdotaccent" unicode="ġ" horiz-adv-x="618" d="M45 240q0 110 68 180.5T284 491q131 0 205-110v99h51V0q0-115-74.5-173T283-231q-104 0-192 45v55q88-48 185-48 90 0 149 43.5T484 0v95q-29-47-80.5-76.5T284-11q-103 0-171 70.5T45 240zm439 65q-22 57-74 95.5T291 439q-82 0-135.5-54T102 240q0-90 54-144.5T291 41q67 0 119 36.5t74 90.5v137zM241 603q0 21 13.5 33t33.5 12 33-12 13-33q0-22-13-34t-33-12-33.5 12-13.5 34z"/><glyph glyph-name="Gcommaaccent" unicode="Ģ" horiz-adv-x="707" d="M49 350q0 89 31.5 159.5T165 623t118 65.5T419 711q115 0 207-46v-60q-83 50-199 50-61 0-116-18t-101-53-73.5-95.5T109 350q0-80 27.5-141t74.5-95.5T313.5 62 431 45q84 0 153 32v292h60V36Q544-11 427-11q-74 0-139.5 20.5T167.5 71 81 184 49 350zm370-584h-50l23 180h57z"/><glyph glyph-name="gcommaaccent" unicode="ģ" horiz-adv-x="618" d="M320 548h-56l28 159h50zM45 240q0 110 68 180.5T284 491q131 0 205-110v99h51V0q0-115-74.5-173T283-231q-104 0-192 45v55q88-48 185-48 90 0 149 43.5T484 0v95q-29-47-80.5-76.5T284-11q-103 0-171 70.5T45 240zm439 65q-22 57-74 95.5T291 439q-82 0-135.5-54T102 240q0-90 54-144.5T291 41q67 0 119 36.5t74 90.5v137z"/><glyph glyph-name="Hbar" unicode="Ħ" horiz-adv-x="770" d="M158 0H99v510H23v50h76v140h59V560h454v140h59V560h76v-50h-76V0h-59v323H158V0zm0 510V380h453v130H158z"/><glyph glyph-name="hbar" unicode="ħ" d="M135 400q29 37 76 64t104 27q85 0 140-53.5T510 296V0h-57v289q0 72-40 111t-104 39q-57 0-101.5-32T135 329V0H78v573H12v44h66v83h57v-83h188v-44H135V400z"/><glyph glyph-name="Imacron" unicode="Ī" horiz-adv-x="253" d="M97 700h59V0H97v700zM-12 847h280v-52H-12v52z"/><glyph glyph-name="imacron" unicode="ī" horiz-adv-x="219" d="M0 635h220v-53H0v53zm81-155h57V0H81v480z"/><glyph glyph-name="Iogonek" unicode="Į" horiz-adv-x="254" d="M74-136q-1-23 13-36t40-13q34 0 65 20v-49q-33-18-78-18-44-1-69 23t-25 61Q20-86 98 7v693h59V0Q75-83 74-136z"/><glyph glyph-name="iogonek" unicode="į" horiz-adv-x="219" d="M148 626q0-19-11-28.5t-28-9.5q-16 0-27.5 10T70 626q0 17 11.5 27.5T109 664t27.5-10.5T148 626zM75-136q-1-23 13-36t40-13q34 0 65 20v-50q-31-17-78-17-44-1-69 23t-25 61Q21-84 81 0v480h57V0Q74-88 75-136z"/><glyph glyph-name="Idotaccent" unicode="İ" horiz-adv-x="253" d="M97 700h59V0H97v700zM79 823q0 21 13.5 33t33.5 12 33-12 13-33q0-22-13-34t-33-12-33.5 12T79 823z"/><glyph glyph-name="dotlessi" unicode="ı" horiz-adv-x="219" d="M81 480h57V0H81v480z"/><glyph glyph-name="IJ" unicode="Ĳ" horiz-adv-x="769" d="M97 700h59V0H97v700zm306 0h275V192q0-101-61-151.5T456-10q-111 0-180 43v59q68-45 170-45 173 0 173 147v449H403v57z"/><glyph glyph-name="ij" unicode="ĳ" horiz-adv-x="437" d="M138 0H81v480h57V0zm9 626q0-18-11-28t-27-10q-17 0-28 9.5T70 626q0 17 11.5 27.5T109 664t27-10.5 11-27.5zm209-726q0-71-37-101t-92-30q-41 0-71 12v53q23-11 57-11 87 0 87 85v572h56v-580zm10 726q0-19-11-28.5t-28-9.5q-16 0-27.5 10T288 626q0 17 11.5 27.5T327 664t27.5-10.5T366 626z"/><glyph glyph-name="Kcommaaccent" unicode="Ķ" horiz-adv-x="660" d="M156 0H97v700h59V386h183l226 314h68L388 359 657 0h-69L341 330H156V0zm201-224h-50l23 180h57z"/><glyph glyph-name="kcommaaccent" unicode="ķ" horiz-adv-x="509" d="M505 0h-67L243 219H135V0H78v700h57V272h111l168 208h66L291 244zM273-224h-50l23 180h57z"/><glyph glyph-name="Lacute" unicode="Ĺ" horiz-adv-x="577" d="M97 700h59V57h405V0H97v700zm44 73H79l90 142h71z"/><glyph glyph-name="lacute" unicode="ĺ" horiz-adv-x="219" d="M81 730h57V0H81v730zm49 46H68l90 142h71z"/><glyph glyph-name="Lcommaaccent" unicode="Ļ" horiz-adv-x="577" d="M97 700h59V57h405V0H97v700zm232-924h-50l23 180h57z"/><glyph glyph-name="lcommaaccent" unicode="ļ" horiz-adv-x="219" d="M81 730h57V0H81v730zm30-954H61L84-44h57z"/><glyph glyph-name="Lcaron" unicode="Ľ" horiz-adv-x="577" d="M373 700h56l-25-172h-49zm-276 0h59V57h405V0H97v700z"/><glyph glyph-name="lcaron" unicode="ľ" horiz-adv-x="219" d="M218 730h56l-25-172h-49zm-137 0h57V0H81v730z"/><glyph glyph-name="Ldot" unicode="Ŀ" d="M396 343q0-18-11.5-28.5T356 304t-28.5 10.5T316 343q0 19 11.5 29t28.5 10 28.5-10 11.5-29zM97 700h59V57h405V0H97v700z"/><glyph glyph-name="ldot" unicode="ŀ" horiz-adv-x="267" d="M81 730h57V0H81v730zm202-380q0-18-11.5-28.5T243 311t-28.5 10.5T203 350t11.5 28.5T243 389t28.5-10.5T283 350z"/><glyph glyph-name="Lslash" unicode="Ł" horiz-adv-x="583" d="M567 0H103v279l-87-37v50l87 37v371h59V352l223 95v-50l-223-95V57h405V0z"/><glyph glyph-name="lslash" unicode="ł" horiz-adv-x="262" d="M103 730h57V410l86 37v-50l-86-38V0h-57v337l-86-37v50l86 38v342z"/><glyph glyph-name="Nacute" unicode="Ń" horiz-adv-x="766" d="M156 0H97v700h54l459-599v599h59V0h-54L156 600V0zm236 773h-62l90 142h71z"/><glyph glyph-name="nacute" unicode="ń" d="M129 394q28 39 77 68t109 29q85 0 140-53.5T510 296V0h-57v289q0 72-40 111t-104 39q-57 0-101.5-32T135 329V0H78v480h51v-86zm171 159h-62l90 142h71z"/><glyph glyph-name="Ncommaaccent" unicode="Ņ" horiz-adv-x="766" d="M156 0H97v700h54l459-599v599h59V0h-54L156 600V0zm238-224h-50l23 180h57z"/><glyph glyph-name="ncommaaccent" unicode="ņ" d="M129 394q28 39 77 68t109 29q85 0 140-53.5T510 296V0h-57v289q0 72-40 111t-104 39q-57 0-101.5-32T135 329V0H78v480h51v-86zm169-618h-50l23 180h57z"/><glyph glyph-name="Ncaron" unicode="Ň" horiz-adv-x="766" d="M156 0H97v700h54l459-599v599h59V0h-54L156 600V0zm386 901L412 764h-51L232 901h65l90-94 90 94h65z"/><glyph glyph-name="ncaron" unicode="ň" d="M129 394q28 39 77 68t109 29q85 0 140-53.5T510 296V0h-57v289q0 72-40 111t-104 39q-57 0-101.5-32T135 329V0H78v480h51v-86zm321 287L320 544h-51L140 681h65l90-94 90 94h65z"/><glyph glyph-name="Eng" unicode="Ŋ" horiz-adv-x="766" d="M669-95q0-69-37-102t-95-33q-35 0-71 11v55q25-9 58-9 86 0 86 85V7L156 600V0H97v700h54l459-599v599h59V-95z"/><glyph glyph-name="eng" unicode="ŋ" d="M510-100q0-71-37.5-101T381-231q-42 0-72 12v53q28-13 57-13 87 0 87 87v381q0 72-40 111t-104 39q-57 0-101.5-32T135 329V0H78v480h51v-86q28 39 77 68t109 29q85 0 140-53.5T510 296v-396z"/><glyph glyph-name="Omacron" unicode="Ō" horiz-adv-x="824" d="M48 350q0 68 23 131.5T138 597t115 83 159 31 159-31 115-83 67-115.5T776 350t-23-131.5T686 103 571 20 412-11 253 20t-115 83-67 115.5T48 350zm668 0q0 79-32 146.5t-103 113T412 655t-169-45.5-103-113T108 350t32-146.5 103-113T412 45t169 45.5 103 113T716 350zM272 847h280v-52H272v52z"/><glyph glyph-name="omacron" unicode="ō" horiz-adv-x="595" d="M45 240q0 116 74.5 183.5T297 491q104 0 178.5-67.5T550 240 475.5 56.5 297-11q-103 0-177.5 67.5T45 240zm448 0q0 91-56 144t-139 53-139.5-53T102 240t56.5-144T298 43t139 53 56 144zM157 624h280v-52H157v52z"/><glyph glyph-name="Ohungarumlaut" unicode="Ő" horiz-adv-x="824" d="M48 350q0 68 23 131.5T138 597t115 83 159 31 159-31 115-83 67-115.5T776 350t-23-131.5T686 103 571 20 412-11 253 20t-115 83-67 115.5T48 350zm668 0q0 79-32 146.5t-103 113T412 655t-169-45.5-103-113T108 350t32-146.5 103-113T412 45t169 45.5 103 113T716 350zM514 779h-61l72 145h64zm-153 0h-61l72 145h64z"/><glyph glyph-name="ohungarumlaut" unicode="ő" horiz-adv-x="595" d="M45 240q0 116 74.5 183.5T297 491q104 0 178.5-67.5T550 240 475.5 56.5 297-11q-103 0-177.5 67.5T45 240zm448 0q0 91-56 144t-139 53-139.5-53T102 240t56.5-144T298 43t139 53 56 144zm-94 316h-61l72 145h64zm-153 0h-61l72 145h64z"/><glyph glyph-name="OE" unicode="Œ" horiz-adv-x="1027" d="M534 0q-49-11-122-11-88 0-159 31t-115 83-67 115.5T48 350t23 131.5T138 597t115 83 159 31q73 0 122-11h435v-57H593V381h346v-57H593V57h382V0H534zM110 350q0-127 82-216t224-89q65 0 119 14v582q-54 14-119 14-142 0-224-89t-82-216z"/><glyph glyph-name="oe" unicode="œ" horiz-adv-x="987" d="M517 130q-29-68-88.5-104.5T295-11q-103 0-176.5 67.5T45 240t73.5 183.5T295 491q75 0 134.5-37T517 350q27 67 84 104t123 37q52 0 94-17t67-45 41.5-64.5 18-76T940 209H546q6-83 67-125.5T758 41q85 0 152 39V27q-65-38-164-38-76 0-139 35.5T517 130zM102 240q0-91 55-144t139-53q83 0 138 53t55 144-55 144-138 53q-84 0-139-53t-55-144zm625 199q-73 0-125-47.5T546 259h344q7 66-32.5 123T727 439z"/><glyph glyph-name="Racute" unicode="Ŕ" horiz-adv-x="690" d="M156 0H97v700h269q49 0 92-11t81-34 60.5-65 22.5-98q0-93-58-143t-144-61L669 0h-74L351 283H156V0zm1 643V340h213q80 0 136 36t56 116-55.5 115.5T370 643H157zm189 130h-62l90 142h71z"/><glyph glyph-name="racute" unicode="ŕ" horiz-adv-x="354" d="M129 369q27 55 85 90t127 31v-57q-76 6-131-34.5T135 293V0H78v480h51V369zm78 184h-62l90 142h71z"/><glyph glyph-name="Rcommaaccent" unicode="Ŗ" horiz-adv-x="690" d="M156 0H97v700h269q49 0 92-11t81-34 60.5-65 22.5-98q0-93-58-143t-144-61L669 0h-74L351 283H156V0zm1 643V340h213q80 0 136 36t56 116-55.5 115.5T370 643H157zm202-867h-50l23 180h57z"/><glyph glyph-name="rcommaaccent" unicode="ŗ" horiz-adv-x="354" d="M129 369q27 55 85 90t127 31v-57q-76 6-131-34.5T135 293V0H78v480h51V369zm-25-593H54L77-44h57z"/><glyph glyph-name="Rcaron" unicode="Ř" horiz-adv-x="690" d="M156 0H97v700h269q49 0 92-11t81-34 60.5-65 22.5-98q0-93-58-143t-144-61L669 0h-74L351 283H156V0zm1 643V340h213q80 0 136 36t56 116-55.5 115.5T370 643H157zm339 258L366 764h-51L186 901h65l90-94 90 94h65z"/><glyph glyph-name="rcaron" unicode="ř" horiz-adv-x="354" d="M129 369q27 55 85 90t127 31v-57q-76 6-131-34.5T135 293V0H78v480h51V369zm228 312L227 544h-51L47 681h65l90-94 90 94h65z"/><glyph glyph-name="Sacute" unicode="Ś" horiz-adv-x="577" d="M54 533q0 86 67 132t164 46q121 0 206-49v-60q-84 53-202 53-77 0-126-29.5T114 535q0-40 23.5-68.5t61-46 83-32 91-31 83-38.5 61-60 23.5-89q0-63-36-105T414 5.5 292-11Q160-11 53 48v59q106-62 235-62 85 0 138.5 29t53.5 92q0 42-23.5 72.5t-61 48.5-83 33-91 31.5-83 37.5-61 57.5T54 533zm232 240h-62l90 142h71z"/><glyph glyph-name="sacute" unicode="ś" horiz-adv-x="461" d="M50 360q0 66 52 98.5T226 491q94 0 167-41v-54q-69 44-163 44-51 0-87-19.5T107 361q0-34 32.5-56t79.5-34.5 93.5-27 79-45.5 32.5-79q0-67-54-98.5T234-11Q120-11 49 36v56q76-51 182-51 136 0 136 76 0 34-32.5 55.5t-79.5 34-93.5 27.5-79 46.5T50 360zm182 193h-62l90 142h71z"/><glyph glyph-name="Scedilla" unicode="Ş" horiz-adv-x="576" d="M114 535q0-40 23.5-68.5t61-46 83-32 91-31 83-38.5 61-60 23.5-89q0-85-60.5-129.5T324-10l-16-64q48 6 79.5-12.5T420-143q1-42-32-65t-92-23q-55 0-98 20v49q41-23 92-23 81 0 81 44 0 25-39 33t-81-3l23 100Q152-8 53 48v59q106-62 235-62 85 0 138.5 29t53.5 92q0 42-23.5 72.5t-61 48.5-83 33-91 31.5-83 37.5-61 57.5T54 533q0 86 67 132t164 46q121 0 206-49v-60q-84 53-202 53-77 0-126-29.5T114 535z"/><glyph glyph-name="scedilla" unicode="ş" horiz-adv-x="461" d="M107 361q0-34 32.5-56t79.5-34.5 93.5-27 79-45.5 32.5-79q0-60-44-91.5T265-10l-14-64q48 6 79.5-12.5T363-143q1-42-32-65t-92-23q-55 0-98 20v49q41-23 92-23 81 0 81 44 0 25-39 33t-81-3l22 100Q114-6 49 36v56q76-51 182-51 136 0 136 76 0 34-32.5 55.5t-79.5 34-93.5 27.5-79 46.5T50 360q0 66 52 98.5T226 491q94 0 167-41v-54q-69 44-163 44-51 0-87-19.5T107 361z"/><glyph glyph-name="Scaron" unicode="Š" horiz-adv-x="577" d="M54 533q0 86 67 132t164 46q121 0 206-49v-60q-84 53-202 53-77 0-126-29.5T114 535q0-40 23.5-68.5t61-46 83-32 91-31 83-38.5 61-60 23.5-89q0-63-36-105T414 5.5 292-11Q160-11 53 48v59q106-62 235-62 85 0 138.5 29t53.5 92q0 42-23.5 72.5t-61 48.5-83 33-91 31.5-83 37.5-61 57.5T54 533zm382 368L306 764h-51L126 901h65l90-94 90 94h65z"/><glyph glyph-name="scaron" unicode="š" horiz-adv-x="461" d="M50 360q0 66 52 98.5T226 491q94 0 167-41v-54q-69 44-163 44-51 0-87-19.5T107 361q0-34 32.5-56t79.5-34.5 93.5-27 79-45.5 32.5-79q0-67-54-98.5T234-11Q120-11 49 36v56q76-51 182-51 136 0 136 76 0 34-32.5 55.5t-79.5 34-93.5 27.5-79 46.5T50 360zm332 321L252 544h-51L72 681h65l90-94 90 94h65z"/><glyph glyph-name="Tcommaaccent" unicode="Ţ" horiz-adv-x="599" d="M14 700h571v-57H329V0h-59v643H14v57zm286-924h-50l23 180h57z"/><glyph glyph-name="tcommaaccent" unicode="ţ" horiz-adv-x="393" d="M106 633l56 15V480h201v-53H162V149q0-56 27-81t84-25q54 0 105 22V13q-53-23-120-23-71 0-111.5 38T106 139v288H16v53h90v153zm138-857h-50l23 180h57z"/><glyph glyph-name="Tcaron" unicode="Ť" horiz-adv-x="599" d="M14 700h571v-57H329V0h-59v643H14v57zm446 201L330 764h-51L150 901h65l90-94 90 94h65z"/><glyph glyph-name="tcaron" unicode="ť" horiz-adv-x="393" d="M263 730h56l-25-166h-49zm-157-97l56 15V480h201v-53H162V149q0-56 27-81t84-25q54 0 105 22V13q-53-23-120-23-71 0-111.5 38T106 139v288H16v53h90v153z"/><glyph glyph-name="Tbar" unicode="Ŧ" horiz-adv-x="609" d="M334 0h-59v327H147v50h128v266H19v57h571v-57H334V377h128v-50H334V0z"/><glyph glyph-name="tbar" unicode="ŧ" horiz-adv-x="393" d="M162 149q0-56 27-81t84-25q54 0 105 22V13q-53-23-120-23-71 0-111.5 38T106 139v112H55v50h51v126H16v53h90v153l56 15V480h201v-53H162V301h161v-50H162V149z"/><glyph glyph-name="Umacron" unicode="Ū" horiz-adv-x="751" d="M603 700h59V250q0-137-79-199T376-11q-61 0-111 14t-90.5 43-63 81T89 250v450h59V252q0-207 228-207 227 0 227 207v448zM235 847h280v-52H235v52z"/><glyph glyph-name="umacron" unicode="ū" d="M447 480h57V0h-52v86q-28-39-76.5-68T266-11q-88 0-141 53T72 184v296h57V191q0-73 38-111.5T272 41q58 0 102.5 32t72.5 78v329zM151 627h280v-52H151v52z"/><glyph glyph-name="Uring" unicode="Ů" horiz-adv-x="751" d="M603 700h59V250q0-137-79-199T376-11q-61 0-111 14t-90.5 43-63 81T89 250v450h59V252q0-207 228-207 227 0 227 207v448zM476 849q0-44-30-71.5T374 750t-72.5 27.5T271 849q0 43 30.5 70t72.5 27q41 0 71.5-27t30.5-70zm-161-1q0-27 17.5-42.5T374 790t41.5 15.5T433 848q0 26-17.5 42T374 906t-41.5-16-17.5-42z"/><glyph glyph-name="uring" unicode="ů" d="M447 480h57V0h-52v86q-28-39-76.5-68T266-11q-88 0-141 53T72 184v296h57V191q0-73 38-111.5T272 41q58 0 102.5 32t72.5 78v329zm-55 149q0-44-30-71.5T290 530t-72.5 27.5T187 629q0 43 30.5 70t72.5 27q41 0 71.5-27t30.5-70zm-161-1q0-27 17.5-42.5T290 570t41.5 15.5T349 628q0 26-17.5 42T290 686t-41.5-16-17.5-42z"/><glyph glyph-name="Uhungarumlaut" unicode="Ű" horiz-adv-x="751" d="M603 700h59V250q0-137-79-199T376-11q-61 0-111 14t-90.5 43-63 81T89 250v450h59V252q0-207 228-207 227 0 227 207v448zm-126 79h-61l72 145h64zm-153 0h-61l72 145h64z"/><glyph glyph-name="uhungarumlaut" unicode="ű" d="M447 480h57V0h-52v86q-28-39-76.5-68T266-11q-88 0-141 53T72 184v296h57V191q0-73 38-111.5T272 41q58 0 102.5 32t72.5 78v329zm-54 79h-61l72 145h64zm-153 0h-61l72 145h64z"/><glyph glyph-name="Uogonek" unicode="Ų" horiz-adv-x="751" d="M558-211q-33-21-78-21-44-1-69 23t-25 61q0 33 21 73.5T462-1q-37-10-86-10-61 0-111 14t-90.5 43-63 81T89 250v450h59V252q0-207 228-207 227 0 227 207v448h59V250q0-145-96-212-62-43-94-91t-32-83q0-23 14-36t40-13q33 0 64 20v-46z"/><glyph glyph-name="uogonek" unicode="ų" d="M504 480V0q-45-30-73-68t-27-69q-1-22 12.5-35t37.5-13q26 0 50 12v-47q-30-11-63-11-43 0-67 22.5T350-149q0 74 102 167v68q-28-39-76.5-68T266-11q-88 0-141 53T72 184v296h57V191q0-73 38-111.5T272 41q58 0 102.5 32t72.5 78v329h57z"/><glyph glyph-name="Wcircumflex" unicode="Ŵ" horiz-adv-x="1004" d="M917 700h65L760 0h-66L502 598 309 0h-65L22 700h65L277 74l198 623h54L727 74zM479 911h51l130-137h-65l-90 94-90-94h-65z"/><glyph glyph-name="wcircumflex" unicode="ŵ" horiz-adv-x="801" d="M718 480h60L605 0h-61L400 400 256 0h-60L23 480h60L226 64l148 413h52L574 64zM377 691h51l130-137h-65l-90 94-90-94h-65z"/><glyph glyph-name="Ycircumflex" unicode="Ŷ" horiz-adv-x="644" d="M352 0h-60v273L17 700h66l239-373 239 373h66L352 273V0zm-52 911h51l130-137h-65l-90 94-90-94h-65z"/><glyph glyph-name="ycircumflex" unicode="ŷ" horiz-adv-x="536" d="M278 63l179 417h60L274-79q-67-152-172-152-24 0-51 6v50q22-6 44-6 42 0 73.5 30T226-58l24 56L14 480h60zm-40 628h51l130-137h-65l-90 94-90-94h-65z"/><glyph glyph-name="Ydieresis" unicode="Ÿ" horiz-adv-x="644" d="M352 0h-60v273L17 700h66l239-373 239 373h66L352 273V0zm112 836q0-17-12-29t-29-12-29.5 12-12.5 29 12.5 29.5T423 878t29-12.5 12-29.5zm-201 0q0-17-12-29t-29-12-29.5 12-12.5 29 12.5 29.5T222 878t29-12.5 12-29.5z"/><glyph glyph-name="Zacute" unicode="Ź" horiz-adv-x="580" d="M548 0H31v53l433 590H45v57h491v-53L102 57h446V0zM303 773h-62l90 142h71z"/><glyph glyph-name="zacute" unicode="ź" horiz-adv-x="456" d="M47 480h360v-50L102 50h321V0H34v50l306 380H47v50zm195 73h-62l90 142h71z"/><glyph glyph-name="Zdotaccent" unicode="Ż" horiz-adv-x="580" d="M548 0H31v53l433 590H45v57h491v-53L102 57h446V0zM246 823q0 21 13.5 33t33.5 12 33-12 13-33q0-22-13-34t-33-12-33.5 12-13.5 34z"/><glyph glyph-name="zdotaccent" unicode="ż" horiz-adv-x="456" d="M47 480h360v-50L102 50h321V0H34v50l306 380H47v50zm138 123q0 21 13.5 33t33.5 12 33-12 13-33q0-22-13-34t-33-12-33.5 12-13.5 34z"/><glyph glyph-name="Zcaron" unicode="Ž" horiz-adv-x="580" d="M548 0H31v53l433 590H45v57h491v-53L102 57h446V0zm-95 901L323 764h-51L143 901h65l90-94 90 94h65z"/><glyph glyph-name="zcaron" unicode="ž" horiz-adv-x="456" d="M47 480h360v-50L102 50h321V0H34v50l306 380H47v50zm345 201L262 544h-51L82 681h65l90-94 90 94h65z"/><glyph glyph-name="Scommaaccent" unicode="Ș" horiz-adv-x="577" d="M54 533q0 86 67 132t164 46q121 0 206-49v-60q-84 53-202 53-77 0-126-29.5T114 535q0-40 23.5-68.5t61-46 83-32 91-31 83-38.5 61-60 23.5-89q0-63-36-105T414 5.5 292-11Q160-11 53 48v59q106-62 235-62 85 0 138.5 29t53.5 92q0 42-23.5 72.5t-61 48.5-83 33-91 31.5-83 37.5-61 57.5T54 533zm239-757h-50l23 180h57z"/><glyph glyph-name="scommaaccent" unicode="ș" horiz-adv-x="461" d="M50 360q0 66 52 98.5T226 491q94 0 167-41v-54q-69 44-163 44-51 0-87-19.5T107 361q0-34 32.5-56t79.5-34.5 93.5-27 79-45.5 32.5-79q0-67-54-98.5T234-11Q120-11 49 36v56q76-51 182-51 136 0 136 76 0 34-32.5 55.5t-79.5 34-93.5 27.5-79 46.5T50 360zm189-584h-50l23 180h57z"/><glyph glyph-name="uni021A" unicode="Ț" horiz-adv-x="599" d="M14 700h571v-57H329V0h-59v643H14v57zm286-924h-50l23 180h57z"/><glyph glyph-name="uni021B" unicode="ț" horiz-adv-x="393" d="M106 633l56 15V480h201v-53H162V149q0-56 27-81t84-25q54 0 105 22V13q-53-23-120-23-71 0-111.5 38T106 139v288H16v53h90v153zm138-857h-50l23 180h57z"/><glyph glyph-name="circumflex" unicode="ˆ" horiz-adv-x="299" d="M124 911h51l130-137h-65l-90 94-90-94H-5z"/><glyph glyph-name="caron" unicode="ˇ" horiz-adv-x="299" d="M305 901L175 764h-51L-5 901h65l90-94 90 94h65z"/><glyph glyph-name="breve" unicode="˘" horiz-adv-x="329" d="M298 815q-56-41-134-41-79 0-133 41v57q60-44 133-44t134 44v-57z"/><glyph glyph-name="dotaccent" unicode="˙" horiz-adv-x="101" d="M4 823q0 21 13.5 33T51 868t33-12 13-33q0-22-13-34t-33-12-33.5 12T4 823z"/><glyph glyph-name="ring" unicode="˚" horiz-adv-x="213" d="M209 849q0-44-30-71.5T107 750t-72.5 27.5T4 849q0 43 30.5 70t72.5 27q41 0 71.5-27t30.5-70zm-161-1q0-27 17.5-42.5T107 790t41.5 15.5T166 848q0 26-17.5 42T107 906t-41.5-16T48 848z"/><glyph glyph-name="ogonek" unicode="˛" horiz-adv-x="210" d="M104 0h68q-46-31-75-68t-28-68q-1-23 13-36t40-13q34 0 65 20v-46q-33-21-78-21-44-1-69 23t-25 61q0 75 89 148z"/><glyph glyph-name="tilde" unicode="˜" horiz-adv-x="333" d="M322 866q6-43-15-67.5T250 774q-32 0-86 24t-70 24q-18 0-26.5-12T61 779H11q-6 42 15 67.5T81 872q31 0 86-24t71-24q37 0 34 42h50z"/><glyph glyph-name="hungarumlaut" unicode="˝" horiz-adv-x="343" d="M241 779h-61l72 145h64zm-153 0H27l72 145h64z"/><glyph glyph-name="uni0326" unicode="̦" horiz-adv-x="120" d="M70-224H20L43-44h57z"/><glyph glyph-name="uni0401" unicode="Ё" horiz-adv-x="619" d="M475 836q0-17-12-29t-29-12-29.5 12-12.5 29 12.5 29.5T434 878t29-12.5 12-29.5zm-201 0q0-17-12-29t-29-12-29.5 12-12.5 29 12.5 29.5T233 878t29-12.5 12-29.5zM97 700h465v-57H156V381h376v-57H156V57h413V0H97v700z"/><glyph glyph-name="uni0410" unicode="А" horiz-adv-x="713" d="M75 0H11l312 700h67L701 0h-64l-83 188H159zm272 617L182 244h348L365 617q-3 8-9 22-6-14-9-22z"/><glyph glyph-name="uni0411" unicode="Б" horiz-adv-x="662" d="M156 408h192q276 0 276-204T348 0H97v700h474v-57H156V408zm1-351h194q47 0 80.5 5t66 19.5 49.5 45 17 77.5-17 77.5-49.5 45-66 19.5-80.5 5H157V57z"/><glyph glyph-name="uni0412" unicode="В" horiz-adv-x="685" d="M97 700h272q110 0 173.5-44.5T606 524q0-65-36.5-104.5T480 368q62-13 107.5-55T634 190q0-46-18-81.5T571.5 53 508 20.5 439 4t-68-4H97v700zm477-504q0 140-185 140H157V57h203q35 0 60 2t56 10 51 22 33.5 41 13.5 64zm-28 320q0 127-181 127H157V392h237q65 0 108.5 30.5T546 516z"/><glyph glyph-name="uni0413" unicode="Г" horiz-adv-x="567" d="M156 0H97v700h456v-57H156V0z"/><glyph glyph-name="uni0414" unicode="Д" horiz-adv-x="758" d="M75-170H18V57h79q122 219 122 643h420V57h87v-227h-57V0H75v-170zm205 813Q267 252 164 57h416v586H280z"/><glyph glyph-name="uni0415" unicode="Е" horiz-adv-x="619" d="M97 700h465v-57H156V381h376v-57H156V57h413V0H97v700z"/><glyph glyph-name="uni0416" unicode="Ж" horiz-adv-x="935" d="M77 0H9l234 359L33 700h68l189-314h148v314h59V386h147l190 314h68L692 359 926 0h-68L643 330H497V0h-59v330H291z"/><glyph glyph-name="uni0417" unicode="З" horiz-adv-x="607" d="M557 188q0-53-24-93t-64.5-62.5-87-33T285-11Q147-11 40 32v60q101-47 241-47 56 0 102 12.5t80 47.5 34 89q0 53-33.5 86t-78 44.5T285 336H147v56h132q86 0 137.5 34.5T468 522q0 68-54 100.5T270 655q-115 0-218-48v60q98 44 222 44 112 0 183-46.5T528 529q0-64-38-106t-101-57q69-11 118.5-54.5T557 188z"/><glyph glyph-name="uni0418" unicode="И" horiz-adv-x="766" d="M669 0h-59v600L151 0H97v700h59V101l459 599h54V0z"/><glyph glyph-name="uni0419" unicode="Й" horiz-adv-x="766" d="M610 0h59v700h-54L156 101v599H97V0h54l459 600V0zm-94 815q-56-41-134-41-79 0-133 41v57q60-44 133-44t134 44v-57z"/><glyph glyph-name="uni041A" unicode="К" horiz-adv-x="660" d="M156 0H97v700h59V386h183l226 314h68L388 359 657 0h-69L341 330H156V0z"/><glyph glyph-name="uni041B" unicode="Л" horiz-adv-x="740" d="M230 700h413V0h-59v643H287q-5-64-8.5-99.5t-9.5-95-11.5-94-13.5-84-17.5-79-21.5-66T178 68t-33.5-41T104-1.5 56-10Q29-10 0 0v57q20-8 47-8 39 0 68 37t47 95.5T193 328t21 173.5T230 695v5z"/><glyph glyph-name="uni041C" unicode="М" horiz-adv-x="901" d="M754 700h50V0h-59v586L469 178h-37L156 586V0H97v700h50l304-449z"/><glyph glyph-name="uni041D" unicode="Н" horiz-adv-x="766" d="M610 700h59V0h-59v323H156V0H97v700h59V380h454v320z"/><glyph glyph-name="uni041E" unicode="О" horiz-adv-x="824" d="M48 350q0 68 23 131.5T138 597t115 83 159 31 159-31 115-83 67-115.5T776 350t-23-131.5T686 103 571 20 412-11 253 20t-115 83-67 115.5T48 350zm668 0q0 79-32 146.5t-103 113T412 655t-169-45.5-103-113T108 350t32-146.5 103-113T412 45t169 45.5 103 113T716 350z"/><glyph glyph-name="uni041F" unicode="П" horiz-adv-x="751" d="M156 0H97v700h557V0h-59v643H156V0z"/><glyph glyph-name="uni0420" unicode="Р" horiz-adv-x="657" d="M97 700h230q295 0 295-222 0-223-295-223H156V0H97v700zm465-222q0 92-62.5 128.5T330 643H157V312h173q232 0 232 166z"/><glyph glyph-name="uni0421" unicode="С" horiz-adv-x="660" d="M50 343q0 88 31.5 160T165 619.5t116 68T414 711q110 0 196-47v-60q-79 51-187 51-59 0-113.5-19.5t-100-56.5-72.5-98-27-138q0-73 27.5-131.5t73-94 101-54T426 45q112 0 191 51V37q-88-48-203-48-67 0-131 23T166.5 77.5 82 189 50 343z"/><glyph glyph-name="uni0422" unicode="Т" horiz-adv-x="599" d="M14 700h571v-57H329V0h-59v643H14v57z"/><glyph glyph-name="uni0423" unicode="У" horiz-adv-x="627" d="M364 159q-47-96-99-133T151-11q-45 0-87 12v56q44-12 77-12 47 0 83 23t70 85l12 25L11 700h66l261-466 227 466h64z"/><glyph glyph-name="uni0424" unicode="Ф" horiz-adv-x="854" d="M457-36h-60v92q-169 3-268 80T30 350t99 214 268 80v92h60v-92q169-3 268-80t99-214-99-214-268-80v-92zM90 350q0-111 80-173.5T397 110v480q-147-4-227-66.5T90 350zm367 240V110q148 4 227.5 66.5T764 350t-79.5 173.5T457 590z"/><glyph glyph-name="uni0425" unicode="Х" horiz-adv-x="629" d="M77 0H6l273 360L21 700h71l223-293 223 293h70L350 360 623 0h-70L315 313z"/><glyph glyph-name="uni0426" unicode="Ц" horiz-adv-x="774" d="M742-170h-57l1 170H97v700h59V57h440v643h60V57h86v-227z"/><glyph glyph-name="uni0427" unicode="Ч" horiz-adv-x="680" d="M583 0h-60v283q-105-37-216-37-123 2-191 61.5T48 483v217h59V480q0-175 214-177 101-2 202 37v360h60V0z"/><glyph glyph-name="uni0428" unicode="Ш" horiz-adv-x="1061" d="M964 0H97v700h59V57h345v643h59V57h345v643h59V0z"/><glyph glyph-name="uni0429" unicode="Щ" horiz-adv-x="1083" d="M1051-170h-57l1 170H97v700h59V57h345v643h59V57h345v643h59V57h87v-227z"/><glyph glyph-name="uni042A" unicode="Ъ" horiz-adv-x="755" d="M425 0H195v643H13v57h241V444h171q295 0 295-222T425 0zM254 387V57h173q107 0 169.5 36.5T659 222q0 165-232 165H254z"/><glyph glyph-name="uni042B" unicode="Ы" horiz-adv-x="869" d="M327 0H97v700h59V444h171q295 0 295-222T327 0zM157 387V57h173q107 0 169.5 36.5T562 222q0 165-232 165H157zM772 0h-59v700h59V0z"/><glyph glyph-name="uni042C" unicode="Ь" horiz-adv-x="657" d="M327 0H97v700h59V444h171q295 0 295-222T327 0zM157 387V57h173q107 0 169.5 36.5T562 222q0 165-232 165H157z"/><glyph glyph-name="uni042D" unicode="Э" horiz-adv-x="656" d="M46 664q86 47 198 47 68 0 131.5-23t116-67 84-116T607 344t-31.5-159T491 73.5t-116.5-63T242-11Q133-11 46 37v61q82-53 188-53 125 0 216 70t97 207H163v56h383q-6 90-53 154.5T379.5 626 236 655q-111 0-190-51v60z"/><glyph glyph-name="uni042E" unicode="Ю" horiz-adv-x="1084" d="M1036 350q0-68-23-131.5T946 103 831 20 672-11q-163 0-257.5 98T310 322H156V0H97v700h59V378h154q10 137 104.5 235T672 711q88 0 159-31t115-83 67-115.5 23-131.5zm-667 0q0-79 32-146.5t103-113T673 45t169 45.5 103 113T977 350t-32 146.5-103 113T673 655t-169-45.5-103-113T369 350z"/><glyph glyph-name="uni042F" unicode="Я" horiz-adv-x="682" d="M105 0H33l211 271q-83 18-133 71.5T61 482q0 106 75.5 162T326 700h259V0h-59v263H310zm17 482q0-80 56-121t145-41h202v323H323q-89 0-145-41t-56-120z"/><glyph glyph-name="uni0430" unicode="а" horiz-adv-x="546" d="M455 87q0-42 43-42 16 0 37 7V6Q508-4 483-4q-76 0-83 74-75-81-197-81-69 0-118 36.5T36 131q0 82 62 119.5T248 288q77 0 151-21v32q0 64-40 102t-113 38q-92 0-172-34v56q85 30 178 30 96 0 149.5-52T455 292V87zM94 134q0-47 35-71.5T214 38q55 0 104 24.5t81 69.5v88q-76 20-143 20-68 0-115-25.5T94 134z"/><glyph glyph-name="uni0431" unicode="б" horiz-adv-x="587" d="M542 225q0-108-67-172T299-11q-111 0-179.5 75T51 266q0 114 41.5 199.5T201 593q57 35 118.5 51T425 671.5t72 39.5v-60q-28-22-68.5-32.5t-93-24.5T234 551q-93-57-126-206 27 53 81 84t118 31q99 0 167-65.5T542 225zm-434 12q0-84 52.5-139T298 43q86 0 137 50.5T486 224t-51 131-135 51q-76 0-130-47.5T108 237z"/><glyph glyph-name="uni0432" unicode="в" horiz-adv-x="545" d="M342 0H78v480h254q66 0 106.5-33.5T479 353q0-39-20-68t-53-40q38-10 63.5-39t25.5-76q0-61-40.5-95.5T342 0zM134 218V50h199q105 0 105 83 0 85-101 85H134zm0 212V268h193q94 0 94 80 0 41-26.5 61.5T325 430H134z"/><glyph glyph-name="uni0433" unicode="г" horiz-adv-x="439" d="M135 0H78v480h345v-53H135V0z"/><glyph glyph-name="uni0434" unicode="д" horiz-adv-x="622" d="M81-133H26V51h63q46 88 67 188.5T176 480h343V51h70v-184h-56V0H81v-133zm149 562q-3-216-80-378h313v378H230z"/><glyph glyph-name="uni0435" unicode="е" horiz-adv-x="546" d="M45 240q0 117 71.5 184T282 491q53 0 95-16.5t67.5-44.5 42.5-64 18.5-74.5T501 214H102q5-86 66-129.5T317 41q90 0 157 39V24q-65-35-165-35-113 0-188.5 64T45 240zm406 24q7 63-33.5 119T286 439q-74 0-127-46.5T102 264h349z"/><glyph glyph-name="uni0436" unicode="ж" horiz-adv-x="736" d="M727 0h-64L480 216h-84V0h-56v216h-84L73 0H9l202 244L34 480h63l161-212h82v212h56V268h82l161 212h63L525 244z"/><glyph glyph-name="uni0437" unicode="з" horiz-adv-x="471" d="M423 128q0-68-57-103.5T214-11Q114-11 40 25v54q73-38 168-38 158 0 158 93 0 44-34 64t-79 20H141v52h112q103 5 103 78 0 45-40.5 68T210 439q-86 0-163-36v53q82 36 169 36 92 0 144.5-36.5T413 355q0-43-24.5-71.5T321 246q43-11 72.5-42t29.5-76z"/><glyph glyph-name="uni0438" unicode="и" horiz-adv-x="587" d="M127 0H78v480h57V91l325 389h49V0h-56v389z"/><glyph glyph-name="uni0439" unicode="й" horiz-adv-x="587" d="M427 599q-56-41-134-41-79 0-133 41v53q60-44 133-44t134 44v-53zM127 0H78v480h57V91l325 389h49V0h-56v389z"/><glyph glyph-name="uni043A" unicode="к" horiz-adv-x="512" d="M135 0H78v480h57V272h111l168 208h66L291 244 505 0h-67L243 219H135V0z"/><glyph glyph-name="uni043B" unicode="л" horiz-adv-x="590" d="M230 427q-6-105-16-180t-29-135-49.5-89.5T62-7Q35-7 11 2v46q14-6 34-6 63 0 92.5 110T174 480h338V0h-56v427H230z"/><glyph glyph-name="uni043C" unicode="м" horiz-adv-x="667" d="M132 0H78v480h62l194-284 194 284h61V0h-54v396L355 133h-42L132 396V0z"/><glyph glyph-name="uni043D" unicode="н" horiz-adv-x="581" d="M135 0H78v480h57V266h312v214h56V0h-56v214H135V0z"/><glyph glyph-name="uni043E" unicode="о" horiz-adv-x="595" d="M45 240q0 116 74.5 183.5T297 491q104 0 178.5-67.5T550 240 475.5 56.5 297-11q-103 0-177.5 67.5T45 240zm448 0q0 91-56 144t-139 53-139.5-53T102 240t56.5-144T298 43t139 53 56 144z"/><glyph glyph-name="uni043F" unicode="п" horiz-adv-x="581" d="M135 0H78v480h425V0h-56v427H135V0z"/><glyph glyph-name="uni0440" unicode="р" horiz-adv-x="618" d="M129 381q76 110 205 110 103 0 171-70.5T573 240 505 59.5 334-11q-67 0-118 29.5T135 93v-313H78v700h51v-99zm387-141q0 90-54 144.5T327 439q-67 0-119-38.5T134 305V175q22-57 74-95.5T327 41q82 0 135.5 54T516 240z"/><glyph glyph-name="uni0441" unicode="с" horiz-adv-x="498" d="M45 237q0 84 39.5 143.5t96.5 85T304 491q88 0 145-39v-55q-56 42-138 42-86 0-147.5-51T102 238q0-95 59.5-146T305 41q83 0 149 39V23q-68-34-157-34-102 0-177 64T45 237z"/><glyph glyph-name="uni0442" unicode="т" horiz-adv-x="461" d="M259 0h-57v427H16v53h429v-53H259V0z"/><glyph glyph-name="uni0443" unicode="у" horiz-adv-x="536" d="M278 63l179 417h60L274-79q-67-152-172-152-24 0-51 6v50q22-6 44-6 42 0 73.5 30T226-58l24 56L14 480h60z"/><glyph glyph-name="uni0444" unicode="ф" horiz-adv-x="713" d="M385-220h-57v209Q204-9 124 58.5T44 240t80 181.5T328 491v209h57V491q124-2 204-70t80-181-80-181-204-70v-209zM101 240q0-92 62.5-145.5T328 39v402q-102-2-164.5-55.5T101 240zm284 201V39q102 2 164.5 55.5T612 240t-62.5 145.5T385 441z"/><glyph glyph-name="uni0445" unicode="х" horiz-adv-x="488" d="M397 480h66L277 247 473 0h-66L244 206 81 0H15l197 247L25 480h66l153-193z"/><glyph glyph-name="uni0446" unicode="ц" horiz-adv-x="597" d="M563-133h-55V0H78v480h57V53h302v427h56V53h70v-186z"/><glyph glyph-name="uni0447" unicode="ч" horiz-adv-x="520" d="M442 0h-57v175q-66-28-153-28-88 0-138.5 42.5T43 318v162h57V322q0-123 148-123 76 0 137 26v255h57V0z"/><glyph glyph-name="uni0448" unicode="ш" horiz-adv-x="813" d="M735 0H78v480h57V53h243v427h57V53h243v427h57V0z"/><glyph glyph-name="uni0449" unicode="щ" horiz-adv-x="838" d="M804-133h-55V0H78v480h57V53h243v427h57V53h243v427h57V53h69v-186z"/><glyph glyph-name="uni044A" unicode="ъ" horiz-adv-x="585" d="M208 305h163q83 0 133-43t50-109q0-67-50-110T371 0H151v430H17v50h191V305zm0-254h156q62 0 97.5 27t35.5 75-36 74.5-97 26.5H208V51z"/><glyph glyph-name="uni044B" unicode="ы" horiz-adv-x="711" d="M298 0H78v480h57V305h163q83 0 133-43t50-109q0-67-50-110T298 0zM134 254V51h156q62 0 97.5 27t35.5 75-36 74.5-97 26.5H134zM633 0h-57v480h57V0z"/><glyph glyph-name="uni044C" unicode="ь" horiz-adv-x="513" d="M298 0H78v480h57V305h163q83 0 133-43t50-109q0-67-50-110T298 0zM134 254V51h156q62 0 97.5 27t35.5 75-36 74.5-97 26.5H134z"/><glyph glyph-name="uni044D" unicode="э" horiz-adv-x="505" d="M460 234q0-122-74-183.5T211-11q-92 0-168 42v53q74-43 158-43t140.5 41.5T402 214H136v52h266q-7 87-67 130t-144 43q-78 0-143-44v53q66 43 149 43 50 0 95.5-15.5T376 430t61-80.5T460 234z"/><glyph glyph-name="uni044E" unicode="ю" horiz-adv-x="813" d="M768 240q0-116-74-183.5T516-11q-97 0-169.5 60.5T265 214H135V0H78v480h57V266h130q9 104 81.5 164.5T516 491q104 0 178-67.5T768 240zm-448 0q0-91 56.5-144T516 43t139 53 56 144-56 144-139 53-139.5-53T320 240z"/><glyph glyph-name="uni044F" unicode="я" horiz-adv-x="541" d="M100 0H33l143 184q-57 14-89 53t-32 92q0 65 48 108t131 43h229V0h-57v178H237zm12 329q0-46 34-73t93-27h168v200H239q-60 0-93.5-27T112 329z"/><glyph glyph-name="uni0451" unicode="ё" horiz-adv-x="546" d="M423 616q0-17-12-29t-29-12-29.5 12-12.5 29 12.5 29.5T382 658t29-12.5 12-29.5zm-201 0q0-17-12-29t-29-12-29.5 12-12.5 29 12.5 29.5T181 658t29-12.5 12-29.5zM45 240q0 117 71.5 184T282 491q53 0 95-16.5t67.5-44.5 42.5-64 18.5-74.5T501 214H102q5-86 66-129.5T317 41q90 0 157 39V24q-65-35-165-35-113 0-188.5 64T45 240zm406 24q7 63-33.5 119T286 439q-74 0-127-46.5T102 264h349z"/><glyph glyph-name="Wgrave" unicode="Ẁ" horiz-adv-x="1004" d="M917 700h65L760 0h-66L502 598 309 0h-65L22 700h65L277 74l198 623h54L727 74zm-362 73h-63l-98 142h71z"/><glyph glyph-name="wgrave" unicode="ẁ" horiz-adv-x="801" d="M718 480h60L605 0h-61L400 400 256 0h-60L23 480h60L226 64l148 413h52L574 64zm-265 73h-63l-98 142h71z"/><glyph glyph-name="Wacute" unicode="Ẃ" horiz-adv-x="1004" d="M917 700h65L760 0h-66L502 598 309 0h-65L22 700h65L277 74l198 623h54L727 74zm-407 73h-62l90 142h71z"/><glyph glyph-name="wacute" unicode="ẃ" horiz-adv-x="801" d="M718 480h60L605 0h-61L400 400 256 0h-60L23 480h60L226 64l148 413h52L574 64zm-310 73h-62l90 142h71z"/><glyph glyph-name="Wdieresis" unicode="Ẅ" horiz-adv-x="1004" d="M917 700h65L760 0h-66L502 598 309 0h-65L22 700h65L277 74l198 623h54L727 74zM643 836q0-17-12-29t-29-12-29.5 12-12.5 29 12.5 29.5T602 878t29-12.5 12-29.5zm-201 0q0-17-12-29t-29-12-29.5 12-12.5 29 12.5 29.5T401 878t29-12.5 12-29.5z"/><glyph glyph-name="wdieresis" unicode="ẅ" horiz-adv-x="801" d="M718 480h60L605 0h-61L400 400 256 0h-60L23 480h60L226 64l148 413h52L574 64zM541 616q0-17-12-29t-29-12-29.5 12-12.5 29 12.5 29.5T500 658t29-12.5 12-29.5zm-201 0q0-17-12-29t-29-12-29.5 12-12.5 29 12.5 29.5T299 658t29-12.5 12-29.5z"/><glyph glyph-name="Ygrave" unicode="Ỳ" horiz-adv-x="644" d="M352 0h-60v273L17 700h66l239-373 239 373h66L352 273V0zm24 773h-63l-98 142h71z"/><glyph glyph-name="ygrave" unicode="ỳ" horiz-adv-x="536" d="M278 63l179 417h60L274-79q-67-152-172-152-24 0-51 6v50q22-6 44-6 42 0 73.5 30T226-58l24 56L14 480h60zm36 490h-63l-98 142h71z"/><glyph glyph-name="endash" unicode="–" horiz-adv-x="571" d="M504 219H67v54h437v-54z"/><glyph glyph-name="emdash" unicode="—" horiz-adv-x="757" d="M690 219H67v54h623v-54z"/><glyph glyph-name="quoteleft" unicode="‘" horiz-adv-x="205" d="M110 477H50l66 223h47z"/><glyph glyph-name="quoteright" unicode="’" horiz-adv-x="201" d="M99 477H52l53 223h60z"/><glyph glyph-name="quotesinglbase" unicode="‚" horiz-adv-x="215" d="M76-147H29L82 77h60z"/><glyph glyph-name="quotedblleft" unicode="“" horiz-adv-x="339" d="M244 477h-60l66 223h47zm-134 0H50l66 223h47z"/><glyph glyph-name="quotedblright" unicode="”" horiz-adv-x="335" d="M233 477h-47l53 223h60zm-134 0H52l53 223h60z"/><glyph glyph-name="quotedblbase" unicode="„" horiz-adv-x="349" d="M210-147h-47l53 224h60zm-134 0H29L82 77h60z"/><glyph glyph-name="dagger" unicode="†" horiz-adv-x="499" d="M279-220h-59v643H33v57h187v220h59V480h187v-57H279v-643z"/><glyph glyph-name="daggerdbl" unicode="‡" horiz-adv-x="526" d="M293-220h-60V93H47v56h186v274H47v57h186v220h60V480h186v-57H293V149h186V93H293v-313z"/><glyph glyph-name="bullet" unicode="•" horiz-adv-x="312" d="M91 350q0 29 18.5 46t45.5 17q28 0 46.5-16.5T220 350t-18.5-46.5T155 287q-27 0-45.5 17T91 350z"/><glyph glyph-name="ellipsis" unicode="…" horiz-adv-x="535" d="M472 31q0-18-11.5-28.5T432-8 403.5 2.5 392 31t11.5 28.5T432 70t28.5-10.5T472 31zm-329 0q0-18-11.5-28.5T103-8 74.5 2.5 63 31t11.5 28.5T103 70t28.5-10.5T143 31zm165 0q0-18-11.5-28.5T268-8 239.5 2.5 228 31t11.5 28.5T268 70t28.5-10.5T308 31z"/><glyph glyph-name="perthousand" unicode="‰" horiz-adv-x="1264" d="M267-60h-57l409 820h57zm81 620q0-70-45.5-110.5T192 409q-66 0-112 40.5T34 560t46 110.5T192 711q65 0 110.5-40.5T348 560zm-260 0q0-45 28.5-73t75.5-28q46 0 74 28t28 73-28 73-74 28q-47 0-75.5-28T88 560zm763-420q0-70-45.5-110.5T695-11q-66 0-112 40.5T537 140t46 110.5T695 291q65 0 110.5-40.5T851 140zm-260 0q0-45 28.5-73T695 39q46 0 74 28t28 73-28 73-74 28q-47 0-75.5-28T591 140zm639 0q0-70-45.5-110.5T1074-11q-66 0-112 40.5T916 140t46 110.5 112 40.5q65 0 110.5-40.5T1230 140zm-260 0q0-45 28.5-73t75.5-28q46 0 74 28t28 73-28 73-74 28q-47 0-75.5-28T970 140z"/><glyph glyph-name="guilsinglleft" unicode="‹" horiz-adv-x="290" d="M230 63h-61L48 234v12l121 171h61L105 240z"/><glyph glyph-name="guilsinglright" unicode="›" horiz-adv-x="290" d="M121 63H60l125 177L60 417h61l121-171v-12z"/><glyph glyph-name="fraction" unicode="⁄" horiz-adv-x="167" d="M-130-12h-28l457 723h28z"/><glyph glyph-name="Euro" unicode="€" horiz-adv-x="733" d="M672 37q-88-48-197-48-119 0-216.5 67.5T132 246H43v50h80q-2 26-2 42 0 24 3 46H43v50h90q30 121 126 189t216 68q109 0 197-47v-60q-80 51-187 51-100 0-180.5-52.5T195 434h358v-50H185q-4-20-4-46 0-16 2-42h370v-50H195q28-97 110-149t182-52q105 0 185 51V37z"/><glyph glyph-name="trademark" unicode="™" horiz-adv-x="664" d="M341 447h-35v253h40l99-142 100 142h40V447h-35v203l-95-135h-20l-94 135V447zm-172 0h-36v220H45v33h212v-33h-88V447z"/><glyph glyph-name="oneeighth" unicode="⅛" horiz-adv-x="903" d="M551 310q0 42 38.5 73.5T700 415q67 0 108.5-33t43.5-79q2-63-56-103 70-34 70-96 0-46-41.5-78.5T703-7q-79 0-122.5 34.5T537 112q0 31 17.5 60.5T606 222q-55 34-55 88zm155-126q-42 12-57 18-62-30-62-84 0-37 31-58t87-21q49 0 80 17.5t31 45.5q0 23-15.5 39t-35 23.5T714 182q-5 1-8 2zm97 110q0 31-27.5 53T700 369q-44 0-71-17t-27-42q0-10 3-18.5t6-14.5 11.5-12 13-9 16.5-8 16.5-6.5 18.5-6 17-5.5q45-12 51-14 48 32 48 78zM207-12h-28l457 723h28zm-51 692h37V319h74v-47H51v47h93v308l-87-32v47z"/><glyph glyph-name="threeeighths" unicode="⅜" horiz-adv-x="948" d="M595 310q0 42 38.5 73.5T744 415q67 0 108.5-33t43.5-79q2-63-56-103 70-34 70-96 0-46-41.5-78.5T747-7q-79 0-122.5 34.5T581 112q0 31 17.5 60.5T650 222q-55 34-55 88zm155-126q-42 12-57 18-62-30-62-84 0-37 31-58t87-21q49 0 80 17.5t31 45.5q0 23-15.5 39t-35 23.5T758 182q-5 1-8 2zm97 110q0 31-27.5 53T744 369q-44 0-71-17t-27-42q0-10 3-18.5t6-14.5 11.5-12 13-9 16.5-8 16.5-6.5 18.5-6 17-5.5q45-12 51-14 48 32 48 78zM261-12h-28l457 723h28zm66 592q0-31-17-56t-44-34q77-24 77-103 0-57-42-87.5T194 269q-82 0-142 27v49q56-30 138-30 105 0 105 75 0 73-99 73h-63v47h57q43 0 66 18t23 48q0 32-25.5 50.5T182 645q-64 0-123-31v49q58 28 129 28 63 0 101-30.5t38-80.5z"/><glyph glyph-name="fiveeighths" unicode="⅝" horiz-adv-x="938" d="M585 310q0 42 38.5 73.5T734 415q67 0 108.5-33t43.5-79q2-63-56-103 70-34 70-96 0-46-41.5-78.5T737-7q-79 0-122.5 34.5T571 112q0 31 17.5 60.5T640 222q-55 34-55 88zm155-126q-42 12-57 18-62-30-62-84 0-37 31-58t87-21q49 0 80 17.5t31 45.5q0 23-15.5 39t-35 23.5T748 182q-5 1-8 2zm97 110q0 31-27.5 53T734 369q-44 0-71-17t-27-42q0-10 3-18.5t6-14.5 11.5-12 13-9 16.5-8 16.5-6.5 18.5-6 17-5.5q45-12 51-14 48 32 48 78zM251-12h-28l457 723h28zM74 680h245v-47H122l-8-117q37 10 70 10 65 0 110-32t45-99q0-61-44.5-95.5T181 265q-75 0-131 27v48q53-29 125-29 52 0 82.5 21.5T288 395q0 85-121 85-55 0-106-19z"/><glyph glyph-name="seveneighths" unicode="⅞" horiz-adv-x="842" d="M151-12h-28l457 723h28zm337 322q0 42 38.5 73.5T637 415q67 0 108.5-33t43.5-79q2-63-56-103 70-34 70-96 0-46-41.5-78.5T640-7q-79 0-122.5 34.5T474 112q0 31 17.5 60.5T543 222q-55 34-55 88zm155-126q-42 12-57 18-62-30-62-84 0-37 31-58t87-21q49 0 80 17.5t31 45.5q0 23-15.5 39t-35 23.5T651 182q-5 1-8 2zm97 110q0 31-27.5 53T637 369q-44 0-71-17t-27-42q0-10 3-18.5t6-14.5 11.5-12 13-9 16.5-8 16.5-6.5 18.5-6 17-5.5q45-12 51-14 48 32 48 78zm-583-22h-54l162 361H37v47h282v-45z"/><glyph glyph-name="partialdiff" unicode="∂" horiz-adv-x="594" d="M540 269q0-132-68-206T291-11q-107 0-176.5 64T45 222q0 97 67.5 160.5T274 446q75 0 135-37t80-103q0 7-2 23-10 87-48 151t-93.5 99-116 51T102 646v54q65 0 125.5-14t118-47 100-81.5 68.5-123T540 269zm-439-47q0-81 52-130t137-49q79 0 126.5 43T477 203q-2 87-58 138.5T282 393q-78 0-129.5-47.5T101 222z"/><glyph glyph-name="emptyset" unicode="∅" horiz-adv-x="817" d="M727 700l-73-85q117-107 117-265 0-149-106.5-255T409-11q-126 0-225 78L127 0H90l73 85Q47 193 47 350q0 149 106.5 255T409 711q127 0 224-78l57 67h37zm-318-20q-136 0-233-97T79 350q0-144 105-241l428 500q-87 71-203 71zM205 91q90-71 204-71 136 0 233 97t97 233q0 143-105 241z"/><glyph glyph-name="product" unicode="∏" horiz-adv-x="740" d="M195-220h-60v863H37v57h667v-57h-99v-863h-59v863H195v-863z"/><glyph glyph-name="summation" unicode="∑" horiz-adv-x="564" d="M513 0H40v34l275 316L40 666v34h471v-57H136l250-286v-14L136 57h377V0z"/><glyph glyph-name="minus" unicode="−" horiz-adv-x="515" d="M445 320H70v54h375v-54z"/><glyph glyph-name="radical" unicode="√" horiz-adv-x="726" d="M358 0h-53L125 423H28v57h135L333 69l332 711h62z"/><glyph glyph-name="infinity" unicode="∞" horiz-adv-x="835" d="M418 403q42 62 86 96.5T611 534q72 0 121-47.5T781 358t-49-128.5T611 182q-64 0-108 34.5T417 313q-43-63-86.5-97T224 182q-72 0-121 47.5T54 358t49 128.5T224 534q64 0 107.5-34t86.5-97zm-31-46q-20 30-33 47.5T321 442t-42 29-47 9q-52 0-86.5-31.5T111 358t34.5-90.5T232 236q48 0 82 30.5t73 90.5zm337 1q0 59-34.5 90.5T603 480q-48 0-82-30.5T448 359q40-61 74-92t81-31q52 0 86.5 31.5T724 358z"/><glyph glyph-name="integral" unicode="∫" horiz-adv-x="407" d="M175 648q0 75 43 109t103 34q44 0 77-14v-53q-33 13-71 13-39 0-67-20.5T232 646V-88q0-75-43-109T86-231q-44 0-77 14v53q32-13 65-13 101 0 101 91v734z"/><glyph glyph-name="approxequal" unicode="≈" horiz-adv-x="586" d="M516 478q2-46-24.5-74T419 376q-36 0-121.5 30.5T177 437q-23 0-36-12.5T129 388H75q-1 47 25.5 74.5T171 490q38 0 122-30t121-30q22 0 35.5 12.5T462 478h54zm0-148q2-46-24.5-74T419 228q-36 0-121.5 30.5T177 289q-23 0-36-12.5T129 240H75q-1 47 25.5 74.5T171 342q38 0 122-30t121-30q22 0 35.5 12.5T462 330h54z"/><glyph glyph-name="notequal" unicode="≠" horiz-adv-x="549" d="M166 131h-51l62 101H70v54h140l78 128H70v54h251l62 101h50l-62-101h108v-54H339l-79-128h219v-54H228z"/><glyph glyph-name="lessequal" unicode="≤" horiz-adv-x="529" d="M440 237v-56L72 337v58l368 156v-56L130 366zm0-237H72v54h368V0z"/><glyph glyph-name="greaterequal" unicode="≥" horiz-adv-x="529" d="M457 337L89 181v56l310 129L89 495v56l368-156v-58zm0-337H89v54h368V0z"/><glyph glyph-name="lozenge" unicode="◊" horiz-adv-x="554" d="M309 0h-63L37 350l209 350h63l208-350zM101 350L277 60l177 290-177 290z"/><glyph glyph-name="i.loclTRK" horiz-adv-x="219" d="M81 480h57V0H81v480zM60 603q0 21 13.5 33t33.5 12 33-12 13-33q0-22-13-34t-33-12-33.5 12T60 603z"/><glyph glyph-name="a.ss01" horiz-adv-x="617" d="M488 99Q414-11 285-11q-104 0-172.5 70.5T44 240t68.5 180.5T285 491q129 0 203-110v99h51V0h-51v99zM101 240q0-91 54.5-145T291 41q67 0 118.5 38.5T483 175v130q-22 57-73.5 95.5T291 439q-81 0-135.5-54.5T101 240z"/><glyph glyph-name="aacute.ss01" horiz-adv-x="617" d="M488 99Q414-11 285-11q-104 0-172.5 70.5T44 240t68.5 180.5T285 491q129 0 203-110v99h51V0h-51v99zM101 240q0-91 54.5-145T291 41q67 0 118.5 38.5T483 175v130q-22 57-73.5 95.5T291 439q-81 0-135.5-54.5T101 240zm218 313h-62l90 142h71z"/><glyph glyph-name="abreve.ss01" horiz-adv-x="617" d="M488 99Q414-11 285-11q-104 0-172.5 70.5T44 240t68.5 180.5T285 491q129 0 203-110v99h51V0h-51v99zM101 240q0-91 54.5-145T291 41q67 0 118.5 38.5T483 175v130q-22 57-73.5 95.5T291 439q-81 0-135.5-54.5T101 240zm344 355q-56-41-134-41-79 0-133 41v57q60-44 133-44t134 44v-57z"/><glyph glyph-name="acircumflex.ss01" horiz-adv-x="617" d="M488 99Q414-11 285-11q-104 0-172.5 70.5T44 240t68.5 180.5T285 491q129 0 203-110v99h51V0h-51v99zM101 240q0-91 54.5-145T291 41q67 0 118.5 38.5T483 175v130q-22 57-73.5 95.5T291 439q-81 0-135.5-54.5T101 240zm187 451h51l130-137h-65l-90 94-90-94h-65z"/><glyph glyph-name="adieresis.ss01" horiz-adv-x="617" d="M488 99Q414-11 285-11q-104 0-172.5 70.5T44 240t68.5 180.5T285 491q129 0 203-110v99h51V0h-51v99zM101 240q0-91 54.5-145T291 41q67 0 118.5 38.5T483 175v130q-22 57-73.5 95.5T291 439q-81 0-135.5-54.5T101 240zm351 376q0-17-12-29t-29-12-29.5 12-12.5 29 12.5 29.5T411 658t29-12.5 12-29.5zm-201 0q0-17-12-29t-29-12-29.5 12-12.5 29 12.5 29.5T210 658t29-12.5 12-29.5z"/><glyph glyph-name="agrave.ss01" horiz-adv-x="617" d="M488 99Q414-11 285-11q-104 0-172.5 70.5T44 240t68.5 180.5T285 491q129 0 203-110v99h51V0h-51v99zM101 240q0-91 54.5-145T291 41q67 0 118.5 38.5T483 175v130q-22 57-73.5 95.5T291 439q-81 0-135.5-54.5T101 240zm263 313h-63l-98 142h71z"/><glyph glyph-name="amacron.ss01" horiz-adv-x="617" d="M488 99Q414-11 285-11q-104 0-172.5 70.5T44 240t68.5 180.5T285 491q129 0 203-110v99h51V0h-51v99zM101 240q0-91 54.5-145T291 41q67 0 118.5 38.5T483 175v130q-22 57-73.5 95.5T291 439q-81 0-135.5-54.5T101 240zm70 387h280v-52H171v52z"/><glyph glyph-name="aogonek.ss01" horiz-adv-x="617" d="M101 240q0-91 54.5-145T291 41q67 0 118.5 38.5T483 175v130q-22 57-73.5 95.5T291 439q-81 0-135.5-54.5T101 240zM539 0q-44-31-71.5-69.5T441-138q-1-22 12.5-34.5T491-185q27 0 48 10v-44q-26-13-61-13-43-1-67 22t-24 61q0 75 101 170v78Q414-11 285-11q-104 0-172.5 70.5T44 240t68.5 180.5T285 491q129 0 203-110v99h51V0z"/><glyph glyph-name="aring.ss01" horiz-adv-x="617" d="M488 99Q414-11 285-11q-104 0-172.5 70.5T44 240t68.5 180.5T285 491q129 0 203-110v99h51V0h-51v99zM101 240q0-91 54.5-145T291 41q67 0 118.5 38.5T483 175v130q-22 57-73.5 95.5T291 439q-81 0-135.5-54.5T101 240zm311 389q0-44-30-71.5T310 530t-72.5 27.5T207 629q0 43 30.5 70t72.5 27q41 0 71.5-27t30.5-70zm-161-1q0-27 17.5-42.5T310 570t41.5 15.5T369 628q0 26-17.5 42T310 686t-41.5-16-17.5-42z"/><glyph glyph-name="atilde.ss01" horiz-adv-x="617" d="M488 99Q414-11 285-11q-104 0-172.5 70.5T44 240t68.5 180.5T285 491q129 0 203-110v99h51V0h-51v99zM101 240q0-91 54.5-145T291 41q67 0 118.5 38.5T483 175v130q-22 57-73.5 95.5T291 439q-81 0-135.5-54.5T101 240zm366 406q6-43-15-67.5T395 554q-32 0-86 24t-70 24q-18 0-26.5-12t-6.5-31h-50q-6 42 15 67.5t55 25.5q31 0 86-24t71-24q37 0 34 42h50z"/><glyph glyph-name="ae.ss01" horiz-adv-x="993" d="M488 99Q414-11 285-11q-104 0-172.5 70.5T44 240t68.5 180.5T285 491q129 0 203-110v99h51V370q28 58 80 89.5T733 491q64 0 112-25.5t70.5-66 32-91T945 209H546q6-83 67-125.5T761 41q88 0 155 39V27q-65-38-159-38-74 0-131.5 30.5T539 111V0h-51v99zM101 240q0-91 54.5-145T291 41q67 0 118.5 38.5T483 175v130q-22 57-73.5 95.5T291 439q-81 0-135.5-54.5T101 240zm629 199q-75 0-127.5-47.5T546 259h349q3 29-4 59t-24.5 58-53 45.5T730 439z"/><glyph glyph-name="y.ss01" d="M504-3q-1-61-22.5-106.5t-57.5-71-76.5-38T261-231q-102 0-168 38v53q60-39 161-39 82 0 138 41.5T447-3v83q-29-37-76-64T266-11q-88 0-141 53T72 184v296h57V191q0-73 38-111.5T272 41q58 0 102.5 32t72.5 78v329h57V-3z"/><glyph glyph-name="yacute.ss01" d="M504-3q-1-61-22.5-106.5t-57.5-71-76.5-38T261-231q-102 0-168 38v53q60-39 161-39 82 0 138 41.5T447-3v83q-29-37-76-64T266-11q-88 0-141 53T72 184v296h57V191q0-73 38-111.5T272 41q58 0 102.5 32t72.5 78v329h57V-3zM299 553h-62l90 142h71z"/><glyph glyph-name="ycircumflex.ss01" d="M504-3q-1-61-22.5-106.5t-57.5-71-76.5-38T261-231q-102 0-168 38v53q60-39 161-39 82 0 138 41.5T447-3v83q-29-37-76-64T266-11q-88 0-141 53T72 184v296h57V191q0-73 38-111.5T272 41q58 0 102.5 32t72.5 78v329h57V-3zM268 691h51l130-137h-65l-90 94-90-94h-65z"/><glyph glyph-name="ydieresis.ss01" d="M504-3q-1-61-22.5-106.5t-57.5-71-76.5-38T261-231q-102 0-168 38v53q60-39 161-39 82 0 138 41.5T447-3v83q-29-37-76-64T266-11q-88 0-141 53T72 184v296h57V191q0-73 38-111.5T272 41q58 0 102.5 32t72.5 78v329h57V-3zm-72 619q0-17-12-29t-29-12-29.5 12-12.5 29 12.5 29.5T391 658t29-12.5 12-29.5zm-201 0q0-17-12-29t-29-12-29.5 12-12.5 29 12.5 29.5T190 658t29-12.5 12-29.5z"/><glyph glyph-name="ygrave.ss01" d="M504-3q-1-61-22.5-106.5t-57.5-71-76.5-38T261-231q-102 0-168 38v53q60-39 161-39 82 0 138 41.5T447-3v83q-29-37-76-64T266-11q-88 0-141 53T72 184v296h57V191q0-73 38-111.5T272 41q58 0 102.5 32t72.5 78v329h57V-3zM344 553h-63l-98 142h71z"/><glyph glyph-name="f_b" horiz-adv-x="961" d="M478 387q30 45 81 74.5T677 491q103 0 171-70.5T916 240 848 59.5 677-11Q548-11 472 99V0h-51v629q-60 30-130 30-57 0-91-28.5T166 548v-68h169v-53H166V0h-56v427H23v53h87v68q0 78 50 120.5T288 711q70 0 133-29v5l57 15V387zm-1-212q22-57 74-95.5T670 41q81 0 135 54.5T859 240q0 91-53.5 145T670 439q-67 0-119-38.5T477 305V175z"/><glyph glyph-name="f_f_b" horiz-adv-x="1271" d="M788 387q30 45 81 74.5T987 491q103 0 171-70.5t68-180.5-68-180.5T987-11Q858-11 782 99V0h-51v636q-61 29-130 29-57 0-91-29t-34-88v-68h169v-53H476V0h-56v427H166V0h-56v427H23v53h87v55q0 78 50.5 120.5T291 698q79 0 158-47 48 67 149 67 70 0 133-29v4l57 15V387zm-369 93v68q0 32 9 58-60 39-134 39-59 0-93.5-28T166 535v-55h253zm368-305q22-57 74-95.5T980 41q81 0 135 54.5t54 144.5q0 91-53.5 145T980 439q-67 0-119-38.5T787 305V175z"/><glyph glyph-name="f_f_h" horiz-adv-x="1235" d="M788 400q29 37 76 64t104 27q85 0 140-53.5t55-141.5V0h-57v289q0 72-40 111t-104 39q-57 0-101.5-32T788 329V0h-57v636q-61 29-130 29-57 0-91-29t-34-88v-68h169v-53H476V0h-56v427H166V0h-56v427H23v53h87v55q0 78 50.5 120.5T291 698q79 0 158-47 48 67 149 67 70 0 133-29v4l57 15V400zm-369 80v68q0 32 9 58-60 39-134 39-59 0-93.5-28T166 535v-55h253z"/><glyph glyph-name="f_f_j" horiz-adv-x="859" d="M778-100q0-71-37.5-101T649-231q-42 0-72 12v53q28-13 57-13 87 0 87 87v519H476V0h-56v427H166V0h-56v427H23v53h87v55q0 78 50.5 120.5T291 698q79 0 158-47 46 67 149 67 75 0 150-39v-57q-73 43-147 43-57 0-91-28.5T476 552v-72h302v-580zM166 535v-55h253v72q0 28 8 54-60 39-133 39-59 0-93.5-28T166 535z"/><glyph glyph-name="f_f_k" horiz-adv-x="1162" d="M1133 480L944 244 1158 0h-67L896 219H788V0h-57v636q-61 29-130 29-57 0-91-29t-34-88v-68h169v-53H476V0h-56v427H166V0h-56v427H23v53h87v55q0 78 50.5 120.5T291 698q79 0 158-47 48 67 149 67 70 0 133-29v4l57 15V272h111l168 208h66zm-714 0v68q0 32 9 58-60 39-134 39-59 0-93.5-28T166 535v-55h253z"/><glyph glyph-name="f_h" horiz-adv-x="925" d="M478 400q29 37 76 64t104 27q85 0 140-53.5T853 296V0h-57v289q0 72-40 111t-104 39q-57 0-101.5-32T478 329V0h-57v629q-60 30-130 30-57 0-91-28.5T166 548v-68h169v-53H166V0h-56v427H23v53h87v68q0 78 50 120.5T288 711q70 0 133-29v5l57 15V400z"/><glyph glyph-name="f_i" horiz-adv-x="549" d="M166 480h302V0h-57v427H166V0h-56v427H23v53h87v68q0 78 50 120.5T288 711q75 0 150-39v-57q-75 44-147 44-57 0-91-28.5T166 548v-68z"/><glyph glyph-name="f_j" horiz-adv-x="549" d="M166 480h302v-580q0-71-37.5-101T339-231q-42 0-72 12v53q28-13 57-13 87 0 87 87v519H166V0h-56v427H23v53h87v68q0 78 50 120.5T288 711q75 0 150-39v-57q-75 44-147 44-57 0-91-28.5T166 548v-68z"/><glyph glyph-name="f_k" horiz-adv-x="852" d="M823 480L634 244 848 0h-67L586 219H478V0h-57v629q-60 30-130 30-57 0-91-28.5T166 548v-68h169v-53H166V0h-56v427H23v53h87v68q0 78 50 120.5T288 711q70 0 133-29v5l57 15V272h111l168 208h66z"/><glyph glyph-name="f_l" horiz-adv-x="559" d="M421 682v5l57 15V0h-57v629q-60 30-130 30-57 0-91-28.5T166 548v-68h169v-53H166V0h-56v427H23v53h87v68q0 78 50 120.5T288 711q70 0 133-29z"/><glyph glyph-name="uni0414.loclBGR" horiz-adv-x="791" d="M84-170H27V57h74l261 643h67L690 57h74v-227h-57V0H84v-170zm312 804L165 57h462z"/><glyph glyph-name="uni041B.loclBGR" horiz-adv-x="679" d="M309 700h61L667 0h-64L339 633 76 0H12z"/><glyph glyph-name="uni0424.loclBGR" horiz-adv-x="897" d="M478-103h-59v96Q250-1 149 98.5T48 350t101 251.5T419 707v96h59v-96q169-6 270-106t101-251T748 99 478-7v-96zM108 350q0-126 82-210t229-90v600q-147-6-229-90t-82-210zm370 300V50q146 6 228.5 90.5T789 350t-82.5 209.5T478 650z"/><glyph glyph-name="uni0432.loclBGR" horiz-adv-x="579" d="M489 548q0-107-110-155 70-13 113.5-65.5T536 200q0-91-62.5-151T307-11q-108 0-174 69T67 259v127q0 155 61.5 240T307 711q82 0 132-47t50-116zm-56-4q0 46-34.5 80.5T307 659q-183 0-183-273v-10l167 29q70 12 106 51t36 88zM125 259q0-111 48.5-164.5T307 41q77 0 124.5 44T479 200q0 78-52 123t-135 30l-168-29z"/><glyph glyph-name="uni0433.loclBGR" horiz-adv-x="473" d="M424 36q-71-47-185-47-89 0-144.5 32T39 122q0 52 33.5 83t81.5 42.5 96.5 21 82 30.5 33.5 60q0 41-36.5 60.5T238 439q-89 0-173-43v54q85 41 177 41 76 0 128.5-33T423 357q0-52-33.5-83T308 231.5t-96.5-21-82-30.5T96 121q0-80 146-80 105 0 182 51V36z"/><glyph glyph-name="uni0434.loclBGR" horiz-adv-x="618" d="M45 240q0 110 68 180.5T284 491q131 0 205-110v99h51V0q0-115-74.5-173T283-231q-104 0-192 45v55q88-48 185-48 90 0 149 43.5T484 0v95q-29-47-80.5-76.5T284-11q-103 0-171 70.5T45 240zm439 65q-22 57-74 95.5T291 439q-82 0-135.5-54T102 240q0-90 54-144.5T291 41q67 0 119 36.5t74 90.5v137z"/><glyph glyph-name="uni0436.loclBGR" horiz-adv-x="736" d="M73 0H9l202 244L34 480h63l161-212h82v432h56V268h82l161 212h63L525 244 727 0h-64L480 216h-84V0h-56v216h-84z"/><glyph glyph-name="uni0438.loclBGR" d="M447 480h57V0h-52v86q-28-39-76.5-68T266-11q-88 0-141 53T72 184v296h57V191q0-73 38-111.5T272 41q58 0 102.5 32t72.5 78v329z"/><glyph glyph-name="uni0439.loclBGR" d="M426 599q-56-41-134-41-79 0-133 41v53q60-44 133-44t134 44v-53zm21-119h57V0h-52v86q-28-39-76.5-68T266-11q-88 0-141 53T72 184v296h57V191q0-73 38-111.5T272 41q58 0 102.5 32t72.5 78v329z"/><glyph glyph-name="uni043A.loclBGR" horiz-adv-x="512" d="M505 0h-67L243 219H135V0H78v700h57V272h111l168 208h66L291 244z"/><glyph glyph-name="uni043B.loclBGR" horiz-adv-x="530" d="M512 0h-63L265 416 80 0H17l218 480h60z"/><glyph glyph-name="uni043F.loclBGR" d="M129 394q28 39 77 68t109 29q85 0 140-53.5T510 296V0h-57v289q0 72-40 111t-104 39q-57 0-101.5-32T135 329V0H78v480h51v-86z"/><glyph glyph-name="uni0442.loclBGR" horiz-adv-x="891" d="M135 0H78v480h51v-80q27 35 72 63t103 28q55 0 95.5-24.5T460 398q81 93 182 93 82 0 129.5-52.5T819 303V0h-56v304q0 60-34.5 97.5T636 439q-91 0-157-93 3-21 3-43V0h-57v304q0 60-34.5 97.5T298 439q-95 0-163-102V0z"/><glyph glyph-name="uni0446.loclBGR" horiz-adv-x="610" d="M504 94q0-49 49-49h26v-178h-52V-4q-75 7-80 84-28-38-75.5-64.5T266-11q-88 0-141 53T72 184v296h57V191q0-73 38-111.5T272 41q58 0 102.5 32t72.5 78v329h57V94z"/><glyph glyph-name="uni0448.loclBGR" horiz-adv-x="891" d="M756 480h57V0h-51v80q-27-35-72-63T587-11q-55 0-95.5 24.5T431 82q-81-93-182-93-82 0-129.5 52.5T72 177v303h56V176q0-60 34.5-97.5T255 41q91 0 157 93-3 21-3 43v303h57V176q0-60 34.5-97.5T593 41q95 0 163 102v337z"/><glyph glyph-name="uni0449.loclBGR" horiz-adv-x="920" d="M813 94q0-49 49-49h27v-178h-53V-4q-71 7-79 78-71-85-170-85-111 0-157 91-79-91-180-91-82 0-130 52.5T72 177v303h57V176q0-60 34.5-97.5T256 41q89 0 157 93-4 19-4 43v303h57V176q0-60 34.5-97.5T593 41q95 0 163 102v337h57V94z"/><glyph glyph-name="uni044E.loclBGR" horiz-adv-x="813" d="M768 240q0-116-74-183.5T516-11q-97 0-169.5 60.5T265 214H135V0H78v700h57V266h130q9 104 81.5 164.5T516 491q104 0 178-67.5T768 240zm-448 0q0-91 56.5-144T516 43t139 53 56 144-56 144-139 53-139.5-53T320 240z"/><glyph glyph-name="uni0430.ss01" horiz-adv-x="617" d="M488 99Q414-11 285-11q-104 0-172.5 70.5T44 240t68.5 180.5T285 491q129 0 203-110v99h51V0h-51v99zM101 240q0-91 54.5-145T291 41q67 0 118.5 38.5T483 175v130q-22 57-73.5 95.5T291 439q-81 0-135.5-54.5T101 240z"/><glyph glyph-name="uni0437.ss01" horiz-adv-x="457" d="M380 328q0-106-113-155 70-11 114.5-63.5T426-18q0-99-69-156t-174-57q-98 0-167 46v54q68-48 160-48 84 0 138.5 42T369-18t-54 123-134 28l-63-14v53l71 16q134 33 134 137 0 54-38 84t-95 30q-87 0-161-46v53q75 46 165 46 79 0 132.5-44T380 328z"/><glyph glyph-name="uni0443.ss01" d="M504-3q-1-61-22.5-106.5t-57.5-71-76.5-38T261-231q-102 0-168 38v53q60-39 161-39 82 0 138 41.5T447-3v83q-29-37-76-64T266-11q-88 0-141 53T72 184v296h57V191q0-73 38-111.5T272 41q58 0 102.5 32t72.5 78v329h57V-3z"/><glyph glyph-name="zero.osf" horiz-adv-x="655" d="M606 260q0-108-74-189.5T328-11q-88 0-153.5 41T79 131 49 260q0 108 74 189.5T328 531q130 0 204-81.5T606 260zm-497 0q0-88 58-151.5T328 45q102 0 160 63.5T546 260t-58 151.5T328 475q-103 0-161-63.5T109 260z"/><glyph glyph-name="one.osf" horiz-adv-x="422" d="M221 520h43V57h133V0H56v57h149v399L56 400v57z"/><glyph glyph-name="two.osf" horiz-adv-x="528" d="M475 0H47v37q0 22 5.5 41.5T65 112t22.5 28.5 26.5 23 33 20 34 17 38.5 16.5 36.5 16q6 3 34.5 15.5t37.5 17 29.5 17.5 28.5 23 15.5 26.5T409 368q0 48-41.5 78T264 476q-94 0-196-59v59q94 55 200 55 86 0 143.5-45T469 367q0-20-5.5-38t-12-31.5-22-27.5-25-22-31.5-20-31-16.5-34.5-15.5-31.5-14q-11-5-35.5-16t-35-16-29-14.5-27-17-19-17.5T116 80t-4-24l363 1V0z"/><glyph glyph-name="three.osf" horiz-adv-x="541" d="M466 349q0-54-30-96.5T355 196q58-15 98.5-58T494 22q0-90-69-141.5T261-171q-126 0-214 44v59q86-47 209-47 75 0 128 36t53 104q0 71-47.5 104.5T273 163h-91v57l85-1q66-1 104 35.5t38 89.5q0 60-44 96t-118 36q-95 0-188-50v58q88 47 196 47 93 0 152-50.5T466 349z"/><glyph glyph-name="four.osf" horiz-adv-x="593" d="M376 520h64V54h127V-1H440v-159h-59V-1H19v53zm5-466v382L89 54h292z"/><glyph glyph-name="five.osf" horiz-adv-x="531" d="M90 520h369v-57H146l-15-234q65 20 127 20 44 0 84-11.5t74.5-35.5 55-66T492 39q0-95-70-152.5T248-171q-108 0-198 46v56q89-47 191-47 83 0 137 41.5T432 39q0 81-56 118.5T239 195q-82 0-171-32z"/><glyph glyph-name="six.osf" horiz-adv-x="586" d="M114 335q94 83 209 83 86 0 152.5-55.5T542 207q0-101-65.5-159.5T318-11q-128 0-195.5 89.5T55 325q0 93 24 165t65.5 115 92.5 64.5T346 691q79 0 149-38v-56q-71 38-148 38-93 0-161.5-74T114 335zm2-62q10-111 62-170t136-59q71 0 119.5 41T482 205q0 81-50 119.5T309 363q-111 0-193-90z"/><glyph glyph-name="seven.osf" horiz-adv-x="482" d="M22 520h447v-53L179-160h-64l288 623H22v57z"/><glyph glyph-name="eight.osf" horiz-adv-x="615" d="M77 521q0 68 60.5 119T306 691q101 0 165.5-54.5T538 510q2-109-104-180 128-55 128-161 0-75-64.5-127.5T310-11q-119 0-188 56T53 185q0 54 32.5 105t92.5 84Q77 428 77 521zm232-200q-21 7-81 29-55-27-85.5-69.5T112 191q0-68 53-107.5T311 44q85 0 138.5 35t53.5 87q0 31-8.5 52t-40 40-48.5 26.5-76 28.5q-14 5-21 8zm170 179q0 55-48 95.5T305 636q-75 0-121.5-33.5T137 521q0-24 9.5-44.5t23-34 39-27T254 394t55-20q8-3 23-7.5t27.5-8.5 24.5-8q95 62 95 150z"/><glyph glyph-name="nine.osf" horiz-adv-x="573" d="M37 313q0 101 65.5 159.5T261 531q127 0 195-89.5T524 195q0-180-84.5-273T233-171q-81 0-149 38v56q71-38 148-38 93 0 161 73.5T464 184q-91-82-208-82-86 0-152.5 55.5T37 313zm60 2q0-81 50-119.5T270 157q108 0 192 89-10 112-61.5 171T265 476q-71 0-119.5-41T97 315z"/><glyph glyph-name="zero.sinf" horiz-adv-x="434" d="M397 104q0-95-45.5-153T217-107 82.5-49 37 104t45.5 153T217 315t134.5-58T397 104zm-310 0Q87-60 217-60t130 164-130 164T87 104z"/><glyph glyph-name="one.sinf" horiz-adv-x="266" d="M137 308h37V-53h74v-47H32v47h93v308l-87-32v47z"/><glyph glyph-name="two.sinf" horiz-adv-x="353" d="M45 276q57 39 131 39 63 0 101-28.5t38-80.5q0-46-30.5-78.5T200 63q-4-2-18.5-11t-19-11.5-17-10.5T129 18 115.5 6.5t-13-13T94-20t-7-16-2-17h233v-47H31v24q0 44 22.5 79.5t42.5 50T159 93q5 3 8 5 62 38 78 56 20 24 20 53 0 62-93 62-65 0-127-43v50z"/><glyph glyph-name="three.sinf" horiz-adv-x="361" d="M310 204q0-31-17-56t-44-34q77-24 77-103 0-57-42-87.5T177-107q-82 0-142 27v49q56-30 138-30 105 0 105 75 0 73-99 73h-63v47h57q43 0 66 18t23 48q0 32-25.5 50.5T165 269q-64 0-123-31v49q58 28 129 28 63 0 101-30.5t38-80.5z"/><glyph glyph-name="four.sinf" horiz-adv-x="397" d="M243 308h54V37h77V-9h-77v-91h-49v91H20v44zm6-271v204L82 37h167z"/><glyph glyph-name="five.sinf" horiz-adv-x="357" d="M61 308h245v-47H109l-8-117q37 10 70 10 65 0 110-32t45-99q0-61-44.5-95.5T168-107q-75 0-131 27v48q53-29 125-29 52 0 82.5 21.5T275 23q0 85-121 85-55 0-106-19z"/><glyph glyph-name="six.sinf" horiz-adv-x="384" d="M88 115q59 39 128 39 55 0 97-34t42-94q0-63-41.5-98T209-107q-86 0-129 53.5T37 97q0 108 51 163t134 55q55 0 99-23v-48q-42 24-98 24t-93.5-36.5T88 115zm0-49Q100-61 205-61q45 0 72.5 20.5T305 24q0 84-102 84-66 0-115-42z"/><glyph glyph-name="seven.sinf" horiz-adv-x="317" d="M138-100H84l162 361H18v47h282v-45z"/><glyph glyph-name="eight.sinf" horiz-adv-x="399" d="M49 210q0 42 38.5 73.5T198 315q67 0 108.5-33t43.5-79q2-63-56-103 70-34 70-96 0-46-41.5-78.5T201-107q-79 0-122.5 34.5T35 12q0 31 17.5 60.5T104 122q-55 34-55 88zM204 84q-42 12-57 18-62-30-62-84 0-37 31-58t87-21q49 0 80 17.5T314 2q0 23-15.5 39t-35 23.5T212 82q-2 0-4 .5t-4 1.5zm97 110q0 31-27.5 53T198 269q-44 0-71-17t-27-42q0-10 3-18.5t6-14.5 11.5-12 13-9 16.5-8 16.5-6.5 18.5-6 17-5.5q45-12 51-14 48 32 48 78z"/><glyph glyph-name="nine.sinf" horiz-adv-x="384" d="M29 182q0 63 42 98t105 35q86 0 128.5-53.5T347 111q0-108-51-163t-134-55q-55 0-99 23v48q44-24 98-24 56 0 93.5 36.5T296 93q-59-39-127-39-56 0-98 33.5T29 182zm150 87q-45 0-72.5-20.5T79 184q0-84 102-84 66 0 115 43-12 126-117 126z"/><glyph glyph-name="zero.sups" horiz-adv-x="434" d="M397 580q0-95-45.5-153T217 369 82.5 427 37 580t45.5 153T217 791t134.5-58T397 580zm-310 0q0-164 130-164t130 164-130 164T87 580z"/><glyph glyph-name="one.sups" horiz-adv-x="266" d="M137 780h37V419h74v-47H32v47h93v308l-87-32v47z"/><glyph glyph-name="two.sups" horiz-adv-x="354" d="M45 752q57 39 131 39 63 0 101-28.5t38-80.5q0-46-30.5-78.5T200 539q-4-2-18.5-11t-19-11.5-17-10.5-16.5-12-13.5-11.5-13-13T94 456t-7-16-2-17h233v-47H31v24q0 44 22.5 79.5t42.5 50 63 39.5q5 3 8 5 62 38 78 56 20 24 20 53 0 62-93 62-65 0-127-43v50z"/><glyph glyph-name="three.sups" horiz-adv-x="361" d="M310 680q0-31-17-56t-44-34q77-24 77-103 0-57-42-87.5T177 369q-82 0-142 27v49q56-30 138-30 105 0 105 75 0 73-99 73h-63v47h57q43 0 66 18t23 48q0 32-25.5 50.5T165 745q-64 0-123-31v49q58 28 129 28 63 0 101-30.5t38-80.5z"/><glyph glyph-name="four.sups" horiz-adv-x="397" d="M243 780h54V509h77v-46h-77v-91h-49v91H20v44zm6-271v204L82 509h167z"/><glyph glyph-name="five.sups" horiz-adv-x="357" d="M61 780h245v-47H109l-8-117q37 10 70 10 65 0 110-32t45-99q0-61-44.5-95.5T168 365q-75 0-131 27v48q53-29 125-29 52 0 82.5 21.5T275 495q0 85-121 85-55 0-106-19z"/><glyph glyph-name="six.sups" horiz-adv-x="384" d="M88 591q59 39 128 39 55 0 97-34t42-94q0-63-41.5-98T209 369q-86 0-129 53.5T37 573q0 108 51 163t134 55q55 0 99-23v-48q-42 24-98 24t-93.5-36.5T88 591zm0-49q12-127 117-127 45 0 72.5 20.5T305 500q0 84-102 84-66 0-115-42z"/><glyph glyph-name="seven.sups" horiz-adv-x="317" d="M138 372H84l162 361H18v47h282v-45z"/><glyph glyph-name="eight.sups" horiz-adv-x="399" d="M49 686q0 42 38.5 73.5T198 791q67 0 108.5-33t43.5-79q2-63-56-103 70-34 70-96 0-46-41.5-78.5T201 369q-79 0-122.5 34.5T35 488q0 31 17.5 60.5T104 598q-55 34-55 88zm155-126q-42 12-57 18-62-30-62-84 0-37 31-58t87-21q49 0 80 17.5t31 45.5q0 23-15.5 39t-35 23.5T212 558q-2 0-4 .5t-4 1.5zm97 110q0 31-27.5 53T198 745q-44 0-71-17t-27-42q0-10 3-18.5t6-14.5 11.5-12 13-9 16.5-8 16.5-6.5 18.5-6 17-5.5q45-12 51-14 48 32 48 78z"/><glyph glyph-name="nine.sups" horiz-adv-x="384" d="M29 658q0 63 42 98t105 35q86 0 128.5-53.5T347 587q0-108-51-163t-134-55q-55 0-99 23v48q44-24 98-24 56 0 93.5 36.5T296 569q-59-39-127-39-56 0-98 33.5T29 658zm150 87q-45 0-72.5-20.5T79 660q0-84 102-84 66 0 115 43-12 126-117 126z"/><glyph glyph-name="zero.tf" horiz-adv-x="623" d="M585 340q0-157-71.5-254T311-11q-130 0-201.5 97T38 340t71 254 202 97 202.5-97T585 340zm-487 0q0-137 55.5-216T311 45q103 0 158.5 79T525 340t-55.5 216T311 635q-102 0-157.5-79T98 340z"/><glyph glyph-name="one.tf" horiz-adv-x="623" d="M319 680h43V57h213V0H72v57h231v559l-200-74v57z"/><glyph glyph-name="two.tf" horiz-adv-x="623" d="M82 627q97 64 222 64 109 0 172.5-46.5T540 516q0-79-51-132T342 279q-36-19-52-28t-46.5-28-45-34-32-36-25.5-45-8-52l423 1V0H68v30q0 48 15 89t35 68 56.5 55 61.5 42.5 68 37.5q91 48 133.5 89T480 517q0 56-47 87.5T300 636q-114 0-218-68v59z"/><glyph glyph-name="three.tf" horiz-adv-x="623" d="M532 509q0-54-31-96.5T417 356q61-15 102-58t41-116q0-92-69-142.5T310-11Q168-11 66 36v59q103-51 239-50 93 0 145.5 35T503 185q0 138-194 138H201v57l102-1q86-1 128.5 34.5T474 504q0 59-47.5 95.5T290 636q-110 0-212-52v58q98 49 219 49 109 0 172-51t63-131z"/><glyph glyph-name="four.tf" horiz-adv-x="623" d="M405 680h65V214h127v-55H470V0h-59v159H22v53zm6-466v386L96 214h315z"/><glyph glyph-name="five.tf" horiz-adv-x="623" d="M112 680h415v-57H168l-15-234q66 20 145 20 114 0 188.5-51T561 199q0-96-72.5-153T298-11Q164-11 72 35v56q92-47 219-47 97 0 153.5 41T501 199q0 82-61 119t-161 37q-96 0-189-32z"/><glyph glyph-name="six.tf" horiz-adv-x="623" d="M119 333q104 85 229 85 93 0 161-55.5T577 207q0-102-68-160T339-11q-139 0-209 88.5T60 325q0 184 82.5 275T364 691q86 0 156-38v-56q-71 38-155 38-110 0-177-72.5T119 333zm2-61q10-112 65-170t149-58q80 0 131 40.5T517 205q0 81-51.5 119.5T334 363q-125 0-213-91z"/><glyph glyph-name="seven.tf" horiz-adv-x="623" d="M62 680h510v-53L259 0h-64l311 623H62v57z"/><glyph glyph-name="eight.tf" horiz-adv-x="623" d="M66 521q0 69 63 119.5T310 691q112 0 178.5-54T557 510q1-54-26-101t-78-79q128-55 128-161 0-75-68-127.5T314-11q-130 0-201 56T42 185q0 56 32 106.5t93 82.5Q66 428 66 521zm250-202q-61 17-98 31-56-25-86.5-68T101 191q0-67 55-107t159-40q93 0 150 35t57 87q0 27-11.5 49t-26 35.5-45 27-50 20T330 315q-9 3-14 4zm181 181q0 56-50 96t-139 40q-85 0-134-33t-49-82q0-27 11.5-48.5T162 438t41.5-25.5 45-18.5 50.5-15q9-3 14-4 12-4 42-12t46-13q96 54 96 150z"/><glyph glyph-name="nine.tf" horiz-adv-x="623" d="M46 473q0 102 67.5 160T283 691q139 0 209.5-89T563 355q0-184-82.5-275T259-11q-88 0-156 38v56q71-38 154-38 110 0 177 72.5T503 347q-103-85-228-85-93 0-161 55.5T46 473zm60 2q0-81 51.5-119.5T289 317q124 0 212 90-10 112-65 170.5T287 636q-80 0-130.5-41T106 475z"/><glyph glyph-name="zero.tosf" horiz-adv-x="623" d="M590 260q0-108-74.5-189.5T311-11 107 70.5 33 260t74 189.5T311 531t204.5-81.5T590 260zm-497 0q0-88 58-151.5T311 45q103 0 161 63.5T530 260t-58 151.5T311 475q-102 0-160-63.5T93 260z"/><glyph glyph-name="one.tosf" horiz-adv-x="623" d="M318 520h43V57h213V0H71v57h231v399l-200-74v57z"/><glyph glyph-name="two.tosf" horiz-adv-x="623" d="M550 0H69v37q0 37 16 67.5t37.5 50T180 191t62.5 26 65.5 20q93 25 133 51t40 77-46.5 81T306 476q-116 0-216-68v59q93 64 220 64 106 0 168.5-45T541 365q0-73-52.5-110T328 186q-34-10-55-17.5t-50.5-20-46.5-25-29.5-30T134 56l416 1V0z"/><glyph glyph-name="three.tosf" horiz-adv-x="623" d="M527 349q0-54-30.5-96.5T413 196q60-15 101-58t41-116q0-92-68.5-142.5T308-171q-144 0-240 44v59q97-48 236-47 90 0 142 35t52 105q0 138-191 138H203v57l98-1q84-1 126.5 35t42.5 90q0 59-47.5 95.5T288 476q-111 0-208-49v58q94 46 216 46 106 0 168.5-51T527 349z"/><glyph glyph-name="four.tosf" horiz-adv-x="623" d="M401 520h65V54h132V-1H466v-159h-59V-1H18v53zm6-466v386L92 54h315z"/><glyph glyph-name="five.tosf" horiz-adv-x="623" d="M116 520h409v-57H172l-15-234q66 20 144 20 52 0 96.5-11.5T479 202t58-65.5T558 39q0-96-71.5-153T300-171q-132 0-224 46v56q92-47 218-47 94 0 149 41t55 114q0 82-60 119t-157 37q-94 0-187-32z"/><glyph glyph-name="six.tosf" horiz-adv-x="623" d="M119 333q104 85 229 85 93 0 161-55.5T577 207q0-102-68-160T339-11q-139 0-209 88.5T60 325q0 184 82.5 275T364 691q86 0 156-38v-56q-71 38-155 38-110 0-177-72.5T119 333zm2-61q10-112 65-170t149-58q80 0 131 40.5T517 205q0 81-51.5 119.5T334 363q-125 0-213-91z"/><glyph glyph-name="seven.tosf" horiz-adv-x="623" d="M61 520h510v-53L258-160h-64l311 623H61v57z"/><glyph glyph-name="eight.tosf" horiz-adv-x="623" d="M66 521q0 69 63 119.5T310 691q112 0 178.5-54T557 510q1-54-26-101t-78-79q128-55 128-161 0-75-68-127.5T314-11q-130 0-201 56T42 185q0 56 32 106.5t93 82.5Q66 428 66 521zm251-202q-61 17-98 31-56-25-86.5-68T102 191q0-67 55-107t159-40q93 0 150 35t57 87q0 27-11.5 49t-26 35.5-45 27-50 20T331 315q-9 3-14 4zm181 181q0 56-50 96t-139 40q-85 0-134-33t-49-82q0-27 11.5-48.5T163 438t41.5-25.5 45-18.5 50.5-15q9-3 14-4 12-4 42-12t46-13q96 54 96 150z"/><glyph glyph-name="nine.tosf" horiz-adv-x="623" d="M46 313q0 102 67.5 160T283 531q139 0 209.5-89T563 195q0-184-82.5-275T259-171q-88 0-156 38v56q71-38 154-38 110 0 177 72.5T503 187q-103-85-228-85-93 0-161 55.5T46 313zm60 2q0-81 51.5-119.5T289 157q124 0 212 90-10 112-65 170.5T287 476q-80 0-130.5-41T106 315z"/><glyph glyph-name="zero.dnom" horiz-adv-x="434" d="M397 204q0-95-45.5-153T217-7 82.5 51 37 204t45.5 153T217 415t134.5-58T397 204zm-310 0Q87 40 217 40t130 164-130 164T87 204z"/><glyph glyph-name="one.dnom" horiz-adv-x="266" d="M137 408h37V47h74V0H32v47h93v308l-87-32v47z"/><glyph glyph-name="two.dnom" horiz-adv-x="353" d="M45 376q57 39 131 39 63 0 101-28.5t38-80.5q0-46-30.5-78.5T200 163q-4-2-18.5-11t-19-11.5-17-10.5-16.5-12-13.5-11.5-13-13T94 80t-7-16-2-17h233V0H31v24q0 44 22.5 79.5t42.5 50 63 39.5q5 3 8 5 62 38 78 56 20 24 20 53 0 62-93 62-65 0-127-43v50z"/><glyph glyph-name="three.dnom" horiz-adv-x="361" d="M310 304q0-31-17-56t-44-34q77-24 77-103 0-57-42-87.5T177-7Q95-7 35 20v49q56-30 138-30 105 0 105 75 0 73-99 73h-63v47h57q43 0 66 18t23 48q0 32-25.5 50.5T165 369q-64 0-123-31v49q58 28 129 28 63 0 101-30.5t38-80.5z"/><glyph glyph-name="four.dnom" horiz-adv-x="397" d="M243 408h54V137h77V91h-77V0h-49v91H20v44zm6-271v204L82 137h167z"/><glyph glyph-name="five.dnom" horiz-adv-x="357" d="M61 408h245v-47H109l-8-117q37 10 70 10 65 0 110-32t45-99q0-61-44.5-95.5T168-7Q93-7 37 20v48q53-29 125-29 52 0 82.5 21.5T275 123q0 85-121 85-55 0-106-19z"/><glyph glyph-name="six.dnom" horiz-adv-x="384" d="M88 215q59 39 128 39 55 0 97-34t42-94q0-63-41.5-98T209-7Q123-7 80 46.5T37 197q0 108 51 163t134 55q55 0 99-23v-48q-42 24-98 24t-93.5-36.5T88 215zm0-49Q100 39 205 39q45 0 72.5 20.5T305 124q0 84-102 84-66 0-115-42z"/><glyph glyph-name="seven.dnom" horiz-adv-x="317" d="M138 0H84l162 361H18v47h282v-45z"/><glyph glyph-name="eight.dnom" horiz-adv-x="399" d="M49 310q0 42 38.5 73.5T198 415q67 0 108.5-33t43.5-79q2-63-56-103 70-34 70-96 0-46-41.5-78.5T201-7Q122-7 78.5 27.5T35 112q0 31 17.5 60.5T104 222q-55 34-55 88zm155-126q-42 12-57 18-62-30-62-84 0-37 31-58t87-21q49 0 80 17.5t31 45.5q0 23-15.5 39t-35 23.5T212 182q-5 1-8 2zm97 110q0 31-27.5 53T198 369q-44 0-71-17t-27-42q0-10 3-18.5t6-14.5 11.5-12 13-9 16.5-8 16.5-6.5 18.5-6 17-5.5q45-12 51-14 48 32 48 78z"/><glyph glyph-name="nine.dnom" horiz-adv-x="384" d="M29 282q0 63 42 98t105 35q86 0 128.5-53.5T347 211q0-108-51-163T162-7q-55 0-99 23v48q44-24 98-24 56 0 93.5 36.5T296 193q-59-39-127-39-56 0-98 33.5T29 282zm150 87q-45 0-72.5-20.5T79 284q0-84 102-84 66 0 115 43-12 126-117 126z"/><glyph glyph-name="zero.numr" horiz-adv-x="434" d="M397 480q0-95-45.5-153T217 269 82.5 327 37 480t45.5 153T217 691t134.5-58T397 480zm-310 0q0-164 130-164t130 164-130 164T87 480z"/><glyph glyph-name="one.numr" horiz-adv-x="266" d="M137 680h37V319h74v-47H32v47h93v308l-87-32v47z"/><glyph glyph-name="two.numr" horiz-adv-x="354" d="M45 652q57 39 131 39 63 0 101-28.5t38-80.5q0-46-30.5-78.5T200 439q-4-2-18.5-11t-19-11.5-17-10.5-16.5-12-13.5-11.5-13-13T94 356t-7-16-2-17h233v-47H31v24q0 44 22.5 79.5t42.5 50 63 39.5q5 3 8 5 62 38 78 56 20 24 20 53 0 62-93 62-65 0-127-43v50z"/><glyph glyph-name="three.numr" horiz-adv-x="361" d="M310 580q0-31-17-56t-44-34q77-24 77-103 0-57-42-87.5T177 269q-82 0-142 27v49q56-30 138-30 105 0 105 75 0 73-99 73h-63v47h57q43 0 66 18t23 48q0 32-25.5 50.5T165 645q-64 0-123-31v49q58 28 129 28 63 0 101-30.5t38-80.5z"/><glyph glyph-name="four.numr" horiz-adv-x="397" d="M243 680h54V409h77v-46h-77v-91h-49v91H20v44zm6-271v204L82 409h167z"/><glyph glyph-name="five.numr" horiz-adv-x="357" d="M61 680h245v-47H109l-8-117q37 10 70 10 65 0 110-32t45-99q0-61-44.5-95.5T168 265q-75 0-131 27v48q53-29 125-29 52 0 82.5 21.5T275 395q0 85-121 85-55 0-106-19z"/><glyph glyph-name="six.numr" horiz-adv-x="384" d="M88 491q59 39 128 39 55 0 97-34t42-94q0-63-41.5-98T209 269q-86 0-129 53.5T37 473q0 108 51 163t134 55q55 0 99-23v-48q-42 24-98 24t-93.5-36.5T88 491zm0-49q12-127 117-127 45 0 72.5 20.5T305 400q0 84-102 84-66 0-115-42z"/><glyph glyph-name="seven.numr" horiz-adv-x="317" d="M138 272H84l162 361H18v47h282v-45z"/><glyph glyph-name="eight.numr" horiz-adv-x="399" d="M49 586q0 42 38.5 73.5T198 691q67 0 108.5-33t43.5-79q2-63-56-103 70-34 70-96 0-46-41.5-78.5T201 269q-79 0-122.5 34.5T35 388q0 31 17.5 60.5T104 498q-55 34-55 88zm155-126q-42 12-57 18-62-30-62-84 0-37 31-58t87-21q49 0 80 17.5t31 45.5q0 23-15.5 39t-35 23.5T212 458q-2 0-4 .5t-4 1.5zm97 110q0 31-27.5 53T198 645q-44 0-71-17t-27-42q0-10 3-18.5t6-14.5 11.5-12 13-9 16.5-8 16.5-6.5 18.5-6 17-5.5q45-12 51-14 48 32 48 78z"/><glyph glyph-name="nine.numr" horiz-adv-x="384" d="M29 558q0 63 42 98t105 35q86 0 128.5-53.5T347 487q0-108-51-163t-134-55q-55 0-99 23v48q44-24 98-24 56 0 93.5 36.5T296 469q-59-39-127-39-56 0-98 33.5T29 558zm150 87q-45 0-72.5-20.5T79 560q0-84 102-84 66 0 115 43-12 126-117 126z"/><glyph glyph-name="emdash.case" horiz-adv-x="761" d="M692 323H69v54h623v-54z"/><glyph glyph-name="endash.case" horiz-adv-x="575" d="M506 323H69v54h437v-54z"/><glyph glyph-name="hyphen.case" horiz-adv-x="489" d="M69 377h351v-54H69v54z"/><glyph glyph-name="guillemotleft.case" horiz-adv-x="478" d="M410 173h-61L228 344v12l121 171h61L285 350zm-172 0h-61L56 344v12l121 171h61L113 350z"/><glyph glyph-name="guillemotright.case" horiz-adv-x="477" d="M300 173h-61l125 177-125 177h61l121-171v-12zm-171 0H68l125 177L68 527h61l121-171v-12z"/><glyph glyph-name="guilsinglleft.case" horiz-adv-x="306" d="M238 173h-61L56 344v12l121 171h61L113 350z"/><glyph glyph-name="guilsinglright.case" horiz-adv-x="306" d="M129 173H68l125 177L68 527h61l121-171v-12z"/><glyph glyph-name="cent.tf" horiz-adv-x="623" d="M381 41q74 5 133 39V23Q454-7 381-10v-110h-50v110q-94 8-160 72t-66 175q0 113 66 177.5T331 489v111h50V491q79-5 128-39v-55q-51 39-128 42V41zm-50 395q-73-12-121-61.5T162 238q0-85 48-134.5T331 43v393z"/><glyph glyph-name="currency.tf" horiz-adv-x="623" d="M197 194l-84-84-40 40 82 82q-41 47-41 118t41 118l-82 82 40 40 84-84q48 33 114 33t114-33l84 84 40-40-82-82q41-47 41-118t-41-118l82-82-40-40-84 84q-48-33-114-33t-114 33zm-27 156q0-62 39.5-99T310 214t101 37 40 99-40 99-101 37-100.5-37-39.5-99z"/><glyph glyph-name="dollar.tf" horiz-adv-x="623" d="M336-130h-50v120Q168-2 77 48v59q106-62 241-62 186 0 186 118 0 42-24 71.5T418 281t-84 30.5-91.5 29T159 376t-62 56-24 86q0 81 60 124.5T285 691v119h50V691q102-6 178-49v-60q-84 53-202 53-178 0-178-115 0-40 24-68t62-44 83.5-29.5 91.5-29 84-36.5 62-58 24-88q0-90-63.5-133T336-11v-119z"/><glyph glyph-name="Euro.tf" horiz-adv-x="623" d="M171 246q29-96 113.5-148.5T471 45q60 0 119 19V9q-63-20-131-20-120 0-220.5 68T109 246H20v50h80q-2 26-2 41 0 25 3 47H20v50h90q31 120 129.5 188.5T454 691q68 0 131-20v-55q-59 19-119 19-97 0-180-53T173 434h320v-50H161q-3-22-3-47 0-15 2-41h333v-50H171z"/><glyph glyph-name="sterling.tf" horiz-adv-x="623" d="M577 0H40v57h41q31 0 49 22.5t18 59.5v170H72v55h76v97q0 116 67 173t171 57q83 0 146-38v-57q-64 40-139 40-83 0-134-43t-51-133v-96h236v-55H208V139q0-62-32-82h401V0z"/><glyph glyph-name="yen.tf" horiz-adv-x="623" d="M530 680h66L368 316h151v-50H341v-73h178v-50H341V0h-59v143H106v50h176v73H106v50h150L27 680h66l219-353z"/></font>
</defs>
</svg>
