<svg xmlns="http://www.w3.org/2000/svg"><defs><font id="MullerHeavy" horiz-adv-x="670"><font-face font-family="Muller Heavy" font-weight="900" ascent="780" descent="-220" x-height="480" cap-height="700" bbox="-168 -340 1416 991" underline-thickness="50" underline-position="-225" unicode-range="U+0020-25CA"/><glyph glyph-name="f_f" unicode="ff" horiz-adv-x="780" d="M779 531q-22 13-49 13-21 0-34.5-10.5T682 502v-22h87V290h-87V0H440v290H322V0H80v290H20v190h60v29q0 97 66.5 149.5T314 711q91 0 168-39 56 65 182 65 63 0 115-16V531zm-457-51h118v38q-32 15-67 15-22 0-36.5-10.5T322 494v-14z"/><glyph glyph-name="f_f_i" unicode="ffi" horiz-adv-x="1059" d="M322 0H80v290H20v190h60v29q0 97 66.5 149.5T314 711q99 0 183-46 72 71 216 71 97 0 205-36V517q-88 26-153 26-83 0-83-52v-11h344V0H784v290H682V0H440v290H322V0zm0 494v-14h118v38q-32 15-67 15-22 0-36.5-10.5T322 494z"/><glyph glyph-name="f_f_l" unicode="ffl" horiz-adv-x="1075" d="M685 736q69 0 149-23l208 17V0H800v532q-33 10-55 9-63-2-63-52v-9h67V290h-67V0H440v290H322V0H80v290H20v190h60v29q0 97 66.5 149.5T314 711q97 0 181-45 67 70 190 70zM440 480v38q-32 15-67 15-22 0-36.5-10.5T322 494v-14h118z"/><glyph glyph-name=".notdef" horiz-adv-x="164"/><glyph glyph-name=".null" horiz-adv-x="0"/><glyph glyph-name="nonmarkingreturn" horiz-adv-x="333"/><glyph glyph-name="space" horiz-adv-x="164"/><glyph glyph-name="exclam" unicode="!" horiz-adv-x="323" d="M256 286H66L31 700h260zm34-179q0-60-37-92t-92-32-91.5 32T33 107t36.5 92 91.5 32 92-32 37-92z"/><glyph glyph-name="quotedbl" unicode="&quot;" horiz-adv-x="516" d="M460 412H289v288h209zm-252 0H37v288h209z"/><glyph glyph-name="numbersign" unicode="#" horiz-adv-x="750" d="M262 0H58l27 115H25v160h98l31 131H75v160h117l27 115h204l-27-115h66l27 115h204l-27-115h59V406h-97l-31-131h78V115H559L532 0H328l27 115h-66zm96 406l-31-131h66l31 131h-66z"/><glyph glyph-name="dollar" unicode="$" horiz-adv-x="650" d="M413-110H233v98Q121 3 38 50v237q134-85 254-85 37 0 49 6t12 18q0 13-33 22t-80.5 20.5-95 31T64 363 31 471q0 90 55 146t147 73v100h180V690q103-16 175-53V413q-123 71-240 69-42 0-42-20 0-13 24-22.5t59.5-15.5 77-19.5 77-33T603 313t24-93q0-202-214-231v-99z"/><glyph glyph-name="percent" unicode="%" horiz-adv-x="982" d="M357-60H217l409 820h140zm87 579q0-97-60-147.5T232 321 80 371.5 20 519t60 147.5T232 717t152-50.5T444 519zm-254 0q0-46 42-46t42 46-42 46-42-46zm772-338q0-97-60-147.5T750-17 598.5 33.5 539 181t59.5 148T750 380t152-51 60-148zm-254 0q0-46 42-46t42 46q0 47-42 47t-42-47z"/><glyph glyph-name="ampersand" unicode="&amp;" horiz-adv-x="757" d="M638 134L769 0H527l-32 32Q391-17 267-17 150-17 84.5 34T19 168q0 116 141 193-79 81-79 159 0 87 70 142t188 55q113 0 177.5-54T581 529q0-100-146-188l75-76q30 48 30 103h199q0-127-101-234zM377 526q0 39-41 39-21 0-34-12.5T289 520q0-24 37-67 51 37 51 73zM241 192q0-45 61-45 29 0 64 11l-91 90q-34-26-34-56z"/><glyph glyph-name="quotesingle" unicode="'" horiz-adv-x="264" d="M208 412H37v288h209z"/><glyph glyph-name="parenleft" unicode="(" horiz-adv-x="362" d="M181 813h171q-97-250-97-463t97-463H181Q108-15 64.5 107.5T21 350t43.5 242.5T181 813z"/><glyph glyph-name="parenright" unicode=")" horiz-adv-x="362" d="M10 813h172q73-97 116-220t43-243-43-243-116-220H10q97 245 97 463T10 813z"/><glyph glyph-name="asterisk" unicode="*" horiz-adv-x="552" d="M276 361l-56-118L53 355l78 71-112 23 77 194 95-61-19 118h208l-19-118 95 61 77-194-112-23 78-71-167-112z"/><glyph glyph-name="plus" unicode="+" horiz-adv-x="558" d="M374 446h159V256H374V97H184v159H25v190h159v159h190V446z"/><glyph glyph-name="comma" unicode="," horiz-adv-x="289" d="M155-143H-18l73 320h220z"/><glyph glyph-name="hyphen" unicode="-" horiz-adv-x="476" d="M39 330h398V150H39v180z"/><glyph glyph-name="period" unicode="." horiz-adv-x="294" d="M275 107q0-60-37-92t-92-32-91.5 32T18 107t36.5 92 91.5 32 92-32 37-92z"/><glyph glyph-name="slash" unicode="/" horiz-adv-x="517" d="M183-62H15l320 824h168z"/><glyph glyph-name="zero" unicode="0" horiz-adv-x="705" d="M26 340q0 73 18.5 135.5t56.5 113T203.5 668 353 697t149.5-29 102-79.5 56-113T679 340t-18.5-135.5-56-113-102-79.5T353-17 203.5 12 101 91.5t-56.5 113T26 340zm388 0q0 69-14.5 98T353 467t-47-28.5-15-98.5 15-98.5 47-28.5 46.5 29 14.5 98z"/><glyph glyph-name="one" unicode="1" horiz-adv-x="524" d="M211 680h194V215h103V0H35v215h113v220L46 397v220z"/><glyph glyph-name="two" unicode="2" horiz-adv-x="628" d="M51 626q122 71 264 71 77 0 137-21.5T552 601t40-132q0-59-22-96.5T507 302q-11-9-52-38t-62-48h198V1H30v104q0 36 10.5 68.5t22 53 37.5 46 41 36.5 48 35q7 5 11 8 18 13 42.5 27.5t38 23 24 19.5 10.5 22q0 29-46 29-100 0-218-87v240z"/><glyph glyph-name="three" unicode="3" horiz-adv-x="606" d="M554 497q0-49-28-89.5T445 349q59-12 98-52.5T582 190q0-56-24-97t-66-64.5T399.5-6 290-17Q146-17 34 24v220q100-49 223-49 73 0 73 32 0 23-34 23H171v184h104q29 0 29 20 0 28-61 28-44 0-102-17t-95-40v210q99 62 242 62 72 0 130-19t97-65.5T554 497z"/><glyph glyph-name="four" unicode="4" horiz-adv-x="690" d="M324 680h262V277h80V77h-80V0H351v77H19v210zm27-403v129L251 277h100z"/><glyph glyph-name="five" unicode="5" horiz-adv-x="608" d="M79 680h475V466H307l-3-44q32 4 51 4 43 0 81.5-10.5t72-33.5 53.5-65.5 20-99.5q0-65-27.5-112.5t-75.5-73-102-37T261-17Q131-17 31 29v202q30-18 81-30.5t98-12.5 77 13 30 38q0 51-125 49-72 0-137-14z"/><glyph glyph-name="six" unicode="6" horiz-adv-x="680" d="M283 397q65 43 150 43 96 0 161-54.5T659 226q0-63-23.5-111T571 39 479.5-3 370-17q-174 0-259 93.5T26 340q0 179 101.5 268T383 697q130 0 217-46V457q-82 42-157 42-71 0-109.5-22.5T283 397zm0-148q17-78 78-78 23 0 38 13t15 34q0 52-60 52-36 0-71-21z"/><glyph glyph-name="seven" unicode="7" horiz-adv-x="598" d="M19 680h567V516L349 0H61l214 465H19v215z"/><glyph glyph-name="eight" unicode="8" d="M49 487q0 85 72.5 147.5T337 697q139 0 212.5-59.5T621 501q-1-50-23-80t-62-53q110-59 110-174 0-91-78.5-151T332-17Q170-17 97 40T24 182q0 55 30 98.5t68 62.5q-73 60-73 144zm291-239q-30 8-43 12-15-16-15-41 0-20 14-33.5t43-13.5q49 0 49 34 0 29-48 42zm41 222q-2 38-48 38-21 0-32.5-8.5T289 479q0-10 8-17.5t15.5-10.5 22.5-8q14-4 38-12 9 24 8 39z"/><glyph glyph-name="nine" unicode="9" horiz-adv-x="680" d="M21 454q0 63 23.5 111t64.5 76 91.5 42T310 697q174 0 259-93.5T654 340q0-179-101.5-268T297-17Q167-17 80 29v194q82-42 157-42 71 0 109.5 22.5T397 283q-65-43-150-43-96 0-161 54.5T21 454zm298 55q-23 0-38-13t-15-34q0-52 60-52 36 0 71 21-17 78-78 78z"/><glyph glyph-name="colon" unicode=":" horiz-adv-x="298" d="M270 377q0-56-35-86.5T148 260q-51 0-85.5 30.5T28 377t34.5 86.5T148 494q52 0 87-30.5t35-86.5zm0-277q0-56-35-86.5T148-17q-51 0-85.5 30.5T28 100t34.5 86.5T148 217q52 0 87-30.5t35-86.5z"/><glyph glyph-name="semicolon" unicode=";" horiz-adv-x="311" d="M160-143H-13l73 320h220zm130 513q0-60-37-92t-92-32-91.5 32T33 370t36.5 92 91.5 32 92-32 37-92z"/><glyph glyph-name="less" unicode="&lt;" horiz-adv-x="512" d="M464 307V99L27 229v242l437 130V393l-244-43z"/><glyph glyph-name="equal" unicode="=" horiz-adv-x="626" d="M573 380H53v180h520V380zm0-240H53v180h520V140z"/><glyph glyph-name="greater" unicode="&gt;" horiz-adv-x="512" d="M485 229L48 99v208l245 43-245 43v208l437-130V229z"/><glyph glyph-name="question" unicode="?" horiz-adv-x="509" d="M331 269H107q0 33 12 61.5t29 48 34 35 29 29.5 12 25q0 25-43 25-32 0-76-12.5T31 451v224q92 42 205 42 252 0 252-185 0-37-16-72t-39-61-46.5-48.5T347 307t-16-38zm18-162q0-60-37-92t-92-32-91.5 32T92 107t36.5 92 91.5 32 92-32 37-92z"/><glyph glyph-name="at" unicode="@" horiz-adv-x="1042" d="M22 240q0 94 32.5 178.5t93.5 152 159 107T526 717q100 0 183-26.5T847 620t92.5-101.5 54.5-117 17-120.5q0-129-69-201T771 8q-79 0-120 20.5T582 90q-44-56-124-56-49 0-86.5 19.5t-58 50.5-30.5 65.5-10 69.5q0 78 42.5 140T442 441q73 0 118-52v41h176V207q0-49 36-49 16 0 26.5 10.5t14 32 4.5 37 1 43.5q0 45-17 89t-50 82.5-91.5 62T526 538q-139 0-220.5-88T224 240q0-66 19.5-117t52-84 79-54.5T472-46t110-9q96 0 211 34v-179q-101-36-218-36-113 0-212 30t-175.5 87-121 149.5T22 240zm538 43q-15 16-36 16-49 0-49-61 0-22 11-40.5t38-18.5q21 0 36 16v88z"/><glyph glyph-name="A" unicode="A" horiz-adv-x="776" d="M263 0H-6l251 700h286L782 0H513l-23 80H286zm104 368l-31-108h103l-30 108q-15 57-21 105-6-48-21-105z"/><glyph glyph-name="B" unicode="B" horiz-adv-x="711" d="M42 700h377q250 0 250-177 0-55-21.5-91.5T572 373q125-38 125-170Q697 0 411 0H42v700zm389-465q0 19-11 32t-35 13h-77v-90h77q24 0 35 13t11 32zm-13 235q0 17-11 29.5T374 512h-66v-84h66q22 0 33 12.5t11 29.5z"/><glyph glyph-name="C" unicode="C" horiz-adv-x="648" d="M20 345q0 96 32.5 170T141 632t123 64 143 21q114 0 208-41V446q-74 41-161 41-70 0-115-34t-45-108q0-64 44.5-96T448 217q120 0 172 41V24q-92-41-205-41-79 0-148 21T141.5 67t-89 113.5T20 345z"/><glyph glyph-name="D" unicode="D" horiz-adv-x="743" d="M42 700h319q182 0 272-94t90-256-90-256T361 0H42v700zm407-350q0 71-25.5 100.5T351 480h-43V220h43q47 0 72.5 29.5T449 350z"/><glyph glyph-name="E" unicode="E" horiz-adv-x="626" d="M42 700h550V500H308v-60h244V262H308v-60h290V0H42v700z"/><glyph glyph-name="F" unicode="F" horiz-adv-x="598" d="M42 700h530V470H308v-60h235V190H308V0H42v700z"/><glyph glyph-name="G" unicode="G" horiz-adv-x="689" d="M18 350q0 91 32.5 163.5t88 115.5 123 65.5T405 717q131 0 233-41V446q-71 41-177 41-76 0-122.5-33T292 350q0-65 35.5-94.5T396 226h11v169h248V30Q533-17 413-17q-78 0-148.5 23.5T138.5 74t-88 115.5T18 350z"/><glyph glyph-name="H" unicode="H" horiz-adv-x="752" d="M444 700h266V0H444v235H308V0H42v700h266V465h136v235z"/><glyph glyph-name="I" unicode="I" horiz-adv-x="350" d="M42 700h266V0H42v700z"/><glyph glyph-name="J" unicode="J" horiz-adv-x="520" d="M68 700h416V263q0-77-25-133t-68-85-90.5-42T198-10Q81-10 16 18v230q52-18 110-18 92 0 92 64v176H68v230z"/><glyph glyph-name="K" unicode="K" horiz-adv-x="744" d="M308 0H42v700h266V465h36l124 235h292L553 349 760 0H468L336 235h-28V0z"/><glyph glyph-name="L" unicode="L" horiz-adv-x="603" d="M42 700h266V230h284V0H42v700z"/><glyph glyph-name="M" unicode="M" horiz-adv-x="904" d="M634 700h228V0H606v279l-87-137H385l-87 139V0H42v700h228l182-289z"/><glyph glyph-name="N" unicode="N" horiz-adv-x="762" d="M308 0H42v700h211l208-272q-7 49-7 122v150h266V0H509L301 272q7-49 7-122V0z"/><glyph glyph-name="O" unicode="O" horiz-adv-x="801" d="M18 350q0 162 99 264.5T400 717t283.5-103T783 350 683.5 86 400-17 117 85.5 18 350zm491 0q0 62-29 94.5T400 477q-50 0-79-32.5T292 350t29-94.5 79-32.5q51 0 80 32.5t29 94.5z"/><glyph glyph-name="P" unicode="P" horiz-adv-x="703" d="M42 700h328q321 0 321-273T370 154h-62V0H42v700zm389-273q0 59-71 59h-52V368h52q71 0 71 59z"/><glyph glyph-name="Q" unicode="Q" horiz-adv-x="801" d="M783 78L644-44l-62 61q-79-34-182-34-184 0-283 102.5T18 350t99 264.5T400 717t283.5-103T783 350q0-123-58-213zM282 350q0-67 33-102t85-35h8l-56 56 112 111 54-54q1 8 1 24 0 67-33.5 102T400 487t-85-35-33-102z"/><glyph glyph-name="R" unicode="R" horiz-adv-x="740" d="M308 0H42v700h348q62 0 114-13t97-41 70.5-79.5T697 445q0-145-109-209L757 0H468L343 190h-35V0zm0 490V382h67q28 0 42 15.5t14 38.5-14 38.5-42 15.5h-67z"/><glyph glyph-name="S" unicode="S" horiz-adv-x="643" d="M28 491q0 109 79.5 167.5T311 717q156 0 274-60V433q-123 71-240 69-42 0-42-20 0-13 24-23.5t59.5-17.5 77-22.5 77-37T600 318t24-98q0-68-23.5-116t-67-73.5T438-6 319-17Q155-17 35 50v237q134-85 254-85 37 0 49 6t12 18q0 13-33 23t-80.5 23.5-95 35.5T61 377 28 491z"/><glyph glyph-name="T" unicode="T" horiz-adv-x="648" d="M11 700h626V470H457V0H191v470H11v230z"/><glyph glyph-name="U" unicode="U" horiz-adv-x="736" d="M435 700h266V276q0-80-27-138.5t-74.5-91-105-48T368-17 242-1.5t-105 48-75 91T35 276v424h266V288q0-65 67-65t67 65v412z"/><glyph glyph-name="V" unicode="V" horiz-adv-x="763" d="M518 0H246L-6 700h280l108-389 107 389h280z"/><glyph glyph-name="W" unicode="W" horiz-adv-x="1134" d="M847 700h287L925 0H640l-73 291L495 0H209L0 700h286l85-367 90 367h212l89-367z"/><glyph glyph-name="X" unicode="X" horiz-adv-x="762" d="M285 0H-25l241 358-231 342h310l86-162 85 162h310L546 358 786 0H476l-95 167z"/><glyph glyph-name="Y" unicode="Y" horiz-adv-x="774" d="M519 0H255v239L-6 700h300l93-246 94 246h300L519 239V0z"/><glyph glyph-name="Z" unicode="Z" horiz-adv-x="661" d="M635 0H26v164l226 306H41v230h580V536L395 230h240V0z"/><glyph glyph-name="bracketleft" unicode="[" horiz-adv-x="407" d="M382-110H45v920h337V604h-98V96h98v-206z"/><glyph glyph-name="backslash" unicode="\" horiz-adv-x="516" d="M502-62H334L14 762h168z"/><glyph glyph-name="bracketright" unicode="]" horiz-adv-x="407" d="M362-110H25V96h98v508H25v206h337v-920z"/><glyph glyph-name="asciicircum" unicode="^" horiz-adv-x="693" d="M263 308H21l218 392h214l219-392H430l-84 166z"/><glyph glyph-name="underscore" unicode="_" horiz-adv-x="537" d="M537-216H0v192h537v-192z"/><glyph glyph-name="grave" unicode="`" horiz-adv-x="407" d="M367 745H166L35 921h227z"/><glyph glyph-name="a" unicode="a" horiz-adv-x="580" d="M538 163q0-23 24-23 8 0 20 2V5q-45-21-122-21-89 0-124 49-62-50-155-50-72 0-119.5 36.5T14 126q0 58 33 94t78 48.5T228 281q50 0 88-9v8q0 25-22 36t-70 11q-83 0-176-32v170q109 32 204 32 70 0 119-10t88.5-35.5 59-74T538 257v-94zm-250 18q-47 0-47-36 0-31 38-31 20 0 37 11v53q-12 3-28 3z"/><glyph glyph-name="b" unicode="b" horiz-adv-x="627" d="M33 700h242V458q47 39 122 39 105 0 158.5-73T609 240 555.5 56 397-17q-86 0-151 70V0H33v700zm326-460q0 27-12 46t-37 19q-23 0-35-14V189q14-14 35-14 25 0 37 19t12 46z"/><glyph glyph-name="c" unicode="c" horiz-adv-x="487" d="M16 224q0 71 24.5 126t66.5 86.5 92.5 47T307 499q70 0 148-25V279q-51 22-101 22-88 0-88-61 0-59 84-59 59 0 110 19V7q-82-24-168-24-55 0-103 13.5T101.5 38 39 113.5 16 224z"/><glyph glyph-name="d" unicode="d" horiz-adv-x="627" d="M352 700h242V0H381v53q-65-70-151-70-105 0-158.5 73T18 240t53.5 184T230 497q75 0 122-39v242zm0-409q-12 14-35 14-25 0-37-19t-12-46 12-46 37-19q21 0 35 14v102z"/><glyph glyph-name="e" unicode="e" horiz-adv-x="546" d="M16 245q0 67 25 118t66 79 84.5 41.5T279 497q65 0 114.5-18.5T470 429t44-71 16-81.5-7-82.5H242q11-23 45.5-36t77.5-13q78 0 139 16V7q-72-24-172-24-60 0-113.5 13.5T118 38.5 43.5 120 16 245zm323 43q3 25-9 41.5T293 346q-27 0-41-17t-14-41h101z"/><glyph glyph-name="f" unicode="f" horiz-adv-x="420" d="M322 0H80v290H20v190h60v39q0 55 19.5 95t52.5 61.5 68 31.5 74 10q70 0 125-19V521q-22 13-49 13-48 0-48-40v-14h87V290h-87V0z"/><glyph glyph-name="g" unicode="g" horiz-adv-x="627" d="M18 250q0 110 53 178.5T230 497q86 0 151-70v53h213V39q0-141-85.5-208.5T294-237q-127 0-227 38V-3q77-38 176-38 109 0 109 64v19Q305 3 230 3 124 3 71 71.5T18 250zm334 46q-14 14-35 14-25 0-37-19t-12-46 12-46 37-19q23 0 35 14v102z"/><glyph glyph-name="h" unicode="h" horiz-adv-x="597" d="M33 700h242V462q51 35 113 35 91 0 135.5-53.5T568 320V0H326v273q0 23-25 23-15 0-26-9V0H33v700z"/><glyph glyph-name="i" unicode="i" horiz-adv-x="308" d="M275 0H33v480h242V0zm-1 629q0-56-34.5-85.5T154 514t-85.5 29.5T34 629t34.5 85.5T154 744t85.5-29.5T274 629z"/><glyph glyph-name="j" unicode="j" horiz-adv-x="308" d="M275-46q0-98-61-144.5T59-237q-61 0-107 15v194q14-3 35-3 46 0 46 47v464h242V-46zm-1 675q0-56-34.5-85.5T154 514t-85.5 29.5T34 629t34.5 85.5T154 744t85.5-29.5T274 629z"/><glyph glyph-name="k" unicode="k" horiz-adv-x="624" d="M632 0H372l-71 147h-26V0H33v700h242V337h26l70 143h260L489 242z"/><glyph glyph-name="l" unicode="l" horiz-adv-x="308" d="M33 730h242V0H33v730z"/><glyph glyph-name="m" unicode="m" horiz-adv-x="864" d="M271 0H33v480h213v-41q22 24 63 41t82 17q94 0 133-62 28 28 68.5 45t80.5 17q162 0 162-200V0H597v278q0 18-20 18-10 0-24-7V0H315v278q0 18-20 18-10 0-24-7V0z"/><glyph glyph-name="n" unicode="n" horiz-adv-x="597" d="M245 438q63 59 143 59 91 0 135.5-53.5T568 320V0H326v273q0 23-25 23-15 0-26-9V0H33v480h212v-42z"/><glyph glyph-name="o" unicode="o" horiz-adv-x="595" d="M16 240q0 126 79 191.5T297 497t202.5-66T579 240 499.5 49 297-17 95 48.5 16 240zm333 0q0 64-52 64-51 0-51-64t51-64q52 0 52 64z"/><glyph glyph-name="p" unicode="p" horiz-adv-x="627" d="M246 427q65 70 151 70 105 0 158.5-73T609 240 555.5 56 397-17q-75 0-122 39v-242H33v700h213v-53zm113-187q0 27-12 46t-37 19q-21 0-35-14V189q12-14 35-14 25 0 37 19t12 46z"/><glyph glyph-name="q" unicode="q" horiz-adv-x="627" d="M18 240q0 111 53.5 184T230 497q86 0 151-70v53h213v-700H352V22q-47-39-122-39-105 0-158.5 73T18 240zm334 51q-14 14-35 14-25 0-37-19t-12-46 12-46 37-19q23 0 35 14v102z"/><glyph glyph-name="r" unicode="r" horiz-adv-x="430" d="M246 431q27 34 65 50.5t107 8.5V267q-34 14-77 12.5T275 262V0H33v480h213v-49z"/><glyph glyph-name="s" unicode="s" horiz-adv-x="495" d="M23 342q0 56 33 92.5t80.5 49.5T246 497q106 0 195-41V298q-72 38-139 38-25 0-25-12 0-10 21-18t51-17 60-23 51-45.5 21-76.5q0-161-244-161-129 0-208 41v181q38-28 84-41.5t81-13.5 35 13q0 10-21 17.5t-51.5 17-61 24.5T44 268t-21 74z"/><glyph glyph-name="t" unicode="t" horiz-adv-x="440" d="M80 604l243 56V480h89V290h-89v-75q0-35 52-35 24 0 42 5V0q-75-18-140-18Q80-18 80 180v110H20v190h60v124z"/><glyph glyph-name="u" unicode="u" horiz-adv-x="597" d="M322 480h242V0H352v42q-63-59-143-59-91 0-135.5 53.5T29 160v320h242V207q0-23 25-23 15 0 26 9v287z"/><glyph glyph-name="v" unicode="v" horiz-adv-x="619" d="M368 480h252L438 0H181L-1 480h253l58-261z"/><glyph glyph-name="w" unicode="w" horiz-adv-x="854" d="M609 480h241L703 0H478l-51 203L376 0H151L4 480h241l45-246 58 246h158l58-246z"/><glyph glyph-name="x" unicode="x" horiz-adv-x="586" d="M348 480h244L443 239 597 0H344l-51 99-51-99H-11l154 239L-6 480h244l55-107z"/><glyph glyph-name="y" unicode="y" horiz-adv-x="626" d="M327 238l54 242h244L456-12q-41-120-116-172t-167-52q-59 0-119 19v194q41-12 75-12 53 0 81 39L-6 480h248z"/><glyph glyph-name="z" unicode="z" horiz-adv-x="512" d="M39 480h434V337L331 190h156V0H23v143l142 147H39v190z"/><glyph glyph-name="braceleft" unicode="{" horiz-adv-x="429" d="M407 68v-178q-147-35-235 17.5T84 77v121q0 32-20 42.5T8 251v198q24 0 38 2.5t26 15T84 502v121q0 117 88 169.5T407 810V632q-46 9-65-11t-19-69v-82q0-52-27.5-84.5T220 350q48-3 75.5-35.5T323 230v-82q0-49 19-69t65-11z"/><glyph glyph-name="bar" unicode="|" horiz-adv-x="330" d="M285-100H45v910h240v-910z"/><glyph glyph-name="braceright" unicode="}" horiz-adv-x="429" d="M345 77q0-117-88-169.5T22-110V68q46-9 65 11t19 69v82q0 52 27.5 84.5T209 350q-48 3-75.5 35.5T106 470v82q0 49-19 69t-65 11v178q147 35 235-17.5T345 623V502q0-33 19.5-43t56.5-10V251q-36 0-56-10.5T345 198V77z"/><glyph glyph-name="asciitilde" unicode="~" horiz-adv-x="607" d="M575 442q14-114-26.5-168.5T430 219q-42 0-111 22.5T242 264q-22 0-19-38H37Q23 340 63.5 394.5T182 449q42 0 111-22.5t77-22.5q22 0 19 38h186z"/><glyph glyph-name="exclamdown" unicode="¡" horiz-adv-x="313" d="M286-220H26l35 414h190zm-1 593q0-60-37-92t-92-32-91.5 32T28 373t36.5 92 91.5 32 92-32 37-92z"/><glyph glyph-name="cent" unicode="¢" horiz-adv-x="508" d="M406 185q32 4 61 15V7Q433-3 406-7v-113h-80v104q-9-1-27-1-55 0-103 13.5T108.5 38 46 113.5 23 224q0 71 24.5 126t66.5 86.5 92.5 47T314 499h12v101h80V489q30-6 56-15V279q-24 11-56 17V185zm-80 112q-53-10-53-57 0-46 53-56v113z"/><glyph glyph-name="sterling" unicode="£" horiz-adv-x="611" d="M584 0H29v207h21q54 0 54 51v8H46v166h61v19q0 122 74 184t195 62q97 0 181-34V466q-55 30-118 30-75 0-75-59v-5h154V266H364v-3q0-31-22-56h242V0z"/><glyph glyph-name="currency" unicode="¤" horiz-adv-x="553" d="M178 161l-59-59-92 92 52 52q-25 48-25 104 0 58 26 105l-53 53 91 92 61-61q45 18 97 18 53 0 98-18l61 62 91-93-54-54q26-47 26-104 0-58-25-103l53-53-92-92-59 59q-45-18-99-18-53 0-98 18zm64 189q0-13 8.5-22.5T276 318t25.5 9.5T310 350t-8.5 22.5T276 382t-25.5-9.5T242 350z"/><glyph glyph-name="yen" unicode="¥" horiz-adv-x="781" d="M479 680h284L580 360h91V250H522v-30h149V110H522V0H258v110H111v110h147v30H111v110h89L18 680h283l89-226z"/><glyph glyph-name="brokenbar" unicode="¦" horiz-adv-x="334" d="M287 412H47v398h240V412zm0-512H47v398h240v-398z"/><glyph glyph-name="section" unicode="§" horiz-adv-x="528" d="M498 124q0-83-71.5-122T244-37Q125-37 46 4v181q38-28 84-41.5t81-13.5 35 13q0 5-4.5 9t-14 7.5-19 6.5-25.5 7.5-27 8.5Q35 224 35 322q0 77 78 117-78 53-78 123 0 77 66 116t167 39 190-41V518q-72 38-149 38-20 0-20-12 0-9 15.5-15.5t47-15.5 52.5-18q94-39 94-131 0-76-65-128 65-44 65-112zM248 311q7-3 22.5-8t21.5-7q25 14 27 29 3 15-25 29-21 9-51 21-21-13-23-31-3-22 28-33z"/><glyph glyph-name="dieresis" unicode="¨" horiz-adv-x="489" d="M469 836q0-49-29.5-77T364 731t-75.5 28-29.5 77 29.5 77 75.5 28 75.5-28 29.5-77zm-238 0q0-49-29.5-77T126 731t-75.5 28T21 836t29.5 77 75.5 28 75.5-28 29.5-77z"/><glyph glyph-name="copyright" unicode="©" horiz-adv-x="819" d="M793 350q0-176-108.5-271.5T409-17q-166 0-274.5 95.5T26 350t108.5 271.5T409 717q167 0 275.5-95.5T793 350zM576 177q-38-20-69-27t-85-7q-86 0-152.5 50.5T203 342q0 108 65.5 161.5T434 557q86 0 142-34V385q-40 25-98 25-77 0-77-56 0-34 23-49.5t59-15.5q58 0 93 27V177zM109 350q0-139 86-215.5T409 58t214 76.5T709 350t-86 215.5T409 642t-214-76.5T109 350z"/><glyph glyph-name="guillemotleft" unicode="«" horiz-adv-x="721" d="M705 26H463L323 219v42l140 193h242L553 240zm-301 0H162L23 219v42l139 193h242L254 240z"/><glyph glyph-name="logicalnot" unicode="¬" horiz-adv-x="579" d="M537 179H337v110H30v191h507V179z"/><glyph glyph-name="registered" unicode="®" horiz-adv-x="819" d="M793 350q0-176-108.5-271.5T409-17q-166 0-274.5 95.5T26 350t108.5 271.5T409 717q167 0 275.5-95.5T793 350zm-684 0q0-139 86-215.5T409 58t214 76.5T709 350t-86 215.5T409 642t-214-76.5T109 350zm283-195H243v390h194q74 0 122.5-33T608 403q0-80-60-117l94-131H481l-70 106h-19V155zm0 273v-60h37q31 0 31 30t-31 30h-37z"/><glyph glyph-name="macron" unicode="¯" horiz-adv-x="360" d="M-13 895h380V738H-13v157z"/><glyph glyph-name="degree" unicode="°" horiz-adv-x="457" d="M442 521q0-99-57.5-150.5T228 319q-98 0-156 52T14 521q0 93 58.5 144.5T228 717q98 0 156-51.5T442 521zm-258-3q0-43 44-43 42 0 42 43t-42 43q-44 0-44-43z"/><glyph glyph-name="plusminus" unicode="±" horiz-adv-x="584" d="M387 701V562h159V372H387V233H197v139H38v190h159v139h190zM546 0H38v190h508V0z"/><glyph glyph-name="acute" unicode="´" horiz-adv-x="407" d="M241 745H40l105 176h227z"/><glyph glyph-name="paragraph" unicode="¶" horiz-adv-x="868" d="M512-220H264v460q-115 0-180 61T19 470t65 169 180 61h547v-920H563v690h-51v-690z"/><glyph glyph-name="periodcentered" unicode="·" horiz-adv-x="298" d="M278 238q0-60-37-92t-92-32-91.5 32T21 238t36.5 92 91.5 32 92-32 37-92z"/><glyph glyph-name="cedilla" unicode="¸" horiz-adv-x="233" d="M44 0h138l-15-43q96-13 96-88 0-54-45.5-80.5T99-238q-75 0-128 19v112q42-13 81-13 57 0 57 24 0 17-30 21.5T19-74z"/><glyph glyph-name="guillemotright" unicode="»" horiz-adv-x="720" d="M559 26H316l152 214-152 214h243l138-193v-42zm-300 0H16l151 214L16 454h243l138-193v-42z"/><glyph glyph-name="onequarter" unicode="¼" horiz-adv-x="918" d="M690 408h157V166h48V46h-48V0H706v46H507v126zm16-242v78l-60-78h60zM257-17h-68l465 734h68zM136 680h117V401h62V272H31v129h68v132l-62-23v132z"/><glyph glyph-name="onehalf" unicode="½" horiz-adv-x="886" d="M254-17h-68l465 734h68zm283 392q73 43 158 43 72 0 119.5-33.5T862 281q0-59-52-100-6-5-30.5-22.5T742 129h119V0H524l1 62q0 54 26 86t75 65q12 8 32.5 19.5t28.5 18 8 15.5q0 17-27 17-61 0-131-52v144zM133 680h117V401h62V272H28v129h68v132l-62-23v132z"/><glyph glyph-name="threequarters" unicode="¾" horiz-adv-x="966" d="M305-17h-68l465 734h68zm433 425h157V166h48V46h-48V0H754v46H555v126zm16-242v78l-60-78h60zM342 577q0-29-17-53.5T276 488q36-7 59.5-31t23.5-64q0-64-50-94t-126-30q-78 0-153 28v131q68-32 140-32 37 0 37 19 0 14-20 14h-75l1 111 61-1q18 0 18 12 0 17-37 17-26 0-61-10t-57-24v126q60 37 145 37 68 0 114-29.5t46-90.5z"/><glyph glyph-name="questiondown" unicode="¿" horiz-adv-x="504" d="M475-195q-92-42-205-42Q18-237 18-52q0 37 16 72t39.5 61 46.5 48.5 39 43.5 16 38h224q0-33-12-61.5t-29-48-34-35T295 37t-12-25q0-25 43-25 32 0 76 12.5T475 29v-224zm-60 568q0-60-37-92t-92-32-91.5 32-36.5 92 36.5 92 91.5 32 92-32 37-92z"/><glyph glyph-name="Agrave" unicode="À" horiz-adv-x="776" d="M263 0H-6l251 700h286L782 0H513l-23 80H286zm104 368l-31-108h103l-30 108q-15 57-21 105-6-48-21-105zm144 377H310L179 921h227z"/><glyph glyph-name="Aacute" unicode="Á" horiz-adv-x="776" d="M263 0H-6l251 700h286L782 0H513l-23 80H286zm104 368l-31-108h103l-30 108q-15 57-21 105-6-48-21-105zm99 377H265l105 176h227z"/><glyph glyph-name="Acircumflex" unicode="Â" horiz-adv-x="776" d="M263 0H-6l251 700h286L782 0H513l-23 80H286zm104 368l-31-108h103l-30 108q-15 57-21 105-6-48-21-105zm-85 557h212l134-180H437l-49 59-49-59H148z"/><glyph glyph-name="Atilde" unicode="Ã" horiz-adv-x="776" d="M263 0H-6l251 700h286L782 0H513l-23 80H286zm104 368l-31-108h103l-30 108q-15 57-21 105-6-48-21-105zm232 561q20-80-16.5-138.5T474 732q-38 0-81.5 20.5T341 773q-13 0-17.5-11t-1.5-24H175q-20 80 16.5 138.5T300 935q38 0 81.5-20.5T433 894q13 0 17.5 11t1.5 24h147z"/><glyph glyph-name="Adieresis" unicode="Ä" horiz-adv-x="776" d="M263 0H-6l251 700h286L782 0H513l-23 80H286zm104 368l-31-108h103l-30 108q-15 57-21 105-6-48-21-105zm245 468q0-49-29.5-77T507 731t-75.5 28-29.5 77 29.5 77 75.5 28 75.5-28 29.5-77zm-238 0q0-49-29.5-77T269 731t-75.5 28-29.5 77 29.5 77 75.5 28 75.5-28 29.5-77z"/><glyph glyph-name="Aring" unicode="Å" horiz-adv-x="776" d="M263 0H-6l251 700h286L782 0H513l-23 80H286zm104 368l-31-108h103l-30 108q-15 57-21 105-6-48-21-105zm174 489q0-65-43-100.5T390 721q-63 0-106 35.5T241 857q0 62 43 98t106 36q65 0 108-36t43-98zm-183-1q0-33 33-33t33 33-33 33-33-33z"/><glyph glyph-name="AE" unicode="Æ" horiz-adv-x="1033" d="M745 262v-60h260V0H489v80H297L253 0H-14l417 700h596V500H745v-60h214V262H745zm-350-2h94v171z"/><glyph glyph-name="Ccedilla" unicode="Ç" horiz-adv-x="648" d="M620 258V24Q559-3 490-12l-11-31q96-13 96-88 0-54-45.5-80.5T411-238q-75 0-128 19v112q42-13 81-13 57 0 57 24 0 17-30 21.5t-60 .5l20 60Q206 3 113 92.5T20 345q0 96 32.5 170T141 632t123 64 143 21q114 0 208-41V446q-74 41-161 41-70 0-115-34t-45-108q0-64 44.5-96T448 217q120 0 172 41z"/><glyph glyph-name="Egrave" unicode="È" horiz-adv-x="626" d="M42 700h550V500H308v-60h244V262H308v-60h290V0H42v700zm394 45H235L104 921h227z"/><glyph glyph-name="Eacute" unicode="É" horiz-adv-x="626" d="M42 700h550V500H308v-60h244V262H308v-60h290V0H42v700zm349 45H190l105 176h227z"/><glyph glyph-name="Ecircumflex" unicode="Ê" horiz-adv-x="626" d="M42 700h550V500H308v-60h244V262H308v-60h290V0H42v700zm165 225h212l134-180H362l-49 59-49-59H73z"/><glyph glyph-name="Edieresis" unicode="Ë" horiz-adv-x="626" d="M42 700h550V500H308v-60h244V262H308v-60h290V0H42v700zm495 136q0-49-29.5-77T432 731t-75.5 28-29.5 77 29.5 77 75.5 28 75.5-28 29.5-77zm-238 0q0-49-29.5-77T194 731t-75.5 28T89 836t29.5 77 75.5 28 75.5-28 29.5-77z"/><glyph glyph-name="Igrave" unicode="Ì" horiz-adv-x="350" d="M42 700h266V0H42v700zm255 45H96L-35 921h227z"/><glyph glyph-name="Iacute" unicode="Í" horiz-adv-x="350" d="M42 700h266V0H42v700zm210 45H51l105 176h227z"/><glyph glyph-name="Icircumflex" unicode="Î" horiz-adv-x="350" d="M42 700h266V0H42v700zm26 225h212l134-180H223l-49 59-49-59H-66z"/><glyph glyph-name="Idieresis" unicode="Ï" horiz-adv-x="350" d="M42 700h266V0H42v700zm356 136q0-49-29.5-77T293 731t-75.5 28-29.5 77 29.5 77 75.5 28 75.5-28 29.5-77zm-238 0q0-49-29.5-77T55 731t-75.5 28-29.5 77 29.5 77T55 941t75.5-28 29.5-77z"/><glyph glyph-name="Eth" unicode="Ð" horiz-adv-x="754" d="M53 700h319q182 0 272-94t90-256-90-256T372 0H53v278H3v140h50v282zm266-480h43q47 0 72.5 29.5T460 350t-25.5 100.5T362 480h-43v-62h82V278h-82v-58z"/><glyph glyph-name="Ntilde" unicode="Ñ" horiz-adv-x="762" d="M308 0H42v700h211l208-272q-7 49-7 122v150h266V0H509L301 272q7-49 7-122V0zm274 929q20-80-16.5-138.5T457 732q-38 0-81.5 20.5T324 773q-13 0-17.5-11t-1.5-24H158q-20 80 16.5 138.5T283 935q38 0 81.5-20.5T416 894q13 0 17.5 11t1.5 24h147z"/><glyph glyph-name="Ograve" unicode="Ò" horiz-adv-x="801" d="M18 350q0 162 99 264.5T400 717t283.5-103T783 350 683.5 86 400-17 117 85.5 18 350zm491 0q0 62-29 94.5T400 477q-50 0-79-32.5T292 350t29-94.5 79-32.5q51 0 80 32.5t29 94.5zm13 395H321L190 921h227z"/><glyph glyph-name="Oacute" unicode="Ó" horiz-adv-x="801" d="M18 350q0 162 99 264.5T400 717t283.5-103T783 350 683.5 86 400-17 117 85.5 18 350zm491 0q0 62-29 94.5T400 477q-50 0-79-32.5T292 350t29-94.5 79-32.5q51 0 80 32.5t29 94.5zm-32 395H276l105 176h227z"/><glyph glyph-name="Ocircumflex" unicode="Ô" horiz-adv-x="801" d="M18 350q0 162 99 264.5T400 717t283.5-103T783 350 683.5 86 400-17 117 85.5 18 350zm491 0q0 62-29 94.5T400 477q-50 0-79-32.5T292 350t29-94.5 79-32.5q51 0 80 32.5t29 94.5zM293 925h212l134-180H448l-49 59-49-59H159z"/><glyph glyph-name="Otilde" unicode="Õ" horiz-adv-x="801" d="M18 350q0 162 99 264.5T400 717t283.5-103T783 350 683.5 86 400-17 117 85.5 18 350zm491 0q0 62-29 94.5T400 477q-50 0-79-32.5T292 350t29-94.5 79-32.5q51 0 80 32.5t29 94.5zm101 579q20-80-16.5-138.5T485 732q-38 0-81.5 20.5T352 773q-13 0-17.5-11t-1.5-24H186q-20 80 16.5 138.5T311 935q38 0 81.5-20.5T444 894q13 0 17.5 11t1.5 24h147z"/><glyph glyph-name="Odieresis" unicode="Ö" horiz-adv-x="801" d="M18 350q0 162 99 264.5T400 717t283.5-103T783 350 683.5 86 400-17 117 85.5 18 350zm491 0q0 62-29 94.5T400 477q-50 0-79-32.5T292 350t29-94.5 79-32.5q51 0 80 32.5t29 94.5zm114 486q0-49-29.5-77T518 731t-75.5 28-29.5 77 29.5 77 75.5 28 75.5-28 29.5-77zm-238 0q0-49-29.5-77T280 731t-75.5 28-29.5 77 29.5 77 75.5 28 75.5-28 29.5-77z"/><glyph glyph-name="multiply" unicode="×" horiz-adv-x="542" d="M271 224L149 103 25 228l121 121L25 470l124 125 122-121 121 121 125-125-122-121 122-121-125-125z"/><glyph glyph-name="Oslash" unicode="Ø" horiz-adv-x="801" d="M746 748l-83-116q120-99 120-282 0-161-99.5-264T400-17q-98 0-177 33l-46-64H67l78 109Q18 161 18 350q0 162 99 264.5T400 717q107 0 187-37l49 68h110zM400 477q-50 0-79-32.5T292 350q0-39 12-67l134 188q-17 6-38 6zm-27-251q12-3 27-3 51 0 80 32.5t29 94.5q0 30-8 56z"/><glyph glyph-name="Ugrave" unicode="Ù" horiz-adv-x="736" d="M435 700h266V276q0-80-27-138.5t-74.5-91-105-48T368-17 242-1.5t-105 48-75 91T35 276v424h266V288q0-65 67-65t67 65v412zm57 45H291L160 921h227z"/><glyph glyph-name="Uacute" unicode="Ú" horiz-adv-x="736" d="M435 700h266V276q0-80-27-138.5t-74.5-91-105-48T368-17 242-1.5t-105 48-75 91T35 276v424h266V288q0-65 67-65t67 65v412zm12 45H246l105 176h227z"/><glyph glyph-name="Ucircumflex" unicode="Û" horiz-adv-x="736" d="M435 700h266V276q0-80-27-138.5t-74.5-91-105-48T368-17 242-1.5t-105 48-75 91T35 276v424h266V288q0-65 67-65t67 65v412zM263 925h212l134-180H418l-49 59-49-59H129z"/><glyph glyph-name="Udieresis" unicode="Ü" horiz-adv-x="736" d="M435 700h266V276q0-80-27-138.5t-74.5-91-105-48T368-17 242-1.5t-105 48-75 91T35 276v424h266V288q0-65 67-65t67 65v412zm158 136q0-49-29.5-77T488 731t-75.5 28-29.5 77 29.5 77 75.5 28 75.5-28 29.5-77zm-238 0q0-49-29.5-77T250 731t-75.5 28-29.5 77 29.5 77 75.5 28 75.5-28 29.5-77z"/><glyph glyph-name="Yacute" unicode="Ý" horiz-adv-x="774" d="M519 0H255v239L-6 700h300l93-246 94 246h300L519 239V0zm-59 745H259l105 176h227z"/><glyph glyph-name="Thorn" unicode="Þ" horiz-adv-x="704" d="M308 623h62q321 0 321-273T370 77h-62V0H42v700h266v-77zm0-332h52q71 0 71 59t-71 59h-52V291z"/><glyph glyph-name="germandbls" unicode="ß" horiz-adv-x="640" d="M631 136q0-77-46-115T462-17q-55 0-137 24v188q20-8 38-8 38 0 38 30 0 17-44.5 68T312 370q0 27 17.5 59.5T347 485q0 12-8.5 22.5T314 518q-39 0-39-40V0H33v467q0 112 72 180.5T309 717q66 0 117.5-16.5t80-44 43-57.5 14.5-60q0-39-30-84t-30-69q0-19 20-47t43.5-54 43.5-66.5 20-82.5z"/><glyph glyph-name="agrave" unicode="à" horiz-adv-x="580" d="M538 163q0-23 24-23 8 0 20 2V5q-45-21-122-21-89 0-124 49-62-50-155-50-72 0-119.5 36.5T14 126q0 58 33 94t78 48.5T228 281q50 0 88-9v8q0 25-22 36t-70 11q-83 0-176-32v170q109 32 204 32 70 0 119-10t88.5-35.5 59-74T538 257v-94zm-250 18q-47 0-47-36 0-31 38-31 20 0 37 11v53q-12 3-28 3zm114 354H201L70 711h227z"/><glyph glyph-name="aacute" unicode="á" horiz-adv-x="580" d="M538 163q0-23 24-23 8 0 20 2V5q-45-21-122-21-89 0-124 49-62-50-155-50-72 0-119.5 36.5T14 126q0 58 33 94t78 48.5T228 281q50 0 88-9v8q0 25-22 36t-70 11q-83 0-176-32v170q109 32 204 32 70 0 119-10t88.5-35.5 59-74T538 257v-94zm-250 18q-47 0-47-36 0-31 38-31 20 0 37 11v53q-12 3-28 3zm69 354H156l105 176h227z"/><glyph glyph-name="acircumflex" unicode="â" horiz-adv-x="580" d="M538 163q0-23 24-23 8 0 20 2V5q-45-21-122-21-89 0-124 49-62-50-155-50-72 0-119.5 36.5T14 126q0 58 33 94t78 48.5T228 281q50 0 88-9v8q0 25-22 36t-70 11q-83 0-176-32v170q109 32 204 32 70 0 119-10t88.5-35.5 59-74T538 257v-94zm-250 18q-47 0-47-36 0-31 38-31 20 0 37 11v53q-12 3-28 3zM173 715h212l134-180H328l-49 59-49-59H39z"/><glyph glyph-name="atilde" unicode="ã" horiz-adv-x="580" d="M538 163q0-23 24-23 8 0 20 2V5q-45-21-122-21-89 0-124 49-62-50-155-50-72 0-119.5 36.5T14 126q0 58 33 94t78 48.5T228 281q50 0 88-9v8q0 25-22 36t-70 11q-83 0-176-32v170q109 32 204 32 70 0 119-10t88.5-35.5 59-74T538 257v-94zm-250 18q-47 0-47-36 0-31 38-31 20 0 37 11v53q-12 3-28 3zm202 538q20-80-16.5-138.5T365 522q-38 0-81.5 20.5T232 563q-13 0-17.5-11t-1.5-24H66q-20 80 16.5 138.5T191 725q38 0 81.5-20.5T324 684q13 0 17.5 11t1.5 24h147z"/><glyph glyph-name="adieresis" unicode="ä" horiz-adv-x="580" d="M538 163q0-23 24-23 8 0 20 2V5q-45-21-122-21-89 0-124 49-62-50-155-50-72 0-119.5 36.5T14 126q0 58 33 94t78 48.5T228 281q50 0 88-9v8q0 25-22 36t-70 11q-83 0-176-32v170q109 32 204 32 70 0 119-10t88.5-35.5 59-74T538 257v-94zm-250 18q-47 0-47-36 0-31 38-31 20 0 37 11v53q-12 3-28 3zm215 445q0-49-29.5-77T398 521t-75.5 28-29.5 77 29.5 77 75.5 28 75.5-28 29.5-77zm-238 0q0-49-29.5-77T160 521t-75.5 28T55 626t29.5 77 75.5 28 75.5-28 29.5-77z"/><glyph glyph-name="aring" unicode="å" horiz-adv-x="580" d="M538 163q0-23 24-23 8 0 20 2V5q-45-21-122-21-89 0-124 49-62-50-155-50-72 0-119.5 36.5T14 126q0 58 33 94t78 48.5T228 281q50 0 88-9v8q0 25-22 36t-70 11q-83 0-176-32v170q109 32 204 32 70 0 119-10t88.5-35.5 59-74T538 257v-94zm-250 18q-47 0-47-36 0-31 38-31 20 0 37 11v53q-12 3-28 3zm144 466q0-65-43-100.5T281 511q-63 0-106 35.5T132 647q0 62 43 98t106 36q65 0 108-36t43-98zm-183-1q0-33 33-33t33 33-33 33-33-33z"/><glyph glyph-name="ae" unicode="æ" horiz-adv-x="824" d="M404 47q-44-34-92-49T190-17q-73 0-125 37T13 126q0 58 33 94t78 48.5T227 281q61 0 98-9v8q0 47-92 47-88 0-181-32v170q109 32 204 32 120 0 165-51 68 51 157 51 56 0 100.5-18.5T749 429t42.5-71 16.5-81.5-6-82.5H521q11-23 45.5-36t77.5-13q83 0 137 14V5q-79-22-170-22-132 0-207 64zm-154 99q0-32 38-32 30 0 56 18-7 19-13 44-13 5-34 5-47 0-47-35zm322 202q-27 0-41-17t-14-41h101q3 25-9 41.5T572 348z"/><glyph glyph-name="ccedilla" unicode="ç" horiz-adv-x="487" d="M460 200V7q-50-14-90-19l-11-31q96-13 96-88 0-54-45.5-80.5T291-238q-75 0-128 19v112q42-13 81-13 57 0 57 24 0 17-30 21.5t-60 .5l21 61Q136 1 76 60T16 224q0 71 24.5 126t66.5 86.5 92.5 47T307 499q70 0 148-25V279q-51 22-101 22-88 0-88-61 0-59 84-59 59 0 110 19z"/><glyph glyph-name="egrave" unicode="è" horiz-adv-x="546" d="M16 245q0 67 25 118t66 79 84.5 41.5T279 497q65 0 114.5-18.5T470 429t44-71 16-81.5-7-82.5H242q11-23 45.5-36t77.5-13q78 0 139 16V7q-72-24-172-24-60 0-113.5 13.5T118 38.5 43.5 120 16 245zm323 43q3 25-9 41.5T293 346q-27 0-41-17t-14-41h101zm59 237H197L66 701h227z"/><glyph glyph-name="eacute" unicode="é" horiz-adv-x="546" d="M16 245q0 67 25 118t66 79 84.5 41.5T279 497q65 0 114.5-18.5T470 429t44-71 16-81.5-7-82.5H242q11-23 45.5-36t77.5-13q78 0 139 16V7q-72-24-172-24-60 0-113.5 13.5T118 38.5 43.5 120 16 245zm323 43q3 25-9 41.5T293 346q-27 0-41-17t-14-41h101zm14 237H152l105 176h227z"/><glyph glyph-name="ecircumflex" unicode="ê" horiz-adv-x="546" d="M16 245q0 67 25 118t66 79 84.5 41.5T279 497q65 0 114.5-18.5T470 429t44-71 16-81.5-7-82.5H242q11-23 45.5-36t77.5-13q78 0 139 16V7q-72-24-172-24-60 0-113.5 13.5T118 38.5 43.5 120 16 245zm323 43q3 25-9 41.5T293 346q-27 0-41-17t-14-41h101zM169 705h212l134-180H324l-49 59-49-59H35z"/><glyph glyph-name="edieresis" unicode="ë" horiz-adv-x="546" d="M16 245q0 67 25 118t66 79 84.5 41.5T279 497q65 0 114.5-18.5T470 429t44-71 16-81.5-7-82.5H242q11-23 45.5-36t77.5-13q78 0 139 16V7q-72-24-172-24-60 0-113.5 13.5T118 38.5 43.5 120 16 245zm323 43q3 25-9 41.5T293 346q-27 0-41-17t-14-41h101zm160 328q0-49-29.5-77T394 511t-75.5 28-29.5 77 29.5 77 75.5 28 75.5-28 29.5-77zm-238 0q0-49-29.5-77T156 511t-75.5 28T51 616t29.5 77 75.5 28 75.5-28 29.5-77z"/><glyph glyph-name="igrave" unicode="ì" horiz-adv-x="309" d="M276 0H33v480h243V0zm-10 525H65l-81 176h227z"/><glyph glyph-name="iacute" unicode="í" horiz-adv-x="309" d="M33 480h243V0H33v480zm198 45H30l105 176h227z"/><glyph glyph-name="icircumflex" unicode="î" horiz-adv-x="309" d="M47 705h212l114-180H192l-39 69-39-69H-67zM33 480h243V0H33v480z"/><glyph glyph-name="idieresis" unicode="ï" horiz-adv-x="309" d="M355 616q0-47-28-73.5T255 516t-72 26.5-28 73.5 28 73.5 72 26.5 72-26.5 28-73.5zm-218 0q0-47-28-73.5T37 516t-72 26.5-28 73.5 28 73.5T37 716t72-26.5 28-73.5zM33 480h243V0H33v480z"/><glyph glyph-name="eth" unicode="ð" horiz-adv-x="570" d="M550 297q0-85-21.5-147.5t-59.5-98-84.5-52T282-17Q164-17 89 40.5T14 215q0 100 59 153t140 53q84 0 129-52 0 23-10 46-19 47-74 81l-61-61-63 64 33 33q-39 10-92 10v195q141 0 245-52l63 63 63-64-48-48q152-121 152-339zm-313-88q0-25 12.5-37.5T282 159t32.5 12.5T327 209t-12.5 37.5T282 259t-32.5-12.5T237 209z"/><glyph glyph-name="ntilde" unicode="ñ" horiz-adv-x="597" d="M245 438q63 59 143 59 91 0 135.5-53.5T568 320V0H326v273q0 23-25 23-15 0-26-9V0H33v480h212v-42zm253 271q20-80-16.5-138.5T373 512q-38 0-81.5 20.5T240 553q-13 0-17.5-11t-1.5-24H74q-20 80 16.5 138.5T199 715q38 0 81.5-20.5T332 674q13 0 17.5 11t1.5 24h147z"/><glyph glyph-name="ograve" unicode="ò" horiz-adv-x="595" d="M16 240q0 126 79 191.5T297 497t202.5-66T579 240 499.5 49 297-17 95 48.5 16 240zm333 0q0 64-52 64-51 0-51-64t51-64q52 0 52 64zm70 285H218L87 701h227z"/><glyph glyph-name="oacute" unicode="ó" horiz-adv-x="595" d="M16 240q0 126 79 191.5T297 497t202.5-66T579 240 499.5 49 297-17 95 48.5 16 240zm333 0q0 64-52 64-51 0-51-64t51-64q52 0 52 64zm25 285H173l105 176h227z"/><glyph glyph-name="ocircumflex" unicode="ô" horiz-adv-x="595" d="M16 240q0 126 79 191.5T297 497t202.5-66T579 240 499.5 49 297-17 95 48.5 16 240zm333 0q0 64-52 64-51 0-51-64t51-64q52 0 52 64zM190 705h212l134-180H345l-49 59-49-59H56z"/><glyph glyph-name="otilde" unicode="õ" horiz-adv-x="595" d="M16 240q0 126 79 191.5T297 497t202.5-66T579 240 499.5 49 297-17 95 48.5 16 240zm333 0q0 64-52 64-51 0-51-64t51-64q52 0 52 64zm158 469q20-80-16.5-138.5T382 512q-38 0-81.5 20.5T249 553q-13 0-17.5-11t-1.5-24H83q-20 80 16.5 138.5T208 715q38 0 81.5-20.5T341 674q13 0 17.5 11t1.5 24h147z"/><glyph glyph-name="odieresis" unicode="ö" horiz-adv-x="595" d="M16 240q0 126 79 191.5T297 497t202.5-66T579 240 499.5 49 297-17 95 48.5 16 240zm333 0q0 64-52 64-51 0-51-64t51-64q52 0 52 64zm171 376q0-49-29.5-77T415 511t-75.5 28-29.5 77 29.5 77 75.5 28 75.5-28 29.5-77zm-238 0q0-49-29.5-77T177 511t-75.5 28T72 616t29.5 77 75.5 28 75.5-28 29.5-77z"/><glyph glyph-name="divide" unicode="÷" horiz-adv-x="566" d="M543 261H23v180h520V261zM412 107q0-60-37-92t-92-32-91.5 32-36.5 92 36.5 92 91.5 32 92-32 37-92zm0 488q0-60-37-92t-92-32-91.5 32-36.5 92 36.5 92 91.5 32 92-32 37-92z"/><glyph glyph-name="oslash" unicode="ø" horiz-adv-x="595" d="M516 543l-55-85q118-66 118-218 0-125-79.5-191T297-17q-72 0-128 22l-45-70H81l55 85Q16 86 16 240q0 126 79 191.5T297 497q71 0 131-23l45 69h43zM297 304q-51 0-51-64 0-24 7-39l64 100q-9 3-20 3zm-16-126q8-2 16-2 52 0 52 64 0 19-5 36z"/><glyph glyph-name="ugrave" unicode="ù" horiz-adv-x="597" d="M322 480h242V0H352v42q-63-59-143-59-91 0-135.5 53.5T29 160v320h242V207q0-23 25-23 15 0 26 9v287zm97 45H218L87 701h227z"/><glyph glyph-name="uacute" unicode="ú" horiz-adv-x="597" d="M322 480h242V0H352v42q-63-59-143-59-91 0-135.5 53.5T29 160v320h242V207q0-23 25-23 15 0 26 9v287zm52 45H173l105 176h227z"/><glyph glyph-name="ucircumflex" unicode="û" horiz-adv-x="597" d="M322 480h242V0H352v42q-63-59-143-59-91 0-135.5 53.5T29 160v320h242V207q0-23 25-23 15 0 26 9v287zM190 705h212l134-180H345l-49 59-49-59H56z"/><glyph glyph-name="udieresis" unicode="ü" horiz-adv-x="597" d="M322 480h242V0H352v42q-63-59-143-59-91 0-135.5 53.5T29 160v320h242V207q0-23 25-23 15 0 26 9v287zm198 136q0-49-29.5-77T415 511t-75.5 28-29.5 77 29.5 77 75.5 28 75.5-28 29.5-77zm-238 0q0-49-29.5-77T177 511t-75.5 28T72 616t29.5 77 75.5 28 75.5-28 29.5-77z"/><glyph glyph-name="yacute" unicode="ý" horiz-adv-x="626" d="M327 238l54 242h244L456-12q-41-120-116-172t-167-52q-59 0-119 19v194q41-12 75-12 53 0 81 39L-6 480h248zm57 287H183l105 176h227z"/><glyph glyph-name="thorn" unicode="þ" horiz-adv-x="627" d="M33 700h242V458q47 39 122 39 105 0 158.5-73T609 240 555.5 56 397-17q-75 0-122 39v-242H33v920zm326-460q0 27-12 46t-37 19q-23 0-35-14V189q12-14 35-14 25 0 37 19t12 46z"/><glyph glyph-name="ydieresis" unicode="ÿ" horiz-adv-x="626" d="M327 238l54 242h244L456-12q-41-120-116-172t-167-52q-59 0-119 19v194q41-12 75-12 53 0 81 39L-6 480h248zm203 378q0-49-29.5-77T425 511t-75.5 28-29.5 77 29.5 77 75.5 28 75.5-28 29.5-77zm-238 0q0-49-29.5-77T187 511t-75.5 28T82 616t29.5 77 75.5 28 75.5-28 29.5-77z"/><glyph glyph-name="Amacron" unicode="Ā" horiz-adv-x="776" d="M263 0H-6l251 700h286L782 0H513l-23 80H286zm104 368l-31-108h103l-30 108q-15 57-21 105-6-48-21-105zM199 905h380V748H199v157z"/><glyph glyph-name="amacron" unicode="ā" horiz-adv-x="580" d="M538 163q0-23 24-23 8 0 20 2V5q-45-21-122-21-89 0-124 49-62-50-155-50-72 0-119.5 36.5T14 126q0 58 33 94t78 48.5T228 281q50 0 88-9v8q0 25-22 36t-70 11q-83 0-176-32v170q109 32 204 32 70 0 119-10t88.5-35.5 59-74T538 257v-94zm-250 18q-47 0-47-36 0-31 38-31 20 0 37 11v53q-12 3-28 3zM90 695h380V538H90v157z"/><glyph glyph-name="Abreve" unicode="Ă" horiz-adv-x="776" d="M263 0H-6l251 700h286L782 0H513l-23 80H286zm104 368l-31-108h103l-30 108q-15 57-21 105-6-48-21-105zm215 430q-84-55-193-55t-193 55v156q80-49 193-49t193 49V798z"/><glyph glyph-name="abreve" unicode="ă" horiz-adv-x="580" d="M538 163q0-23 24-23 8 0 20 2V5q-45-21-122-21-89 0-124 49-62-50-155-50-72 0-119.5 36.5T14 126q0 58 33 94t78 48.5T228 281q50 0 88-9v8q0 25-22 36t-70 11q-83 0-176-32v170q109 32 204 32 70 0 119-10t88.5-35.5 59-74T538 257v-94zm-250 18q-47 0-47-36 0-31 38-31 20 0 37 11v53q-12 3-28 3zm185 407q-84-55-193-55T87 588v156q80-49 193-49t193 49V588z"/><glyph glyph-name="Aogonek" unicode="Ą" horiz-adv-x="776" d="M782 0q-50-37-50-70 0-20 22-20 12 2 18 5v-127q-50-27-109-25-62 2-104 28.5T517-129q0 36 22 70.5T602 0h-89l-23 80H286L263 0H-6l251 700h286zM367 368l-31-108h103l-30 108q-15 57-21 105-6-48-21-105z"/><glyph glyph-name="aogonek" unicode="ą" horiz-adv-x="581" d="M582 142V5q-50-39-50-71 0-20 22-20 9 0 18 3v-135q-45-14-101-14-65 0-99 30t-33 75q-1 58 65 117-46 13-68 43-62-50-155-50-72 0-119.5 36.5T14 126q0 58 33 94t78 48.5T228 281q50 0 88-9v8q0 25-22 36t-70 11q-83 0-176-32v170q109 32 204 32 70 0 119-10t88.5-35.5 59-74T538 257v-94q0-23 24-23 8 0 20 2zm-303-28q20 0 37 11v53q-12 3-28 3-47 0-47-36 0-31 38-31z"/><glyph glyph-name="Cacute" unicode="Ć" horiz-adv-x="648" d="M20 345q0 96 32.5 170T141 632t123 64 143 21q114 0 208-41V446q-74 41-161 41-70 0-115-34t-45-108q0-64 44.5-96T448 217q120 0 172 41V24q-92-41-205-41-79 0-148 21T141.5 67t-89 113.5T20 345zm462 400H281l105 176h227z"/><glyph glyph-name="cacute" unicode="ć" horiz-adv-x="487" d="M16 224q0 71 24.5 126t66.5 86.5 92.5 47T307 499q70 0 148-25V279q-51 22-101 22-88 0-88-61 0-59 84-59 59 0 110 19V7q-82-24-168-24-55 0-103 13.5T101.5 38 39 113.5 16 224zm328 301H143l105 176h227z"/><glyph glyph-name="Cdotaccent" unicode="Ċ" horiz-adv-x="648" d="M20 345q0 96 32.5 170T141 632t123 64 143 21q114 0 208-41V446q-74 41-161 41-70 0-115-34t-45-108q0-64 44.5-96T448 217q120 0 172 41V24q-92-41-205-41-79 0-148 21T141.5 67t-89 113.5T20 345zm277 495q0 52 31 78.5t78 26.5 78-26.5 31-78.5q0-53-30.5-79T406 735q-47 0-78 26.5T297 840z"/><glyph glyph-name="cdotaccent" unicode="ċ" horiz-adv-x="487" d="M16 224q0 71 24.5 126t66.5 86.5 92.5 47T307 499q70 0 148-25V279q-51 22-101 22-88 0-88-61 0-59 84-59 59 0 110 19V7q-82-24-168-24-55 0-103 13.5T101.5 38 39 113.5 16 224zm143 396q0 52 31 78.5t78 26.5 78-26.5 31-78.5q0-53-30.5-79T268 515q-47 0-78 26.5T159 620z"/><glyph glyph-name="Ccaron" unicode="Č" horiz-adv-x="648" d="M20 345q0 96 32.5 170T141 632t123 64 143 21q114 0 208-41V446q-74 41-161 41-70 0-115-34t-45-108q0-64 44.5-96T448 217q120 0 172 41V24q-92-41-205-41-79 0-148 21T141.5 67t-89 113.5T20 345zm619 580L505 745H293L159 925h191l49-59 49 59h191z"/><glyph glyph-name="ccaron" unicode="č" horiz-adv-x="487" d="M16 224q0 71 24.5 126t66.5 86.5 92.5 47T307 499q70 0 148-25V279q-51 22-101 22-88 0-88-61 0-59 84-59 59 0 110 19V7q-82-24-168-24-55 0-103 13.5T101.5 38 39 113.5 16 224zm485 481L367 525H155L21 705h191l49-59 49 59h191z"/><glyph glyph-name="Dcaron" unicode="Ď" horiz-adv-x="743" d="M42 700h319q182 0 272-94t90-256-90-256T361 0H42v700zm407-350q0 71-25.5 100.5T351 480h-43V220h43q47 0 72.5 29.5T449 350zm147 575L462 745H250L116 925h191l49-59 49 59h191z"/><glyph glyph-name="dcaron" unicode="ď" horiz-adv-x="653" d="M638 700h188l-42-219H622zm-286 0h242V0H381v53q-65-70-151-70-105 0-158.5 73T18 240t53.5 184T230 497q75 0 122-39v242zm0-409q-12 14-35 14-25 0-37-19t-12-46 12-46 37-19q21 0 35 14v102z"/><glyph glyph-name="Dcroat" unicode="Đ" horiz-adv-x="754" d="M53 700h319q182 0 272-94t90-256-90-256T372 0H53v278H3v140h50v282zm266-480h43q47 0 72.5 29.5T460 350t-25.5 100.5T362 480h-43v-62h82V278h-82v-58z"/><glyph glyph-name="dcroat" unicode="đ" horiz-adv-x="627" d="M594 638h68V533h-68V0H381v53q-65-70-151-70-105 0-158.5 73T18 240t53.5 184T230 497q75 0 122-39v75H232v105h120v62h242v-62zM317 175q21 0 35 14v102q-12 14-35 14-25 0-37-19t-12-46 12-46 37-19z"/><glyph glyph-name="Emacron" unicode="Ē" horiz-adv-x="626" d="M42 700h550V500H308v-60h244V262H308v-60h290V0H42v700zm82 205h380V748H124v157z"/><glyph glyph-name="emacron" unicode="ē" horiz-adv-x="546" d="M16 245q0 67 25 118t66 79 84.5 41.5T279 497q65 0 114.5-18.5T470 429t44-71 16-81.5-7-82.5H242q11-23 45.5-36t77.5-13q78 0 139 16V7q-72-24-172-24-60 0-113.5 13.5T118 38.5 43.5 120 16 245zm323 43q3 25-9 41.5T293 346q-27 0-41-17t-14-41h101zM86 685h380V528H86v157z"/><glyph glyph-name="Edotaccent" unicode="Ė" horiz-adv-x="626" d="M42 700h550V500H308v-60h244V262H308v-60h290V0H42v700zm164 140q0 52 31 78.5t78 26.5 78-26.5 31-78.5q0-53-30.5-79T315 735q-47 0-78 26.5T206 840z"/><glyph glyph-name="edotaccent" unicode="ė" horiz-adv-x="546" d="M16 245q0 67 25 118t66 79 84.5 41.5T279 497q65 0 114.5-18.5T470 429t44-71 16-81.5-7-82.5H242q11-23 45.5-36t77.5-13q78 0 139 16V7q-72-24-172-24-60 0-113.5 13.5T118 38.5 43.5 120 16 245zm323 43q3 25-9 41.5T293 346q-27 0-41-17t-14-41h101zM168 620q0 52 31 78.5t78 26.5 78-26.5 31-78.5q0-53-30.5-79T277 515q-47 0-78 26.5T168 620z"/><glyph glyph-name="Eogonek" unicode="Ę" horiz-adv-x="626" d="M598 202V0q-50-39-50-71 0-20 22-20 9 0 18 3v-135q-45-14-101-14-65 0-99 30t-33 75q-1 34 23.5 70T438 0H42v700h550V500H308v-60h244V262H308v-60h290z"/><glyph glyph-name="eogonek" unicode="ę" horiz-adv-x="547" d="M480-223q-45-14-101-14-65 0-99 30t-33 75q-1 29 18 60t51 55q-38 2-57 5Q152 4 84 66T16 245q0 67 25 118t66 79 84.5 41.5T279 497q65 0 114.5-18.5T470 429t44-71 16-81.5-7-82.5H242q11-23 45.5-36t77.5-13q78 0 139 16V7q-66-40-66-76 0-22 24-22 9 0 18 3v-135zM293 346q-27 0-41-17t-14-41h101q3 25-9 41.5T293 346z"/><glyph glyph-name="Ecaron" unicode="Ě" horiz-adv-x="626" d="M42 700h550V500H308v-60h244V262H308v-60h290V0H42v700zm506 225L414 745H202L68 925h191l49-59 49 59h191z"/><glyph glyph-name="ecaron" unicode="ě" horiz-adv-x="546" d="M16 245q0 67 25 118t66 79 84.5 41.5T279 497q65 0 114.5-18.5T470 429t44-71 16-81.5-7-82.5H242q11-23 45.5-36t77.5-13q78 0 139 16V7q-72-24-172-24-60 0-113.5 13.5T118 38.5 43.5 120 16 245zm323 43q3 25-9 41.5T293 346q-27 0-41-17t-14-41h101zm171 417L376 525H164L30 705h191l49-59 49 59h191z"/><glyph glyph-name="Gbreve" unicode="Ğ" horiz-adv-x="689" d="M18 350q0 91 32.5 163.5t88 115.5 123 65.5T405 717q131 0 233-41V446q-71 41-177 41-76 0-122.5-33T292 350q0-65 35.5-94.5T396 226h11v169h248V30Q533-17 413-17q-78 0-148.5 23.5T138.5 74t-88 115.5T18 350zm560 448q-84-55-193-55t-193 55v156q80-49 193-49t193 49V798z"/><glyph glyph-name="gbreve" unicode="ğ" horiz-adv-x="627" d="M18 250q0 110 53 178.5T230 497q86 0 151-70v53h213V39q0-141-85.5-208.5T294-237q-127 0-227 38V-3q77-38 176-38 109 0 109 64v19Q305 3 230 3 124 3 71 71.5T18 250zm334 46q-14 14-35 14-25 0-37-19t-12-46 12-46 37-19q23 0 35 14v102zm160 282q-84-55-193-55t-193 55v156q80-49 193-49t193 49V578z"/><glyph glyph-name="Gdotaccent" unicode="Ġ" horiz-adv-x="689" d="M18 350q0 91 32.5 163.5t88 115.5 123 65.5T405 717q131 0 233-41V446q-71 41-177 41-76 0-122.5-33T292 350q0-65 35.5-94.5T396 226h11v169h248V30Q533-17 413-17q-78 0-148.5 23.5T138.5 74t-88 115.5T18 350zm259 490q0 52 31 78.5t78 26.5 78-26.5 31-78.5q0-53-30.5-79T386 735q-47 0-78 26.5T277 840z"/><glyph glyph-name="gdotaccent" unicode="ġ" horiz-adv-x="627" d="M18 250q0 110 53 178.5T230 497q86 0 151-70v53h213V39q0-141-85.5-208.5T294-237q-127 0-227 38V-3q77-38 176-38 109 0 109 64v19Q305 3 230 3 124 3 71 71.5T18 250zm334 46q-14 14-35 14-25 0-37-19t-12-46 12-46 37-19q23 0 35 14v102zM211 620q0 52 31 78.5t78 26.5 78-26.5 31-78.5q0-53-30.5-79T320 515q-47 0-78 26.5T211 620z"/><glyph glyph-name="Gcommaaccent" unicode="Ģ" horiz-adv-x="689" d="M18 350q0 91 32.5 163.5t88 115.5 123 65.5T405 717q131 0 233-41V446q-71 41-177 41-76 0-122.5-33T292 350q0-65 35.5-94.5T396 226h11v169h248V30Q533-17 413-17q-78 0-148.5 23.5T138.5 74t-88 115.5T18 350zm419-690H254l43 280h220z"/><glyph glyph-name="gcommaaccent" unicode="ģ" horiz-adv-x="627" d="M412 529H214l52 219h172zM18 250q0 110 53 178.5T230 497q86 0 151-70v53h213V39q0-141-85.5-208.5T294-237q-127 0-227 38V-3q77-38 176-38 109 0 109 64v19Q305 3 230 3 124 3 71 71.5T18 250zm334 46q-14 14-35 14-25 0-37-19t-12-46 12-46 37-19q23 0 35 14v102z"/><glyph glyph-name="Hbar" unicode="Ħ" horiz-adv-x="802" d="M333 0H67v534H1v102h66v64h266v-64h136v64h266v-64h66V534h-66V0H469v235H333V0zm0 534v-69h136v69H333z"/><glyph glyph-name="hbar" unicode="ħ" horiz-adv-x="597" d="M275 462q51 35 113 35 91 0 135.5-53.5T568 320V0H326v273q0 23-25 23-15 0-26-9V0H33v533h-66v105h66v62h242v-62h122V533H275v-71z"/><glyph glyph-name="Imacron" unicode="Ī" horiz-adv-x="350" d="M42 700h266V0H42v700zm-57 205h380V748H-15v157z"/><glyph glyph-name="imacron" unicode="ī" horiz-adv-x="309" d="M-6 695h320V545H-6v150zm39-215h243V0H33v480z"/><glyph glyph-name="Iogonek" unicode="Į" horiz-adv-x="350" d="M308 700V0q-50-39-50-71 0-20 22-20 9 0 18 3v-135q-45-14-101-14-65 0-99 30t-33 75q-1 34 23.5 70T148 0H42v700h266z"/><glyph glyph-name="iogonek" unicode="į" horiz-adv-x="309" d="M274 629q0-56-34.5-85.5T154 514t-85.5 29.5T34 629t34.5 85.5T154 744t85.5-29.5T274 629zm2-149V0q-50-39-50-71 0-20 22-20 9 0 18 3v-125q-44-24-101-24-65 1-98.5 30.5T33-132q0 35 26 71t67 61H33v480h243z"/><glyph glyph-name="Idotaccent" unicode="İ" horiz-adv-x="350" d="M42 700h266V0H42v700zm25 140q0 52 31 78.5t78 26.5 78-26.5 31-78.5q0-53-30.5-79T176 735q-47 0-78 26.5T67 840z"/><glyph glyph-name="dotlessi" unicode="ı" horiz-adv-x="309" d="M33 480h243V0H33v480z"/><glyph glyph-name="IJ" unicode="Ĳ" horiz-adv-x="870" d="M42 700h266V0H42v700zm376 0h416V263q0-77-25-133t-68-85-90.5-42T548-10q-117 0-182 28v230q52-18 110-18 92 0 92 64v176H418v230z"/><glyph glyph-name="ij" unicode="ĳ" horiz-adv-x="616" d="M275 0H33v480h242V0zm-1 629q0-56-34.5-85.5T154 514t-85.5 29.5T34 629t34.5 85.5T154 744t85.5-29.5T274 629zM583-46q0-98-61-144.5T367-237q-61 0-107 15v194q14-3 35-3 46 0 46 47v464h242V-46zm-1 675q0-56-34.5-85.5T462 514t-85.5 29.5T342 629t34.5 85.5T462 744t85.5-29.5T582 629z"/><glyph glyph-name="Kcommaaccent" unicode="Ķ" horiz-adv-x="744" d="M308 0H42v700h266V465h36l124 235h292L553 349 760 0H468L336 235h-28V0zm109-330H234l43 280h220z"/><glyph glyph-name="kcommaaccent" unicode="ķ" horiz-adv-x="624" d="M632 0H372l-71 147h-26V0H33v700h242V337h26l70 143h260L489 242zM361-330H178l43 280h220z"/><glyph glyph-name="Lacute" unicode="Ĺ" horiz-adv-x="603" d="M42 700h266V230h284V0H42v700zm215 45H56l105 176h227z"/><glyph glyph-name="lacute" unicode="ĺ" horiz-adv-x="308" d="M33 730h242V0H33v730zm209 50H41l105 176h227z"/><glyph glyph-name="Lcommaaccent" unicode="Ļ" horiz-adv-x="603" d="M42 700h266V230h284V0H42v700zM359-330H176l43 280h220z"/><glyph glyph-name="lcommaaccent" unicode="ļ" horiz-adv-x="308" d="M33 730h242V0H33v730zM175-330H-8L35-50h220z"/><glyph glyph-name="Lcaron" unicode="Ľ" horiz-adv-x="609" d="M394 700h188l-42-249H378zm-352 0h266V230h284V0H42v700z"/><glyph glyph-name="lcaron" unicode="ľ" horiz-adv-x="334" d="M319 730h188l-42-249H303zm-286 0h242V0H33v730z"/><glyph glyph-name="Ldot" unicode="Ŀ" horiz-adv-x="620" d="M583 423q0-53-32.5-81.5T469 313q-48 0-80.5 28.5T356 423t32.5 81.5T469 533q49 0 81.5-28.5T583 423zM42 700h266V230h284V0H42v700z"/><glyph glyph-name="ldot" unicode="ŀ" horiz-adv-x="563" d="M33 730h242V0H33v730zm530-380q0-60-37-92t-92-32-91.5 32-36.5 92 36.5 92 91.5 32 92-32 37-92z"/><glyph glyph-name="Lslash" unicode="Ł" horiz-adv-x="663" d="M652 0H102v207l-80-27v214l80 27v279h266V512l111 38V336l-111-38v-68h284V0z"/><glyph glyph-name="lslash" unicode="ł" horiz-adv-x="414" d="M86 730h242V455l68 25V302l-68-24V0H86v183l-68-25v178l68 24v370z"/><glyph glyph-name="Nacute" unicode="Ń" horiz-adv-x="762" d="M308 0H42v700h211l208-272q-7 49-7 122v150h266V0H509L301 272q7-49 7-122V0zm141 745H248l105 176h227z"/><glyph glyph-name="nacute" unicode="ń" horiz-adv-x="597" d="M245 438q63 59 143 59 91 0 135.5-53.5T568 320V0H326v273q0 23-25 23-15 0-26-9V0H33v480h212v-42zm120 87H164l105 176h227z"/><glyph glyph-name="Ncommaaccent" unicode="Ņ" horiz-adv-x="762" d="M308 0H42v700h211l208-272q-7 49-7 122v150h266V0H509L301 272q7-49 7-122V0zm136-330H261l43 280h220z"/><glyph glyph-name="ncommaaccent" unicode="ņ" horiz-adv-x="597" d="M245 438q63 59 143 59 91 0 135.5-53.5T568 320V0H326v273q0 23-25 23-15 0-26-9V0H33v480h212v-42zm93-768H155l43 280h220z"/><glyph glyph-name="Ncaron" unicode="Ň" horiz-adv-x="762" d="M308 0H42v700h211l208-272q-7 49-7 122v150h266V0H509L301 272q7-49 7-122V0zm298 925L472 745H260L126 925h191l49-59 49 59h191z"/><glyph glyph-name="ncaron" unicode="ň" horiz-adv-x="597" d="M245 438q63 59 143 59 91 0 135.5-53.5T568 320V0H326v273q0 23-25 23-15 0-26-9V0H33v480h212v-42zm277 267L388 525H176L42 705h191l49-59 49 59h191z"/><glyph glyph-name="Eng" unicode="Ŋ" horiz-adv-x="762" d="M720 0q0-110-58-171t-164-61q-29 0-93 11v191q13-5 27-5 17 0 29.5 9.5T474 3v44L301 272q7-49 7-122V0H42v700h211l208-272q-7 49-7 122v150h266V0z"/><glyph glyph-name="eng" unicode="ŋ" horiz-adv-x="597" d="M568-39q0-56-18.5-96.5T500-197t-64.5-30.5T365-237q-58 0-90 16v179q12-2 19-2 32 0 32 43v274q0 23-25 23-15 0-26-9V0H33v480h212v-42q63 59 143 59 91 0 135.5-53.5T568 320V-39z"/><glyph glyph-name="Omacron" unicode="Ō" horiz-adv-x="801" d="M18 350q0 162 99 264.5T400 717t283.5-103T783 350 683.5 86 400-17 117 85.5 18 350zm491 0q0 62-29 94.5T400 477q-50 0-79-32.5T292 350t29-94.5 79-32.5q51 0 80 32.5t29 94.5zM210 905h380V748H210v157z"/><glyph glyph-name="omacron" unicode="ō" horiz-adv-x="595" d="M16 240q0 126 79 191.5T297 497t202.5-66T579 240 499.5 49 297-17 95 48.5 16 240zm333 0q0 64-52 64-51 0-51-64t51-64q52 0 52 64zM107 685h380V528H107v157z"/><glyph glyph-name="Ohungarumlaut" unicode="Ő" horiz-adv-x="801" d="M18 350q0 162 99 264.5T400 717t283.5-103T783 350 683.5 86 400-17 117 85.5 18 350zm491 0q0 62-29 94.5T400 477q-50 0-79-32.5T292 350t29-94.5 79-32.5q51 0 80 32.5t29 94.5zm81 390H405l94 177h200zm-235 0H170l79 177h200z"/><glyph glyph-name="ohungarumlaut" unicode="ő" horiz-adv-x="595" d="M16 240q0 126 79 191.5T297 497t202.5-66T579 240 499.5 49 297-17 95 48.5 16 240zm333 0q0 64-52 64-51 0-51-64t51-64q52 0 52 64zm138 280H302l94 177h200zm-235 0H67l79 177h200z"/><glyph glyph-name="OE" unicode="Œ" horiz-adv-x="1005" d="M491 0q-59-17-121-17-158 0-255 104.5T18 350t97 262.5T370 717q61 0 121-17h480V500H737v-60h194V262H737v-60h240V0H491zM291 350q0-36 12-62.5t31-40 37.5-19T409 223q41 0 72 12v230q-32 12-72 12-19 0-37.5-5.5t-37.5-19-31-40-12-62.5z"/><glyph glyph-name="oe" unicode="œ" horiz-adv-x="888" d="M466 57q-58-74-178-74-122 0-196.5 65.5T17 240t74.5 191.5T288 497q107 0 173-70 70 70 180 70 59 0 104.5-18.5T816 429t41-71 15-81.5-7-82.5H584q11-23 45.5-36t77.5-13q85 0 138 16V7q-77-24-161-24-145 0-218 74zM247 240q0-64 51-64 52 0 52 64t-52 64q-51 0-51-64zm388 106q-27 0-41-17t-14-41h101q3 25-9 41.5T635 346z"/><glyph glyph-name="Racute" unicode="Ŕ" horiz-adv-x="740" d="M308 0H42v700h348q62 0 114-13t97-41 70.5-79.5T697 445q0-145-109-209L757 0H468L343 190h-35V0zm0 490V382h67q28 0 42 15.5t14 38.5-14 38.5-42 15.5h-67zm126 255H233l105 176h227z"/><glyph glyph-name="racute" unicode="ŕ" horiz-adv-x="430" d="M246 431q27 34 65 50.5t107 8.5V267q-34 14-77 12.5T275 262V0H33v480h213v-49zm49 94H94l105 176h227z"/><glyph glyph-name="Rcommaaccent" unicode="Ŗ" horiz-adv-x="740" d="M308 0H42v700h348q62 0 114-13t97-41 70.5-79.5T697 445q0-145-109-209L757 0H468L343 190h-35V0zm0 490V382h67q28 0 42 15.5t14 38.5-14 38.5-42 15.5h-67zm107-820H232l43 280h220z"/><glyph glyph-name="rcommaaccent" unicode="ŗ" horiz-adv-x="430" d="M246 431q27 34 65 50.5t107 8.5V267q-34 14-77 12.5T275 262V0H33v480h213v-49zm-73-761H-10L33-50h220z"/><glyph glyph-name="Rcaron" unicode="Ř" horiz-adv-x="740" d="M308 0H42v700h348q62 0 114-13t97-41 70.5-79.5T697 445q0-145-109-209L757 0H468L343 190h-35V0zm0 490V382h67q28 0 42 15.5t14 38.5-14 38.5-42 15.5h-67zm283 435L457 745H245L111 925h191l49-59 49 59h191z"/><glyph glyph-name="rcaron" unicode="ř" horiz-adv-x="430" d="M246 431q27 34 65 50.5t107 8.5V267q-34 14-77 12.5T275 262V0H33v480h213v-49zm206 274L318 525H106L-28 705h191l49-59 49 59h191z"/><glyph glyph-name="Sacute" unicode="Ś" horiz-adv-x="643" d="M28 491q0 109 79.5 167.5T311 717q156 0 274-60V433q-123 71-240 69-42 0-42-20 0-13 24-23.5t59.5-17.5 77-22.5 77-37T600 318t24-98q0-68-23.5-116t-67-73.5T438-6 319-17Q155-17 35 50v237q134-85 254-85 37 0 49 6t12 18q0 13-33 23t-80.5 23.5-95 35.5T61 377 28 491zm357 254H184l105 176h227z"/><glyph glyph-name="sacute" unicode="ś" horiz-adv-x="495" d="M23 342q0 56 33 92.5t80.5 49.5T246 497q106 0 195-41V298q-72 38-139 38-25 0-25-12 0-10 21-18t51-17 60-23 51-45.5 21-76.5q0-161-244-161-129 0-208 41v181q38-28 84-41.5t81-13.5 35 13q0 10-21 17.5t-51.5 17-61 24.5T44 268t-21 74zm294 183H116l105 176h227z"/><glyph glyph-name="Scedilla" unicode="Ş" horiz-adv-x="643" d="M303 482q0-13 24-23.5t59.5-17.5 77-22.5 77-37T600 318t24-98q0-204-222-232l-11-31q96-13 96-88 0-54-45.5-80.5T323-238q-75 0-128 19v112q42-13 81-13 57 0 57 24 0 17-30 21.5t-60 .5l20 59Q133-4 35 50v237q134-85 254-85 37 0 49 6t12 18q0 13-33 23t-80.5 23.5-95 35.5T61 377 28 491q0 109 79.5 167.5T311 717q156 0 274-60V433q-123 71-240 69-42 0-42-20z"/><glyph glyph-name="scedilla" unicode="ş" horiz-adv-x="495" d="M277 324q0-10 21-18t51-17 60-23 51-45.5 21-76.5q0-125-152-154l-12-33q96-13 96-88 0-54-45.5-80.5T249-238q-75 0-128 19v112q42-13 81-13 57 0 57 24 0 17-30 21.5t-60 .5l20 58Q93-10 29 24v181q38-28 84-41.5t81-13.5 35 13q0 10-21 17.5t-51.5 17-61 24.5T44 268t-21 74q0 56 33 92.5t80.5 49.5T246 497q106 0 195-41V298q-72 38-139 38-25 0-25-12z"/><glyph glyph-name="Scaron" unicode="Š" horiz-adv-x="643" d="M28 491q0 109 79.5 167.5T311 717q156 0 274-60V433q-123 71-240 69-42 0-42-20 0-13 24-23.5t59.5-17.5 77-22.5 77-37T600 318t24-98q0-68-23.5-116t-67-73.5T438-6 319-17Q155-17 35 50v237q134-85 254-85 37 0 49 6t12 18q0 13-33 23t-80.5 23.5-95 35.5T61 377 28 491zm514 434L408 745H196L62 925h191l49-59 49 59h191z"/><glyph glyph-name="scaron" unicode="š" horiz-adv-x="495" d="M23 342q0 56 33 92.5t80.5 49.5T246 497q106 0 195-41V298q-72 38-139 38-25 0-25-12 0-10 21-18t51-17 60-23 51-45.5 21-76.5q0-161-244-161-129 0-208 41v181q38-28 84-41.5t81-13.5 35 13q0 10-21 17.5t-51.5 17-61 24.5T44 268t-21 74zm451 363L340 525H128L-6 705h191l49-59 49 59h191z"/><glyph glyph-name="Tcommaaccent" unicode="Ţ" horiz-adv-x="648" d="M11 700h626V470H457V0H191v470H11v230zM360-330H177l43 280h220z"/><glyph glyph-name="tcommaaccent" unicode="ţ" horiz-adv-x="440" d="M80 604l243 56V480h89V290h-89v-75q0-35 52-35 24 0 42 5V0q-75-18-140-18Q80-18 80 180v110H20v190h60v124zm215-934H112l43 280h220z"/><glyph glyph-name="Tcaron" unicode="Ť" horiz-adv-x="648" d="M11 700h626V470H457V0H191v470H11v230zm554 225L431 745H219L85 925h191l49-59 49 59h191z"/><glyph glyph-name="tcaron" unicode="ť" horiz-adv-x="440" d="M383 776h188l-42-249H367zM80 604l243 56V480h89V290h-89v-75q0-35 52-35 24 0 42 5V0q-75-18-140-18Q80-18 80 180v110H20v190h60v124z"/><glyph glyph-name="Tbar" unicode="Ŧ" horiz-adv-x="658" d="M462 0H196v217H89l1 150h106v103H16v230h626V470H462V367h107V217H462V0z"/><glyph glyph-name="tbar" unicode="ŧ" horiz-adv-x="440" d="M323 209q0-29 52-29 24 0 42 5V0q-75-18-140-18Q80-18 80 180v32H45v60h35v28H20v180h60v124l243 56V480h89V300h-89v-28h72v-60h-72v-3z"/><glyph glyph-name="Umacron" unicode="Ū" horiz-adv-x="736" d="M435 700h266V276q0-80-27-138.5t-74.5-91-105-48T368-17 242-1.5t-105 48-75 91T35 276v424h266V288q0-65 67-65t67 65v412zM180 905h380V748H180v157z"/><glyph glyph-name="umacron" unicode="ū" horiz-adv-x="597" d="M322 480h242V0H352v42q-63-59-143-59-91 0-135.5 53.5T29 160v320h242V207q0-23 25-23 15 0 26 9v287zM107 685h380V528H107v157z"/><glyph glyph-name="Uring" unicode="Ů" horiz-adv-x="736" d="M435 700h266V276q0-80-27-138.5t-74.5-91-105-48T368-17 242-1.5t-105 48-75 91T35 276v424h266V288q0-65 67-65t67 65v412zm87 157q0-65-43-100.5T371 721q-63 0-106 35.5T222 857q0 62 43 98t106 36q65 0 108-36t43-98zm-183-1q0-33 33-33t33 33-33 33-33-33z"/><glyph glyph-name="uring" unicode="ů" horiz-adv-x="597" d="M322 480h242V0H352v42q-63-59-143-59-91 0-135.5 53.5T29 160v320h242V207q0-23 25-23 15 0 26 9v287zm127 157q0-65-43-100.5T298 501q-63 0-106 35.5T149 637q0 62 43 98t106 36q65 0 108-36t43-98zm-183-1q0-33 33-33t33 33-33 33-33-33z"/><glyph glyph-name="Uhungarumlaut" unicode="Ű" horiz-adv-x="736" d="M435 700h266V276q0-80-27-138.5t-74.5-91-105-48T368-17 242-1.5t-105 48-75 91T35 276v424h266V288q0-65 67-65t67 65v412zm125 40H375l94 177h200zm-235 0H140l79 177h200z"/><glyph glyph-name="uhungarumlaut" unicode="ű" horiz-adv-x="597" d="M322 480h242V0H352v42q-63-59-143-59-91 0-135.5 53.5T29 160v320h242V207q0-23 25-23 15 0 26 9v287zm165 40H302l94 177h200zm-235 0H67l79 177h200z"/><glyph glyph-name="Uogonek" unicode="Ų" horiz-adv-x="736" d="M574-213q-44-24-101-24-69 0-105.5 30.5T331-128q0 55 47 111h-10q-69 0-126 15.5t-105 48-75 91T35 276v424h266V288q0-65 67-65t67 65v412h266V276q0-152-98-226-81-60-81-109 0-25 27-25 13 0 25 6v-135z"/><glyph glyph-name="uogonek" unicode="ų" horiz-adv-x="597" d="M564 480V0q-50-39-50-71 0-20 22-20 9 0 18 3v-135q-45-14-101-14-65 0-99 30t-33 75q-1 34 23.5 70T404 0h-52v42q-63-59-143-59-91 0-135.5 53.5T29 160v320h242V207q0-23 25-23 15 0 26 9v287h242z"/><glyph glyph-name="Wcircumflex" unicode="Ŵ" horiz-adv-x="1134" d="M847 700h287L925 0H640l-73 291L495 0H209L0 700h286l85-367 90 367h212l89-367zM458 925h212l134-180H613l-49 59-49-59H324z"/><glyph glyph-name="wcircumflex" unicode="ŵ" horiz-adv-x="854" d="M609 480h241L703 0H478l-51 203L376 0H151L4 480h241l45-246 58 246h158l58-246zM320 705h212l134-180H475l-49 59-49-59H186z"/><glyph glyph-name="Ycircumflex" unicode="Ŷ" horiz-adv-x="774" d="M519 0H255v239L-6 700h300l93-246 94 246h300L519 239V0zM276 925h212l134-180H431l-49 59-49-59H142z"/><glyph glyph-name="ycircumflex" unicode="ŷ" horiz-adv-x="626" d="M327 238l54 242h244L456-12q-41-120-116-172t-167-52q-59 0-119 19v194q41-12 75-12 53 0 81 39L-6 480h248zM200 705h212l134-180H355l-49 59-49-59H66z"/><glyph glyph-name="Ydieresis" unicode="Ÿ" horiz-adv-x="774" d="M519 0H255v239L-6 700h300l93-246 94 246h300L519 239V0zm87 836q0-49-29.5-77T501 731t-75.5 28-29.5 77 29.5 77 75.5 28 75.5-28 29.5-77zm-238 0q0-49-29.5-77T263 731t-75.5 28-29.5 77 29.5 77 75.5 28 75.5-28 29.5-77z"/><glyph glyph-name="Zacute" unicode="Ź" horiz-adv-x="661" d="M635 0H26v164l226 306H41v230h580V536L395 230h240V0zM411 745H210l105 176h227z"/><glyph glyph-name="zacute" unicode="ź" horiz-adv-x="512" d="M39 480h434V337L331 190h156V0H23v143l142 147H39v190zm306 45H144l105 176h227z"/><glyph glyph-name="Zdotaccent" unicode="Ż" horiz-adv-x="661" d="M635 0H26v164l226 306H41v230h580V536L395 230h240V0zM226 840q0 52 31 78.5t78 26.5 78-26.5 31-78.5q0-53-30.5-79T335 735q-47 0-78 26.5T226 840z"/><glyph glyph-name="zdotaccent" unicode="ż" horiz-adv-x="512" d="M39 480h434V337L331 190h156V0H23v143l142 147H39v190zm121 140q0 52 31 78.5t78 26.5 78-26.5 31-78.5q0-53-30.5-79T269 515q-47 0-78 26.5T160 620z"/><glyph glyph-name="Zcaron" unicode="Ž" horiz-adv-x="661" d="M635 0H26v164l226 306H41v230h580V536L395 230h240V0zm-67 925L434 745H222L88 925h191l49-59 49 59h191z"/><glyph glyph-name="zcaron" unicode="ž" horiz-adv-x="512" d="M39 480h434V337L331 190h156V0H23v143l142 147H39v190zm463 225L368 525H156L22 705h191l49-59 49 59h191z"/><glyph glyph-name="Scommaaccent" unicode="Ș" horiz-adv-x="643" d="M28 491q0 109 79.5 167.5T311 717q156 0 274-60V433q-123 71-240 69-42 0-42-20 0-13 24-23.5t59.5-17.5 77-22.5 77-37T600 318t24-98q0-68-23.5-116t-67-73.5T438-6 319-17Q155-17 35 50v237q134-85 254-85 37 0 49 6t12 18q0 13-33 23t-80.5 23.5-95 35.5T61 377 28 491zm332-821H177l43 280h220z"/><glyph glyph-name="scommaaccent" unicode="ș" horiz-adv-x="495" d="M23 342q0 56 33 92.5t80.5 49.5T246 497q106 0 195-41V298q-72 38-139 38-25 0-25-12 0-10 21-18t51-17 60-23 51-45.5 21-76.5q0-161-244-161-129 0-208 41v181q38-28 84-41.5t81-13.5 35 13q0 10-21 17.5t-51.5 17-61 24.5T44 268t-21 74zm263-672H103l43 280h220z"/><glyph glyph-name="uni021A" unicode="Ț" horiz-adv-x="648" d="M11 700h626V470H457V0H191v470H11v230zM360-330H177l43 280h220z"/><glyph glyph-name="uni021B" unicode="ț" horiz-adv-x="440" d="M80 604l243 56V480h89V290h-89v-75q0-35 52-35 24 0 42 5V0q-75-18-140-18Q80-18 80 180v110H20v190h60v124zm215-934H112l43 280h220z"/><glyph glyph-name="circumflex" unicode="ˆ" horiz-adv-x="440" d="M114 925h212l134-180H269l-49 59-49-59H-20z"/><glyph glyph-name="caron" unicode="ˇ" horiz-adv-x="440" d="M460 925L326 745H114L-20 925h191l49-59 49 59h191z"/><glyph glyph-name="breve" unicode="˘" horiz-adv-x="472" d="M428 798q-84-55-193-55T42 798v156q80-49 193-49t193 49V798z"/><glyph glyph-name="dotaccent" unicode="˙" horiz-adv-x="235" d="M10 840q0 52 31 78.5t78 26.5 78-26.5 31-78.5q0-53-30.5-79T119 735q-47 0-78 26.5T10 840z"/><glyph glyph-name="ring" unicode="˚" horiz-adv-x="290" d="M295 857q0-65-43-100.5T144 721q-63 0-106 35.5T-5 857q0 62 43 98t106 36q65 0 108-36t43-98zm-183-1q0-33 33-33t33 33-33 33-33-33z"/><glyph glyph-name="ogonek" unicode="˛" horiz-adv-x="242" d="M84 0h160q-50-39-50-71 0-20 22-20 9 0 18 3v-135q-45-14-101-14-65 0-99 30T1-132Q0-98 24.5-62T84 0z"/><glyph glyph-name="tilde" unicode="˜" horiz-adv-x="468" d="M446 929q20-80-16.5-138.5T321 732q-38 0-81.5 20.5T188 773q-13 0-17.5-11t-1.5-24H22Q2 818 38.5 876.5T147 935q38 0 81.5-20.5T280 894q13 0 17.5 11t1.5 24h147z"/><glyph glyph-name="hungarumlaut" unicode="˝" horiz-adv-x="539" d="M430 740H245l94 177h200zm-235 0H10l79 177h200z"/><glyph glyph-name="uni0326" unicode="̦" horiz-adv-x="313" d="M213-330H30L73-50h220z"/><glyph glyph-name="uni0401" unicode="Ё" horiz-adv-x="626" d="M537 836q0-49-29.5-77T432 731t-75.5 28-29.5 77 29.5 77 75.5 28 75.5-28 29.5-77zm-238 0q0-49-29.5-77T194 731t-75.5 28T89 836t29.5 77 75.5 28 75.5-28 29.5-77zM42 700h550V500H308v-60h244V262H308v-60h290V0H42v700z"/><glyph glyph-name="uni0410" unicode="А" horiz-adv-x="776" d="M263 0H-6l251 700h286L782 0H513l-23 80H286zm104 368l-31-108h103l-30 108q-15 57-21 105-6-48-21-105z"/><glyph glyph-name="uni0411" unicode="Б" horiz-adv-x="684" d="M308 446h92q271 0 271-223T400 0H42v700h570V500H308v-54zm0-272h42q61 0 61 49t-61 49h-42v-98z"/><glyph glyph-name="uni0412" unicode="В" horiz-adv-x="708" d="M42 700h377q250 0 250-177 0-55-21.5-91.5T572 373q125-38 125-170Q697 0 411 0H42v700zm389-465q0 19-11 32t-35 13h-77v-90h77q24 0 35 13t11 32zm-13 235q0 17-11 29.5T374 512h-66v-84h66q22 0 33 12.5t11 29.5z"/><glyph glyph-name="uni0413" unicode="Г" horiz-adv-x="592" d="M308 0H42v700h540V470H308V0z"/><glyph glyph-name="uni0414" unicode="Д" horiz-adv-x="863" d="M255-129H15v349h86q59 111 78 223.5T198 700h556V220h92v-349H606V0H255v-129zm174 609q-14-169-58-260h123v260h-65z"/><glyph glyph-name="uni0415" unicode="Е" horiz-adv-x="626" d="M42 700h550V500H308v-60h244V262H308v-60h290V0H42v700z"/><glyph glyph-name="uni0416" unicode="Ж" horiz-adv-x="1070" d="M282 0H-10l177 349-177 351h292l98-235h22v235h266V465h22l98 235h292L903 349 1080 0H788L683 235h-15V0H402v235h-15z"/><glyph glyph-name="uni0417" unicode="З" horiz-adv-x="634" d="M616 193q0-60-26-102.5t-72-65T420-7 306-17Q173-17 28 30v228q111-54 239-54 83 0 83 35 0 26-34 26H148v174h143q32 0 32 23 0 32-65 32-49 0-114-15.5T40 443v228q119 46 243 46 147 0 226-50.5T588 516q0-50-26-90t-80-59q69-25 101.5-66.5T616 193z"/><glyph glyph-name="uni0418" unicode="И" horiz-adv-x="762" d="M720 0H454v150q0 73 7 122L253 0H42v700h266V550q0-73-7-122l208 272h211V0z"/><glyph glyph-name="uni0419" unicode="Й" horiz-adv-x="762" d="M454 0h266v700H509L301 428q7 49 7 122v150H42V0h211l208 272q-7-49-7-122V0zm129 798q-84-55-193-55t-193 55v156q80-49 193-49t193 49V798z"/><glyph glyph-name="uni041A" unicode="К" horiz-adv-x="744" d="M308 0H42v700h266V465h36l124 235h292L553 349 760 0H468L336 235h-28V0z"/><glyph glyph-name="uni041B" unicode="Л" horiz-adv-x="762" d="M156 700h564V0H454v470h-56q-5-77-13.5-138T356 203 306.5 89.5t-78-75.5T116-16Q45-16-4 0v230q54-17 87 13 21 19 35 56t20.5 90.5 9 98 4.5 112 4 100.5z"/><glyph glyph-name="uni041C" unicode="М" horiz-adv-x="904" d="M634 700h228V0H606v279l-87-137H385l-87 139V0H42v700h228l182-289z"/><glyph glyph-name="uni041D" unicode="Н" horiz-adv-x="752" d="M444 700h266V0H444v235H308V0H42v700h266V465h136v235z"/><glyph glyph-name="uni041E" unicode="О" horiz-adv-x="801" d="M18 350q0 162 99 264.5T400 717t283.5-103T783 350 683.5 86 400-17 117 85.5 18 350zm491 0q0 62-29 94.5T400 477q-50 0-79-32.5T292 350t29-94.5 79-32.5q51 0 80 32.5t29 94.5z"/><glyph glyph-name="uni041F" unicode="П" horiz-adv-x="761" d="M307 0H42v700h677V0H453v470H307V0z"/><glyph glyph-name="uni0420" unicode="Р" horiz-adv-x="705" d="M42 700h328q321 0 321-273T370 154h-62V0H42v700zm389-273q0 59-71 59h-52V368h52q71 0 71 59z"/><glyph glyph-name="uni0421" unicode="С" horiz-adv-x="648" d="M20 345q0 96 32.5 170T141 632t123 64 143 21q114 0 208-41V446q-74 41-161 41-70 0-115-34t-45-108q0-64 44.5-96T448 217q120 0 172 41V24q-92-41-205-41-79 0-148 21T141.5 67t-89 113.5T20 345z"/><glyph glyph-name="uni0422" unicode="Т" horiz-adv-x="648" d="M11 700h626V470H457V0H191v470H11v230z"/><glyph glyph-name="uni0423" unicode="У" horiz-adv-x="739" d="M492 161Q448 67 385.5 25.5T225-16Q166-16 86 6v211q40-14 83-14 57 0 73 34l10 21L-8 700h280l107-241 85 241h279z"/><glyph glyph-name="uni0424" unicode="Ф" horiz-adv-x="902" d="M569-52H333v92Q176 54 89 135T2 350t87 215 244 95v92h236v-92q157-14 244-95t87-215-87-215-244-95v-92zM262 350q0-90 76-103v206q-76-13-76-103zm302 103V247q76 13 76 103t-76 103z"/><glyph glyph-name="uni0425" unicode="Х" horiz-adv-x="762" d="M285 0H-25l241 358-231 342h310l86-162 85 162h310L546 358 786 0H476l-95 167z"/><glyph glyph-name="uni0426" unicode="Ц" horiz-adv-x="816" d="M794-129H554V0H42v700h266V230h138v470h266V230h82v-359z"/><glyph glyph-name="uni0427" unicode="Ч" horiz-adv-x="713" d="M671 0H405v209q-55-19-127-19-114 0-183.5 60.5T25 426v274h266V467q0-49 61-49 29 0 53 11v271h266V0z"/><glyph glyph-name="uni0428" unicode="Ш" horiz-adv-x="1030" d="M988 0H42v700h266V230h74v470h266V230h74v470h266V0z"/><glyph glyph-name="uni0429" unicode="Щ" horiz-adv-x="1092" d="M1070-129H830V0H42v700h266V230h74v470h266V230h74v470h266V230h82v-359z"/><glyph glyph-name="uni042A" unicode="Ъ" horiz-adv-x="800" d="M487 0H159v470H13v230h412V516h62q301 0 301-258T487 0zm-62 302v-88h52q22 0 36.5 12t14.5 32-14.5 32-36.5 12h-52z"/><glyph glyph-name="uni042B" unicode="Ы" horiz-adv-x="1018" d="M370 0H42v700h266V516h62q301 0 301-258T370 0zm-62 302v-88h52q22 0 36.5 12t14.5 32-14.5 32-36.5 12h-52zM976 0H710v700h266V0z"/><glyph glyph-name="uni042C" unicode="Ь" horiz-adv-x="683" d="M370 0H42v700h266V516h62q301 0 301-258T370 0zm-62 302v-88h52q22 0 36.5 12t14.5 32-14.5 32-36.5 12h-52z"/><glyph glyph-name="uni042D" unicode="Э" horiz-adv-x="645" d="M31 676q94 41 208 41 76 0 143-21t123-64 88.5-117T626 345q0-93-32.5-164.5T504.5 67 379 4 231-17Q123-17 31 24v214q55-41 177-41 111 0 151 59H129v190h228q-41 61-155 61-93 0-171-41v210z"/><glyph glyph-name="uni042E" unicode="Ю" horiz-adv-x="1124" d="M1106 350q0-161-99.5-264T723-17q-142 0-234 68.5T366 235h-58V0H42v700h266V465h58q31 115 123 183.5T723 717q184 0 283.5-103t99.5-264zm-491 0q0-62 29-94.5t79-32.5q51 0 80 32.5t29 94.5-29 94.5-80 32.5q-50 0-79-32.5T615 350z"/><glyph glyph-name="uni042F" unicode="Я" horiz-adv-x="738" d="M285 0H-14l172 243Q41 308 41 445q0 70 25.5 121.5T137 646t97 41 114 13h348V0H430v190h-17zm22 436q0-23 16-38.5t46-15.5h61v108h-61q-30 0-46-15.5T307 436z"/><glyph glyph-name="uni0430" unicode="а" horiz-adv-x="591" d="M538 163q0-23 24-23 8 0 20 2V5q-45-21-122-21-89 0-124 49-62-50-155-50-72 0-119.5 36.5T14 126q0 58 33 94t78 48.5T228 281q50 0 88-9v8q0 25-22 36t-70 11q-83 0-176-32v170q109 32 204 32 70 0 119-10t88.5-35.5 59-74T538 257v-94zm-250 18q-47 0-47-36 0-31 38-31 20 0 37 11v53q-12 3-28 3z"/><glyph glyph-name="uni0431" unicode="б" horiz-adv-x="580" d="M571 203q0-108-76.5-164T309-17q-58 0-105.5 13.5t-90.5 46-67.5 95T21 289q0 128 38 203t109 119q59 37 135 52t134.5 23.5T521 717V505q-33-27-107-37.5T324 451q-28-9-49.5-33T252 364q54 49 134 49 78 0 131.5-53.5T571 203zm-320 15q0-48 45-48t45 48-45 48-45-48z"/><glyph glyph-name="uni0432" unicode="в" horiz-adv-x="564" d="M362 0H33v480h316q56 0 95.5-13t57.5-34.5 25-41 7-40.5q0-79-69-111 90-34 90-116 0-48-43-86T362 0zM253 184v-54h42q34 0 34 27t-34 27h-42zm0 164v-54h37q34 0 34 28 0 26-34 26h-37z"/><glyph glyph-name="uni0433" unicode="г" horiz-adv-x="438" d="M275 0H33v480h392V290H275V0z"/><glyph glyph-name="uni0434" unicode="д" horiz-adv-x="678" d="M229-121H14v286h63q65 119 63 315h456V165h65v-286H446V0H229v-121zm105 434q-2-73-37-148h84v148h-47z"/><glyph glyph-name="uni0435" unicode="е" horiz-adv-x="546" d="M16 245q0 67 25 118t66 79 84.5 41.5T279 497q65 0 114.5-18.5T470 429t44-71 16-81.5-7-82.5H242q11-23 45.5-36t77.5-13q78 0 139 16V7q-72-24-172-24-60 0-113.5 13.5T118 38.5 43.5 120 16 245zm323 43q3 25-9 41.5T293 346q-27 0-41-17t-14-41h101z"/><glyph glyph-name="uni0436" unicode="ж" horiz-adv-x="900" d="M893 0H643l-56 142h-22V0H335v142h-22L257 0H7l104 235L8 480h250l55-148h22v148h230V332h22l55 148h250L789 235z"/><glyph glyph-name="uni0437" unicode="з" horiz-adv-x="504" d="M487 133q0-150-262-150-113 0-203 36v154q77-34 167-34 47 0 47 24 0 19-31 19H98v120l93 1q35 0 35 17 0 21-50 21-76 0-142-30v154q32 13 93 23t120 9q230-2 230-140 0-41-21-70.5T399 246q88-30 88-113z"/><glyph glyph-name="uni0438" unicode="и" horiz-adv-x="614" d="M210 0H33v480h220V311l151 169h177V0H361v169z"/><glyph glyph-name="uni0439" unicode="й" horiz-adv-x="614" d="M480 566q-69-43-173-43t-173 43v146q65-37 173-37t173 37V566zM210 0H33v480h220V311l151 169h177V0H361v169z"/><glyph glyph-name="uni043A" unicode="к" horiz-adv-x="624" d="M275 0H33v480h242V337h26l70 143h260L489 242 632 0H372l-71 147h-26V0z"/><glyph glyph-name="uni043B" unicode="л" horiz-adv-x="631" d="M321 290q-19-165-65.5-235T108-15Q55-15 3 0v197q31-7 51 0 13 4 22.5 13.5T92 237t10 32.5 6.5 44 3.5 48 2.5 58T117 480h481V0H356v290h-35z"/><glyph glyph-name="uni043C" unicode="м" horiz-adv-x="682" d="M243 0H33v480h184l124-192 124 192h184V0H439v172l-62-95h-72l-62 95V0z"/><glyph glyph-name="uni043D" unicode="н" horiz-adv-x="607" d="M275 0H33v480h242V330h57v150h242V0H332v150h-57V0z"/><glyph glyph-name="uni043E" unicode="о" horiz-adv-x="595" d="M16 240q0 126 79 191.5T297 497t202.5-66T579 240 499.5 49 297-17 95 48.5 16 240zm333 0q0 64-52 64-51 0-51-64t51-64q52 0 52 64z"/><glyph glyph-name="uni043F" unicode="п" horiz-adv-x="601" d="M275 0H33v480h535V0H326v290h-51V0z"/><glyph glyph-name="uni0440" unicode="р" horiz-adv-x="627" d="M246 427q65 70 151 70 105 0 158.5-73T609 240 555.5 56 397-17q-75 0-122 39v-242H33v700h213v-53zm113-187q0 27-12 46t-37 19q-21 0-35-14V189q12-14 35-14 25 0 37 19t12 46z"/><glyph glyph-name="uni0441" unicode="с" horiz-adv-x="487" d="M16 224q0 71 24.5 126t66.5 86.5 92.5 47T307 499q70 0 148-25V279q-51 22-101 22-88 0-88-61 0-59 84-59 59 0 110 19V7q-82-24-168-24-55 0-103 13.5T101.5 38 39 113.5 16 224z"/><glyph glyph-name="uni0442" unicode="т" horiz-adv-x="492" d="M367 0H125v290H14v190h464V290H367V0z"/><glyph glyph-name="uni0443" unicode="у" horiz-adv-x="626" d="M327 238l54 242h244L456-12q-41-120-116-172t-167-52q-59 0-119 19v194q41-12 75-12 53 0 81 39L-6 480h248z"/><glyph glyph-name="uni0444" unicode="ф" horiz-adv-x="828" d="M525-220H303v203Q174-10 94.5 58.5T15 240t79.5 181.5T303 497v203h222V497q129-7 208.5-75.5T813 240 733.5 58.5 525-17v-203zM245 240q0-61 63-71v142q-63-10-63-71zm275 71V169q63 11 63 71t-63 71z"/><glyph glyph-name="uni0445" unicode="х" horiz-adv-x="586" d="M348 480h244L443 239 597 0H344l-51 99-51-99H-11l154 239L-6 480h244l55-107z"/><glyph glyph-name="uni0446" unicode="ц" horiz-adv-x="652" d="M633-121H418V0H33v480h242V190h51v290h242V190h65v-311z"/><glyph glyph-name="uni0447" unicode="ч" horiz-adv-x="589" d="M556 0H314v122q-43-14-107-14-44 0-84.5 16t-71 57.5T21 283v197h242V319q0-21 26-21 15 0 25 6v176h242V0z"/><glyph glyph-name="uni0448" unicode="ш" horiz-adv-x="892" d="M859 0H33v480h242V190h50v290h242V190h50v290h242V0z"/><glyph glyph-name="uni0449" unicode="щ" horiz-adv-x="943" d="M924-121H709V0H33v480h242V190h50v290h242V190h50v290h242V190h65v-311z"/><glyph glyph-name="uni044A" unicode="ъ" horiz-adv-x="682" d="M366 370h95q102 0 155-51t53-133-53.5-134T461 0H124v302H13v178h353V370zm0-222h27q44 0 44 42t-44 42h-27v-84z"/><glyph glyph-name="uni044B" unicode="ы" horiz-adv-x="890" d="M370 0H33v480h242V370h95q102 0 155-51t53-133-53.5-134T370 0zm-95 232v-84h27q44 0 44 42t-44 42h-27zM857 0H615v480h242V0z"/><glyph glyph-name="uni044C" unicode="ь" horiz-adv-x="590" d="M370 0H33v480h242V370h95q102 0 155-51t53-133-53.5-134T370 0zm-95 232v-84h27q44 0 44 42t-44 42h-27z"/><glyph glyph-name="uni044D" unicode="э" horiz-adv-x="524" d="M508 228q0-62-25-110.5t-66.5-77-90-43T226-17q-68 0-111 9T25 25v160q55-40 137-40 94 0 115 36H103v118h174q-20 36-109 36-79 0-138-40v161q86 41 191 41 126 0 206.5-69T508 228z"/><glyph glyph-name="uni044E" unicode="ю" horiz-adv-x="859" d="M843 240q0-125-79.5-191T561-17q-89 0-158 42.5T308 150h-35V0H33v480h240V330h35q26 82 95 124.5T561 497q123 0 202.5-66T843 240zm-333 0q0-55 51-55 52 0 52 55t-52 55q-51 0-51-55z"/><glyph glyph-name="uni044F" unicode="я" horiz-adv-x="591" d="M248 0H4l104 152q-85 47-85 147 0 73 53.5 127T241 480h317V0H338v122h-14zm5 290q0-39 43-39h42v78h-42q-43 0-43-39z"/><glyph glyph-name="uni0451" unicode="ё" horiz-adv-x="546" d="M499 616q0-49-29.5-77T394 511t-75.5 28-29.5 77 29.5 77 75.5 28 75.5-28 29.5-77zm-238 0q0-49-29.5-77T156 511t-75.5 28T51 616t29.5 77 75.5 28 75.5-28 29.5-77zM16 245q0 67 25 118t66 79 84.5 41.5T279 497q65 0 114.5-18.5T470 429t44-71 16-81.5-7-82.5H242q11-23 45.5-36t77.5-13q78 0 139 16V7q-72-24-172-24-60 0-113.5 13.5T118 38.5 43.5 120 16 245zm323 43q3 25-9 41.5T293 346q-27 0-41-17t-14-41h101z"/><glyph glyph-name="Wgrave" unicode="Ẁ" horiz-adv-x="1134" d="M847 700h287L925 0H640l-73 291L495 0H209L0 700h286l85-367 90 367h212l89-367zm-160 45H486L355 921h227z"/><glyph glyph-name="wgrave" unicode="ẁ" horiz-adv-x="854" d="M609 480h241L703 0H478l-51 203L376 0H151L4 480h241l45-246 58 246h158l58-246zm-60 45H348L217 701h227z"/><glyph glyph-name="Wacute" unicode="Ẃ" horiz-adv-x="1134" d="M847 700h287L925 0H640l-73 291L495 0H209L0 700h286l85-367 90 367h212l89-367zm-205 45H441l105 176h227z"/><glyph glyph-name="wacute" unicode="ẃ" horiz-adv-x="854" d="M609 480h241L703 0H478l-51 203L376 0H151L4 480h241l45-246 58 246h158l58-246zm-105 45H303l105 176h227z"/><glyph glyph-name="Wdieresis" unicode="Ẅ" horiz-adv-x="1134" d="M847 700h287L925 0H640l-73 291L495 0H209L0 700h286l85-367 90 367h212l89-367zm-59 136q0-49-29.5-77T683 731t-75.5 28-29.5 77 29.5 77 75.5 28 75.5-28 29.5-77zm-238 0q0-49-29.5-77T445 731t-75.5 28-29.5 77 29.5 77 75.5 28 75.5-28 29.5-77z"/><glyph glyph-name="wdieresis" unicode="ẅ" horiz-adv-x="854" d="M609 480h241L703 0H478l-51 203L376 0H151L4 480h241l45-246 58 246h158l58-246zm41 136q0-49-29.5-77T545 511t-75.5 28-29.5 77 29.5 77 75.5 28 75.5-28 29.5-77zm-238 0q0-49-29.5-77T307 511t-75.5 28-29.5 77 29.5 77 75.5 28 75.5-28 29.5-77z"/><glyph glyph-name="Ygrave" unicode="Ỳ" horiz-adv-x="774" d="M519 0H255v239L-6 700h300l93-246 94 246h300L519 239V0zm-14 745H304L173 921h227z"/><glyph glyph-name="ygrave" unicode="ỳ" horiz-adv-x="626" d="M327 238l54 242h244L456-12q-41-120-116-172t-167-52q-59 0-119 19v194q41-12 75-12 53 0 81 39L-6 480h248zm102 287H228L97 701h227z"/><glyph glyph-name="endash" unicode="–" horiz-adv-x="585" d="M546 150H39v180h507V150z"/><glyph glyph-name="emdash" unicode="—" horiz-adv-x="795" d="M756 150H39v180h717V150z"/><glyph glyph-name="quoteleft" unicode="‘" horiz-adv-x="304" d="M225 380H5l120 320h173z"/><glyph glyph-name="quoteright" unicode="’" horiz-adv-x="301" d="M187 380H14l73 320h220z"/><glyph glyph-name="quotesinglbase" unicode="‚" horiz-adv-x="289" d="M155-143H-18l73 320h220z"/><glyph glyph-name="quotedblleft" unicode="“" horiz-adv-x="554" d="M475 380H255l120 320h173zm-250 0H5l120 320h173z"/><glyph glyph-name="quotedblright" unicode="”" horiz-adv-x="551" d="M437 380H264l73 320h220zm-250 0H14l73 320h220z"/><glyph glyph-name="quotedblbase" unicode="„" horiz-adv-x="539" d="M405-143H232l73 320h220zm-250 0H-18l73 320h220z"/><glyph glyph-name="dagger" unicode="†" horiz-adv-x="587" d="M427-220H161v467H23v233h138v220h266V480h137V247H427v-467z"/><glyph glyph-name="daggerdbl" unicode="‡" horiz-adv-x="636" d="M451-220H185v161H34v224h151v91H34v224h151v220h266V480h151V256H451v-91h151V-59H451v-161z"/><glyph glyph-name="bullet" unicode="•" horiz-adv-x="459" d="M44 350q0 88 53 133t133 45q81 0 133-44.5T415 350q0-90-52-135t-133-45q-80 0-133 45.5T44 350z"/><glyph glyph-name="ellipsis" unicode="…" horiz-adv-x="934" d="M915 107q0-60-37-92t-92-32-91.5 32-36.5 92 36.5 92 91.5 32 92-32 37-92zm-640 0q0-60-37-92t-92-32-91.5 32T18 107t36.5 92 91.5 32 92-32 37-92zm320 0q0-60-37-92t-92-32-91.5 32-36.5 92 36.5 92 91.5 32 92-32 37-92z"/><glyph glyph-name="perthousand" unicode="‰" horiz-adv-x="1436" d="M357-60H217l409 820h140zm87 579q0-97-60-147.5T232 321 80 371.5 20 519t60 147.5T232 717t152-50.5T444 519zm-254 0q0-46 42-46t42 46-42 46-42-46zm772-338q0-97-60-147.5T750-17 598.5 33.5 539 181t59.5 148T750 380t152-51 60-148zm-254 0q0-46 42-46t42 46q0 47-42 47t-42-47zm708 0q0-97-60-147.5T1204-17t-151.5 50.5T993 181t59.5 148 151.5 51 152-51 60-148zm-254 0q0-46 42-46t42 46q0 47-42 47t-42-47z"/><glyph glyph-name="guilsinglleft" unicode="‹" horiz-adv-x="421" d="M404 26H162L23 219v42l139 193h242L254 240z"/><glyph glyph-name="guilsinglright" unicode="›" horiz-adv-x="420" d="M259 26H16l151 214L16 454h243l138-193v-42z"/><glyph glyph-name="fraction" unicode="⁄" horiz-adv-x="200" d="M-100-17h-68l465 734h68z"/><glyph glyph-name="Euro" unicode="€" horiz-adv-x="715" d="M670 24q-92-41-200-41-141 0-243.5 65.5T95 245H23v80h62v30H23v80h71q19 88 76 148.5t131 87T462 697q114 0 208-41V436q-74 41-161 41-80 0-118-42h172v-80H360q-1-5-1-15t1-15h203v-80H393q38-38 110-38 115 0 167 41V24z"/><glyph glyph-name="trademark" unicode="™" horiz-adv-x="708" d="M419 435H298v265h117l67-105 67 105h117V435H545v109l-32-54h-62l-32 54V435zm-201 0H87v149H26v116h254V584h-62V435z"/><glyph glyph-name="oneeighth" unicode="⅛" horiz-adv-x="922" d="M543 292q0 51 43 88.5T715 418q83 0 127.5-35.5T886 301q-2-52-51-80 66-37 66-105 0-54-47.5-90T712-10q-97 0-140.5 34T528 109q0 33 17.5 59.5T586 206q-43 35-43 86zm174-143q-5 1-14 3.5t-12 3.5q-9-11-9-25 0-28 35-28 29 0 29 21 0 17-29 25zm25 133q-2 23-29 23-26 0-26-18 0-13 27-21 18-6 23-7 5 12 5 23zM248-17h-68l465 734h68zM137 680h117V401h62V272H32v129h68v132l-62-23v132z"/><glyph glyph-name="threeeighths" unicode="⅜" horiz-adv-x="940" d="M561 292q0 51 43 88.5T733 418q83 0 127.5-35.5T904 301q-2-52-51-80 66-37 66-105 0-54-47.5-90T730-10q-97 0-140.5 34T546 109q0 33 17.5 59.5T604 206q-43 35-43 86zm174-143q-5 1-14 3.5t-12 3.5q-9-11-9-25 0-28 35-28 29 0 29 21 0 17-29 25zm25 133q-2 23-29 23-26 0-26-18 0-13 27-21 18-6 23-7 5 12 5 23zM266-17h-68l465 734h68zm76 594q0-29-17-53.5T276 488q36-7 59.5-31t23.5-64q0-64-50-94t-126-30q-78 0-153 28v131q68-32 140-32 37 0 37 19 0 14-20 14h-75l1 111 61-1q18 0 18 12 0 17-37 17-26 0-61-10t-57-24v126q60 37 145 37 68 0 114-29.5t46-90.5z"/><glyph glyph-name="fiveeighths" unicode="⅝" horiz-adv-x="935" d="M556 292q0 51 43 88.5T728 418q83 0 127.5-35.5T899 301q-2-52-51-80 66-37 66-105 0-54-47.5-90T725-10q-97 0-140.5 34T541 109q0 33 17.5 59.5T599 206q-43 35-43 86zm174-143q-5 1-14 3.5t-12 3.5q-9-11-9-25 0-28 35-28 29 0 29 21 0 17-29 25zm25 133q-2 23-29 23-26 0-26-18 0-13 27-21 18-6 23-7 5 12 5 23zM261-17h-68l465 734h68zM57 680h286V551H196l-3-26q18 2 30 2 57 0 97-29.5t40-96.5q0-52-30-85t-71-44.5-92-11.5q-80 0-139 28v121q43-25 108-25t65 29q0 31-76 31-44 0-82-9z"/><glyph glyph-name="seveneighths" unicode="⅞" horiz-adv-x="881" d="M201-17h-68l465 734h68zm300 309q0 51 43 88.5T673 418q83 0 127.5-35.5T844 301q-2-52-51-80 66-37 66-105 0-54-47.5-90T670-10q-97 0-140.5 34T486 109q0 33 17.5 59.5T544 206q-43 35-43 86zm174-143q-5 1-14 3.5t-12 3.5q-9-11-9-25 0-28 35-28 29 0 29 21 0 17-29 25zm25 133q-2 23-29 23-26 0-26-18 0-13 27-21 18-6 23-7 5 12 5 23zm-475-12H52l123 280H26v130h336v-99z"/><glyph glyph-name="partialdiff" unicode="∂" horiz-adv-x="573" d="M553 303q0-156-72-238T268-17Q154-17 85.5 48.5T17 219q0 110 57 166t136 56q76 0 127-43 0 20-15 42-24 35-81 55.5T98 507v210q228 7 341.5-104.5T553 303zm-313-84q0-48 45-48t45 48-45 48-45-48z"/><glyph glyph-name="emptyset" unicode="∅" horiz-adv-x="788" d="M755 700l-88-103q94-105 94-247 0-153-107-260T394-17q-110 0-202 60L155 0H34l88 103Q27 208 27 350q0 153 107 260t260 107q111 0 203-60l37 43h121zM394 598q-104 0-176-72t-72-176q0-88 54-156l318 371q-57 33-124 33zM270 135q58-33 124-33 104 0 176 72t72 176q0 88-54 155z"/><glyph glyph-name="product" unicode="∏" horiz-adv-x="838" d="M367-220H102v690H25v230h788V470h-77v-690H470v690H367v-690z"/><glyph glyph-name="summation" unicode="∑" horiz-adv-x="599" d="M565 0H29v142l184 208L29 558v142h525V470H369l86-97v-46l-86-97h196V0z"/><glyph glyph-name="minus" unicode="−" horiz-adv-x="515" d="M474 256H41v190h433V256z"/><glyph glyph-name="radical" unicode="√" horiz-adv-x="824" d="M465 0H253L130 247H15v233h260l82-192 212 492h277z"/><glyph glyph-name="infinity" unicode="∞" horiz-adv-x="902" d="M450 493q92 97 200 97 96 0 159.5-62.5T873 358t-63.5-169.5T650 126q-108 0-198 97-90-97-200-97-96 0-159.5 62.5T29 358t63.5 169.5T252 590q110 0 198-97zM349 359q-30 39-65 39-16 0-28.5-11T243 358t12.5-29 28.5-11q34 0 65 41zm310-1q0 18-12.5 29T619 398q-34 0-66-41 30-39 66-39 15 0 27.5 11t12.5 29z"/><glyph glyph-name="integral" unicode="∫" horiz-adv-x="519" d="M138 571q0 64 20.5 110t55.5 70.5 74.5 35T375 797q82 0 140-22V574q-42 14-77 14-25 0-41.5-16.5T380 524V-11q0-64-20.5-110t-56-70.5-75.5-35-87-10.5q-80 0-138 22v201q42-14 77-14 24 0 41 17t17 47v535z"/><glyph glyph-name="approxequal" unicode="≈" horiz-adv-x="623" d="M581 593q14-114-26.5-168.5T436 370q-42 0-111 22.5T248 415q-22 0-19-38H43Q29 491 69.5 545.5T188 600q42 0 111-22.5t77-22.5q22 0 19 38h186zm0-250q14-114-26.5-168.5T436 120q-42 0-111 22.5T248 165q-22 0-19-38H43Q29 241 69.5 295.5T188 350q42 0 111-22.5t77-22.5q22 0 19 38h186z"/><glyph glyph-name="notequal" unicode="≠" horiz-adv-x="626" d="M212 41H92l52 99H53v180h184l32 60H53v180h309l52 99h120l-52-99h91V380H389l-32-60h216V140H264z"/><glyph glyph-name="lessequal" unicode="≤" horiz-adv-x="521" d="M475 397V189L38 309v242l437 120V463l-255-33zm0-397H38v180h437V0z"/><glyph glyph-name="greaterequal" unicode="≥" horiz-adv-x="521" d="M483 309L46 189v208l255 33-255 33v208l437-120V309zm0-309H46v180h437V0z"/><glyph glyph-name="lozenge" unicode="◊" horiz-adv-x="638" d="M455 0H183L21 350l162 350h272l162-350zM255 350l64-135 64 135-64 135z"/><glyph glyph-name="i.loclTRK" horiz-adv-x="309" d="M33 480h243V0H33v480zm13 140q0 52 31 78.5t78 26.5 78-26.5 31-78.5q0-53-30.5-79T155 515q-47 0-78 26.5T46 620z"/><glyph glyph-name="a.ss01" horiz-adv-x="627" d="M381 53q-65-70-151-70-105 0-158.5 73T18 240t53.5 184T230 497q86 0 151-70v53h213V0H381v53zM268 240q0-27 12-46t37-19q21 0 35 14v102q-14 14-35 14-25 0-37-19t-12-46z"/><glyph glyph-name="aacute.ss01" horiz-adv-x="627" d="M381 53q-65-70-151-70-105 0-158.5 73T18 240t53.5 184T230 497q86 0 151-70v53h213V0H381v53zM268 240q0-27 12-46t37-19q21 0 35 14v102q-14 14-35 14-25 0-37-19t-12-46zm128 285H195l105 176h227z"/><glyph glyph-name="abreve.ss01" horiz-adv-x="627" d="M381 53q-65-70-151-70-105 0-158.5 73T18 240t53.5 184T230 497q86 0 151-70v53h213V0H381v53zM268 240q0-27 12-46t37-19q21 0 35 14v102q-14 14-35 14-25 0-37-19t-12-46zm244 338q-84-55-193-55t-193 55v156q80-49 193-49t193 49V578z"/><glyph glyph-name="acircumflex.ss01" horiz-adv-x="627" d="M381 53q-65-70-151-70-105 0-158.5 73T18 240t53.5 184T230 497q86 0 151-70v53h213V0H381v53zM268 240q0-27 12-46t37-19q21 0 35 14v102q-14 14-35 14-25 0-37-19t-12-46zm-56 465h212l134-180H367l-49 59-49-59H78z"/><glyph glyph-name="adieresis.ss01" horiz-adv-x="627" d="M381 53q-65-70-151-70-105 0-158.5 73T18 240t53.5 184T230 497q86 0 151-70v53h213V0H381v53zM268 240q0-27 12-46t37-19q21 0 35 14v102q-14 14-35 14-25 0-37-19t-12-46zm274 376q0-49-29.5-77T437 511t-75.5 28-29.5 77 29.5 77 75.5 28 75.5-28 29.5-77zm-238 0q0-49-29.5-77T199 511t-75.5 28T94 616t29.5 77 75.5 28 75.5-28 29.5-77z"/><glyph glyph-name="agrave.ss01" horiz-adv-x="627" d="M381 53q-65-70-151-70-105 0-158.5 73T18 240t53.5 184T230 497q86 0 151-70v53h213V0H381v53zM268 240q0-27 12-46t37-19q21 0 35 14v102q-14 14-35 14-25 0-37-19t-12-46zm173 285H240L109 701h227z"/><glyph glyph-name="amacron.ss01" horiz-adv-x="627" d="M381 53q-65-70-151-70-105 0-158.5 73T18 240t53.5 184T230 497q86 0 151-70v53h213V0H381v53zM268 240q0-27 12-46t37-19q21 0 35 14v102q-14 14-35 14-25 0-37-19t-12-46zM129 685h380V528H129v157z"/><glyph glyph-name="aogonek.ss01" horiz-adv-x="627" d="M594 480V0q-50-39-50-71 0-20 22-20 9 0 18 3v-135q-45-14-101-14-65 0-99 30t-33 75q-1 34 23.5 70T434 0h-53v53q-65-70-151-70-105 0-158.5 73T18 240t53.5 184T230 497q86 0 151-70v53h213zM317 175q21 0 35 14v102q-14 14-35 14-25 0-37-19t-12-46 12-46 37-19z"/><glyph glyph-name="aring.ss01" horiz-adv-x="627" d="M381 53q-65-70-151-70-105 0-158.5 73T18 240t53.5 184T230 497q86 0 151-70v53h213V0H381v53zM268 240q0-27 12-46t37-19q21 0 35 14v102q-14 14-35 14-25 0-37-19t-12-46zm203 397q0-65-43-100.5T320 501q-63 0-106 35.5T171 637q0 62 43 98t106 36q65 0 108-36t43-98zm-183-1q0-33 33-33t33 33-33 33-33-33z"/><glyph glyph-name="atilde.ss01" horiz-adv-x="627" d="M381 53q-65-70-151-70-105 0-158.5 73T18 240t53.5 184T230 497q86 0 151-70v53h213V0H381v53zM268 240q0-27 12-46t37-19q21 0 35 14v102q-14 14-35 14-25 0-37-19t-12-46zm261 469q20-80-16.5-138.5T404 512q-38 0-81.5 20.5T271 553q-13 0-17.5-11t-1.5-24H105q-20 80 16.5 138.5T230 715q38 0 81.5-20.5T363 674q13 0 17.5 11t1.5 24h147z"/><glyph glyph-name="ae.ss01" horiz-adv-x="909" d="M381 53q-65-70-151-70-105 0-158.5 73T18 240t53.5 184T230 497q86 0 151-70v53h203v-45q53 62 136 62 49 0 85-19t54.5-49.5 27-71 7-81T883 194H602q11-23 45.5-36t77.5-13q75 0 122 14V5q-51-22-106-22-98 0-157 71V0H381v53zM268 240q0-27 12-46t37-19q21 0 35 14v102q-14 14-35 14-25 0-37-19t-12-46zm385 106q-27 0-41-17t-14-41h101q3 25-9 41.5T653 346z"/><glyph glyph-name="y.ss01" horiz-adv-x="597" d="M564 39q0-71-24.5-125.5T473-173t-92.5-48T274-237q-128 0-217 25V-9q59-32 156-32 109 0 109 64v15Q271 3 209 3 118 3 73.5 56.5T29 180v300h242V207q0-23 25-23 15 0 26 9v287h242V39z"/><glyph glyph-name="yacute.ss01" horiz-adv-x="597" d="M564 39q0-71-24.5-125.5T473-173t-92.5-48T274-237q-128 0-217 25V-9q59-32 156-32 109 0 109 64v15Q271 3 209 3 118 3 73.5 56.5T29 180v300h242V207q0-23 25-23 15 0 26 9v287h242V39zM374 525H173l105 176h227z"/><glyph glyph-name="ycircumflex.ss01" horiz-adv-x="597" d="M564 39q0-71-24.5-125.5T473-173t-92.5-48T274-237q-128 0-217 25V-9q59-32 156-32 109 0 109 64v15Q271 3 209 3 118 3 73.5 56.5T29 180v300h242V207q0-23 25-23 15 0 26 9v287h242V39zM190 705h212l134-180H345l-49 59-49-59H56z"/><glyph glyph-name="ydieresis.ss01" horiz-adv-x="597" d="M564 39q0-71-24.5-125.5T473-173t-92.5-48T274-237q-128 0-217 25V-9q59-32 156-32 109 0 109 64v15Q271 3 209 3 118 3 73.5 56.5T29 180v300h242V207q0-23 25-23 15 0 26 9v287h242V39zm-44 577q0-49-29.5-77T415 511t-75.5 28-29.5 77 29.5 77 75.5 28 75.5-28 29.5-77zm-238 0q0-49-29.5-77T177 511t-75.5 28T72 616t29.5 77 75.5 28 75.5-28 29.5-77z"/><glyph glyph-name="ygrave.ss01" horiz-adv-x="597" d="M564 39q0-71-24.5-125.5T473-173t-92.5-48T274-237q-128 0-217 25V-9q59-32 156-32 109 0 109 64v15Q271 3 209 3 118 3 73.5 56.5T29 180v300h242V207q0-23 25-23 15 0 26 9v287h242V39zM419 525H218L87 701h227z"/><glyph glyph-name="f_b" horiz-adv-x="1034" d="M682 458q47 39 122 39 105 0 158.5-73t53.5-184-53.5-184T804-17q-86 0-151 70V0H440v522q-33 10-55 9-63-2-63-42v-9h67V290h-67V0H80v290H20v190h60v26q0 105 68.5 162.5T325 726q69 0 149-23l208 17V458zm0-269q14-14 35-14 25 0 37 19t12 46-12 46-37 19q-23 0-35-14V189z"/><glyph glyph-name="f_f_b" horiz-adv-x="1394" d="M1042 458q47 39 122 39 105 0 158.5-73t53.5-184-53.5-184T1164-17q-86 0-151 70V0H800v532q-33 10-55 9-63-2-63-52v-9h67V290h-67V0H440v290H322V0H80v290H20v190h60v29q0 97 66.5 149.5T314 711q97 0 181-45 67 70 190 70 69 0 149-23l208 17V458zm-602 22v38q-32 15-67 15-22 0-36.5-10.5T322 494v-14h118zm602-291q14-14 35-14 25 0 37 19t12 46-12 46-37 19q-23 0-35-14V189z"/><glyph glyph-name="f_f_h" horiz-adv-x="1364" d="M1042 462q51 35 113 35 91 0 135.5-53.5T1335 320V0h-242v273q0 23-25 23-15 0-26-9V0H800v532q-33 10-55 9-63-2-63-52v-9h67V290h-67V0H440v290H322V0H80v290H20v190h60v29q0 97 66.5 149.5T314 711q97 0 181-45 67 70 190 70 69 0 149-23l208 17V462zm-602 18v38q-32 15-67 15-22 0-36.5-10.5T322 494v-14h118z"/><glyph glyph-name="f_f_j" horiz-adv-x="1059" d="M1026-49q0-97-59.5-144T820-240q-55 0-107 19v200q11-3 25-3 46 0 46 47v267H682V0H440v290H322V0H80v290H20v190h60v29q0 97 66.5 149.5T314 711q99 0 183-46 72 71 216 71 97 0 205-36V517q-88 26-153 26-83 0-83-52v-11h344V-49zM322 494v-14h118v38q-32 15-67 15-22 0-36.5-10.5T322 494z"/><glyph glyph-name="f_f_k" horiz-adv-x="1391" d="M1398 480l-142-238L1399 0h-260l-71 147h-26V0H800v532q-33 10-55 9-63-2-63-52v-9h67V290h-67V0H440v290H322V0H80v290H20v190h60v29q0 97 66.5 149.5T314 711q97 0 181-45 67 70 190 70 69 0 149-23l208 17V337h26l70 143h260zm-958 0v38q-32 15-67 15-22 0-36.5-10.5T322 494v-14h118z"/><glyph glyph-name="f_h" horiz-adv-x="1004" d="M682 462q51 35 113 35 91 0 135.5-53.5T975 320V0H733v273q0 23-25 23-15 0-26-9V0H440v522q-33 10-55 9-63-2-63-42v-9h67V290h-67V0H80v290H20v190h60v26q0 105 68.5 162.5T325 726q69 0 149-23l208 17V462z"/><glyph glyph-name="f_i" horiz-adv-x="699" d="M322 480h344V0H424v290H322V0H80v290H20v190h60v36q0 110 75.5 165T353 736q97 0 205-36V517q-88 26-153 26-83 0-83-52v-11z"/><glyph glyph-name="f_j" horiz-adv-x="699" d="M322 480h344V-49q0-97-59.5-144T460-240q-55 0-107 19v200q11-3 25-3 46 0 46 47v267H322V0H80v290H20v190h60v36q0 110 75.5 165T353 736q97 0 205-36V517q-88 26-153 26-83 0-83-52v-11z"/><glyph glyph-name="f_k" horiz-adv-x="1031" d="M1038 480L896 242 1039 0H779l-71 147h-26V0H440v522q-33 10-55 9-63-2-63-42v-9h67V290h-67V0H80v290H20v190h60v26q0 105 68.5 162.5T325 726q69 0 149-23l208 17V337h26l70 143h260z"/><glyph glyph-name="f_l" horiz-adv-x="715" d="M325 736q69 0 149-23l208 17V0H440v532q-33 10-55 9-63-2-63-52v-9h67V290h-67V0H80v290H20v190h60v36q0 105 68.5 162.5T325 736z"/><glyph glyph-name="uni0414.loclBGR" horiz-adv-x="900" d="M264-129H24v349h87l196 480h286l196-480h87v-349H636V0H264v-129zm186 557l-76-208h152z"/><glyph glyph-name="uni041B.loclBGR" horiz-adv-x="763" d="M246 700h272L769 0H489L382 389 274 0H-6z"/><glyph glyph-name="uni0424.loclBGR" horiz-adv-x="920" d="M578-90H342V8Q180 27 90.5 121.5T1 350t89.5 228.5T342 692v98h236v-98q162-19 251.5-113.5T919 350t-89.5-228.5T578 8v-98zM266 350q0-108 81-124v248q-81-16-81-124zm307 124V226q81 16 81 124t-81 124z"/><glyph glyph-name="uni0432.loclBGR" horiz-adv-x="618" d="M563 528q0-96-84-140 54-17 89-62.5T603 217q0-109-76-171.5T322-17Q176-17 99.5 58.5T23 316v46q-1 179 77 267t224 88q108 0 173.5-55.5T563 528zm-210-34q0 38-34 38-29 0-45-23t-20-83l43 7q28 5 42 23t14 38zm-98-228q2-52 16-72.5t47-20.5q24 0 39.5 15t15.5 41q0 28-19.5 39t-48.5 6z"/><glyph glyph-name="uni0433.loclBGR" horiz-adv-x="498" d="M466 24q-79-41-208-41-67 0-119.5 13.5T50 46.5 14 139q0 50 21.5 83.5t52 46.5 61.5 20 52.5 13.5T223 320q0 16-30 16-67 0-139-38v158q89 41 200 41 62 0 109.5-13t80.5-49.5 33-92.5q0-57-33-91.5t-72.5-44T299 187t-33-22q0-15 35-15t81 13.5 84 41.5V24z"/><glyph glyph-name="uni0434.loclBGR" horiz-adv-x="627" d="M18 250q0 110 53 178.5T230 497q86 0 151-70v53h213V39q0-141-85.5-208.5T294-237q-127 0-227 38V-3q77-38 176-38 109 0 109 64v19Q305 3 230 3 124 3 71 71.5T18 250zm334 46q-14 14-35 14-25 0-37-19t-12-46 12-46 37-19q23 0 35 14v102z"/><glyph glyph-name="uni0436.loclBGR" horiz-adv-x="898" d="M256 0H6l105 237L7 480h250l56-148h21v368h230V332h21l56 148h250L787 237 892 0H642l-56 142h-22V0H334v142h-22z"/><glyph glyph-name="uni0438.loclBGR" horiz-adv-x="597" d="M322 480h242V0H352v42q-63-59-143-59-91 0-135.5 53.5T29 160v320h242V207q0-23 25-23 15 0 26 9v287z"/><glyph glyph-name="uni0439.loclBGR" horiz-adv-x="597" d="M470 566q-69-43-173-43t-173 43v146q65-37 173-37t173 37V566zm-148-86h242V0H352v42q-63-59-143-59-91 0-135.5 53.5T29 160v320h242V207q0-23 25-23 15 0 26 9v287z"/><glyph glyph-name="uni043A.loclBGR" horiz-adv-x="624" d="M632 0H372l-71 147h-26V0H33v700h242V337h26l70 143h260L489 242z"/><glyph glyph-name="uni043B.loclBGR" horiz-adv-x="619" d="M620 0H368l-58 261L252 0H-1l182 480h257z"/><glyph glyph-name="uni043F.loclBGR" horiz-adv-x="597" d="M245 438q63 59 143 59 91 0 135.5-53.5T568 320V0H326v273q0 23-25 23-15 0-26-9V0H33v480h212v-42z"/><glyph glyph-name="uni0442.loclBGR" horiz-adv-x="864" d="M271 0H33v480h213v-41q22 24 63 41t82 17q94 0 133-62 28 28 68.5 45t80.5 17q162 0 162-200V0H597v278q0 18-20 18-10 0-24-7V0H315v278q0 18-20 18-10 0-24-7V0z"/><glyph glyph-name="uni0446.loclBGR" horiz-adv-x="643" d="M564 162q0-9 6-15t15-6h44v-262H424V-5q-43 14-66 51-51-63-149-63-91 0-135.5 53.5T29 160v320h242V207q0-23 25-23 15 0 26 9v287h242V162z"/><glyph glyph-name="uni0448.loclBGR" horiz-adv-x="864" d="M593 480h238V0H618v41q-22-24-63-41t-82-17q-94 0-133 62-28-28-68.5-45T191-17Q29-17 29 183v297h238V202q0-18 20-18 10 0 24 7v289h238V202q0-18 20-18 10 0 24 7v289z"/><glyph glyph-name="uni0449.loclBGR" horiz-adv-x="914" d="M835 162q0-9 6-15t15-6h44v-262H695V-5q-43 14-66 51-58-63-152-63-90 0-132 62-28-28-69-45t-81-17q-83 0-124.5 52T29 183v297h242V202q0-18 20-18 11 0 20 7v289h242V202q0-18 20-18 11 0 20 7v289h242V162z"/><glyph glyph-name="uni044E.loclBGR" horiz-adv-x="859" d="M843 240q0-125-79.5-191T561-17q-89 0-158 42.5T308 150h-35V0H33v700h240V330h35q26 82 95 124.5T561 497q123 0 202.5-66T843 240zm-333 0q0-55 51-55 52 0 52 55t-52 55q-51 0-51-55z"/><glyph glyph-name="uni0430.ss01" horiz-adv-x="627" d="M381 53q-65-70-151-70-105 0-158.5 73T18 240t53.5 184T230 497q86 0 151-70v53h213V0H381v53zM268 240q0-27 12-46t37-19q21 0 35 14v102q-14 14-35 14-25 0-37-19t-12-46z"/><glyph glyph-name="uni0437.ss01" horiz-adv-x="482" d="M439 308q0-99-80-141 52-18 86-63T479-3q0-115-84-174.5T183-237Q79-237 3-201v169q62-31 139-31 112 0 112 74 0 30-21.5 45T165 60l-52-11v151l60 13q58 13 58 56 0 53-81 53-75 0-134-35v168q81 41 180 41 111 1 177-46t66-142z"/><glyph glyph-name="uni0443.ss01" horiz-adv-x="597" d="M564 39q0-71-24.5-125.5T473-173t-92.5-48T274-237q-128 0-217 25V-9q59-32 156-32 109 0 109 64v15Q271 3 209 3 118 3 73.5 56.5T29 180v300h242V207q0-23 25-23 15 0 26 9v287h242V39z"/><glyph glyph-name="zero.osf" horiz-adv-x="679" d="M656 260q0-120-78.5-198.5T340-17 102 61.5 23 260t79 198.5T340 537t237.5-78.5T656 260zm-368 0q0-67 52-67 51 0 51 67t-51 67q-52 0-52-67z"/><glyph glyph-name="one.osf" horiz-adv-x="525" d="M210 520h194V205h103V0H34v205h113v90L45 257v200z"/><glyph glyph-name="two.osf" horiz-adv-x="571" d="M536 1H25v84q0 56 34 89t107 67q75 35 86 46 8 9 8 19 0 22-36 22-71 0-168-67v220q118 56 244 56 99 0 168-45.5T537 365q0-64-46-105-34-30-103-54h148V1z"/><glyph glyph-name="three.osf" horiz-adv-x="568" d="M520 337q0-49-28-89.5T411 189q59-12 98-52.5T548 30q0-56-24-97t-66-64.5-92.5-34.5T256-177q-128 0-226 36V73q89-38 203-38 63 0 63 32 0 23-34 23H157v184h84q29 0 29 20 0 28-61 28-86 0-167-33v206q90 42 212 42 72 0 130-19t97-65.5T520 337z"/><glyph glyph-name="four.osf" horiz-adv-x="651" d="M297 520h262V117h70V-83h-70v-77H334v77H12v190zm37-403v130l-90-130h90z"/><glyph glyph-name="five.osf" horiz-adv-x="569" d="M74 520h445V306H302l-3-44q24 3 46 3 94-1 148-57t54-151q0-65-27.5-112.5t-75.5-73-102-37T226-177q-104 0-200 38V63q68-35 159-35 97 0 97 51 0 49-95 49-81 0-137-14z"/><glyph glyph-name="six.osf" horiz-adv-x="653" d="M287 409q57 31 126 31 89 0 152.5-54.5T629 226q0-63-23.5-111T542 39 453.5-3 350-17q-161 0-242.5 90T26 330q0 92 28.5 164t77 115.5T239 675t124 22q114 0 217-46V457q-73 42-147 42-117 0-146-90zm-7-157q13-81 61-81 19 0 31 13t12 34q0 52-50 52-26 0-54-18z"/><glyph glyph-name="seven.osf" horiz-adv-x="562" d="M17 520h537V356L327-160H39l205 465H17v215z"/><glyph glyph-name="eight.osf" horiz-adv-x="640" d="M49 487q0 84 70 147t203 63q129 0 200-60t69-136q-1-50-23-80t-62-53q110-59 110-174 0-90-76.5-150.5T317-17Q165-17 94.5 40T24 182q0 55 30 98.5t68 62.5q-73 60-73 144zm274-238q-3 1-14.5 5t-16.5 6q-15-16-15-41 0-19 12-33t33-14q19 0 30 10.5t11 24.5q0 27-40 42zm33 223q0 16-10.5 26T319 508t-25.5-8-9.5-22q0-20 27-34 6-3 19-7t18-6q8 21 8 41z"/><glyph glyph-name="nine.osf" horiz-adv-x="643" d="M18 294q0 63 23.5 111t63.5 76 88.5 42T297 537q161 0 242.5-90T621 190q0-92-28.5-164t-77-115.5T408-155t-124-22q-114 0-217 46V63q73-42 147-42 117 0 146 90-57-31-126-31-89 0-152.5 54.5T18 294zm288 55q-19 0-31-13t-12-34q0-52 50-52 25 0 54 18-13 81-61 81z"/><glyph glyph-name="zero.sinf" horiz-adv-x="428" d="M410 104q0-93-48.5-153.5T214-110 66.5-49.5 18 104t48.5 153.5T214 318t147.5-61T410 104zm-233 0q0-42 9-59t28-17 28 17 9 59-9 59-28 17-28-17-9-59z"/><glyph glyph-name="one.sinf" horiz-adv-x="323" d="M131 308h117V29h62v-129H26V29h68v132l-62-23v132z"/><glyph glyph-name="two.sinf" horiz-adv-x="385" d="M35 275q73 43 158 43 72 0 119.5-33.5T360 181q0-59-52-100-6-5-30.5-22.5T240 29h119v-129H22l1 62q0 54 26 86t75 65q12 8 32.5 19.5t28.5 18 8 15.5q0 17-27 17-61 0-131-52v144z"/><glyph glyph-name="three.sinf" horiz-adv-x="371" d="M337 198q0-29-17-53.5T271 109q36-7 59.5-31T354 14q0-64-50-94t-126-30q-78 0-153 28V49q68-32 140-32 37 0 37 19 0 14-20 14h-75l1 111 61-1q18 0 18 12 0 17-37 17-26 0-61-10t-57-24v126q60 37 145 37 68 0 114-29.5t46-90.5z"/><glyph glyph-name="four.sinf" horiz-adv-x="422" d="M198 308h157V66h48V-54h-48v-46H214v46H15V72zm16-242v78l-60-78h60z"/><glyph glyph-name="five.sinf" horiz-adv-x="373" d="M51 310h286V181H190l-3-26q18 2 30 2 57 0 97-29.5T354 31q0-52-30-85t-71-44.5-92-11.5q-80 0-139 28V39q43-25 108-25t65 29q0 31-76 31-44 0-82-9z"/><glyph glyph-name="six.sinf" horiz-adv-x="415" d="M173 138q38 26 90 26 57 0 96-32.5T398 36q0-74-49.5-110T225-110q-104 0-155 56T19 104q0 108 60.5 161T233 318q77 0 130-28V174q-48 25-94 25-43 0-65.5-13T173 138zm0-88q10-47 47-47 14 0 22.5 7.5T251 31q0 31-36 31-21 0-42-12z"/><glyph glyph-name="seven.sinf" horiz-adv-x="358" d="M213-100H40l123 280H14v130h336v-99z"/><glyph glyph-name="eight.sinf" horiz-adv-x="409" d="M33 196q0 51 43 88.5T205 322q83 0 127.5-35.5T376 205q-2-52-51-80 66-37 66-105 0-54-47.5-90T202-106q-97 0-140.5 34T18 13q0 33 17.5 59.5T76 110q-43 35-43 86zM207 53q-5 1-14 3.5T181 60q-9-11-9-25 0-28 35-28 29 0 29 21 0 17-29 25zm25 133q-2 23-29 23-26 0-26-18 0-13 27-21 18-6 23-7 5 12 5 23z"/><glyph glyph-name="nine.sinf" horiz-adv-x="415" d="M17 172q0 74 49.5 110T190 318q104 0 155-56t51-158q0-108-60.5-161T182-110q-77 0-130 28V34q48-25 94-25 43 0 65.5 13T242 70q-38-26-90-26-57 0-96 32.5T17 172zm178 33q-14 0-22.5-7.5T164 177q0-31 36-31 21 0 42 12-10 47-47 47z"/><glyph glyph-name="zero.sups" horiz-adv-x="428" d="M410 583q0-93-48.5-153.5T214 369 66.5 429.5 18 583t48.5 153.5T214 797t147.5-61T410 583zm-233 0q0-42 9-59t28-17 28 17 9 59-9 59-28 17-28-17-9-59z"/><glyph glyph-name="one.sups" horiz-adv-x="323" d="M131 780h117V501h62V372H26v129h68v132l-62-23v132z"/><glyph glyph-name="two.sups" horiz-adv-x="385" d="M35 754q73 43 158 43 72 0 119.5-33.5T360 660q0-59-52-100-6-5-30.5-22.5T240 508h119V379H22l1 62q0 54 26 86t75 65q12 8 32.5 19.5t28.5 18 8 15.5q0 17-27 17-61 0-131-52v144z"/><glyph glyph-name="three.sups" horiz-adv-x="371" d="M337 677q0-29-17-53.5T271 588q36-7 59.5-31t23.5-64q0-64-50-94t-126-30q-78 0-153 28v131q68-32 140-32 37 0 37 19 0 14-20 14h-75l1 111 61-1q18 0 18 12 0 17-37 17-26 0-61-10t-57-24v126q60 37 145 37 68 0 114-29.5t46-90.5z"/><glyph glyph-name="four.sups" horiz-adv-x="422" d="M198 780h157V538h48V418h-48v-46H214v46H15v126zm16-242v78l-60-78h60z"/><glyph glyph-name="five.sups" horiz-adv-x="373" d="M51 780h286V651H190l-3-26q18 2 30 2 57 0 97-29.5t40-96.5q0-52-30-85t-71-44.5-92-11.5q-80 0-139 28v121q43-25 108-25t65 29q0 31-76 31-44 0-82-9z"/><glyph glyph-name="six.sups" horiz-adv-x="415" d="M173 617q38 26 90 26 57 0 96-32.5t39-95.5q0-74-49.5-110T225 369q-104 0-155 56T19 583q0 108 60.5 161T233 797q77 0 130-28V653q-48 25-94 25-43 0-65.5-13T173 617zm0-88q10-47 47-47 14 0 22.5 7.5T251 510q0 31-36 31-21 0-42-12z"/><glyph glyph-name="seven.sups" horiz-adv-x="359" d="M213 370H40l123 280H14v130h336v-99z"/><glyph glyph-name="eight.sups" horiz-adv-x="409" d="M33 675q0 51 43 88.5T205 801q83 0 127.5-35.5T376 684q-2-52-51-80 66-37 66-105 0-54-47.5-90T202 373q-97 0-140.5 34T18 492q0 33 17.5 59.5T76 589q-43 35-43 86zm174-143q-5 1-14 3.5t-12 3.5q-9-11-9-25 0-28 35-28 29 0 29 21 0 17-29 25zm25 133q-2 23-29 23-26 0-26-18 0-13 27-21 18-6 23-7 5 12 5 23z"/><glyph glyph-name="nine.sups" horiz-adv-x="415" d="M17 651q0 74 49.5 110T190 797q104 0 155-56t51-158q0-108-60.5-161T182 369q-77 0-130 28v116q48-25 94-25 43 0 65.5 13t30.5 48q-38-26-90-26-57 0-96 32.5T17 651zm178 33q-14 0-22.5-7.5T164 656q0-31 36-31 21 0 42 12-10 47-47 47z"/><glyph glyph-name="zero.tf" d="M657 340q0-73-18.5-135.5t-56-113-101-79.5T335-17 188.5 12t-101 79.5-56 113T13 340t18.5 135.5 56 113 101 79.5T335 697t146.5-29 101-79.5 56-113T657 340zm-379 0q0-69 14-98t43-29 43 29 14 98-14 98-43 29-43-29-14-98z"/><glyph glyph-name="one.tf" d="M286 680h194V215h163V0H40v215h183v220L76 378v220z"/><glyph glyph-name="two.tf" d="M64 626q122 71 274 71 77 0 137-21.5T575 601t40-132q0-59-22-96.5T530 302q-19-15-62-43.5T406 216h217V1H43v104q0 22 3 41t11 37 14.5 31.5 20.5 29 22 24.5 27 23.5 26 20 29 21 27 19.5q18 13 42.5 27.5t38 23 24 19.5 10.5 22q0 29-46 29-110 0-228-87v240z"/><glyph glyph-name="three.tf" d="M596 497q0-49-28-89.5T487 349q59-12 98-52.5T624 190q0-108-84.5-157.5T322-17Q182-17 56 29v220q47-23 116.5-38.5T299 195q73 0 73 32 0 23-34 23H193v184h124q29 0 29 20 0 28-71 28-51 0-110.5-16.5T68 425v210q99 62 252 62 120 0 198-49t78-151z"/><glyph glyph-name="four.tf" d="M314 680h262V277h80V77h-80V0H341v77H9v210zm32-403v129L246 277h100z"/><glyph glyph-name="five.tf" d="M105 680h485V466H333l-3-44q52 4 61 4 43 0 81.5-10.5t72-33.5 53.5-65.5 20-99.5q0-65-27.5-112.5t-75.5-73-102-37T297-17Q157-17 57 29v202q30-18 82.5-30.5T246 188q47 0 77 13t30 38q0 49-125 49-82 0-147-14z"/><glyph glyph-name="six.tf" d="M278 397q64 43 150 43 96 0 161-54.5T654 226q0-63-23.5-111T566 39 474.5-3 365-17q-174 0-259 93.5T21 340q0 179 101.5 268T378 697q130 0 217-46V457q-82 42-157 42-71 0-109.5-22.5T278 397zm0-148q17-78 78-78 23 0 38 13t15 34q0 52-60 52-37 0-71-21z"/><glyph glyph-name="seven.tf" d="M44 680h587V516L394 0H106l214 465H44v215z"/><glyph glyph-name="eight.tf" d="M49 487q0 85 72.5 147.5T337 697q139 0 212.5-59.5T621 501q-1-50-23-80t-62-53q110-59 110-174 0-91-78.5-151T332-17Q170-17 97 40T24 182q0 55 30 98.5t68 62.5q-73 60-73 144zm291-239q-30 8-43 12-15-16-15-41 0-20 14-33.5t43-13.5q49 0 49 34 0 29-48 42zm41 222q-2 38-48 38-21 0-32.5-8.5T289 479q0-10 8-17.5t15.5-10.5 22.5-8q14-4 38-12 9 24 8 39z"/><glyph glyph-name="nine.tf" d="M16 454q0 63 23.5 111t64.5 76 91.5 42T305 697q174 0 259-93.5T649 340q0-179-101.5-268T292-17Q162-17 75 29v194q82-42 157-42 71 0 109.5 22.5T392 283q-64-43-150-43-96 0-161 54.5T16 454zm298 55q-23 0-38-13t-15-34q0-52 60-52 37 0 71 21-17 78-78 78z"/><glyph glyph-name="zero.tosf" d="M657 260q0-57-18.5-106t-56-88-101-61T335-17 188.5 5t-101 61-56 88T13 260t18.5 106 56 88 101 61T335 537t146.5-22 101-61 56-88T657 260zm-379 0q0-67 57-67t57 67-57 67-57-67z"/><glyph glyph-name="one.tosf" d="M284 520h194V205h163V0H38v205h183v100L74 248v190z"/><glyph glyph-name="two.tosf" d="M620 1H41v84q0 98 120 150 25 11 73.5 24.5t75 24.5 26.5 24q0 20-46 20-106 0-218-67v220q118 56 274 56 126 0 200.5-44.5T621 365q0-61-35-98-34-34-114-61h148V1z"/><glyph glyph-name="three.tosf" d="M596 337q0-49-28-89.5T487 189q59-12 98-52.5T624 30q0-108-84.5-157.5T322-177q-140 0-266 46V89q47-23 116.5-38.5T299 35q73 0 73 32 0 23-34 23H193v184h124q29 0 29 20 0 28-71 28-51 0-110.5-16.5T68 265v210q99 62 252 62 120 0 198-49t78-151z"/><glyph glyph-name="four.tosf" d="M314 520h262V117h80V-83h-80v-77H341v77H9v210zm32-403v129L246 117h100z"/><glyph glyph-name="five.tosf" d="M105 520h485V306H333l-3-44q52 4 61 4 43 0 81.5-10.5t72-33.5 53.5-65.5T618 57q0-65-27.5-112.5t-75.5-73-102-37T297-177q-140 0-240 46V71q30-18 82.5-30.5T246 28q47 0 77 13t30 38q0 49-125 49-82 0-147-14z"/><glyph glyph-name="six.tosf" d="M278 397q64 43 150 43 96 0 161-54.5T654 226q0-63-23.5-111T566 39 474.5-3 365-17q-174 0-259 93.5T21 340q0 179 101.5 268T378 697q130 0 217-46V457q-82 42-157 42-71 0-109.5-22.5T278 397zm0-148q17-78 78-78 23 0 38 13t15 34q0 52-60 52-37 0-71-21z"/><glyph glyph-name="seven.tosf" d="M44 520h587V356L394-160H106l214 465H44v215z"/><glyph glyph-name="eight.tosf" d="M49 487q0 85 72.5 147.5T337 697q139 0 212.5-59.5T621 501q-1-50-23-80t-62-53q110-59 110-174 0-91-78.5-151T332-17Q170-17 97 40T24 182q0 55 30 98.5t68 62.5q-73 60-73 144zm291-239q-30 8-43 12-15-16-15-41 0-20 14-33.5t43-13.5q49 0 49 34 0 29-48 42zm41 222q-2 38-48 38-21 0-32.5-8.5T289 479q0-10 8-17.5t15.5-10.5 22.5-8q14-4 38-12 9 24 8 39z"/><glyph glyph-name="nine.tosf" d="M15 294q0 63 23.5 111t64.5 76 91.5 42T304 537q174 0 259-93.5T648 180Q648 1 546.5-88T291-177q-130 0-217 46V63q82-42 157-42 71 0 109.5 22.5T391 123q-65-43-150-43-96 0-161 54.5T15 294zm298 55q-23 0-38-13t-15-34q0-52 60-52 36 0 71 21-17 78-78 78z"/><glyph glyph-name="zero.dnom" horiz-adv-x="428" d="M410 204q0-92-48.5-153T214-10 66.5 50.5 18 204t48.5 153.5T214 418t147.5-61T410 204zm-233 0q0-42 9-59t28-17 28 17 9 59-9 59-28 17-28-17-9-59z"/><glyph glyph-name="one.dnom" horiz-adv-x="323" d="M131 408h117V129h62V0H26v129h68v132l-62-23v132z"/><glyph glyph-name="two.dnom" horiz-adv-x="385" d="M35 375q73 43 158 43 72 0 119.5-33.5T360 281q0-59-52-100-6-5-30.5-22.5T240 129h119V0H22l1 62q0 54 26 86t75 65q12 8 32.5 19.5t28.5 18 8 15.5q0 17-27 17-61 0-131-52v144z"/><glyph glyph-name="three.dnom" horiz-adv-x="371" d="M337 298q0-29-17-53.5T271 209q36-7 59.5-31t23.5-64q0-64-50-94T178-10q-78 0-153 28v131q68-32 140-32 37 0 37 19 0 14-20 14h-75l1 111 61-1q18 0 18 12 0 17-37 17-26 0-61-10t-57-24v126q60 37 145 37 68 0 114-29.5t46-90.5z"/><glyph glyph-name="four.dnom" horiz-adv-x="422" d="M198 408h157V166h48V46h-48V0H214v46H15v126zm16-242v78l-60-78h60z"/><glyph glyph-name="five.dnom" horiz-adv-x="373" d="M51 410h286V281H190l-3-26q18 2 30 2 57 0 97-29.5t40-96.5q0-52-30-85T253 1.5 161-10Q81-10 22 18v121q43-25 108-25t65 29q0 31-76 31-44 0-82-9z"/><glyph glyph-name="six.dnom" horiz-adv-x="415" d="M173 238q38 26 90 26 57 0 96-32.5t39-95.5q0-74-49.5-110T225-10Q121-10 70 46T19 204q0 108 60.5 161T233 418q77 0 130-28V274q-48 25-94 25-43 0-65.5-13T173 238zm0-88q10-47 47-47 14 0 22.5 7.5T251 131q0 31-36 31-21 0-42-12z"/><glyph glyph-name="seven.dnom" horiz-adv-x="358" d="M213 0H40l123 280H14v130h336v-99z"/><glyph glyph-name="eight.dnom" horiz-adv-x="409" d="M33 292q0 51 43 88.5T205 418q83 0 127.5-35.5T376 301q-2-52-51-80 66-37 66-105 0-54-47.5-90T202-10q-97 0-140.5 34T18 109q0 33 17.5 59.5T76 206q-43 35-43 86zm174-143q-5 1-14 3.5t-12 3.5q-9-11-9-25 0-28 35-28 29 0 29 21 0 17-29 25zm25 133q-2 23-29 23-26 0-26-18 0-13 27-21 18-6 23-7 5 12 5 23z"/><glyph glyph-name="nine.dnom" horiz-adv-x="415" d="M17 272q0 74 49.5 110T190 418q104 0 155-56t51-158q0-108-60.5-161T182-10q-77 0-130 28v116q48-25 94-25 43 0 65.5 13t30.5 48q-38-26-90-26-57 0-96 32.5T17 272zm178 33q-14 0-22.5-7.5T164 277q0-31 36-31 21 0 42 12-10 47-47 47z"/><glyph glyph-name="zero.numr" horiz-adv-x="428" d="M410 483q0-93-48.5-153.5T214 269 66.5 329.5 18 483t48.5 153.5T214 697t147.5-60.5T410 483zm-233 0q0-42 9-59t28-17 28 17 9 59-9 59-28 17-28-17-9-59z"/><glyph glyph-name="one.numr" horiz-adv-x="323" d="M131 680h117V401h62V272H26v129h68v132l-62-23v132z"/><glyph glyph-name="two.numr" horiz-adv-x="385" d="M35 654q73 43 158 43 72 0 119.5-33.5T360 560q0-59-52-100-6-5-30.5-22.5T240 408h119V279H22l1 62q0 54 26 86t75 65q12 8 32.5 19.5t28.5 18 8 15.5q0 17-27 17-61 0-131-52v144z"/><glyph glyph-name="three.numr" horiz-adv-x="371" d="M337 577q0-29-17-53.5T271 488q36-7 59.5-31t23.5-64q0-64-50-94t-126-30q-78 0-153 28v131q68-32 140-32 37 0 37 19 0 14-20 14h-75l1 111 61-1q18 0 18 12 0 17-37 17-26 0-61-10t-57-24v126q60 37 145 37 68 0 114-29.5t46-90.5z"/><glyph glyph-name="four.numr" horiz-adv-x="422" d="M198 680h157V438h48V318h-48v-46H214v46H15v126zm16-242v78l-60-78h60z"/><glyph glyph-name="five.numr" horiz-adv-x="373" d="M51 680h286V551H190l-3-26q18 2 30 2 57 0 97-29.5t40-96.5q0-52-30-85t-71-44.5-92-11.5q-80 0-139 28v121q43-25 108-25t65 29q0 31-76 31-44 0-82-9z"/><glyph glyph-name="six.numr" horiz-adv-x="415" d="M173 517q38 26 90 26 57 0 96-32.5t39-95.5q0-74-49.5-110T225 269q-104 0-155 56T19 483q0 108 60.5 161T233 697q77 0 130-28V553q-48 25-94 25-43 0-65.5-13T173 517zm0-88q10-47 47-47 14 0 22.5 7.5T251 410q0 31-36 31-21 0-42-12z"/><glyph glyph-name="seven.numr" horiz-adv-x="359" d="M213 270H40l123 280H14v130h336v-99z"/><glyph glyph-name="eight.numr" horiz-adv-x="409" d="M33 571q0 51 43 88.5T205 697q83 0 127.5-35.5T376 580q-2-52-51-80 66-37 66-105 0-54-47.5-90T202 269q-97 0-140.5 34T18 388q0 33 17.5 59.5T76 485q-43 35-43 86zm174-143q-5 1-14 3.5t-12 3.5q-9-11-9-25 0-28 35-28 29 0 29 21 0 17-29 25zm25 133q-2 23-29 23-26 0-26-18 0-13 27-21 18-6 23-7 5 12 5 23z"/><glyph glyph-name="nine.numr" horiz-adv-x="415" d="M17 551q0 74 49.5 110T190 697q104 0 155-56t51-158q0-108-60.5-161T182 269q-77 0-130 28v116q48-25 94-25 43 0 65.5 13t30.5 48q-38-26-90-26-57 0-96 32.5T17 551zm178 33q-14 0-22.5-7.5T164 556q0-31 36-31 21 0 42 12-10 47-47 47z"/><glyph glyph-name="emdash.case" horiz-adv-x="801" d="M759 260H42v180h717V260z"/><glyph glyph-name="endash.case" horiz-adv-x="591" d="M549 260H42v180h507V260z"/><glyph glyph-name="hyphen.case" horiz-adv-x="482" d="M42 440h398V260H42v180z"/><glyph glyph-name="guillemotleft.case" horiz-adv-x="736" d="M708 136H466L326 329v42l140 193h242L556 350zm-301 0H165L26 329v42l139 193h242L257 350z"/><glyph glyph-name="guillemotright.case" horiz-adv-x="735" d="M571 136H328l152 214-152 214h243l138-193v-42zm-300 0H28l151 214L28 564h243l138-193v-42z"/><glyph glyph-name="guilsinglleft.case" horiz-adv-x="435" d="M407 136H165L26 329v42l139 193h242L257 350z"/><glyph glyph-name="guilsinglright.case" horiz-adv-x="435" d="M271 136H28l151 214L28 564h243l138-193v-42z"/><glyph glyph-name="cent.tf" d="M487 185q31 4 61 15V7Q514-3 487-7v-113h-80v104q-9-1-27-1-55 0-103 13.5T189.5 38 127 113.5 104 224q0 71 24.5 126t66.5 86.5 92.5 47T395 499h12v101h80V489q30-6 56-15V279q-24 11-56 17V185zm-80 112q-53-10-53-57 0-46 53-56v113z"/><glyph glyph-name="currency.tf" d="M236 161l-79-79-92 92 73 73q-25 45-25 103 0 57 26 104l-74 74 91 93 81-82q45 18 98 18t98-18l81 82 91-93-74-74q26-47 26-104 0-58-25-103l73-73-92-92-79 79q-45-18-99-18t-99 18zm65 189q0-13 8.5-22.5T335 318t25.5 9.5T369 350t-8.5 22.5T335 382t-25.5-9.5T301 350z"/><glyph glyph-name="dollar.tf" d="M426-110H246v98Q134 3 51 50v237q134-85 254-85 37 0 49 6t12 18q0 13-33.5 22t-82 20.5-96.5 31T72.5 363 39 471q0 91 56.5 147.5T246 691v99h180V689q97-16 170-52V413q-123 71-240 69-42 0-42-20 0-13 24-22.5t60.5-15.5 78.5-19.5 78.5-33T616 313t24-93q0-202-214-231v-99z"/><glyph glyph-name="Euro.tf" d="M388 245q42-38 116-38 76 0 133 22V11q-78-28-166-28-142 0-248.5 65.5T86 245H14v80h62v30H14v80h72q30 130 134.5 196T458 697q94 0 174-28V452q-63 25-127 25-78 0-120-42h179v-80H351q-1-5-1-15t1-15h213v-80H388z"/><glyph glyph-name="sterling.tf" d="M630 0H45v207h21q54 0 54 51v8H62v166h61v19q0 122 74 184t195 62q117 0 201-34V466q-61 30-138 30-75 0-75-59v-5h154V266H380v-3q0-31-22-56h272V0z"/><glyph glyph-name="yen.tf" d="M409 680h281L513 360h102V250H468v-30h147V110H468V0H202v110H55v110h147v30H55v110h102L-20 680h281l74-186z"/></font>
</defs>
</svg>
