<svg xmlns="http://www.w3.org/2000/svg"><defs><font id="MullerThinItalic" horiz-adv-x="614"><font-face font-family="Muller Thin Italic" font-weight="250" font-style="italic" ascent="780" descent="-220" x-height="480" cap-height="700" bbox="-206 -231 1211.18 922" underline-thickness="50" underline-position="-225" slope="-9" unicode-range="U+0020-25CA"/><glyph glyph-name="f_f" unicode="ff" horiz-adv-x="660" d="M744 675q-36 23-104 23-59 0-101-30.5T486 572l-15-92h213l-3-23H468L395 0h-24l73 457H158L85 0H61l73 457H52l3 23h82l10 58q11 75 65 114.5T340 692q81 0 147-49 45 77 149 77 69 0 111-23zM161 480h286l15 93q4 27 14 52-61 45-134 45-70 0-115.5-35T171 537z"/><glyph glyph-name="f_f_i" unicode="ffi" horiz-adv-x="837" d="M85 0H61l73 457H52l3 23h82l10 58q11 75 64.5 114.5T340 692q82 0 152-53 53 73 154 73 82 0 150-45l-4-24q-64 47-144 47-65 0-109.5-35.5T484 555l-13-75h308L703 0h-24l72 457H468L395 0h-24l73 457H158zm86 537l-10-57h286l13 76q4 33 21 65-65 49-139 49-70 0-115.5-35T171 537z"/><glyph glyph-name="f_f_l" unicode="ffl" horiz-adv-x="847" d="M796 672l4 26 25 8L713 0h-24l103 649q-62 41-145 41-64 0-108.5-35.5T484 555l-13-75h195l-3-23H468L395 0h-24l73 457H158L85 0H61l73 457H52l3 23h82l10 58q11 75 65 114.5T340 692q82 0 152-53 54 73 153 73 85 0 151-40zM447 480l13 76q4 33 21 64-65 50-139 50-70 0-115.5-35T171 537l-10-57h286z"/><glyph glyph-name=".notdef" horiz-adv-x="271"/><glyph glyph-name=".null" horiz-adv-x="0"/><glyph glyph-name="nonmarkingreturn" horiz-adv-x="333"/><glyph glyph-name="space" horiz-adv-x="271"/><glyph glyph-name="exclam" unicode="!" horiz-adv-x="195" d="M90 169H68l83 531h25zM77 14Q72-6 52-6 42-6 36.5 1T33 18q1 9 8 14.5T56 38q11 0 16.5-7T77 14z"/><glyph glyph-name="quotedbl" unicode="&quot;" horiz-adv-x="249" d="M219 568h-18l21 132h25zm-90 0h-18l21 132h25z"/><glyph glyph-name="numbersign" unicode="#" horiz-adv-x="647" d="M67 0H43l75 190H25l4 22h97l102 257H120l3 22h113l75 190h25l-75-190h259l75 190h25l-75-190h91l-3-22h-96L435 212h107l-3-22H426L351 0h-25l75 190H143zm186 469L152 212h258l101 257H253z"/><glyph glyph-name="dollar" unicode="$" horiz-adv-x="564" d="M232-130h-22l18 120Q99-3 16 48l3 25q98-59 226-59 57 0 104.5 13T433 73.5t44 84.5q7 44-12.5 76t-56 51.5-81 35.5l-89 32-80.5 37-54.5 56L93 529q13 77 86 118.5T340 690l18 120h22l-18-120q101-5 173-48l-4-24q-82 48-190 48-50 0-96-13.5T162.5 606 118 526q-7-43 12-74t55-50 80.5-34.5T355 335t81-38 54.5-57 11.5-84q-13-84-85-125T250-10z"/><glyph glyph-name="percent" unicode="%" horiz-adv-x="873" d="M189-60h-26l539 820h26zm186 623q-10-67-58-103t-109-36q-59 0-98.5 39.5T81 571q11 67 59 103t109 36q60 0 98.5-39.5T375 563zm-272 6q-9-56 22.5-89.5T208 446q53 0 94.5 31t50.5 88q9 55-22.5 89T249 688q-55 0-96-31t-50-88zm708-440q-11-67-59-103T644-10t-99.5 39.5T516 137q11 67 59 103t109 36q59 0 98.5-39.5T811 129zm-271 6q-9-56 22-89.5T644 12q53 0 94.5 31t50.5 88q9 55-22.5 89T685 254q-55 0-95.5-31T540 135z"/><glyph glyph-name="ampersand" unicode="&amp;" horiz-adv-x="676" d="M513 111L620 0h-30l-92 96Q389-10 233-10 129-10 76 39.5T35 164q10 66 62.5 114.5T233 372q-86 98-73 177 11 66 71.5 113.5T381 710q74 0 117.5-38.5T532 572q-3-19-12.5-37T492 500t-33.5-29.5-44.5-29-45.5-25.5-51.5-26.5-48-24.5l22-23 206-214q75 81 91 185h24q-16-113-99-202zM381 687q-82 0-135-41.5T184 544q-11-71 69-161h1q13 6 47 23t49.5 25 44 24 43.5 27.5 32.5 27 26 32T508 575q7 50-28.5 81T381 687zM59 161Q50 97 96.5 55T235 13q145 0 247 99L271 331l-22 23q-80-42-130-87.5T59 161z"/><glyph glyph-name="quotesingle" unicode="'" horiz-adv-x="159" d="M129 568h-18l21 132h25z"/><glyph glyph-name="parenleft" unicode="(" horiz-adv-x="247" d="M280 808h26q-84-96-142.5-218T86 348q-19-119 1.5-240T161-108h-25Q83-11 62 111t-2 241q18 118 77 239t143 217z"/><glyph glyph-name="parenright" unicode=")" horiz-adv-x="248" d="M105 808h25q53-98 74-219.5t2-240.5q-18-117-77.5-238.5T-14-108h-27q84 95 143 217t78 243q19 118-1.5 239.5T105 808z"/><glyph glyph-name="asterisk" unicode="*" horiz-adv-x="423" d="M250 535L145 418l-17 13 106 115-129 44 11 22 127-48 20 136h23l-24-136 143 48 4-22-143-44 69-115-21-13z"/><glyph glyph-name="plus" unicode="+" horiz-adv-x="536" d="M291 362h201l-3-24H288l-32-201h-23l32 201H64l3 24h201l32 201h24z"/><glyph glyph-name="comma" unicode="," horiz-adv-x="167" d="M-11-142h-21L52 72h25z"/><glyph glyph-name="hyphen" unicode="-" horiz-adv-x="487" d="M66 254h344l-4-23H63z"/><glyph glyph-name="period" unicode="." horiz-adv-x="167" d="M68 15Q64-6 44-6 34-6 28 1t-4 17q1 9 8 14.5T48 38q23 0 20-23z"/><glyph glyph-name="slash" unicode="/" horiz-adv-x="406" d="M9-57h-20l426 814h21z"/><glyph glyph-name="zero" unicode="0" horiz-adv-x="704" d="M68 346q26 158 114 251t231 93q144 0 204-97.5T652 334Q626 176 537.5 83T306-10q-144 0-203.5 97.5T68 346zm559-9q24 150-29.5 239.5T413 666q-133 0-214.5-86T93 343q-24-150 29.5-239.5T307 14q133 0 214.5 86T627 337z"/><glyph glyph-name="one" unicode="1" horiz-adv-x="398" d="M283 680h17L196 24h142l-4-24H10l4 24h157l99 628-166-59 4 24z"/><glyph glyph-name="two" unicode="2" horiz-adv-x="557" d="M128 630q101 60 212 60 94 0 149-45.5T532 523q-7-41-27-75t-57-63.5-67-48-83-46.5q-112-60-147-85Q54 134 34 24h428l-5-24H4l3 17q5 35 17.5 65.5t26 53.5T88 182.5t41.5 38 50 33.5 50.5 28.5l54 28.5q51 26 79.5 43t64 44 54.5 58.5 25 70.5q10 64-36.5 102T338 667q-105 0-214-63z"/><glyph glyph-name="three" unicode="3" horiz-adv-x="587" d="M536 509q-9-56-50.5-99.5T375 353q69-12 109-57t28-119q-14-89-86-138T248-10Q107-10 25 34l3 24q87-45 219-45 98 0 163 44t78 124q13 78-40 118.5T305 340h-98l4 23h95q90 0 143 43.5T512 511q10 65-35.5 110.5T344 667q-108 0-215-45l4 25q98 43 214 43 95 0 148-52.5T536 509z"/><glyph glyph-name="four" unicode="4" horiz-adv-x="637" d="M493 680h28l-78-486h146l-3-24H440L413 0h-25l27 170H12l3 21zm-75-486l73 451L49 194h369z"/><glyph glyph-name="five" unicode="5" horiz-adv-x="578" d="M166 680h386l-4-24H186l-65-293q81 26 168 26 106 0 170.5-50T509 188q-14-88-89.5-143T237-10Q108-10 26 36l3 23q89-46 206-46 100 0 168 49t81 130q14 88-43.5 131T283 366q-96 0-192-33z"/><glyph glyph-name="six" unicode="6" horiz-adv-x="604" d="M554 630q-57 36-135 36-275 0-330-350l-3-20q124 114 265 114 92 0 150-54.5T543 200q-16-97-89.5-153.5T283-10Q152-10 96.5 78T65 320q30 190 122.5 280T419 690q80 0 139-36zm-36-427q14 91-36 137t-135 46q-68 0-138.5-32T83 266q-8-120 42.5-186.5T282 13q90 0 156 50.5T518 203z"/><glyph glyph-name="seven" unicode="7" horiz-adv-x="511" d="M95 680h454l-3-20L124 0H96l420 656H91z"/><glyph glyph-name="eight" unicode="8" horiz-adv-x="641" d="M564 159q-11-70-85-119.5T286-10Q157-10 93 48T42 192q20 119 169 189-104 50-89 148 11 66 79 113.5T382 690q110 0 166.5-56T594 506q-16-104-147-182 134-53 117-165zM68 190q-12-75 45-126t175-51q106 0 173.5 44T539 163q6 40-5.5 68.5T486 280t-61.5 29.5T342 335q-7 2-10 3-68 20-98 32-70-30-113.5-76.5T68 190zm264 171q10-3 29.5-8.5t35-10T425 334q129 74 145 173 10 63-39.5 111.5T382 667q-102 0-164-41t-71-100q-6-37 6-65t45-47 55-27.5 66-21.5q9-3 13-4z"/><glyph glyph-name="nine" unicode="9" horiz-adv-x="603" d="M76 480q16 97 89.5 153.5T336 690q129 0 185.5-88.5T554 360Q524 170 431.5 80T200-10q-80 0-139 36l4 24q57-36 135-36 275 0 330 350l3 20Q410 270 268 270q-93 0-150.5 54.5T76 480zm25-3q-14-90 36-136.5T272 294q68 0 138.5 32T536 414q8 120-42.5 186.5T337 667q-90 0-156-50.5T101 477z"/><glyph glyph-name="colon" unicode=":" horiz-adv-x="189" d="M136 404q-1-9-8.5-14.5T112 384q-10 0-16 6.5T91 408q1 9 8 14.5t16 5.5q24 0 21-24zM73 15q-1-9-8.5-15T49-6Q39-6 33 1t-4 17q1 9 8 14.5T53 38q23 0 20-23z"/><glyph glyph-name="semicolon" unicode=";" horiz-adv-x="263" d="M23-142H2L86 72h25zm147 589q-1-9-8.5-14.5T146 427q-10 0-16 7t-5 17q1 9 8.5 14.5T150 471q23 0 20-24z"/><glyph glyph-name="less" unicode="&lt;" horiz-adv-x="483" d="M389 201l-4-25L55 338l4 25 381 161-3-25L82 350z"/><glyph glyph-name="equal" unicode="=" horiz-adv-x="544" d="M486 429H97l4 23h389zm-28-181H69l3 23h389z"/><glyph glyph-name="greater" unicode="&gt;" horiz-adv-x="483" d="M443 337L61 176l4 25 355 149-308 149 4 25 331-162z"/><glyph glyph-name="question" unicode="?" horiz-adv-x="490" d="M229 187h-24q7 46 46 95.5t82 86 82.5 86T462 550q10 64-35.5 100T293 686q-100 0-200-57l4 26q96 55 200 55 96 0 149-43.5T486 548q-6-40-33-80t-62-73.5-69.5-66-61-69.5-31.5-72zM212 15q-4-21-24-21-10 0-16 7t-4 17q1 9 8 14.5t16 5.5q23 0 20-23z"/><glyph glyph-name="at" unicode="@" horiz-adv-x="1059" d="M45 248q14 91 60 173.5t116 147 169.5 103T603 710q86 0 158.5-27T881 612t78-101 40.5-118 .5-120q-21-129-80-196T783 10q-62 0-93 34t-24 98q-32-49-83-79T474 33q-84 0-131 57t-33 150q15 91 78.5 147T535 443q59 0 101-31t58-80l16 102h23l-46-287q-8-55 16.5-85T783 32q69 0 121.5 63T975 277q9 55 0 112t-38 110.5-73.5 95-112 66.5T602 686q-108 0-202.5-36.5t-161.5-98T127.5 411 70 244Q53 140 79 54t83.5-142 139-87T477-206q127 0 231 36l-5-25q-102-35-226-35-100 0-186 32.5T144-106 55.5 45 45 248zm642 48q-9 54-49.5 89T537 420q-76 0-133.5-50T334 237q-13-82 27.5-131.5T475 56q62 0 114.5 35.5T669 181z"/><glyph glyph-name="A" unicode="A" horiz-adv-x="707" d="M644 0h-26l-65 215H133L-1 0h-28l433 700h30zM406 659L146 239h401L420 660q-4 7-5 17-2-5-9-18z"/><glyph glyph-name="B" unicode="B" horiz-adv-x="675" d="M170 700h251q105 0 163-44.5T628 523q-11-69-57-107t-113-48q31-5 56.5-16t49.5-31 35-54.5 4-80.5Q571 0 303 0H59zm408-508q8 50-8.5 85T520 327.5 456.5 349t-63.5 6H140L88 24h215q48 0 86 5.5t81 21 71 51.5 37 90zm26 333q12 78-38.5 114.5T417 676H191l-47-297h262q74 0 130 36t68 110z"/><glyph glyph-name="C" unicode="C" horiz-adv-x="649" d="M63 355q18 114 86 197t153.5 120.5T478 710q109 0 184-48l-4-25q-70 49-178 49-63 0-125.5-20.5t-118-60.5-96-105.5T87 351q-13-81 6-147t62-106.5 98.5-62T372 14q105 0 200 50l-4-26q-89-48-200-48-67 0-126.5 23.5T136 80.5t-66.5 115T63 355z"/><glyph glyph-name="D" unicode="D" horiz-adv-x="730" d="M170 700h195q183 0 264-96.5T685 348Q661 191 552 95.5T258 0H59zm491-348q23 147-51 235.5T365 676H191L88 24h174q171 0 273.5 89T661 352z"/><glyph glyph-name="E" unicode="E" horiz-adv-x="626" d="M170 700h455l-4-24H191l-49-312h400l-4-24H138L88 24h436l-4-24H59z"/><glyph glyph-name="F" unicode="F" horiz-adv-x="596" d="M170 700h456l-4-24H191l-50-319h402l-4-24H136L84 0H59z"/><glyph glyph-name="G" unicode="G" horiz-adv-x="710" d="M64 362q12 73 43 132.5t73.5 99 95 66.5T381 698.5 488 710q111 0 195-46l-3-24q-77 46-191 46-65 0-128-18.5T241 612t-98-102.5T88 358t6-153.5 64.5-108T261 35t124-21q109 0 196 42l49 309h25L603 37Q501-10 384-10q-71 0-133.5 22.5T140 79 70.5 196 64 362z"/><glyph glyph-name="H" unicode="H" horiz-adv-x="767" d="M702 700h25L616 0h-25l54 340H138L84 0H59l111 700h25l-53-336h507z"/><glyph glyph-name="I" unicode="I" horiz-adv-x="235" d="M170 700h25L84 0H59z"/><glyph glyph-name="J" unicode="J" horiz-adv-x="524" d="M235 700h256l-81-515q-15-98-78.5-146.5T168-10Q58-10-6 33l4 25q64-44 167-44 192 0 220 173l78 489H231z"/><glyph glyph-name="K" unicode="K" horiz-adv-x="652" d="M656 700h29L377 358 602 0h-28L356 347H139L84 0H59l111 700h25l-52-329h216z"/><glyph glyph-name="L" unicode="L" horiz-adv-x="569" d="M170 700h25L88 24h428l-4-24H59z"/><glyph glyph-name="M" unicode="M" horiz-adv-x="900" d="M837 700h23L749 0h-25l103 651-381-454h-18L188 653 84 0H59l111 700h20l250-474z"/><glyph glyph-name="N" unicode="N" horiz-adv-x="767" d="M84 0H59l111 700h20L598 42q1 10 3.5 26t3.5 23l97 609h25L616 0h-20L188 659q-2-16-8-49z"/><glyph glyph-name="O" unicode="O" horiz-adv-x="825" d="M783 348q-11-67-44.5-130t-85-114.5T527 21 366-10 214.5 22t-101 84-49 115.5T61 352q11 66 44.5 129.5T191 596t127 82.5T478 710q86 0 151.5-32t101-84 49-115.5T783 348zm-697 1q-10-62 2-120.5t44.5-107 93-78T367 14q157 0 263.5 102T758 351q10 62-2 120.5t-44.5 107-93 78T477 686q-80 0-151-29.5t-119.5-78-79.5-108T86 349z"/><glyph glyph-name="P" unicode="P" horiz-adv-x="654" d="M170 700h215q61 0 109.5-10.5t87-34.5 55.5-68 7-106q-35-215-325-215H126L84 0H59zm450-215q9 54-6 92.5T564 637t-78 30-99 9H191l-61-386h193q266 0 297 195z"/><glyph glyph-name="Q" unicode="Q" horiz-adv-x="825" d="M723-42l-18-15L603 63Q497-10 366-10q-86 0-151.5 32t-101 84-49 115.5T61 352q11 66 44.5 129.5T191 596t127 82.5T478 710q86 0 151.5-32t101-84 49-115.5T783 348q-12-76-54-148T622 77zM86 349q-10-62 2-120.5t44.5-107 93-78T367 14q124 0 221 68L452 242l18 16L607 96q61 47 100 115t51 140q10 62-2 120.5t-44.5 107-93 78T477 686q-80 0-151-29.5t-119.5-78-79.5-108T86 349z"/><glyph glyph-name="R" unicode="R" horiz-adv-x="682" d="M84 0H59l111 700h259q46 0 86.5-11t74.5-34 49.5-64.5T646 495q-15-97-87.5-146T392 295L612 0h-29L363 294H130zm107 676l-56-358h238q41 0 80 9.5t75 29.5 61 56.5 33 85.5q8 48-5.5 83.5t-43.5 55-66 29-77 9.5H191z"/><glyph glyph-name="S" unicode="S" horiz-adv-x="566" d="M99 547q9 56 50 94t92 53.5T349 710q112 0 192-49l-4-24q-77 51-187 49-85 0-149.5-34.5T124 544q-6-39 8-69t42-48.5 65-35 76-29 76-31 64.5-39.5 41.5-56 7-80q-9-58-48.5-97t-92-54.5T248-10Q113-10 18 48l3 24q99-58 226-58 59 0 106 13t82.5 46.5T479 158q7 47-12 81.5t-54.5 55-80 37.5l-89 34-80 38.5-54 57.5L99 547z"/><glyph glyph-name="T" unicode="T" horiz-adv-x="588" d="M77 700h563l-4-24H367L260 0h-25l107 676H73z"/><glyph glyph-name="U" unicode="U" horiz-adv-x="749" d="M693 700h25l-73-460Q606-10 330-10q-127 0-194.5 60T89 241l72 459h25l-73-459Q77 14 329 14q256 0 292 228z"/><glyph glyph-name="V" unicode="V" horiz-adv-x="677" d="M305 0h-25L85 700h26L296 29l398 671h28z"/><glyph glyph-name="W" unicode="W" horiz-adv-x="983" d="M996 700h26L688 0h-27L552 649 233 0h-28L92 700h25L224 34l323 658h22L679 37z"/><glyph glyph-name="X" unicode="X" horiz-adv-x="604" d="M-4 0h-32l335 361L91 700h28l197-321 299 321h31L328 357 547 0h-27L311 339z"/><glyph glyph-name="Y" unicode="Y" horiz-adv-x="624" d="M278 0h-25l45 284L89 700h26l198-391 322 391h30L323 284z"/><glyph glyph-name="Z" unicode="Z" horiz-adv-x="566" d="M492 0H-23l3 22 579 654H103l5 24h488l-3-22L13 24h483z"/><glyph glyph-name="bracketleft" unicode="[" horiz-adv-x="235" d="M153-110H15l145 920h138l-3-24H182L43-86h113z"/><glyph glyph-name="backslash" unicode="\" horiz-adv-x="399" d="M304-57h-20L116 757h20z"/><glyph glyph-name="bracketright" unicode="]" horiz-adv-x="235" d="M94-110H-44l3 24H73l138 872H98l3 24h138z"/><glyph glyph-name="asciicircum" unicode="^" horiz-adv-x="483" d="M105 404H77l221 296h22l127-296h-26L306 674z"/><glyph glyph-name="underscore" unicode="_" horiz-adv-x="427" d="M361-127H-66l4 24h427z"/><glyph glyph-name="grave" unicode="`" horiz-adv-x="165" d="M242 778h-26l-70 133h28z"/><glyph glyph-name="a" unicode="a" horiz-adv-x="613" d="M481 124q-39-60-102.5-97T242-10Q138-10 81 61T42 246q18 111 96 177.5T318 490q71 0 125-39t74-98l20 127h23L484 0h-23zM65 243Q48 139 99 75.5T243 12q76 0 142 43.5T485 164l24 150q-12 65-64.5 109.5T319 468q-94 0-166-60.5T65 243z"/><glyph glyph-name="b" unicode="b" horiz-adv-x="613" d="M149 700h24l-54-344q38 59 102 96.5T356 490q99 0 158.5-71.5T556 234q-18-112-94.5-178T280-10q-74 0-126 38.5T82 130L60 0H38zm383-463q17 102-36.5 166.5T354 468q-76 0-142-44.5T111 312L88 167q13-67 64-111t126-44q98 0 168 60t86 165z"/><glyph glyph-name="c" unicode="c" horiz-adv-x="493" d="M41 242q10 63 40.5 112.5t73.5 78 89 43 93 14.5q85 0 137-40l-4-23q-49 41-132 41-94 0-174-58T65 239Q47 131 104.5 71.5T257 12q86 0 158 40l-3-25q-70-37-158-37-104 0-167.5 65T41 242z"/><glyph glyph-name="d" unicode="d" horiz-adv-x="613" d="M571 700h24L484 0h-22l20 126q-39-61-103-98.5T242-10Q140-10 82 61T42 246q18 112 95 178t180 66q74 0 127-38.5T516 351zm-62-387q-12 67-63.5 111T319 468q-96 0-167-60T65 243Q48 140 100 76t143-64q77 0 143 44.5T486 168z"/><glyph glyph-name="e" unicode="e" horiz-adv-x="542" d="M41 241q18 115 95 182t173 67q50 0 88-16.5t59.5-44T489 367t9.5-71-12.5-71H63Q49 120 111 66t156-54q89 0 164 39l-5-25q-66-36-161-36-106 0-175 64T41 241zm427 6q12 35 7 74t-20.5 71.5-53.5 54-91 21.5q-87 0-156-59T66 247h402z"/><glyph glyph-name="f" unicode="f" horiz-adv-x="350" d="M151 565q23 145 175 145 62 0 110-23l-4-23q-42 24-104 24-134 0-154-124l-13-84h213l-3-23H158L85 0H61l73 457H52l3 23h82z"/><glyph glyph-name="g" unicode="g" horiz-adv-x="613" d="M483-1q-19-118-98.5-173.5T199-230q-104 0-176 46l4 24q73-48 170-48 99 0 172 50.5T459 1l20 122q-38-59-102-96T241-10Q137-10 80 60.5T41 246q18 112 95 178t181 66q74 0 126-38.5T516 349l20 131h23zM64 243Q47 139 97.5 75.5T242 12q77 0 143 43.5T485 166l23 147q-12 67-63.5 111T318 468q-95 0-166.5-60T64 243z"/><glyph glyph-name="h" unicode="h" horiz-adv-x="574" d="M149 700h24l-52-327q40 47 97 82t124 35q80 0 125-53t31-142L451 0h-24l47 294q13 82-26 128t-110 46q-67 0-126.5-39T115 338L62 0H38z"/><glyph glyph-name="i" unicode="i" horiz-adv-x="200" d="M66 0H42l76 480h24zm105 614q-3-18-22-18-21 0-18 21 3 18 22 18 21 0 18-21z"/><glyph glyph-name="j" unicode="j" horiz-adv-x="199" d="M47-117Q29-230-86-230q-39 0-69 12l4 22q27-12 62-12 97 0 113 95l93 593h24zm124 731q-3-18-22-18-21 0-18 21 3 18 22 18 21 0 18-21z"/><glyph glyph-name="k" unicode="k" horiz-adv-x="489" d="M459 480h29L251 247 439 0h-28L230 239H100L62 0H38l111 700h24l-70-438h133z"/><glyph glyph-name="l" unicode="l" horiz-adv-x="199" d="M157 730h24L65 0H41z"/><glyph glyph-name="m" unicode="m" horiz-adv-x="894" d="M469 380q38 45 92 77.5T676 490q76 0 116-50.5T819 312L770 0h-24l50 312q11 68-22.5 112T674 468q-111 0-201-114 0-20-3-42L421 0h-24l50 312q11 68-22.5 112T325 468q-62 0-116.5-37T117 345L62 0H38l76 480h22l-16-104q36 45 91 79.5T327 490q57 0 95-29.5t47-80.5z"/><glyph glyph-name="n" unicode="n" horiz-adv-x="574" d="M119 371q39 48 97 83.5T343 490q80 0 124.5-53T498 295L451 0h-24l47 294q13 82-26 128t-110 46q-67 0-126.5-39T115 338L62 0H38l76 480h22z"/><glyph glyph-name="o" unicode="o" horiz-adv-x="592" d="M535 234Q517 120 434.5 55T250-10q-99 0-163 70.5T41 246q18 114 101 179t185 65q99 0 163-70.5T535 234zm-470 8Q48 139 104.5 76T250 13q95 0 170 60t91 165q17 103-39.5 166T326 467q-95 0-170-60T65 242z"/><glyph glyph-name="p" unicode="p" horiz-adv-x="613" d="M116 353q40 61 104 99t136 38q101 0 159.5-71T556 234q-18-112-95-178T280-10q-74 0-126 38.5T82 129L27-220H3l111 700h22zm416-116q17 103-35.5 167T353 468q-74 0-141-44.5T111 312L88 167q13-67 64-111t126-44q96 0 166.5 60T532 237z"/><glyph glyph-name="q" unicode="q" horiz-adv-x="613" d="M42 246q18 111 96 177.5T318 490q71 0 125-39t74-99l20 128h23L449-220h-24l54 342q-38-58-101-95T242-10Q138-10 81 61T42 246zm467 68q-12 65-64.5 109.5T319 468q-94 0-166-60.5T65 243Q48 139 99 75.5T243 12q76 0 142 43.5T485 164z"/><glyph glyph-name="r" unicode="r" horiz-adv-x="338" d="M113 333q35 68 98.5 113T357 490l-4-24q-83 2-149.5-52T107 286L62 0H38l76 480h22z"/><glyph glyph-name="s" unicode="s" horiz-adv-x="455" d="M61 371q10 60 65 89.5T252 490q95 0 157-42l-3-22q-60 42-154 42-63 0-111-25t-56-75q-7-43 24.5-69t80-38.5T286 234t78.5-44 22.5-79q-9-61-64.5-91T191-10q-49 0-98.5 13.5T14 39l4 23q31-22 78.5-36T190 12q68 0 116.5 25.5T363 113q7 43-24 68.5t-79.5 38T163 246t-78.5 44.5T61 371z"/><glyph glyph-name="t" unicode="t" horiz-adv-x="356" d="M154 637l25 9-26-166h215l-4-23H150L98 133q-10-59 16.5-90T199 12q60 0 108 25l-3-23q-42-24-109-24-65 0-98.5 37T74 132l52 325H36l3 23h90z"/><glyph glyph-name="u" unicode="u" horiz-adv-x="575" d="M497 480h24L445 0h-22l17 109q-36-47-95-83T219-10q-81 0-126.5 53T61 186l47 294h24L85 186q-12-82 26-128t109-46q69 0 128 39t95 92z"/><glyph glyph-name="v" unicode="v" horiz-adv-x="520" d="M502 480h27L227 0h-26L52 480h25L217 27z"/><glyph glyph-name="w" unicode="w" horiz-adv-x="796" d="M774 480h26L539 0h-23l-92 440L189 0h-24L57 480h24L182 34l234 438h23l92-439z"/><glyph glyph-name="x" unicode="x" horiz-adv-x="482" d="M1 0h-30l249 247L59 480h28l149-216 220 216h30L249 246 419 0h-27L233 229z"/><glyph glyph-name="y" unicode="y" horiz-adv-x="530" d="M235 25l275 455h27L193-88q-48-78-88.5-110T16-230q-25 0-49 6l3 21q20-5 44-5 44 0 81 31t78 100l47 77L47 480h25z"/><glyph glyph-name="z" unicode="z" horiz-adv-x="439" d="M72 480h357l-4-19L18 22h349l-4-22H-18l3 19 408 439H69z"/><glyph glyph-name="braceleft" unicode="{" horiz-adv-x="257" d="M159-88l-3-22q-55-9-75 15T70-18l41 258q8 48-15.5 73.5T35 339l3 22q37 0 68.5 26t39.5 75l41 258q17 109 114 90l-3-22q-41 8-60.5-11T210 711l-40-254q-7-44-31.5-71.5T80 349q29-8 46-35t10-72L96-13q-7-45 6-63.5T159-88z"/><glyph glyph-name="bar" unicode="|" horiz-adv-x="181" d="M41-100H16l144 910h25z"/><glyph glyph-name="braceright" unicode="}" horiz-adv-x="257" d="M89-20Q71-129-25-110l3 23q40-8 60 10.5T65-14l41 259q7 45 32.5 72t60.5 34q-31 8-48.5 35.5T140 459l41 255q7 45-6 63.5T117 789l3 21q54 9 74.5-15t11.5-77l-41-258q-7-49 16.5-74t59.5-25l-3-22q-37 0-68.5-26T130 238z"/><glyph glyph-name="asciitilde" unicode="~" horiz-adv-x="573" d="M511 366q-4-37-29.5-60T417 283q-37 0-124 35t-122 35q-30 0-49-17t-23-43H76q5 37 30 60t64 23 125-35 121-35q30 0 49.5 16.5T488 366h23z"/><glyph glyph-name="exclamdown" unicode="¡" horiz-adv-x="180" d="M21-216H-4l86 532h22zm117 683q-4-21-24-21-10 0-15.5 7T95 470q1 9 8 14.5t15 5.5q11 0 16.5-6.5T138 467z"/><glyph glyph-name="cent" unicode="¢" horiz-adv-x="512" d="M478 450l-4-23q-49 41-131 41L271 12q81 3 148 40l-3-25Q348-8 267-10l-17-110h-22l17 110Q146-6 86.5 59.5T45 242q9 60 38 108t69 77 83.5 44.5T325 490l17 110h22l-17-110q80-2 131-40zm-157 17q-90-7-162.5-64.5T69 239Q52 134 105 75t144-63z"/><glyph glyph-name="sterling" unicode="£" horiz-adv-x="606" d="M515 0H-6l4 24h31q81 0 98 98l32 205H78l4 24h81l18 114q18 117 88.5 171T432 690q78 0 135-39l-4-24q-55 39-131 39-83 0-146.5-48T205 464l-17-113h256l-4-24H184l-33-206q-11-78-62-97h430z"/><glyph glyph-name="currency" unicode="¤" horiz-adv-x="572" d="M150 206l-76-65-14 17 75 65q-44 52-31 129 12 76 71 127l-54 63 20 17 54-65q57 42 129 42 69 0 119-42l75 65 14-17-75-65q44-51 31-129-10-74-70-127l53-63-19-17-54 65q-59-42-130-42-70 0-118 42zm-22 142q-11-71 31-116t110-45q71 0 127.5 45.5T465 352q11 71-30.5 116T324 513q-71 0-127.5-45.5T128 348z"/><glyph glyph-name="yen" unicode="¥" horiz-adv-x="627" d="M621 680h27L338 304h178l-4-22H323l-16-98h190l-4-22H303L277 0h-24l25 162H89l4 22h189l16 98H108l4 22h177L98 680h27l188-374z"/><glyph glyph-name="brokenbar" unicode="¦" horiz-adv-x="199" d="M140 467h-25l54 343h24zM50-100H25l55 343h24z"/><glyph glyph-name="section" unicode="§" horiz-adv-x="484" d="M386 82q-9-54-63.5-85T196-34Q99-34 33 10l3 24q67-46 159-46 65 0 112.5 26.5T362 86q4 27-4.5 47t-32 34-43.5 21.5-57 17.5q-91 26-121 49-42 34-34 91 7 46 43.5 79t82.5 52q-42 18-63 44.5T119 592q9 55 61.5 86.5T300 710q81 0 150-39l-3-23q-63 40-146 40-61 0-106-26.5T143 589q-3-23 4.5-41t18.5-28.5 37-21 41.5-15T294 470q35-10 58.5-19t47-25 33-39.5T437 332q-14-82-134-129 97-37 83-121zM233 227q7-2 22-6t22-7q123 37 136 119 4 26-4 45.5T380.5 411 340 431.5 287 448q-9 3-31 9t-34 10q-43-13-82-44.5T94 345q-3-19 0-34t14.5-26.5 20.5-19 32-15.5 33.5-11.5T233 227z"/><glyph glyph-name="dieresis" unicode="¨" horiz-adv-x="276" d="M373 834q-4-22-25-22-10 0-16 7.5t-4 17.5q1 8 8.5 14.5T352 858q11 0 17-7t4-17zm-200 0q-4-22-25-22-10 0-16 7.5t-4 17.5q1 8 8.5 14.5T152 858q11 0 17-7t4-17z"/><glyph glyph-name="copyright" unicode="©" horiz-adv-x="855" d="M808 344q-13-86-57-155.5T646 77 517.5 12.5 383-10 254 14 144.5 82t-70 115.5T66 356q13 86 57 155.5T227.5 623 356 687.5 491 710t128.5-24T729 618t70.5-115.5T808 344zM555 183q-66-33-135-33-79 0-130.5 52T253 348q16 100 86.5 151T491 550q70 0 116-35l-2-19q-46 34-111 34-76 0-140-46t-79-139q-13-84 31.5-129.5T423 170q70 0 135 34zM80 354q-13-82 8-150.5t66-111T257.5 27 380 4q89 0 174.5 36T708 156t86 190q13 82-8.5 150t-66 111T616 673t-123 23q-89 0-174.5-36T165 544 80 354z"/><glyph glyph-name="guillemotleft" unicode="«" horiz-adv-x="415" d="M311 69h-25l-93 167 1 9 144 166h28L217 239zm-149 0h-25L44 236l1 9 144 166h28L68 239z"/><glyph glyph-name="logicalnot" unicode="¬" horiz-adv-x="580" d="M501 302h-24l25 155H101l3 23h425z"/><glyph glyph-name="registered" unicode="®" horiz-adv-x="855" d="M808 344q-13-86-57-155.5T646 77 517.5 12.5 383-10 254 14 144.5 82t-70 115.5T66 356q13 86 57 155.5T227.5 623 356 687.5 491 710t128.5-24T729 618t70.5-115.5T808 344zM80 354q-13-82 8-150.5t66-111T257.5 27 380 4q89 0 174.5 36T708 156t86 190q13 82-8.5 150t-66 111T616 673t-123 23q-89 0-174.5-36T165 544 80 354zm217-205h-20l62 395h150q22 0 44-5.5t44-17.5 33-38 5-62q-15-89-110-107l90-165h-22l-88 162q-13-2-34-2H322zm59 375l-31-195h129q126 0 141 95 5 31-4 52t-28.5 31-37.5 13.5-39 3.5H356z"/><glyph glyph-name="macron" unicode="¯" horiz-adv-x="296" d="M133 834h252l-3-23H130z"/><glyph glyph-name="degree" unicode="°" horiz-adv-x="389" d="M382 574q-10-63-58-100.5T218 436q-59 0-96.5 40T94 581q11 62 59 99.5T258 718q59 0 96.5-40T382 574zm-268 4q-9-54 22.5-88.5T218 455q52 0 93.5 32.5T362 576q9 54-22 88.5T260 699q-52 0-94.5-33T114 578z"/><glyph glyph-name="plusminus" unicode="±" horiz-adv-x="584" d="M354 569l-33-201h201l-3-23H318l-32-201h-23l32 201H94l3 23h201l32 201h24zM464 0H39l4 23h425z"/><glyph glyph-name="acute" unicode="´" horiz-adv-x="165" d="M158 778h-27l108 133h30z"/><glyph glyph-name="paragraph" unicode="¶" horiz-adv-x="590" d="M194-220h-24l82 516q-100 0-149 54T69 500q15 94 80.5 147T315 700h253L422-220h-25l142 896H336z"/><glyph glyph-name="periodcentered" unicode="·" horiz-adv-x="187" d="M108 237q-1-9-8.5-14.5T84 217q-10 0-16 6.5T63 241q1 9 8 14.5t16 5.5q24 0 21-24z"/><glyph glyph-name="cedilla" unicode="¸" horiz-adv-x="210" d="M68 0h22L52-95q46 11 82.5-5.5T165-157q-5-33-35.5-53T46-230q-57 0-101 22l4 21q41-22 95-22 47 0 72 15t27 40q5 32-34 43.5T23-115z"/><glyph glyph-name="guillemotright" unicode="»" horiz-adv-x="415" d="M210 69h-28l149 172-94 170h26l92-167-1-9zM61 69H33l149 172-94 170h26l92-167-1-9z"/><glyph glyph-name="onequarter" unicode="¼" horiz-adv-x="937" d="M809 408h23l-45-288h86l-2-20h-87L768 0h-22l16 100H523l3 19zm-44-288l40 256-251-256h211zM177-11h-18l570 721h18zm49 691h16l-61-387h79l-4-21H53l4 21h102l58 363-99-35 3 21z"/><glyph glyph-name="onehalf" unicode="½" horiz-adv-x="885" d="M172-11h-18l570 721h18zm425 390q60 35 128 35 56 0 90-28t26-75q-7-46-42-76t-98-63q-38-20-53-29t-41-28.5-38.5-42T551 21h250l-4-21H522l2 13q5 35 20 62.5t42 49.5 46 33.5 56 30.5q33 17 49.5 27t37 26 31 33 13.5 39q7 36-20.5 57.5T724 393q-65 0-131-38zM221 680h16l-61-387h79l-4-21H48l4 21h102l58 363-99-35 3 21z"/><glyph glyph-name="threequarters" unicode="¾" horiz-adv-x="985" d="M250-11h-18l570 721h18zm606 419h23l-45-288h86l-2-20h-87L815 0h-22l16 100H570l3 19zm-44-288l40 256-251-256h211zM371 580q-6-32-30.5-58T276 487q40-6 63.5-32.5T356 382q-8-53-52.5-82.5T192 270q-76 0-131 26l4 22q52-27 126-27 61 0 99 24.5t45 71.5q7 45-22.5 67T230 476h-60l3 21h57q52 0 83 25t36 61q6 37-21 61.5T252 669q-66 0-129-27l4 23q59 25 128 25 57 0 90-32t26-78z"/><glyph glyph-name="questiondown" unicode="¿" horiz-adv-x="479" d="M371-170q-96-56-200-56-96 0-149 43.5T-19-64q6 40 33 80t62 73.5 70 66.5 61.5 69.5T239 297h24q-6-38-32.5-76.5t-61-72-69-66.5T39 10.5 6-66q-10-64 35-100t133-36q99 0 201 57zm-70 636q-1-8-8.5-14t-15.5-6q-11 0-16.5 7t-3.5 17q3 20 24 20 23 0 20-24z"/><glyph glyph-name="Agrave" unicode="À" horiz-adv-x="707" d="M644 0h-26l-65 215H133L-1 0h-28l433 700h30zM406 659L146 239h401L420 660q-4 7-5 17-2-5-9-18zm53 119h-26l-70 133h28z"/><glyph glyph-name="Aacute" unicode="Á" horiz-adv-x="707" d="M644 0h-26l-65 215H133L-1 0h-28l433 700h30zM406 659L146 239h401L420 660q-4 7-5 17-2-5-9-18zm21 119h-27l108 133h30z"/><glyph glyph-name="Acircumflex" unicode="Â" horiz-adv-x="707" d="M644 0h-26l-65 215H133L-1 0h-28l433 700h30zM406 659L146 239h401L420 660q-4 7-5 17-2-5-9-18zm33 244h21l107-125h-27l-91 106-125-106h-30z"/><glyph glyph-name="Atilde" unicode="Ã" horiz-adv-x="707" d="M644 0h-26l-65 215H133L-1 0h-28l433 700h30zM406 659L146 239h401L420 660q-4 7-5 17-2-5-9-18zm178 202q-1-32-19-52t-48-20q-29 0-83 28t-76 28-35-14-13-37h-22q0 32 19.5 52.5T355 867t82.5-28 77.5-28q45 0 47 50h22z"/><glyph glyph-name="Adieresis" unicode="Ä" horiz-adv-x="707" d="M644 0h-26l-65 215H133L-1 0h-28l433 700h30zM406 659L146 239h401L420 660q-4 7-5 17-2-5-9-18zm155 175q-4-22-25-22-10 0-16 7.5t-4 17.5q1 8 8.5 14.5T540 858q11 0 17-7t4-17zm-200 0q-4-22-25-22-10 0-16 7.5t-4 17.5q1 8 8.5 14.5T340 858q11 0 17-7t4-17z"/><glyph glyph-name="Aring" unicode="Å" horiz-adv-x="707" d="M644 0h-26l-65 215H133L-1 0h-28l433 700h30zM406 659L146 239h401L420 660q-4 7-5 17-2-5-9-18zm119 179q-6-36-33.5-58T430 758q-35 0-57.5 23.5T357 842q5 35 33 57.5t62 22.5q35 0 57.5-23.5T525 838zm-149 1q-4-27 12-44.5t41-17.5q28 0 50 17t27 46q4 27-12 45t-41 18q-27 0-49.5-17.5T376 839z"/><glyph glyph-name="AE" unicode="Æ" horiz-adv-x="995" d="M996 700l-4-24H592l-49-312h370l-4-24H539L489 24h406l-4-24H461l34 216H166L-22 0h-31l613 700h436zM187 239h312l69 436z"/><glyph glyph-name="Ccedilla" unicode="Ç" horiz-adv-x="649" d="M658 637q-68 49-177 49-63 0-125.5-20.5T237 605t-96-106-53-148q-13-81 6-147t61.5-106.5 98.5-62T372 14q106 0 201 50l-5-26q-88-48-195-48l-34-85q46 11 82.5-5.5T452-157q-4-33-34.5-53T334-230q-59 0-101 22l3 21q42-22 96-22 92 0 99 55 5 33-34.5 43.5T310-115l42 105q-64 3-121 28T131 86.5 69 200t-6 155q14 86 56.5 156T221 623t125 64.5T479 710q108 0 183-48z"/><glyph glyph-name="Egrave" unicode="È" horiz-adv-x="626" d="M170 700h455l-4-24H191l-49-312h400l-4-24H138L88 24h436l-4-24H59zm269 78h-26l-70 133h28z"/><glyph glyph-name="Eacute" unicode="É" horiz-adv-x="626" d="M170 700h455l-4-24H191l-49-312h400l-4-24H138L88 24h436l-4-24H59zm237 78h-27l108 133h30z"/><glyph glyph-name="Ecircumflex" unicode="Ê" horiz-adv-x="626" d="M170 700h455l-4-24H191l-49-312h400l-4-24H138L88 24h436l-4-24H59zm249 203h21l107-125h-27l-91 106-125-106h-30z"/><glyph glyph-name="Edieresis" unicode="Ë" horiz-adv-x="626" d="M170 700h455l-4-24H191l-49-312h400l-4-24H138L88 24h436l-4-24H59zm371 134q-4-22-25-22-10 0-16 7.5t-4 17.5q1 8 8.5 14.5T520 858q11 0 17-7t4-17zm-200 0q-4-22-25-22-10 0-16 7.5t-4 17.5q1 8 8.5 14.5T320 858q11 0 17-7t4-17z"/><glyph glyph-name="Igrave" unicode="Ì" horiz-adv-x="235" d="M170 700h25L84 0H59zm52 78h-26l-70 133h28z"/><glyph glyph-name="Iacute" unicode="Í" horiz-adv-x="235" d="M170 700h25L84 0H59zm20 78h-27l108 133h30z"/><glyph glyph-name="Icircumflex" unicode="Î" horiz-adv-x="235" d="M170 700h25L84 0H59zm32 203h21l107-125h-27l-91 106L87 778H57z"/><glyph glyph-name="Idieresis" unicode="Ï" horiz-adv-x="235" d="M170 700h25L84 0H59zm154 134q-4-22-25-22-10 0-16 7.5t-4 17.5q1 8 8.5 14.5T303 858q11 0 17-7t4-17zm-200 0q-4-22-25-22-10 0-16 7.5T79 837q1 8 8.5 14.5T103 858q11 0 17-7t4-17z"/><glyph glyph-name="Eth" unicode="Ð" horiz-adv-x="731" d="M171 700h195q183 0 264-96.5T686 348Q662 191 553 95.5T259 0H60l53 338H50l3 23h64zm91-676q171 0 273.5 89T661 352q23 147-51 235.5T365 676H191l-50-315h259l-3-23H138L88 24h174z"/><glyph glyph-name="Ntilde" unicode="Ñ" horiz-adv-x="767" d="M84 0H59l111 700h20L598 42q1 10 3.5 26t3.5 23l97 609h25L616 0h-20L188 659q-2-16-8-49zm531 861q-1-32-19-52t-48-20q-29 0-82.5 28T389 845q-22 0-35-14t-13-37h-22q0 32 19.5 52.5T386 867t82.5-28 77.5-28q45 0 47 50h22z"/><glyph glyph-name="Ograve" unicode="Ò" horiz-adv-x="825" d="M783 348q-11-67-44.5-130t-85-114.5T527 21 366-10 214.5 22t-101 84-49 115.5T61 352q11 66 44.5 129.5T191 596t127 82.5T478 710q86 0 151.5-32t101-84 49-115.5T783 348zm-697 1q-10-62 2-120.5t44.5-107 93-78T367 14q157 0 263.5 102T758 351q10 62-2 120.5t-44.5 107-93 78T477 686q-80 0-151-29.5t-119.5-78-79.5-108T86 349zm432 429h-26l-70 133h28z"/><glyph glyph-name="Oacute" unicode="Ó" horiz-adv-x="825" d="M783 348q-11-67-44.5-130t-85-114.5T527 21 366-10 214.5 22t-101 84-49 115.5T61 352q11 66 44.5 129.5T191 596t127 82.5T478 710q86 0 151.5-32t101-84 49-115.5T783 348zm-697 1q-10-62 2-120.5t44.5-107 93-78T367 14q157 0 263.5 102T758 351q10 62-2 120.5t-44.5 107-93 78T477 686q-80 0-151-29.5t-119.5-78-79.5-108T86 349zm400 429h-27l108 133h30z"/><glyph glyph-name="Ocircumflex" unicode="Ô" horiz-adv-x="825" d="M783 348q-11-67-44.5-130t-85-114.5T527 21 366-10 214.5 22t-101 84-49 115.5T61 352q11 66 44.5 129.5T191 596t127 82.5T478 710q86 0 151.5-32t101-84 49-115.5T783 348zm-697 1q-10-62 2-120.5t44.5-107 93-78T367 14q157 0 263.5 102T758 351q10 62-2 120.5t-44.5 107-93 78T477 686q-80 0-151-29.5t-119.5-78-79.5-108T86 349zm412 554h21l107-125h-27l-91 106-125-106h-30z"/><glyph glyph-name="Otilde" unicode="Õ" horiz-adv-x="825" d="M783 348q-11-67-44.5-130t-85-114.5T527 21 366-10 214.5 22t-101 84-49 115.5T61 352q11 66 44.5 129.5T191 596t127 82.5T478 710q86 0 151.5-32t101-84 49-115.5T783 348zm-697 1q-10-62 2-120.5t44.5-107 93-78T367 14q157 0 263.5 102T758 351q10 62-2 120.5t-44.5 107-93 78T477 686q-80 0-151-29.5t-119.5-78-79.5-108T86 349zm557 512q-1-32-19-52t-48-20q-28 0-82 28t-77 28q-22 0-35-14t-13-37h-22q0 32 19.5 52.5T414 867t82.5-28 77.5-28q45 0 47 50h22z"/><glyph glyph-name="Odieresis" unicode="Ö" horiz-adv-x="825" d="M783 348q-11-67-44.5-130t-85-114.5T527 21 366-10 214.5 22t-101 84-49 115.5T61 352q11 66 44.5 129.5T191 596t127 82.5T478 710q86 0 151.5-32t101-84 49-115.5T783 348zm-697 1q-10-62 2-120.5t44.5-107 93-78T367 14q157 0 263.5 102T758 351q10 62-2 120.5t-44.5 107-93 78T477 686q-80 0-151-29.5t-119.5-78-79.5-108T86 349zm534 485q-4-22-25-22-10 0-16 7.5t-4 17.5q1 8 8.5 14.5T599 858q11 0 17-7t4-17zm-200 0q-4-22-25-22-10 0-16 7.5t-4 17.5q1 8 8.5 14.5T399 858q11 0 17-7t4-17z"/><glyph glyph-name="multiply" unicode="×" horiz-adv-x="444" d="M229 335L73 199l-14 17 156 134-114 135 18 15 113-134 157 135 13-16-156-135 113-135-17-16z"/><glyph glyph-name="Oslash" unicode="Ø" horiz-adv-x="825" d="M83-48H57l97 110q-58 52-81.5 129.5T62 352q10 66 44 129.5T191.5 596 318 678.5 478 710q118 0 198-59l86 97h26l-97-110q58-52 81.5-129.5T783 348q-10-67-43.5-130t-85-114T528 21.5 367-10q-118 0-198 59zm4 397q-12-77 9.5-149T172 81l488 551q-71 54-182 54-157 0-263.5-102T87 349zm99-281q71-54 182-54 157 0 263.5 102T758 351q12 77-9 149t-75 119z"/><glyph glyph-name="Ugrave" unicode="Ù" horiz-adv-x="749" d="M693 700h25l-73-460Q606-10 330-10q-127 0-194.5 60T89 241l72 459h25l-73-459Q77 14 329 14q256 0 292 228zm-216 78h-26l-70 133h28z"/><glyph glyph-name="Uacute" unicode="Ú" horiz-adv-x="749" d="M693 700h25l-73-460Q606-10 330-10q-127 0-194.5 60T89 241l72 459h25l-73-459Q77 14 329 14q256 0 292 228zm-248 78h-27l108 133h30z"/><glyph glyph-name="Ucircumflex" unicode="Û" horiz-adv-x="749" d="M693 700h25l-73-460Q606-10 330-10q-127 0-194.5 60T89 241l72 459h25l-73-459Q77 14 329 14q256 0 292 228zM457 903h21l107-125h-27l-91 106-125-106h-30z"/><glyph glyph-name="Udieresis" unicode="Ü" horiz-adv-x="749" d="M693 700h25l-73-460Q606-10 330-10q-127 0-194.5 60T89 241l72 459h25l-73-459Q77 14 329 14q256 0 292 228zM579 834q-4-22-25-22-10 0-16 7.5t-4 17.5q1 8 8.5 14.5T558 858q11 0 17-7t4-17zm-200 0q-4-22-25-22-10 0-16 7.5t-4 17.5q1 8 8.5 14.5T358 858q11 0 17-7t4-17z"/><glyph glyph-name="Yacute" unicode="Ý" horiz-adv-x="624" d="M278 0h-25l45 284L89 700h26l198-391 322 391h30L323 284zm105 778h-27l108 133h30z"/><glyph glyph-name="Thorn" unicode="Þ" horiz-adv-x="650" d="M174 567h189q62 0 110.5-10.5T561 522t55.5-68 6.5-106q-35-215-325-215H105L84 0H59l111 700h25zm-65-410h193q266 0 297 195 9 54-6 92.5T543.5 504 465 534t-100 9H170z"/><glyph glyph-name="germandbls" unicode="ß" horiz-adv-x="588" d="M527 148q-13-77-78-117.5T301-10q-77 0-128 32l3 22q51-32 122-32 78 0 136 35.5T503 153q5 32-6.5 62.5t-31 53T426 312t-33 43-10 42q4 22 19.5 43t33 35.5 34 39T490 568q7 46-31 83t-105 37q-83 0-141-49t-71-133L62 0H38l80 505q15 96 79.5 150.5T354 710q79 1 124-44t36-100q-6-37-30.5-66.5T435 446t-28-49q-3-18 10.5-39t33.5-42 39.5-44.5 31-56T527 148z"/><glyph glyph-name="agrave" unicode="à" horiz-adv-x="613" d="M481 124q-39-60-102.5-97T242-10Q138-10 81 61T42 246q18 111 96 177.5T318 490q71 0 125-39t74-98l20 127h23L484 0h-23zM65 243Q48 139 99 75.5T243 12q76 0 142 43.5T485 164l24 150q-12 65-64.5 109.5T319 468q-94 0-166-60.5T65 243zm309 315h-26l-70 133h28z"/><glyph glyph-name="aacute" unicode="á" horiz-adv-x="613" d="M481 124q-39-60-102.5-97T242-10Q138-10 81 61T42 246q18 111 96 177.5T318 490q71 0 125-39t74-98l20 127h23L484 0h-23zM65 243Q48 139 99 75.5T243 12q76 0 142 43.5T485 164l24 150q-12 65-64.5 109.5T319 468q-94 0-166-60.5T65 243zm277 315h-27l108 133h30z"/><glyph glyph-name="acircumflex" unicode="â" horiz-adv-x="613" d="M481 124q-39-60-102.5-97T242-10Q138-10 81 61T42 246q18 111 96 177.5T318 490q71 0 125-39t74-98l20 127h23L484 0h-23zM65 243Q48 139 99 75.5T243 12q76 0 142 43.5T485 164l24 150q-12 65-64.5 109.5T319 468q-94 0-166-60.5T65 243zm289 440h21l107-125h-27l-91 106-125-106h-30z"/><glyph glyph-name="atilde" unicode="ã" horiz-adv-x="613" d="M481 124q-39-60-102.5-97T242-10Q138-10 81 61T42 246q18 111 96 177.5T318 490q71 0 125-39t74-98l20 127h23L484 0h-23zM65 243Q48 139 99 75.5T243 12q76 0 142 43.5T485 164l24 150q-12 65-64.5 109.5T319 468q-94 0-166-60.5T65 243zm434 398q-1-32-19-52t-48-20q-28 0-82 28t-77 28q-22 0-35-14t-13-37h-22q0 32 19.5 52.5T270 647t82.5-28 77.5-28q45 0 47 50h22z"/><glyph glyph-name="adieresis" unicode="ä" horiz-adv-x="613" d="M481 124q-39-60-102.5-97T242-10Q138-10 81 61T42 246q18 111 96 177.5T318 490q71 0 125-39t74-98l20 127h23L484 0h-23zM65 243Q48 139 99 75.5T243 12q76 0 142 43.5T485 164l24 150q-12 65-64.5 109.5T319 468q-94 0-166-60.5T65 243zm411 371q-4-22-25-22-10 0-16 7.5t-4 17.5q1 8 8.5 14.5T455 638q11 0 17-7t4-17zm-200 0q-4-22-25-22-10 0-16 7.5t-4 17.5q1 8 8.5 14.5T255 638q11 0 17-7t4-17z"/><glyph glyph-name="aring" unicode="å" horiz-adv-x="613" d="M481 124q-39-60-102.5-97T242-10Q138-10 81 61T42 246q18 111 96 177.5T318 490q71 0 125-39t74-98l20 127h23L484 0h-23zM65 243Q48 139 99 75.5T243 12q76 0 142 43.5T485 164l24 150q-12 65-64.5 109.5T319 468q-94 0-166-60.5T65 243zm375 375q-6-36-33.5-58T345 538q-35 0-57.5 23.5T272 622q5 35 33.5 57.5T367 702q35 0 57.5-23.5T440 618zm-149 1q-4-27 12-44.5t41-17.5q28 0 50 17t27 46q4 27-12 45t-41 18q-27 0-49.5-17.5T291 619z"/><glyph glyph-name="ae" unicode="æ" horiz-adv-x="1001" d="M481 122q-40-59-102.5-95.5T242-10Q139-10 81.5 61T42 246q18 111 96 177.5T318 490q71 0 125-39t74-98l20 127h23l-23-144q35 73 99.5 113.5T774 490q51 0 89-16.5t58.5-44 30-62.5 7-71-13.5-71H523q-14-105 47.5-159T727 12q89 0 162 39l-4-25q-66-36-161-36-80 0-142 39.5T507 147L484 0h-23zM66 243Q49 139 100 75.5T244 12q76 0 142 43.5T486 164l24 150q-12 65-65.5 109.5T320 468q-95 0-166.5-60.5T66 243zm706 225q-91 0-162-63t-85-158h402q12 35 8 74t-18.5 71.5-52 54T772 468z"/><glyph glyph-name="ccedilla" unicode="ç" horiz-adv-x="493" d="M469 427q-49 41-131 41-60 0-115.5-22.5t-100.5-76T65 239Q47 131 104 71.5T256 12q87 0 159 40l-4-25q-67-37-152-37l-34-85q46 11 82.5-5.5T338-157q-5-33-35.5-53T219-230q-57 0-101 22l4 21q41-22 95-22 47 0 72 15t27 40q5 32-34 43.5t-86-4.5l42 105Q140-5 81.5 60T41 242q10 63 40.5 112.5t73.5 78 89 43 93 14.5q83 0 137-40z"/><glyph glyph-name="egrave" unicode="è" horiz-adv-x="542" d="M41 241q18 115 95 182t173 67q50 0 88-16.5t59.5-44T489 367t9.5-71-12.5-71H63Q49 120 111 66t156-54q89 0 164 39l-5-25q-66-36-161-36-106 0-175 64T41 241zm427 6q12 35 7 74t-20.5 71.5-53.5 54-91 21.5q-87 0-156-59T66 247h402zM354 558h-26l-70 133h28z"/><glyph glyph-name="eacute" unicode="é" horiz-adv-x="542" d="M41 241q18 115 95 182t173 67q50 0 88-16.5t59.5-44T489 367t9.5-71-12.5-71H63Q49 120 111 66t156-54q89 0 164 39l-5-25q-66-36-161-36-106 0-175 64T41 241zm427 6q12 35 7 74t-20.5 71.5-53.5 54-91 21.5q-87 0-156-59T66 247h402zM322 558h-27l108 133h30z"/><glyph glyph-name="ecircumflex" unicode="ê" horiz-adv-x="542" d="M41 241q18 115 95 182t173 67q50 0 88-16.5t59.5-44T489 367t9.5-71-12.5-71H63Q49 120 111 66t156-54q89 0 164 39l-5-25q-66-36-161-36-106 0-175 64T41 241zm427 6q12 35 7 74t-20.5 71.5-53.5 54-91 21.5q-87 0-156-59T66 247h402zM334 683h21l107-125h-27l-91 106-125-106h-30z"/><glyph glyph-name="edieresis" unicode="ë" horiz-adv-x="542" d="M41 241q18 115 95 182t173 67q50 0 88-16.5t59.5-44T489 367t9.5-71-12.5-71H63Q49 120 111 66t156-54q89 0 164 39l-5-25q-66-36-161-36-106 0-175 64T41 241zm427 6q12 35 7 74t-20.5 71.5-53.5 54-91 21.5q-87 0-156-59T66 247h402zm-12 367q-4-22-25-22-10 0-16 7.5t-4 17.5q1 8 8.5 14.5T435 638q11 0 17-7t4-17zm-200 0q-4-22-25-22-10 0-16 7.5t-4 17.5q1 8 8.5 14.5T235 638q11 0 17-7t4-17z"/><glyph glyph-name="igrave" unicode="ì" horiz-adv-x="200" d="M160 558h-24L87 691h28zM66 0H42l76 480h24z"/><glyph glyph-name="iacute" unicode="í" horiz-adv-x="200" d="M66 0H42l76 480h24zm73 558h-27l108 133h30z"/><glyph glyph-name="icircumflex" unicode="î" horiz-adv-x="200" d="M66 0H42l76 480h24zM48 558H18l133 125h21l95-125h-27l-79 106z"/><glyph glyph-name="idieresis" unicode="ï" horiz-adv-x="200" d="M66 0H42l76 480h24zm34 614q-4-21-24-21-10 0-15.5 7T57 617q1 8 8 14t15 6q10 0 16-6.5t4-16.5zm144 0q-4-21-24-21-10 0-15.5 7t-3.5 17q1 8 8 14t15 6q10 0 16-6.5t4-16.5z"/><glyph glyph-name="eth" unicode="ð" horiz-adv-x="595" d="M532 264q-20-125-98.5-199.5T244-10Q140-10 80.5 55T38 226q15 97 93 160t173 63q84 0 143.5-49T508 260q2 8 4 26 21 149-32 236T331 647L192 527l-13 15 130 111q-64 24-148 24l4 23q86 0 164-29l98 85 13-15-92-79q47-20 83.5-50t66.5-79 37.5-114-3.5-155zM62 222Q47 128 99 70.5T244 13q87 0 152.5 50.5T492 201q15 108-41 166.5T307 426q-90 0-160.5-57T62 222z"/><glyph glyph-name="ntilde" unicode="ñ" horiz-adv-x="574" d="M119 371q39 48 97 83.5T343 490q80 0 124.5-53T498 295L451 0h-24l47 294q13 82-26 128t-110 46q-67 0-126.5-39T115 338L62 0H38l76 480h22zm359 270q-1-32-19-52t-48-20q-29 0-83 28t-76 28-35-14-13-37h-22q0 32 19.5 52.5T249 647t82.5-28 77.5-28q45 0 47 50h22z"/><glyph glyph-name="ograve" unicode="ò" horiz-adv-x="592" d="M535 234Q517 120 434.5 55T250-10q-99 0-163 70.5T41 246q18 114 101 179t185 65q99 0 163-70.5T535 234zm-470 8Q48 139 104.5 76T250 13q95 0 170 60t91 165q17 103-39.5 166T326 467q-95 0-170-60T65 242zm302 308h-26l-70 133h28z"/><glyph glyph-name="oacute" unicode="ó" horiz-adv-x="592" d="M535 234Q517 120 434.5 55T250-10q-99 0-163 70.5T41 246q18 114 101 179t185 65q99 0 163-70.5T535 234zm-470 8Q48 139 104.5 76T250 13q95 0 170 60t91 165q17 103-39.5 166T326 467q-95 0-170-60T65 242zm270 308h-27l108 133h30z"/><glyph glyph-name="ocircumflex" unicode="ô" horiz-adv-x="592" d="M535 234Q517 120 434.5 55T250-10q-99 0-163 70.5T41 246q18 114 101 179t185 65q99 0 163-70.5T535 234zm-470 8Q48 139 104.5 76T250 13q95 0 170 60t91 165q17 103-39.5 166T326 467q-95 0-170-60T65 242zm282 433h21l107-125h-27l-91 106-125-106h-30z"/><glyph glyph-name="otilde" unicode="õ" horiz-adv-x="592" d="M535 234Q517 120 434.5 55T250-10q-99 0-163 70.5T41 246q18 114 101 179t185 65q99 0 163-70.5T535 234zm-470 8Q48 139 104.5 76T250 13q95 0 170 60t91 165q17 103-39.5 166T326 467q-95 0-170-60T65 242zm427 391q-1-32-19-52t-48-20q-29 0-83 28t-76 28-35-14-13-37h-22q0 32 19.5 52.5T263 639t82.5-28 77.5-28q45 0 47 50h22z"/><glyph glyph-name="odieresis" unicode="ö" horiz-adv-x="592" d="M535 234Q517 120 434.5 55T250-10q-99 0-163 70.5T41 246q18 114 101 179t185 65q99 0 163-70.5T535 234zm-470 8Q48 139 104.5 76T250 13q95 0 170 60t91 165q17 103-39.5 166T326 467q-95 0-170-60T65 242zm404 364q-4-22-25-22-10 0-16 7.5t-4 17.5q1 8 8.5 14.5T448 630q11 0 17-7t4-17zm-200 0q-4-22-25-22-10 0-16 7.5t-4 17.5q1 8 8.5 14.5T248 630q11 0 17-7t4-17z"/><glyph glyph-name="divide" unicode="÷" horiz-adv-x="644" d="M570 338H90l3 24h480zM317 123q-2-20-23-20-11 0-16.5 7t-4.5 17q1 9 8 14.5t16 5.5q23 0 20-24zm72 447q-1-9-8-14.5t-16-5.5q-11 0-16.5 7t-3.5 17q1 9 8 14.5t16 5.5q23 0 20-24z"/><glyph glyph-name="oslash" unicode="ø" horiz-adv-x="593" d="M539 543l-77-97q95-75 74-212-18-114-100.5-179T251-10q-68 0-124 36L61-58H38l75 95q-92 74-71 209 18 114 101 179t185 65q68 0 120-34l68 87h23zm-213-76q-95 0-169.5-60T65 242Q46 121 127 55l304 383q-46 29-105 29zM251 13q95 0 169.5 60T512 238q20 126-65 189L142 44q48-31 109-31z"/><glyph glyph-name="ugrave" unicode="ù" horiz-adv-x="575" d="M497 480h24L445 0h-22l17 109q-36-47-95-83T219-10q-81 0-126.5 53T61 186l47 294h24L85 186q-12-82 26-128t109-46q69 0 128 39t95 92zm-145 78h-26l-70 133h28z"/><glyph glyph-name="uacute" unicode="ú" horiz-adv-x="575" d="M497 480h24L445 0h-22l17 109q-36-47-95-83T219-10q-81 0-126.5 53T61 186l47 294h24L85 186q-12-82 26-128t109-46q69 0 128 39t95 92zm-177 78h-27l108 133h30z"/><glyph glyph-name="ucircumflex" unicode="û" horiz-adv-x="575" d="M497 480h24L445 0h-22l17 109q-36-47-95-83T219-10q-81 0-126.5 53T61 186l47 294h24L85 186q-12-82 26-128t109-46q69 0 128 39t95 92zM332 683h21l107-125h-27l-91 106-125-106h-30z"/><glyph glyph-name="udieresis" unicode="ü" horiz-adv-x="575" d="M497 480h24L445 0h-22l17 109q-36-47-95-83T219-10q-81 0-126.5 53T61 186l47 294h24L85 186q-12-82 26-128t109-46q69 0 128 39t95 92zm-43 134q-4-22-25-22-10 0-16 7.5t-4 17.5q1 8 8.5 14.5T433 638q11 0 17-7t4-17zm-200 0q-4-22-25-22-10 0-16 7.5t-4 17.5q1 8 8.5 14.5T233 638q11 0 17-7t4-17z"/><glyph glyph-name="yacute" unicode="ý" horiz-adv-x="530" d="M235 25l275 455h27L193-88q-48-78-88.5-110T16-230q-25 0-49 6l3 21q20-5 44-5 44 0 81 31t78 100l47 77L47 480h25zm57 533h-27l108 133h30z"/><glyph glyph-name="thorn" unicode="þ" horiz-adv-x="613" d="M27-220H3l146 920h24l-55-345q40 60 103 97.5T356 490q101 0 159.5-71T556 234q-18-112-95-178T280-10q-74 0-126 38.5T82 129zm61 387q13-67 64-111t126-44q96 0 166.5 60T532 237q17 103-35.5 167T353 468q-74 0-141-44.5T111 312z"/><glyph glyph-name="ydieresis" unicode="ÿ" horiz-adv-x="530" d="M235 25l275 455h27L193-88q-48-78-88.5-110T16-230q-25 0-49 6l3 21q20-5 44-5 44 0 81 31t78 100l47 77L47 480h25zm191 589q-4-22-25-22-10 0-16 7.5t-4 17.5q1 8 8.5 14.5T405 638q11 0 17-7t4-17zm-200 0q-4-22-25-22-10 0-16 7.5t-4 17.5q1 8 8.5 14.5T205 638q11 0 17-7t4-17z"/><glyph glyph-name="Amacron" unicode="Ā" horiz-adv-x="707" d="M644 0h-26l-65 215H133L-1 0h-28l433 700h30zM406 659L146 239h401L420 660q-4 7-5 17-2-5-9-18zm-91 175h252l-3-23H312z"/><glyph glyph-name="amacron" unicode="ā" horiz-adv-x="613" d="M481 124q-39-60-102.5-97T242-10Q138-10 81 61T42 246q18 111 96 177.5T318 490q71 0 125-39t74-98l20 127h23L484 0h-23zM65 243Q48 139 99 75.5T243 12q76 0 142 43.5T485 164l24 150q-12 65-64.5 109.5T319 468q-94 0-166-60.5T65 243zm165 371h252l-3-23H227z"/><glyph glyph-name="Abreve" unicode="Ă" horiz-adv-x="707" d="M644 0h-26l-65 215H133L-1 0h-28l433 700h30zM406 659L146 239h401L420 660q-4 7-5 17-2-5-9-18zm153 165q-56-41-127-41-79 0-121 41l4 26q45-44 117-44t131 44z"/><glyph glyph-name="abreve" unicode="ă" horiz-adv-x="613" d="M481 124q-39-60-102.5-97T242-10Q138-10 81 61T42 246q18 111 96 177.5T318 490q71 0 125-39t74-98l20 127h23L484 0h-23zM65 243Q48 139 99 75.5T243 12q76 0 142 43.5T485 164l24 150q-12 65-64.5 109.5T319 468q-94 0-166-60.5T65 243zm409 361q-56-41-127-41-79 0-121 41l4 26q45-44 117-44t131 44z"/><glyph glyph-name="Aogonek" unicode="Ą" horiz-adv-x="707" d="M644 0Q510-84 499-151q-4-27 11-42.5t46-15.5q28 0 56 11l-3-22q-26-10-57-10-42 0-62 21.5T476-151Q486-82 616 6l-63 209H133L-1 0h-28l433 700h30zM406 659L146 239h401L420 660q-4 7-5 17z"/><glyph glyph-name="aogonek" unicode="ą" horiz-adv-x="613" d="M560 480L484 0Q358-84 347-151q-4-27 9.5-42.5T396-209t55 9l-3-22q-29-8-56-8-36 0-55 21.5T324-151Q335-80 463 9l18 115q-39-60-102.5-97T242-10Q138-10 81 61T42 246q18 111 96 177.5T318 490q71 0 125-39t74-98l20 127h23zM65 243Q48 139 99 75.5T243 12q76 0 142 43.5T485 164l24 150q-12 65-64.5 109.5T319 468q-94 0-166-60.5T65 243z"/><glyph glyph-name="Cacute" unicode="Ć" horiz-adv-x="649" d="M63 355q18 114 86 197t153.5 120.5T478 710q109 0 184-48l-4-25q-70 49-178 49-63 0-125.5-20.5t-118-60.5-96-105.5T87 351q-13-81 6-147t62-106.5 98.5-62T372 14q105 0 200 50l-4-26q-89-48-200-48-67 0-126.5 23.5T136 80.5t-66.5 115T63 355zm423 423h-27l108 133h30z"/><glyph glyph-name="cacute" unicode="ć" horiz-adv-x="493" d="M41 242q10 63 40.5 112.5t73.5 78 89 43 93 14.5q85 0 137-40l-4-23q-49 41-132 41-94 0-174-58T65 239Q47 131 104.5 71.5T257 12q86 0 158 40l-3-25q-70-37-158-37-104 0-167.5 65T41 242zm294 316h-27l108 133h30z"/><glyph glyph-name="Cdotaccent" unicode="Ċ" horiz-adv-x="649" d="M63 355q18 114 86 197t153.5 120.5T478 710q109 0 184-48l-4-25q-70 49-178 49-63 0-125.5-20.5t-118-60.5-96-105.5T87 351q-13-81 6-147t62-106.5 98.5-62T372 14q105 0 200 50l-4-26q-89-48-200-48-67 0-126.5 23.5T136 80.5t-66.5 115T63 355zm459 461q-5-26-31-26-12 0-19.5 8t-5.5 21q2 11 10.5 18.5T496 845q13 0 20.5-8t5.5-21z"/><glyph glyph-name="cdotaccent" unicode="ċ" horiz-adv-x="493" d="M41 242q10 63 40.5 112.5t73.5 78 89 43 93 14.5q85 0 137-40l-4-23q-49 41-132 41-94 0-174-58T65 239Q47 131 104.5 71.5T257 12q86 0 158 40l-3-25q-70-37-158-37-104 0-167.5 65T41 242zm330 354q-5-26-31-26-12 0-19.5 8t-5.5 21q2 11 10.5 18.5T345 625q13 0 20.5-8t5.5-21z"/><glyph glyph-name="Ccaron" unicode="Č" horiz-adv-x="649" d="M63 355q18 114 86 197t153.5 120.5T478 710q109 0 184-48l-4-25q-70 49-178 49-63 0-125.5-20.5t-118-60.5-96-105.5T87 351q-13-81 6-147t62-106.5 98.5-62T372 14q105 0 200 50l-4-26q-89-48-200-48-67 0-126.5 23.5T136 80.5t-66.5 115T63 355zm582 538L498 768h-20L371 893h27l92-106 124 106h31z"/><glyph glyph-name="ccaron" unicode="č" horiz-adv-x="493" d="M41 242q10 63 40.5 112.5t73.5 78 89 43 93 14.5q85 0 137-40l-4-23q-49 41-132 41-94 0-174-58T65 239Q47 131 104.5 71.5T257 12q86 0 158 40l-3-25q-70-37-158-37-104 0-167.5 65T41 242zm453 431L347 548h-20L220 673h27l92-106 124 106h31z"/><glyph glyph-name="Dcaron" unicode="Ď" horiz-adv-x="730" d="M170 700h195q183 0 264-96.5T685 348Q661 191 552 95.5T258 0H59zm491-348q23 147-51 235.5T365 676H191L88 24h174q171 0 273.5 89T661 352zM559 893L412 768h-20L285 893h27l92-106 124 106h31z"/><glyph glyph-name="dcaron" unicode="ď" horiz-adv-x="613" d="M680 700h23l-46-156h-20zm-109 0h24L484 0h-22l20 126q-39-61-103-98.5T242-10Q140-10 82 61T42 246q18 112 95 178t180 66q74 0 127-38.5T516 351zm-62-387q-12 67-63.5 111T319 468q-96 0-167-60T65 243Q48 140 100 76t143-64q77 0 143 44.5T486 168z"/><glyph glyph-name="Dcroat" unicode="Đ" horiz-adv-x="731" d="M171 700h195q183 0 264-96.5T686 348Q662 191 553 95.5T259 0H60l53 338H50l3 23h64zm91-676q171 0 273.5 89T661 352q23 147-51 235.5T365 676H191l-50-315h259l-3-23H138L88 24h174z"/><glyph glyph-name="dcroat" unicode="đ" horiz-adv-x="613" d="M580 611h93l-3-20h-92L484 0h-22l20 126q-39-61-103-98.5T242-10Q140-10 82 61T42 246q18 112 95 178t180 66q74 0 127-38.5T516 351l38 240H367l2 20h188l14 89h24zM243 12q77 0 143 44.5T486 168l23 145q-12 67-63.5 111T319 468q-96 0-167-60T65 243Q48 140 100 76t143-64z"/><glyph glyph-name="Emacron" unicode="Ē" horiz-adv-x="626" d="M170 700h455l-4-24H191l-49-312h400l-4-24H138L88 24h436l-4-24H59zm125 134h252l-3-23H292z"/><glyph glyph-name="emacron" unicode="ē" horiz-adv-x="542" d="M41 241q18 115 95 182t173 67q50 0 88-16.5t59.5-44T489 367t9.5-71-12.5-71H63Q49 120 111 66t156-54q89 0 164 39l-5-25q-66-36-161-36-106 0-175 64T41 241zm427 6q12 35 7 74t-20.5 71.5-53.5 54-91 21.5q-87 0-156-59T66 247h402zM210 614h252l-3-23H207z"/><glyph glyph-name="Edotaccent" unicode="Ė" horiz-adv-x="626" d="M170 700h455l-4-24H191l-49-312h400l-4-24H138L88 24h436l-4-24H59zm273 116q-5-26-31-26-12 0-19.5 8t-5.5 21q2 11 10.5 18.5T417 845q13 0 20.5-8t5.5-21z"/><glyph glyph-name="edotaccent" unicode="ė" horiz-adv-x="542" d="M41 241q18 115 95 182t173 67q50 0 88-16.5t59.5-44T489 367t9.5-71-12.5-71H63Q49 120 111 66t156-54q89 0 164 39l-5-25q-66-36-161-36-106 0-175 64T41 241zm427 6q12 35 7 74t-20.5 71.5-53.5 54-91 21.5q-87 0-156-59T66 247h402zM358 596q-5-26-31-26-12 0-19.5 8t-5.5 21q2 11 10.5 18.5T332 625q13 0 20.5-8t5.5-21z"/><glyph glyph-name="Eogonek" unicode="Ę" horiz-adv-x="626" d="M486-197l-3-22q-28-11-59-11-39 0-58.5 21.5T352-151Q362-80 485 0H59l111 700h455l-4-24H191l-49-312h400l-4-24H138L88 24h436l-4-24Q385-85 375-150q-5-27 9.5-43t42.5-16q31 0 59 12z"/><glyph glyph-name="eogonek" unicode="ę" horiz-adv-x="542" d="M377-211q-35-19-78-19-42-1-62 21t-14 58q9 68 141 155-44-14-99-14-106 0-175 64T41 241q18 115 95 182t173 67q50 0 88-16.5t59.5-44T489 367t9.5-71-12.5-71H63Q49 120 111 66t156-54q89 0 164 39l-5-25q-87-57-130.5-98.5T246-151q-4-27 10.5-43t45.5-15q38 0 78 20zm-67 679q-87 0-156-59T66 247h402q12 35 7 74t-20.5 71.5-53.5 54-91 21.5z"/><glyph glyph-name="Ecaron" unicode="Ě" horiz-adv-x="626" d="M170 700h455l-4-24H191l-49-312h400l-4-24H138L88 24h436l-4-24H59zm396 193L419 768h-20L292 893h27l92-106 124 106h31z"/><glyph glyph-name="ecaron" unicode="ě" horiz-adv-x="542" d="M41 241q18 115 95 182t173 67q50 0 88-16.5t59.5-44T489 367t9.5-71-12.5-71H63Q49 120 111 66t156-54q89 0 164 39l-5-25q-66-36-161-36-106 0-175 64T41 241zm427 6q12 35 7 74t-20.5 71.5-53.5 54-91 21.5q-87 0-156-59T66 247h402zm13 426L334 548h-20L207 673h27l92-106 124 106h31z"/><glyph glyph-name="Gbreve" unicode="Ğ" horiz-adv-x="710" d="M64 362q12 73 43 132.5t73.5 99 95 66.5T381 698.5 488 710q111 0 195-46l-3-24q-77 46-191 46-65 0-128-18.5T241 612t-98-102.5T88 358t6-153.5 64.5-108T261 35t124-21q109 0 196 42l49 309h25L603 37Q501-10 384-10q-71 0-133.5 22.5T140 79 70.5 196 64 362zm556 462q-56-41-127-41-79 0-121 41l4 26q45-44 117-44t131 44z"/><glyph glyph-name="gbreve" unicode="ğ" horiz-adv-x="613" d="M483-1q-19-118-98.5-173.5T199-230q-104 0-176 46l4 24q73-48 170-48 99 0 172 50.5T459 1l20 122q-38-59-102-96T241-10Q137-10 80 60.5T41 246q18 112 95 178t181 66q74 0 126-38.5T516 349l20 131h23zM64 243Q47 139 97.5 75.5T242 12q77 0 143 43.5T485 166l23 147q-12 67-63.5 111T318 468q-95 0-166.5-60T64 243zm402 361q-56-41-127-41-79 0-121 41l4 26q45-44 117-44t131 44z"/><glyph glyph-name="Gdotaccent" unicode="Ġ" horiz-adv-x="710" d="M64 362q12 73 43 132.5t73.5 99 95 66.5T381 698.5 488 710q111 0 195-46l-3-24q-77 46-191 46-65 0-128-18.5T241 612t-98-102.5T88 358t6-153.5 64.5-108T261 35t124-21q109 0 196 42l49 309h25L603 37Q501-10 384-10q-71 0-133.5 22.5T140 79 70.5 196 64 362zm460 454q-5-26-31-26-12 0-19.5 8t-5.5 21q2 11 10.5 18.5T498 845q13 0 20.5-8t5.5-21z"/><glyph glyph-name="gdotaccent" unicode="ġ" horiz-adv-x="613" d="M483-1q-19-118-98.5-173.5T199-230q-104 0-176 46l4 24q73-48 170-48 99 0 172 50.5T459 1l20 122q-38-59-102-96T241-10Q137-10 80 60.5T41 246q18 112 95 178t181 66q74 0 126-38.5T516 349l20 131h23zM64 243Q47 139 97.5 75.5T242 12q77 0 143 43.5T485 166l23 147q-12 67-63.5 111T318 468q-95 0-166.5-60T64 243zm306 353q-5-26-31-26-12 0-19.5 8t-5.5 21q2 11 10.5 18.5T344 625q13 0 20.5-8t5.5-21z"/><glyph glyph-name="Gcommaaccent" unicode="Ģ" horiz-adv-x="710" d="M64 362q12 73 43 132.5t73.5 99 95 66.5T381 698.5 488 710q111 0 195-46l-3-24q-77 46-191 46-65 0-128-18.5T241 612t-98-102.5T88 358t6-153.5 64.5-108T261 35t124-21q109 0 196 42l49 309h25L603 37Q501-10 384-10q-71 0-133.5 22.5T140 79 70.5 196 64 362zm276-586h-22l47 166h24z"/><glyph glyph-name="gcommaaccent" unicode="ģ" horiz-adv-x="613" d="M330 550h-26l48 152h21zM483-1q-19-118-98.5-173.5T199-230q-104 0-176 46l4 24q73-48 170-48 99 0 172 50.5T459 1l20 122q-38-59-102-96T241-10Q137-10 80 60.5T41 246q18 112 95 178t181 66q74 0 126-38.5T516 349l20 131h23zM64 243Q47 139 97.5 75.5T242 12q77 0 143 43.5T485 166l23 147q-12 67-63.5 111T318 468q-95 0-166.5-60T64 243z"/><glyph glyph-name="Hbar" unicode="Ħ" horiz-adv-x="767" d="M85 0H60l82 520H64l3 22h79l25 158h25l-25-158h507l25 158h25l-25-158h79l-4-22h-79L617 0h-25l54 340H139zm82 520l-24-156h507l24 156H167z"/><glyph glyph-name="hbar" unicode="ħ" horiz-adv-x="574" d="M121 373q40 47 97 82t124 35q80 0 125-53t31-142L451 0h-24l47 294q13 82-26 128t-110 46q-67 0-126.5-39T115 338L62 0H38l94 591H73l2 20h59l15 89h24l-15-89h221l-3-20H156z"/><glyph glyph-name="Imacron" unicode="Ī" horiz-adv-x="235" d="M170 700h25L84 0H59zM78 834h252l-3-23H75z"/><glyph glyph-name="imacron" unicode="ī" horiz-adv-x="200" d="M258 593H38l3 23h220zM66 0H42l76 480h24z"/><glyph glyph-name="Iogonek" unicode="Į" horiz-adv-x="235" d="M84 0Q0-88-9-151q-4-27 11-43t46-16q40 1 78 20l-3-21q-35-19-78-19-41 0-61.5 21.5T-31-151q8 60 91 157l110 694h25z"/><glyph glyph-name="iogonek" unicode="į" horiz-adv-x="199" d="M132 617q3 18 22 18 21 0 18-21-3-18-22-18-21 0-18 21zm10-137L66 0q-82-89-92-150-4-27 11-43t46-16q38 0 77 19l-3-22q-36-18-77-18t-61.5 22-14.5 58q8 55 91 155l75 475h24z"/><glyph glyph-name="Idotaccent" unicode="İ" horiz-adv-x="235" d="M170 700h25L84 0H59zm56 116q-5-26-31-26-12 0-19.5 8t-5.5 21q2 11 10.5 18.5T200 845q13 0 20.5-8t5.5-21z"/><glyph glyph-name="dotlessi" unicode="ı" horiz-adv-x="200" d="M66 0H42l76 480h24z"/><glyph glyph-name="IJ" unicode="Ĳ" horiz-adv-x="759" d="M170 700h25L84 0H59zm300 0h256l-81-515q-15-98-78.5-146.5T403-10q-109 0-174 43l4 25q64-44 167-44 192 0 220 173l78 489H466z"/><glyph glyph-name="ij" unicode="ĳ" horiz-adv-x="399" d="M66 0H42l76 480h24zm105 614q-3-18-22-18-21 0-18 21 3 18 22 18 21 0 18-21zm76-731q-18-113-133-113-39 0-69 12l4 22q27-12 62-12 97 0 113 95l93 593h24zm124 731q-3-18-22-18-21 0-18 21 3 18 22 18 21 0 18-21z"/><glyph glyph-name="Kcommaaccent" unicode="Ķ" horiz-adv-x="652" d="M656 700h29L377 358 602 0h-28L356 347H139L84 0H59l111 700h25l-52-329h216zM269-214h-22l47 166h24z"/><glyph glyph-name="kcommaaccent" unicode="ķ" horiz-adv-x="489" d="M459 480h29L251 247 439 0h-28L230 239H100L62 0H38l111 700h24l-70-438h133zM184-214h-22l47 166h24z"/><glyph glyph-name="Lacute" unicode="Ĺ" horiz-adv-x="569" d="M170 700h25L88 24h428l-4-24H59zm38 78h-27l108 133h30z"/><glyph glyph-name="lacute" unicode="ĺ" horiz-adv-x="199" d="M157 730h24L65 0H41zm28 56h-27l108 133h30z"/><glyph glyph-name="Lcommaaccent" unicode="Ļ" horiz-adv-x="569" d="M170 700h25L88 24h428l-4-24H59zm81-914h-22l47 166h24z"/><glyph glyph-name="lcommaaccent" unicode="ļ" horiz-adv-x="199" d="M157 730h24L65 0H41zM2-214h-22L27-48h24z"/><glyph glyph-name="Lcaron" unicode="Ľ" horiz-adv-x="569" d="M449 700h23l-46-156h-20zm-279 0h25L88 24h428l-4-24H59z"/><glyph glyph-name="lcaron" unicode="ľ" horiz-adv-x="200" d="M266 730h23l-46-156h-20zm-108 0h24L66 0H42z"/><glyph glyph-name="Ldot" unicode="Ŀ" horiz-adv-x="576" d="M383 332q-1-9-8-14.5t-16-5.5q-10 0-16 6.5t-5 17.5q1 9 8.5 14.5T362 356q24 0 21-24zM170 700h25L88 24h428l-4-24H59z"/><glyph glyph-name="ldot" unicode="ŀ" horiz-adv-x="243" d="M157 730h24L65 0H41zm95-382q-1-9-8.5-14.5T228 328q-10 0-16 6.5t-5 17.5q1 9 8 14.5t16 5.5q24 0 21-24z"/><glyph glyph-name="Lslash" unicode="Ł" horiz-adv-x="572" d="M515 0H62l47 291L6 249l4 22 102 42 61 387h25l-60-377 259 107-3-22-259-107L91 24h428z"/><glyph glyph-name="lslash" unicode="ł" horiz-adv-x="221" d="M168 730h24l-55-341 96 39-4-22-95-39L76 0H52l57 357-95-39 3 22 96 39z"/><glyph glyph-name="Nacute" unicode="Ń" horiz-adv-x="767" d="M84 0H59l111 700h20L598 42q1 10 3.5 26t3.5 23l97 609h25L616 0h-20L188 659q-2-16-8-49zm374 778h-27l108 133h30z"/><glyph glyph-name="nacute" unicode="ń" horiz-adv-x="574" d="M119 371q39 48 97 83.5T343 490q80 0 124.5-53T498 295L451 0h-24l47 294q13 82-26 128t-110 46q-67 0-126.5-39T115 338L62 0H38l76 480h22zm202 187h-27l108 133h30z"/><glyph glyph-name="Ncommaaccent" unicode="Ņ" horiz-adv-x="767" d="M84 0H59l111 700h20L598 42q1 10 3.5 26t3.5 23l97 609h25L616 0h-20L188 659q-2-16-8-49zm222-214h-22l47 166h24z"/><glyph glyph-name="ncommaaccent" unicode="ņ" horiz-adv-x="574" d="M119 371q39 48 97 83.5T343 490q80 0 124.5-53T498 295L451 0h-24l47 294q13 82-26 128t-110 46q-67 0-126.5-39T115 338L62 0H38l76 480h22zm87-585h-22l47 166h24z"/><glyph glyph-name="Ncaron" unicode="Ň" horiz-adv-x="767" d="M84 0H59l111 700h20L598 42q1 10 3.5 26t3.5 23l97 609h25L616 0h-20L188 659q-2-16-8-49zm533 893L470 768h-20L343 893h27l92-106 124 106h31z"/><glyph glyph-name="ncaron" unicode="ň" horiz-adv-x="574" d="M119 371q39 48 97 83.5T343 490q80 0 124.5-53T498 295L451 0h-24l47 294q13 82-26 128t-110 46q-67 0-126.5-39T115 338L62 0H38l76 480h22zm361 302L333 548h-20L206 673h27l92-106 124 106h31z"/><glyph glyph-name="Eng" unicode="Ŋ" horiz-adv-x="767" d="M598-115q-19-115-134-115-38 0-69 11l4 23q26-10 61-10 99 0 113 94L592 6 188 659q-2-16-8-49L84 0H59l111 700h20L598 42q1 10 3.5 26t3.5 23l97 609h25z"/><glyph glyph-name="eng" unicode="ŋ" horiz-adv-x="575" d="M433-117q-18-113-133-113-39 0-69 11l4 23q27-12 63-12 96 0 111 95l65 407q13 82-26 128t-110 46q-67 0-126.5-39T115 338L62 0H38l76 480h22l-17-109q39 48 97 83.5T343 490q80 0 124.5-53T498 295z"/><glyph glyph-name="Omacron" unicode="Ō" horiz-adv-x="825" d="M783 348q-11-67-44.5-130t-85-114.5T527 21 366-10 214.5 22t-101 84-49 115.5T61 352q11 66 44.5 129.5T191 596t127 82.5T478 710q86 0 151.5-32t101-84 49-115.5T783 348zm-697 1q-10-62 2-120.5t44.5-107 93-78T367 14q157 0 263.5 102T758 351q10 62-2 120.5t-44.5 107-93 78T477 686q-80 0-151-29.5t-119.5-78-79.5-108T86 349zm288 485h252l-3-23H371z"/><glyph glyph-name="omacron" unicode="ō" horiz-adv-x="592" d="M535 234Q517 120 434.5 55T250-10q-99 0-163 70.5T41 246q18 114 101 179t185 65q99 0 163-70.5T535 234zm-470 8Q48 139 104.5 76T250 13q95 0 170 60t91 165q17 103-39.5 166T326 467q-95 0-170-60T65 242zm158 364h252l-3-23H220z"/><glyph glyph-name="Ohungarumlaut" unicode="Ő" horiz-adv-x="825" d="M783 348q-11-67-44.5-130t-85-114.5T527 21 366-10 214.5 22t-101 84-49 115.5T61 352q11 66 44.5 129.5T191 596t127 82.5T478 710q86 0 151.5-32t101-84 49-115.5T783 348zm-697 1q-10-62 2-120.5t44.5-107 93-78T367 14q157 0 263.5 102T758 351q10 62-2 120.5t-44.5 107-93 78T477 686q-80 0-151-29.5t-119.5-78-79.5-108T86 349zm492 429h-27l98 142h28zm-152 0h-27l98 142h28z"/><glyph glyph-name="ohungarumlaut" unicode="ő" horiz-adv-x="592" d="M535 234Q517 120 434.5 55T250-10q-99 0-163 70.5T41 246q18 114 101 179t185 65q99 0 163-70.5T535 234zm-470 8Q48 139 104.5 76T250 13q95 0 170 60t91 165q17 103-39.5 166T326 467q-95 0-170-60T65 242zm362 308h-27l98 142h28zm-152 0h-27l98 142h28z"/><glyph glyph-name="OE" unicode="Œ" horiz-adv-x="1022" d="M488 0q-46-10-119-10-87 0-153 32t-102 85-49.5 117.5T62 357q10 66 44 128t85.5 112.5 126 81.5T475 710q75 0 121-10h427l-4-24H619l-49-312h371l-5-24H566L516 24h407l-5-24H488zM87 353q-10-64 2-123.5t45-108 94-78T370 14q76 0 121 11l103 651q-41 10-120 10t-149-29-118-77-79-106.5T87 353z"/><glyph glyph-name="oe" unicode="œ" horiz-adv-x="992" d="M503 168Q469 82 401 36T245-10q-96 0-159 71T41 247q18 113 100 178t180 65q80 0 137-48.5T524 308q30 86 95.5 134T762 490q50 0 87.5-16.5t58.5-44 31.5-63T948 294t-13-73H524q-14-102 47-155.5T720 12q85 0 160 39l-5-25q-67-36-158-36-82 0-144.5 45T503 168zM65 243Q49 140 104 76.5T245 13q99 0 169 59.5T501 239q17 103-37 165.5T320 467q-91 0-165-60T65 243zm698 225q-84 0-150.5-59.5T527 243h390q12 37 7.5 77t-19 73-52 54-90.5 21z"/><glyph glyph-name="Racute" unicode="Ŕ" horiz-adv-x="682" d="M84 0H59l111 700h259q46 0 86.5-11t74.5-34 49.5-64.5T646 495q-15-97-87.5-146T392 295L612 0h-29L363 294H130zm107 676l-56-358h238q41 0 80 9.5t75 29.5 61 56.5 33 85.5q8 48-5.5 83.5t-43.5 55-66 29-77 9.5H191zm217 102h-27l108 133h30z"/><glyph glyph-name="racute" unicode="ŕ" horiz-adv-x="338" d="M113 333q35 68 98.5 113T357 490l-4-24q-83 2-149.5-52T107 286L62 0H38l76 480h22zm128 225h-27l108 133h30z"/><glyph glyph-name="Rcommaaccent" unicode="Ŗ" horiz-adv-x="682" d="M84 0H59l111 700h259q46 0 86.5-11t74.5-34 49.5-64.5T646 495q-15-97-87.5-146T392 295L612 0h-29L363 294H130zm107 676l-56-358h238q41 0 80 9.5t75 29.5 61 56.5 33 85.5q8 48-5.5 83.5t-43.5 55-66 29-77 9.5H191zm94-890h-22l47 166h24z"/><glyph glyph-name="rcommaaccent" unicode="ŗ" horiz-adv-x="338" d="M113 333q35 68 98.5 113T357 490l-4-24q-83 2-149.5-52T107 286L62 0H38l76 480h22zM6-214h-22L31-48h24z"/><glyph glyph-name="Rcaron" unicode="Ř" horiz-adv-x="682" d="M84 0H59l111 700h259q46 0 86.5-11t74.5-34 49.5-64.5T646 495q-15-97-87.5-146T392 295L612 0h-29L363 294H130zm107 676l-56-358h238q41 0 80 9.5t75 29.5 61 56.5 33 85.5q8 48-5.5 83.5t-43.5 55-66 29-77 9.5H191zm376 217L420 768h-20L293 893h27l92-106 124 106h31z"/><glyph glyph-name="rcaron" unicode="ř" horiz-adv-x="338" d="M113 333q35 68 98.5 113T357 490l-4-24q-83 2-149.5-52T107 286L62 0H38l76 480h22zm287 340L253 548h-20L126 673h27l92-106 124 106h31z"/><glyph glyph-name="Sacute" unicode="Ś" horiz-adv-x="566" d="M99 547q9 56 50 94t92 53.5T349 710q112 0 192-49l-4-24q-77 51-187 49-85 0-149.5-34.5T124 544q-6-39 8-69t42-48.5 65-35 76-29 76-31 64.5-39.5 41.5-56 7-80q-9-58-48.5-97t-92-54.5T248-10Q113-10 18 48l3 24q99-58 226-58 59 0 106 13t82.5 46.5T479 158q7 47-12 81.5t-54.5 55-80 37.5l-89 34-80 38.5-54 57.5L99 547zm240 231h-27l108 133h30z"/><glyph glyph-name="sacute" unicode="ś" horiz-adv-x="455" d="M61 371q10 60 65 89.5T252 490q95 0 157-42l-3-22q-60 42-154 42-63 0-111-25t-56-75q-7-43 24.5-69t80-38.5T286 234t78.5-44 22.5-79q-9-61-64.5-91T191-10q-49 0-98.5 13.5T14 39l4 23q31-22 78.5-36T190 12q68 0 116.5 25.5T363 113q7 43-24 68.5t-79.5 38T163 246t-78.5 44.5T61 371zm197 187h-27l108 133h30z"/><glyph glyph-name="Scedilla" unicode="Ş" horiz-adv-x="566" d="M340-157q-4-33-34.5-53T222-230q-59 0-101 22l3 21q42-22 96-22 92 0 99 55 5 33-34.5 43.5T198-115l42 105Q110-8 18 48l3 24q99-58 226-58 59 0 106 13t82.5 46.5T479 158q7 47-12 81.5t-54.5 55-80 37.5l-89 34-80 38.5-54 57.5L99 547q9 56 50 94t92 53.5T349 710q112 0 192-49l-4-24q-77 51-187 49-85 0-149.5-34.5T124 544q-6-39 8-69t42-48.5 65-35 76-29 76-31 64.5-39.5 41.5-56 7-80q-13-82-80.5-123T262-10l-35-85q46 11 82.5-5.5T340-157z"/><glyph glyph-name="scedilla" unicode="ş" horiz-adv-x="455" d="M280-157q-5-33-35.5-53T161-230q-57 0-101 22l4 21q41-22 95-22 92 0 99 55 5 32-34 43.5t-86-4.5l41 105Q132-8 87 5T14 39l4 23q31-22 78.5-36T190 12q68 0 116.5 25.5T363 113q7 43-24 68.5t-79.5 38T163 246t-78.5 44.5T61 371q10 60 65 89.5T252 490q95 0 157-42l-3-22q-60 42-154 42-63 0-111-25t-56-75q-7-43 24.5-69t80-38.5T286 234t78.5-44 22.5-79q-9-59-61.5-89T201-10l-35-85q46 11 82.5-5.5T280-157z"/><glyph glyph-name="Scaron" unicode="Š" horiz-adv-x="566" d="M99 547q9 56 50 94t92 53.5T349 710q112 0 192-49l-4-24q-77 51-187 49-85 0-149.5-34.5T124 544q-6-39 8-69t42-48.5 65-35 76-29 76-31 64.5-39.5 41.5-56 7-80q-9-58-48.5-97t-92-54.5T248-10Q113-10 18 48l3 24q99-58 226-58 59 0 106 13t82.5 46.5T479 158q7 47-12 81.5t-54.5 55-80 37.5l-89 34-80 38.5-54 57.5L99 547zm399 346L351 768h-20L224 893h27l92-106 124 106h31z"/><glyph glyph-name="scaron" unicode="š" horiz-adv-x="455" d="M61 371q10 60 65 89.5T252 490q95 0 157-42l-3-22q-60 42-154 42-63 0-111-25t-56-75q-7-43 24.5-69t80-38.5T286 234t78.5-44 22.5-79q-9-61-64.5-91T191-10q-49 0-98.5 13.5T14 39l4 23q31-22 78.5-36T190 12q68 0 116.5 25.5T363 113q7 43-24 68.5t-79.5 38T163 246t-78.5 44.5T61 371zm356 302L270 548h-20L143 673h27l92-106 124 106h31z"/><glyph glyph-name="Tcommaaccent" unicode="Ţ" horiz-adv-x="588" d="M77 700h563l-4-24H367L260 0h-25l107 676H73zm127-914h-22l47 166h24z"/><glyph glyph-name="tcommaaccent" unicode="ţ" horiz-adv-x="356" d="M154 637l25 9-26-166h215l-4-23H150L98 133q-10-59 16.5-90T199 12q60 0 108 25l-3-23q-42-24-109-24-65 0-98.5 37T74 132l52 325H36l3 23h90zm0-851h-22l47 166h24z"/><glyph glyph-name="Tcaron" unicode="Ť" horiz-adv-x="588" d="M77 700h563l-4-24H367L260 0h-25l107 676H73zm451 193L381 768h-20L254 893h27l92-106 124 106h31z"/><glyph glyph-name="tcaron" unicode="ť" horiz-adv-x="356" d="M307 715h23l-46-154h-20zm-153-78l25 9-26-166h215l-4-23H150L98 133q-10-59 16.5-90T199 12q60 0 108 25l-3-23q-42-24-109-24-65 0-98.5 37T74 132l52 325H36l3 23h90z"/><glyph glyph-name="Tbar" unicode="Ŧ" horiz-adv-x="601" d="M266 0h-25l55 347H156l4 22h140l48 307H79l4 24h563l-4-24H373l-48-307h140l-4-22H321z"/><glyph glyph-name="tbar" unicode="ŧ" horiz-adv-x="356" d="M369 480l-4-23H151l-24-149h167l-3-22H123L99 133q-10-59 16.5-90T200 12q60 0 108 25l-3-23q-42-24-109-24-65 0-98.5 37T75 132l24 154H42l4 22h57l24 149H37l3 23h90l25 157 25 9-26-166h215z"/><glyph glyph-name="Umacron" unicode="Ū" horiz-adv-x="749" d="M693 700h25l-73-460Q606-10 330-10q-127 0-194.5 60T89 241l72 459h25l-73-459Q77 14 329 14q256 0 292 228zM333 834h252l-3-23H330z"/><glyph glyph-name="umacron" unicode="ū" horiz-adv-x="575" d="M497 480h24L445 0h-22l17 109q-36-47-95-83T219-10q-81 0-126.5 53T61 186l47 294h24L85 186q-12-82 26-128t109-46q69 0 128 39t95 92zM208 614h252l-3-23H205z"/><glyph glyph-name="Uring" unicode="Ů" horiz-adv-x="749" d="M693 700h25l-73-460Q606-10 330-10q-127 0-194.5 60T89 241l72 459h25l-73-459Q77 14 329 14q256 0 292 228zM543 838q-6-36-33.5-58T448 758q-35 0-57.5 23.5T375 842q5 35 33.5 57.5T470 922q35 0 57.5-23.5T543 838zm-149 1q-4-27 12-44.5t41-17.5q28 0 50 17t27 46q4 27-12 45t-41 18q-27 0-49.5-17.5T394 839z"/><glyph glyph-name="uring" unicode="ů" horiz-adv-x="575" d="M497 480h24L445 0h-22l17 109q-36-47-95-83T219-10q-81 0-126.5 53T61 186l47 294h24L85 186q-12-82 26-128t109-46q69 0 128 39t95 92zm-79 138q-6-36-33.5-58T323 538q-35 0-57.5 23.5T250 622q5 35 33.5 57.5T345 702q35 0 57.5-23.5T418 618zm-149 1q-4-27 12-44.5t41-17.5q28 0 50 17t27 46q4 27-12 45t-41 18q-27 0-49.5-17.5T269 619z"/><glyph glyph-name="Uhungarumlaut" unicode="Ű" horiz-adv-x="749" d="M693 700h25l-73-460Q606-10 330-10q-127 0-194.5 60T89 241l72 459h25l-73-459Q77 14 329 14q256 0 292 228zm-156 78h-27l98 142h28zm-152 0h-27l98 142h28z"/><glyph glyph-name="uhungarumlaut" unicode="ű" horiz-adv-x="575" d="M497 480h24L445 0h-22l17 109q-36-47-95-83T219-10q-81 0-126.5 53T61 186l47 294h24L85 186q-12-82 26-128t109-46q69 0 128 39t95 92zm-85 78h-27l98 142h28zm-152 0h-27l98 142h28z"/><glyph glyph-name="Uogonek" unicode="Ų" horiz-adv-x="749" d="M621 242l72 458h25l-73-460Q626 111 538 47 390-60 377-147q-4-28 11-45t47-16q41 1 75 20l-3-25q-34-17-76-17-43 0-64 23t-15 60q12 74 111 158-49-21-133-21-127 0-194.5 60T89 241l72 459h25l-73-459Q77 14 329 14q256 0 292 228z"/><glyph glyph-name="uogonek" unicode="ų" horiz-adv-x="575" d="M521 480L445 0Q318-84 307-151q-4-27 9.5-42.5T356-209t53 9l-3-22q-27-8-54-8-36 0-55 21.5T284-151Q295-80 424 9l16 100q-36-47-95-83T219-10q-81 0-126.5 53T61 186l47 294h24L85 186q-12-82 26-128t109-46q69 0 128 39t95 92l54 337h24z"/><glyph glyph-name="Wcircumflex" unicode="Ŵ" horiz-adv-x="983" d="M996 700h26L688 0h-27L552 649 233 0h-28L92 700h25L224 34l323 658h22L679 37zM579 903h21l107-125h-27l-91 106-125-106h-30z"/><glyph glyph-name="wcircumflex" unicode="ŵ" horiz-adv-x="796" d="M774 480h26L539 0h-23l-92 440L189 0h-24L57 480h24L182 34l234 438h23l92-439zM448 683h21l107-125h-27l-91 106-125-106h-30z"/><glyph glyph-name="Ycircumflex" unicode="Ŷ" horiz-adv-x="624" d="M278 0h-25l45 284L89 700h26l198-391 322 391h30L323 284zm117 903h21l107-125h-27l-91 106-125-106h-30z"/><glyph glyph-name="ycircumflex" unicode="ŷ" horiz-adv-x="530" d="M235 25l275 455h27L193-88q-48-78-88.5-110T16-230q-25 0-49 6l3 21q20-5 44-5 44 0 81 31t78 100l47 77L47 480h25zm69 658h21l107-125h-27l-91 106-125-106h-30z"/><glyph glyph-name="Ydieresis" unicode="Ÿ" horiz-adv-x="624" d="M278 0h-25l45 284L89 700h26l198-391 322 391h30L323 284zm239 834q-4-22-25-22-10 0-16 7.5t-4 17.5q1 8 8.5 14.5T496 858q11 0 17-7t4-17zm-200 0q-4-22-25-22-10 0-16 7.5t-4 17.5q1 8 8.5 14.5T296 858q11 0 17-7t4-17z"/><glyph glyph-name="Zacute" unicode="Ź" horiz-adv-x="566" d="M492 0H-23l3 22 579 654H103l5 24h488l-3-22L13 24h483zM368 778h-27l108 133h30z"/><glyph glyph-name="zacute" unicode="ź" horiz-adv-x="439" d="M72 480h357l-4-19L18 22h349l-4-22H-18l3 19 408 439H69zm189 78h-27l108 133h30z"/><glyph glyph-name="Zdotaccent" unicode="Ż" horiz-adv-x="566" d="M492 0H-23l3 22 579 654H103l5 24h488l-3-22L13 24h483zm-88 816q-5-26-31-26-12 0-19.5 8t-5.5 21q2 11 10.5 18.5T378 845q13 0 20.5-8t5.5-21z"/><glyph glyph-name="zdotaccent" unicode="ż" horiz-adv-x="439" d="M72 480h357l-4-19L18 22h349l-4-22H-18l3 19 408 439H69zm225 116q-5-26-31-26-12 0-19.5 8t-5.5 21q2 11 10.5 18.5T271 625q13 0 20.5-8t5.5-21z"/><glyph glyph-name="Zcaron" unicode="Ž" horiz-adv-x="566" d="M492 0H-23l3 22 579 654H103l5 24h488l-3-22L13 24h483zm35 893L380 768h-20L253 893h27l92-106 124 106h31z"/><glyph glyph-name="zcaron" unicode="ž" horiz-adv-x="439" d="M72 480h357l-4-19L18 22h349l-4-22H-18l3 19 408 439H69zm348 193L273 548h-20L146 673h27l92-106 124 106h31z"/><glyph glyph-name="Scommaaccent" unicode="Ș" horiz-adv-x="566" d="M99 547q9 56 50 94t92 53.5T349 710q112 0 192-49l-4-24q-77 51-187 49-85 0-149.5-34.5T124 544q-6-39 8-69t42-48.5 65-35 76-29 76-31 64.5-39.5 41.5-56 7-80q-9-58-48.5-97t-92-54.5T248-10Q113-10 18 48l3 24q99-58 226-58 59 0 106 13t82.5 46.5T479 158q7 47-12 81.5t-54.5 55-80 37.5l-89 34-80 38.5-54 57.5L99 547zm129-761h-22l47 166h24z"/><glyph glyph-name="scommaaccent" unicode="ș" horiz-adv-x="455" d="M61 371q10 60 65 89.5T252 490q95 0 157-42l-3-22q-60 42-154 42-63 0-111-25t-56-75q-7-43 24.5-69t80-38.5T286 234t78.5-44 22.5-79q-9-61-64.5-91T191-10q-49 0-98.5 13.5T14 39l4 23q31-22 78.5-36T190 12q68 0 116.5 25.5T363 113q7 43-24 68.5t-79.5 38T163 246t-78.5 44.5T61 371zm107-585h-22l47 166h24z"/><glyph glyph-name="uni021A" unicode="Ț" horiz-adv-x="588" d="M77 700h563l-4-24H367L260 0h-25l107 676H73zm129-914h-22l47 166h24z"/><glyph glyph-name="uni021B" unicode="ț" horiz-adv-x="356" d="M154 637l25 9-26-166h215l-4-23H150L98 133q-10-59 16.5-90T199 12q60 0 108 25l-3-23q-42-24-109-24-65 0-98.5 37T74 132l52 325H36l3 23h90zm0-851h-22l47 166h24z"/><glyph glyph-name="circumflex" unicode="ˆ" horiz-adv-x="258" d="M239 903h21l107-125h-27l-91 106-125-106H94z"/><glyph glyph-name="caron" unicode="ˇ" horiz-adv-x="258" d="M387 893L240 768h-20L113 893h27l92-106 124 106h31z"/><glyph glyph-name="breve" unicode="˘" horiz-adv-x="316" d="M392 824q-56-41-127-41-79 0-121 41l4 26q45-44 117-44t131 44z"/><glyph glyph-name="dotaccent" unicode="˙" horiz-adv-x="86" d="M180 816q-5-26-31-26-12 0-19.5 8t-5.5 21q2 11 10.5 18.5T154 845q13 0 20.5-8t5.5-21z"/><glyph glyph-name="ring" unicode="˚" horiz-adv-x="200" d="M296 838q-6-36-33.5-58T201 758q-35 0-57.5 23.5T128 842q5 35 33 57.5t62 22.5q35 0 57.5-23.5T296 838zm-149 1q-4-27 12-44.5t41-17.5q28 0 50 17t27 46q4 27-12 45t-41 18q-27 0-49.5-17.5T147 839z"/><glyph glyph-name="ogonek" unicode="˛" horiz-adv-x="203" d="M118 7l24-7Q7-85-3-150q-5-27 10-43.5T53-210q38 0 78 20l-3-22q-38-19-78-19-42 0-62 22t-14 58Q-16-77 118 7z"/><glyph glyph-name="tilde" unicode="˜" horiz-adv-x="308" d="M412 861q-1-32-19-52t-48-20q-29 0-82.5 28T186 845q-22 0-35-14t-13-37h-22q0 32 19.5 52.5T183 867t82.5-28 77.5-28q45 0 47 50h22z"/><glyph glyph-name="hungarumlaut" unicode="˝" horiz-adv-x="299" d="M303 778h-27l98 142h28zm-152 0h-27l98 142h28z"/><glyph glyph-name="uni0326" unicode="̦" horiz-adv-x="85" d="M-12-214h-22L13-48h24z"/><glyph glyph-name="uni0401" unicode="Ё" horiz-adv-x="625" d="M541 834q-4-22-25-22-10 0-16 7.5t-4 17.5q1 8 8.5 14.5T520 858q11 0 17-7t4-17zm-200 0q-4-22-25-22-10 0-16 7.5t-4 17.5q1 8 8.5 14.5T320 858q11 0 17-7t4-17zM170 700h455l-4-24H191l-49-312h400l-4-24H138L88 24h436l-4-24H59z"/><glyph glyph-name="uni0410" unicode="А" horiz-adv-x="706" d="M644 0h-26l-65 215H133L-1 0h-28l433 700h30zM406 659L146 239h401L420 660q-4 7-5 17-2-5-9-18z"/><glyph glyph-name="uni0411" unicode="Б" horiz-adv-x="657" d="M147 395h195q49 0 87-4t75.5-17 60-34.5 33-58T600 196q-10-60-39-101t-74.5-60.5-93-27T283 0H59l111 700h458l-4-24H191zM88 24h199q58 0 101 6.5t84.5 24T540 108t35 91q7 44-2.5 75.5t-29 50-53.5 29-67.5 14T344 371H143z"/><glyph glyph-name="uni0412" unicode="В" horiz-adv-x="675" d="M170 700h251q105 0 163-44.5T628 523q-11-69-57-107t-113-48q31-5 56.5-16t49.5-31 35-54.5 4-80.5Q571 0 303 0H59zm408-508q8 50-8.5 85T520 327.5 456.5 349t-63.5 6H140L88 24h215q48 0 86 5.5t81 21 71 51.5 37 90zm26 333q12 78-38.5 114.5T417 676H191l-47-297h262q74 0 130 36t68 110z"/><glyph glyph-name="uni0413" unicode="Г" horiz-adv-x="580" d="M84 0H59l111 700h450l-4-24H191z"/><glyph glyph-name="uni0414" unicode="Д" horiz-adv-x="748" d="M-29-177h-24l31 201h72q87 122 148.5 304T289 700h406L588 24h86l-32-201h-24L646 0H-2zm340 853q-32-185-91.5-360T78 24h485l103 652H311z"/><glyph glyph-name="uni0415" unicode="Е" horiz-adv-x="625" d="M170 700h455l-4-24H191l-49-312h400l-4-24H138L88 24h436l-4-24H59z"/><glyph glyph-name="uni0416" unicode="Ж" horiz-adv-x="923" d="M922 700h27L681 359 868 0h-26L661 347H484L429 0h-24l54 347H286L-5 0h-30l302 359-162 341h26l156-329h177l52 329h24l-52-329h175z"/><glyph glyph-name="uni0417" unicode="З" horiz-adv-x="602" d="M533 186q-8-52-38-91.5T422 33 332.5.5 237-10Q95-10 3 33l4 24q94-43 229-43 45 0 88 9.5t82.5 29T473 108t35 83q7 45-9.5 78.5t-51 50.5-74 25-85.5 8H158l5 24h127q99 0 165.5 41.5T533 531q11 75-45.5 115T338 686q-120 0-227-45l4 24q101 45 226 45 102 0 166.5-47.5T558 529q-10-67-64.5-110T358 366q84-10 135.5-53T533 186z"/><glyph glyph-name="uni0418" unicode="И" horiz-adv-x="767" d="M727 700L616 0h-25l97 609q1 8 8 48L81 0H59l111 700h25L97 87q-4-27-7-43l614 656h23z"/><glyph glyph-name="uni0419" unicode="Й" horiz-adv-x="767" d="M727 700L616 0h-25l97 609q1 8 8 48L81 0H59l111 700h25L97 87q-4-27-7-43l614 656h23zM594 824q-56-41-127-41-79 0-121 41l4 26q45-44 117-44t131 44z"/><glyph glyph-name="uni041A" unicode="К" horiz-adv-x="652" d="M656 700h29L377 358 602 0h-28L356 347H139L84 0H59l111 700h25l-52-329h216z"/><glyph glyph-name="uni041B" unicode="Л" horiz-adv-x="732" d="M303 700h389L581 0h-25l107 676H323q-21-92-36-152.5t-36.5-140-40-130.5T167 147.5 117.5 62 62 10.5-3-10q-29 0-50 9l3 24q23-8 44-8 27 0 51.5 14T92 72t41.5 63.5 39 87.5 35 101T241 441.5 272 566t31 134z"/><glyph glyph-name="uni041C" unicode="М" horiz-adv-x="900" d="M837 700h23L749 0h-25l103 651-381-454h-18L188 653 84 0H59l111 700h20l250-474z"/><glyph glyph-name="uni041D" unicode="Н" horiz-adv-x="767" d="M702 700h25L616 0h-25l54 340H138L84 0H59l111 700h25l-53-336h507z"/><glyph glyph-name="uni041E" unicode="О" horiz-adv-x="825" d="M783 348q-11-67-44.5-130t-85-114.5T527 21 366-10 214.5 22t-101 84-49 115.5T61 352q11 66 44.5 129.5T191 596t127 82.5T478 710q86 0 151.5-32t101-84 49-115.5T783 348zm-697 1q-10-62 2-120.5t44.5-107 93-78T367 14q157 0 263.5 102T758 351q10 62-2 120.5t-44.5 107-93 78T477 686q-80 0-151-29.5t-119.5-78-79.5-108T86 349z"/><glyph glyph-name="uni041F" unicode="П" horiz-adv-x="748" d="M84 0H59l111 700h538L597 0h-25l107 676H191z"/><glyph glyph-name="uni0420" unicode="Р" horiz-adv-x="651" d="M170 700h215q61 0 109.5-10.5t87-34.5 55.5-68 7-106q-35-215-325-215H126L84 0H59zm450-215q9 54-6 92.5T564 637t-78 30-99 9H191l-61-386h193q266 0 297 195z"/><glyph glyph-name="uni0421" unicode="С" horiz-adv-x="654" d="M63 355q18 114 86 197t153.5 120.5T478 710q109 0 184-48l-4-25q-70 49-178 49-63 0-125.5-20.5t-118-60.5-96-105.5T87 351q-13-81 6-147t62-106.5 98.5-62T372 14q105 0 200 50l-4-26q-89-48-200-48-67 0-126.5 23.5T136 80.5t-66.5 115T63 355z"/><glyph glyph-name="uni0422" unicode="Т" horiz-adv-x="588" d="M77 700h563l-4-24H367L260 0h-25l107 676H73z"/><glyph glyph-name="uni0423" unicode="У" horiz-adv-x="617" d="M324 159Q260 62 206 26T92-10Q51-10 19 1l4 24q32-11 66-11 52 0 98 28.5T286 144l15 22L73 700h27l216-511 335 511h28z"/><glyph glyph-name="uni0424" unicode="Ф" horiz-adv-x="843" d="M383-35h-25l15 94q-167 2-259.5 81.5T43 357q21 136 134.5 209T465 641l15 94h25l-15-94q166-2 258.5-81T819 344q-21-136-134-209.5T397 59zM68 354q-19-126 64-198t245-74l85 536q-166-2-270-70T68 354zm418 264L402 82q165 2 269 70.5T795 347q20 125-63.5 197T486 618z"/><glyph glyph-name="uni0425" unicode="Х" horiz-adv-x="604" d="M-4 0h-32l335 361L91 700h28l197-321 299 321h31L328 357 547 0h-27L311 339z"/><glyph glyph-name="uni0426" unicode="Ц" horiz-adv-x="762" d="M655-177h-23L660 0H59l111 700h25L88 24h489l107 676h25L602 24h85z"/><glyph glyph-name="uni0427" unicode="Ч" horiz-adv-x="669" d="M518 0h-25l47 295q-120-41-236-39-124 2-184 61.5T78 491l34 209h24l-33-211q-17-105 37.5-156T309 280q109-1 235 40l60 380h25z"/><glyph glyph-name="uni0428" unicode="Ш" horiz-adv-x="1065" d="M914 0H59l111 700h25L88 24h390l107 676h25L503 24h391l106 676h25z"/><glyph glyph-name="uni0429" unicode="Щ" horiz-adv-x="1078" d="M972-177h-24L976 0H59l111 700h25L88 24h390l107 676h25L503 24h391l106 676h25L918 24h86z"/><glyph glyph-name="uni042A" unicode="Ъ" horiz-adv-x="744" d="M368 0H150l107 676H69l4 24h213l-43-266h194q60 0 107.5-10.5t86-34.5 55.5-68 7-106Q660 0 368 0zM240 410L179 24h193q267 0 296 195 17 104-48 147.5T435 410H240z"/><glyph glyph-name="uni042B" unicode="Ы" horiz-adv-x="831" d="M277 0H59l111 700h25l-42-266h193q60 0 107.5-10.5t86-34.5 55.5-68 7-106Q569 0 277 0zM149 410L88 24h193q267 0 296 195 17 104-48 147.5T344 410H149zM680 0h-25l111 700h25z"/><glyph glyph-name="uni042C" unicode="Ь" horiz-adv-x="653" d="M277 0H59l111 700h25l-42-266h193q60 0 107.5-10.5t86-34.5 55.5-68 7-106Q569 0 277 0zM149 410L88 24h193q267 0 296 195 17 104-48 147.5T344 410H149z"/><glyph glyph-name="uni042D" unicode="Э" horiz-adv-x="657" d="M108 663q91 47 202 47 63 0 121.5-23.5T536 619t68-116 8-160-54.5-157.5-98-111-123.5-63T200-10Q88-10 9 39l4 24q82-49 184-49 142 0 252 82.5T586 339l-409-1 3 24 409 1q10 78-11.5 141t-64 102-96 59.5T306 686q-112 0-202-49z"/><glyph glyph-name="uni042E" unicode="Ю" horiz-adv-x="1075" d="M1032 348q-10-67-43.5-130t-85-114T777 21.5 616-10q-84 0-148.5 30.5t-100 80.5-51 111-7.5 126H138L84 0H59l111 700h25l-54-338h172q26 139 139 243.5T728 710q86 0 151.5-32t101-84 49-115.5T1032 348zm-696 1q-10-62 2-120.5t44.5-107 93-78T617 14q157 0 263.5 102T1008 351q10 62-2 120.5t-44.5 107-93 78T727 686q-80 0-151-29.5t-119.5-78-79.5-108T336 349z"/><glyph glyph-name="uni042F" unicode="Я" horiz-adv-x="677" d="M22 0H-8l266 280q-89 15-133 68.5T96 489q16 106 98 158.5T394 700h243L526 0h-24l43 274H331q-31 0-46 2zm99 485q-15-95 44-141t165-46h219l60 378H390q-105 0-179-47.5T121 485z"/><glyph glyph-name="uni0430" unicode="а" horiz-adv-x="613" d="M481 124q-39-60-102.5-97T242-10Q138-10 81 61T42 246q18 111 96 177.5T318 490q71 0 125-39t74-98l20 127h23L484 0h-23zM65 243Q48 139 99 75.5T243 12q76 0 142 43.5T485 164l24 150q-12 65-64.5 109.5T319 468q-94 0-166-60.5T65 243z"/><glyph glyph-name="uni0431" unicode="б" horiz-adv-x="590" d="M530 219q-16-106-86-167.5T266-10Q152-10 92 71T53 284q16 100 71.5 182T253 589q63 35 126.5 53T486 672t72 38l-4-27q-28-24-70-35.5t-101-28T267 571Q135 498 83 327q40 61 106.5 97T328 460q99 0 159-69t43-172zM76 279Q58 159 111 86t155-73q99 0 162.5 56T507 222q15 91-38 153t-144 62q-77 0-146.5-42.5T76 279z"/><glyph glyph-name="uni0432" unicode="в" horiz-adv-x="541" d="M290 0H38l76 480h238q67 0 102.5-33.5T481 355q-15-90-103-111 45-8 69-38t15-83q-9-60-55-91.5T290 0zM99 233L66 22h224q60 0 100.5 26t49.5 80q8 55-22.5 80T331 233H99zm36 225l-32-203h218q58 0 93 27t43 75q7 47-22 74t-87 27H135z"/><glyph glyph-name="uni0433" unicode="г" horiz-adv-x="439" d="M62 0H38l76 480h337l-3-23H135z"/><glyph glyph-name="uni0434" unicode="д" horiz-adv-x="603" d="M-20-138h-23l25 160h62q65 103 104 207t62 251h323L461 22h68l-26-160h-23L502 0H2zm250 595q-22-137-60-236.5T70 22h367l69 435H230z"/><glyph glyph-name="uni0435" unicode="е" horiz-adv-x="540" d="M41 241q18 115 95 182t173 67q50 0 88-16.5t59.5-44T489 367t9.5-71-12.5-71H63Q49 120 111 66t156-54q89 0 164 39l-5-25q-66-36-161-36-106 0-175 64T41 241zm427 6q12 35 7 74t-20.5 71.5-53.5 54-91 21.5q-87 0-156-59T66 247h402z"/><glyph glyph-name="uni0436" unicode="ж" horiz-adv-x="706" d="M-7 0h-29l258 248L70 480h25l146-221h96l35 221h24l-35-221h95l216 221h27L473 247 651 0h-26L454 236h-96L320 0h-24l38 236h-94z"/><glyph glyph-name="uni0437" unicode="з" horiz-adv-x="471" d="M394 124q-11-69-72.5-101.5T171-10Q72-11-1 24l4 23q70-35 166-35 80 0 135.5 28t65.5 89q8 49-26 76.5T264 233H140l4 22h115q58 0 94 27t43 74q8 52-37 82t-115 30q-88 0-174-34l4 24q85 33 172 33 81-1 132-37t42-99q-7-44-36.5-73.5T306 244q41-9 68-41t20-79z"/><glyph glyph-name="uni0438" unicode="и" horiz-adv-x="584" d="M61 0H38l76 480h24L68 38l439 442h23L454 0h-24l70 442z"/><glyph glyph-name="uni0439" unicode="й" horiz-adv-x="584" d="M468 604q-56-41-127-41-79 0-121 41l4 25q45-44 116-44 73 0 132 44zM61 0H38l76 480h24L68 38l439 442h23L454 0h-24l70 442z"/><glyph glyph-name="uni043A" unicode="к" horiz-adv-x="494" d="M62 0H38l76 480h24l-35-218h133l224 218h28L252 248 440 0h-27L232 239H100z"/><glyph glyph-name="uni043B" unicode="л" horiz-adv-x="584" d="M233 457q-46-233-99-348T5-6q-24 0-43 8l3 21q14-7 37-7 68 0 118 115.5T214 480h316L454 0h-24l73 457H233z"/><glyph glyph-name="uni043C" unicode="м" horiz-adv-x="663" d="M62 0H38l76 480h24l174-308 269 308h28L533 0h-24l71 444-262-299h-17L133 444z"/><glyph glyph-name="uni043D" unicode="н" horiz-adv-x="576" d="M62 0H38l76 480h24l-36-229h360l36 229h24L446 0h-24l36 229H98z"/><glyph glyph-name="uni043E" unicode="о" horiz-adv-x="592" d="M535 234Q517 120 434.5 55T250-10q-99 0-163 70.5T41 246q18 114 101 179t185 65q99 0 163-70.5T535 234zm-470 8Q48 139 104.5 76T250 13q95 0 170 60t91 165q17 103-39.5 166T326 467q-95 0-170-60T65 242z"/><glyph glyph-name="uni043F" unicode="п" horiz-adv-x="576" d="M62 0H38l76 480h408L446 0h-24l72 457H135z"/><glyph glyph-name="uni0440" unicode="р" horiz-adv-x="613" d="M116 353q40 61 104 99t136 38q101 0 159.5-71T556 234q-18-112-95-178T280-10q-74 0-126 38.5T82 129L27-220H3l111 700h22zm416-116q17 103-35.5 167T353 468q-74 0-141-44.5T111 312L88 167q13-67 64-111t126-44q96 0 166.5 60T532 237z"/><glyph glyph-name="uni0441" unicode="с" horiz-adv-x="497" d="M41 242q10 63 40.5 112.5t73.5 78 89 43 93 14.5q85 0 137-40l-4-23q-49 41-132 41-94 0-174-58T65 239Q47 131 104.5 71.5T257 12q86 0 158 40l-3-25q-70-37-158-37-104 0-167.5 65T41 242z"/><glyph glyph-name="uni0442" unicode="т" horiz-adv-x="449" d="M190 0h-24l72 457H39l3 23h423l-3-23H262z"/><glyph glyph-name="uni0443" unicode="у" horiz-adv-x="530" d="M235 25l275 455h27L193-88q-48-78-88.5-110T16-230q-25 0-49 6l3 21q20-5 44-5 44 0 81 31t78 100l47 77L47 480h25z"/><glyph glyph-name="uni0444" unicode="ф" horiz-adv-x="696" d="M279-220h-24l33 210Q165-8 93.5 60.5T40 246q18 115 109 178.5T368 490l33 210h24l-33-210q123-2 195-70.5T640 234Q622 119 531 55.5T312-10zM63 243Q46 137 110 75.5T291 12l72 456q-118-2-200.5-60T63 243zm324 225L315 12q118 2 201 60t100 165q17 106-47.5 167.5T387 468z"/><glyph glyph-name="uni0445" unicode="х" horiz-adv-x="482" d="M1 0h-30l249 247L59 480h28l149-216 220 216h30L249 246 419 0h-27L233 229z"/><glyph glyph-name="uni0446" unicode="ц" horiz-adv-x="589" d="M490-138h-24L488 0H38l76 480h24L66 23h357l72 457h24L447 23h68z"/><glyph glyph-name="uni0447" unicode="ч" horiz-adv-x="513" d="M383 0h-24l29 185q-81-32-171-32-88 0-135 43.5T49 325l24 155h24L73 325q-12-76 28.5-112.5T222 176q87 0 170 32l43 272h24z"/><glyph glyph-name="uni0448" unicode="ш" horiz-adv-x="806" d="M676 0H38l76 480h24L66 23h283l72 457h24L373 23h283l72 457h24z"/><glyph glyph-name="uni0449" unicode="щ" horiz-adv-x="822" d="M723-138h-24L721 0H38l76 480h24L66 23h283l72 457h24L373 23h283l72 457h24L680 23h68z"/><glyph glyph-name="uni044A" unicode="ъ" horiz-adv-x="570" d="M312 0H103l73 458H38l3 22h162l-29-184h186q78 0 121-42.5T513 146q-10-64-64.5-105T312 0zM171 274L131 22h182q73 0 120.5 35.5T489 150q9 55-27.5 89.5T355 274H171z"/><glyph glyph-name="uni044B" unicode="ы" horiz-adv-x="677" d="M246 0H38l76 480h24l-29-184h185q78 0 121.5-42T448 146q-10-64-64.5-105T246 0zM106 274L66 22h182q73 0 120.5 35.5T424 150q9 55-27.5 89.5T290 274H106zM547 0h-24l76 480h24z"/><glyph glyph-name="uni044C" unicode="ь" horiz-adv-x="505" d="M246 0H38l76 480h24l-29-184h185q78 0 121.5-42T448 146q-10-64-64.5-105T246 0zM106 274L66 22h182q73 0 120.5 35.5T424 150q9 55-27.5 89.5T290 274H106z"/><glyph glyph-name="uni044D" unicode="э" horiz-adv-x="503" d="M446 233q-20-123-99.5-183T165-10Q74-10 5 33l4 23q68-44 152-44 96 0 169 53.5T421 229H130l4 22 290 1q6 54-9 97t-45 68-67.5 38-78.5 13q-85 0-157-44l4 23q71 43 155 43 101 0 170-66.5T446 233z"/><glyph glyph-name="uni044E" unicode="ю" horiz-adv-x="799" d="M742 234Q724 120 641.5 55T457-10q-95 0-159 65.5T245 229H98L62 1H38l76 480h24l-36-229h147q19 107 100 172.5T533 490q99 0 163-70.5T742 234zm-470 8q-17-103 39.5-166T457 13q95 0 170 60t91 165q17 103-39.5 166T533 467q-95 0-170-60t-91-165z"/><glyph glyph-name="uni044F" unicode="я" horiz-adv-x="537" d="M21 0H-8l180 197q-59 11-88 48.5T64 338q10 63 64 102.5T263 480h220L407 0h-24l30 192H225q-19 0-28 1zm67 334q-9-54 27.5-87T224 214h193l39 244H264q-72 0-120-34t-56-90z"/><glyph glyph-name="uni0451" unicode="ё" horiz-adv-x="540" d="M456 614q-4-22-25-22-10 0-16 7.5t-4 17.5q1 8 8.5 14.5T435 638q11 0 17-7t4-17zm-200 0q-4-22-25-22-10 0-16 7.5t-4 17.5q1 8 8.5 14.5T235 638q11 0 17-7t4-17zM41 241q18 115 95 182t173 67q50 0 88-16.5t59.5-44T489 367t9.5-71-12.5-71H63Q49 120 111 66t156-54q89 0 164 39l-5-25q-66-36-161-36-106 0-175 64T41 241zm427 6q12 35 7 74t-20.5 71.5-53.5 54-91 21.5q-87 0-156-59T66 247h402z"/><glyph glyph-name="Wgrave" unicode="Ẁ" horiz-adv-x="983" d="M996 700h26L688 0h-27L552 649 233 0h-28L92 700h25L224 34l323 658h22L679 37zm-397 78h-26l-70 133h28z"/><glyph glyph-name="wgrave" unicode="ẁ" horiz-adv-x="796" d="M774 480h26L539 0h-23l-92 440L189 0h-24L57 480h24L182 34l234 438h23l92-439zm-306 78h-26l-70 133h28z"/><glyph glyph-name="Wacute" unicode="Ẃ" horiz-adv-x="983" d="M996 700h26L688 0h-27L552 649 233 0h-28L92 700h25L224 34l323 658h22L679 37zm-429 78h-27l108 133h30z"/><glyph glyph-name="wacute" unicode="ẃ" horiz-adv-x="796" d="M774 480h26L539 0h-23l-92 440L189 0h-24L57 480h24L182 34l234 438h23l92-439zm-338 78h-27l108 133h30z"/><glyph glyph-name="Wdieresis" unicode="Ẅ" horiz-adv-x="983" d="M996 700h26L688 0h-27L552 649 233 0h-28L92 700h25L224 34l323 658h22L679 37zM701 834q-4-22-25-22-10 0-16 7.5t-4 17.5q1 8 8.5 14.5T680 858q11 0 17-7t4-17zm-200 0q-4-22-25-22-10 0-16 7.5t-4 17.5q1 8 8.5 14.5T480 858q11 0 17-7t4-17z"/><glyph glyph-name="wdieresis" unicode="ẅ" horiz-adv-x="796" d="M774 480h26L539 0h-23l-92 440L189 0h-24L57 480h24L182 34l234 438h23l92-439zM570 614q-4-22-25-22-10 0-16 7.5t-4 17.5q1 8 8.5 14.5T549 638q11 0 17-7t4-17zm-200 0q-4-22-25-22-10 0-16 7.5t-4 17.5q1 8 8.5 14.5T349 638q11 0 17-7t4-17z"/><glyph glyph-name="Ygrave" unicode="Ỳ" horiz-adv-x="624" d="M278 0h-25l45 284L89 700h26l198-391 322 391h30L323 284zm137 778h-26l-70 133h28z"/><glyph glyph-name="ygrave" unicode="ỳ" horiz-adv-x="530" d="M235 25l275 455h27L193-88q-48-78-88.5-110T16-230q-25 0-49 6l3 21q20-5 44-5 44 0 81 31t78 100l47 77L47 480h25zm89 533h-26l-70 133h28z"/><glyph glyph-name="endash" unicode="–" horiz-adv-x="569" d="M488 231H63l3 23h425z"/><glyph glyph-name="emdash" unicode="—" horiz-adv-x="751" d="M670 231H63l3 23h607z"/><glyph glyph-name="quoteleft" unicode="‘" horiz-adv-x="184" d="M115 486H90l88 214h21z"/><glyph glyph-name="quoteright" unicode="’" horiz-adv-x="183" d="M111 486H90l84 214h25z"/><glyph glyph-name="quotesinglbase" unicode="‚" horiz-adv-x="167" d="M-11-142h-21L52 72h25z"/><glyph glyph-name="quotedblleft" unicode="“" horiz-adv-x="308" d="M239 486h-25l88 214h21zm-124 0H90l88 214h21z"/><glyph glyph-name="quotedblright" unicode="”" horiz-adv-x="307" d="M235 486h-21l84 214h25zm-124 0H90l84 214h25z"/><glyph glyph-name="quotedblbase" unicode="„" horiz-adv-x="291" d="M113-142H92l84 214h25zm-124 0h-21L52 72h25z"/><glyph glyph-name="dagger" unicode="†" horiz-adv-x="483" d="M173-220h-25l108 676H63l3 24h193l35 220h25l-35-220h192l-3-24H280z"/><glyph glyph-name="daggerdbl" unicode="‡" horiz-adv-x="512" d="M187-220h-25l54 339H24l3 24h193l50 313H78l3 24h192l35 220h25l-35-220h192l-3-24H295l-50-313h192l-3-24H241z"/><glyph glyph-name="bullet" unicode="•" horiz-adv-x="283" d="M110 352q2 17 15 27.5t29 10.5q18 0 28.5-11.5T190 348q-3-17-16-27.5T145 310q-18 0-28 11.5t-7 30.5z"/><glyph glyph-name="ellipsis" unicode="…" horiz-adv-x="433" d="M334 15q-4-21-24-21-10 0-16 7t-4 17q1 9 8 14.5t16 5.5q23 0 20-23zM68 15Q64-6 44-6 34-6 28 1t-4 17q1 9 8 14.5T48 38q23 0 20-23zm133 0q-1-9-8.5-15T177-6q-10 0-16 7t-4 17q1 9 8 14.5t16 5.5q23 0 20-23z"/><glyph glyph-name="perthousand" unicode="‰" horiz-adv-x="1239" d="M189-60h-26l539 820h26zm186 623q-10-67-58-103t-109-36q-59 0-98.5 39.5T81 571q11 67 59 103t109 36q60 0 98.5-39.5T375 563zm-272 6q-9-56 22.5-89.5T208 446q53 0 94.5 31t50.5 88q9 55-22.5 89T249 688q-55 0-96-31t-50-88zm708-440q-11-67-59-103T644-10t-99.5 39.5T516 137q11 67 59 103t109 36q59 0 98.5-39.5T811 129zm-271 6q-9-56 22-89.5T644 12q53 0 94.5 31t50.5 88q9 55-22.5 89T685 254q-55 0-95.5-31T540 135zm638-6q-11-67-59-103t-108-36-99.5 39.5T883 137q11 67 59 103t109 36q59 0 98.5-39.5T1178 129zm-272 6q-9-56 22-89.5t82-33.5q53 0 94.5 31t50.5 88q9 55-22.5 89t-81.5 34q-55 0-95.5-31T906 135z"/><glyph glyph-name="guilsinglleft" unicode="‹" horiz-adv-x="266" d="M162 69h-25L44 236l1 9 144 166h28L68 239z"/><glyph glyph-name="guilsinglright" unicode="›" horiz-adv-x="266" d="M61 69H33l149 172-94 170h26l92-167-1-9z"/><glyph glyph-name="fraction" unicode="⁄" horiz-adv-x="162" d="M-188-11h-18l570 721h18z"/><glyph glyph-name="Euro" unicode="€" horiz-adv-x="736" d="M712 617q-76 49-183 49-69 0-137-24.5t-128-81T175 424h403l-4-22H168q-5-17-11-49-6-42-5-75h403l-4-22H154q11-113 89.5-177.5T432 14q121 0 202 49l-4-25q-79-48-200-48-120 0-205 71t-97 195H41l4 22h82q-1 34 5 77 6 32 10 47H64l4 22h81q43 128 153 197t226 69q111 0 188-49z"/><glyph glyph-name="trademark" unicode="™" horiz-adv-x="650" d="M342 449h-18l40 251h20l87-159 139 159h20l-40-251h-17l36 225-135-152h-11l-85 152zm-165 0h-18l37 234h-93l3 17h204l-3-17h-93z"/><glyph glyph-name="oneeighth" unicode="⅛" horiz-adv-x="917" d="M577 317q7 40 48 68.5T736 414q67 0 101-33t28-77q-11-71-85-109 77-35 67-98-8-43-51.5-73T673-6q-78 0-114.5 34.5T530 114q13 74 98 114-59 29-51 89zm130-118q-47 14-58 19-85-35-96-105-7-44 23-71t98-27 106.5 24.5T825 100q3 18-3 32.5T807.5 156t-29 18-32.5 13-39 12zm136 105q6 36-21.5 62.5T735 393q-60 0-95-22.5T599 314q-4-28 14-48t32.5-26.5T697 222q5-2 8-3 9-2 27.5-7.5T760 204q73 35 83 100zM171-11h-18l570 721h18zm51 691h16l-61-387h79l-4-21H49l4 21h102l58 363-99-35 3 21z"/><glyph glyph-name="threeeighths" unicode="⅜" horiz-adv-x="970" d="M629 317q7 40 48 68.5T788 414q67 0 101-33t28-77q-11-71-85-109 77-35 67-98-8-43-51.5-73T725-6q-78 0-114.5 34.5T582 114q13 74 98 114-59 29-51 89zm130-118q-47 14-58 19-85-35-96-105-7-44 23-71t98-27 106.5 24.5T877 100q3 18-3 32.5T859.5 156t-29 18-32.5 13-39 12zm136 105q6 36-21.5 62.5T787 393q-60 0-95-22.5T651 314q-4-28 14-48t32.5-26.5T749 222q5-2 8-3 9-2 27.5-7.5T812 204q73 35 83 100zM233-11h-18l570 721h18zm134 591q-6-32-30.5-58T272 487q40-6 63.5-32.5T352 382q-8-53-52.5-82.5T188 270q-76 0-131 26l4 22q52-27 126-27 61 0 99 24.5t45 71.5q7 45-22.5 67T226 476h-60l3 21h57q52 0 83 25t36 61q6 37-21 61.5T248 669q-66 0-129-27l4 23q59 25 128 25 57 0 90-32t26-78z"/><glyph glyph-name="fiveeighths" unicode="⅝" horiz-adv-x="961" d="M620 317q7 40 48 68.5T779 414q67 0 101-33t28-77q-11-71-85-109 77-35 67-98-8-43-51.5-73T716-6q-78 0-114.5 34.5T573 114q13 74 98 114-59 29-51 89zm130-118q-47 14-58 19-85-35-96-105-7-44 23-71t98-27q67 0 106 24.5t45 60.5q3 18-3 32.5T850.5 156t-29 18-32.5 13-39 12zm136 105q6 36-21.5 62.5T778 393q-60 0-95-22.5T642 314q-4-28 14-48t32.5-26.5T740 222q5-2 8-3 9-2 27.5-7.5T803 204q73 35 83 100zM224-11h-18l570 721h18zm-84 691h234l-3-21H157l-36-163q48 14 95 14 62 0 101.5-31t30.5-93q-9-54-54.5-87T182 266q-76 0-127 27l4 21q51-27 122-27 59 0 98.5 27.5T326 390q8 51-26 75t-91 24q-58 0-115-19z"/><glyph glyph-name="seveneighths" unicode="⅞" horiz-adv-x="855" d="M114-11H96l570 721h18zm397 328q7 40 48 68.5T670 414q67 0 101-33t28-77q-11-71-85-109 77-35 67-98-8-43-51.5-73T607-6q-78 0-114.5 34.5T464 114q13 74 98 114-59 29-51 89zm130-118q-47 14-58 19-85-35-96-105-7-44 23-71t98-27 106.5 24.5T759 100q3 18-3 32.5T741.5 156t-29 18-32.5 13-39 12zm136 105q6 36-21.5 62.5T669 393q-60 0-95-22.5T533 314q-4-28 14-48t32.5-26.5T631 222q5-2 8-3 9-2 27.5-7.5T694 204q73 35 83 100zm-644-32h-25l232 387H96l4 21h269l-4-19z"/><glyph glyph-name="partialdiff" unicode="∂" horiz-adv-x="594" d="M532 264q-20-125-98.5-199.5T244-10Q138-10 79.5 54.5T38 226q15 97 93 160t173 63q84 0 143.5-49T508 260q4 16 4 26 24 188-77.5 290.5T161 677l4 23q88 0 161.5-28t126-80.5 74.5-137 5-190.5zM61 222Q46 127 97 70t147-57q87 0 152.5 50.5T492 202q15 107-41.5 165.5T306 426q-89 0-160-57T61 222z"/><glyph glyph-name="emptyset" unicode="∅" horiz-adv-x="823" d="M781 347q-11-67-45.5-131T648 101.5t-127-81T365-10q-137 0-219 79L76 0H55l81 80q-49 51-68 123.5T61 353q11 67 45.5 131T194 598.5t127 81T477 710q137 0 219-79l70 69h21l-80-80q49-52 68-124.5t6-148.5zm-703 2q-12-72 6-140.5T148 91l537 529q-81 74-207 74-157 0-268-104.5T78 349zm80-268Q238 6 365 6q157 0 268 104.5T765 351q11 73-6.5 141T695 609z"/><glyph glyph-name="product" unicode="∏" horiz-adv-x="724" d="M85-220H60l142 896H99l4 24h648l-4-24H644L502-220h-25l142 896H227z"/><glyph glyph-name="summation" unicode="∑" horiz-adv-x="562" d="M462 0H-5l2 16 345 335-238 333 2 16h462l-4-24H140l229-322-1-10L40 24h426z"/><glyph glyph-name="minus" unicode="−" horiz-adv-x="518" d="M447 337H83l3 24h365z"/><glyph glyph-name="radical" unicode="√" horiz-adv-x="718" d="M295 0h-24L151 456H57l3 24h108L287 29l471 751h28z"/><glyph glyph-name="infinity" unicode="∞" horiz-adv-x="823" d="M424 378q29 36 47 56t46 44.5 57.5 35.5 63.5 11q67 0 108-46t29-123q-12-75-64.5-120T591 191q-103 0-173 147-55-72-102.5-109.5T203 191q-67 0-106.5 46T69 360q12 75 64.5 120T253 525q59 0 99-40t72-107zm-16-19q-31 67-65.5 105T256 502q-60 0-106.5-39T92 357q-10-65 24-104t92-39 102 36.5T408 359zm343 1q10 65-23.5 103.5T636 502t-102.5-36.5T435 357q30-66 65.5-104.5T588 214q60 0 106.5 39.5T751 360z"/><glyph glyph-name="integral" unicode="∫" horiz-adv-x="396" d="M246 667q10 64 53 93.5t93 29.5q42 0 66-13l-3-23q-28 13-61 13-45 0-80-25t-45-82L147-107q-10-64-51.5-93.5T1-230q-38 0-66 13l3 23q28-13 60-13 111 0 126 107z"/><glyph glyph-name="approxequal" unicode="≈" horiz-adv-x="577" d="M529 467q-4-37-29.5-60T435 384q-38 0-124.5 35T189 454q-30 0-49-17t-23-43H94q5 37 30 60t64 23 125-35 121-35q30 0 49 16.5t23 43.5h23zm-22-143q-5-37-30-60t-64-23q-38 0-124.5 35T167 311q-30 0-49-16.5T95 251H72q5 38 30 60.5t64 22.5 125-35 121-35q30 0 49 16.5t23 43.5h23z"/><glyph glyph-name="notequal" unicode="≠" horiz-adv-x="544" d="M129 146h-24l81 102H69l3 23h132l126 158H97l4 23h247l81 102h24l-81-102h118l-4-23H354L228 271h233l-3-23H210z"/><glyph glyph-name="lessequal" unicode="≤" horiz-adv-x="524" d="M427 205l-4-24L93 343l4 25 381 161-3-26-355-148zM394 0H38l4 23h356z"/><glyph glyph-name="greaterequal" unicode="≥" horiz-adv-x="517" d="M453 342L71 181l4 25 355 149-308 149 4 25 331-162zM398 0H42l4 23h356z"/><glyph glyph-name="lozenge" unicode="◊" horiz-adv-x="541" d="M238 0h-27L50 350l271 350h28l161-350zM77 348L227 23l256 329-150 324z"/><glyph glyph-name="i.loclTRK" horiz-adv-x="200" d="M66 0H42l76 480h24zm109 596q-5-26-31-26-12 0-19.5 8t-5.5 21q2 11 10.5 18.5T149 625q13 0 20.5-8t5.5-21z"/><glyph glyph-name="a.ss01" horiz-adv-x="534" d="M407 69q-8-48 42-48 22 0 40 7l-4-22q-21-7-41-7-31 0-49 17t-12 53l5 33q-38-52-100-82T165-10Q93-10 49 27.5T12 133q8 76 73.5 110.5T237 278q87 0 174-30l9 54q12 78-27.5 122T262 468q-76 0-164-30l3 24q84 28 163 28 101 0 147-51t32-141zM167 11q63 0 126.5 33T394 137l14 90q-84 29-168 29-50 0-92-10.5t-75-40T36 130q-5-56 32-87.5T167 11z"/><glyph glyph-name="aacute.ss01" horiz-adv-x="535" d="M408 69q-8-48 42-48 22 0 40 7l-4-22q-21-7-41-7-31 0-49 17t-12 53l5 33q-38-52-100-82T166-10Q94-10 50 27.5T13 133q8 76 73.5 110.5T238 278q87 0 174-30l9 54q12 78-27.5 122T263 468q-76 0-164-30l3 24q84 28 163 28 101 0 147-51t32-141zM168 11q63 0 126.5 33T395 137l14 90q-84 29-168 29-50 0-92-10.5t-75-40T37 130q-5-56 32-87.5T168 11zm112 547h-27l108 133h30z"/><glyph glyph-name="abreve.ss01" horiz-adv-x="535" d="M408 69q-8-48 42-48 22 0 40 7l-4-22q-21-7-41-7-31 0-49 17t-12 53l5 33q-38-52-100-82T166-10Q94-10 50 27.5T13 133q8 76 73.5 110.5T238 278q87 0 174-30l9 54q12 78-27.5 122T263 468q-76 0-164-30l3 24q84 28 163 28 101 0 147-51t32-141zM168 11q63 0 126.5 33T395 137l14 90q-84 29-168 29-50 0-92-10.5t-75-40T37 130q-5-56 32-87.5T168 11zm244 593q-56-41-127-41-79 0-121 41l4 26q45-44 117-44t131 44z"/><glyph glyph-name="acircumflex.ss01" horiz-adv-x="535" d="M408 69q-8-48 42-48 22 0 40 7l-4-22q-21-7-41-7-31 0-49 17t-12 53l5 33q-38-52-100-82T166-10Q94-10 50 27.5T13 133q8 76 73.5 110.5T238 278q87 0 174-30l9 54q12 78-27.5 122T263 468q-76 0-164-30l3 24q84 28 163 28 101 0 147-51t32-141zM168 11q63 0 126.5 33T395 137l14 90q-84 29-168 29-50 0-92-10.5t-75-40T37 130q-5-56 32-87.5T168 11zm124 672h21l107-125h-27l-91 106-125-106h-30z"/><glyph glyph-name="adieresis.ss01" horiz-adv-x="535" d="M408 69q-8-48 42-48 22 0 40 7l-4-22q-21-7-41-7-31 0-49 17t-12 53l5 33q-38-52-100-82T166-10Q94-10 50 27.5T13 133q8 76 73.5 110.5T238 278q87 0 174-30l9 54q12 78-27.5 122T263 468q-76 0-164-30l3 24q84 28 163 28 101 0 147-51t32-141zM168 11q63 0 126.5 33T395 137l14 90q-84 29-168 29-50 0-92-10.5t-75-40T37 130q-5-56 32-87.5T168 11zm246 603q-4-22-25-22-10 0-16 7.5t-4 17.5q1 8 8.5 14.5T393 638q11 0 17-7t4-17zm-200 0q-4-22-25-22-10 0-16 7.5t-4 17.5q1 8 8.5 14.5T193 638q11 0 17-7t4-17z"/><glyph glyph-name="agrave.ss01" horiz-adv-x="535" d="M408 69q-8-48 42-48 22 0 40 7l-4-22q-21-7-41-7-31 0-49 17t-12 53l5 33q-38-52-100-82T166-10Q94-10 50 27.5T13 133q8 76 73.5 110.5T238 278q87 0 174-30l9 54q12 78-27.5 122T263 468q-76 0-164-30l3 24q84 28 163 28 101 0 147-51t32-141zM168 11q63 0 126.5 33T395 137l14 90q-84 29-168 29-50 0-92-10.5t-75-40T37 130q-5-56 32-87.5T168 11zm144 547h-26l-70 133h28z"/><glyph glyph-name="amacron.ss01" horiz-adv-x="535" d="M408 69q-8-48 42-48 22 0 40 7l-4-22q-21-7-41-7-31 0-49 17t-12 53l5 33q-38-52-100-82T166-10Q94-10 50 27.5T13 133q8 76 73.5 110.5T238 278q87 0 174-30l9 54q12 78-27.5 122T263 468q-76 0-164-30l3 24q84 28 163 28 101 0 147-51t32-141zM168 11q63 0 126.5 33T395 137l14 90q-84 29-168 29-50 0-92-10.5t-75-40T37 130q-5-56 32-87.5T168 11zm0 603h252l-3-23H165z"/><glyph glyph-name="aogonek.ss01" horiz-adv-x="535" d="M490 28l-4-22Q352-82 341-150q-4-27 9.5-43t39.5-16q23 0 53 10l-3-22q-31-9-54-9-36 0-55 22t-13 58Q329-82 444-1q-30 0-48 17t-12 53l5 33q-38-52-100-82T166-10Q94-10 50 27.5T13 133q8 76 73.5 110.5T238 278q87 0 174-30l9 54q12 78-27.5 122T263 468q-76 0-164-30l3 24q84 28 163 28 101 0 147-51t32-141L408 69q-8-48 42-48 22 0 40 7zM168 11q63 0 126.5 33T395 137l14 90q-84 29-168 29-50 0-92-10.5t-75-40T37 130q-5-56 32-87.5T168 11z"/><glyph glyph-name="aring.ss01" horiz-adv-x="535" d="M408 69q-8-48 42-48 22 0 40 7l-4-22q-21-7-41-7-31 0-49 17t-12 53l5 33q-38-52-100-82T166-10Q94-10 50 27.5T13 133q8 76 73.5 110.5T238 278q87 0 174-30l9 54q12 78-27.5 122T263 468q-76 0-164-30l3 24q84 28 163 28 101 0 147-51t32-141zM168 11q63 0 126.5 33T395 137l14 90q-84 29-168 29-50 0-92-10.5t-75-40T37 130q-5-56 32-87.5T168 11zm210 607q-6-36-33.5-58T283 538q-35 0-57.5 23.5T210 622q5 35 33.5 57.5T305 702q35 0 57.5-23.5T378 618zm-149 1q-4-27 12-44.5t41-17.5q28 0 50 17t27 46q4 27-12 45t-41 18q-27 0-49.5-17.5T229 619z"/><glyph glyph-name="atilde.ss01" horiz-adv-x="535" d="M408 69q-8-48 42-48 22 0 40 7l-4-22q-21-7-41-7-31 0-49 17t-12 53l5 33q-38-52-100-82T166-10Q94-10 50 27.5T13 133q8 76 73.5 110.5T238 278q87 0 174-30l9 54q12 78-27.5 122T263 468q-76 0-164-30l3 24q84 28 163 28 101 0 147-51t32-141zM168 11q63 0 126.5 33T395 137l14 90q-84 29-168 29-50 0-92-10.5t-75-40T37 130q-5-56 32-87.5T168 11zm269 630q-1-32-19-52t-48-20q-28 0-82 28t-77 28q-22 0-35-14t-13-37h-22q0 32 19.5 52.5T208 647t82.5-28 77.5-28q45 0 47 50h22z"/><glyph glyph-name="ae.ss01" horiz-adv-x="899" d="M423 114Q314-10 168-10q-68 0-116 40.5T14 138q6 39 27.5 67.5t54.5 44 68.5 22T241 278q88 0 173-31l9 55q12 75-27 120.5T274 468q-86 0-174-30l4 24q82 28 172 28 82 0 127-43t42-116q31 76 93 117.5T678 490q56 0 96.5-24.5t58-63.5 21.5-86.5-13-94.5H434q-6-54 8-96t43.5-65.5 66-35.5T630 12q90 0 156 38l-5-26q-65-34-154-34-69 0-124.5 30.5T423 114zM38 135q-8-55 33.5-89.5T170 11q137 0 245 123-10 39-4 93-84 29-167 29-189 0-206-121zm637 333q-90 0-154.5-58.5T437 243h386q23 86-15 155.5T675 468z"/><glyph glyph-name="y.ss01" horiz-adv-x="575" d="M444-9q-18-114-92-167.5T179-230q-102 0-158 36l4 24q57-38 152-38 92 0 159.5 48.5T420-7l18 116q-37-48-93.5-83.5T219-10q-82 0-127 53T61 185l47 295h24L85 186q-12-83 25.5-128.5T221 12q68 0 127.5 39t95.5 92l53 337h24z"/><glyph glyph-name="yacute.ss01" horiz-adv-x="575" d="M444-9q-18-114-92-167.5T179-230q-102 0-158 36l4 24q57-38 152-38 92 0 159.5 48.5T420-7l18 116q-37-48-93.5-83.5T219-10q-82 0-127 53T61 185l47 295h24L85 186q-12-83 25.5-128.5T221 12q68 0 127.5 39t95.5 92l53 337h24zM322 558h-27l108 133h30z"/><glyph glyph-name="ycircumflex.ss01" horiz-adv-x="575" d="M444-9q-18-114-92-167.5T179-230q-102 0-158 36l4 24q57-38 152-38 92 0 159.5 48.5T420-7l18 116q-37-48-93.5-83.5T219-10q-82 0-127 53T61 185l47 295h24L85 186q-12-83 25.5-128.5T221 12q68 0 127.5 39t95.5 92l53 337h24zM334 683h21l107-125h-27l-91 106-125-106h-30z"/><glyph glyph-name="ydieresis.ss01" horiz-adv-x="575" d="M444-9q-18-114-92-167.5T179-230q-102 0-158 36l4 24q57-38 152-38 92 0 159.5 48.5T420-7l18 116q-37-48-93.5-83.5T219-10q-82 0-127 53T61 185l47 295h24L85 186q-12-83 25.5-128.5T221 12q68 0 127.5 39t95.5 92l53 337h24zm12 623q-4-22-25-22-10 0-16 7.5t-4 17.5q1 8 8.5 14.5T435 638q11 0 17-7t4-17zm-200 0q-4-22-25-22-10 0-16 7.5t-4 17.5q1 8 8.5 14.5T235 638q11 0 17-7t4-17z"/><glyph glyph-name="ygrave.ss01" horiz-adv-x="575" d="M444-9q-18-114-92-167.5T179-230q-102 0-158 36l4 24q57-38 152-38 92 0 159.5 48.5T420-7l18 116q-37-48-93.5-83.5T219-10q-82 0-127 53T61 185l47 295h24L85 186q-12-83 25.5-128.5T221 12q68 0 127.5 39t95.5 92l53 337h24zm-90 567h-26l-70 133h28z"/><glyph glyph-name="f_b" horiz-adv-x="954" d="M460 356q38 59 102 96.5T697 490q99 0 158.5-71.5T897 234q-18-112-94.5-178T621-10q-74 0-126 38.5T423 130L401 0h-22l102 648q-63 40-144 40-66 0-109.5-35T174 555l-13-75h195l-3-23H158L85 0H61l73 457H52l3 23h82l13 76q11 75 63 114.5T336 710q82 0 149-39l4 25 26 8zM619 12q98 0 168 60t86 165q17 102-36.5 166.5T695 468q-76 0-142-44.5T452 312l-23-145q13-67 64-111t126-44z"/><glyph glyph-name="f_f_b" horiz-adv-x="1264" d="M770 356q38 59 102 96.5t135 37.5q99 0 158.5-71.5T1207 234q-18-112-94.5-178T931-10q-74 0-126 38.5T733 130L711 0h-22l103 649q-62 41-145 41-64 0-108.5-35.5T484 555l-13-75h195l-3-23H468L395 0h-24l73 457H158L85 0H61l73 457H52l3 23h82l10 58q11 75 65 114.5T340 692q82 0 152-53 54 73 153 73 85 0 151-40l4 26 25 8zM447 480l13 76q4 33 21 64-65 50-139 50-70 0-115.5-35T171 537l-10-57h286zM929 12q98 0 168 60t86 165q17 102-36.5 166.5T1005 468q-76 0-142-44.5T762 312l-23-145q13-67 64-111t126-44z"/><glyph glyph-name="f_f_h" horiz-adv-x="1225" d="M772 373q40 47 97 82t124 35q80 0 125-53t31-142L1102 0h-24l47 294q13 82-26 128t-110 46q-67 0-126.5-39T766 338L713 0h-24l103 649q-62 41-145 41-64 0-108.5-35.5T484 555l-13-75h195l-3-23H468L395 0h-24l73 457H158L85 0H61l73 457H52l3 23h82l10 58q11 75 65 114.5T340 692q82 0 152-53 54 73 153 73 85 0 151-40l4 26 25 8zM447 480l13 76q4 33 21 64-65 50-139 50-70 0-115.5-35T171 537l-10-57h286z"/><glyph glyph-name="f_f_j" horiz-adv-x="836" d="M684-117q-17-113-132-113-40 0-69 12l3 22q28-12 62-12 97 0 113 95l90 570H468L395 0h-24l73 457H158L85 0H61l73 457H52l3 23h82l10 58q11 75 64.5 114.5T340 692q82 0 152-53 53 73 154 73 82 0 150-45l-4-24q-64 47-144 47-65 0-109.5-35.5T484 555l-13-75h308zM171 537l-10-57h286l13 76q4 33 21 65-65 49-139 49-70 0-115.5-35T171 537z"/><glyph glyph-name="f_f_k" horiz-adv-x="1140" d="M1110 480h29L902 247 1090 0h-28L881 239H751L713 0h-24l103 649q-62 41-145 41-64 0-108.5-35.5T484 555l-13-75h195l-3-23H468L395 0h-24l73 457H158L85 0H61l73 457H52l3 23h82l10 58q11 75 65 114.5T340 692q82 0 152-53 54 73 153 73 85 0 151-40l4 26 25 8-70-444h132zm-663 0l13 76q4 33 21 64-65 50-139 50-70 0-115.5-35T171 537l-10-57h286z"/><glyph glyph-name="f_h" horiz-adv-x="915" d="M462 373q40 47 97 82t124 35q80 0 125-53t31-142L792 0h-24l47 294q13 82-26 128t-110 46q-67 0-126.5-39T456 338L403 0h-24l102 648q-63 40-144 40-66 0-109.5-35T174 555l-13-75h195l-3-23H158L85 0H61l73 457H52l3 23h82l13 76q11 75 63 114.5T336 710q82 0 149-39l4 25 26 8z"/><glyph glyph-name="f_i" horiz-adv-x="527" d="M85 0H61l73 457H52l3 23h82l13 76q11 75 63 114.5T335 710q83 0 151-45l-4-24q-65 47-144 47-65 0-109.5-35T174 555l-13-75h308L393 0h-24l72 457H158z"/><glyph glyph-name="f_j" horiz-adv-x="526" d="M374-117q-17-113-132-113-40 0-69 12l3 22q29-12 62-12 97 0 113 95l90 570H158L85 0H61l73 457H52l3 23h82l13 76q11 75 63 114.5T335 710q83 0 151-45l-4-24q-65 47-144 47-65 0-109.5-35T174 555l-13-75h308z"/><glyph glyph-name="f_k" horiz-adv-x="830" d="M800 480h29L592 247 780 0h-27L571 239H441L403 0h-24l102 648q-63 40-144 40-66 0-109.5-35T174 555l-13-75h195l-3-23H158L85 0H61l73 457H52l3 23h82l13 76q11 75 63 114.5T336 710q82 0 149-39l4 25 26 8-70-442h132z"/><glyph glyph-name="f_l" horiz-adv-x="537" d="M485 671l4 25 26 8L403 0h-24l102 648q-63 40-144 40-66 0-109.5-35T174 555l-13-75h195l-3-23H158L85 0H61l73 457H52l3 23h82l13 76q11 75 63 114.5T336 710q82 0 149-39z"/><glyph glyph-name="uni0414.loclBGR" horiz-adv-x="794" d="M-21-177h-24l32 201h72l389 676h30L654 24h72l-32-201h-24L698 0H7zm482 851L88 24h541z"/><glyph glyph-name="uni041B.loclBGR" horiz-adv-x="672" d="M-28 0l417 700h25L609 0h-26L399 670 0 0h-28z"/><glyph glyph-name="uni0424.loclBGR" horiz-adv-x="884" d="M391-108h-25l16 99Q216-6 127 98T63 356q23 153 142 251.5T496 709l16 99h24l-16-99q167-3 256-106.5T841 344Q817 191 697.5 92.5T407-9zM88 353q-22-144 59-239.5T387 15l106 670q-161-3-271.5-95.5T88 353zm429 332L411 15q161 3 271.5 95.5T816 347q23 143-58 239t-241 99z"/><glyph glyph-name="uni0432.loclBGR" horiz-adv-x="574" d="M373 710q76 0 119-46t32-116q-17-115-156-160 74-7 115.5-62.5T512 190q-14-89-80.5-144.5T267-10q-107 0-164 70.5T67 266l16 105q26 166 99.5 252.5T373 710zM104 353l204 37q90 19 136 58t56 102q10 60-26.5 99T371 688q-98 0-167.5-74.5T107 371zM269 12q85 0 145.5 48.5T488 192q14 87-40 139.5T301 367l-200-37-10-64Q71 139 121.5 75.5T269 12z"/><glyph glyph-name="uni0433.loclBGR" horiz-adv-x="461" d="M374 41q-34-22-88-36.5T184-10q-83 0-131 32t-39 97q7 51 47 80t92.5 39.5T258 259t92 35 47 71q8 51-31 77t-102 26q-91 0-179-47l4 25q88 44 180 44 72 0 117.5-31.5T422 364q-8-52-48.5-81.5t-93-40.5-105-20.5T84 187t-46-70q-7-53 34.5-79T188 12q47 0 99.5 15T378 67z"/><glyph glyph-name="uni0434.loclBGR" horiz-adv-x="613" d="M483-1q-19-118-98.5-173.5T199-230q-104 0-176 46l4 24q73-48 170-48 99 0 172 50.5T459 1l20 122q-38-59-102-96T241-10Q137-10 80 60.5T41 246q18 112 95 178t181 66q74 0 126-38.5T516 349l20 131h23zM64 243Q47 139 97.5 75.5T242 12q77 0 143 43.5T485 166l23 147q-12 67-63.5 111T318 468q-95 0-166.5-60T64 243z"/><glyph glyph-name="uni0436.loclBGR" horiz-adv-x="706" d="M-7 0h-29l258 248L70 480h25l146-221h96l70 441h24l-70-441h95l216 221h27L473 247 651 0h-26L454 236h-96L320 0h-24l38 236h-94z"/><glyph glyph-name="uni0438.loclBGR" horiz-adv-x="575" d="M497 480h24L445 0h-22l17 109q-36-47-95-83T219-10q-81 0-126.5 53T61 186l47 294h24L85 186q-12-82 26-128t109-46q69 0 128 39t95 92z"/><glyph glyph-name="uni0439.loclBGR" horiz-adv-x="575" d="M453 604q-56-41-127-41-79 0-121 41l4 25q45-44 116-44 73 0 132 44zm44-124h24L445 0h-22l17 109q-36-47-95-83T219-10q-81 0-126.5 53T61 186l47 294h24L85 186q-12-82 26-128t109-46q69 0 128 39t95 92z"/><glyph glyph-name="uni043A.loclBGR" horiz-adv-x="493" d="M459 480h29L251 247 439 0h-28L230 239H100L62 0H38l111 700h24l-70-438h133z"/><glyph glyph-name="uni043B.loclBGR" horiz-adv-x="521" d="M304 480L454 0h-26L288 453 4 0h-28l302 480h26z"/><glyph glyph-name="uni043F.loclBGR" horiz-adv-x="574" d="M119 371q39 48 97 83.5T343 490q80 0 124.5-53T498 295L451 0h-24l47 294q13 82-26 128t-110 46q-67 0-126.5-39T115 338L62 0H38l76 480h22z"/><glyph glyph-name="uni0442.loclBGR" horiz-adv-x="894" d="M469 380q38 45 92 77.5T676 490q76 0 116-50.5T819 312L770 0h-24l50 312q11 68-22.5 112T674 468q-111 0-201-114 0-20-3-42L421 0h-24l50 312q11 68-22.5 112T325 468q-62 0-116.5-37T117 345L62 0H38l76 480h22l-16-104q36 45 91 79.5T327 490q57 0 95-29.5t47-80.5z"/><glyph glyph-name="uni0446.loclBGR" horiz-adv-x="599" d="M457 76q-5-30 11-42.5T516 21h16l-25-159h-23L506-1q-82 2-73 79l4 27q-37-46-94.5-80.5T219-10q-81 0-126.5 53T61 186l47 294h24L85 186q-12-82 26-128t109-46q69 0 128 39t95 92l54 337h24z"/><glyph glyph-name="uni0448.loclBGR" horiz-adv-x="894" d="M761 133l55 347h24L764 0h-23l17 102q-35-44-90-78T551-10q-56 0-94 30t-48 80Q314-10 202-10q-75 0-115.5 50T58 168l50 312h24L82 168q-10-68 23-112t99-44q59 0 111.5 33.5T405 126q-1 17 2 42l50 312h24l-50-312q-10-68 23-112t99-44q63 0 118 36.5t90 84.5z"/><glyph glyph-name="uni0449.loclBGR" horiz-adv-x="918" d="M776 76q-4-30 11-42.5T832 21h19l-25-159h-23L825-1q-35 1-56.5 20.5T753 76l3 25q-33-43-88-77T551-10q-57 0-94.5 29.5T408 99q-38-45-92-77T202-10q-75 0-115.5 50T58 168l50 312h24L82 168q-10-68 23-112t99-44q59 0 111.5 33.5T405 125q-1 18 2 43l50 312h24l-50-312q-10-68 23-112t99-44q63 0 118 36.5t90 84.5l55 347h24z"/><glyph glyph-name="uni044E.loclBGR" horiz-adv-x="799" d="M742 234Q724 120 641.5 55T457-10q-95 0-159 65.5T245 229H98L62 1H38l111 699h24l-71-448h147q19 107 100 172.5T533 490q99 0 163-70.5T742 234zm-470 8q-17-103 39.5-166T457 13q95 0 170 60t91 165q17 103-39.5 166T533 467q-95 0-170-60t-91-165z"/><glyph glyph-name="uni0430.ss01" horiz-adv-x="541" d="M407 69q-8-48 42-48 22 0 40 7l-4-22q-21-7-41-7-31 0-49 17t-12 53l5 33q-38-52-100-82T165-10Q93-10 49 27.5T12 133q8 76 73.5 110.5T237 278q87 0 174-30l9 54q12 78-27.5 122T262 468q-76 0-164-30l3 24q84 28 163 28 101 0 147-51t32-141zM167 11q63 0 126.5 33T394 137l14 90q-84 29-168 29-50 0-92-10.5t-75-40T36 130q-5-56 32-87.5T167 11z"/><glyph glyph-name="uni0437.ss01" horiz-adv-x="445" d="M362-38q-16-91-84-141.5T106-230q-113 0-171 44l4 23q60-45 167-45 90 0 154.5 45T338-36q14 86-41 144t-145 38l-60-12 3 23 66 14q172 38 189 161 8 58-29 97t-105 39q-87 0-166-47l4 27q80 43 165 43 77 0 121-46t34-114q-16-118-157-163 73-8 115.5-68.5T362-38z"/><glyph glyph-name="uni0443.ss01" horiz-adv-x="575" d="M444-9q-18-114-92-167.5T179-230q-102 0-158 36l4 24q57-38 152-38 92 0 159.5 48.5T420-7l18 116q-37-48-93.5-83.5T219-10q-82 0-127 53T61 185l47 295h24L85 186q-12-83 25.5-128.5T221 12q68 0 127.5 39t95.5 92l53 337h24z"/><glyph glyph-name="zero.osf" horiz-adv-x="661" d="M602 254Q585 146 501 68T289-10q-91 0-150.5 41.5t-80 103T49 266q18 108 102.5 186T363 530q87 0 147-41t81.5-103T602 254zm-528 9q-7-47 2-91t33.5-79.5 71-57T289 14q119 0 196.5 71.5T578 257q16 99-41 174t-174 75q-118 0-195.5-71T74 263z"/><glyph glyph-name="one.osf" horiz-adv-x="403" d="M260 520h16L199 24h142l-4-24H13l4 24h157l73 468-165-59 4 24z"/><glyph glyph-name="two.osf" horiz-adv-x="517" d="M419 0H6l3 19q6 39 25.5 69t50 51.5 63 37.5 75.5 34q5 1 7 2l6 3 7 3q7 3 42.5 17.5t46.5 20 37.5 20 37.5 27 22.5 32T445 377q10 57-29 93.5T300 507q-103 0-205-57l3 26q97 54 204 54 85 0 132-43.5T470 374q-4-26-17.5-48T427 290.5 386 260t-40.5-22.5T296 216t-45-19q-113-48-147-73Q46 83 36 24h388z"/><glyph glyph-name="three.osf" horiz-adv-x="539" d="M469 349q-9-56-50-99.5T309 193q69-12 108.5-57T445 17q-14-88-86.5-137.5T188-170q-120 0-200 44l3 24q90-45 195-45 91 0 157 44.5T422 21q13 78-39.5 118.5T242 180h-72l4 24h70q87-1 139 42.5T445 351q11 65-32.5 110.5T285 507q-94 0-192-45l4 25q91 43 190 43 94 0 144-52.5T469 349z"/><glyph glyph-name="four.osf" horiz-adv-x="592" d="M438 520h27L389 34h138l-3-24H385l-27-170h-24l27 170H-20l3 22zM364 34l71 450L14 34h350z"/><glyph glyph-name="five.osf" horiz-adv-x="529" d="M132 520h355l-3-24H151L87 203q75 26 154 26 43 0 81.5-12t69.5-35 45.5-63 6.5-91q-13-88-86.5-143T180-170Q69-170-9-124l4 23q81-46 183-46 95 0 162 49t80 130q13 86-42.5 130T236 206q-89 0-180-33z"/><glyph glyph-name="six.osf" horiz-adv-x="576" d="M534 630q-57 36-133 36-107 0-195.5-86.5T89 316l-3-18q52 53 117.5 82.5T331 410q87 0 142-54.5T513 200q-16-96-86-153T272-10Q148-10 94.5 78.5T65 320q15 95 50 168.5t81.5 116 98 64T401 690q79 0 137-36zm-46-427q14 90-34.5 136.5T327 386q-62 0-128.5-32T83 267q-9-120 39.5-187T270 13q77 0 140.5 51T488 203z"/><glyph glyph-name="seven.osf" horiz-adv-x="464" d="M58 520h428l-3-20L67-160H40l413 656H54z"/><glyph glyph-name="eight.osf" horiz-adv-x="611" d="M120 529q10 65 77.5 113T366 690t154.5-53T564 515q-17-111-149-190 64-25 96-63t22-101q-10-70-83.5-120.5T261-10Q144-10 86 45T41 183q9 59 53 110.5T209 380q-104 50-89 149zm194-190q-19 7-83 30-69-30-112.5-79.5T65 181q-12-74 39.5-121T261 13q103 0 170.5 44.5T509 164q4 25 .5 45T494 244.5 469.5 271 433 293t-40.5 17.5T345 328q-6 2-10 3.5t-10 3.5-11 4zm226 177q9 59-38.5 105T366 667q-90 0-151-42t-71-99q-4-24-.5-44t17.5-36 24.5-26 35.5-22 35-16 39-14q13-5 19-7 10-3 25.5-8.5t28-9.5 24.5-8q130 74 148 181z"/><glyph glyph-name="nine.osf" horiz-adv-x="563" d="M47 320q16 97 86 153.5T288 530q124 0 177.5-88.5T495 200q-15-95-50-168.5t-81.5-116-98.5-64T159-170q-75 0-137 36l3 24q62-36 134-36 107 0 195.5 86.5T471 204q2 12 2 17-48-52-114-81.5T229 110q-88 0-143 55T47 320zm25-2q-14-90 34.5-137T233 134q65 0 131.5 32T477 253q8 120-40.5 187T289 507q-77 0-140-50.5T72 318z"/><glyph glyph-name="zero.sinf" horiz-adv-x="430" d="M360 100Q345 6 291.5-50T153-106q-86 0-123 59T9 108q15 94 68.5 150T217 314t122.5-59T360 100zm-330 6Q17 18 47.5-33.5T153-85q78 0 124.5 49T338 102q14 87-16.5 139T216 293q-78 0-124.5-49T30 106z"/><glyph glyph-name="one.sinf" horiz-adv-x="246" d="M140 308h16L95-79h79l-4-21H-33l4 21H73l58 363-99-35 3 21z"/><glyph glyph-name="two.sinf" horiz-adv-x="340" d="M44 279q60 35 128 35 56 0 90-28t26-75q-7-46-42-76t-98-63q-38-20-53-29T54 14.5t-38.5-42T-2-79h250l-4-21H-31l2 13q5 35 20 62.5T33 25t46 33.5T135 89q33 17 49.5 27t37 26 31 33 13.5 39q7 36-20.5 57.5T171 293q-65 0-131-38z"/><glyph glyph-name="three.sinf" horiz-adv-x="355" d="M287 204q-6-32-30.5-58T192 111q40-6 63.5-32.5T272 6q-8-53-52.5-82.5T108-106q-76 0-131 26l4 22q52-27 126-27 61 0 99 24.5T251 11q7 45-22.5 67T146 100H86l3 21h57q52 0 83 25t36 61q6 37-21 61.5T168 293q-66 0-129-27l4 23q59 25 128 25 57 0 90-32t26-78z"/><glyph glyph-name="four.sinf" horiz-adv-x="389" d="M260 308h23L238 20h86l-2-20h-87l-16-100h-22L213 0H-26l3 19zM216 20l40 256L5 20h211z"/><glyph glyph-name="five.sinf" horiz-adv-x="351" d="M66 308h234l-3-21H83L47 124q48 14 95 14 62 0 101.5-31T274 14q-9-54-54.5-87T108-106q-76 0-127 27l4 21q51-27 122-27 59 0 98.5 27.5T252 18q8 51-26 75t-91 24q-58 0-115-19z"/><glyph glyph-name="six.sinf" horiz-adv-x="373" d="M305 271q-34 22-83 22Q63 293 30 90q76 58 153 58 55 0 90.5-33.5T299 21q-9-60-53-93.5T142-106q-80 0-114.5 53.5T8 94q19 113 75.5 166.5T222 314q48 0 86-22zM277 22q9 52-20 78.5T178 127q-80 0-151-63Q21-8 50-46.5T141-85q53 0 90.5 27.5T277 22z"/><glyph glyph-name="seven.sinf" horiz-adv-x="300" d="M51-100H26l232 387H14l4 21h269l-4-19z"/><glyph glyph-name="eight.sinf" horiz-adv-x="395" d="M41 217q7 40 48 68.5T200 314q67 0 101-33t28-77q-11-71-85-109 77-35 67-98-8-43-51.5-73T137-106q-78 0-114.5 34.5T-6 14Q7 88 92 128q-59 29-51 89zM171 99q-47 14-58 19Q28 83 17 13q-7-44 23-71t98-27 106.5 24.5T289 0q3 18-3 32.5T271.5 56t-29 18T210 87t-39 12zm136 105q6 36-21.5 62.5T199 293q-60 0-95-22.5T63 214q-9-54 63-81 9-3 43-14 9-2 27.5-7.5T224 104q73 35 83 100z"/><glyph glyph-name="nine.sinf" horiz-adv-x="372" d="M14 187q9 59 53.5 93T172 314q78 0 112.5-53.5T305 114Q286 1 230-52.5T91-106q-50 0-85 22l2 21q35-22 83-22 159 0 192 203-78-58-153-58-55 0-90.5 33.5T14 187zm22-1q-8-52 21-78.5T135 81q80 0 151 64 6 71-23 109.5T172 293q-53 0-91-28t-45-79z"/><glyph glyph-name="zero.sups" horiz-adv-x="431" d="M436 576q-15-94-68.5-150T229 370q-86 0-123 59T85 584q15 94 68.5 150T293 790t122.5-59T436 576zm-330 6q-13-88 17.5-139.5T229 391q78 0 124.5 49T414 578q14 87-16.5 139T292 769q-78 0-124.5-49T106 582z"/><glyph glyph-name="one.sups" horiz-adv-x="247" d="M215 780h16l-61-387h79l-4-21H42l4 21h102l58 363-99-35 3 21z"/><glyph glyph-name="two.sups" horiz-adv-x="341" d="M120 755q60 35 128 35 56 0 90-28t26-75q-7-46-42-76t-98-63q-38-20-53-29t-41-28.5-38.5-42T74 397h250l-4-21H45l2 13q5 35 20 62.5t42 49.5 46 33.5 56 30.5q33 17 49.5 27t37 26 31 33 13.5 39q7 36-20.5 57.5T247 769q-65 0-131-38z"/><glyph glyph-name="three.sups" horiz-adv-x="355" d="M362 680q-6-32-30.5-58T267 587q40-6 63.5-32.5T347 482q-8-53-52.5-82.5T183 370q-76 0-131 26l4 22q52-27 126-27 61 0 99 24.5t45 71.5q7 45-22.5 67T221 576h-60l3 21h57q52 0 83 25t36 61q6 37-21 61.5T243 769q-66 0-129-27l4 23q59 25 128 25 57 0 90-32t26-78z"/><glyph glyph-name="four.sups" horiz-adv-x="388" d="M334 780h23l-45-288h86l-2-20h-87l-16-100h-22l16 100H48l3 19zm-44-288l40 256L79 492h211z"/><glyph glyph-name="five.sups" horiz-adv-x="350" d="M140 780h234l-3-21H157l-36-163q48 14 95 14 62 0 101.5-31t30.5-93q-9-54-54.5-87T182 366q-76 0-127 27l4 21q51-27 122-27 59 0 98.5 27.5T326 490q8 51-26 75t-91 24q-58 0-115-19z"/><glyph glyph-name="six.sups" horiz-adv-x="372" d="M380 747q-34 22-83 22-159 0-192-203 76 58 153 58 55 0 90.5-33.5T374 497q-9-60-53-93.5T217 370q-80 0-114.5 53.5T83 570q19 113 75.5 166.5T297 790q48 0 86-22zm-28-249q9 52-20 78.5T253 603q-80 0-151-63-6-72 23-110.5t91-38.5q53 0 90.5 27.5T352 498z"/><glyph glyph-name="seven.sups" horiz-adv-x="300" d="M126 372h-25l232 387H89l4 21h269l-4-19z"/><glyph glyph-name="eight.sups" horiz-adv-x="395" d="M116 693q7 40 48 68.5T275 790q67 0 101-33t28-77q-11-71-85-109 77-35 67-98-8-43-51.5-73T212 370q-78 0-114.5 34.5T69 490q13 74 98 114-59 29-51 89zm130-118q-47 14-58 19-85-35-96-105-7-44 23-71t98-27q67 0 106 24.5t45 60.5q3 18-3 32.5T346.5 532t-29 18-32.5 13-39 12zm136 105q6 36-21.5 62.5T274 769q-60 0-95-22.5T138 690q-4-28 14-48t32.5-26.5T236 598q5-2 8-3 9-2 27.5-7.5T299 580q73 35 83 100z"/><glyph glyph-name="nine.sups" horiz-adv-x="373" d="M90 663q9 59 53.5 93T248 790q78 0 112.5-53.5T381 590q-19-113-75-166.5T167 370q-50 0-85 22l2 21q35-22 83-22 159 0 192 203-78-58-153-58-55 0-90.5 33.5T90 663zm22-1q-8-52 21-78.5t78-26.5q80 0 151 64 6 71-23 109.5T248 769q-53 0-91-28t-45-79z"/><glyph glyph-name="zero.tf" d="M44 346q25 157 110.5 250.5T369 690t185.5-98.5T586 334Q561 178 475 84T260-10 75 88.5 44 346zm517-9q24 149-26 239t-167 90q-119 0-197-87T69 343t26-239 167-90q119 0 197 87t102 236z"/><glyph glyph-name="one.tf" d="M392 680h17L305 24h222l-4-24H36l4 24h240l100 628-225-79 4 24z"/><glyph glyph-name="two.tf" d="M147 630q104 60 222 60 101 0 157.5-46T570 521q-6-39-26-71.5T487 389t-65.5-45.5T341 298q-10-5-15-8-7-4-34.5-18T255 253t-33.5-19-34.5-21.5-30-22-29.5-25.5-24-28-22-33.5-15.5-37T54 24h447l-5-24H23l3 17q7 45 27 84t41 64 61 53.5 63.5 41.5 73.5 39q14 7 21 11 49 26 65.5 35t55.5 33.5 55.5 42 34 45.5 22.5 59q10 64-38.5 103T367 667q-113 0-222-63z"/><glyph glyph-name="three.tf" d="M556 509q-9-56-50.5-99.5T395 353q69-12 109-57t28-119q-14-89-88-138T258-10Q115-10 33 34l3 24q87-45 221-45 104 0 171 44t80 124q13 78-40 118.5T323 340H215l4 23h105q92 0 145 43t63 105q10 66-37.5 111T354 667q-110 0-217-45l4 25q98 43 216 43 102 0 156.5-52T556 509z"/><glyph glyph-name="four.tf" d="M484 680h28l-78-486h140l-3-24H431L404 0h-25l27 170H3l3 21zm-75-486l73 452L39 194h370z"/><glyph glyph-name="five.tf" d="M178 680h398l-4-24H198l-65-293q81 26 174 26 71 0 124-19.5t83-66.5 19-115q-14-89-90.5-143.5T255-10Q120-10 38 36l3 23q89-46 212-46 104 0 173 49t82 130q14 88-44.5 131T301 366q-102 0-198-33z"/><glyph glyph-name="six.tf" d="M559 630q-57 36-135 36-275 0-330-350l-3-20q123 114 265 114 92 0 150-54.5T548 200q-16-97-89.5-153.5T288-10q-131 0-186.5 88T70 320q30 190 122.5 280T424 690q80 0 139-36zm-36-427q14 91-36 137t-135 46q-68 0-138-32T88 266q-8-120 42.5-186.5T287 13q90 0 156 50.5T523 203z"/><glyph glyph-name="seven.tf" d="M126 680h494l-3-20L195 0h-28l420 656H122z"/><glyph glyph-name="eight.tf" d="M550 159q-11-70-85-119.5T272-10Q139-10 76.5 47.5T28 191q20 126 169 190-105 51-90 148 11 67 78 114t183 47q110 0 167-55t46-125q-17-113-149-185 65-26 96.5-64.5T550 159zM53 190Q41 113 96 63t177-50q107 0 174 44t77 106q6 40-5.5 68.5T471 280t-61.5 29.5T327 335q-7 2-10 3-68 20-98 32-70-26-113-73T53 190zm264 171q43-12 92-26 129 66 147 176 9 60-40.5 108T368 667q-105 0-166-40.5T132 526q-6-37 6-65t45-47 55-27.5 66-21.5q9-3 13-4z"/><glyph glyph-name="nine.tf" d="M82 480q16 97 89.5 153.5T342 690q129 0 185.5-88.5T560 360Q530 170 437.5 80T206-10q-80 0-139 36l4 24q57-36 135-36 275 0 330 350l3 20Q416 270 274 270q-93 0-150.5 54.5T82 480zm25-4q-14-91 35.5-136.5T278 294q68 0 138.5 32T542 414q8 120-42.5 186.5T343 667q-90 0-156-51t-80-140z"/><glyph glyph-name="zero.tosf" d="M578 257Q561 149 476.5 69.5T262-10Q134-10 71.5 71.5T26 262q18 108 104 188t212 80q127 0 190.5-82T578 257zm-527 2Q36 160 91.5 87T262 14q121 0 198.5 73T553 261q16 98-40.5 171.5T342 506q-117 0-196-73.5T51 259z"/><glyph glyph-name="one.tosf" d="M365 520h17L304 24h222l-4-24H35l4 24h240l74 468-224-79 3 24z"/><glyph glyph-name="two.tosf" d="M498 0H28l3 19q7 44 32.5 78.5t66 58T208 194t88 29q106 30 158.5 62.5T516 374q10 59-37.5 96T344 507q-120 0-228-63l4 26q103 60 226 60 98 0 152-43.5T540 370q-10-64-67-100t-168-68q-102-30-168.5-71T59 24h443z"/><glyph glyph-name="three.tosf" d="M528 349q-9-56-50.5-99.5T367 193q69-12 109-57t28-119q-14-89-87-138t-183-49Q89-170 7-126l3 24q87-45 223-45 102 0 168 44t79 124q13 78-40 118.5T295 180H189l4 23h103q92 0 145 43t63 105q10 66-36.5 111T330 507q-112 0-219-45l4 25q98 43 218 43 100 0 153.5-52.5T528 349z"/><glyph glyph-name="four.tosf" d="M460 518h28L410 32h138l-3-24H407l-27-170h-25L382 8H-21l3 21zM385 32l73 451L16 32h369z"/><glyph glyph-name="five.tosf" d="M154 520h396l-4-24H174l-65-293q81 26 168 26 113 0 179.5-50T507 28q-14-89-91-143.5T225-170q-129 0-211 46l3 23q89-46 206-46 107 0 176.5 48.5T482 32q14 88-45 131t-166 43q-96 0-192-33z"/><glyph glyph-name="six.tosf" d="M559 630q-57 36-135 36-275 0-330-350l-3-20q123 114 265 114 92 0 150-54.5T548 200q-16-97-89.5-153.5T288-10q-131 0-186.5 88T70 320q30 190 122.5 280T424 690q80 0 139-36zm-36-427q14 91-36 137t-135 46q-68 0-138-32T88 266q-8-120 42.5-186.5T287 13q90 0 156 50.5T523 203z"/><glyph glyph-name="seven.tosf" d="M98 520h497l-3-20-442-660h-28l439 656H95z"/><glyph glyph-name="eight.tosf" d="M550 159q-11-70-85-119.5T272-10Q137-10 75.5 47.5T28 192q20 125 169 189-105 51-90 148 11 67 77.5 114T367 690q110 0 167.5-55T581 510q-17-113-149-185 65-26 96.5-64.5T550 159zM53 190Q41 113 96 63t177-50q107 0 174 44t77 106q6 40-5.5 68.5T471 280t-61.5 29.5T327 335q-7 2-10 3-68 20-98 32-70-26-113-73T53 190zm264 171q43-12 92-26 129 66 147 176 9 60-41 108t-148 48q-105 0-165.5-41T132 526q-6-37 6-65t45-47 55-27.5 66-21.5q9-3 13-4z"/><glyph glyph-name="nine.tosf" d="M56 320q16 97 89.5 153.5T316 530q129 0 185.5-88.5T534 200Q504 10 411.5-80T180-170q-80 0-139 36l4 24q57-36 135-36 275 0 330 350l3 20Q390 110 248 110q-93 0-150.5 54.5T56 320zm25-3q-14-90 36-136.5T252 134q68 0 138.5 32T516 254q8 120-42.5 186.5T317 507q-90 0-156-50.5T81 317z"/><glyph glyph-name="zero.dnom" horiz-adv-x="431" d="M376 200q-15-94-68.5-150T169-6Q83-6 46 53T25 208q15 94 68.5 150T233 414t122.5-59T376 200zm-330 6Q33 118 63.5 66.5T169 15q78 0 124.5 49T354 202q14 87-16.5 139T232 393q-78 0-124.5-49T46 206z"/><glyph glyph-name="one.dnom" horiz-adv-x="247" d="M156 408h16L111 21h79l-4-21H-17l4 21H89l58 363-99-35 3 21z"/><glyph glyph-name="two.dnom" horiz-adv-x="340" d="M60 379q60 35 128 35 56 0 90-28t26-75q-7-46-42-76t-98-63q-38-20-53-29t-41-28.5-38.5-42T14 21h250l-4-21H-15l2 13q5 35 20 62.5T49 125t46 33.5 56 30.5q33 17 49.5 27t37 26 31 33 13.5 39q7 36-20.5 57.5T187 393q-65 0-131-38z"/><glyph glyph-name="three.dnom" horiz-adv-x="355" d="M303 304q-6-32-30.5-58T208 211q40-6 63.5-32.5T288 106q-8-53-52.5-82.5T124-6Q48-6-7 20l4 22q52-27 126-27 61 0 99 24.5t45 71.5q7 45-22.5 67T162 200h-60l3 21h57q52 0 83 25t36 61q6 37-21 61.5T184 393q-66 0-129-27l4 23q59 25 128 25 57 0 90-32t26-78z"/><glyph glyph-name="four.dnom" horiz-adv-x="388" d="M275 408h23l-45-288h86l-2-20h-87L234 0h-22l16 100H-11l3 19zm-44-288l40 256L20 120h211z"/><glyph glyph-name="five.dnom" horiz-adv-x="350" d="M81 408h234l-3-21H98L62 224q48 14 95 14 62 0 101.5-31t30.5-93q-9-54-54.5-87T123-6Q47-6-4 21l4 21q51-27 122-27 59 0 98.5 27.5T267 118q8 51-26 75t-91 24q-58 0-115-19z"/><glyph glyph-name="six.dnom" horiz-adv-x="373" d="M321 371q-34 22-83 22-159 0-192-203 76 58 153 58 55 0 90.5-33.5T315 121q-9-60-53-93.5T158-6Q78-6 43.5 47.5T24 194q19 113 75.5 166.5T238 414q48 0 86-22zm-28-249q9 52-20 78.5T194 227q-80 0-151-63-6-72 23-110.5T157 15q53 0 90.5 27.5T293 122z"/><glyph glyph-name="seven.dnom" horiz-adv-x="300" d="M67 0H42l232 387H30l4 21h269l-4-19z"/><glyph glyph-name="eight.dnom" horiz-adv-x="395" d="M57 317q7 40 48 68.5T216 414q67 0 101-33t28-77q-11-71-85-109 77-35 67-98-8-43-51.5-73T153-6Q75-6 38.5 28.5T10 114q13 74 98 114-59 29-51 89zm130-118q-47 14-58 19-85-35-96-105-7-44 23-71t98-27 106.5 24.5T305 100q3 18-3 32.5T287.5 156t-29 18-32.5 13-39 12zm136 105q6 36-21.5 62.5T215 393q-60 0-95-22.5T79 314q-4-28 14-48t32.5-26.5T177 222q5-2 8-3 9-2 27.5-7.5T240 204q73 35 83 100z"/><glyph glyph-name="nine.dnom" horiz-adv-x="373" d="M30 287q9 59 53.5 93T188 414q78 0 112.5-53.5T321 214q-19-113-75-166.5T107-6Q57-6 22 16l2 21q35-22 83-22 159 0 192 203-78-58-153-58-55 0-90.5 33.5T30 287zm22-1q-8-52 21-78.5t78-26.5q80 0 151 64 6 71-23 109.5T188 393q-53 0-91-28t-45-79z"/><glyph glyph-name="zero.numr" horiz-adv-x="431" d="M420 476q-15-94-68.5-150T213 270q-86 0-123 59T69 484q15 94 68.5 150T277 690t122.5-59T420 476zm-330 6q-13-88 17.5-139.5T213 291q78 0 124.5 49T398 478q14 87-16.5 139T276 669q-78 0-124.5-49T90 482z"/><glyph glyph-name="one.numr" horiz-adv-x="246" d="M199 680h16l-61-387h79l-4-21H26l4 21h102l58 363-99-35 3 21z"/><glyph glyph-name="two.numr" horiz-adv-x="341" d="M104 655q60 35 128 35 56 0 90-28t26-75q-7-46-42-76t-98-63q-38-20-53-29t-41-28.5-38.5-42T58 297h250l-4-21H29l2 13q5 35 20 62.5T93 401t46 33.5 56 30.5q33 17 49.5 27t37 26 31 33 13.5 39q7 36-20.5 57.5T231 669q-65 0-131-38z"/><glyph glyph-name="three.numr" horiz-adv-x="354" d="M346 580q-6-32-30.5-58T251 487q40-6 63.5-32.5T331 382q-8-53-52.5-82.5T167 270q-76 0-131 26l4 22q52-27 126-27 61 0 99 24.5t45 71.5q7 45-22.5 67T205 476h-60l3 21h57q52 0 83 25t36 61q6 37-21 61.5T227 669q-66 0-129-27l4 23q59 25 128 25 57 0 90-32t26-78z"/><glyph glyph-name="four.numr" horiz-adv-x="388" d="M318 680h23l-45-288h86l-2-20h-87l-16-100h-22l16 100H32l3 19zm-44-288l40 256L63 392h211z"/><glyph glyph-name="five.numr" horiz-adv-x="350" d="M124 680h234l-3-21H141l-36-163q48 14 95 14 62 0 101.5-31t30.5-93q-9-54-54.5-87T166 266q-76 0-127 27l4 21q51-27 122-27 59 0 98.5 27.5T310 390q8 51-26 75t-91 24q-58 0-115-19z"/><glyph glyph-name="six.numr" horiz-adv-x="373" d="M365 647q-34 22-83 22-159 0-192-203 76 58 153 58 55 0 90.5-33.5T359 397q-9-60-53-93.5T202 270q-80 0-114.5 53.5T68 470q19 113 75.5 166.5T282 690q48 0 86-22zm-28-249q9 52-20 78.5T238 503q-80 0-151-63-6-72 23-110.5t91-38.5q53 0 90.5 27.5T337 398z"/><glyph glyph-name="seven.numr" horiz-adv-x="300" d="M110 272H85l232 387H73l4 21h269l-4-19z"/><glyph glyph-name="eight.numr" horiz-adv-x="395" d="M100 593q7 40 48 68.5T259 690q67 0 101-33t28-77q-11-71-85-109 77-35 67-98-8-43-51.5-73T196 270q-78 0-114.5 34.5T53 390q13 74 98 114-59 29-51 89zm130-118q-47 14-58 19-85-35-96-105-7-44 23-71t98-27q67 0 106 24.5t45 60.5q3 18-3 32.5T330.5 432t-29 18-32.5 13-39 12zm136 105q6 36-21.5 62.5T258 669q-60 0-95-22.5T122 590q-9-54 63-81 9-3 43-14 9-2 27.5-7.5T283 480q73 35 83 100z"/><glyph glyph-name="nine.numr" horiz-adv-x="373" d="M74 563q9 59 53.5 93T232 690q78 0 112.5-53.5T365 490q-19-113-75-166.5T151 270q-50 0-85 22l2 21q35-22 83-22 159 0 192 203-78-58-153-58-55 0-90.5 33.5T74 563zm22-1q-8-52 21-78.5t78-26.5q80 0 151 64 6 71-23 109.5T232 669q-53 0-91-28t-45-79z"/><glyph glyph-name="emdash.case" horiz-adv-x="761" d="M690 338H83l3 24h607z"/><glyph glyph-name="endash.case" horiz-adv-x="579" d="M508 338H83l3 24h425z"/><glyph glyph-name="hyphen.case" horiz-adv-x="497" d="M86 362h344l-4-24H83z"/><glyph glyph-name="guillemotleft.case" horiz-adv-x="433" d="M337 179h-25l-93 167 1 9 144 166h28L243 349zm-149 0h-25L70 346l1 9 144 166h28L94 349z"/><glyph glyph-name="guillemotright.case" horiz-adv-x="434" d="M237 179h-28l149 172-94 170h26l92-167-1-9zm-149 0H60l149 172-94 170h26l92-167-1-9z"/><glyph glyph-name="guilsinglleft.case" horiz-adv-x="284" d="M188 179h-25L70 346l1 9 144 166h28L94 349z"/><glyph glyph-name="guilsinglright.case" horiz-adv-x="285" d="M88 179H60l149 172-94 170h26l92-167-1-9z"/><glyph glyph-name="cent.tf" d="M529 450l-4-23q-49 41-132 41L321 12q85 3 149 40l-3-25Q402-8 317-10l-17-110h-22l17 110q-99 5-158 70T96 242q18 116 99.5 179T375 489l17 111h22l-17-110q81-2 132-40zm-158 17q-57-4-107.5-28t-91-76T120 239q-17-104 36-163t143-64z"/><glyph glyph-name="currency.tf" d="M171 206l-76-65-14 17 75 65q-44 52-31 129 12 76 71 127l-54 63 20 17 54-65q57 42 129 42 69 0 119-42l75 65 14-17-75-65q44-51 31-129-10-74-70-127l53-63-19-17-54 65q-59-42-130-42-70 0-118 42zm-22 142q-11-71 31-116t110-45q71 0 127.5 45.5T486 352q11 71-30.5 116T345 513q-71 0-127.5-45.5T149 348z"/><glyph glyph-name="dollar.tf" d="M258-130h-22l18 120Q124-3 41 48l3 25q98-59 226-59 57 0 104.5 13T458 73.5t44 84.5q7 44-12.5 76t-56 51.5-81 35.5l-89 32-80.5 37-54.5 56-10.5 83q13 77 86.5 118.5T365 690l18 120h22l-18-120q99-5 173-48l-4-24q-82 48-190 48-50 0-96-13.5T187.5 606 143 526q-7-43 12-74t55-50 80.5-34.5T380 335t81-38 54.5-57 11.5-84q-13-84-84.5-125T276-10z"/><glyph glyph-name="Euro.tf" d="M635 646q-54 20-128 20-75 0-145-25t-130.5-81T141 424h369l-4-22H134q-8-25-13-56-5-30-5-68h370l-4-22H117q10-113 91-177.5T403 14q78 0 138 22l-4-25q-60-21-136-21-123 0-211 71T92 256H4l4 22h83q-1 32 5 72 3 18 11 52H28l4 22h82q31 87 96 149t141 89.5T507 690q72 0 132-21z"/><glyph glyph-name="sterling.tf" d="M519 0H-2l4 24h31q81 0 98 98l32 205H82l4 24h81l18 114q18 117 88.5 171T436 690q78 0 135-39l-4-24q-55 39-131 39-83 0-146.5-48T209 464l-17-113h256l-4-24H188l-33-206q-11-78-62-97h430z"/><glyph glyph-name="yen.tf" d="M614 680h27L331 304h178l-4-22H316l-16-98h190l-4-22H296L270 0h-24l25 162H82l4 22h189l16 98H101l4 22h177L91 680h27l188-374z"/></font>
</defs>
</svg>
