<svg xmlns="http://www.w3.org/2000/svg" viewBox="0 0 100.17 100.17">
    <path id="insta-logo" fill="#000" d="M12.86 0h74.45a12.89 12.89 0 0 1 12.86 12.86v74.45a12.89 12.89 0 0 1-12.86 12.85H12.86A12.89 12.89 0 0 1 0 87.31V12.86A12.9 12.9 0 0 1 12.86 0zM73 11.12a4.53 4.53 0 0 0-4.51 4.52v10.79A4.52 4.52 0 0 0 73 30.94h11.29a4.52 4.52 0 0 0 4.51-4.51V15.64a4.53 4.53 0 0 0-4.51-4.52zm15.85 31.24H80A29.33 29.33 0 0 1 81.32 51c0 16.66-13.95 30.17-31.14 30.17S19 67.62 19 51a29.4 29.4 0 0 1 1.29-8.6h-9.2v42.28a4 4 0 0 0 4 4h69.78a4 4 0 0 0 4-4zm-38.67-12c-11.11 0-20.12 8.72-20.12 19.5s9 19.49 20.12 19.49S70.3 60.63 70.3 49.87s-9.01-19.5-20.12-19.5z" data-name="Layer 1"/>
</svg>
