<svg xmlns="http://www.w3.org/2000/svg"><defs><font id="MullerLightItalic" horiz-adv-x="623"><font-face font-family="Muller Light Italic" font-weight="300" font-style="italic" ascent="780" descent="-220" x-height="480" cap-height="700" bbox="-207 -234 1221.83 946" underline-thickness="50" underline-position="-225" slope="-9" unicode-range="U+0020-25CA"/><glyph glyph-name="f_f" unicode="ff" horiz-adv-x="679" d="M756 647q-41 22-100 22-119 0-137-115l-12-74h193l-8-53H498L431 0h-57l68 427H188L121 0H64l68 427H45l8 53h87l9 57q12 77 69 119t135 42q77 0 147-44 48 67 148 67 66 0 116-23zM197 480h253l13 80q5 29 13 50-53 35-121 35-61 0-100.5-28.5T206 533z"/><glyph glyph-name="f_f_i" unicode="ffi" horiz-adv-x="860" d="M121 0H64l68 427H45l8 53h87l9 57q12 78 68 119.5T353 698q79 0 152-48 56 68 158 68 76 0 146-40l-9-55q-62 42-136 42-58 0-97.5-29.5T518 546l-11-66h301L732 0h-57l68 427H498L431 0h-57l68 427H188zm85 533l-9-53h253l12 70q4 29 17 56-56 39-124 39-61 0-100.5-28.5T206 533z"/><glyph glyph-name="f_f_l" unicode="ffl" horiz-adv-x="870" d="M794 687l1 6 59 15L742 0h-57l101 635q-57 30-122 30-59 0-98-29.5T518 546l-11-66h168l-8-53H498L431 0h-57l68 427H188L121 0H64l68 427H45l8 53h87l9 57q12 77 69 119t135 42 151-48q56 68 156 68 74 0 134-31zM450 480l12 70q4 31 17 56-54 39-124 39-59 0-99.5-28.5T206 533l-9-53h253z"/><glyph glyph-name=".notdef" horiz-adv-x="259"/><glyph glyph-name=".null" horiz-adv-x="0"/><glyph glyph-name="nonmarkingreturn" horiz-adv-x="333"/><glyph glyph-name="space" horiz-adv-x="259"/><glyph glyph-name="exclam" unicode="!" horiz-adv-x="215" d="M117 189H67l77 511h59zM105 26Q99-8 64-8 46-8 35.5 3T28 34q6 34 41 34 18 0 28.5-11t7.5-31z"/><glyph glyph-name="quotedbl" unicode="&quot;" horiz-adv-x="292" d="M257 540h-40l26 160h54zm-113 0h-40l26 160h54z"/><glyph glyph-name="numbersign" unicode="#" horiz-adv-x="651" d="M92 0H35l71 179H21l8 50h97l88 223h-99l7 50h111l71 178h57l-70-178h213l71 178h57l-71-178h83l-7-50h-95l-89-223h98l-8-50H434L363 0h-57l70 179H163zm179 452l-88-223h213l88 223H271z"/><glyph glyph-name="dollar" unicode="$" horiz-adv-x="578" d="M251-130h-50l19 120Q97 0 16 49l9 58q94-62 228-62 82 0 140 28.5t68 92.5q6 38-13.5 66t-55 45.5-79 32.5-86.5 32.5-77.5 39.5T97 441.5 87 528q13 75 83.5 117.5T331 691l18 119h50l-18-120q97-8 164-50l-8-56q-77 51-198 51-71 0-127-28t-65-84q-6-39 12.5-67.5t54-46.5 79-33.5T379 343t78-38.5 53-57.5 11-84q-14-87-84.5-129T270-11z"/><glyph glyph-name="percent" unicode="%" horiz-adv-x="887" d="M213-60h-59l539 820h59zm177 615q-10-69-61-107.5T214 409t-105.5 42.5T78 565q11 69 62 107.5T256 711q64 0 105-42.5T390 555zm-260 6q-7-44 17-73t69-29q47 0 81 27.5t41 72.5q7 44-17 73t-67 29q-48 0-82.5-27.5T130 561zm698-426q-11-69-62-107.5T651-11 545.5 31.5 515 145q11 69 62 107.5T693 291q63 0 104.5-42.5T828 135zm-261 6q-7-44 17-73t69-29q47 0 81 27.5t41 72.5q7 44-17 73t-67 29q-48 0-82.5-27.5T567 141z"/><glyph glyph-name="ampersand" unicode="&amp;" horiz-adv-x="687" d="M530 116L639 0h-69l-76 80Q388-11 240-11 134-11 77 41.5T32 172q5 34 24 65.5t48.5 56.5 56 42 60.5 35q-79 94-66 176 11 69 75 116.5T382 711q77 0 126-43t39-109q-6-43-47-83.5T425 416t-99-51q-13-7-20-10l186-199q63 73 75 165h59q-17-116-96-205zM381 657q-74 0-118.5-34.5T211 536q-10-62 59-141 38 17 54.5 25t53 28 55 35 36.5 37.5 21 44.5q7 41-26 66.5T381 657zM91 167q-9-55 34-89.5T250 43q119 0 207 77L257 331q-32-16-55-30t-49-35-42-46-20-53z"/><glyph glyph-name="quotesingle" unicode="'" horiz-adv-x="179" d="M144 540h-40l26 160h54z"/><glyph glyph-name="parenleft" unicode="(" horiz-adv-x="272" d="M275 809h57q-81-96-137.5-219.5T119 346q-19-116-1.5-238.5T185-109h-54Q78-11 58 111.5T56 354q19 119 77.5 239.5T275 809z"/><glyph glyph-name="parenright" unicode=")" horiz-adv-x="272" d="M105 809h54q53-99 73.5-221t1.5-242q-19-118-77-238.5T16-109h-58Q39-13 95.5 110.5T171 354q19 116 1.5 238.5T105 809z"/><glyph glyph-name="asterisk" unicode="*" horiz-adv-x="434" d="M252 510l-98-119-40 30 103 110-125 37 26 50 121-49 15 131h53l-27-131 136 49 11-50-140-37 71-110-47-30z"/><glyph glyph-name="plus" unicode="+" horiz-adv-x="532" d="M307 377h192l-9-54H298l-30-192h-54l30 192H53l8 54h192l30 192h54z"/><glyph glyph-name="comma" unicode="," horiz-adv-x="218" d="M11-147h-47L53 77h60z"/><glyph glyph-name="hyphen" unicode="-" horiz-adv-x="486" d="M64 273h352l-9-54H56z"/><glyph glyph-name="period" unicode="." horiz-adv-x="203" d="M104 28Q98-8 62-8 44-8 33 4t-7 31q2 16 14.5 25.5T68 70q19 0 29.5-11.5T104 28z"/><glyph glyph-name="slash" unicode="/" horiz-adv-x="419" d="M28-58h-45l427 816h44z"/><glyph glyph-name="zero" unicode="0" horiz-adv-x="703" d="M63 345q25 158 114.5 252T412 691q144 0 206.5-98.5T656 335Q631 178 541.5 83.5T306-11q-144 0-206 98.5T63 345zm533-6q22 138-24.5 217T408 635q-120 0-192.5-77T121 341q-22-138 24.5-217T309 45q120 0 192.5 77T596 339z"/><glyph glyph-name="one" unicode="1" horiz-adv-x="415" d="M282 680h43L226 57h133l-9-57H8l9 57h150l88 559-158-56 10 57z"/><glyph glyph-name="two" unicode="2" horiz-adv-x="568" d="M124 628q103 63 221 63 98 0 155.5-48T545 513q-6-41-25.5-75.5t-54-63.5-66.5-49-83-48q-6-3-32.5-17T250 242.5 220 226t-31-19-26.5-19-26-21.5T116 144t-19-26.5-12.5-28T75 57h405L470 0H2l5 32q8 48 27.5 88.5t42 67 62 54.5 66.5 42.5 76 39.5q38 20 58.5 31t51 31 47 37.5 31 42.5 18.5 53q8 55-32 86t-118 31q-107 0-223-71z"/><glyph glyph-name="three" unicode="3" horiz-adv-x="587" d="M540 505q-9-53-45.5-94.5T401 354q57-14 92-58t24-117q-15-91-91-140.5T246-11Q108-11 18 34l8 55q86-45 218-45 87 0 146 37t71 108q11 70-34.5 102T299 323H196l10 55h94q79 0 126.5 37t56.5 93q9 57-31.5 92.5T331 636q-104 0-217-49l10 59q98 45 218 45 97 0 153.5-53T540 505z"/><glyph glyph-name="four" unicode="4" horiz-adv-x="641" d="M472 680h66l-74-466h135l-9-55H455L430 0h-59l25 159H7l8 52zm-68-466l62 385L90 214h314z"/><glyph glyph-name="five" unicode="5" horiz-adv-x="578" d="M160 680h398l-9-57H206l-52-233q66 19 137 19 105 0 173-54t51-162q-15-94-94.5-149T231-11Q103-11 19 35l8 54q81-45 200-45 92 0 155 41.5T456 200q13 81-40.5 118T270 355q-93 0-187-33z"/><glyph glyph-name="six" unicode="6" horiz-adv-x="614" d="M562 599q-61 36-144 36-53 0-98.5-16.5t-85-51T166 474t-44-139q114 83 238 83 92 0 153-56.5T558 204 466.5 46 290-11Q154-11 95 79.5T61 328q29 183 125 273t234 90q84 0 151-38zM289 44q81 0 139 42t71 122q13 81-32 118t-123 37q-127 0-231-93-8-111 37-168.5T289 44z"/><glyph glyph-name="seven" unicode="7" horiz-adv-x="527" d="M89 680h476l-8-53L159 0H94l395 623H80z"/><glyph glyph-name="eight" unicode="8" horiz-adv-x="644" d="M572 160q-11-73-85-122T289-11Q157-11 91 48.5T38 194q9 53 48 100.5T193 376q-92 55-77 148 11 69 78.5 118T378 691q110 0 172-59t51-134q-13-99-130-170 119-55 101-168zM98 194q-11-67 41.5-108.5T296 44q89 0 149 35.5t68 88.5q5 34-5.5 58.5t-37.5 41-53.5 26.5-69.5 23q-7 2-11 3-52 15-94 30-128-57-144-156zm238 180q16-4 86-24 106 63 120 148 9 56-35.5 97T376 636q-85 0-139-33.5T175 520q-5-33 5.5-57t38-40.5 49-25T326 377q7-2 10-3z"/><glyph glyph-name="nine" unicode="9" horiz-adv-x="613" d="M71 476q16 101 91.5 158T339 691q136 0 195-90.5T568 352Q539 169 443 79T209-11q-85 0-151 38l9 55q59-37 144-37 53 0 98.5 16.5t85 51T463 206t44 139q-114-83-238-83-92 0-153 56.5T71 476zm269 160q-81 0-139-41.5T130 472q-13-80 32-117.5T285 317q127 0 231 93 8 111-37 168.5T340 636z"/><glyph glyph-name="colon" unicode=":" horiz-adv-x="214" d="M163 393q-6-35-43-35-17 0-28 11.5T84 400q3 17 15 26.5t27 9.5q19 0 29.5-11.5T163 393zM105 28Q99-8 62-8 45-8 34 4t-7 31q2 16 14.5 25.5T69 70q19 0 29.5-11.5T105 28z"/><glyph glyph-name="semicolon" unicode=";" horiz-adv-x="282" d="M44-147H-3L86 77h60zm157 579q-6-35-43-35-17 0-28 11.5t-8 30.5q2 17 15 26.5t28 9.5q18 0 28.5-11.5T201 432z"/><glyph glyph-name="less" unicode="&lt;" horiz-adv-x="483" d="M400 221l-9-56L48 322l9 57 392 156-8-56-330-129z"/><glyph glyph-name="equal" unicode="=" horiz-adv-x="552" d="M499 414H90l9 54h408zm-29-182H61l8 54h409z"/><glyph glyph-name="greater" unicode="&gt;" horiz-adv-x="482" d="M443 321L51 165l9 56 331 129-290 129 8 56 344-157z"/><glyph glyph-name="question" unicode="?" horiz-adv-x="491" d="M245 199h-57q6 39 31 77.5t58 70 66 62 58.5 65.5 30.5 70q9 56-31 83.5T283 655q-95 0-197-57l9 59q96 54 200 54 95 0 152-45t44-124q-6-39-32-77.5T399.5 394 333 331.5t-58-65-30-67.5zM229 28q-6-36-42-36-18 0-29 12t-7 31q2 16 14.5 25.5T193 70q19 0 29.5-11.5T229 28z"/><glyph glyph-name="at" unicode="@" horiz-adv-x="1055" d="M41 252q14 91 60 173t116.5 146 170 102T600 711q87 0 159.5-27T880 613t79-101 41-118 1-120q-21-131-82.5-198T773 9q-61 0-96 30t-36 85q-31-44-77-68.5T467 31q-81 0-130.5 60T302 241q14 90 77.5 147T527 445q51 0 89-26.5t54-67.5l13 85h56l-44-274Q679 59 775 59q63 0 107 59.5T942 281q10 65-7 130.5t-58.5 120-114.5 89T596 655q-199 0-334.5-119.5T99 245q-15-96 9.5-176.5t79-133 131-81.5T484-175q118 0 229 37l-9-59q-101-34-224-34-100 0-187 33t-150 92.5T51.5 47 41 252zm618 32q-6 46-40 77.5T531 393q-64 0-113.5-42.5T357 238q-10-69 24-112t94-43q56 0 102.5 32.5T645 194z"/><glyph glyph-name="A" unicode="A" horiz-adv-x="714" d="M656 0h-62l-53 188H145L33 0h-67l422 700h68zM402 616L178 244h349L421 617q-4 16-5 24-4-9-14-25z"/><glyph glyph-name="B" unicode="B" horiz-adv-x="686" d="M163 700h271q103 0 163-47t46-134q-11-64-52-102t-98-50q59-13 98.5-56T619 187Q589 0 327 0H52zm397-500q5 35-4 61t-25.5 40-42 22-46.5 10.5-45 2.5H164L120 57h202q43 0 75 4.5T466.5 79t62 44 31.5 77zm23 320q10 66-32.5 94.5T422 643H212l-39-251h236q67 0 115 31.5t59 96.5z"/><glyph glyph-name="C" unicode="C" horiz-adv-x="647" d="M60 364q18 109 86 190.5t154.5 119T477 711q107 0 185-48l-9-57q-67 49-170 49-80 0-155.5-31.5T193 522t-75-166q-12-77 6.5-138.5t59-98T275 64t108-19q108 0 194 52l-10-64q-85-44-199-44-66 0-126 24T135 82 66.5 200.5 60 364z"/><glyph glyph-name="D" unicode="D" horiz-adv-x="735" d="M163 700h214q178 0 260.5-98T695 346 562.5 94 270 0H52zm472-346q22 135-44.5 212T371 643H212L120 57h156q153 0 245 79.5T635 354z"/><glyph glyph-name="E" unicode="E" horiz-adv-x="621" d="M163 700h465l-9-57H213l-41-262h375l-8-57H163L121 57h411l-9-57H52z"/><glyph glyph-name="F" unicode="F" horiz-adv-x="604" d="M163 700h467l-10-57H213l-43-273h378l-9-57H161L111 0H52z"/><glyph glyph-name="G" unicode="G" horiz-adv-x="709" d="M60 364q14 88 57.5 156.5t104 109 127.5 61T484 711q114 0 200-47l-8-57q-70 48-187 48-61 0-118.5-16.5T260 588t-91-94-50-138q-13-79 6-141t60.5-98T279 63t111-18q89 0 162 34l46 290h60L606 35Q500-11 383-11q-69 0-131.5 22.5t-112 66-72 118T60 364z"/><glyph glyph-name="H" unicode="H" horiz-adv-x="768" d="M676 700h59L624 0h-59l51 323H162L111 0H52l111 700h59l-50-320h453z"/><glyph glyph-name="I" unicode="I" horiz-adv-x="255" d="M163 700h59L111 0H52z"/><glyph glyph-name="J" unicode="J" horiz-adv-x="516" d="M215 700h275l-79-503Q395 91 327.5 40.5T159-10Q48-10-16 34l9 58q61-45 158-45 177 0 201 156l70 440H205z"/><glyph glyph-name="K" unicode="K" horiz-adv-x="658" d="M629 700h68L400 357 609 0h-64L350 330H163L111 0H52l111 700h59l-49-314h183z"/><glyph glyph-name="L" unicode="L" horiz-adv-x="572" d="M163 700h59L121 57h404l-9-57H52z"/><glyph glyph-name="M" unicode="M" horiz-adv-x="903" d="M810 700h60L759 0h-59l94 593-339-415h-39L206 593 111 0H52l111 700h52l227-450z"/><glyph glyph-name="N" unicode="N" horiz-adv-x="768" d="M111 0H52l111 700h50L581 96q1 11 4 30.5t4 30.5l87 543h59L624 0h-50L206 605q-1-12-4-31.5t-4-29.5z"/><glyph glyph-name="O" unicode="O" horiz-adv-x="822" d="M784 346q-11-68-43-130.5t-83-114-127-82T366-11q-111 0-188 54.5T72 180 57 354q11 68 44.5 131t85 114 127 81.5T475 711q84 0 150-31.5T728 596t52-117 4-133zm-667 4q-5-44-2-87t22.5-82.5 49-69.5 77-48T370 45q145 0 240.5 90.5T725 350q5 44 2 87t-22.5 82.5-49 69.5-77 48T472 655q-145 0-240.5-90.5T117 350z"/><glyph glyph-name="P" unicode="P" horiz-adv-x="660" d="M163 700h234q58 0 105.5-11.5t86-36 56-70T652 474q-35-219-328-219H152L111 0H52zm429-219q8 47-5.5 80t-44 50.5T476 636t-82 7H212l-52-331h172q233 0 260 169z"/><glyph glyph-name="Q" unicode="Q" horiz-adv-x="822" d="M727-22l-42-36-93 109Q491-11 366-11q-111 0-188 54.5T72 180 57 354q11 68 44.5 131t85 114 127 81.5T475 711q84 0 150-31.5T728 596t52-117 4-133Q759 186 637 83zM117 350q-5-44-2-87t22.5-82.5 49-69.5 77-48T370 45q101 0 185 51L438 234l42 36 120-143q103 87 125 223 5 44 2 87t-22.5 82.5-49 69.5-77 48T472 655q-145 0-240.5-90.5T117 350z"/><glyph glyph-name="R" unicode="R" horiz-adv-x="691" d="M111 0H52l111 700h267q48 0 90-11.5t76.5-35 50.5-66 7-99.5q-15-92-79.5-140.5T421 288L624 0h-70L354 283H156zm101 643l-47-303h211q52 0 95.5 13.5T550 403t44 92q7 42-5 72t-38 46-57 23-68 7H212z"/><glyph glyph-name="S" unicode="S" horiz-adv-x="575" d="M94 541q9 57 50 97t94.5 56.5T352 711q118 0 199-53l-9-57q-76 54-189 54-80 0-134.5-28.5T153 536q-6-39 12.5-67.5t53-46.5 77.5-34 85-34 76-41 51.5-61.5T518 163q-14-91-89-133T252-11Q111-11 15 49l9 57q94-61 227-61 189 0 207 121 7 41-11.5 71.5T394 287t-77 35.5-85 34-76 40-51.5 59T94 541z"/><glyph glyph-name="T" unicode="T" horiz-adv-x="596" d="M77 700h571l-9-57H383L281 0h-59l102 643H68z"/><glyph glyph-name="U" unicode="U" horiz-adv-x="753" d="M669 700h59l-71-452Q635 111 549 50T336-11q-61 0-110 14t-86 44-52 82-4 123l71 448h59l-71-450Q111 45 335 45q230 0 264 209z"/><glyph glyph-name="V" unicode="V" horiz-adv-x="685" d="M327 0h-61L80 700h62L304 67l365 633h66z"/><glyph glyph-name="W" unicode="W" horiz-adv-x="995" d="M979 700h63L713 0h-67l-97 590L264 0h-70L83 700h60l98-624 299 621h49L690 84z"/><glyph glyph-name="X" unicode="X" horiz-adv-x="628" d="M33 0h-75l333 363L88 700h66l177-294 270 294h75L360 356 574 0h-65L320 312z"/><glyph glyph-name="Y" unicode="Y" horiz-adv-x="643" d="M305 0h-60l44 273L82 700h62l181-370 299 370h68L349 273z"/><glyph glyph-name="Z" unicode="Z" horiz-adv-x="578" d="M501 0H-16l8 53 524 590H100l9 57h491l-8-53L67 57h444z"/><glyph glyph-name="bracketleft" unicode="[" horiz-adv-x="264" d="M177-110H10l146 920h166l-9-57H206L78-53h107z"/><glyph glyph-name="backslash" unicode="\" horiz-adv-x="413" d="M322-58h-42L111 758h42z"/><glyph glyph-name="bracketright" unicode="]" horiz-adv-x="265" d="M128-110H-39l8 57H77l128 806H98l8 57h167z"/><glyph glyph-name="asciicircum" unicode="^" horiz-adv-x="513" d="M135 390H69l230 310h50l132-310h-61L317 637z"/><glyph glyph-name="underscore" unicode="_" horiz-adv-x="443" d="M374-140H-68l8 54h443z"/><glyph glyph-name="grave" unicode="`" horiz-adv-x="177" d="M262 773h-61l-76 142h69z"/><glyph glyph-name="a" unicode="a" horiz-adv-x="618" d="M458 99Q371-11 239-11 135-11 77 61.5T37 245q17 109 95.5 177.5T312 491q68 0 116.5-31.5T502 379l16 101h51L493 0h-51zM92 241q-14-90 31-145t124-55q69 0 127.5 38.5T464 175l21 132q-12 56-58 94t-111 38q-82 0-145.5-53.5T92 241z"/><glyph glyph-name="b" unicode="b" horiz-adv-x="619" d="M144 700h57l-51-315q37 47 93 76.5T364 491q102 0 160.5-72.5T566 235q-17-110-93.5-178T290-11q-131 0-189 113L84 0H33zm366-461q14 89-32 144.5T355 439q-69 0-127-38.5T138 304l-22-131q14-57 59-94.5T286 41q87 0 148 53t76 145z"/><glyph glyph-name="c" unicode="c" horiz-adv-x="495" d="M37 246q13 83 62 140.5t109 81T333 491q84 0 143-42l-9-53q-50 43-130 43-55 0-104-19t-89-65.5T93 240q-16-97 35-148t139-51q79 0 155 42l-9-59q-71-35-158-35-106 0-171.5 67T37 246z"/><glyph glyph-name="d" unicode="d" horiz-adv-x="618" d="M548 700h56L493 0h-50l16 102Q376-11 239-11 135-11 77 61.5T37 245q17 109 93.5 177.5T309 491q69 0 117.5-31t70.5-79zm-62-393q-13 57-58.5 94.5T316 439q-83 0-146-53T92 241q-14-89 31.5-144.5T247 41q69 0 127.5 39t89.5 96z"/><glyph glyph-name="e" unicode="e" horiz-adv-x="547" d="M36 242q18 117 97.5 183T309 491q64 0 109.5-25.5t64-66 22-90T488 212H89q-8-85 47.5-128T274 41q91 0 168 40l-9-57q-70-35-168-35-49 0-93 15.5T93 50t-51 80-6 112zm410 20q4 22 5.5 45.5t-7.5 47-24 42.5-44 30.5-67 11.5q-75 0-135.5-47.5T96 262h350z"/><glyph glyph-name="f" unicode="f" horiz-adv-x="369" d="M152 557q13 81 65.5 117.5T341 711q63 0 111-23l-9-51q-41 22-96 22-121 0-139-108l-11-71h193l-8-53H188L121 0H64l68 427H45l8 53h87z"/><glyph glyph-name="g" unicode="g" horiz-adv-x="619" d="M494-2q-18-117-98-173t-187-56q-115 0-190 48l9 54q72-50 176-50 91 0 155 44T437 2l15 91q-36-46-91-75T239-11Q134-11 76.5 61.5T37 245q17 109 95 177.5T312 491q134 0 189-116l16 105h53zM92 241q-14-89 30.5-144.5T247 41q69 0 127.5 37.5T464 171l22 136q-13 57-58 94.5T316 439q-83 0-146-53T92 241z"/><glyph glyph-name="h" unicode="h" horiz-adv-x="584" d="M144 700h57l-49-303q90 94 198 94 85 0 130-54t32-143L465 0h-57l46 291q12 72-21 110t-96 38q-56 0-108.5-33T141 327L90 0H33z"/><glyph glyph-name="i" unicode="i" horiz-adv-x="221" d="M93 0H36l76 480h57zm109 622q-6-34-42-34-17 0-27.5 11t-7.5 30q5 35 42 35 17 0 27.5-11.5T202 622z"/><glyph glyph-name="j" unicode="j" horiz-adv-x="221" d="M76-102q-10-69-51-99t-95-30q-41 0-74 14l8 50q26-12 56-12 87 0 102 89l90 570h57zm126 724q-6-34-42-34-17 0-27.5 11t-7.5 30q5 35 42 35 17 0 27.5-11.5T202 622z"/><glyph glyph-name="k" unicode="k" horiz-adv-x="508" d="M444 480h68L285 246 457 0h-64L235 226H125L90 0H33l111 700h57l-67-422h114z"/><glyph glyph-name="l" unicode="l" horiz-adv-x="221" d="M152 730h57L93 0H36z"/><glyph glyph-name="m" unicode="m" horiz-adv-x="893" d="M477 399q94 92 195 92 82 0 122.5-53.5T822 301L774 0h-56l48 306q10 60-18 96.5T663 439q-92 0-175-95 0-20-3-43L437 0h-57l49 306q9 60-18.5 96.5T326 439q-95 0-183-103L90 0H33l76 480h51l-14-82q33 36 83 64.5T334 491q54 0 91-24.5t52-67.5z"/><glyph glyph-name="n" unicode="n" horiz-adv-x="584" d="M145 391q92 100 206 100 84 0 129-54.5T512 294L465 0h-57l46 291q12 72-21 110t-96 38q-56 0-108.5-33T141 328L90 0H33l76 480h51z"/><glyph glyph-name="o" unicode="o" horiz-adv-x="593" d="M540 235Q522 120 437.5 54.5T250-11q-47 0-89.5 17.5T87 55.5t-45 81T37 245q18 115 102.5 180.5T327 491q101 0 166.5-69.5T540 235zm-448 3q-14-89 33.5-142T254 43q85 0 150.5 53.5T485 242q14 89-33.5 142T323 437q-85 0-151-53.5T92 238z"/><glyph glyph-name="p" unicode="p" horiz-adv-x="619" d="M144 378q86 113 220 113 102 0 160.5-72.5T566 235q-17-109-95-177.5T290-11q-69 0-115.5 31.5T106 103L55-220H-2l111 700h51zm366-139q15 89-30.5 144.5T355 439q-68 0-126.5-39T138 303l-21-130q13-57 58.5-94.5T287 41q83 0 145.5 53T510 239z"/><glyph glyph-name="q" unicode="q" horiz-adv-x="618" d="M37 245q17 109 95.5 177.5T312 491q67 0 116-32t73-83l17 104h51L458-220h-56l50 315q-36-47-91-76.5T239-11Q135-11 77 61.5T37 245zm449 63q-13 56-59 93.5T316 439q-82 0-145.5-53.5T92 241q-14-90 31-145t124-55q69 0 127.5 38.5T464 175z"/><glyph glyph-name="r" unicode="r" horiz-adv-x="356" d="M143 371q79 127 230 119l-9-58q-74 8-136-33t-92-107L90 0H33l76 480h51z"/><glyph glyph-name="s" unicode="s" horiz-adv-x="462" d="M57 365q9 63 67 94.5T256 491q95 0 161-42l-8-52q-64 43-155 43-54 0-94.5-20T113 360q-5-34 25.5-55.5t76-34T305 243t73-47 20-81q-10-65-68.5-95.5T191-11Q81-11 13 38l9 56q69-53 171-53 60 0 101.5 19.5T342 121q5 33-24.5 54.5t-75 34-90.5 28-73.5 47T57 365z"/><glyph glyph-name="t" unicode="t" horiz-adv-x="389" d="M157 631l59 17-27-168h202l-8-53H181l-45-281q-9-56 14-80.5T227 41q57 0 111 27l-9-55q-49-24-119-24-68 0-105.5 39.5T79 141l46 286H35l8 53h90z"/><glyph glyph-name="u" unicode="u" horiz-adv-x="583" d="M477 480h57L458 0h-51l15 89q-33-41-87-70.5T222-11q-87 0-133.5 54.5T56 188l46 292h57l-46-291q-12-72 20.5-110T230 41q60 0 110.5 32t84.5 80z"/><glyph glyph-name="v" unicode="v" horiz-adv-x="530" d="M481 480h62L249 0h-60L48 480h59L227 64z"/><glyph glyph-name="w" unicode="w" horiz-adv-x="795" d="M742 480h61L555 0h-59l-79 399L208 0h-61L51 480h57l81-408 212 405h51l81-404z"/><glyph glyph-name="x" unicode="x" horiz-adv-x="486" d="M35 0h-67l236 247L56 480h64l121-194 185 194h67L268 245 426 0h-64L232 206z"/><glyph glyph-name="y" unicode="y" horiz-adv-x="535" d="M238 58l247 422h62L215-80Q125-231 22-231q-30 0-52 7l7 48q17-5 40-5 43 0 78.5 30T169-57l34 57L43 480h57z"/><glyph glyph-name="z" unicode="z" horiz-adv-x="457" d="M77 480h364l-9-50L66 50h319l-8-50H-12l8 50 367 380H69z"/><glyph glyph-name="braceleft" unicode="{" horiz-adv-x="287" d="M191-60l-8-51q-68-12-97.5 17.5T66-3l39 243q13 84-71 84l8 52q84 0 98 90l39 243q21 127 150 100l-8-49q-40 7-59.5-12.5T234 679l-36-229q-14-83-80-101 62-14 47-104L129 16q-7-45 6-63.5T191-60z"/><glyph glyph-name="bar" unicode="|" horiz-adv-x="206" d="M71-100H12l144 910h59z"/><glyph glyph-name="braceright" unicode="}" horiz-adv-x="285" d="M126-8Q105-138-24-109l8 52q39-9 59 8.5T70 13l38 243q15 87 86 97-30 7-45.5 33.5T140 457l37 230q7 47-6 64.5T114 762l8 49q67 13 96.5-17t19.5-91l-38-242q-7-46 13.5-66.5T269 374l-7-50q-37 0-64-22t-34-68z"/><glyph glyph-name="asciitilde" unicode="~" horiz-adv-x="582" d="M525 377q-3-49-33-77t-76-28q-38 0-118.5 31T184 334q-26 0-42.5-14T124 282H71q4 49 34.5 77t74.5 28q40 0 119-30.5T413 326q25 0 41.5 13.5T472 377h53z"/><glyph glyph-name="exclamdown" unicode="¡" horiz-adv-x="203" d="M50-217H-9l85 511h50zm115 666q-6-34-41-34-18 0-28.5 11.5T89 457q2 16 14 25t27 9q18 0 28.5-11.5T165 449z"/><glyph glyph-name="cent" unicode="¢" horiz-adv-x="511" d="M481 449l-9-53q-49 41-123 43L287 41q73 5 140 42l-9-59Q354-6 278-11l-17-109h-50L229-9Q134 1 79 66.5T42 246q9 58 35.5 104t64 74.5 79.5 45 87 20.5l17 110h50l-17-110q68-3 123-41zm-182-13q-75-12-131-61T98 240t25.5-136.5T237 43z"/><glyph glyph-name="sterling" unicode="£" horiz-adv-x="603" d="M517 0H-6l9 57h34q34 0 58 24.5t31 66.5l25 161H68l9 55h83l16 99q12 81 53.5 134t92.5 73.5T434 691q81 0 142-39l-9-55q-57 39-136 39-73 0-127.5-42.5T234 458l-15-94h237l-9-55H211l-27-165q-10-69-55-89l398 2z"/><glyph glyph-name="currency" unicode="¤" horiz-adv-x="575" d="M160 195l-76-65-34 40 73 63q-33 49-23 121 12 69 59 116l-51 60 45 40 54-64q53 33 117 33t111-34l75 65 34-40-73-63q33-51 22-121-10-67-58-116l52-60-46-40-54 64q-53-33-117-33-63 0-110 34zm-3 151q-10-60 23-96t93-36q62 0 108.5 38.5T438 354q10 60-23 96t-93 36q-62 0-108.5-38T157 346z"/><glyph glyph-name="yen" unicode="¥" horiz-adv-x="655" d="M613 680h66L386 317h150l-8-50H351l-12-74h178l-8-50H331L308 0h-59l23 143H95l8 50h177l12 74H115l8 50h150L95 680h64l170-355z"/><glyph glyph-name="brokenbar" unicode="¦" horiz-adv-x="223" d="M168 459h-59l55 351h59zM79-100H20l56 351h59z"/><glyph glyph-name="section" unicode="§" horiz-adv-x="493" d="M398 90q-10-62-67.5-93T194-34Q94-34 26 12l8 53q70-49 159-49 61 0 102 19.5T342 96q3 17-3.5 31.5t-16 23.5-29.5 18-35 14-43 13q-30 9-48 15t-42.5 18.5-36.5 26-19 36-2 49.5q11 75 110 130-73 38-62 113 10 62 66.5 94.5T310 711q83 0 153-41l-8-52q-60 43-144 43-53 0-93-22t-46-61q-3-18 4-32t16.5-23 32.5-18.5 37-13.5 45-13q36-10 59-19.5t47-25.5 33.5-41 3.5-58q-12-74-114-129 74-38 62-115zM235 243q10-3 27.5-7.5T287 229q41 15 72 42.5t37 61.5q3 22-3.5 37.5t-25 27T334 415t-45 16q-7 2-19.5 5.5t-22.5 6-18 5.5q-39-14-70-43t-36-63q-3-18 3-32t13-22.5 28-18.5 30-13 38-13z"/><glyph glyph-name="dieresis" unicode="¨" horiz-adv-x="291" d="M399 833q-2-16-15-27t-29-11q-19 0-30 13.5t-8 31.5q3 15 16 26.5t29 11.5q18 0 29-14t8-31zm-201 0q-2-16-15-27t-29-11q-19 0-30 13.5t-8 31.5q3 15 16 26.5t29 11.5q18 0 29-14t8-31z"/><glyph glyph-name="copyright" unicode="©" horiz-adv-x="851" d="M809 345q-13-86-57-156T647.5 76.5t-129-65T381-11q-67 0-129 24T141.5 81 70 196.5 61 355q11 69 42 128.5T177 584t95.5 70T380 697t109 14q67 0 129-24t110.5-68T800 503.5t9-158.5zM558 182q-66-33-138-33-80 0-133 52t-38 146q16 101 86.5 152.5T489 551q71 0 119-35l-4-42q-47 33-109 33-71 0-128-40.5T297 342q-12-75 28-112t106-37 131 34zM84 355q-13-80 7.5-147T156 99.5 258 35t121-23q65 0 130 21t123 60.5 99.5 105T786 345q13 80-7.5 147t-64 108.5T613 665t-121 23q-66 0-131-21t-123-60.5-99.5-105T84 355z"/><glyph glyph-name="guillemotleft" unicode="«" horiz-adv-x="462" d="M365 63h-60l-94 171 2 14 147 169h62L268 240zm-172 0h-60L39 234l2 14 147 169h62L96 240z"/><glyph glyph-name="logicalnot" unicode="¬" horiz-adv-x="575" d="M498 284h-57l23 142H83l8 54h438z"/><glyph glyph-name="registered" unicode="®" horiz-adv-x="851" d="M809 345q-13-86-57-156T647.5 76.5t-129-65T381-11q-67 0-129 24T141.5 81 70 196.5 61 355q11 69 42 128.5T177 584t95.5 70T380 697t109 14q67 0 129-24t110.5-68T800 503.5t9-158.5zM84 355q-13-80 7.5-147T156 99.5 258 35t121-23q65 0 130 21t123 60.5 99.5 105T786 345q13 80-7.5 147t-64 108.5T613 665t-121 23q-66 0-131-21t-123-60.5-99.5-105T84 355zm227-203h-43l62 394h160q19 0 37.5-3t37.5-12 32.5-22.5 20-36.5 1.5-52q-14-86-105-109l86-159h-48l-82 153q-8-1-22-1H335zm55 352l-25-158h113q109 0 123 81 4 26-4 42.5T547.5 493t-31.5 9-34 2H366z"/><glyph glyph-name="macron" unicode="¯" horiz-adv-x="333" d="M140 847h280l-8-52H132z"/><glyph glyph-name="degree" unicode="°" horiz-adv-x="392" d="M388 564q-10-66-59-104.5T219 421q-62 0-102 41.5T88 573q11 65 61 103.5T259 715q61 0 100.5-42T388 564zm-257 5q-7-47 18.5-76.5T219 463q48 0 84 28t44 77q7 46-18.5 75T259 672q-48 0-84-27.5T131 569z"/><glyph glyph-name="plusminus" unicode="±" horiz-adv-x="577" d="M366 591l-30-191h192l-9-54H328l-31-192h-54l31 192H82l8 54h192l30 191h54zM464 0H27l9 54h437z"/><glyph glyph-name="acute" unicode="´" horiz-adv-x="177" d="M191 773h-63l112 142h72z"/><glyph glyph-name="paragraph" unicode="¶" horiz-adv-x="619" d="M232-220h-59l81 507q-102 0-152.5 55.5T67 497q15 96 81.5 149.5T317 700h283L454-220h-59l136 863H369z"/><glyph glyph-name="periodcentered" unicode="·" horiz-adv-x="214" d="M138 235q-6-35-42-35-18 0-29 11.5T59 243q3 17 15 26t28 9q18 0 28.5-11.5T138 235z"/><glyph glyph-name="cedilla" unicode="¸" horiz-adv-x="213" d="M55 0h49L74-73q46 5 76.5-15t25.5-60q-6-40-40.5-61.5T46-231t-104 21l8 46q40-21 91-21 80 0 87 42 2 18-14.5 28t-43 10-57.5-6z"/><glyph glyph-name="guillemotright" unicode="»" horiz-adv-x="462" d="M257 63h-62l154 177-96 177h59l95-171-3-14zM86 63H24l154 177-96 177h59l95-171-3-14z"/><glyph glyph-name="onequarter" unicode="¼" horiz-adv-x="940" d="M792 408h54l-43-271h77l-7-46h-77L781 0h-48l14 91H519l7 45zm-38-271l32 202-198-202h166zM189-12h-29l572 723h29zm32 692h37l-57-361h73l-8-47H51l7 47h93l49 309-92-34 8 48z"/><glyph glyph-name="onehalf" unicode="½" horiz-adv-x="893" d="M184-12h-29l572 723h29zm410 390q64 37 134 37 58 0 95-30.5t28-82.5q-13-77-136-140-33-17-46.5-25T633 114t-32.5-31T586 47h229l-8-47H520l4 26q5 35 19.5 62.5t41 48.5 45.5 32.5 55 29.5q54 27 82.5 51.5T802 308q5 29-17 45t-59 16q-69 0-140-44zM216 680h37l-57-361h73l-8-47H46l7 47h93l49 309-92-34 8 48z"/><glyph glyph-name="threequarters" unicode="¾" horiz-adv-x="992" d="M257-12h-29l572 723h29zm586 420h54l-43-271h77l-7-46h-77L832 0h-48l14 91H570l7 45zm-38-271l32 202-198-202h166zM373 577q-5-31-26-55t-55-34q33-8 53.5-34.5T359 383q-9-55-55.5-84.5T191 269q-78 0-136 28l8 48q53-29 126-29 112 0 123 77 6 38-17.5 54T225 463h-64l7 47h57q43 0 69.5 19.5T326 580q4 29-19.5 46.5T242 644q-65 0-130-31l8 51q60 27 130 27 58 0 94-33t29-81z"/><glyph glyph-name="questiondown" unicode="¿" horiz-adv-x="483" d="M377-176q-96-54-199-54-96 0-153 45T-20-61q6 39 32.5 78.5T72 89t66.5 63 58.5 65 30 65h56q-7-45-44-93t-78-83-77.5-81T40-63q-9-55 31-82.5T190-173q100 0 197 58zm-56 625q-3-17-15-26t-28-9q-18 0-28.5 11.5T243 456q2 17 14 26t28 9q18 0 29-11.5t7-30.5z"/><glyph glyph-name="Agrave" unicode="À" horiz-adv-x="714" d="M656 0h-62l-53 188H145L33 0h-67l422 700h68zM402 616L178 244h349L421 617q-4 16-5 24-4-9-14-25zm80 157h-61l-76 142h69z"/><glyph glyph-name="Aacute" unicode="Á" horiz-adv-x="714" d="M656 0h-62l-53 188H145L33 0h-67l422 700h68zM402 616L178 244h349L421 617q-4 16-5 24-4-9-14-25zm49 157h-63l112 142h72z"/><glyph glyph-name="Acircumflex" unicode="Â" horiz-adv-x="714" d="M656 0h-62l-53 188H145L33 0h-67l422 700h68zM402 616L178 244h349L421 617q-4 16-5 24-4-9-14-25zm25 295h51l108-137h-62l-76 94-105-94h-67z"/><glyph glyph-name="Atilde" unicode="Ã" horiz-adv-x="714" d="M656 0h-62l-53 188H145L33 0h-67l422 700h68zM402 616L178 244h349L421 617q-4 16-5 24-4-9-14-25zm197 250q-1-44-24.5-68T516 774q-32 0-82 24t-69 24-30-11.5-11-31.5h-49q1 44 24.5 68.5T357 872q32 0 82.5-24t69.5-24q41 0 41 42h49z"/><glyph glyph-name="Adieresis" unicode="Ä" horiz-adv-x="714" d="M656 0h-62l-53 188H145L33 0h-67l422 700h68zM402 616L178 244h349L421 617q-4 16-5 24-4-9-14-25zm179 217q-2-16-15-27t-29-11q-19 0-30 13.5t-8 31.5q3 15 16 26.5t29 11.5q18 0 29-14t8-31zm-201 0q-2-16-15-27t-29-11q-19 0-30 13.5t-8 31.5q3 15 16 26.5t29 11.5q18 0 29-14t8-31z"/><glyph glyph-name="Aring" unicode="Å" horiz-adv-x="714" d="M656 0h-62l-53 188H145L33 0h-67l422 700h68zM402 616L178 244h349L421 617q-4 16-5 24-4-9-14-25zm147 229q-7-43-40-69t-74-26q-42 0-69.5 28.5T345 852q7 42 40.5 68t74.5 26q42 0 69-28.5t20-72.5zm-161 3q-4-25 10-41.5t37-16.5q26 0 47 15.5t25 42.5q4 25-10 41.5T460 906q-26 0-47-15.5T388 848z"/><glyph glyph-name="AE" unicode="Æ" horiz-adv-x="1000" d="M1007 700l-9-57H623l-41-262h345l-9-57H573L530 57h382l-9-57H462l30 190H178L16 0h-72l602 700h461zM224 244h276l63 395z"/><glyph glyph-name="Ccedilla" unicode="Ç" horiz-adv-x="647" d="M653 606q-67 49-170 49-80 0-155.5-31.5T193 522t-75-166q-12-77 6.5-138.5t59-98T275 64t108-19q108 0 194 52l-10-64Q489-8 382-11l-25-62q46 5 76.5-15t25.5-60q-6-40-40.5-61.5T329-231t-104 21l8 46q40-21 91-21 80 0 87 42 2 18-14.5 28t-43 10-57.5-6L335-9q-62 6-116 32.5T123.5 95 64 210t-4 154q18 109 86 190.5t154.5 119T477 711q107 0 185-48z"/><glyph glyph-name="Egrave" unicode="È" horiz-adv-x="621" d="M163 700h465l-9-57H213l-41-262h375l-8-57H163L121 57h411l-9-57H52zm293 73h-61l-76 142h69z"/><glyph glyph-name="Eacute" unicode="É" horiz-adv-x="621" d="M163 700h465l-9-57H213l-41-262h375l-8-57H163L121 57h411l-9-57H52zm262 73h-63l112 142h72z"/><glyph glyph-name="Ecircumflex" unicode="Ê" horiz-adv-x="621" d="M163 700h465l-9-57H213l-41-262h375l-8-57H163L121 57h411l-9-57H52zm238 211h51l108-137h-62l-76 94-105-94h-67z"/><glyph glyph-name="Edieresis" unicode="Ë" horiz-adv-x="621" d="M163 700h465l-9-57H213l-41-262h375l-8-57H163L121 57h411l-9-57H52zm392 133q-2-16-15-27t-29-11q-19 0-30 13.5t-8 31.5q3 15 16 26.5t29 11.5q18 0 29-14t8-31zm-201 0q-2-16-15-27t-29-11q-19 0-30 13.5t-8 31.5q3 15 16 26.5t29 11.5q18 0 29-14t8-31z"/><glyph glyph-name="Igrave" unicode="Ì" horiz-adv-x="255" d="M163 700h59L111 0H52zm89 73h-61l-76 142h69z"/><glyph glyph-name="Iacute" unicode="Í" horiz-adv-x="255" d="M163 700h59L111 0H52zm58 73h-63l112 142h72z"/><glyph glyph-name="Icircumflex" unicode="Î" horiz-adv-x="255" d="M163 700h59L111 0H52zm34 211h51l108-137h-62l-76 94-105-94H46z"/><glyph glyph-name="Idieresis" unicode="Ï" horiz-adv-x="255" d="M163 700h59L111 0H52zm188 133q-2-16-15-27t-29-11q-19 0-30 13.5t-8 31.5q3 15 16 26.5t29 11.5q18 0 29-14t8-31zm-201 0q-2-16-15-27t-29-11q-19 0-30 13.5T68 840q3 15 16 26.5t29 11.5q18 0 29-14t8-31z"/><glyph glyph-name="Eth" unicode="Ð" horiz-adv-x="737" d="M165 700h214q177 0 260-98t58-256Q672 189 564 94.5T272 0H54l51 322H31l8 54h74zM278 57q153 0 245 79.5T637 354q22 135-44.5 212T373 643H214l-42-267h232l-9-54H164L122 57h156z"/><glyph glyph-name="Ntilde" unicode="Ñ" horiz-adv-x="768" d="M111 0H52l111 700h50L581 96q1 11 4 30.5t4 30.5l87 543h59L624 0h-50L206 605q-1-12-4-31.5t-4-29.5zm516 866q-1-44-24.5-68T544 774q-32 0-82 24t-69 24-30-11.5-11-31.5h-49q1 44 24.5 68.5T385 872q32 0 82.5-24t69.5-24q41 0 41 42h49z"/><glyph glyph-name="Ograve" unicode="Ò" horiz-adv-x="822" d="M784 346q-11-68-43-130.5t-83-114-127-82T366-11q-111 0-188 54.5T72 180 57 354q11 68 44.5 131t85 114 127 81.5T475 711q84 0 150-31.5T728 596t52-117 4-133zm-667 4q-5-44-2-87t22.5-82.5 49-69.5 77-48T370 45q145 0 240.5 90.5T725 350q5 44 2 87t-22.5 82.5-49 69.5-77 48T472 655q-145 0-240.5-90.5T117 350zm419 423h-61l-76 142h69z"/><glyph glyph-name="Oacute" unicode="Ó" horiz-adv-x="822" d="M784 346q-11-68-43-130.5t-83-114-127-82T366-11q-111 0-188 54.5T72 180 57 354q11 68 44.5 131t85 114 127 81.5T475 711q84 0 150-31.5T728 596t52-117 4-133zm-667 4q-5-44-2-87t22.5-82.5 49-69.5 77-48T370 45q145 0 240.5 90.5T725 350q5 44 2 87t-22.5 82.5-49 69.5-77 48T472 655q-145 0-240.5-90.5T117 350zm388 423h-63l112 142h72z"/><glyph glyph-name="Ocircumflex" unicode="Ô" horiz-adv-x="822" d="M784 346q-11-68-43-130.5t-83-114-127-82T366-11q-111 0-188 54.5T72 180 57 354q11 68 44.5 131t85 114 127 81.5T475 711q84 0 150-31.5T728 596t52-117 4-133zm-667 4q-5-44-2-87t22.5-82.5 49-69.5 77-48T370 45q145 0 240.5 90.5T725 350q5 44 2 87t-22.5 82.5-49 69.5-77 48T472 655q-145 0-240.5-90.5T117 350zm364 561h51l108-137h-62l-76 94-105-94h-67z"/><glyph glyph-name="Otilde" unicode="Õ" horiz-adv-x="822" d="M784 346q-11-68-43-130.5t-83-114-127-82T366-11q-111 0-188 54.5T72 180 57 354q11 68 44.5 131t85 114 127 81.5T475 711q84 0 150-31.5T728 596t52-117 4-133zm-667 4q-5-44-2-87t22.5-82.5 49-69.5 77-48T370 45q145 0 240.5 90.5T725 350q5 44 2 87t-22.5 82.5-49 69.5-77 48T472 655q-145 0-240.5-90.5T117 350zm536 516q-1-44-24.5-68T570 774q-32 0-82 24t-69 24-30-11.5-11-31.5h-49q1 44 24.5 68.5T411 872q32 0 82.5-24t69.5-24q41 0 41 42h49z"/><glyph glyph-name="Odieresis" unicode="Ö" horiz-adv-x="822" d="M784 346q-11-68-43-130.5t-83-114-127-82T366-11q-111 0-188 54.5T72 180 57 354q11 68 44.5 131t85 114 127 81.5T475 711q84 0 150-31.5T728 596t52-117 4-133zm-667 4q-5-44-2-87t22.5-82.5 49-69.5 77-48T370 45q145 0 240.5 90.5T725 350q5 44 2 87t-22.5 82.5-49 69.5-77 48T472 655q-145 0-240.5-90.5T117 350zm518 483q-2-16-15-27t-29-11q-19 0-30 13.5t-8 31.5q3 15 16 26.5t29 11.5q18 0 29-14t8-31zm-201 0q-2-16-15-27t-29-11q-19 0-30 13.5t-8 31.5q3 15 16 26.5t29 11.5q18 0 29-14t8-31z"/><glyph glyph-name="multiply" unicode="×" horiz-adv-x="458" d="M233 315L81 184l-31 37 151 130L91 481l41 37 110-130 151 130 32-37-152-130 110-131-41-36z"/><glyph glyph-name="Oslash" unicode="Ø" horiz-adv-x="822" d="M98-48H39L144 71q-55 52-77 127T57 354q11 68 44.5 131t85 114 127 81.5T475 711q111 0 189-54l80 91h59L697 629q55-52 77.5-127t9.5-156q-11-68-43-130.5t-83-114-127-82T366-11q-110 0-188 54zm18 398q-10-66 6.5-128.5T183 115l441 498q-63 42-152 42-145 0-241-90.5T116 350zM217 87q63-42 153-42 145 0 240.5 90.5T725 350q22 147-67 235z"/><glyph glyph-name="Ugrave" unicode="Ù" horiz-adv-x="753" d="M669 700h59l-71-452Q635 111 549 50T336-11q-61 0-110 14t-86 44-52 82-4 123l71 448h59l-71-450Q111 45 335 45q230 0 264 209zm-174 73h-61l-76 142h69z"/><glyph glyph-name="Uacute" unicode="Ú" horiz-adv-x="753" d="M669 700h59l-71-452Q635 111 549 50T336-11q-61 0-110 14t-86 44-52 82-4 123l71 448h59l-71-450Q111 45 335 45q230 0 264 209zm-205 73h-63l112 142h72z"/><glyph glyph-name="Ucircumflex" unicode="Û" horiz-adv-x="753" d="M669 700h59l-71-452Q635 111 549 50T336-11q-61 0-110 14t-86 44-52 82-4 123l71 448h59l-71-450Q111 45 335 45q230 0 264 209zM440 911h51l108-137h-62l-76 94-105-94h-67z"/><glyph glyph-name="Udieresis" unicode="Ü" horiz-adv-x="753" d="M669 700h59l-71-452Q635 111 549 50T336-11q-61 0-110 14t-86 44-52 82-4 123l71 448h59l-71-450Q111 45 335 45q230 0 264 209zm-75 133q-2-16-15-27t-29-11q-19 0-30 13.5t-8 31.5q3 15 16 26.5t29 11.5q18 0 29-14t8-31zm-201 0q-2-16-15-27t-29-11q-19 0-30 13.5t-8 31.5q3 15 16 26.5t29 11.5q18 0 29-14t8-31z"/><glyph glyph-name="Yacute" unicode="Ý" horiz-adv-x="643" d="M305 0h-60l44 273L82 700h62l181-370 299 370h68L349 273zm104 773h-63l112 142h72z"/><glyph glyph-name="Thorn" unicode="Þ" horiz-adv-x="655" d="M202 572h171q60 0 108.5-11t87.5-36 56-70.5 7-108.5q-36-218-328-218H132L111 0H52l111 700h59zm-62-388h172q233 0 260 170 14 90-42.5 126T371 516H193z"/><glyph glyph-name="germandbls" unicode="ß" horiz-adv-x="594" d="M534 145q-13-77-77.5-116.5T311-11q-73 0-126 28l8 49q48-27 109-27 67 0 117 28.5t59 87.5q5 34-13.5 68T421 280.5 376.5 333 361 386q4 27 27 54t47 58 29 66q6 40-25 68.5T350 661q-71 0-120-41t-60-113L90 0H33l79 502q16 99 79.5 154T350 711q89 1 134.5-45T521 563q-6-37-30.5-69T443 436t-26-49q-3-18 10-37.5t32.5-39.5 38.5-43 30.5-55 5.5-67z"/><glyph glyph-name="agrave" unicode="à" horiz-adv-x="618" d="M458 99Q371-11 239-11 135-11 77 61.5T37 245q17 109 95.5 177.5T312 491q68 0 116.5-31.5T502 379l16 101h51L493 0h-51zM92 241q-14-90 31-145t124-55q69 0 127.5 38.5T464 175l21 132q-12 56-58 94t-111 38q-82 0-145.5-53.5T92 241zm298 312h-61l-76 142h69z"/><glyph glyph-name="aacute" unicode="á" horiz-adv-x="618" d="M458 99Q371-11 239-11 135-11 77 61.5T37 245q17 109 95.5 177.5T312 491q68 0 116.5-31.5T502 379l16 101h51L493 0h-51zM92 241q-14-90 31-145t124-55q69 0 127.5 38.5T464 175l21 132q-12 56-58 94t-111 38q-82 0-145.5-53.5T92 241zm267 312h-63l112 142h72z"/><glyph glyph-name="acircumflex" unicode="â" horiz-adv-x="618" d="M458 99Q371-11 239-11 135-11 77 61.5T37 245q17 109 95.5 177.5T312 491q68 0 116.5-31.5T502 379l16 101h51L493 0h-51zM92 241q-14-90 31-145t124-55q69 0 127.5 38.5T464 175l21 132q-12 56-58 94t-111 38q-82 0-145.5-53.5T92 241zm243 450h51l108-137h-62l-76 94-105-94h-67z"/><glyph glyph-name="atilde" unicode="ã" horiz-adv-x="618" d="M458 99Q371-11 239-11 135-11 77 61.5T37 245q17 109 95.5 177.5T312 491q68 0 116.5-31.5T502 379l16 101h51L493 0h-51zM92 241q-14-90 31-145t124-55q69 0 127.5 38.5T464 175l21 132q-12 56-58 94t-111 38q-82 0-145.5-53.5T92 241zm415 405q-1-44-24.5-68T424 554q-32 0-82 24t-69 24-30-11.5-11-31.5h-49q1 44 24.5 68.5T265 652q32 0 82.5-24t69.5-24q41 0 41 42h49z"/><glyph glyph-name="adieresis" unicode="ä" horiz-adv-x="618" d="M458 99Q371-11 239-11 135-11 77 61.5T37 245q17 109 95.5 177.5T312 491q68 0 116.5-31.5T502 379l16 101h51L493 0h-51zM92 241q-14-90 31-145t124-55q69 0 127.5 38.5T464 175l21 132q-12 56-58 94t-111 38q-82 0-145.5-53.5T92 241zm397 372q-2-16-15-27t-29-11q-19 0-30 13.5t-8 31.5q3 15 16 26.5t29 11.5q18 0 29-14t8-31zm-201 0q-2-16-15-27t-29-11q-19 0-30 13.5t-8 31.5q3 15 16 26.5t29 11.5q18 0 29-14t8-31z"/><glyph glyph-name="aring" unicode="å" horiz-adv-x="618" d="M458 99Q371-11 239-11 135-11 77 61.5T37 245q17 109 95.5 177.5T312 491q68 0 116.5-31.5T502 379l16 101h51L493 0h-51zM92 241q-14-90 31-145t124-55q69 0 127.5 38.5T464 175l21 132q-12 56-58 94t-111 38q-82 0-145.5-53.5T92 241zm365 384q-7-43-40-69t-74-26q-42 0-69.5 28.5T253 632q7 42 40.5 68t74.5 26q42 0 69-28.5t20-72.5zm-161 3q-4-25 10-41.5t37-16.5q26 0 47 15.5t25 42.5q4 25-10 41.5T368 686q-26 0-47-15.5T296 628z"/><glyph glyph-name="ae" unicode="æ" horiz-adv-x="992" d="M458 99Q371-11 239-11 135-11 77 61.5T37 245q17 109 95.5 177.5T312 491q68 0 116.5-31.5T502 379l16 101h51l-16-106q35 57 90.5 87T762 491q65 0 109-25.5t61.5-66.5 18-89.5T933 212H534q-8-85 47.5-128T719 41q88 0 165 40l-9-57q-70-35-166-35-66 0-122.5 32T512 114L493 0h-51zM92 241q-14-90 31-145t124-55q69 0 127.5 38.5T464 175l21 132q-12 55-58 93.5T316 439q-82 0-145.5-53.5T92 241zm664 198q-77 0-138-49t-76-128h349q10 27 6 58t-16 57.5-44.5 44T756 439z"/><glyph glyph-name="ccedilla" unicode="ç" horiz-adv-x="495" d="M467 396q-50 43-130 43-86 0-156.5-49.5T93 240q-15-97 36-148t139-51q77 0 155 42l-9-59Q349-8 269-11l-25-62q46 5 76.5-15t25.5-60q-6-40-40.5-61.5T216-231q-54 0-103 21l8 46q40-21 91-21 81 0 86 42 4 26-33 35t-82-3L222-9Q129 2 74.5 67.5T38 246q19 121 105.5 183T333 491q85 0 144-42z"/><glyph glyph-name="egrave" unicode="è" horiz-adv-x="547" d="M36 242q18 117 97.5 183T309 491q64 0 109.5-25.5t64-66 22-90T488 212H89q-8-85 47.5-128T274 41q91 0 168 40l-9-57q-70-35-168-35-49 0-93 15.5T93 50t-51 80-6 112zm410 20q4 22 5.5 45.5t-7.5 47-24 42.5-44 30.5-67 11.5q-75 0-135.5-47.5T96 262h350zm-77 291h-61l-76 142h69z"/><glyph glyph-name="eacute" unicode="é" horiz-adv-x="547" d="M36 242q18 117 97.5 183T309 491q64 0 109.5-25.5t64-66 22-90T488 212H89q-8-85 47.5-128T274 41q91 0 168 40l-9-57q-70-35-168-35-49 0-93 15.5T93 50t-51 80-6 112zm410 20q4 22 5.5 45.5t-7.5 47-24 42.5-44 30.5-67 11.5q-75 0-135.5-47.5T96 262h350zM338 553h-63l112 142h72z"/><glyph glyph-name="ecircumflex" unicode="ê" horiz-adv-x="547" d="M36 242q18 117 97.5 183T309 491q64 0 109.5-25.5t64-66 22-90T488 212H89q-8-85 47.5-128T274 41q91 0 168 40l-9-57q-70-35-168-35-49 0-93 15.5T93 50t-51 80-6 112zm410 20q4 22 5.5 45.5t-7.5 47-24 42.5-44 30.5-67 11.5q-75 0-135.5-47.5T96 262h350zM314 691h51l108-137h-62l-76 94-105-94h-67z"/><glyph glyph-name="edieresis" unicode="ë" horiz-adv-x="547" d="M36 242q18 117 97.5 183T309 491q64 0 109.5-25.5t64-66 22-90T488 212H89q-8-85 47.5-128T274 41q91 0 168 40l-9-57q-70-35-168-35-49 0-93 15.5T93 50t-51 80-6 112zm410 20q4 22 5.5 45.5t-7.5 47-24 42.5-44 30.5-67 11.5q-75 0-135.5-47.5T96 262h350zm22 351q-2-16-15-27t-29-11q-19 0-30 13.5t-8 31.5q3 15 16 26.5t29 11.5q18 0 29-14t8-31zm-201 0q-2-16-15-27t-29-11q-19 0-30 13.5t-8 31.5q3 15 16 26.5t29 11.5q18 0 29-14t8-31z"/><glyph glyph-name="igrave" unicode="ì" horiz-adv-x="221" d="M191 553h-57L81 695h69zM93 0H36l76 480h57z"/><glyph glyph-name="iacute" unicode="í" horiz-adv-x="221" d="M93 0H36l76 480h57zm77 553h-63l112 142h72z"/><glyph glyph-name="icircumflex" unicode="î" horiz-adv-x="221" d="M93 0H36l76 480h57zM80 554H13l134 137h51l91-137h-61l-59 94z"/><glyph glyph-name="idieresis" unicode="ï" horiz-adv-x="221" d="M93 0H36l76 480h57zm27 613q-2-14-14.5-24.5T78 578q-17 0-27 12.5T44 620q3 14 15 24.5T85 655q17 0 27.5-12.5T120 613zm154 0q-2-14-14.5-24.5T232 578q-17 0-27 12.5t-7 29.5q3 14 15 24.5t26 10.5q17 0 27.5-12.5T274 613z"/><glyph glyph-name="eth" unicode="ð" horiz-adv-x="595" d="M536 265Q515 134 436 61.5T246-11Q139-11 78.5 54.5T35 226q15 95 91 157.5T296 446q76 0 130.5-38T491 306q0 3 1 8t1.5 9.5.5 9.5q13 205-153 280L220 508l-29 33 103 88q-56 17-135 17l6 54q95 0 173-31l101 86 28-33-86-74q199-104 155-383zM91 219q-13-80 31-128t127-48q79 0 134.5 44T464 206q12 86-34.5 136.5T303 393t-140-48.5T91 219z"/><glyph glyph-name="ntilde" unicode="ñ" horiz-adv-x="584" d="M145 391q92 100 206 100 84 0 129-54.5T512 294L465 0h-57l46 291q12 72-21 110t-96 38q-56 0-108.5-33T141 328L90 0H33l76 480h51zm357 255q-1-44-24.5-68T419 554q-32 0-82 24t-69 24-30-11.5-11-31.5h-49q1 44 24.5 68.5T260 652q32 0 82.5-24t69.5-24q41 0 41 42h49z"/><glyph glyph-name="ograve" unicode="ò" horiz-adv-x="593" d="M540 235Q522 120 437.5 54.5T250-11q-47 0-89.5 17.5T87 55.5t-45 81T37 245q18 115 102.5 180.5T327 491q101 0 166.5-69.5T540 235zm-448 3q-14-89 33.5-142T254 43q85 0 150.5 53.5T485 242q14 89-33.5 142T323 437q-85 0-151-53.5T92 238zm291 312h-61l-76 142h69z"/><glyph glyph-name="oacute" unicode="ó" horiz-adv-x="593" d="M540 235Q522 120 437.5 54.5T250-11q-47 0-89.5 17.5T87 55.5t-45 81T37 245q18 115 102.5 180.5T327 491q101 0 166.5-69.5T540 235zm-448 3q-14-89 33.5-142T254 43q85 0 150.5 53.5T485 242q14 89-33.5 142T323 437q-85 0-151-53.5T92 238zm260 312h-63l112 142h72z"/><glyph glyph-name="ocircumflex" unicode="ô" horiz-adv-x="593" d="M540 235Q522 120 437.5 54.5T250-11q-47 0-89.5 17.5T87 55.5t-45 81T37 245q18 115 102.5 180.5T327 491q101 0 166.5-69.5T540 235zm-448 3q-14-89 33.5-142T254 43q85 0 150.5 53.5T485 242q14 89-33.5 142T323 437q-85 0-151-53.5T92 238zm236 450h51l108-137h-62l-76 94-105-94h-67z"/><glyph glyph-name="otilde" unicode="õ" horiz-adv-x="593" d="M540 235Q522 120 437.5 54.5T250-11q-47 0-89.5 17.5T87 55.5t-45 81T37 245q18 115 102.5 180.5T327 491q101 0 166.5-69.5T540 235zm-448 3q-14-89 33.5-142T254 43q85 0 150.5 53.5T485 242q14 89-33.5 142T323 437q-85 0-151-53.5T92 238zm408 405q-1-44-24.5-68T417 551q-32 0-82 24t-69 24-30-11.5-11-31.5h-49q1 44 24.5 68.5T258 649q32 0 82.5-24t69.5-24q41 0 41 42h49z"/><glyph glyph-name="odieresis" unicode="ö" horiz-adv-x="593" d="M540 235Q522 120 437.5 54.5T250-11q-47 0-89.5 17.5T87 55.5t-45 81T37 245q18 115 102.5 180.5T327 491q101 0 166.5-69.5T540 235zm-448 3q-14-89 33.5-142T254 43q85 0 150.5 53.5T485 242q14 89-33.5 142T323 437q-85 0-151-53.5T92 238zm390 372q-2-16-15-27t-29-11q-19 0-30 13.5t-8 31.5q3 15 16 26.5t29 11.5q18 0 29-14t8-31zm-201 0q-2-16-15-27t-29-11q-19 0-30 13.5t-8 31.5q3 15 16 26.5t29 11.5q18 0 29-14t8-31z"/><glyph glyph-name="divide" unicode="÷" horiz-adv-x="635" d="M563 323H83l8 54h480zM330 122q-4-35-42-35-18 0-28.5 11t-7.5 31q6 35 42 35 19 0 29.5-11t6.5-31zm72 447q-6-35-43-35-18 0-28.5 11.5T324 576q2 17 14 26t28 9q19 0 29-11t7-31z"/><glyph glyph-name="oslash" unicode="ø" horiz-adv-x="593" d="M559 543l-84-103q85-75 65-205-18-115-102.5-180.5T250-11q-65 0-117 31L70-59H18l83 102q-85 73-64 202 18 115 102.5 180.5T327 491q63 0 115-29l65 81h52zM322 437q-84 0-150-53.5T92 238q-16-97 44-152l269 332q-35 19-83 19zM254 43q85 0 151 53.5T485 242q16 99-46 154L169 63q38-20 85-20z"/><glyph glyph-name="ugrave" unicode="ù" horiz-adv-x="583" d="M477 480h57L458 0h-51l15 89q-33-41-87-70.5T222-11q-87 0-133.5 54.5T56 188l46 292h57l-46-291q-12-72 20.5-110T230 41q60 0 110.5 32t84.5 80zm-104 73h-61l-76 142h69z"/><glyph glyph-name="uacute" unicode="ú" horiz-adv-x="583" d="M477 480h57L458 0h-51l15 89q-33-41-87-70.5T222-11q-87 0-133.5 54.5T56 188l46 292h57l-46-291q-12-72 20.5-110T230 41q60 0 110.5 32t84.5 80zm-135 73h-63l112 142h72z"/><glyph glyph-name="ucircumflex" unicode="û" horiz-adv-x="583" d="M477 480h57L458 0h-51l15 89q-33-41-87-70.5T222-11q-87 0-133.5 54.5T56 188l46 292h57l-46-291q-12-72 20.5-110T230 41q60 0 110.5 32t84.5 80zM318 691h51l108-137h-62l-76 94-105-94h-67z"/><glyph glyph-name="udieresis" unicode="ü" horiz-adv-x="583" d="M477 480h57L458 0h-51l15 89q-33-41-87-70.5T222-11q-87 0-133.5 54.5T56 188l46 292h57l-46-291q-12-72 20.5-110T230 41q60 0 110.5 32t84.5 80zm-5 133q-2-16-15-27t-29-11q-19 0-30 13.5t-8 31.5q3 15 16 26.5t29 11.5q18 0 29-14t8-31zm-201 0q-2-16-15-27t-29-11q-19 0-30 13.5t-8 31.5q3 15 16 26.5t29 11.5q18 0 29-14t8-31z"/><glyph glyph-name="yacute" unicode="ý" horiz-adv-x="535" d="M238 58l247 422h62L215-80Q125-231 22-231q-30 0-52 7l7 48q17-5 40-5 43 0 78.5 30T169-57l34 57L43 480h57zm75 495h-63l112 142h72z"/><glyph glyph-name="thorn" unicode="þ" horiz-adv-x="619" d="M55-220H-2l146 920h57l-51-318q84 109 214 109 102 0 160.5-72.5T566 235q-17-109-95-177.5T290-11q-69 0-115.5 31.5T106 103zm62 393q13-57 58.5-94.5T287 41q83 0 145.5 53T510 239q15 89-30.5 144.5T355 439q-68 0-126.5-39T138 303z"/><glyph glyph-name="ydieresis" unicode="ÿ" horiz-adv-x="535" d="M238 58l247 422h62L215-80Q125-231 22-231q-30 0-52 7l7 48q17-5 40-5 43 0 78.5 30T169-57l34 57L43 480h57zm205 555q-2-16-15-27t-29-11q-19 0-30 13.5t-8 31.5q3 15 16 26.5t29 11.5q18 0 29-14t8-31zm-201 0q-2-16-15-27t-29-11q-19 0-30 13.5t-8 31.5q3 15 16 26.5t29 11.5q18 0 29-14t8-31z"/><glyph glyph-name="Amacron" unicode="Ā" horiz-adv-x="714" d="M656 0h-62l-53 188H145L33 0h-67l422 700h68zM402 616L178 244h349L421 617q-4 16-5 24-4-9-14-25zm-94 231h280l-8-52H300z"/><glyph glyph-name="amacron" unicode="ā" horiz-adv-x="618" d="M458 99Q371-11 239-11 135-11 77 61.5T37 245q17 109 95.5 177.5T312 491q68 0 116.5-31.5T502 379l16 101h51L493 0h-51zM92 241q-14-90 31-145t124-55q69 0 127.5 38.5T464 175l21 132q-12 56-58 94t-111 38q-82 0-145.5-53.5T92 241zm124 386h280l-8-52H208z"/><glyph glyph-name="Abreve" unicode="Ă" horiz-adv-x="714" d="M656 0h-62l-53 188H145L33 0h-67l422 700h68zM402 616L178 244h349L421 617q-4 16-5 24-4-9-14-25zm172 203q-62-41-138-41-81 0-129 41l9 57q53-44 125-44 74 0 141 44z"/><glyph glyph-name="abreve" unicode="ă" horiz-adv-x="618" d="M458 99Q371-11 239-11 135-11 77 61.5T37 245q17 109 95.5 177.5T312 491q68 0 116.5-31.5T502 379l16 101h51L493 0h-51zM92 241q-14-90 31-145t124-55q69 0 127.5 38.5T464 175l21 132q-12 56-58 94t-111 38q-82 0-145.5-53.5T92 241zm390 358q-62-41-138-41-81 0-129 41l9 57q53-44 125-44 74 0 141 44z"/><glyph glyph-name="Aogonek" unicode="Ą" horiz-adv-x="714" d="M656 0q-51-32-86.5-69.5T530-139q-4-21 7.5-33t35.5-12q27 0 55 15l-7-49q-30-13-63-13-46 0-67.5 24.5T475-143q11 70 116 155l-50 176H145L33 0h-67l422 700h68zM402 616L178 244h349L421 617q-4 16-5 24-4-9-14-25z"/><glyph glyph-name="aogonek" unicode="ą" horiz-adv-x="618" d="M569 480L493 0q-50-31-84.5-69T370-139q-4-21 7-33.5t33-12.5q27 0 55 11l-8-48q-27-9-61-9-44 0-65.5 24.5T315-143q11 73 129 158l14 84Q371-11 239-11 135-11 77 61.5T37 245q17 109 95.5 177.5T312 491q68 0 116.5-31.5T502 379l16 101h51zM92 241q-14-90 31-145t124-55q69 0 127.5 38.5T464 175l21 132q-12 56-58 94t-111 38q-82 0-145.5-53.5T92 241z"/><glyph glyph-name="Cacute" unicode="Ć" horiz-adv-x="647" d="M60 364q18 109 86 190.5t154.5 119T477 711q107 0 185-48l-9-57q-67 49-170 49-80 0-155.5-31.5T193 522t-75-166q-12-77 6.5-138.5t59-98T275 64t108-19q108 0 194 52l-10-64q-85-44-199-44-66 0-126 24T135 82 66.5 200.5 60 364zm449 409h-63l112 142h72z"/><glyph glyph-name="cacute" unicode="ć" horiz-adv-x="495" d="M37 246q13 83 62 140.5t109 81T333 491q84 0 143-42l-9-53q-50 43-130 43-55 0-104-19t-89-65.5T93 240q-16-97 35-148t139-51q79 0 155 42l-9-59q-71-35-158-35-106 0-171.5 67T37 246zm315 307h-63l112 142h72z"/><glyph glyph-name="Cdotaccent" unicode="Ċ" horiz-adv-x="647" d="M60 364q18 109 86 190.5t154.5 119T477 711q107 0 185-48l-9-57q-67 49-170 49-80 0-155.5-31.5T193 522t-75-166q-12-77 6.5-138.5t59-98T275 64t108-19q108 0 194 52l-10-64q-85-44-199-44-66 0-126 24T135 82 66.5 200.5 60 364zm480 455q-3-20-17-31t-33-11q-21 0-33.5 13.5T448 827q4 19 18 30t32 11q22 0 34-13t8-36z"/><glyph glyph-name="cdotaccent" unicode="ċ" horiz-adv-x="495" d="M37 246q13 83 62 140.5t109 81T333 491q84 0 143-42l-9-53q-50 43-130 43-55 0-104-19t-89-65.5T93 240q-16-97 35-148t139-51q79 0 155 42l-9-59q-71-35-158-35-106 0-171.5 67T37 246zm346 353q-3-20-17-31t-33-11q-21 0-33.5 13.5T291 607q4 19 18 30t32 11q22 0 34-13t8-36z"/><glyph glyph-name="Ccaron" unicode="Č" horiz-adv-x="647" d="M60 364q18 109 86 190.5t154.5 119T477 711q107 0 185-48l-9-57q-67 49-170 49-80 0-155.5-31.5T193 522t-75-166q-12-77 6.5-138.5t59-98T275 64t108-19q108 0 194 52l-10-64q-85-44-199-44-66 0-126 24T135 82 66.5 200.5 60 364zm604 537L513 764h-51L354 901h63l75-94 103 94h69z"/><glyph glyph-name="ccaron" unicode="č" horiz-adv-x="495" d="M37 246q13 83 62 140.5t109 81T333 491q84 0 143-42l-9-53q-50 43-130 43-55 0-104-19t-89-65.5T93 240q-16-97 35-148t139-51q79 0 155 42l-9-59q-71-35-158-35-106 0-171.5 67T37 246zm470 435L356 544h-51L197 681h63l75-94 103 94h69z"/><glyph glyph-name="Dcaron" unicode="Ď" horiz-adv-x="735" d="M163 700h214q178 0 260.5-98T695 346 562.5 94 270 0H52zm472-346q22 135-44.5 212T371 643H212L120 57h156q153 0 245 79.5T635 354zm-59 547L425 764h-51L266 901h63l75-94 103 94h69z"/><glyph glyph-name="dcaron" unicode="ď" horiz-adv-x="617" d="M683 700h57l-53-172h-49zm-135 0h56L493 0h-50l16 102Q376-11 239-11 135-11 77 61.5T37 245q17 109 93.5 177.5T309 491q69 0 117.5-31t70.5-79zm-62-393q-13 57-58.5 94.5T316 439q-83 0-146-53T92 241q-14-89 31.5-144.5T247 41q69 0 127.5 39t89.5 96z"/><glyph glyph-name="Dcroat" unicode="Đ" horiz-adv-x="737" d="M165 700h214q177 0 260-98t58-256Q672 189 564 94.5T272 0H54l51 322H31l8 54h74zM278 57q153 0 245 79.5T637 354q22 135-44.5 212T373 643H214l-42-267h232l-9-54H164L122 57h156z"/><glyph glyph-name="dcroat" unicode="đ" horiz-adv-x="617" d="M591 617h73l-6-44h-74L493 0h-50l16 102Q376-11 239-11 135-11 77 61.5T37 245q17 109 93.5 177.5T309 491q69 0 117.5-31t70.5-79l31 192H346l6 44h182l14 83h56zM247 41q69 0 127.5 39t89.5 96l22 131q-13 57-58.5 94.5T316 439q-83 0-146-53T92 241q-14-89 31.5-144.5T247 41z"/><glyph glyph-name="Emacron" unicode="Ē" horiz-adv-x="621" d="M163 700h465l-9-57H213l-41-262h375l-8-57H163L121 57h411l-9-57H52zm119 147h280l-8-52H274z"/><glyph glyph-name="emacron" unicode="ē" horiz-adv-x="547" d="M36 242q18 117 97.5 183T309 491q64 0 109.5-25.5t64-66 22-90T488 212H89q-8-85 47.5-128T274 41q91 0 168 40l-9-57q-70-35-168-35-49 0-93 15.5T93 50t-51 80-6 112zm410 20q4 22 5.5 45.5t-7.5 47-24 42.5-44 30.5-67 11.5q-75 0-135.5-47.5T96 262h350zM195 627h280l-8-52H187z"/><glyph glyph-name="Edotaccent" unicode="Ė" horiz-adv-x="621" d="M163 700h465l-9-57H213l-41-262h375l-8-57H163L121 57h411l-9-57H52zm293 119q-3-20-17-31t-33-11q-21 0-33.5 13.5T364 827q4 19 18 30t32 11q22 0 34-13t8-36z"/><glyph glyph-name="edotaccent" unicode="ė" horiz-adv-x="547" d="M36 242q18 117 97.5 183T309 491q64 0 109.5-25.5t64-66 22-90T488 212H89q-8-85 47.5-128T274 41q91 0 168 40l-9-57q-70-35-168-35-49 0-93 15.5T93 50t-51 80-6 112zm410 20q4 22 5.5 45.5t-7.5 47-24 42.5-44 30.5-67 11.5q-75 0-135.5-47.5T96 262h350zm-77 337q-3-20-17-31t-33-11q-21 0-33.5 13.5T277 607q4 19 18 30t32 11q22 0 34-13t8-36z"/><glyph glyph-name="Eogonek" unicode="Ę" horiz-adv-x="621" d="M493-172l-8-49q-29-10-64-10-43 0-64 24.5T342-144Q353-69 452 0H52l111 700h465l-9-57H213l-41-262h375l-8-57H163L121 57h411l-9-57Q406-74 397-137q-4-21 6.5-34t32.5-13q30 0 57 12z"/><glyph glyph-name="eogonek" unicode="ę" horiz-adv-x="548" d="M385-211q-34-20-80-20-46-1-67.5 23.5T222-144Q232-76 334-4q-39-7-69-7-49 0-93 15.5T93 50t-51 80-6 112q18 117 97.5 183T309 491q64 0 109.5-25.5t64-66 22-90T488 212H89q-8-85 47.5-128T274 41q91 0 168 40l-9-57Q287-76 277-139q-3-21 8-33.5t35-12.5q38 1 73 23zm-76 650q-75 0-135.5-47.5T96 262h350q4 22 5.5 45.5t-7.5 47-24 42.5-44 30.5-67 11.5z"/><glyph glyph-name="Ecaron" unicode="Ě" horiz-adv-x="621" d="M163 700h465l-9-57H213l-41-262h375l-8-57H163L121 57h411l-9-57H52zm417 201L429 764h-51L270 901h63l75-94 103 94h69z"/><glyph glyph-name="ecaron" unicode="ě" horiz-adv-x="547" d="M36 242q18 117 97.5 183T309 491q64 0 109.5-25.5t64-66 22-90T488 212H89q-8-85 47.5-128T274 41q91 0 168 40l-9-57q-70-35-168-35-49 0-93 15.5T93 50t-51 80-6 112zm410 20q4 22 5.5 45.5t-7.5 47-24 42.5-44 30.5-67 11.5q-75 0-135.5-47.5T96 262h350zm47 419L342 544h-51L183 681h63l75-94 103 94h69z"/><glyph glyph-name="Gbreve" unicode="Ğ" horiz-adv-x="709" d="M60 364q14 88 57.5 156.5t104 109 127.5 61T484 711q114 0 200-47l-8-57q-70 48-187 48-61 0-118.5-16.5T260 588t-91-94-50-138q-13-79 6-141t60.5-98T279 63t111-18q89 0 162 34l46 290h60L606 35Q500-11 383-11q-69 0-131.5 22.5t-112 66-72 118T60 364zm561 455q-62-41-138-41-81 0-129 41l9 57q53-44 125-44 74 0 141 44z"/><glyph glyph-name="gbreve" unicode="ğ" horiz-adv-x="619" d="M494-2q-18-117-98-173t-187-56q-115 0-190 48l9 54q72-50 176-50 91 0 155 44T437 2l15 91q-36-46-91-75T239-11Q134-11 76.5 61.5T37 245q17 109 95 177.5T312 491q134 0 189-116l16 105h53zM92 241q-14-89 30.5-144.5T247 41q69 0 127.5 37.5T464 171l22 136q-13 57-58 94.5T316 439q-83 0-146-53T92 241zm379 358q-62-41-138-41-81 0-129 41l9 57q53-44 125-44 74 0 141 44z"/><glyph glyph-name="Gdotaccent" unicode="Ġ" horiz-adv-x="709" d="M60 364q14 88 57.5 156.5t104 109 127.5 61T484 711q114 0 200-47l-8-57q-70 48-187 48-61 0-118.5-16.5T260 588t-91-94-50-138q-13-79 6-141t60.5-98T279 63t111-18q89 0 162 34l46 290h60L606 35Q500-11 383-11q-69 0-131.5 22.5t-112 66-72 118T60 364zm469 455q-3-20-17-31t-33-11q-21 0-33.5 13.5T437 827q4 19 18 30t32 11q22 0 34-13t8-36z"/><glyph glyph-name="gdotaccent" unicode="ġ" horiz-adv-x="619" d="M494-2q-18-117-98-173t-187-56q-115 0-190 48l9 54q72-50 176-50 91 0 155 44T437 2l15 91q-36-46-91-75T239-11Q134-11 76.5 61.5T37 245q17 109 95 177.5T312 491q134 0 189-116l16 105h53zM92 241q-14-89 30.5-144.5T247 41q69 0 127.5 37.5T464 171l22 136q-13 57-58 94.5T316 439q-83 0-146-53T92 241zm287 358q-3-20-17-31t-33-11q-21 0-33.5 13.5T287 607q4 19 18 30t32 11q22 0 34-13t8-36z"/><glyph glyph-name="Gcommaaccent" unicode="Ģ" horiz-adv-x="709" d="M60 364q14 88 57.5 156.5t104 109 127.5 61T484 711q114 0 200-47l-8-57q-70 48-187 48-61 0-118.5-16.5T260 588t-91-94-50-138q-13-79 6-141t60.5-98T279 63t111-18q89 0 162 34l46 290h60L606 35Q500-11 383-11q-69 0-131.5 22.5t-112 66-72 118T60 364zm285-598h-50l51 180h57z"/><glyph glyph-name="gcommaaccent" unicode="ģ" horiz-adv-x="619" d="M347 548h-57l54 159h50zM494-2q-18-117-98-173t-187-56q-115 0-190 48l9 54q72-50 176-50 91 0 155 44T437 2l15 91q-36-46-91-75T239-11Q134-11 76.5 61.5T37 245q17 109 95 177.5T312 491q134 0 189-116l16 105h53zM92 241q-14-89 30.5-144.5T247 41q69 0 127.5 37.5T464 171l22 136q-13 57-58 94.5T316 439q-83 0-146-53T92 241z"/><glyph glyph-name="Hbar" unicode="Ħ" horiz-adv-x="772" d="M113 0H54l81 510H59l8 50h76l22 140h59l-22-140h454l22 140h59l-22-140h76l-8-50h-76L626 0h-59l51 323H164zm82 510l-21-130h453l21 130H195z"/><glyph glyph-name="hbar" unicode="ħ" horiz-adv-x="583" d="M151 397q90 94 198 94 85 0 130-54t32-143L464 0h-57l46 291q12 72-21 110t-96 38q-56 0-108.5-33T140 327L89 0H32l91 573H64l6 44h59l14 83h57l-14-83h196l-7-44H180z"/><glyph glyph-name="Imacron" unicode="Ī" horiz-adv-x="255" d="M163 700h59L111 0H52zM78 847h280l-8-52H70z"/><glyph glyph-name="imacron" unicode="ī" horiz-adv-x="221" d="M267 582H47l8 53h220zM93 0H36l76 480h57z"/><glyph glyph-name="Iogonek" unicode="Į" horiz-adv-x="255" d="M111 0Q30-81 21-136q-3-22 8.5-36T65-185q35 0 73 22l-8-49q-34-19-80-19-44 0-66.5 25.5T-33-142q9 63 86 148l110 694h59z"/><glyph glyph-name="iogonek" unicode="į" horiz-adv-x="221" d="M125 629q5 35 42 35 17 0 27.5-11.5T202 622q-6-34-42-34-17 0-27.5 11t-7.5 30zm44-149L93 0Q14-81 5-136q-4-21 8-35t36-14q33 0 67 19l-8-49q-33-16-74-16-45 0-66.5 26T-48-141Q-37-75 37 5l75 475h57z"/><glyph glyph-name="Idotaccent" unicode="İ" horiz-adv-x="255" d="M163 700h59L111 0H52zm89 119q-3-20-17-31t-33-11q-21 0-33.5 13.5T160 827q4 19 18 30t32 11q22 0 34-13t8-36z"/><glyph glyph-name="dotlessi" unicode="ı" horiz-adv-x="221" d="M93 0H36l76 480h57z"/><glyph glyph-name="IJ" unicode="Ĳ" horiz-adv-x="771" d="M163 700h59L111 0H52zm307 0h275l-79-503Q650 91 582.5 40.5T414-10q-111 0-175 44l9 58q62-45 158-45 177 0 201 156l70 440H460z"/><glyph glyph-name="ij" unicode="ĳ" horiz-adv-x="442" d="M93 0H36l76 480h57zm109 622q-6-34-42-34-17 0-27.5 11t-7.5 30q5 35 42 35 17 0 27.5-11.5T202 622zm95-724q-10-69-51-99t-95-30q-41 0-74 14l8 50q25-12 56-12 87 0 102 89l90 570h57zm126 724q-6-34-42-34-17 0-27.5 11t-7.5 30q5 35 42 35 17 0 27.5-11.5T423 622z"/><glyph glyph-name="Kcommaaccent" unicode="Ķ" horiz-adv-x="658" d="M629 700h68L400 357 609 0h-64L350 330H163L111 0H52l111 700h59l-49-314h183zM282-224h-50l51 180h57z"/><glyph glyph-name="kcommaaccent" unicode="ķ" horiz-adv-x="508" d="M444 480h68L285 246 457 0h-64L235 226H125L90 0H33l111 700h57l-67-422h114zM205-224h-50l51 180h57z"/><glyph glyph-name="Lacute" unicode="Ĺ" horiz-adv-x="572" d="M163 700h59L121 57h404l-9-57H52zm73 73h-63l112 142h72z"/><glyph glyph-name="lacute" unicode="ĺ" horiz-adv-x="221" d="M152 730h57L93 0H36zm64 46h-63l112 142h72z"/><glyph glyph-name="Lcommaaccent" unicode="Ļ" horiz-adv-x="572" d="M163 700h59L121 57h404l-9-57H52zm100-924h-50l51 180h57z"/><glyph glyph-name="lcommaaccent" unicode="ļ" horiz-adv-x="221" d="M152 730h57L93 0H36zM26-224h-50L27-44h57z"/><glyph glyph-name="Lcaron" unicode="Ľ" horiz-adv-x="573" d="M442 700h57l-53-172h-49zm-279 0h59L121 57h404l-9-57H52z"/><glyph glyph-name="lcaron" unicode="ľ" horiz-adv-x="221" d="M288 730h57l-53-172h-49zm-136 0h57L93 0H36z"/><glyph glyph-name="Ldot" unicode="Ŀ" horiz-adv-x="576" d="M406 340q-6-36-42-36-18 0-29 11.5t-8 31.5q6 35 43 35 18 0 28.5-11t7.5-31zM163 700h59L121 57h404l-9-57H52z"/><glyph glyph-name="ldot" unicode="ŀ" horiz-adv-x="286" d="M152 730h57L93 0H36zm149-384q-6-35-42-35-18 0-29 11.5t-8 31.5q3 17 15 26t28 9q18 0 28.5-11.5T301 346z"/><glyph glyph-name="Lslash" unicode="Ł" horiz-adv-x="577" d="M522 0H58l44 279-92-37 8 50 92 37 59 371h59l-55-348 239 95-8-50-239-95-38-245h404z"/><glyph glyph-name="lslash" unicode="ł" horiz-adv-x="262" d="M172 730h57l-52-320 93 37-8-50-92-38L113 0H56l53 337-91-37 8 50 92 38z"/><glyph glyph-name="Nacute" unicode="Ń" horiz-adv-x="768" d="M111 0H52l111 700h50L581 96q1 11 4 30.5t4 30.5l87 543h59L624 0h-50L206 605q-1-12-4-31.5t-4-29.5zm368 773h-63l112 142h72z"/><glyph glyph-name="nacute" unicode="ń" horiz-adv-x="584" d="M145 391q92 100 206 100 84 0 129-54.5T512 294L465 0h-57l46 291q12 72-21 110t-96 38q-56 0-108.5-33T141 328L90 0H33l76 480h51zm209 162h-63l112 142h72z"/><glyph glyph-name="Ncommaaccent" unicode="Ņ" horiz-adv-x="768" d="M111 0H52l111 700h50L581 96q1 11 4 30.5t4 30.5l87 543h59L624 0h-50L206 605q-1-12-4-31.5t-4-29.5zm208-224h-50l51 180h57z"/><glyph glyph-name="ncommaaccent" unicode="ņ" horiz-adv-x="584" d="M145 391q92 100 206 100 84 0 129-54.5T512 294L465 0h-57l46 291q12 72-21 110t-96 38q-56 0-108.5-33T141 328L90 0H33l76 480h51zm78-615h-50l51 180h57z"/><glyph glyph-name="Ncaron" unicode="Ň" horiz-adv-x="768" d="M111 0H52l111 700h50L581 96q1 11 4 30.5t4 30.5l87 543h59L624 0h-50L206 605q-1-12-4-31.5t-4-29.5zm523 901L483 764h-51L324 901h63l75-94 103 94h69z"/><glyph glyph-name="ncaron" unicode="ň" horiz-adv-x="584" d="M145 391q92 100 206 100 84 0 129-54.5T512 294L465 0h-57l46 291q12 72-21 110t-96 38q-56 0-108.5-33T141 328L90 0H33l76 480h51zm364 290L358 544h-51L199 681h63l75-94 103 94h69z"/><glyph glyph-name="Eng" unicode="Ŋ" horiz-adv-x="769" d="M609-97q-11-69-51-101.5T459-231q-38 0-74 12l9 54q27-10 54-10 88 0 103 89l16 98-361 593q-1-12-4-31.5t-4-29.5L111 0H52l111 700h50L581 96q1 11 4 30.5t4 30.5l87 543h59z"/><glyph glyph-name="eng" unicode="ŋ" horiz-adv-x="584" d="M449-102q-20-129-147-129-42 0-74 13l8 51q26-12 60-12 83 0 98 89l60 381q12 72-21 110t-96 38q-56 0-108.5-33T141 328L90 0H33l76 480h51l-15-89q92 100 206 100 84 0 129.5-54.5T512 294z"/><glyph glyph-name="Omacron" unicode="Ō" horiz-adv-x="822" d="M784 346q-11-68-43-130.5t-83-114-127-82T366-11q-111 0-188 54.5T72 180 57 354q11 68 44.5 131t85 114 127 81.5T475 711q84 0 150-31.5T728 596t52-117 4-133zm-667 4q-5-44-2-87t22.5-82.5 49-69.5 77-48T370 45q145 0 240.5 90.5T725 350q5 44 2 87t-22.5 82.5-49 69.5-77 48T472 655q-145 0-240.5-90.5T117 350zm245 497h280l-8-52H354z"/><glyph glyph-name="omacron" unicode="ō" horiz-adv-x="593" d="M540 235Q522 120 437.5 54.5T250-11q-47 0-89.5 17.5T87 55.5t-45 81T37 245q18 115 102.5 180.5T327 491q101 0 166.5-69.5T540 235zm-448 3q-14-89 33.5-142T254 43q85 0 150.5 53.5T485 242q14 89-33.5 142T323 437q-85 0-151-53.5T92 238zm117 386h280l-8-52H201z"/><glyph glyph-name="Ohungarumlaut" unicode="Ő" horiz-adv-x="822" d="M784 346q-11-68-43-130.5t-83-114-127-82T366-11q-111 0-188 54.5T72 180 57 354q11 68 44.5 131t85 114 127 81.5T475 711q84 0 150-31.5T728 596t52-117 4-133zm-667 4q-5-44-2-87t22.5-82.5 49-69.5 77-48T370 45q145 0 240.5 90.5T725 350q5 44 2 87t-22.5 82.5-49 69.5-77 48T472 655q-145 0-240.5-90.5T117 350zm479 429h-62l95 145h65zm-153 0h-62l95 145h65z"/><glyph glyph-name="ohungarumlaut" unicode="ő" horiz-adv-x="593" d="M540 235Q522 120 437.5 54.5T250-11q-47 0-89.5 17.5T87 55.5t-45 81T37 245q18 115 102.5 180.5T327 491q101 0 166.5-69.5T540 235zm-448 3q-14-89 33.5-142T254 43q85 0 150.5 53.5T485 242q14 89-33.5 142T323 437q-85 0-151-53.5T92 238zm351 318h-62l95 145h65zm-153 0h-62l95 145h65z"/><glyph glyph-name="OE" unicode="Œ" horiz-adv-x="1022" d="M485-1q-49-10-108-10-87 0-155 32.5t-106.5 86-53.5 122T59 370q23 137 134.5 239T466 711q71 0 117-12l446 1-9-57H645l-42-262h346l-9-57H594L552 57h381l-9-57zM118 363q-14-84 9.5-155t89-117T380 45q58 0 111 14l92 581q-41 15-120 15-137 0-231-87T118 363z"/><glyph glyph-name="oe" unicode="œ" horiz-adv-x="985" d="M492 134Q455 63 390.5 26T248-11q-99 0-164 70T37 246q18 114 102 179.5T324 491q72 0 126.5-38.5T523 345q34 71 95 108.5T749 491q52 0 91-17t61.5-45 33.5-64.5 8.5-76T927 210H532q-5-57 22-97t68.5-56T714 41q87 0 167 40l-10-57q-70-35-168-35-76 0-135 37t-76 108zM92 238q-14-89 33.5-142T252 43q86 0 150 53.5T481 242q14 90-32.5 142.5T321 437q-83 0-149-53.5T92 238zm658 201q-74 0-133.5-48T540 260h345q10 27 5.5 58.5T874 377t-44.5 44.5T750 439z"/><glyph glyph-name="Racute" unicode="Ŕ" horiz-adv-x="691" d="M111 0H52l111 700h267q48 0 90-11.5t76.5-35 50.5-66 7-99.5q-15-92-79.5-140.5T421 288L624 0h-70L354 283H156zm101 643l-47-303h211q52 0 95.5 13.5T550 403t44 92q7 42-5 72t-38 46-57 23-68 7H212zm217 130h-63l112 142h72z"/><glyph glyph-name="racute" unicode="ŕ" horiz-adv-x="356" d="M143 371q79 127 230 119l-9-58q-74 8-136-33t-92-107L90 0H33l76 480h51zm131 182h-63l112 142h72z"/><glyph glyph-name="Rcommaaccent" unicode="Ŗ" horiz-adv-x="691" d="M111 0H52l111 700h267q48 0 90-11.5t76.5-35 50.5-66 7-99.5q-15-92-79.5-140.5T421 288L624 0h-70L354 283H156zm101 643l-47-303h211q52 0 95.5 13.5T550 403t44 92q7 42-5 72t-38 46-57 23-68 7H212zm88-867h-50l51 180h57z"/><glyph glyph-name="rcommaaccent" unicode="ŗ" horiz-adv-x="356" d="M143 371q79 127 230 119l-9-58q-74 8-136-33t-92-107L90 0H33l76 480h51zM26-224h-50L27-44h57z"/><glyph glyph-name="Rcaron" unicode="Ř" horiz-adv-x="691" d="M111 0H52l111 700h267q48 0 90-11.5t76.5-35 50.5-66 7-99.5q-15-92-79.5-140.5T421 288L624 0h-70L354 283H156zm101 643l-47-303h211q52 0 95.5 13.5T550 403t44 92q7 42-5 72t-38 46-57 23-68 7H212zm372 258L433 764h-51L274 901h63l75-94 103 94h69z"/><glyph glyph-name="rcaron" unicode="ř" horiz-adv-x="355" d="M142 371q79 127 230 119l-9-58q-74 8-136-33t-92-107L89 0H32l76 480h51zm286 310L277 544h-51L118 681h63l75-94 103 94h69z"/><glyph glyph-name="Sacute" unicode="Ś" horiz-adv-x="575" d="M94 541q9 57 50 97t94.5 56.5T352 711q118 0 199-53l-9-57q-76 54-189 54-80 0-134.5-28.5T153 536q-6-39 12.5-67.5t53-46.5 77.5-34 85-34 76-41 51.5-61.5T518 163q-14-91-89-133T252-11Q111-11 15 49l9 57q94-61 227-61 189 0 207 121 7 41-11.5 71.5T394 287t-77 35.5-85 34-76 40-51.5 59T94 541zm272 232h-63l112 142h72z"/><glyph glyph-name="sacute" unicode="ś" horiz-adv-x="462" d="M57 365q9 63 67 94.5T256 491q95 0 161-42l-8-52q-64 43-155 43-54 0-94.5-20T113 360q-5-34 25.5-55.5t76-34T305 243t73-47 20-81q-10-65-68.5-95.5T191-11Q81-11 13 38l9 56q69-53 171-53 60 0 101.5 19.5T342 121q5 33-24.5 54.5t-75 34-90.5 28-73.5 47T57 365zm222 188h-63l112 142h72z"/><glyph glyph-name="Scedilla" unicode="Ş" horiz-adv-x="575" d="M355-148q-6-40-40.5-61.5T225-231t-104 21l8 46q40-21 91-21 80 0 87 42 2 18-14.5 28t-43 10-57.5-6l38 100Q101-5 15 49l9 57q94-61 227-61 189 0 207 121 7 41-11.5 71.5T394 287t-77 35.5-85 34-76 40-51.5 59T94 541q9 57 50 97t94.5 56.5T352 711q118 0 199-53l-9-57q-76 54-189 54-80 0-134.5-28.5T153 536q-6-39 12.5-67.5t53-46.5 77.5-34 85-34 76-41 51.5-61.5T518 163q-13-84-79.5-126.5T279-11l-26-62q46 5 76.5-15t25.5-60z"/><glyph glyph-name="scedilla" unicode="ş" horiz-adv-x="462" d="M292-148q-6-40-40.5-61.5T162-231 58-210l8 46q40-21 91-21 80 0 87 42 2 18-14.5 28t-43 10-57.5-6l38 100Q72-5 13 38l9 56q69-53 171-53 60 0 101.5 19.5T342 121q5 33-24.5 54.5t-75 34-90.5 28-73.5 47T57 365q9 63 67 94.5T256 491q95 0 161-42l-8-52q-64 43-155 43-54 0-94.5-20T113 360q-5-34 25.5-55.5t76-34T305 243t73-47 20-81q-9-60-59.5-91T216-11l-26-62q46 5 76.5-15t25.5-60z"/><glyph glyph-name="Scaron" unicode="Š" horiz-adv-x="575" d="M94 541q9 57 50 97t94.5 56.5T352 711q118 0 199-53l-9-57q-76 54-189 54-80 0-134.5-28.5T153 536q-6-39 12.5-67.5t53-46.5 77.5-34 85-34 76-41 51.5-61.5T518 163q-14-91-89-133T252-11Q111-11 15 49l9 57q94-61 227-61 189 0 207 121 7 41-11.5 71.5T394 287t-77 35.5-85 34-76 40-51.5 59T94 541zm427 360L370 764h-51L211 901h63l75-94 103 94h69z"/><glyph glyph-name="scaron" unicode="š" horiz-adv-x="462" d="M57 365q9 63 67 94.5T256 491q95 0 161-42l-8-52q-64 43-155 43-54 0-94.5-20T113 360q-5-34 25.5-55.5t76-34T305 243t73-47 20-81q-10-65-68.5-95.5T191-11Q81-11 13 38l9 56q69-53 171-53 60 0 101.5 19.5T342 121q5 33-24.5 54.5t-75 34-90.5 28-73.5 47T57 365zm377 316L283 544h-51L124 681h63l75-94 103 94h69z"/><glyph glyph-name="Tcommaaccent" unicode="Ţ" horiz-adv-x="596" d="M77 700h571l-9-57H383L281 0h-59l102 643H68zm140-924h-50l51 180h57z"/><glyph glyph-name="tcommaaccent" unicode="ţ" horiz-adv-x="389" d="M157 631l59 17-27-168h202l-8-53H181l-45-281q-9-56 14-80.5T227 41q57 0 111 27l-9-55q-49-24-119-24-68 0-105.5 39.5T79 141l46 286H35l8 53h90zm26-855h-50l51 180h57z"/><glyph glyph-name="Tcaron" unicode="Ť" horiz-adv-x="596" d="M77 700h571l-9-57H383L281 0h-59l102 643H68zm472 201L398 764h-51L239 901h63l75-94 103 94h69z"/><glyph glyph-name="tcaron" unicode="ť" horiz-adv-x="389" d="M330 718h56l-52-166h-49zm-173-87l59 17-27-168h202l-8-53H181l-45-281q-9-56 14-80.5T227 41q57 0 111 27l-9-55q-49-24-119-24-68 0-105.5 39.5T79 141l46 286H35l8 53h90z"/><glyph glyph-name="Tbar" unicode="Ŧ" horiz-adv-x="607" d="M286 0h-59l52 327H151l8 50h128l42 266H73l9 57h571l-9-57H388l-42-266h128l-8-50H338z"/><glyph glyph-name="tbar" unicode="ŧ" horiz-adv-x="389" d="M391 480l-8-53H181l-19-119h162l-8-50H154l-18-112q-9-56 14-80.5T227 41q57 0 111 27l-9-55q-49-24-119-24-68 0-105.5 39.5T79 141l19 117H48l8 50h50l19 119H35l8 53h90l24 151 59 17-27-168h202z"/><glyph glyph-name="Umacron" unicode="Ū" horiz-adv-x="753" d="M669 700h59l-71-452Q635 111 549 50T336-11q-61 0-110 14t-86 44-52 82-4 123l71 448h59l-71-450Q111 45 335 45q230 0 264 209zM321 847h280l-8-52H313z"/><glyph glyph-name="umacron" unicode="ū" horiz-adv-x="583" d="M477 480h57L458 0h-51l15 89q-33-41-87-70.5T222-11q-87 0-133.5 54.5T56 188l46 292h57l-46-291q-12-72 20.5-110T230 41q60 0 110.5 32t84.5 80zM199 627h280l-8-52H191z"/><glyph glyph-name="Uring" unicode="Ů" horiz-adv-x="753" d="M669 700h59l-71-452Q635 111 549 50T336-11q-61 0-110 14t-86 44-52 82-4 123l71 448h59l-71-450Q111 45 335 45q230 0 264 209zM562 845q-7-43-40-69t-74-26q-42 0-69.5 28.5T358 852q7 42 40.5 68t74.5 26q42 0 69-28.5t20-72.5zm-161 3q-4-25 10-41.5t37-16.5q26 0 47 15.5t25 42.5q4 25-10 41.5T473 906q-26 0-47-15.5T401 848z"/><glyph glyph-name="uring" unicode="ů" horiz-adv-x="583" d="M477 480h57L458 0h-51l15 89q-33-41-87-70.5T222-11q-87 0-133.5 54.5T56 188l46 292h57l-46-291q-12-72 20.5-110T230 41q60 0 110.5 32t84.5 80zm-37 145q-7-43-40-69t-74-26q-42 0-69.5 28.5T236 632q7 42 40.5 68t74.5 26q42 0 69-28.5t20-72.5zm-161 3q-4-25 10-41.5t37-16.5q26 0 47 15.5t25 42.5q4 25-10 41.5T351 686q-26 0-47-15.5T279 628z"/><glyph glyph-name="Uhungarumlaut" unicode="Ű" horiz-adv-x="753" d="M669 700h59l-71-452Q635 111 549 50T336-11q-61 0-110 14t-86 44-52 82-4 123l71 448h59l-71-450Q111 45 335 45q230 0 264 209zm-114 79h-62l95 145h65zm-153 0h-62l95 145h65z"/><glyph glyph-name="uhungarumlaut" unicode="ű" horiz-adv-x="583" d="M477 480h57L458 0h-51l15 89q-33-41-87-70.5T222-11q-87 0-133.5 54.5T56 188l46 292h57l-46-291q-12-72 20.5-110T230 41q60 0 110.5 32t84.5 80zm-44 79h-62l95 145h65zm-153 0h-62l95 145h65z"/><glyph glyph-name="Uogonek" unicode="Ų" horiz-adv-x="753" d="M599 254l70 446h59l-71-452Q637 115 545 47 402-58 391-139q-4-21 8-34t36-12q36 0 72 21l-8-48q-37-19-81-19-46 0-68.5 24.5T333-144q11 67 96 144-39-11-93-11-61 0-110 14t-86 44-52 82-4 123l71 448h59l-71-450Q111 45 335 45q230 0 264 209z"/><glyph glyph-name="uogonek" unicode="ų" horiz-adv-x="583" d="M534 480L458 0q-50-31-84.5-69T335-139q-4-21 7-33.5t33-12.5q27 0 54 11l-8-48q-25-9-60-9-44 0-65.5 24.5T280-143q11 73 130 162l12 70q-33-41-87-70.5T222-11q-87 0-133.5 54.5T56 188l46 292h57l-46-291q-12-72 20.5-110T230 41q60 0 110.5 32t84.5 80l52 327h57z"/><glyph glyph-name="Wcircumflex" unicode="Ŵ" horiz-adv-x="997" d="M979 700h63L713 0h-67l-97 590L264 0h-70L83 700h60l98-624 299 621h49L690 84zM567 911h51l108-137h-62l-76 94-105-94h-67z"/><glyph glyph-name="wcircumflex" unicode="ŵ" horiz-adv-x="795" d="M742 480h61L555 0h-59l-79 399L208 0h-61L51 480h57l81-408 212 405h51l81-404zM432 691h51l108-137h-62l-76 94-105-94h-67z"/><glyph glyph-name="Ycircumflex" unicode="Ŷ" horiz-adv-x="643" d="M305 0h-60l44 273L82 700h62l181-370 299 370h68L349 273zm80 911h51l108-137h-62l-76 94-105-94h-67z"/><glyph glyph-name="ycircumflex" unicode="ŷ" horiz-adv-x="535" d="M238 58l247 422h62L215-80Q125-231 22-231q-30 0-52 7l7 48q17-5 40-5 43 0 78.5 30T169-57l34 57L43 480h57zm51 633h51l108-137h-62l-76 94-105-94h-67z"/><glyph glyph-name="Ydieresis" unicode="Ÿ" horiz-adv-x="643" d="M305 0h-60l44 273L82 700h62l181-370 299 370h68L349 273zm234 833q-2-16-15-27t-29-11q-19 0-30 13.5t-8 31.5q3 15 16 26.5t29 11.5q18 0 29-14t8-31zm-201 0q-2-16-15-27t-29-11q-19 0-30 13.5t-8 31.5q3 15 16 26.5t29 11.5q18 0 29-14t8-31z"/><glyph glyph-name="Zacute" unicode="Ź" horiz-adv-x="578" d="M501 0H-16l8 53 524 590H100l9 57h491l-8-53L67 57h444zM392 773h-63l112 142h72z"/><glyph glyph-name="zacute" unicode="ź" horiz-adv-x="457" d="M77 480h364l-9-50L66 50h319l-8-50H-12l8 50 367 380H69zm212 73h-63l112 142h72z"/><glyph glyph-name="Zdotaccent" unicode="Ż" horiz-adv-x="578" d="M501 0H-16l8 53 524 590H100l9 57h491l-8-53L67 57h444zm-78 819q-3-20-17-31t-33-11q-21 0-33.5 13.5T331 827q4 19 18 30t32 11q22 0 34-13t8-36z"/><glyph glyph-name="zdotaccent" unicode="ż" horiz-adv-x="457" d="M77 480h364l-9-50L66 50h319l-8-50H-12l8 50 367 380H69zm243 119q-3-20-17-31t-33-11q-21 0-33.5 13.5T228 607q4 19 18 30t32 11q22 0 34-13t8-36z"/><glyph glyph-name="Zcaron" unicode="Ž" horiz-adv-x="578" d="M501 0H-16l8 53 524 590H100l9 57h491l-8-53L67 57h444zm46 901L396 764h-51L237 901h63l75-94 103 94h69z"/><glyph glyph-name="zcaron" unicode="ž" horiz-adv-x="457" d="M77 480h364l-9-50L66 50h319l-8-50H-12l8 50 367 380H69zm367 201L293 544h-51L134 681h63l75-94 103 94h69z"/><glyph glyph-name="Scommaaccent" unicode="Ș" horiz-adv-x="575" d="M94 541q9 57 50 97t94.5 56.5T352 711q118 0 199-53l-9-57q-76 54-189 54-80 0-134.5-28.5T153 536q-6-39 12.5-67.5t53-46.5 77.5-34 85-34 76-41 51.5-61.5T518 163q-14-91-89-133T252-11Q111-11 15 49l9 57q94-61 227-61 189 0 207 121 7 41-11.5 71.5T394 287t-77 35.5-85 34-76 40-51.5 59T94 541zm145-765h-50l51 180h57z"/><glyph glyph-name="scommaaccent" unicode="ș" horiz-adv-x="462" d="M57 365q9 63 67 94.5T256 491q95 0 161-42l-8-52q-64 43-155 43-54 0-94.5-20T113 360q-5-34 25.5-55.5t76-34T305 243t73-47 20-81q-10-65-68.5-95.5T191-11Q81-11 13 38l9 56q69-53 171-53 60 0 101.5 19.5T342 121q5 33-24.5 54.5t-75 34-90.5 28-73.5 47T57 365zm119-589h-50l51 180h57z"/><glyph glyph-name="uni021A" unicode="Ț" horiz-adv-x="596" d="M77 700h571l-9-57H383L281 0h-59l102 643H68zm141-924h-50l51 180h57z"/><glyph glyph-name="uni021B" unicode="ț" horiz-adv-x="389" d="M157 631l59 17-27-168h202l-8-53H181l-45-281q-9-56 14-80.5T227 41q57 0 111 27l-9-55q-49-24-119-24-68 0-105.5 39.5T79 141l46 286H35l8 53h90zm26-855h-50l51 180h57z"/><glyph glyph-name="circumflex" unicode="ˆ" horiz-adv-x="299" d="M246 911h51l108-137h-62l-76 94-105-94H95z"/><glyph glyph-name="caron" unicode="ˇ" horiz-adv-x="299" d="M427 901L276 764h-51L117 901h63l75-94 103 94h69z"/><glyph glyph-name="breve" unicode="˘" horiz-adv-x="329" d="M407 819q-62-41-138-41-81 0-129 41l9 57q53-44 125-44 74 0 141 44z"/><glyph glyph-name="dotaccent" unicode="˙" horiz-adv-x="101" d="M206 819q-3-20-17-31t-33-11q-21 0-33.5 13.5T114 827q4 19 18 30t32 11q22 0 34-13t8-36z"/><glyph glyph-name="ring" unicode="˚" horiz-adv-x="213" d="M322 845q-7-43-40-69t-74-26q-42 0-69.5 28.5T118 852q7 42 40.5 68t74.5 26q42 0 69-28.5t20-72.5zm-161 3q-4-25 10-41.5t37-16.5q26 0 47 15.5t25 42.5q4 25-10 41.5T233 906q-26 0-47-15.5T161 848z"/><glyph glyph-name="ogonek" unicode="˛" horiz-adv-x="210" d="M85 3l67-3Q35-74 26-137q-4-21 7.5-34T69-184q37 0 72 19l-8-50q-33-16-79-16t-67.5 24-15.5 63Q-18-69 85 3z"/><glyph glyph-name="tilde" unicode="˜" horiz-adv-x="333" d="M438 866q-1-44-24.5-68T355 774q-32 0-82 24t-69 24-30-11.5-11-31.5h-49q1 44 24.5 68.5T196 872q32 0 82.5-24t69.5-24q41 0 41 42h49z"/><glyph glyph-name="hungarumlaut" unicode="˝" horiz-adv-x="343" d="M344 779h-62l95 145h65zm-153 0h-62l95 145h65z"/><glyph glyph-name="uni0326" unicode="̦" horiz-adv-x="120" d="M15-224h-50L16-44h57z"/><glyph glyph-name="uni0401" unicode="Ё" horiz-adv-x="619" d="M555 833q-2-16-15-27t-29-11q-19 0-30 13.5t-8 31.5q3 15 16 26.5t29 11.5q18 0 29-14t8-31zm-201 0q-2-16-15-27t-29-11q-19 0-30 13.5t-8 31.5q3 15 16 26.5t29 11.5q18 0 29-14t8-31zM163 700h465l-9-57H213l-41-262h375l-8-57H163L121 57h411l-9-57H52z"/><glyph glyph-name="uni0410" unicode="А" horiz-adv-x="714" d="M656 0h-62l-53 188H145L33 0h-67l422 700h68zM402 616L178 244h349L421 617q-4 16-5 24-4-9-14-25z"/><glyph glyph-name="uni0411" unicode="Б" horiz-adv-x="663" d="M176 408h192q54 0 97.5-9t82-30 55.5-64 7-105Q579 0 304 0H52l111 700h474l-10-57H213zM120 57h193q45 0 80 5.5t70 20 57.5 46T551 207q7 46-5.5 76.5t-43 44.5-61.5 18.5-76 4.5H167z"/><glyph glyph-name="uni0412" unicode="В" horiz-adv-x="686" d="M163 700h271q103 0 163-47t46-134q-11-64-52-102t-98-50q59-13 98.5-56T619 187Q589 0 327 0H52zm397-500q5 35-4 61t-25.5 40-42 22-46.5 10.5-45 2.5H164L120 57h202q43 0 75 4.5T466.5 79t62 44 31.5 77zm23 320q10 66-32.5 94.5T422 643H212l-39-251h236q67 0 115 31.5t59 96.5z"/><glyph glyph-name="uni0413" unicode="Г" horiz-adv-x="573" d="M111 0H52l111 700h456l-9-57H213z"/><glyph glyph-name="uni0414" unicode="Д" horiz-adv-x="761" d="M4-170h-57l36 227h82q82 119 138.5 290.5T287 700h419L604 57h87l-36-227h-56L625 0H31zm334 813Q264 256 130 57h416l92 586H338z"/><glyph glyph-name="uni0415" unicode="Е" horiz-adv-x="619" d="M163 700h465l-9-57H213l-41-262h375l-8-57H163L121 57h411l-9-57H52z"/><glyph glyph-name="uni0416" unicode="Ж" horiz-adv-x="930" d="M897 700h67L700 359 876 0h-62L652 330H503L451 0h-60l52 330H301L32 0h-70l294 359-156 341h63l141-314h149l49 314h60l-50-314h143z"/><glyph glyph-name="uni0417" unicode="З" horiz-adv-x="605" d="M539 185q-8-53-38-92.5t-73-61-90.5-32T239-11Q102-11-1 33l9 58q96-46 230-46 57 0 105.5 13t88.5 48.5 49 90.5q6 40-8 68.5t-43.5 43-63 21T292 336H153l9 56h130q86 0 144.5 35.5T505 526q9 64-40.5 96.5T332 655q-122 0-232-50l9 58q105 48 231 48 107 0 172.5-49T564 525q-9-63-54-104.5T399 365q67-11 110-55t30-125z"/><glyph glyph-name="uni0418" unicode="И" horiz-adv-x="768" d="M735 700L624 0h-59l87 547q3 27 10 57L110 0H52l111 700h59l-87-548q-5-34-10-56l552 604h58z"/><glyph glyph-name="uni0419" unicode="Й" horiz-adv-x="768" d="M735 700L624 0h-59l87 547q3 27 10 57L110 0H52l111 700h59l-87-548q-5-34-10-56l552 604h58zM610 819q-62-41-138-41-81 0-129 41l9 57q53-44 125-44 74 0 141 44z"/><glyph glyph-name="uni041A" unicode="К" horiz-adv-x="658" d="M629 700h68L400 357 609 0h-64L350 330H163L111 0H52l111 700h59l-49-314h183z"/><glyph glyph-name="uni041B" unicode="Л" horiz-adv-x="742" d="M296 700h413L598 0h-59l101 643H343q-16-71-27-116.5T289 418t-28.5-103-30-89.5T197 145t-36.5-63.5T119 31 72.5 1.5 19-10q-37 0-63 11l9 58q27-10 48-10 24 0 46 13t42 40.5 38 60 35.5 82 32 96 31 112 29 119T296 700z"/><glyph glyph-name="uni041C" unicode="М" horiz-adv-x="903" d="M810 700h60L759 0h-59l94 593-339-415h-39L206 593 111 0H52l111 700h52l227-450z"/><glyph glyph-name="uni041D" unicode="Н" horiz-adv-x="768" d="M676 700h59L624 0h-59l51 323H162L111 0H52l111 700h59l-50-320h453z"/><glyph glyph-name="uni041E" unicode="О" horiz-adv-x="822" d="M784 346q-11-68-43-130.5t-83-114-127-82T366-11q-111 0-188 54.5T72 180 57 354q11 68 44.5 131t85 114 127 81.5T475 711q84 0 150-31.5T728 596t52-117 4-133zm-667 4q-5-44-2-87t22.5-82.5 49-69.5 77-48T370 45q145 0 240.5 90.5T725 350q5 44 2 87t-22.5 82.5-49 69.5-77 48T472 655q-145 0-240.5-90.5T117 350z"/><glyph glyph-name="uni041F" unicode="П" horiz-adv-x="753" d="M111 0H52l111 700h557L609 0h-59l102 643H213z"/><glyph glyph-name="uni0420" unicode="Р" horiz-adv-x="658" d="M163 700h234q58 0 105.5-11.5t86-36 56-70T652 474q-35-219-328-219H152L111 0H52zm429-219q8 47-5.5 80t-44 50.5T476 636t-82 7H212l-52-331h172q233 0 260 169z"/><glyph glyph-name="uni0421" unicode="С" horiz-adv-x="652" d="M60 364q18 109 86 190.5t154.5 119T477 711q107 0 185-48l-9-57q-67 49-170 49-80 0-155.5-31.5T193 522t-75-166q-12-77 6.5-138.5t59-98T275 64t108-19q108 0 194 52l-10-64q-85-44-199-44-66 0-126 24T135 82 66.5 200.5 60 364z"/><glyph glyph-name="uni0422" unicode="Т" horiz-adv-x="596" d="M77 700h571l-9-57H383L281 0h-59l102 643H68z"/><glyph glyph-name="uni0423" unicode="У" horiz-adv-x="624" d="M342 158Q280 62 222.5 25.5T103-11Q56-11 16 3l9 56q36-14 71-14 48 0 88.5 23.5T271 155l17 24L71 700h63l191-467 297 467h67z"/><glyph glyph-name="uni0424" unicode="Ф" horiz-adv-x="857" d="M406-36h-59l14 92q-156 3-248.5 84.5T41 358q21 135 131.5 209T455 644l15 92h59l-15-92q98-2 175.5-37.5t119-105T836 342q-21-136-131.5-209.5T421 56zM101 354q-17-110 54.5-175T370 110l76 480q-149-5-238.5-65T101 354zm404 236l-76-480q149 5 239 65.5T776 346q17 109-56.5 174T505 590z"/><glyph glyph-name="uni0425" unicode="Х" horiz-adv-x="628" d="M33 0h-75l333 363L88 700h66l177-294 270 294h75L360 356 574 0h-65L320 312z"/><glyph glyph-name="uni0426" unicode="Ц" horiz-adv-x="777" d="M670-170h-56L641 0H52l111 700h59L121 57h440l101 643h60L620 57h86z"/><glyph glyph-name="uni0427" unicode="Ч" horiz-adv-x="677" d="M534 0h-60l45 282q-116-38-219-36-122 2-182 63T76 485l34 215h59l-35-222q-14-90 34-132t149-43q95-1 211 35l57 362h60z"/><glyph glyph-name="uni0428" unicode="Ш" horiz-adv-x="1063" d="M919 0H52l111 700h59L121 57h344l102 643h59L525 57h344l102 643h59z"/><glyph glyph-name="uni0429" unicode="Щ" horiz-adv-x="1085" d="M979-170h-56L950 0H52l111 700h59L121 57h344l102 643h59L525 57h344l102 643h59L929 57h86z"/><glyph glyph-name="uni042A" unicode="Ъ" horiz-adv-x="752" d="M377 0H145l102 643H65l9 57h242l-41-256h173q60 0 108-11t86.5-35.5 55.5-70 7-108.5Q670 0 377 0zM266 387L214 57h172q234 0 260 169 8 47-5 79.5t-43.5 50T530 380t-86 7H266z"/><glyph glyph-name="uni042B" unicode="Ы" horiz-adv-x="860" d="M283 0H52l111 700h59l-40-256h173q60 0 108-11t86.5-35.5 55-70T611 219Q578 0 283 0zM172 387L120 57h172q234 0 260 169 8 47-5 79.5t-43.5 50T436 380t-86 7H172zM716 0h-59l111 700h59z"/><glyph glyph-name="uni042C" unicode="Ь" horiz-adv-x="658" d="M283 0H52l111 700h59l-40-256h173q60 0 108-11t86.5-35.5 55-70T611 219Q578 0 283 0zM172 387L120 57h172q234 0 260 169 8 47-5 79.5t-43.5 50T436 380t-86 7H172z"/><glyph glyph-name="uni042D" unicode="Э" horiz-adv-x="654" d="M105 666q89 45 200 45 65 0 125-23.5t107-68T605.5 502t7.5-162Q585 167 469 78T202-11Q87-11 5 37l9 56q77-48 183-48 130 0 227.5 70T550 324l-384-2 9 56 383 2q6 68-15 122t-60 86.5-87.5 49.5T294 655q-108 0-199-49z"/><glyph glyph-name="uni042E" unicode="Ю" horiz-adv-x="1085" d="M1047 346q-11-68-43-130.5t-83-114-127-82T629-11q-104 0-179 49T343 161.5 317 322H162L111 0H52l111 700h59l-51-322h154q31 137 141.5 235T738 711q84 0 150-31.5T991 596t52-117 4-133zm-667 4q-5-44-2-87t22.5-82.5 49-69.5 77-48T633 45q145 0 240.5 90.5T988 350q5 44 2 87t-22.5 82.5-49 69.5-77 48T735 655q-145 0-240.5-90.5T380 350z"/><glyph glyph-name="uni042F" unicode="Я" horiz-adv-x="685" d="M55 0h-71l261 272q-83 19-124 73.5T94 485q17 110 99.5 162.5T401 700h251L541 0h-60l42 263H336q-19 0-28 1zm99 478q-13-82 38-120t147-38h193l51 323H392q-95 0-159.5-40T154 478z"/><glyph glyph-name="uni0430" unicode="а" horiz-adv-x="618" d="M458 99Q371-11 239-11 135-11 77 61.5T37 245q17 109 95.5 177.5T312 491q68 0 116.5-31.5T502 379l16 101h51L493 0h-51zM92 241q-14-90 31-145t124-55q69 0 127.5 38.5T464 175l21 132q-12 56-58 94t-111 38q-82 0-145.5-53.5T92 241z"/><glyph glyph-name="uni0431" unicode="б" horiz-adv-x="591" d="M534 220q-16-108-88-169.5T267-11Q153-11 92 66.5T52 278q17 112 71 192.5T252 593q63 34 128 52t110 30.5 75 36.5l-9-62q-31-23-120.5-44T281 549q-110-61-160-197 35 49 93.5 78.5T333 460q93 0 155.5-68.5T534 220zm-431 30q-13-94 32.5-150.5T269 43q86 0 141.5 50.5T478 226q13 76-33 128.5T322 407q-76 0-137.5-44T103 250z"/><glyph glyph-name="uni0432" unicode="в" horiz-adv-x="546" d="M291 0H33l76 480h246q70 0 107-35t27-96q-13-81-90-106 36-9 57.5-39t13.5-78q-9-60-55-93T291 0zM124 218L97 50h191q113 0 127 87 7 45-17.5 63T328 218H124zm34 212l-26-162h192q44 0 72.5 21t35.5 62q6 41-18 60t-70 19H158z"/><glyph glyph-name="uni0433" unicode="г" horiz-adv-x="441" d="M90 0H33l76 480h345l-8-53H157z"/><glyph glyph-name="uni0434" unicode="д" d="M15-133h-55l29 184h65q60 89 97 189.5T209 480h341L482 51h70l-30-184h-55L488 0H36zm239 560Q216 212 114 51h312l59 376H254z"/><glyph glyph-name="uni0435" unicode="е" horiz-adv-x="545" d="M36 242q18 117 97.5 183T309 491q64 0 109.5-25.5t64-66 22-90T488 212H89q-8-85 47.5-128T274 41q91 0 168 40l-9-57q-70-35-168-35-49 0-93 15.5T93 50t-51 80-6 112zm410 20q4 22 5.5 45.5t-7.5 47-24 42.5-44 30.5-67 11.5q-75 0-135.5-47.5T96 262h350z"/><glyph glyph-name="uni0436" unicode="ж" horiz-adv-x="734" d="M29 0h-67l243 246L66 480h59l128-212h83l33 212h57l-34-212h83l193 212h64L516 242 680 0h-63L469 216h-85L350 0h-57l34 216h-82z"/><glyph glyph-name="uni0437" unicode="з" horiz-adv-x="479" d="M405 124Q383-11 172-11 72-12-3 25l9 54q66-38 162-38 166 0 182 96 7 43-23.5 62T251 218H131l9 52h113q50 0 82.5 21t38.5 60q6 43-33.5 65.5T239 439q-91 0-175-37l9 55q86 36 175 35 91-1 141.5-39T430 351q-6-43-34.5-70.5T321 245q41-11 66-43t18-78z"/><glyph glyph-name="uni0438" unicode="и" horiz-adv-x="589" d="M83 0H33l76 480h57L105 94l385 386h50L464 0h-56l60 385z"/><glyph glyph-name="uni0439" unicode="й" horiz-adv-x="589" d="M479 599q-62-41-138-41-81 0-129 41l8 53q53-44 125-44 74 0 142 44zM83 0H33l76 480h57L105 94l385 386h50L464 0h-56l60 385z"/><glyph glyph-name="uni043A" unicode="к" horiz-adv-x="511" d="M90 0H33l76 480h57l-32-202h114l196 202h68L286 247 458 0h-64L236 226H125z"/><glyph glyph-name="uni043B" unicode="л" horiz-adv-x="591" d="M250 427q-23-110-42.5-181.5t-46-133.5T101 21.5 24-7Q-10-7-34 3l8 47q13-8 41-8 63 0 104.5 105.5T204 480h338L466 0h-57l68 427H250z"/><glyph glyph-name="uni043C" unicode="м" horiz-adv-x="675" d="M90 0H33l76 480h57l154-284 238 284h68L550 0h-57l63 397-217-258h-47L153 396z"/><glyph glyph-name="uni043D" unicode="н" horiz-adv-x="583" d="M90 0H33l76 480h57l-34-214h312l34 214h56L458 0h-56l33 214H123z"/><glyph glyph-name="uni043E" unicode="о" horiz-adv-x="593" d="M540 235Q522 120 437.5 54.5T250-11q-47 0-89.5 17.5T87 55.5t-45 81T37 245q18 115 102.5 180.5T327 491q101 0 166.5-69.5T540 235zm-448 3q-14-89 33.5-142T254 43q85 0 150.5 53.5T485 242q14 89-33.5 142T323 437q-85 0-151-53.5T92 238z"/><glyph glyph-name="uni043F" unicode="п" horiz-adv-x="583" d="M90 0H33l76 480h425L458 0h-56l67 427H157z"/><glyph glyph-name="uni0440" unicode="р" horiz-adv-x="619" d="M144 378q86 113 220 113 102 0 160.5-72.5T566 235q-17-109-95-177.5T290-11q-69 0-115.5 31.5T106 103L55-220H-2l111 700h51zm366-139q15 89-30.5 144.5T355 439q-68 0-126.5-39T138 303l-21-130q13-57 58.5-94.5T287 41q83 0 145.5 53T510 239z"/><glyph glyph-name="uni0441" unicode="с" horiz-adv-x="498" d="M37 246q13 83 62 140.5t109 81T333 491q84 0 143-42l-9-53q-50 43-130 43-55 0-104-19t-89-65.5T93 240q-16-97 35-148t139-51q79 0 155 42l-9-59q-71-35-158-35-106 0-171.5 67T37 246z"/><glyph glyph-name="uni0442" unicode="т" horiz-adv-x="460" d="M212 0h-56l67 427H37l8 53h429l-8-53H280z"/><glyph glyph-name="uni0443" unicode="у" horiz-adv-x="535" d="M238 58l247 422h62L215-80Q125-231 22-231q-30 0-52 7l7 48q17-5 40-5 43 0 78.5 30T169-57l34 57L43 480h57z"/><glyph glyph-name="uni0444" unicode="ф" horiz-adv-x="712" d="M303-220h-56l33 209Q162-9 90.5 61.5T36 245q18 113 108 178.5T360 491l33 209h56l-33-209q118-2 190-72.5T660 235 552 56.5 336-11zM92 241q-14-91 40-145.5T289 39l64 402q-103-2-174.5-54.5T92 241zm316 200L344 39q103 2 174.5 54.5T605 239q14 91-40 145.5T408 441z"/><glyph glyph-name="uni0445" unicode="х" horiz-adv-x="486" d="M35 0h-67l236 247L56 480h64l121-194 185 194h67L268 245 426 0h-64L232 206z"/><glyph glyph-name="uni0446" unicode="ц" horiz-adv-x="598" d="M498-133h-56L463 0H33l76 480h57L98 53h302l68 427h56L457 53h70z"/><glyph glyph-name="uni0447" unicode="ч" horiz-adv-x="519" d="M394 0h-56l27 173q-71-26-154-26-86 0-132 44T46 320l26 160h56l-25-160q-10-65 23-93t103-28q69 0 145 26l40 255h56z"/><glyph glyph-name="uni0448" unicode="ш" horiz-adv-x="815" d="M690 0H33l76 480h57L98 53h244l67 427h57L398 53h244l67 427h57z"/><glyph glyph-name="uni0449" unicode="щ" horiz-adv-x="839" d="M738-133h-55L704 0H33l76 480h57L98 53h244l67 427h57L398 53h244l67 427h57L698 53h70z"/><glyph glyph-name="uni044A" unicode="ъ" horiz-adv-x="583" d="M324 0H103l68 430H37l8 50h190l-27-175h168q79 0 121.5-44.5T529 149 464 41 324 0zM200 254L168 51h155q63 0 102.5 28t47.5 77q7 46-22.5 72T364 254H200z"/><glyph glyph-name="uni044B" unicode="ы" horiz-adv-x="713" d="M254 0H33l76 480h57l-28-175h169q79 0 121-44t31-112q-10-66-64.5-107.5T254 0zM130 254L98 51h155q63 0 102.5 28t47.5 77q7 46-22.5 72T294 254H130zM588 0h-57l76 480h57z"/><glyph glyph-name="uni044C" unicode="ь" horiz-adv-x="513" d="M254 0H33l76 480h57l-28-175h169q79 0 121-44t31-112q-10-66-64.5-107.5T254 0zM130 254L98 51h155q63 0 102.5 28t47.5 77q7 46-22.5 72T294 254H130z"/><glyph glyph-name="uni044D" unicode="э" horiz-adv-x="504" d="M450 230Q430 108 350 48.5T166-11Q75-11 3 32l9 53q65-44 146-44 89 0 151.5 42T390 216l-267-2 9 52 266 2q7 86-48 128.5T217 439q-84 0-157-44l9 54q72 42 156 42 103 0 173.5-67.5T450 230z"/><glyph glyph-name="uni044E" unicode="ю" horiz-adv-x="814" d="M761 235Q743 120 659 54.5T472-11q-94 0-158.5 61T255 214H123L90 0H33l76 480h57l-34-213h131q24 103 105.5 163.5T548 491q101 0 166.5-69.5T761 235zm-448 3q-14-89 33.5-142T475 43q85 0 150.5 53.5T706 242q14 89-33.5 142T544 437q-85 0-151-53.5T313 238z"/><glyph glyph-name="uni044F" unicode="я" horiz-adv-x="539" d="M52 0h-65l172 186q-55 14-81.5 52.5T60 333q10 64 64 105.5T263 480h227L414 0h-56l28 178H218zm64 325q-7-44 23.5-70t89.5-26h165l32 200H264q-62 0-101.5-28T116 325z"/><glyph glyph-name="uni0451" unicode="ё" horiz-adv-x="545" d="M468 613q-2-16-15-27t-29-11q-19 0-30 13.5t-8 31.5q3 15 16 26.5t29 11.5q18 0 29-14t8-31zm-201 0q-2-16-15-27t-29-11q-19 0-30 13.5t-8 31.5q3 15 16 26.5t29 11.5q18 0 29-14t8-31zM36 242q18 117 97.5 183T309 491q64 0 109.5-25.5t64-66 22-90T488 212H89q-8-85 47.5-128T274 41q91 0 168 40l-9-57q-70-35-168-35-49 0-93 15.5T93 50t-51 80-6 112zm410 20q4 22 5.5 45.5t-7.5 47-24 42.5-44 30.5-67 11.5q-75 0-135.5-47.5T96 262h350z"/><glyph glyph-name="Wgrave" unicode="Ẁ" horiz-adv-x="997" d="M979 700h63L713 0h-67l-97 590L264 0h-70L83 700h60l98-624 299 621h49L690 84zm-357 73h-61l-76 142h69z"/><glyph glyph-name="wgrave" unicode="ẁ" horiz-adv-x="795" d="M742 480h61L555 0h-59l-79 399L208 0h-61L51 480h57l81-408 212 405h51l81-404zm-255 73h-61l-76 142h69z"/><glyph glyph-name="Wacute" unicode="Ẃ" horiz-adv-x="997" d="M979 700h63L713 0h-67l-97 590L264 0h-70L83 700h60l98-624 299 621h49L690 84zm-388 73h-63l112 142h72z"/><glyph glyph-name="wacute" unicode="ẃ" horiz-adv-x="795" d="M742 480h61L555 0h-59l-79 399L208 0h-61L51 480h57l81-408 212 405h51l81-404zm-286 73h-63l112 142h72z"/><glyph glyph-name="Wdieresis" unicode="Ẅ" horiz-adv-x="997" d="M979 700h63L713 0h-67l-97 590L264 0h-70L83 700h60l98-624 299 621h49L690 84zM721 833q-2-16-15-27t-29-11q-19 0-30 13.5t-8 31.5q3 15 16 26.5t29 11.5q18 0 29-14t8-31zm-201 0q-2-16-15-27t-29-11q-19 0-30 13.5t-8 31.5q3 15 16 26.5t29 11.5q18 0 29-14t8-31z"/><glyph glyph-name="wdieresis" unicode="ẅ" horiz-adv-x="795" d="M742 480h61L555 0h-59l-79 399L208 0h-61L51 480h57l81-408 212 405h51l81-404zM586 613q-2-16-15-27t-29-11q-19 0-30 13.5t-8 31.5q3 15 16 26.5t29 11.5q18 0 29-14t8-31zm-201 0q-2-16-15-27t-29-11q-19 0-30 13.5t-8 31.5q3 15 16 26.5t29 11.5q18 0 29-14t8-31z"/><glyph glyph-name="Ygrave" unicode="Ỳ" horiz-adv-x="643" d="M305 0h-60l44 273L82 700h62l181-370 299 370h68L349 273zm135 773h-61l-76 142h69z"/><glyph glyph-name="ygrave" unicode="ỳ" horiz-adv-x="535" d="M238 58l247 422h62L215-80Q125-231 22-231q-30 0-52 7l7 48q17-5 40-5 43 0 78.5 30T169-57l34 57L43 480h57zm106 495h-61l-76 142h69z"/><glyph glyph-name="endash" unicode="–" horiz-adv-x="572" d="M493 219H56l8 54h438z"/><glyph glyph-name="emdash" unicode="—" horiz-adv-x="757" d="M679 219H56l8 54h623z"/><glyph glyph-name="quoteleft" unicode="‘" horiz-adv-x="208" d="M140 477H79l101 223h48z"/><glyph glyph-name="quoteright" unicode="’" horiz-adv-x="205" d="M129 477H82l88 223h61z"/><glyph glyph-name="quotesinglbase" unicode="‚" horiz-adv-x="218" d="M11-147h-47L53 77h60z"/><glyph glyph-name="quotedblleft" unicode="“" horiz-adv-x="341" d="M273 477h-61l101 223h48zm-133 0H79l101 223h48z"/><glyph glyph-name="quotedblright" unicode="”" horiz-adv-x="339" d="M263 477h-47l88 223h61zm-134 0H82l88 223h61z"/><glyph glyph-name="quotedblbase" unicode="„" horiz-adv-x="351" d="M144-147H97l89 224h60zm-133 0h-47L53 77h60z"/><glyph glyph-name="dagger" unicode="†" horiz-adv-x="501" d="M199-220h-59l102 643H55l9 57h187l35 220h59l-35-220h187l-9-57H301z"/><glyph glyph-name="daggerdbl" unicode="‡" horiz-adv-x="525" d="M211-220h-60l50 313H15l9 56h186l43 274H68l9 57h185l35 220h60l-35-220h186l-9-57H313l-43-274h186l-9-56H261z"/><glyph glyph-name="bullet" unicode="•" horiz-adv-x="315" d="M102 354q4 28 24.5 43.5T173 413q28 0 44.5-18t12.5-49q-4-28-24.5-43.5T159 287q-28 0-44.5 18T102 354z"/><glyph glyph-name="ellipsis" unicode="…" horiz-adv-x="533" d="M434 28q-6-36-43-36-17 0-28 12t-7 31q2 16 14.5 25.5T398 70q19 0 29.5-11.5T434 28zm-330 0Q98-8 62-8 44-8 33 4t-7 31q2 16 14.5 25.5T68 70q19 0 29.5-11.5T104 28zm165 0q-6-36-42-36-18 0-29 12t-7 31q2 16 14.5 25.5T233 70q19 0 29.5-11.5T269 28z"/><glyph glyph-name="perthousand" unicode="‰" horiz-adv-x="1267" d="M213-60h-59l539 820h59zm177 615q-10-69-61-107.5T214 409t-105.5 42.5T78 565q11 69 62 107.5T256 711q64 0 105-42.5T390 555zm-260 6q-7-44 17-73t69-29q47 0 81 27.5t41 72.5q7 44-17 73t-67 29q-48 0-82.5-27.5T130 561zm698-426q-11-69-62-107.5T651-11 545.5 31.5 515 145q11 69 62 107.5T693 291q63 0 104.5-42.5T828 135zm-261 6q-7-44 17-73t69-29q47 0 81 27.5t41 72.5q7 44-17 73t-67 29q-48 0-82.5-27.5T567 141zm641-6q-11-69-62-107.5T1031-11 925.5 31.5 895 145q11 69 62 107.5t116 38.5q63 0 104.5-42.5T1208 135zm-261 6q-7-44 17-73t69-29q47 0 81 27.5t41 72.5q7 44-17 73t-67 29q-48 0-82.5-27.5T947 141z"/><glyph glyph-name="guilsinglleft" unicode="‹" horiz-adv-x="290" d="M193 63h-60L39 234l2 14 147 169h62L96 240z"/><glyph glyph-name="guilsinglright" unicode="›" horiz-adv-x="291" d="M86 63H24l154 177-96 177h59l95-171-3-14z"/><glyph glyph-name="fraction" unicode="⁄" horiz-adv-x="167" d="M-178-12h-29l572 723h29z"/><glyph glyph-name="Euro" unicode="€" horiz-adv-x="725" d="M707 586q-74 49-176 49-103 0-191.5-50T209 434h366l-8-50H193q-3-11-7-35t-4-53h371l-8-50H186q15-93 85.5-147T437 45q120 0 202 50l-9-62q-85-44-201-44-118 0-203.5 69.5T125 246H35l8 50h79q0 31 4 56 6 30 6 32H57l8 50h81q45 125 154 191t231 66q102 0 186-49z"/><glyph glyph-name="trademark" unicode="™" horiz-adv-x="660" d="M361 447h-35l41 253h39l75-144 122 144h42l-40-253h-35l32 201-115-133h-21l-72 133zm-172 0h-36l35 220h-88l5 33h212l-5-33h-88z"/><glyph glyph-name="oneeighth" unicode="⅛" horiz-adv-x="923" d="M574 313q7 41 49 71.5T736 415q69 0 106-34.5t31-82.5q-9-61-72-101 65-35 54-97-7-45-51-76T679-7 559 28.5 529 117q11 65 86 107-49 33-41 89zm138-128q-38 10-55 17-71-32-78-85-6-38 20-58t82-20q53 0 86.5 18t38.5 48q6 41-44 63-10 4-50 17zm110 110q6 31-17 52.5T734 369q-47 0-76.5-17T623 308q-4-7-.5-14.5t2.5-12 5.5-10.5 7.5-8.5 9.5-7.5 11.5-6.5 12.5-5.5 13-5 13.5-4.5 13-4.5q9-2 26.5-6.5T760 217q56 33 62 78zM178-12h-29l572 723h29zm39 692h37l-57-361h73l-8-47H47l7 47h93l49 309-92-34 8 48z"/><glyph glyph-name="threeeighths" unicode="⅜" horiz-adv-x="965" d="M616 313q7 41 49 71.5T778 415q69 0 106-34.5t31-82.5q-9-61-72-101 65-35 54-97-7-45-51-76T721-7 601 28.5 571 117q11 65 86 107-49 33-41 89zm138-128q-38 10-55 17-71-32-78-85-6-38 20-58t82-20q53 0 86.5 18t38.5 48q6 41-44 63-10 4-50 17zm110 110q6 31-17 52.5T776 369q-47 0-76.5-17T665 308q-4-7-.5-14.5t2.5-12 5.5-10.5 7.5-8.5 9.5-7.5 11.5-6.5 12.5-5.5 13-5 13.5-4.5 13-4.5q9-2 26.5-6.5T802 217q56 33 62 78zM230-12h-29l572 723h29zm139 589q-5-31-26-55t-55-34q33-8 53.5-34.5T355 383q-9-55-55.5-84.5T187 269q-78 0-136 28l8 48q53-29 126-29 112 0 123 77 6 38-17.5 54T221 463h-64l7 47h57q43 0 69.5 19.5T322 580q4 29-19.5 46.5T238 644q-65 0-130-31l8 51q60 27 130 27 58 0 94-33t29-81z"/><glyph glyph-name="fiveeighths" unicode="⅝" horiz-adv-x="956" d="M607 313q7 41 49 71.5T769 415q69 0 106-34.5t31-82.5q-9-61-72-101 65-35 54-97-7-45-51-76T712-7 592 28.5 562 117q11 65 86 107-49 33-41 89zm138-128q-38 10-55 17-71-32-78-85-6-38 20-58t82-20q53 0 86.5 18t38.5 48q6 41-44 63-10 4-50 17zm110 110q6 31-17 52.5T767 369q-47 0-76.5-17T656 308q-4-7-.5-14.5t2.5-12 5.5-10.5 7.5-8.5 9.5-7.5 11.5-6.5 12.5-5.5 13-5 13.5-4.5 13-4.5q9-2 26.5-6.5T793 217q56 33 62 78zM221-12h-29l572 723h29zm-87 692h245l-8-47H173l-27-116q34 9 70 9 61 0 104-33.5T353 391q-9-59-58.5-92.5T177 265q-77 0-128 28l7 46q48-27 117-27 53 0 88 22.5t42 64.5q8 45-22 63.5T198 481q-49 0-111-20z"/><glyph glyph-name="seveneighths" unicode="⅞" horiz-adv-x="863" d="M123-12H94l572 723h29zm389 325q7 41 49 71.5T674 415q69 0 106-34.5t31-82.5q-9-61-72-101 65-35 54-97-7-45-51-76T617-7 497 28.5 467 117q11 65 86 107-49 33-41 89zm138-128q-38 10-55 17-71-32-78-85-6-38 20-58t82-20q53 0 86.5 18t38.5 48q6 41-44 63-10 4-50 17zm110 110q6 31-17 52.5T672 369q-47 0-76.5-17T561 308q-4-7-.5-14.5t2.5-12 5.5-10.5 7.5-8.5 9.5-7.5 11.5-6.5 12.5-5.5 13-5 13.5-4.5 13-4.5q9-2 26.5-6.5T698 217q56 33 62 78zm-606-23H99l219 361H90l8 47h282l-7-45z"/><glyph glyph-name="partialdiff" unicode="∂" horiz-adv-x="594" d="M536 265Q515 134 436 61.5T246-11Q140-11 79 54.5T35 226q15 95 91 157.5T296 446q76 0 130.5-38T491 306q0 3 1 8t1.5 9.5.5 9.5q3 83-24.5 146.5t-77 99.5-109 53T157 647l8 53q65 0 123.5-15T400 638t87-83 49.5-123-.5-167zM90 219q-13-81 30.5-128.5T248 43q80 0 135.5 44T463 207q12 86-34.5 136T302 393t-140-48.5T90 219z"/><glyph glyph-name="emptyset" unicode="∅" horiz-adv-x="817" d="M780 343Q756 198 637 93.5T364-11q-129 0-215 78L82 0H43l87 86Q31 197 57 357q23 145 142 249.5T473 711q130 0 213-78l68 67h39l-88-86q48-52 67.5-123t7.5-148zm-692 7q-22-146 65-242l511 504q-76 68-190 68-144 0-254-98T88 350zm84-261q77-69 191-69 144 0 254 98t132 232q22 145-65 243z"/><glyph glyph-name="product" unicode="∏" horiz-adv-x="742" d="M114-220H55l137 863H93l10 57h666l-9-57h-98L525-220h-59l136 863H251z"/><glyph glyph-name="summation" unicode="∑" horiz-adv-x="564" d="M467 0H-6l5 34 327 318-226 315 5 33h471l-10-57H188l205-286-3-19L101 57h375z"/><glyph glyph-name="minus" unicode="−" horiz-adv-x="519" d="M450 320H75l8 54h375z"/><glyph glyph-name="radical" unicode="√" horiz-adv-x="730" d="M311 0h-53L145 423H47l9 57h129L294 69l446 711h64z"/><glyph glyph-name="infinity" unicode="∞" horiz-adv-x="833" d="M433 403q53 63 101.5 97T645 534q69 0 113-49.5T789 354q-12-79-67-125.5T596 182q-107 0-176 131-53-63-101.5-97T208 182q-70 0-113.5 49.5T64 362q12 79 67.5 125.5T257 534q105 0 176-131zm-38-43q-28 58-57.5 89T263 480q-54 0-94.5-31.5T119 358q-9-58 19.5-90t79.5-32q50 0 89.5 31.5T395 360zm339 2q9 57-19.5 87.5T635 480q-49 0-89-31.5T457 356q28-57 58-88.5t75-31.5q54 0 94 32.5t50 93.5z"/><glyph glyph-name="integral" unicode="∫" horiz-adv-x="412" d="M235 652q12 73 59.5 106T400 791q42 0 76-15l-8-52q-26 13-65 13-97 0-113-93L174-92q-12-74-58.5-106.5T9-231q-42 0-76 15l8 52q24-13 58-13 106 0 120 93z"/><glyph glyph-name="approxequal" unicode="≈" horiz-adv-x="584" d="M543 480q-3-48-33.5-76T433 376q-37 0-117.5 30.5T202 437q-26 0-42.5-13.5T142 386H89q4 49 34.5 76.5T198 490q40 0 119-30t114-30q25 0 41.5 13t17.5 37h53zm-23-148q-3-48-33.5-76T410 228q-37 0-117.5 30.5T179 289q-26 0-42.5-13.5T119 238H66q4 49 34.5 76.5T175 342q40 0 119-30t114-30q25 0 41.5 13t17.5 37h53z"/><glyph glyph-name="notequal" unicode="≠" horiz-adv-x="552" d="M141 131H89l79 101H61l8 54h139l99 128H90l8 54h250l78 101h52l-78-101h107l-9-54H359l-99-128h218l-8-54H220z"/><glyph glyph-name="lessequal" unicode="≤" horiz-adv-x="531" d="M435 237l-9-56L83 338l9 57 392 156-8-56-331-129zM397 0H29l9 54h367z"/><glyph glyph-name="greaterequal" unicode="≥" horiz-adv-x="527" d="M465 337L73 181l9 56 330 129-289 129 8 56 344-157zM412 0H44l9 54h367z"/><glyph glyph-name="lozenge" unicode="◊" horiz-adv-x="555" d="M264 0h-64L47 350l263 350h63l154-350zM110 345L238 55l226 299-128 291z"/><glyph glyph-name="i.loclTRK" horiz-adv-x="221" d="M93 0H36l76 480h57zm108 599q-3-20-17-31t-33-11q-21 0-33.5 13.5T109 607q4 19 18 30t32 11q22 0 34-13t8-36z"/><glyph glyph-name="a.ss01" horiz-adv-x="542" d="M425 85q-7-40 34-40 18 0 41 7l-8-47q-24-9-51-9-33 0-54 17t-20 54q-81-78-198-78-70 0-116 40T13 139q5 55 43.5 90t84.5 47 99 12q85 0 157-22l6 37q11 66-25 101t-120 35q-75 0-165-34l9 56q78 30 164 30 109 0 158-50.5T457 292zM180 38q54 0 108 25t88 69l14 89q-67 19-144 19-67 0-118.5-24.5T71 135q-4-45 27-71t82-26z"/><glyph glyph-name="aacute.ss01" horiz-adv-x="541" d="M424 85q-8-40 34-40 18 0 41 7l-8-47q-24-9-51-9-33 0-54 17t-20 54q-81-78-198-78-70 0-116 40T12 139q5 55 43.5 90t84.5 47 99 12q85 0 157-22l6 37q11 66-25 101t-120 35q-75 0-165-34l9 56q78 30 164 30 109 0 158-50.5T456 292zM179 38q54 0 108 25t88 69l14 89q-67 19-144 19-67 0-118.5-24.5T70 135q-4-45 27-71t82-26zm131 515h-63l112 142h72z"/><glyph glyph-name="abreve.ss01" horiz-adv-x="541" d="M424 85q-8-40 34-40 18 0 41 7l-8-47q-24-9-51-9-33 0-54 17t-20 54q-81-78-198-78-70 0-116 40T12 139q5 55 43.5 90t84.5 47 99 12q85 0 157-22l6 37q11 66-25 101t-120 35q-75 0-165-34l9 56q78 30 164 30 109 0 158-50.5T456 292zM179 38q54 0 108 25t88 69l14 89q-67 19-144 19-67 0-118.5-24.5T70 135q-4-45 27-71t82-26zm254 561q-62-41-138-41-81 0-129 41l9 57q53-44 125-44 74 0 141 44z"/><glyph glyph-name="acircumflex.ss01" horiz-adv-x="541" d="M424 85q-8-40 34-40 18 0 41 7l-8-47q-24-9-51-9-33 0-54 17t-20 54q-81-78-198-78-70 0-116 40T12 139q5 55 43.5 90t84.5 47 99 12q85 0 157-22l6 37q11 66-25 101t-120 35q-75 0-165-34l9 56q78 30 164 30 109 0 158-50.5T456 292zM179 38q54 0 108 25t88 69l14 89q-67 19-144 19-67 0-118.5-24.5T70 135q-4-45 27-71t82-26zm107 653h51l108-137h-62l-76 94-105-94h-67z"/><glyph glyph-name="adieresis.ss01" horiz-adv-x="541" d="M424 85q-8-40 34-40 18 0 41 7l-8-47q-24-9-51-9-33 0-54 17t-20 54q-81-78-198-78-70 0-116 40T12 139q5 55 43.5 90t84.5 47 99 12q85 0 157-22l6 37q11 66-25 101t-120 35q-75 0-165-34l9 56q78 30 164 30 109 0 158-50.5T456 292zM179 38q54 0 108 25t88 69l14 89q-67 19-144 19-67 0-118.5-24.5T70 135q-4-45 27-71t82-26zm261 575q-2-16-15-27t-29-11q-19 0-30 13.5t-8 31.5q3 15 16 26.5t29 11.5q18 0 29-14t8-31zm-201 0q-2-16-15-27t-29-11q-19 0-30 13.5t-8 31.5q3 15 16 26.5t29 11.5q18 0 29-14t8-31z"/><glyph glyph-name="agrave.ss01" horiz-adv-x="541" d="M424 85q-8-40 34-40 18 0 41 7l-8-47q-24-9-51-9-33 0-54 17t-20 54q-81-78-198-78-70 0-116 40T12 139q5 55 43.5 90t84.5 47 99 12q85 0 157-22l6 37q11 66-25 101t-120 35q-75 0-165-34l9 56q78 30 164 30 109 0 158-50.5T456 292zM179 38q54 0 108 25t88 69l14 89q-67 19-144 19-67 0-118.5-24.5T70 135q-4-45 27-71t82-26zm162 515h-61l-76 142h69z"/><glyph glyph-name="amacron.ss01" horiz-adv-x="541" d="M424 85q-8-40 34-40 18 0 41 7l-8-47q-24-9-51-9-33 0-54 17t-20 54q-81-78-198-78-70 0-116 40T12 139q5 55 43.5 90t84.5 47 99 12q85 0 157-22l6 37q11 66-25 101t-120 35q-75 0-165-34l9 56q78 30 164 30 109 0 158-50.5T456 292zM179 38q54 0 108 25t88 69l14 89q-67 19-144 19-67 0-118.5-24.5T70 135q-4-45 27-71t82-26zm-12 589h280l-8-52H159z"/><glyph glyph-name="aogonek.ss01" horiz-adv-x="541" d="M499 52l-8-47q-52-34-87-71.5T365-137q-4-20 7-32.5t33-12.5q26 0 54 10l-8-47q-28-10-60-10-43 0-65 25t-16 63q9 64 105 140-50 13-49 68-81-78-198-78-70 0-116 40T12 139q5 55 43.5 90t84.5 47 99 12q85 0 157-22l6 37q11 66-25 101t-120 35q-75 0-165-34l9 56q78 30 164 30 109 0 158-50.5T456 292L424 85q-8-40 34-40 18 0 41 7zM179 38q54 0 108 25t88 69l14 89q-67 19-144 19-67 0-118.5-24.5T70 135q-4-45 27-71t82-26z"/><glyph glyph-name="aring.ss01" horiz-adv-x="541" d="M424 85q-8-40 34-40 18 0 41 7l-8-47q-24-9-51-9-33 0-54 17t-20 54q-81-78-198-78-70 0-116 40T12 139q5 55 43.5 90t84.5 47 99 12q85 0 157-22l6 37q11 66-25 101t-120 35q-75 0-165-34l9 56q78 30 164 30 109 0 158-50.5T456 292zM179 38q54 0 108 25t88 69l14 89q-67 19-144 19-67 0-118.5-24.5T70 135q-4-45 27-71t82-26zm229 587q-7-43-40-69t-74-26q-42 0-69.5 28.5T204 632q7 42 40.5 68t74.5 26q42 0 69-28.5t20-72.5zm-161 3q-4-25 10-41.5t37-16.5q26 0 47 15.5t25 42.5q4 25-10 41.5T319 686q-26 0-47-15.5T247 628z"/><glyph glyph-name="atilde.ss01" horiz-adv-x="541" d="M424 85q-8-40 34-40 18 0 41 7l-8-47q-24-9-51-9-33 0-54 17t-20 54q-81-78-198-78-70 0-116 40T12 139q5 55 43.5 90t84.5 47 99 12q85 0 157-22l6 37q11 66-25 101t-120 35q-75 0-165-34l9 56q78 30 164 30 109 0 158-50.5T456 292zM179 38q54 0 108 25t88 69l14 89q-67 19-144 19-67 0-118.5-24.5T70 135q-4-45 27-71t82-26zm279 608q-1-44-24.5-68T375 554q-32 0-82 24t-69 24-30-11.5-11-31.5h-49q1 44 24.5 68.5T216 652q32 0 82.5-24t69.5-24q41 0 41 42h49z"/><glyph glyph-name="ae.ss01" horiz-adv-x="895" d="M417 90Q310-11 171-11q-71 0-119 41T12 141q5 42 27.5 72t57 45.5T168 281t78 7q78 0 150-22l6 37q11 64-24 100t-111 36q-79 0-175-34l9 56q88 30 174 30 75 0 119.5-32t52.5-90q37 58 95.5 90T668 491q60 0 103-25.5t61-66 21-90.5-17-99H444q-8-86 45.5-127.5T628 41q92 0 162 40l-9-58q-68-34-166-34-65 0-118 25.5T417 90zM69 137q-5-44 29-71.5T181 38q111 0 216 93-13 41-7 90-71 19-139 19-170 0-182-103zm593 302q-77 0-135.5-47.5T451 260h343q10 28 5.5 60t-17 58-44 43.5T662 439z"/><glyph glyph-name="y.ss01" horiz-adv-x="583" d="M457-5q-20-118-95-172t-174-54q-111 0-173 38l9 54q60-40 159-40 84 0 144 42T401-1l13 83q-85-93-192-93-89 0-134.5 54T56 186l46 294h57l-47-291Q89 41 230 41q57 0 107.5 32t87.5 78l52 329h57z"/><glyph glyph-name="yacute.ss01" horiz-adv-x="583" d="M457-5q-20-118-95-172t-174-54q-111 0-173 38l9 54q60-40 159-40 84 0 144 42T401-1l13 83q-85-93-192-93-89 0-134.5 54T56 186l46 294h57l-47-291Q89 41 230 41q57 0 107.5 32t87.5 78l52 329h57zM345 553h-63l112 142h72z"/><glyph glyph-name="ycircumflex.ss01" horiz-adv-x="583" d="M457-5q-20-118-95-172t-174-54q-111 0-173 38l9 54q60-40 159-40 84 0 144 42T401-1l13 83q-85-93-192-93-89 0-134.5 54T56 186l46 294h57l-47-291Q89 41 230 41q57 0 107.5 32t87.5 78l52 329h57zM321 691h51l108-137h-62l-76 94-105-94h-67z"/><glyph glyph-name="ydieresis.ss01" horiz-adv-x="583" d="M457-5q-20-118-95-172t-174-54q-111 0-173 38l9 54q60-40 159-40 84 0 144 42T401-1l13 83q-85-93-192-93-89 0-134.5 54T56 186l46 294h57l-47-291Q89 41 230 41q57 0 107.5 32t87.5 78l52 329h57zm18 618q-2-16-15-27t-29-11q-19 0-30 13.5t-8 31.5q3 15 16 26.5t29 11.5q18 0 29-14t8-31zm-201 0q-2-16-15-27t-29-11q-19 0-30 13.5t-8 31.5q3 15 16 26.5t29 11.5q18 0 29-14t8-31z"/><glyph glyph-name="ygrave.ss01" horiz-adv-x="583" d="M457-5q-20-118-95-172t-174-54q-111 0-173 38l9 54q60-40 159-40 84 0 144 42T401-1l13 83q-85-93-192-93-89 0-134.5 54T56 186l46 294h57l-47-291Q89 41 230 41q57 0 107.5 32t87.5 78l52 329h57zm-81 558h-61l-76 142h69z"/><glyph glyph-name="f_b" horiz-adv-x="961" d="M492 385q37 47 93 76.5T706 491q102 0 160.5-72.5T908 235q-17-110-93.5-178T632-11q-131 0-189 113L426 0h-51l100 629q-55 30-122 30-59 0-97.5-28.5T208 546l-11-66h168l-8-53H188L121 0H64l68 427H45l8 53h87l12 70q12 78 67 119.5T352 711q69 0 131-30l1 6 59 15zM629 41q87 0 148 53t76 145q14 89-32 144.5T698 439q-69 0-127-38.5T481 304l-22-131q14-57 59-94.5T629 41z"/><glyph glyph-name="f_f_b" horiz-adv-x="1271" d="M802 385q37 47 93 76.5t121 29.5q102 0 160.5-72.5T1218 235q-17-110-93.5-178T942-11q-131 0-189 113L736 0h-51l101 635q-57 30-122 30-59 0-98-29.5T518 546l-11-66h168l-8-53H498L431 0h-57l68 427H188L121 0H64l68 427H45l8 53h87l9 57q12 77 69 119t135 42 151-48q56 68 156 68 74 0 134-31l1 6 59 15zm-352 95l12 70q4 31 17 56-54 39-124 39-59 0-99.5-28.5T206 533l-9-53h253zM939 41q87 0 148 53t76 145q14 89-32 144.5T1008 439q-69 0-127-38.5T791 304l-22-131q14-57 59-94.5T939 41z"/><glyph glyph-name="f_f_h" horiz-adv-x="1236" d="M804 397q90 94 198 94 85 0 130-54t32-143L1117 0h-57l46 291q12 72-21 110t-96 38q-56 0-108.5-33T793 327L742 0h-57l101 635q-57 30-122 30-59 0-98-29.5T518 546l-11-66h168l-8-53H498L431 0h-57l68 427H188L121 0H64l68 427H45l8 53h87l9 57q12 77 69 119t135 42 151-48q56 68 156 68 74 0 134-31l1 6 59 15zm-354 83l12 70q4 31 17 56-54 39-124 39-59 0-99.5-28.5T206 533l-9-53h253z"/><glyph glyph-name="f_f_j" horiz-adv-x="860" d="M716-102q-21-129-147-129-42 0-73 14l8 50q24-12 56-12 86 0 101 89l82 517H498L431 0h-57l68 427H188L121 0H64l68 427H45l8 53h87l9 57q12 78 68 119.5T353 698q79 0 152-48 56 68 158 68 76 0 146-40l-9-55q-62 42-136 42-58 0-97.5-29.5T518 546l-11-66h301zM206 533l-9-53h253l12 70q4 29 17 56-56 39-124 39-61 0-100.5-28.5T206 533z"/><glyph glyph-name="f_f_k" horiz-adv-x="1161" d="M1097 480h68L938 246 1110 0h-64L888 226H778L743 0h-57l101 635q-57 30-123 30-59 0-98-29.5T518 546l-11-66h168l-8-53H498L431 0h-57l68 427H188L121 0H64l68 427H45l8 53h87l9 57q12 77 69 119t135 42 151-48q56 68 156 68 73 0 135-31l1 6 59 15-68-430h114zm-647 0l12 70q4 31 17 56-54 39-124 39-59 0-99.5-28.5T206 533l-9-53h253z"/><glyph glyph-name="f_h" horiz-adv-x="926" d="M494 397q90 94 198 94 85 0 130-54t32-143L807 0h-57l46 291q12 72-21 110t-96 38q-56 0-108.5-33T483 327L432 0h-57l100 629q-55 30-122 30-59 0-97.5-28.5T208 546l-11-66h168l-8-53H188L121 0H64l68 427H45l8 53h87l12 70q12 78 67 119.5T352 711q69 0 131-30l1 6 59 15z"/><glyph glyph-name="f_i" horiz-adv-x="550" d="M121 0H64l68 427H45l8 53h87l12 70q12 78 66.5 119.5T350 711q83 0 149-40l-9-54q-65 42-137 42-58 0-97-28.5T208 546l-11-66h301L422 0h-57l68 427H188z"/><glyph glyph-name="f_j" horiz-adv-x="550" d="M406-102q-21-129-147-129-42 0-73 14l8 50q24-12 56-12 86 0 101 89l82 517H188L121 0H64l68 427H45l8 53h87l12 70q12 78 66.5 119.5T350 711q83 0 149-40l-9-54q-65 42-137 42-58 0-97-28.5T208 546l-11-66h301z"/><glyph glyph-name="f_k" horiz-adv-x="850" d="M787 480h67L628 246 800 0h-64L578 226H467L432 0h-57l100 629q-55 30-122 30-59 0-97.5-28.5T208 546l-11-66h168l-8-53H188L121 0H64l68 427H45l8 53h87l12 70q12 78 67 119.5T352 711q69 0 131-30l1 6 59 15-67-424h115z"/><glyph glyph-name="f_l" horiz-adv-x="560" d="M483 681l1 6 59 15L432 0h-57l100 629q-55 30-122 30-59 0-97.5-28.5T208 546l-11-66h168l-8-53H188L121 0H64l68 427H45l8 53h87l12 70q12 78 67 119.5T352 711q69 0 131-30z"/><glyph glyph-name="uni0414.loclBGR" horiz-adv-x="790" d="M11-170h-57l36 227h74l362 643h67L653 57h74l-36-227h-57L661 0H38zm442 804L131 57h463z"/><glyph glyph-name="uni041B.loclBGR" horiz-adv-x="681" d="M-33 0l408 700h61L622 0h-62L398 629 33 0h-66z"/><glyph glyph-name="uni0424.loclBGR" horiz-adv-x="896" d="M414-103h-58l16 96Q209-1 121.5 101.5T58 355q24 150 140 248t287 104l15 96h58l-15-96q163-6 250.5-108.5T857 345Q833 195 717 97T430-7zM117 351q-20-125 49-210t215-91l95 600q-147-6-243-89.5T117 351zm417 299L439 50q148 6 244 89.5T798 349q20 124-49 209.5T534 650z"/><glyph glyph-name="uni0432.loclBGR" horiz-adv-x="579" d="M368 711q82 0 127.5-49.5T530 542q-16-103-135-149 68-14 103-69t23-131q-15-90-82.5-147T269-11q-109 0-168.5 69.5T62 259l20 127q53 325 286 325zm-59-306q147 31 164 139 7 47-21.5 81T366 659q-184 0-227-273l-2-15zM270 41q77 0 130.5 41T465 194q12 78-34 127t-130 32l-172-35-9-59q-17-111 23.5-164.5T270 41z"/><glyph glyph-name="uni0433.loclBGR" horiz-adv-x="473" d="M384 38q-80-49-193-49-88 0-138 34T12 127q7 51 45.5 80.5T146 248t100 20.5 87.5 30.5 43.5 60q6 41-27.5 60.5T262 439q-95 0-181-48l9 55q87 45 184 45 75 0 123-34.5T434 355q-8-53-47-83.5t-89-42-100-20-87-29T69 123q-6-44 29.5-63T203 41q46 0 98.5 15T393 96z"/><glyph glyph-name="uni0434.loclBGR" horiz-adv-x="619" d="M494-2q-18-117-98-173t-187-56q-115 0-190 48l9 54q72-50 176-50 91 0 155 44T437 2l15 91q-36-46-91-75T239-11Q134-11 76.5 61.5T37 245q17 109 95 177.5T312 491q134 0 189-116l16 105h53zM92 241q-14-89 30.5-144.5T247 41q69 0 127.5 37.5T464 171l22 136q-13 57-58 94.5T316 439q-83 0-146-53T92 241z"/><glyph glyph-name="uni0436.loclBGR" horiz-adv-x="734" d="M29 0h-67l243 246L66 480h59l128-212h83l68 432h57l-69-432h83l193 212h64L516 242 680 0h-63L469 216h-85L350 0h-57l34 216h-82z"/><glyph glyph-name="uni0438.loclBGR" horiz-adv-x="583" d="M477 480h57L458 0h-51l15 89q-33-41-87-70.5T222-11q-87 0-133.5 54.5T56 188l46 292h57l-46-291q-12-72 20.5-110T230 41q60 0 110.5 32t84.5 80z"/><glyph glyph-name="uni0439.loclBGR" horiz-adv-x="583" d="M465 599q-62-41-138-41-81 0-129 41l8 53q53-44 125-44 74 0 142 44zm12-119h57L458 0h-51l15 89q-33-41-87-70.5T222-11q-87 0-133.5 54.5T56 188l46 292h57l-46-291q-12-72 20.5-110T230 41q60 0 110.5 32t84.5 80z"/><glyph glyph-name="uni043A.loclBGR" horiz-adv-x="511" d="M444 480h68L285 246 457 0h-64L235 226H125L90 0H33l111 700h57l-67-422h114z"/><glyph glyph-name="uni043B.loclBGR" horiz-adv-x="531" d="M326 480L468 0h-61L288 416 38 0h-66l294 480h60z"/><glyph glyph-name="uni043F.loclBGR" horiz-adv-x="584" d="M145 391q92 100 206 100 84 0 129-54.5T512 294L465 0h-57l46 291q12 72-21 110t-96 38q-56 0-108.5-33T141 328L90 0H33l76 480h51z"/><glyph glyph-name="uni0442.loclBGR" horiz-adv-x="893" d="M477 399q94 92 195 92 82 0 122.5-53.5T822 301L774 0h-56l48 306q10 60-18 96.5T663 439q-92 0-175-95 0-20-3-43L437 0h-57l49 306q9 60-18.5 96.5T326 439q-95 0-183-103L90 0H33l76 480h51l-14-82q33 36 83 64.5T334 491q54 0 91-24.5t52-67.5z"/><glyph glyph-name="uni0446.loclBGR" horiz-adv-x="612" d="M473 92q-4-27 7-37t35-10h28l-28-178h-53L482-3q-33 2-51.5 23T416 82q-35-39-86.5-66T222-11q-87 0-133.5 54.5T56 188l46 292h57l-46-291q-12-72 20.5-110T230 41q60 0 110.5 32t84.5 80l52 327h57z"/><glyph glyph-name="uni0448.loclBGR" horiz-adv-x="893" d="M734 139l53 341h57L768 0h-51l12 80q-30-35-79.5-63T543-11q-54 0-91.5 25.5T400 84q-91-95-194-95-81 0-122.5 54T55 179l48 301h56l-48-306q-9-60 18.5-96.5T214 41q92 0 176 96 0 21 3 42l47 301h57l-49-306q-9-60 18.5-96.5T551 41q99 0 183 98z"/><glyph glyph-name="uni0449.loclBGR" horiz-adv-x="923" d="M783 91q-8-46 42-46h29l-28-178h-53L793-4q-71 7-68 79-31-34-79-60T544-11t-91.5 25T400 83q-90-94-194-94-81 0-122.5 54T55 179l48 301h56l-48-306q-9-60 18.5-96.5T214 41q94 0 176 96 0 19 3 42l48 301h56l-48-306q-9-60 18.5-96.5T552 41q55 0 102.5 29.5T734 139l54 341h57z"/><glyph glyph-name="uni044E.loclBGR" horiz-adv-x="814" d="M761 235Q743 120 659 54.5T472-11q-94 0-158 61t-59 164H123L90 0H33l111 700h57l-69-433h131q24 103 105.5 163.5T548 491q101 0 166.5-69.5T761 235zm-448 3q-14-89 33.5-142T475 43q85 0 150.5 53.5T706 242q14 89-33.5 142T544 437q-85 0-151-53.5T313 238z"/><glyph glyph-name="uni0430.ss01" horiz-adv-x="547" d="M424 85q-8-40 34-40 18 0 41 7l-8-47q-24-9-51-9-33 0-54 17t-20 54q-81-78-198-78-70 0-116 40T12 139q5 55 43.5 90t84.5 47 99 12q85 0 157-22l6 37q11 66-25 101t-120 35q-75 0-165-34l9 56q78 30 164 30 109 0 158-50.5T456 292zM179 38q54 0 108 25t88 69l14 89q-67 19-144 19-67 0-118.5-24.5T70 135q-4-45 27-71t82-26z"/><glyph glyph-name="uni0437.ss01" horiz-adv-x="455" d="M376-34q-16-98-88-147.5T110-231Q1-231-60-185l8 54q63-48 156-48 84 0 143.5 38T319-28q13 78-33.5 128.5T156 133l-66-14 8 53 75 16q138 33 154 138 8 51-25.5 82T212 439q-87 0-168-50l9 61q83 42 164 42 80 0 129.5-48T385 322q-16-105-135-150 66-15 102-74t24-132z"/><glyph glyph-name="uni0443.ss01" horiz-adv-x="583" d="M457-5q-20-118-95-172t-174-54q-111 0-173 38l9 54q60-40 159-40 84 0 144 42T401-1l13 83q-85-93-192-93-89 0-134.5 54T56 186l46 294h57l-47-291Q89 41 230 41q57 0 107.5 32t87.5 78l52 329h57z"/><glyph glyph-name="zero.osf" horiz-adv-x="656" d="M602 253Q585 147 500.5 68T287-11q-68 0-120 24.5T87 78t-39 89-3 100q17 106 102.5 185T359 531q89 0 149.5-42T591 385t11-132zm-498 8q-14-88 33.5-152T288 45q104 0 172 62.5T542 259q14 87-34 151.5T359 475q-104 0-172.5-62.5T104 261z"/><glyph glyph-name="one.osf" horiz-adv-x="421" d="M258 520h43L228 57h134L352 0H11l9 57h149l63 399-157-56 9 57z"/><glyph glyph-name="two.osf" horiz-adv-x="526" d="M429 0H1l7 39q3 20 9 37t17 32 19.5 26T80 157t27.5 19 33.5 18 33 15 36.5 15 34.5 14q4 2 32 13t35 14.5 29.5 14 31 18 22 20 19.5 26 9 29.5q8 47-27 75t-100 28q-99 0-207-60l9 61q99 54 205 54 89 0 139.5-45.5T481 365q-3-19-12-36.5t-17-30-26.5-27-27-21.5-34.5-20-32.5-16-36.5-15.5-33-13.5q-112-47-142-67-40-28-46-61h365z"/><glyph glyph-name="three.osf" horiz-adv-x="541" d="M475 345q-9-53-45.5-94.5T337 194q57-14 91.5-58T451 19q-14-90-90-140t-172-50q-123 0-208 45l9 57q82-46 197-46 79 0 138.5 37T396 29q11 69-32 101.5T248 163h-86l9 57 77-1q70-1 115.5 36.5T418 348q9 56-29 92t-111 36q-99 0-197-50l10 60q96 45 197 45 94 0 147-53t40-133z"/><glyph glyph-name="four.osf" horiz-adv-x="592" d="M414 520h65L406 54h126l-8-55H397l-25-159h-59L339-1H-24l8 53zM347 54l61 383L56 54h291z"/><glyph glyph-name="five.osf" horiz-adv-x="533" d="M127 520h369l-9-57H173l-50-233q61 19 125 19 41 0 80-12.5t71-37 47.5-67.5 6.5-97q-15-94-93-150t-184-56q-107 0-191 46l9 56q79-47 177-47 88 0 149.5 42.5T394 42q12 80-37.5 116.5T227 195q-84 0-176-33z"/><glyph glyph-name="six.osf" horiz-adv-x="586" d="M544 598q-63 37-139 37-43 0-85-16.5t-81.5-50-70.5-93T122 338q102 80 217 80 87 0 146-57t43-157-88.5-157.5T276-11Q147-11 91.5 79.5T61 328q14 92 49.5 163.5t83.5 114 101.5 64T406 691q83 0 146-38zM272 44q72 0 128 42t69 122-30.5 117.5T324 363q-111 0-211-92-8-111 34-169t125-58z"/><glyph glyph-name="seven.osf" horiz-adv-x="481" d="M54 520h447l-7-53-389-627H40l386 623H46z"/><glyph glyph-name="eight.osf" horiz-adv-x="614" d="M114 524q11 68 78 117.5T365 691q102 0 159-55.5T571 506q-14-106-132-178 121-55 103-163-11-74-83-125T266-11Q146-11 84.5 46T37 188q8 53 47.5 103T191 376q-92 53-77 148zm202-202q-38 13-77 28-60-27-98-71t-46-92q-11-66 35.5-104.5T269 44q86 0 146 36t68 90q9 57-23.5 83.5T338 314q-15 5-22 8zm196 182q9 53-32 92.5T362 636q-76 0-129-34.5T172 518q-5-30 3.5-52.5t33-39.5 47-27.5T319 373q57-18 71-22 51 29 83 68.5t39 84.5z"/><glyph glyph-name="nine.osf" horiz-adv-x="574" d="M42 319q16 100 88.5 156T294 531q129 0 184.5-90.5T509 192Q480 12 383-79.5T165-171q-79 0-147 38l8 56q64-38 140-38 93 0 173 73t108 222q-97-78-216-78-88 0-146.5 58T42 319zm255 157q-72 0-127.5-41T101 314q-13-79 31-118t115-39q113 0 210 92 8 110-35 168.5T297 476z"/><glyph glyph-name="zero.sinf" horiz-adv-x="433" d="M367 99Q352 7 296.5-50T157-107q-90 0-127.5 60T7 109q15 92 70.5 149T218 315q89 0 126.5-60T367 99zm-310 6Q45 27 69.5-16.5T158-60q133 0 160 163 12 78-12.5 121.5T217 268Q82 268 57 105z"/><glyph glyph-name="one.sinf" horiz-adv-x="263" d="M140 308h37L120-53h73l-8-47H-30l7 47h93l49 309-92-34 8 48z"/><glyph glyph-name="two.sinf" horiz-adv-x="351" d="M43 278q64 37 134 37 58 0 95-30.5t28-82.5q-13-77-136-140-33-17-46.5-25T82 14 49.5-17 35-53h229l-8-47H-31l4 26q5 35 19.5 62.5t41 48.5T79 69.5 134 99q54 27 82.5 51.5T251 208q5 29-17 45t-59 16q-69 0-140-44z"/><glyph glyph-name="three.sinf" horiz-adv-x="358" d="M293 201q-5-31-26-55t-55-34q33-8 53.5-34.5T279 7q-9-55-55.5-84.5T111-107q-78 0-136 28l8 48q53-29 126-29 112 0 123 77 6 38-17.5 54T145 87H81l7 47h57q43 0 69.5 19.5T246 204q4 29-19.5 46.5T162 268q-65 0-130-31l8 51q60 27 130 27 58 0 94-33t29-81z"/><glyph glyph-name="four.sinf" horiz-adv-x="395" d="M246 308h54L257 37h77l-7-46h-77l-15-91h-48l14 91H-27l7 45zM208 37l32 202L42 37h166z"/><glyph glyph-name="five.sinf" horiz-adv-x="355" d="M63 308h245l-8-47H102L75 145q34 9 70 9 61 0 104-33.5T282 19q-9-59-58.5-92.5T106-107q-77 0-128 28l7 46q48-27 117-27 53 0 88 22.5T232 27q8 45-22 63.5T127 109q-49 0-111-20z"/><glyph glyph-name="six.sinf" horiz-adv-x="382" d="M60 116q63 38 130 38 57 0 94.5-35T312 23q-9-62-55.5-96T148-107q-83 0-120 56T6 101q17 106 76.5 160T222 315q54 0 97-24l-7-46q-36 23-90 23-56 0-100-36.5T60 116zm86-177q103 0 116 85 8 44-17 64t-68 20q-69 0-125-44Q42-61 146-61z"/><glyph glyph-name="seven.sinf" horiz-adv-x="316" d="M75-100H20l219 361H11l8 47h282l-7-45z"/><glyph glyph-name="eight.sinf" horiz-adv-x="398" d="M36 213q7 41 49 71.5T198 315q69 0 106-34.5t31-82.5q-9-61-72-101 65-35 54-97-7-45-51-76t-125-31T21-71.5-9 17Q2 82 77 124q-49 33-41 89zM174 85q-38 10-55 17-71-32-78-85-6-38 20-58t82-20q53 0 86.5 18T268 5q6 41-44 63-10 4-50 17zm110 110q6 31-17 52.5T196 269q-47 0-76.5-17T85 208q-4-7-.5-14.5t2.5-12 5.5-10.5 7.5-8.5 9.5-7.5 11.5-6.5 12.5-5.5 13-5 13.5-4.5 13-4.5q9-2 26.5-6.5T222 117q56 33 62 78z"/><glyph glyph-name="nine.sinf" horiz-adv-x="382" d="M11 185q9 62 55.5 96T175 315q85 0 121-55.5T317 107Q300 1 240.5-53T100-107q-54 0-96 24l7 46q39-23 90-23 57 0 100.5 36.5T263 91q-64-37-130-37-57 0-94.5 35T11 185zm166 84q-46 0-78-21t-39-64q-7-44 18-64t69-20q69 0 124 45 10 124-94 124z"/><glyph glyph-name="zero.sups" horiz-adv-x="432" d="M442 575q-15-92-70.5-149T232 369q-90 0-127.5 60T82 585q15 92 70.5 149T293 791q89 0 126.5-60T442 575zm-310 6q-12-78 12.5-121.5T233 416q133 0 160 163 12 78-12.5 121.5T292 744q-135 0-160-163z"/><glyph glyph-name="one.sups" horiz-adv-x="262" d="M214 780h37l-57-361h73l-8-47H44l7 47h93l49 309-92-34 8 48z"/><glyph glyph-name="two.sups" horiz-adv-x="352" d="M119 754q64 37 134 37 58 0 95-30.5t28-82.5q-13-77-136-140-33-17-46.5-25T158 490t-32.5-31-14.5-36h229l-8-47H45l4 26q5 35 19.5 62.5t41 48.5 45.5 32.5 55 29.5q54 27 82.5 51.5T327 684q5 29-17 45t-59 16q-69 0-140-44z"/><glyph glyph-name="three.sups" horiz-adv-x="359" d="M369 677q-5-31-26-55t-55-34q33-8 53.5-34.5T355 483q-9-55-55.5-84.5T187 369q-78 0-136 28l8 48q53-29 126-29 112 0 123 77 6 38-17.5 54T221 563h-64l7 47h57q43 0 69.5 19.5T322 680q4 29-19.5 46.5T238 744q-65 0-130-31l8 51q60 27 130 27 58 0 94-33t29-81z"/><glyph glyph-name="four.sups" horiz-adv-x="395" d="M320 780h54l-43-271h77l-7-46h-77l-15-91h-48l14 91H47l7 45zm-38-271l32 202-198-202h166z"/><glyph glyph-name="five.sups" horiz-adv-x="356" d="M138 780h245l-8-47H177l-27-116q35 9 70 9 61 0 104-33.5T357 491q-9-59-58.5-92.5T181 365q-77 0-128 28l7 46q48-27 117-27 53 0 88 22.5t42 64.5q8 45-22 63.5T202 581q-49 0-111-20z"/><glyph glyph-name="six.sups" horiz-adv-x="381" d="M135 592q63 38 130 38 57 0 94.5-35t27.5-96q-9-62-55.5-96T223 369q-83 0-120 56T81 577q17 106 76.5 160T297 791q54 0 97-24l-7-46q-36 23-90 23-56 0-100-36.5T135 592zm86-177q103 0 116 85 8 44-17 64t-68 20q-69 0-125-44-10-125 94-125z"/><glyph glyph-name="seven.sups" horiz-adv-x="316" d="M150 372H95l219 361H86l8 47h282l-7-45z"/><glyph glyph-name="eight.sups" horiz-adv-x="398" d="M112 689q7 41 49 71.5T274 791q69 0 106-34.5t31-82.5q-9-61-72-101 65-35 54-97-7-45-51-76t-125-31-120 35.5T67 493q11 65 86 107-49 33-41 89zm138-128q-38 10-55 17-71-32-78-85-6-38 20-58t82-20q53 0 86.5 18t38.5 48q6 41-44 63-10 4-50 17zm110 110q6 31-17 52.5T272 745q-47 0-76.5-17T161 684q-4-7-.5-14.5t2.5-12 5.5-10.5 7.5-8.5 9.5-7.5 11.5-6.5 12.5-5.5 13-5 13.5-4.5 13-4.5q9-2 26.5-6.5T298 593q56 33 62 78z"/><glyph glyph-name="nine.sups" horiz-adv-x="381" d="M86 661q9 62 55.5 96T250 791q85 0 121-55.5T392 583q-17-106-76.5-160T175 369q-54 0-96 24l7 46q39-23 90-23 57 0 100.5 36.5T338 567q-64-37-130-37-57 0-94.5 35T86 661zm166 84q-46 0-78-21t-39-64q-7-44 18-64t69-20q68 0 124 45 10 124-94 124z"/><glyph glyph-name="zero.tf" d="M46 345q25 156 110.5 251T372 691q128 0 186.5-99.5T592 335Q567 180 481 84.5T266-11Q138-11 79.5 88.5T46 345zm488-6q21 136-21.5 216T369 635q-104 0-173-78t-91-216q-21-136 21-216t143-80q105 0 174 78t91 216z"/><glyph glyph-name="one.tf" d="M384 680h43L328 57h214L532 0H29l9 57h231l89 559-212-74 9 57z"/><glyph glyph-name="two.tf" d="M141 628q112 63 231 63 104 0 163-51t46-134q-5-33-21.5-61.5T525 396t-54-44-59-37-70-38q-7-4-40-21t-42-22-36.5-21.5-38-25-30-25.5-28.5-31.5T108.5 97 95 57h422L507 0H19l5 32q4 24 11.5 46.5t14.5 40T72.5 155t24 30.5 30.5 28 31 23.5 36.5 23.5T230 281t40 21.5 39 20.5q109 58 142 83 62 49 72 107 9 56-33 89.5T364 636q-110 0-226-71z"/><glyph glyph-name="three.tf" d="M567 505q-9-53-45.5-94.5T428 354q57-14 92-58t23-117q-14-91-92.5-140.5T262-11Q118-11 28 34l8 55q88-46 225-45 92 1 153 37.5T487 189q11 70-35 102t-133 32H206l10 55h104q84 0 132.5 37t56.5 93q9 57-32.5 92.5T348 636q-111 0-224-49l10 59q97 45 224 45 105 0 163-53t46-133z"/><glyph glyph-name="four.tf" d="M467 680h66l-74-466h126l-8-55H450L425 0h-59l25 159H2l8 52zm-68-466l61 385L84 214h315z"/><glyph glyph-name="five.tf" d="M174 680h414l-8-57H220l-52-233q66 19 146 19 110 0 179.5-54T546 193q-15-95-96-149.5T253-11Q117-11 33 35l8 54q81-45 208-45 98 0 162 41t76 115q13 81-42 118t-153 37q-101 0-195-33z"/><glyph glyph-name="six.tf" d="M567 599q-61 36-144 36-53 0-98.5-16.5t-85-51T171 474t-44-139q114 83 238 83 92 0 153-56.5T563 204 471.5 46 295-11q-136 0-195 90.5T66 328q29 183 125 273t234 90q84 0 151-38zM294 44q81 0 139 42t71 122q13 81-32 118t-123 37q-127 0-231-93-8-111 37-168.5T294 44z"/><glyph glyph-name="seven.tf" d="M116 680h516l-8-53L226 0h-65l395 623H107z"/><glyph glyph-name="eight.tf" d="M561 160q-12-73-84-122T278-11Q145-11 79 47.5T27 192q8 54 47.5 102.5T181 376q-92 55-77 148 11 69 78.5 118T369 691q111 0 171-58.5T590 499q-13-101-131-171 119-53 102-168zM86 194q-11-68 40-109t158-41q91 0 149.5 35t67.5 89q5 34-5.5 58.5t-37.5 41-53.5 26.5-69.5 23q-7 2-11 3-52 15-94 30-62-26-99-67t-45-89zm238 180q26-6 85-24 106 59 121 149 9 56-33.5 96.5T366 636t-141.5-33-61.5-83q-5-33 5.5-57t38-40.5 49-25T314 377q7-2 10-3z"/><glyph glyph-name="nine.tf" d="M76 476q16 101 91.5 158T344 691q136 0 195-90.5T573 352Q544 169 448 79T214-11q-84 0-151 38l9 55q59-37 144-37 53 0 98.5 16.5t85 51T468 206t44 139q-114-83-238-83-92 0-153 56.5T76 476zm269 160q-81 0-139-43.5T135 468q-9-54 11.5-89t57-48.5T290 317q127 0 231 93 8 111-37 168.5T345 636z"/><glyph glyph-name="zero.tosf" d="M585 256q-11-68-49-127.5T428.5 29 271-11q-87 0-147 41.5t-83 103T29 264q17 107 102 187t213 80 193-83.5T585 256zm-497 3q-14-87 34-150.5T271 45q105 0 173 63t82 153q14 87-34.5 150.5T343 475q-104 0-172.5-63T88 259z"/><glyph glyph-name="one.tosf" d="M357 520h43L327 57h214L531 0H28l9 57h231l63 399-211-74 9 57z"/><glyph glyph-name="two.tosf" d="M506 0H25l7 39q6 38 27.5 69t43.5 49 64 36.5 63.5 25T299 239q95 27 141 55.5t54 77.5q7 48-33 76t-114 28q-118 0-235-69l10 61q110 63 232 63 99 0 154.5-45.5T552 364q-11-67-69.5-106T317 189Q112 131 100 57h415z"/><glyph glyph-name="three.tosf" d="M536 345q-9-53-45.5-94.5T397 194q57-14 92-58t24-117q-15-91-92.5-140.5T233-171Q94-171 4-126l8 55q86-45 220-45 92 0 152.5 36.5T457 29q11 70-35.5 102T288 163H182l10 55h97q84 0 132.5 37t57.5 93q9 57-32.5 92.5T319 476q-106 0-219-49l10 59q98 45 219 45 103 0 161-53t46-133z"/><glyph glyph-name="four.tosf" d="M440 513h65L431 48h132l-9-56H423l-26-159h-59L363-8H-26l8 52zM372 48l62 384L58 48h314z"/><glyph glyph-name="five.tosf" d="M152 520h408l-9-57H198l-52-233q66 19 137 19 112 0 181.5-54T517 33q-15-95-96-149.5T223-171q-128 0-212 46l8 54q81-45 200-45 98 0 163 41t76 115q13 81-42 118t-154 37q-93 0-187-33z"/><glyph glyph-name="six.tosf" d="M567 599q-61 36-144 36-53 0-98.5-16.5t-85-51T171 474t-44-139q114 83 238 83 92 0 153-56.5T563 204 471.5 46 295-11q-136 0-195 90.5T66 328q29 183 125 273t234 90q84 0 151-38zM294 44q81 0 139 42t71 122q13 81-32 118t-123 37q-127 0-231-93-8-111 37-168.5T294 44z"/><glyph glyph-name="seven.tosf" d="M93 520h511l-8-53-406-627h-66l404 623H84z"/><glyph glyph-name="eight.tosf" d="M561 160q-12-73-85-122T278-11Q143-11 78 48T27 194q8 54 47 101.5T181 376q-92 55-77 148 11 70 77 118.5T366 691q112 0 173-58.5T590 499q-13-101-131-171 119-53 102-168zM86 194q-11-68 40-109t158-41q91 0 149.5 35t67.5 89q5 34-5.5 58.5t-37.5 41-53.5 26.5-69.5 23q-7 2-11 3-52 15-94 30-62-26-99-67t-45-89zm238 180q26-6 85-24 106 59 121 149 9 56-34.5 96.5T364 636q-89 0-141-33t-60-83q-5-33 5.5-57t38-40.5 49-25T314 377q7-2 10-3z"/><glyph glyph-name="nine.tosf" d="M50 316q16 101 91.5 158T318 531q136 0 195-90.5T547 192Q518 9 422-81t-234-90q-84 0-151 38l9 55q59-37 144-37 53 0 98.5 16.5t85 51T442 46t44 139q-114-83-238-83-92 0-153 56.5T50 316zm269 160q-81 0-139-41.5T109 312q-13-80 32-117.5T264 157q127 0 231 93 8 111-37 168.5T319 476z"/><glyph glyph-name="zero.dnom" horiz-adv-x="433" d="M383 199q-15-92-70.5-149T173-7Q83-7 45.5 53T23 209q15 92 70.5 149T234 415q89 0 126.5-60T383 199zm-310 6Q61 127 85.5 83.5T174 40q133 0 160 163 12 78-12.5 121.5T233 368Q98 368 73 205z"/><glyph glyph-name="one.dnom" horiz-adv-x="262" d="M155 408h37L135 47h73l-8-47H-15l7 47h93l49 309-92-34 8 48z"/><glyph glyph-name="two.dnom" horiz-adv-x="351" d="M59 378q64 37 134 37 58 0 95-30.5t28-82.5q-13-77-136-140-33-17-46.5-25T98 114 65.5 83 51 47h229l-8-47H-15l4 26q5 35 19.5 62.5t41 48.5T95 169.5t55 29.5q54 27 82.5 51.5T267 308q5 29-17 45t-59 16q-69 0-140-44z"/><glyph glyph-name="three.dnom" horiz-adv-x="358" d="M309 301q-5-31-26-55t-55-34q33-8 53.5-34.5T295 107q-9-55-55.5-84.5T127-7Q49-7-9 21l8 48q53-29 126-29 112 0 123 77 6 38-17.5 54T161 187H97l7 47h57q43 0 69.5 19.5T262 304q4 29-19.5 46.5T178 368q-65 0-130-31l8 51q60 27 130 27 58 0 94-33t29-81z"/><glyph glyph-name="four.dnom" horiz-adv-x="394" d="M261 408h54l-43-271h77l-7-46h-77L250 0h-48l14 91H-12l7 45zm-38-271l32 202L57 137h166z"/><glyph glyph-name="five.dnom" horiz-adv-x="355" d="M79 408h245l-8-47H118L91 245q35 9 70 9 61 0 104-33.5T298 119q-9-59-58.5-92.5T122-7Q45-7-6 21l7 46q48-27 117-27 53 0 88 22.5t42 64.5q8 45-22 63.5T143 209q-49 0-111-20z"/><glyph glyph-name="six.dnom" horiz-adv-x="382" d="M76 216q63 38 130 38 57 0 94.5-35t27.5-96q-9-62-55.5-96T164-7Q81-7 44 49T22 201q17 106 76.5 160T238 415q54 0 97-24l-7-46q-36 23-90 23-56 0-100-36.5T76 216zm86-177q103 0 116 85 8 44-17 64t-68 20q-69 0-125-44Q58 39 162 39z"/><glyph glyph-name="seven.dnom" horiz-adv-x="316" d="M91 0H36l219 361H27l8 47h282l-7-45z"/><glyph glyph-name="eight.dnom" horiz-adv-x="398" d="M52 313q7 41 49 71.5T214 415q69 0 106-34.5t31-82.5q-9-61-72-101 65-35 54-97-7-45-51-76T157-7 37 28.5 7 117q11 65 86 107-49 33-41 89zm138-128q-38 10-55 17-71-32-78-85-6-38 20-58t82-20q53 0 86.5 18t38.5 48q6 41-44 63-10 4-50 17zm110 110q6 31-17 52.5T212 369q-47 0-76.5-17T101 308q-4-7-.5-14.5t2.5-12 5.5-10.5 7.5-8.5 9.5-7.5 11.5-6.5 12.5-5.5 13-5 13.5-4.5 13-4.5q9-2 26.5-6.5T238 217q56 33 62 78z"/><glyph glyph-name="nine.dnom" horiz-adv-x="382" d="M27 285q9 62 55.5 96T191 415q85 0 121-55.5T333 207q-17-106-76.5-160T116-7Q62-7 20 17l7 46q39-23 90-23 57 0 100.5 36.5T279 191q-64-37-130-37-57 0-94.5 35T27 285zm166 84q-46 0-78-21t-39-64q-7-44 18-64t69-20q69 0 124 45 10 124-94 124z"/><glyph glyph-name="zero.numr" horiz-adv-x="433" d="M427 475q-15-92-70.5-149T217 269q-90 0-127.5 60T67 485q15 92 70.5 149T278 691q89 0 126.5-60T427 475zm-310 6q-12-78 12.5-121.5T218 316q133 0 160 163 12 78-12.5 121.5T277 644q-135 0-160-163z"/><glyph glyph-name="one.numr" horiz-adv-x="263" d="M199 680h37l-57-361h73l-8-47H29l7 47h93l49 309-92-34 8 48z"/><glyph glyph-name="two.numr" horiz-adv-x="353" d="M104 654q64 37 134 37 58 0 95-30.5t28-82.5q-13-77-136-140-33-17-46.5-25T143 390t-32.5-31T96 323h229l-8-47H30l4 26q5 35 19.5 62.5t41 48.5 45.5 32.5 55 29.5q54 27 82.5 51.5T312 584q5 29-17 45t-59 16q-69 0-140-44z"/><glyph glyph-name="three.numr" horiz-adv-x="358" d="M353 577q-5-31-26-55t-55-34q33-8 53.5-34.5T339 383q-9-55-55.5-84.5T171 269q-78 0-136 28l8 48q53-29 126-29 112 0 123 77 6 38-17.5 54T205 463h-64l7 47h57q43 0 69.5 19.5T306 580q4 29-19.5 46.5T222 644q-65 0-130-31l8 51q60 27 130 27 58 0 94-33t29-81z"/><glyph glyph-name="four.numr" horiz-adv-x="395" d="M305 680h54l-43-271h77l-7-46h-77l-15-91h-48l14 91H32l7 45zm-38-271l32 202-198-202h166z"/><glyph glyph-name="five.numr" horiz-adv-x="355" d="M122 680h245l-8-47H161l-27-116q34 9 70 9 61 0 104-33.5T341 391q-9-59-58.5-92.5T165 265q-77 0-128 28l7 46q48-27 117-27 53 0 88 22.5t42 64.5q8 45-22 63.5T186 481q-49 0-111-20z"/><glyph glyph-name="six.numr" horiz-adv-x="382" d="M120 492q63 38 130 38 57 0 94.5-35t27.5-96q-9-62-55.5-96T208 269q-83 0-120 56T66 477q17 106 76.5 160T282 691q54 0 97-24l-7-46q-36 23-90 23-56 0-100-36.5T120 492zm86-177q103 0 116 85 8 44-17 64t-68 20q-69 0-125-44-10-125 94-125z"/><glyph glyph-name="seven.numr" horiz-adv-x="316" d="M134 272H79l219 361H70l8 47h282l-7-45z"/><glyph glyph-name="eight.numr" horiz-adv-x="398" d="M96 589q7 41 49 71.5T258 691q69 0 106-34.5t31-82.5q-9-61-72-101 65-35 54-97-7-45-51-76t-125-31-120 35.5T51 393q11 65 86 107-49 33-41 89zm138-128q-38 10-55 17-71-32-78-85-6-38 20-58t82-20q53 0 86.5 18t38.5 48q6 41-44 63-10 4-50 17zm110 110q6 31-17 52.5T256 645q-47 0-76.5-17T145 584q-4-7-.5-14.5t2.5-12 5.5-10.5 7.5-8.5 9.5-7.5 11.5-6.5 12.5-5.5 13-5 13.5-4.5 13-4.5q9-2 26.5-6.5T282 493q56 33 62 78z"/><glyph glyph-name="nine.numr" horiz-adv-x="382" d="M71 561q9 62 55.5 96T235 691q85 0 121-55.5T377 483q-17-106-76.5-160T160 269q-54 0-96 24l7 46q39-23 90-23 57 0 100.5 36.5T323 467q-64-37-130-37-57 0-94.5 35T71 561zm166 84q-46 0-78-21t-39-64q-7-44 18-64t69-20q69 0 124 45 10 124-94 124z"/><glyph glyph-name="emdash.case" horiz-adv-x="768" d="M699 323H76l8 54h623z"/><glyph glyph-name="endash.case" horiz-adv-x="582" d="M513 323H76l8 54h438z"/><glyph glyph-name="hyphen.case" horiz-adv-x="496" d="M84 377h352l-9-54H76z"/><glyph glyph-name="guillemotleft.case" horiz-adv-x="479" d="M391 173h-60l-94 171 2 14 147 169h62L294 350zm-172 0h-60L65 344l2 14 147 169h62L122 350z"/><glyph glyph-name="guillemotright.case" horiz-adv-x="478" d="M282 173h-62l154 177-96 177h59l95-171-3-14zm-172 0H48l154 177-96 177h59l95-171-3-14z"/><glyph glyph-name="guilsinglleft.case" horiz-adv-x="307" d="M219 173h-60L65 344l2 14 147 169h62L122 350z"/><glyph glyph-name="guilsinglright.case" horiz-adv-x="306" d="M110 173H48l154 177-96 177h59l95-171-3-14z"/><glyph glyph-name="cent.tf" d="M537 449l-9-53q-48 41-125 43L341 41q75 5 142 42l-9-59Q410-8 332-11l-17-109h-50L283-9Q189 2 134.5 67.5T98 246q12 76 54.5 131t95 80.5T361 489l18 111h50l-17-109q73-5 125-42zm-184-14q-74-12-129.5-60.5T154 240t25-136 112-60z"/><glyph glyph-name="currency.tf" d="M184 195l-76-65-34 40 73 63q-33 49-23 121 12 69 59 116l-51 60 45 40 54-64q53 33 117 33t111-34l75 65 34-40-73-63q33-51 22-121-10-67-58-116l52-60-46-40-54 64q-53-33-117-33-63 0-110 34zm-3 151q-10-60 23-96t93-36q62 0 108.5 38.5T462 354q10 60-23 96t-93 36q-62 0-108.5-38T181 346z"/><glyph glyph-name="dollar.tf" d="M275-130h-50l18 120Q120 0 39 49l9 58q94-62 228-62 82 0 140 28.5t68 92.5q6 38-13.5 66t-55 45.5-79 32.5-86.5 32.5-77.5 39.5-52.5 59.5-10 86.5q13 75 83.5 117.5T354 691l18 119h50l-18-120q97-8 164-50l-8-56q-77 51-198 51-71 0-127-28t-65-84q-6-39 12.5-67.5t54-46.5 79-33.5T402 343t78-38.5 53-57.5 11-84q-14-87-84.5-129T293-11z"/><glyph glyph-name="Euro.tf" d="M635 617q-50 18-126 18-105 0-192.5-50.5T188 434h328l-8-50H172q-3-11-7-33-5-32-5-55h334l-8-50H164q15-94 85-147.5T416 45q73 0 138 20l-8-57q-60-19-138-19-116 0-202.5 69T104 246H13l8 50h80q0 26 5 63 1 9 5 25H35l8 50h82q45 126 153.5 191.5T513 691q74 0 131-21z"/><glyph glyph-name="sterling.tf" d="M527 0H4l9 57h34q34 0 58 24.5t31 66.5l25 161H78l9 55h83l16 99q12 81 53.5 134t92.5 73.5T444 691q81 0 142-39l-9-55q-57 39-136 39-73 0-127.5-42.5T244 458l-15-94h237l-9-55H221l-27-165q-10-69-55-89l398 2z"/><glyph glyph-name="yen.tf" d="M597 680h66L370 317h150l-8-50H335l-12-74h178l-8-50H315L292 0h-59l23 143H79l8 50h177l12 74H99l8 50h150L79 680h64l170-355z"/></font>
</defs>
</svg>
