<svg xmlns="http://www.w3.org/2000/svg"><defs><font id="MullerExtraBold" horiz-adv-x="592"><font-face font-family="Muller ExtraBold" font-weight="800" ascent="780" descent="-220" x-height="480" cap-height="700" bbox="-159 -290 1328 980" underline-thickness="50" underline-position="-225" unicode-range="U+0020-25CA"/><glyph glyph-name="f_f" unicode="ff" horiz-adv-x="747" d="M755 576q-31 19-74 19-32 0-52.5-14.5T608 534v-54h128V340H608V0H438v340H273V0H103v340H24v140h79v16q0 106 62.5 157.5T323 705q85 0 158-31 53 61 157 61 63 0 117-19V576zm-482-96h165v70q-28 20-74 20-43 0-67-19.5T273 495v-15z"/><glyph glyph-name="f_f_i" unicode="ffi" horiz-adv-x="991" d="M273 0H103v340H24v140h79v16q0 106 62.5 157.5T323 705q85 0 173-33 64 63 188 63 83 0 178-29V567q-70 28-141 28-51 0-82-20t-31-61v-34h331V0H769v340H608V0H438v340H273V0zm0 495v-15h165v35q0 14 2 38-39 17-82 17-40 0-62.5-19.5T273 495z"/><glyph glyph-name="f_f_l" unicode="ffl" horiz-adv-x="1001" d="M644 725q85 0 160-31l145 22V0H779v567q-44 18-84 18-39 0-63-18t-24-56v-31h118V340H608V0H438v340H273V0H103v340H24v140h79v16q0 106 62.5 157.5T323 705q87 0 173-34 55 54 148 54zM438 480v35q0 14 2 38-39 17-82 17-40 0-62.5-19.5T273 495v-15h165z"/><glyph glyph-name=".notdef" horiz-adv-x="208"/><glyph glyph-name=".null" horiz-adv-x="0"/><glyph glyph-name="nonmarkingreturn" horiz-adv-x="333"/><glyph glyph-name="space" horiz-adv-x="208"/><glyph glyph-name="exclam" unicode="!" horiz-adv-x="294" d="M227 260H67L57 700h180zm22-176q0-49-29-74t-73-25-73 25-29 74q0 48 29 73t73 25 73-25 29-73z"/><glyph glyph-name="quotedbl" unicode="&quot;" horiz-adv-x="454" d="M390 460H270v240h150zm-220 0H50v240h150z"/><glyph glyph-name="numbersign" unicode="#" horiz-adv-x="705" d="M222 0H62l33 140H32v120h91l39 161H82v120h108l33 140h160l-33-140h100l33 140h160l-33-140h62V421h-90l-39-161h79V140H515L482 0H322l33 140H255zm100 421l-39-161h100l39 161H322z"/><glyph glyph-name="dollar" unicode="$" horiz-adv-x="618" d="M372-130H242v118Q127 0 40 49v175q115-79 255-79 56 0 80 10.5t24 36.5q0 27-36.5 45T274 269.5 170 305t-88.5 68T45 489q0 88 53.5 139T242 691v119h130V690q105-13 172-51V469q-90 68-220 66-89-1-89-45 0-21 26-36t65.5-24.5T412 403t85.5-38.5T563 300t26-101q0-188-217-211v-118z"/><glyph glyph-name="percent" unicode="%" horiz-adv-x="935" d="M320-60H210l409 820h110zm88 595q0-86-54.5-133T218 355q-82 0-136.5 47T27 535t54.5 133T218 715q81 0 135.5-47T408 535zm-249 0q0-25 14.5-42.5T218 475q29 0 43.5 17.5T276 535t-14.5 42.5T218 595q-30 0-44.5-17.5T159 535zm749-370q0-86-54.5-133T718-15q-82 0-136.5 47T527 165t54.5 133T718 345q81 0 135.5-47T908 165zm-249 0q0-25 14.5-42.5T718 105q29 0 43.5 17.5T776 165t-14.5 42.5T718 225q-30 0-44.5-17.5T659 165z"/><glyph glyph-name="ampersand" unicode="&amp;" horiz-adv-x="738" d="M608 134L744 0H554l-47 45q-97-60-220-60-110 0-179.5 53T38 175q0 116 134 189-74 82-74 154 0 86 68 141.5T342 715q95 0 159.5-52.5T566 529q0-67-44-111.5T402 335l95-94q28 53 28 109h165q0-116-82-216zM406 523q0 27-17.5 44T339 584q-37 0-59-21t-22-47q0-41 50-89 48 22 73 44t25 52zM213 194q0-34 26.5-52t73.5-18q46 0 88 21L269 270q-56-34-56-76z"/><glyph glyph-name="quotesingle" unicode="'" horiz-adv-x="234" d="M170 460H50v240h150z"/><glyph glyph-name="parenleft" unicode="(" horiz-adv-x="333" d="M186 811h130Q203 592 203 350t113-461H186Q116-14 74.5 108.5T33 350t41.5 241.5T186 811z"/><glyph glyph-name="parenright" unicode=")" horiz-adv-x="332" d="M16 811h130q70-97 111.5-219.5T299 350t-41.5-241.5T146-111H16q113 219 113 461T16 811z"/><glyph glyph-name="asterisk" unicode="*" horiz-adv-x="502" d="M251 419l-59-124-131 92 88 81-120 21 54 150 108-61-20 122h160l-20-122 108 61 54-150-120-21 88-81-131-92z"/><glyph glyph-name="plus" unicode="+" horiz-adv-x="546" d="M343 420h170V280H343V110H203v170H33v140h170v170h140V420z"/><glyph glyph-name="comma" unicode="," horiz-adv-x="281" d="M137-143H-1l68 290h180z"/><glyph glyph-name="hyphen" unicode="-" horiz-adv-x="484" d="M52 311h380V171H52v140z"/><glyph glyph-name="period" unicode="." horiz-adv-x="273" d="M238 84q0-49-29-74t-73-25-73 25-29 74q0 48 29 73t73 25 73-25 29-73z"/><glyph glyph-name="slash" unicode="/" horiz-adv-x="473" d="M142-60H22l310 820h120z"/><glyph glyph-name="zero" unicode="0" horiz-adv-x="708" d="M39 340q0 156 78.5 255.5T354 695t236.5-99.5T669 340 590.5 84.5 354-15 117.5 84.5 39 340zm445 0q0 195-130 195T224 340t130-195 130 195z"/><glyph glyph-name="one" unicode="1" horiz-adv-x="478" d="M215 680h135V155h106V0H50v155h120v342L50 452v165z"/><glyph glyph-name="two" unicode="2" horiz-adv-x="608" d="M60 620q106 75 243 75 111 0 184-52t73-159q0-41-15-77t-44-65-56-49.5-65-43.5q-106-64-121-79-9-9-9-15h315V0H38v81q0 45 14 84t30 63.5 51 53 52.5 39.5 59.5 36l15 9q8 5 34.5 19.5t34.5 20 22.5 17.5 19 24 4.5 27q0 30-24.5 45.5T286 535q-118 0-226-85v170z"/><glyph glyph-name="three" unicode="3" horiz-adv-x="604" d="M538 506q0-108-105-144 60-19 96.5-62.5T566 186q0-54-24-94t-65.5-62.5T386-4 281-15Q162-15 46 31v170q101-58 220-56 54 1 89 18.5t35 52.5q0 56-93 56H181l1 155 94-1q87-2 87 51 0 58-105 58-102 0-200-66v170q98 56 225 56 114 0 184.5-47.5T538 506z"/><glyph glyph-name="four" unicode="4" horiz-adv-x="666" d="M362 680h180V260h90V110h-90V0H367v110H22v150zm5-420v199L206 260h161z"/><glyph glyph-name="five" unicode="5" horiz-adv-x="598" d="M88 681h445V526l-279 1-7-100q37 6 73 6 111 0 177-53t66-163q0-61-25.5-107T469 37.5 373.5-2 262-15Q140-15 43 31v170q80-56 199-56 61 0 98.5 19t37.5 57q0 76-146 77-88 0-168-28z"/><glyph glyph-name="six" unicode="6" horiz-adv-x="661" d="M226 412q77 37 162 37 101 0 170.5-59T628 225q0-115-77.5-177.5T359-15q-168 0-243.5 92.5T40 346q0 90 27 158.5T141 614t104.5 61T370 695q103 0 200-43V492q-76 53-170 53-148 0-174-133zm-2-142q9-80 39-110t81-30q42 0 70.5 22t28.5 64q0 43-32 63t-82 20q-52 0-105-29z"/><glyph glyph-name="seven" unicode="7" horiz-adv-x="582" d="M25 681h540V556L289 0H89l261 526H25v155z"/><glyph glyph-name="eight" unicode="8" horiz-adv-x="664" d="M62 500q0 79 68 137t202 58q128 0 199-58.5T602 500q0-85-83-148 108-55 108-162 0-86-73-145.5T332-15 110 44.5 37 190q0 51 28.5 95t72.5 70q-76 54-76 145zm290-234q-17 7-53 19l-51 17q-29-42-27-89 2-38 32.5-63t92.5-25q42 0 69 17t27 44q0 29-22 45.5T352 266zm74 225q-1 28-27 46t-76 18q-39 0-62.5-16.5T237 499q0-31 25.5-48.5T342 415q7-2 24.5-7.5T394 399q34 48 32 92z"/><glyph glyph-name="nine" unicode="9" horiz-adv-x="661" d="M33 455q0 115 77.5 177.5T302 695q168 0 243.5-92.5T621 334q0-90-27-158.5T520 66 415.5 5 291-15Q188-15 91 28v160q76-53 170-53 148 0 174 133-77-37-162-37-101 0-170.5 59T33 455zm284 95q-42 0-70.5-22T218 464q0-43 32-63t82-20q52 0 105 29-9 80-39 110t-81 30z"/><glyph glyph-name="colon" unicode=":" horiz-adv-x="296" d="M250 364q0-49-29-74t-73-25-73 25-29 74q0 48 29 73t73 25 73-25 29-73zm0-280q0-49-29-74t-73-25-73 25-29 74q0 48 29 73t73 25 73-25 29-73z"/><glyph glyph-name="semicolon" unicode=";" horiz-adv-x="304" d="M146-143H8l68 290h180zm111 530q0-49-29-74t-73-25-73 25-29 74q0 48 29 73t73 25 73-25 29-73z"/><glyph glyph-name="less" unicode="&lt;" horiz-adv-x="512" d="M448 275V125L38 265v170l410 140V425l-267-75z"/><glyph glyph-name="equal" unicode="=" horiz-adv-x="590" d="M535 384H55v140h480V384zm0-208H55v140h480V176z"/><glyph glyph-name="greater" unicode="&gt;" horiz-adv-x="512" d="M474 265L64 125v150l267 75-267 75v150l410-140V265z"/><glyph glyph-name="question" unicode="?" horiz-adv-x="503" d="M305 242H145q0 34 15 67.5t36 58.5 42.5 46.5 36.5 42 15 35.5q0 63-92 63-82 0-163-47v160q92 47 194 47 106 0 176-42.5T475 537q0-38-17.5-74.5t-42.5-65-50-54.5-42.5-52-17.5-49zm23-158q0-49-29-74t-73-25-73 25-29 74q0 48 29 73t73 25 73-25 29-73z"/><glyph glyph-name="at" unicode="@" horiz-adv-x="1046" d="M32 240q0 93 33 177.5T158.5 569t157 106.5T530 715q94 0 174-26.5T839 618t94-101 57-117 18-120q0-136-61.5-205.5T777 5q-60 0-106 27.5T607 105q-42-73-136-73-88 0-136 62.5T287 238q0 52 18 97t62 77.5T475 445q85 0 132-63v51h122V193q0-68 59-68 41 0 55.5 41.5T858 280q0 53-20.5 105T778 481t-103.5 71.5T530 580q-160 0-254-100t-94-240q0-114 55-192T378-64t196-34q107 0 215 35v-135q-101-36-220-36-109 0-205 30.5t-170.5 88-118 149T32 240zm559 39q-9 23-30.5 38T512 332q-41 0-62-27.5T429 238q0-38 21-65.5t62-27.5q27 0 48.5 15t30.5 38v81z"/><glyph glyph-name="A" unicode="A" horiz-adv-x="752" d="M191 0H1l275 700h200L751 0H561l-40 110H231zm167 462l-72-202h180l-72 202q-12 34-18 71-6-37-18-71z"/><glyph glyph-name="B" unicode="B" horiz-adv-x="684" d="M66 700h316q118 0 181.5-44T627 523q0-115-104-152 132-39 132-173 0-57-25-97.5T561.5 39t-90-30T370 0H66v700zm403-482q0 73-93 73H250V145h126q93 0 93 73zm-27 272q0 30-20.5 47.5T365 555H251V426l114-1q36 0 56.5 17.5T442 490z"/><glyph glyph-name="C" unicode="C" horiz-adv-x="655" d="M32 340q0 95 32 169t87 118 121 66 139 22q110 0 203-44V496q-68 57-171 57-92 0-156.5-53.5T222 340q0-95 64-143.5T441 148q115 0 178 61V29q-93-44-204-44-75 0-141.5 21T152 68.5 64.5 180 32 340z"/><glyph glyph-name="D" unicode="D" horiz-adv-x="744" d="M66 700h279q181 0 273.5-95T711 350 618.5 95 345 0H66v700zm455-350q0 190-176 190h-94V160h94q176 0 176 190z"/><glyph glyph-name="E" unicode="E" horiz-adv-x="617" d="M66 700h504V540H251V433h289V274H251V160h325V0H66v700z"/><glyph glyph-name="F" unicode="F" horiz-adv-x="604" d="M66 700h505V535H251V414h291V249H251V0H66v700z"/><glyph glyph-name="G" unicode="G" horiz-adv-x="699" d="M32 350q0 94 32.5 166.5t88 114.5T275 694t143 21q113 0 217-44V496q-81 56-193 56-93 0-156.5-50.5T222 350q0-61 20.5-104.5t54-64 65.5-29 67-8.5q28 0 48 5v236h175V32Q539-15 420-15q-77 0-145 22T152 72 64.5 186.5 32 350z"/><glyph glyph-name="H" unicode="H" horiz-adv-x="762" d="M511 700h185V0H511v267H251V0H66v700h185V432h260v268z"/><glyph glyph-name="I" unicode="I" horiz-adv-x="317" d="M66 700h185V0H66v700z"/><glyph glyph-name="J" unicode="J" horiz-adv-x="518" d="M97 700h360V218q0-63-21-109.5T378 36 295.5-2.5 196-15q-90 0-181 33v170q61-33 134-33 123 0 123 88v292H97v165z"/><glyph glyph-name="K" unicode="K" horiz-adv-x="706" d="M251 0H66v700h185V435h88l159 265h205L483 359 713 0H508L338 270h-87V0z"/><glyph glyph-name="L" unicode="L" horiz-adv-x="584" d="M66 700h185V165h320V0H66v700z"/><glyph glyph-name="M" unicode="M" horiz-adv-x="908" d="M667 700h175V0H657v372L507 142H401L251 373V0H66v700h175l213-328z"/><glyph glyph-name="N" unicode="N" horiz-adv-x="762" d="M251 0H66v700h175l274-402q-4 44-4 116v286h185V0H521L247 401q4-44 4-115V0z"/><glyph glyph-name="O" unicode="O" horiz-adv-x="812" d="M31 350q0 155 98 260t277 105 277-105 98-260-98-260T406-15 129 90 31 350zm560 0q0 87-48.5 141T406 545t-136.5-54T221 350t48.5-141T406 155t136.5 54T591 350z"/><glyph glyph-name="P" unicode="P" horiz-adv-x="668" d="M66 700h277q305 0 305-240 0-238-305-240h-92V0H66v700zm392-240q0 80-106 80H251V380h101q106 0 106 80z"/><glyph glyph-name="Q" unicode="Q" horiz-adv-x="812" d="M781 54L655-57l-76 76q-74-34-173-34-179 0-277 105T31 350t98 260 277 105 277-105 98-260q0-132-70-226zM221 350q0-87 48.5-141T406 155q13 0 35 2l-63 63 119 118 78-78q16 43 16 90 0 87-48.5 142T406 547t-136.5-55T221 350z"/><glyph glyph-name="R" unicode="R" horiz-adv-x="711" d="M251 0H66v700h295q57 0 105.5-11.5t91-37T624 578t24-114q0-156-134-210L707 0H498L331 228h-80V0zm0 540V378h118q41 0 65 21t24 60-24 60-65 21H251z"/><glyph glyph-name="S" unicode="S" horiz-adv-x="621" d="M41 509q0 100 74.5 153T305 715q137 0 235-56V489q-90 68-220 66-89-1-89-45 0-21 27-37.5t67.5-28 87.5-31 87.5-43.5 67.5-68.5T595 199q0-214-280-214-153 0-269 64v175q115-79 255-79 56 0 80 10.5t24 36.5q0 27-37.5 47t-91 37.5-107 41.5-91 73T41 509z"/><glyph glyph-name="T" unicode="T" horiz-adv-x="606" d="M13 700h580V535H396V0H211v535H13v165z"/><glyph glyph-name="U" unicode="U" horiz-adv-x="748" d="M504 700h185V267q0-76-27-132.5t-73-88T489 0 374-15 259 0 159 46.5t-73 88T59 267v433h185V277q0-127 130-127t130 127v423z"/><glyph glyph-name="V" unicode="V" horiz-adv-x="722" d="M456 0H266L3 700h200l158-480 158 480h200z"/><glyph glyph-name="W" unicode="W" horiz-adv-x="1078" d="M872 700h200L858 0H658L539 433 420 0H220L6 700h200l119-492 133 492h162l133-492z"/><glyph glyph-name="X" unicode="X" horiz-adv-x="694" d="M205 0H-11l240 364L4 700h216l127-206 127 206h216L465 364 705 0H489L347 235z"/><glyph glyph-name="Y" unicode="Y" horiz-adv-x="728" d="M456 0H272v239L-1 700h210l155-289 155 289h210L456 239V0z"/><glyph glyph-name="Z" unicode="Z" horiz-adv-x="627" d="M593 0H30v125l304 410H48v165h536V575L279 165h314V0z"/><glyph glyph-name="bracketleft" unicode="[" horiz-adv-x="357" d="M328-110H58v920h270V660H228V40h100v-150z"/><glyph glyph-name="backslash" unicode="\" horiz-adv-x="473" d="M451-60H331L21 760h120z"/><glyph glyph-name="bracketright" unicode="]" horiz-adv-x="357" d="M299-110H29V40h100v620H29v150h270v-920z"/><glyph glyph-name="asciicircum" unicode="^" horiz-adv-x="630" d="M210 340H30l210 360h150l210-360H420L315 535z"/><glyph glyph-name="underscore" unicode="_" horiz-adv-x="500" d="M500-186H0v140h500v-140z"/><glyph glyph-name="grave" unicode="`" horiz-adv-x="290" d="M280 760H120L10 910h180z"/><glyph glyph-name="a" unicode="a" horiz-adv-x="567" d="M505 137q0-30 33-30 10 0 19 3V5q-38-15-86-15-80 0-114 53-74-58-167-58-71 0-119 40T23 133q0 43 19 75.5T92.5 258t66 25 72.5 8q54 0 104-11v17q0 27-25.5 43.5T235 357q-76 0-168-37v143q98 32 187 32 123 0 187-51t64-173V137zm-307 10q0-20 16-33.5t42-13.5q45 0 79 25v65q-27 9-61 9-76 0-76-52z"/><glyph glyph-name="b" unicode="b" horiz-adv-x="624" d="M51 700h170V441q52 54 143 54 58 0 104-22t73-59 41-81.5 14-92.5-14-92.5T541 66 468 7 364-15q-60 0-101.5 23T201 65V0H51v700zm370-460q0 47-26.5 81T318 355q-33 0-59-17.5T221 295V185q12-25 38-42.5t59-17.5q50 0 76.5 34t26.5 81z"/><glyph glyph-name="c" unicode="c" horiz-adv-x="490" d="M27 230q0 132 81.5 199T304 496q79 0 148-33V318q-57 33-122 33-56 0-92-27t-36-84q0-54 36-82t89-28q74 0 130 32V17q-77-32-165-32-110 0-187.5 62.5T27 230z"/><glyph glyph-name="d" unicode="d" horiz-adv-x="623" d="M402 700h170V0H422v65q-20-34-61.5-57T259-15q-58 0-104 22T82 66t-41 81.5T27 240t14 92.5T82 414t73 59 104 22q91 0 143-54v259zm0-405q-12 25-38 42.5T305 355q-50 0-76.5-34T202 240t26.5-81 76.5-34q33 0 59 17.5t38 42.5v110z"/><glyph glyph-name="e" unicode="e" horiz-adv-x="548" d="M27 240q0 67 24 118.5t63 80 81 42.5 84 14q60 0 107-18t74.5-48 44.5-69.5 16.5-83T513 189H199q27-74 153-74 77 0 138 23V12q-76-27-178-27-123 0-204 67.5T27 240zm331 51q5 24-12.5 52.5T283 372q-36 0-61-22t-25-59h161z"/><glyph glyph-name="f" unicode="f" horiz-adv-x="412" d="M273 0H103v340H24v140h79v41q0 54 17.5 93.5t47 60.5 63 30.5T303 715q63 0 117-19V556q-31 19-74 19-32 0-52.5-14.5T273 514v-34h128V340H273V0z"/><glyph glyph-name="g" unicode="g" horiz-adv-x="623" d="M27 240q0 48 14 92.5T82 414t73 59 104 22q60 0 101.5-23t61.5-57v65h150V20q0-69-23.5-120.5T484-180t-90-41.5T288-235q-114 0-207 45v145q81-50 184-50 137 0 137 105v29q-52-54-143-54-58 0-104 22T82 66t-41 81.5T27 240zm375 55q-12 25-38 42.5T305 355q-50 0-76.5-34T202 240t26.5-81 76.5-34q33 0 59 17.5t38 42.5v110z"/><glyph glyph-name="h" unicode="h" d="M51 700h170V444q57 51 133 51 94 0 143-55.5T546 298V0H376v275q0 37-20 56t-53 19q-49 0-82-42V0H51v700z"/><glyph glyph-name="i" unicode="i" horiz-adv-x="274" d="M222 0H52v480h170V0zm12 642q0-47-27.5-70.5T137 548t-69.5 23.5T40 642q0 46 28 69.5t69 23.5q42 0 69.5-23.5T234 642z"/><glyph glyph-name="j" unicode="j" horiz-adv-x="274" d="M222-57q0-92-51.5-135T37-235q-57 0-92 15v142q24-8 49-8 26 0 42 15.5T52-25v505h170V-57zm12 699q0-47-27.5-70.5T137 548t-69.5 23.5T40 642q0 46 28 69.5t69 23.5q42 0 69.5-23.5T234 642z"/><glyph glyph-name="k" unicode="k" horiz-adv-x="561" d="M564 0H375L257 182h-36V0H51v700h170V312h38l105 168h190L398 244z"/><glyph glyph-name="l" unicode="l" horiz-adv-x="274" d="M52 730h170V0H52v730z"/><glyph glyph-name="m" unicode="m" horiz-adv-x="867" d="M221 0H51v480h150v-51q22 26 61.5 46t86.5 20q96 0 142-66 71 66 153 66 51 0 88-18.5t55-49 26-60 8-59.5V0H651v293q0 27-15.5 42T596 350q-39 0-70-31V0H356v293q0 27-15.5 42T301 350q-47 0-80-42V0z"/><glyph glyph-name="n" unicode="n" d="M201 425q65 70 153 70 94 0 143-55.5T546 298V0H376v275q0 37-20 56t-53 19q-49 0-82-42V0H51v480h150v-55z"/><glyph glyph-name="o" unicode="o" horiz-adv-x="594" d="M27 240q0 122 77.5 188.5T297 495t192.5-66.5T567 240 489.5 51.5 297-15 104.5 51.5 27 240zm365 0q0 45-23 75t-72 30-72-30-23-75 23-75 72-30 72 30 23 75z"/><glyph glyph-name="p" unicode="p" horiz-adv-x="624" d="M201 415q20 34 61.5 57T364 495q58 0 104-22t73-59 41-81.5 14-92.5-14-92.5T541 66 468 7 364-15q-91 0-143 54v-259H51v700h150v-65zm220-175q0 47-26.5 81T318 355q-33 0-59-17.5T221 295V185q12-25 38-42.5t59-17.5q50 0 76.5 34t26.5 81z"/><glyph glyph-name="q" unicode="q" horiz-adv-x="623" d="M27 240q0 48 14 92.5T82 414t73 59 104 22q60 0 101.5-23t61.5-57v65h150v-700H402V39q-52-54-143-54-58 0-104 22T82 66t-41 81.5T27 240zm375 55q-12 25-38 42.5T305 355q-50 0-76.5-34T202 240t26.5-81 76.5-34q33 0 59 17.5t38 42.5v110z"/><glyph glyph-name="r" unicode="r" horiz-adv-x="404" d="M201 415q61 89 188 75V325q-51 11-98.5-3.5T221 273V0H51v480h150v-65z"/><glyph glyph-name="s" unicode="s" horiz-adv-x="486" d="M34 342q0 81 59 117t150 36q94 0 181-41V319q-32 22-79.5 36.5T255 370q-46 0-46-24 0-18 26-29.5t63-21.5 74-24.5 63-47.5 26-83q0-155-229-155-116 0-193 44v135q77-51 184-51 63 0 63 24 0 17-26 28.5T197 187t-74 25.5T60 261t-26 81z"/><glyph glyph-name="t" unicode="t" horiz-adv-x="422" d="M89 615l170 40V480h130V340H259V184q0-59 63-59 42 0 77 12V5q-58-20-130-20-79 0-129.5 38.5T89 150v190H13v140h76v135z"/><glyph glyph-name="u" unicode="u" d="M371 480h170V0H391v55q-65-70-153-70-94 0-143 55.5T46 182v298h170V205q0-37 20-56t53-19q49 0 82 42v308z"/><glyph glyph-name="v" unicode="v" horiz-adv-x="572" d="M386 480h180L376 0H196L6 480h180l100-303z"/><glyph glyph-name="w" unicode="w" horiz-adv-x="828" d="M637 480h182L670 0H490l-76 281L338 0H158L9 480h182l68-295 73 295h164l73-295z"/><glyph glyph-name="x" unicode="x" horiz-adv-x="552" d="M355 480h192L375 239 556 0H364l-88 124L188 0H-4l181 239L5 480h192l79-126z"/><glyph glyph-name="y" unicode="y" horiz-adv-x="577" d="M297 194l98 286h175L369-50q-70-183-220-183-36 0-88 13v140q34-8 65-8 66 0 100 76L0 480h180z"/><glyph glyph-name="z" unicode="z" horiz-adv-x="492" d="M43 480h405V380L254 140h208V0H29v100l195 240H43v140z"/><glyph glyph-name="braceleft" unicode="{" horiz-adv-x="384" d="M348 40v-150q-116-27-183 16.5T98 45v170q0 37-18.5 48.5T27 275v150q21 0 34.5 3t25 17T98 485v170q0 95 67 138.5T348 810V660q-44 8-62-12.5T268 580V460q0-52-30.5-81T168 350q39 0 69.5-29t30.5-81V120q0-47 18-67.5T348 40z"/><glyph glyph-name="bar" unicode="|" horiz-adv-x="286" d="M228-100H58v910h170v-910z"/><glyph glyph-name="braceright" unicode="}" horiz-adv-x="384" d="M286 45q0-95-67-138.5T36-110V40q44-8 62 12.5t18 67.5v120q0 52 30.5 81t69.5 29q-39 0-69.5 29T116 460v120q0 47-18 67.5T36 660v150q116 27 183-16.5T286 655V485q0-38 19-49t52-11V275q-34 0-52.5-11.5T286 215V45z"/><glyph glyph-name="asciitilde" unicode="~" horiz-adv-x="604" d="M555 420q12-88-27-135.5T417 237q-41 0-111.5 26.5T219 289q-31 0-24-44H55q-12 89 27.5 136T189 428q46 0 114.5-26t86.5-26q32 0 25 44h140z"/><glyph glyph-name="exclamdown" unicode="¡" horiz-adv-x="286" d="M233-220H53l10 440h160zm12 616q0-48-29-73t-73-25-73 25-29 73q0 49 29 74t73 25 73-25 29-74z"/><glyph glyph-name="cent" unicode="¢" horiz-adv-x="510" d="M383 135q43 7 77 27V17Q422 1 383-6v-114H273v106Q170-7 100 54.5T30 230q0 121 70 187.5T273 494v106h110V488q42-10 72-25V318q-28 17-72 27V135zM273 342q-68-26-68-102 0-74 68-100v202z"/><glyph glyph-name="sterling" unicode="£" horiz-adv-x="606" d="M568 0H38v145h20q32 0 51 24t19 62v39H51v130h77v49q0 123 72 184.5T380 695q89 0 167-36V514q-52 46-128 46-53 0-87-28.5T298 446v-46h178V270H298v-39q0-61-38-86h308V0z"/><glyph glyph-name="currency" unicode="¤" horiz-adv-x="567" d="M181 172l-61-61-76 76 56 56q-29 47-29 107t29 108l-56 56 75 76 62-62q45 22 102 22 54 0 103-22l62 63 75-77-57-57q29-47 29-107t-28-107l56-56-76-76-61 61q-49-22-103-22-57 0-102 22zm30 178q0-29 18-50.5t54-21.5 54 21.5 18 50.5-18 50.5-54 21.5-54-21.5-18-50.5z"/><glyph glyph-name="yen" unicode="¥" horiz-adv-x="736" d="M513 680h198L522 360h96V250H460v-50h158V90H460V0H276v90H118v110h158v50H118v110h96L25 680h198l145-279z"/><glyph glyph-name="brokenbar" unicode="¦" horiz-adv-x="296" d="M233 430H63v380h170V430zm0-530H63v380h170v-380z"/><glyph glyph-name="section" unicode="§" horiz-adv-x="533" d="M483 120q0-155-229-155Q148-35 71 9v130q77-48 174-48 34 0 48.5 5t14.5 19q0 22-97 50-8 3-12 4-71 21-114 56t-43 97q0 83 66 129-56 41-56 111 0 81 59.5 117T265 715t181-41V544q-33 19-81 32.5T277 590q-50 0-50-24 0-9 8-17t30-16 34-12 46-14q67-20 107.5-53.5T493 360q0-79-65-123 55-45 55-117zM251 310q8-3 27.5-9t28.5-9q21 21 21 43 0 27-42 45-23 9-61 21-28-17-28-45 0-26 54-46z"/><glyph glyph-name="dieresis" unicode="¨" horiz-adv-x="370" d="M380 831q0-35-25-60t-60-25-60 25-25 60 25 60 60 25 60-25 25-60zm-220 0q0-35-25-60t-60-25-60 25-25 60 25 60 60 25 60-25 25-60z"/><glyph glyph-name="copyright" unicode="©" horiz-adv-x="846" d="M809 350q0-88-32.5-159t-87-115-123-67.5T423-15 279.5 8.5 156.5 76t-87 115T37 350t32.5 159 87 115 123 67.5T423 715t143.5-23.5 123-67.5 87-115T809 350zM582 179q-65-34-146-34-83 0-147 50.5T225 342q0 106 65 159.5T448 555q79 0 134-34V417q-55 29-108 29-44 0-76.5-23T365 350q0-52 31.5-74t77.5-22q53 0 108 29V179zM97 350q0-99 48-171T265.5 73.5 423 40t157.5 33.5T701 179t48 171-48 171-120.5 105.5T423 660t-157.5-33.5T145 521 97 350z"/><glyph glyph-name="guillemotleft" unicode="«" horiz-adv-x="607" d="M579 40H409L277 225v30l132 185h170L438 240zm-250 0H159L27 225v30l132 185h170L188 240z"/><glyph glyph-name="logicalnot" unicode="¬" horiz-adv-x="579" d="M522 220H382v120H42v140h480V220z"/><glyph glyph-name="registered" unicode="®" horiz-adv-x="834" d="M798 350q0-113-55-198T602.5 26 417-15 231.5 26 91 152 36 350t55 198 140.5 126T417 715t185.5-41T743 548t55-198zm-702 0q0-147 93-227t228-80 228 80 93 227-93 227-228 80-228-80-93-227zm273-188H254v390h199q65 0 112.5-36T613 411q0-46-22.5-77.5T531 290l105-128H505l-93 118h-43V162zm0 282v-76h69q49 0 49 38t-49 38h-69z"/><glyph glyph-name="macron" unicode="¯" horiz-adv-x="360" d="M10 888h340V758H10v130z"/><glyph glyph-name="degree" unicode="°" horiz-adv-x="430" d="M403 539q0-85-54-132.5T215 359q-79 0-133.5 47.5T27 539q0 81 54.5 128.5T215 715q80 0 134-47.5T403 539zm-251 0q0-30 17-47.5t46-17.5 45.5 17.5T277 539q0 28-16.5 44.5T215 600t-46-16.5-17-44.5z"/><glyph glyph-name="plusminus" unicode="±" horiz-adv-x="580" d="M360 670V500h170V360H360V190H220v170H50v140h170v170h140zM530 0H50v140h480V0z"/><glyph glyph-name="acute" unicode="´" horiz-adv-x="270" d="M160 760H0l90 150h180z"/><glyph glyph-name="paragraph" unicode="¶" horiz-adv-x="780" d="M435-220H260v480q-110 0-172 58.5T26 480t62 161.5T260 700h450v-920H535v755H435v-755z"/><glyph glyph-name="periodcentered" unicode="·" horiz-adv-x="282" d="M243 239q0-49-29-74t-73-25-73 25-29 74q0 48 29 73t73 25 73-25 29-73z"/><glyph glyph-name="cedilla" unicode="¸" horiz-adv-x="225" d="M57 0h112l-12-43q88-14 88-92 0-35-25-58.5T163-226t-68-9q-61 0-105 19v95q30-18 76-18 56 0 56 28 0 33-86 26z"/><glyph glyph-name="guillemotright" unicode="»" horiz-adv-x="607" d="M448 40H278l141 200-141 200h170l132-185v-30zm-250 0H28l141 200L28 440h170l132-185v-30z"/><glyph glyph-name="onequarter" unicode="¼" horiz-adv-x="915" d="M724 408h108V156h54V66h-54V0H727v66H520v90zm3-252v119l-97-119h97zM242-15h-50l458 730h50zm-80 695h80V365h78v-93H44v93h90v205l-88-27v99z"/><glyph glyph-name="onehalf" unicode="½" horiz-adv-x="880" d="M237-15h-50l458 730h50zm311 387q62 45 146 45 67 0 110.5-31.5T848 290q0-46-29.5-79T740 149q-78-46-78-56h186V0H535v49q0 28 9.5 53t19 39 34 33 33 24 37.5 22q5 3 21 11.5t20.5 12L723 254l11.5 14 2.5 16q0 37-53 37-70 0-136-51v102zM157 680h80V365h78v-93H39v93h90v205l-88-27v99z"/><glyph glyph-name="threequarters" unicode="¾" horiz-adv-x="969" d="M296-15h-50l458 730h50zm482 423h108V156h54V66h-54V0H781v66H574v90zm3-252v119l-97-119h97zM334 582q0-65-63-87 80-25 80-105 0-63-49-92t-122-29q-71 0-141 28v102q60-36 132-34 74 2 74 43 0 33-55 33h-70l1 93h56q52-2 52 30 0 35-63 35-61 0-120-40v102q60 34 135 34 68 0 110.5-28.5T334 582z"/><glyph glyph-name="questiondown" unicode="¿" horiz-adv-x="497" d="M465-188q-92-47-194-47-106 0-176 42.5T25-57q0 38 17.5 74.5t42.5 65 50 54.5 42.5 52 17.5 49h160q0-34-15-67.5T303.5 112 261 65.5t-36-42T210-12q0-63 92-63 82 0 163 47v-160zm-89 584q0-48-29-73t-73-25-73 25-29 73q0 49 29 74t73 25 73-25 29-74z"/><glyph glyph-name="Agrave" unicode="À" horiz-adv-x="752" d="M191 0H1l275 700h200L751 0H561l-40 110H231zm167 462l-72-202h180l-72 202q-12 34-18 71-6-37-18-71zm118 298H316L206 910h180z"/><glyph glyph-name="Aacute" unicode="Á" horiz-adv-x="752" d="M191 0H1l275 700h200L751 0H561l-40 110H231zm167 462l-72-202h180l-72 202q-12 34-18 71-6-37-18-71zm78 298H276l90 150h180z"/><glyph glyph-name="Acircumflex" unicode="Â" horiz-adv-x="752" d="M191 0H1l275 700h200L751 0H561l-40 110H231zm167 462l-72-202h180l-72 202q-12 34-18 71-6-37-18-71zm-57 448h150l120-160H416l-40 53-40-53H181z"/><glyph glyph-name="Atilde" unicode="Ã" horiz-adv-x="752" d="M191 0H1l275 700h200L751 0H561l-40 110H231zm167 462l-72-202h180l-72 202q-12 34-18 71-6-37-18-71zm203 432q18-66-11.5-111.5T461 737q-38 0-82.5 21T322 779q-17 0-21-14.5t1-21.5H187q-18 66 11.5 111.5T287 900q38 0 82.5-21t56.5-21q17 0 21 14t-1 22h115z"/><glyph glyph-name="Adieresis" unicode="Ä" horiz-adv-x="752" d="M191 0H1l275 700h200L751 0H561l-40 110H231zm167 462l-72-202h180l-72 202q-12 34-18 71-6-37-18-71zm213 369q0-35-25-60t-60-25-60 25-25 60 25 60 60 25 60-25 25-60zm-220 0q0-35-25-60t-60-25-60 25-25 60 25 60 60 25 60-25 25-60z"/><glyph glyph-name="Aring" unicode="Å" horiz-adv-x="752" d="M191 0H1l275 700h200L751 0H561l-40 110H231zm167 462l-72-202h180l-72 202q-12 34-18 71-6-37-18-71zm148 394q0-58-37.5-92T376 730q-54 0-92 34t-38 92q0 56 38 90t92 34q55 0 92.5-33.5T506 856zm-165 0q0-16 9.5-26.5T376 819t25.5 10.5T411 856q0 15-9.5 25T376 891t-25.5-10-9.5-25z"/><glyph glyph-name="AE" unicode="Æ" horiz-adv-x="1022" d="M676 274V160h305V0H491v115H245L173 0H-17l445 700h547V540H676V433h269V274H676zm-341-14h156v252z"/><glyph glyph-name="Ccedilla" unicode="Ç" horiz-adv-x="655" d="M619 209V29Q551-2 480-11l-9-32q88-14 88-92 0-35-25-58.5T477-226t-68-9q-61 0-105 19v95q30-18 76-18 56 0 56 28 0 33-86 26l18 72q-68 6-127 30T134.5 83t-75 108T32 340q0 95 32 169t87 118 121 66 139 22q110 0 203-44V496q-68 57-171 57-92 0-156.5-53.5T222 340q0-95 64-143.5T441 148q115 0 178 61z"/><glyph glyph-name="Egrave" unicode="È" horiz-adv-x="617" d="M66 700h504V540H251V433h289V274H251V160h325V0H66v700zm362 60H268L158 910h180z"/><glyph glyph-name="Eacute" unicode="É" horiz-adv-x="617" d="M66 700h504V540H251V433h289V274H251V160h325V0H66v700zm322 60H228l90 150h180z"/><glyph glyph-name="Ecircumflex" unicode="Ê" horiz-adv-x="617" d="M66 700h504V540H251V433h289V274H251V160h325V0H66v700zm187 210h150l120-160H368l-40 53-40-53H133z"/><glyph glyph-name="Edieresis" unicode="Ë" horiz-adv-x="617" d="M66 700h504V540H251V433h289V274H251V160h325V0H66v700zm457 131q0-35-25-60t-60-25-60 25-25 60 25 60 60 25 60-25 25-60zm-220 0q0-35-25-60t-60-25-60 25-25 60 25 60 60 25 60-25 25-60z"/><glyph glyph-name="Igrave" unicode="Ì" horiz-adv-x="317" d="M66 700h185V0H66v700zm193 60H99L-11 910h180z"/><glyph glyph-name="Iacute" unicode="Í" horiz-adv-x="317" d="M66 700h185V0H66v700zm153 60H59l90 150h180z"/><glyph glyph-name="Icircumflex" unicode="Î" horiz-adv-x="317" d="M66 700h185V0H66v700zm18 210h150l120-160H199l-40 53-40-53H-36z"/><glyph glyph-name="Idieresis" unicode="Ï" horiz-adv-x="317" d="M66 700h185V0H66v700zm288 131q0-35-25-60t-60-25-60 25-25 60 25 60 60 25 60-25 25-60zm-220 0q0-35-25-60t-60-25-60 25-25 60 25 60 60 25 60-25 25-60z"/><glyph glyph-name="Eth" unicode="Ð" horiz-adv-x="760" d="M82 700h279q181 0 273.5-95T727 350 634.5 95 361 0H82v285H12v130h70v285zm185-540h94q176 0 176 190T361 540h-94V415h125V285H267V160z"/><glyph glyph-name="Ntilde" unicode="Ñ" horiz-adv-x="762" d="M251 0H66v700h175l274-402q-4 44-4 116v286h185V0H521L247 401q4-44 4-115V0zm315 894q18-66-11.5-111.5T466 737q-38 0-82.5 21T327 779q-17 0-21-14.5t1-21.5H192q-18 66 11.5 111.5T292 900q38 0 82.5-21t56.5-21q17 0 21 14t-1 22h115z"/><glyph glyph-name="Ograve" unicode="Ò" horiz-adv-x="812" d="M31 350q0 155 98 260t277 105 277-105 98-260-98-260T406-15 129 90 31 350zm560 0q0 87-48.5 141T406 545t-136.5-54T221 350t48.5-141T406 155t136.5 54T591 350zm-85 410H346L236 910h180z"/><glyph glyph-name="Oacute" unicode="Ó" horiz-adv-x="812" d="M31 350q0 155 98 260t277 105 277-105 98-260-98-260T406-15 129 90 31 350zm560 0q0 87-48.5 141T406 545t-136.5-54T221 350t48.5-141T406 155t136.5 54T591 350zM466 760H306l90 150h180z"/><glyph glyph-name="Ocircumflex" unicode="Ô" horiz-adv-x="812" d="M31 350q0 155 98 260t277 105 277-105 98-260-98-260T406-15 129 90 31 350zm560 0q0 87-48.5 141T406 545t-136.5-54T221 350t48.5-141T406 155t136.5 54T591 350zM331 910h150l120-160H446l-40 53-40-53H211z"/><glyph glyph-name="Otilde" unicode="Õ" horiz-adv-x="812" d="M31 350q0 155 98 260t277 105 277-105 98-260-98-260T406-15 129 90 31 350zm560 0q0 87-48.5 141T406 545t-136.5-54T221 350t48.5-141T406 155t136.5 54T591 350zm0 544q18-66-11.5-111.5T491 737q-38 0-82.5 21T352 779q-17 0-21-14.5t1-21.5H217q-18 66 11.5 111.5T317 900q38 0 82.5-21t56.5-21q17 0 21 14t-1 22h115z"/><glyph glyph-name="Odieresis" unicode="Ö" horiz-adv-x="812" d="M31 350q0 155 98 260t277 105 277-105 98-260-98-260T406-15 129 90 31 350zm560 0q0 87-48.5 141T406 545t-136.5-54T221 350t48.5-141T406 155t136.5 54T591 350zm10 481q0-35-25-60t-60-25-60 25-25 60 25 60 60 25 60-25 25-60zm-220 0q0-35-25-60t-60-25-60 25-25 60 25 60 60 25 60-25 25-60z"/><glyph glyph-name="multiply" unicode="×" horiz-adv-x="518" d="M259 258L135 134l-92 92 124 124L43 474l92 92 124-124 124 124 92-92-124-124 124-124-92-92z"/><glyph glyph-name="Oslash" unicode="Ø" horiz-adv-x="812" d="M739 748l-82-114q124-102 124-284 0-155-98-260T406-15q-104 0-185 39l-51-72H60l87 121Q31 175 31 350q0 155 98 260t277 105q99 0 175-34l48 67h110zM406 545q-88 0-136.5-54T221 350q0-74 35-124l220 308q-33 11-70 11zm-80-375q35-15 80-15 88 0 136.5 54T591 350q0 82-42 133z"/><glyph glyph-name="Ugrave" unicode="Ù" horiz-adv-x="748" d="M504 700h185V267q0-76-27-132.5t-73-88T489 0 374-15 259 0 159 46.5t-73 88T59 267v433h185V277q0-127 130-127t130 127v423zm-30 60H314L204 910h180z"/><glyph glyph-name="Uacute" unicode="Ú" horiz-adv-x="748" d="M504 700h185V267q0-76-27-132.5t-73-88T489 0 374-15 259 0 159 46.5t-73 88T59 267v433h185V277q0-127 130-127t130 127v423zm-70 60H274l90 150h180z"/><glyph glyph-name="Ucircumflex" unicode="Û" horiz-adv-x="748" d="M504 700h185V267q0-76-27-132.5t-73-88T489 0 374-15 259 0 159 46.5t-73 88T59 267v433h185V277q0-127 130-127t130 127v423zM299 910h150l120-160H414l-40 53-40-53H179z"/><glyph glyph-name="Udieresis" unicode="Ü" horiz-adv-x="748" d="M504 700h185V267q0-76-27-132.5t-73-88T489 0 374-15 259 0 159 46.5t-73 88T59 267v433h185V277q0-127 130-127t130 127v423zm65 131q0-35-25-60t-60-25-60 25-25 60 25 60 60 25 60-25 25-60zm-220 0q0-35-25-60t-60-25-60 25-25 60 25 60 60 25 60-25 25-60z"/><glyph glyph-name="Yacute" unicode="Ý" horiz-adv-x="728" d="M456 0H272v239L-1 700h210l155-289 155 289h210L456 239V0zm-34 760H262l90 150h180z"/><glyph glyph-name="Thorn" unicode="Þ" horiz-adv-x="668" d="M251 590h92q305 0 305-240 0-238-305-240h-92V0H66v700h185V590zm0-320h101q106 0 106 80t-106 80H251V270z"/><glyph glyph-name="germandbls" unicode="ß" horiz-adv-x="588" d="M573 141q0-76-58.5-116T375-15q-61 0-114 24v130q42-23 80-23 26 0 41.5 10.5T398 156q0 17-21 41t-47 46-47 53.5-21 60.5q0 38 36 85.5t36 85.5q0 57-56 57-26 0-41.5-15T221 529V0H51v486q0 110 58.5 169T278 715q107 1 161.5-48T494 559q0-37-20.5-71.5t-41-61.5-20.5-45q0-17 16.5-36.5t40-40 47.5-43 40.5-54.5 16.5-66z"/><glyph glyph-name="agrave" unicode="à" horiz-adv-x="567" d="M505 137q0-30 33-30 10 0 19 3V5q-38-15-86-15-80 0-114 53-74-58-167-58-71 0-119 40T23 133q0 43 19 75.5T92.5 258t66 25 72.5 8q54 0 104-11v17q0 27-25.5 43.5T235 357q-76 0-168-37v143q98 32 187 32 123 0 187-51t64-173V137zm-307 10q0-20 16-33.5t42-13.5q45 0 79 25v65q-27 9-61 9-76 0-76-52zm164 403H202L92 700h180z"/><glyph glyph-name="aacute" unicode="á" horiz-adv-x="567" d="M505 137q0-30 33-30 10 0 19 3V5q-38-15-86-15-80 0-114 53-74-58-167-58-71 0-119 40T23 133q0 43 19 75.5T92.5 258t66 25 72.5 8q54 0 104-11v17q0 27-25.5 43.5T235 357q-76 0-168-37v143q98 32 187 32 123 0 187-51t64-173V137zm-307 10q0-20 16-33.5t42-13.5q45 0 79 25v65q-27 9-61 9-76 0-76-52zm124 403H162l90 150h180z"/><glyph glyph-name="acircumflex" unicode="â" horiz-adv-x="567" d="M505 137q0-30 33-30 10 0 19 3V5q-38-15-86-15-80 0-114 53-74-58-167-58-71 0-119 40T23 133q0 43 19 75.5T92.5 258t66 25 72.5 8q54 0 104-11v17q0 27-25.5 43.5T235 357q-76 0-168-37v143q98 32 187 32 123 0 187-51t64-173V137zm-307 10q0-20 16-33.5t42-13.5q45 0 79 25v65q-27 9-61 9-76 0-76-52zm-11 553h150l120-160H302l-40 53-40-53H67z"/><glyph glyph-name="atilde" unicode="ã" horiz-adv-x="567" d="M505 137q0-30 33-30 10 0 19 3V5q-38-15-86-15-80 0-114 53-74-58-167-58-71 0-119 40T23 133q0 43 19 75.5T92.5 258t66 25 72.5 8q54 0 104-11v17q0 27-25.5 43.5T235 357q-76 0-168-37v143q98 32 187 32 123 0 187-51t64-173V137zm-307 10q0-20 16-33.5t42-13.5q45 0 79 25v65q-27 9-61 9-76 0-76-52zm249 537q18-66-11.5-111.5T347 527q-38 0-82.5 21T208 569q-17 0-21-14.5t1-21.5H73q-18 66 11.5 111.5T173 690q38 0 82.5-21t56.5-21q17 0 21 14t-1 22h115z"/><glyph glyph-name="adieresis" unicode="ä" horiz-adv-x="567" d="M505 137q0-30 33-30 10 0 19 3V5q-38-15-86-15-80 0-114 53-74-58-167-58-71 0-119 40T23 133q0 43 19 75.5T92.5 258t66 25 72.5 8q54 0 104-11v17q0 27-25.5 43.5T235 357q-76 0-168-37v143q98 32 187 32 123 0 187-51t64-173V137zm-307 10q0-20 16-33.5t42-13.5q45 0 79 25v65q-27 9-61 9-76 0-76-52zm259 474q0-35-25-60t-60-25-60 25-25 60 25 60 60 25 60-25 25-60zm-220 0q0-35-25-60t-60-25-60 25-25 60 25 60 60 25 60-25 25-60z"/><glyph glyph-name="aring" unicode="å" horiz-adv-x="567" d="M505 137q0-30 33-30 10 0 19 3V5q-38-15-86-15-80 0-114 53-74-58-167-58-71 0-119 40T23 133q0 43 19 75.5T92.5 258t66 25 72.5 8q54 0 104-11v17q0 27-25.5 43.5T235 357q-76 0-168-37v143q98 32 187 32 123 0 187-51t64-173V137zm-307 10q0-20 16-33.5t42-13.5q45 0 79 25v65q-27 9-61 9-76 0-76-52zm194 499q0-58-37.5-92T262 520q-54 0-92 34t-38 92q0 56 38 90t92 34q55 0 92.5-33.5T392 646zm-165 0q0-16 9.5-26.5T262 609t25.5 10.5T297 646q0 15-9.5 25T262 681t-25.5-10-9.5-25z"/><glyph glyph-name="ae" unicode="æ" horiz-adv-x="851" d="M421 57Q319-15 198-15q-75 0-125 40T23 133q0 45 18.5 77.5t51 49.5 69.5 24.5 81 7.5q56 0 104-12v15q0 60-110 60-78 0-170-37v145q98 32 189 32 123 0 175-59 67 59 161 59 57 0 102-18.5t71.5-49 43-70 16-82.5-8.5-86H502q27-74 154-74 77 0 138 23V12q-76-27-178-27-131 0-195 72zm-223 90q0-22 16-33.5t41-11.5q32 0 56 8t57 32q-8 23-11 53-45 6-70 6-37 0-63-13t-26-41zm388 223q-36 0-61-22t-25-59h161q5 24-12.5 52.5T586 370z"/><glyph glyph-name="ccedilla" unicode="ç" horiz-adv-x="490" d="M457 162V17q-51-20-98-27l-9-33q88-14 88-92 0-35-25-58.5T356-226t-68-9q-61 0-105 19v95q30-18 76-18 56 0 56 28 0 33-86 26l18 73Q152 0 89.5 61.5T27 230q0 132 81.5 199T304 496q79 0 148-33V318q-57 33-122 33-56 0-92-27t-36-84q0-54 36-82t89-28q74 0 130 32z"/><glyph glyph-name="egrave" unicode="è" horiz-adv-x="548" d="M27 240q0 67 24 118.5t63 80 81 42.5 84 14q60 0 107-18t74.5-48 44.5-69.5 16.5-83T513 189H199q27-74 153-74 77 0 138 23V12q-76-27-178-27-123 0-204 67.5T27 240zm331 51q5 24-12.5 52.5T283 372q-36 0-61-22t-25-59h161zm20 249H218L108 690h180z"/><glyph glyph-name="eacute" unicode="é" horiz-adv-x="548" d="M27 240q0 67 24 118.5t63 80 81 42.5 84 14q60 0 107-18t74.5-48 44.5-69.5 16.5-83T513 189H199q27-74 153-74 77 0 138 23V12q-76-27-178-27-123 0-204 67.5T27 240zm331 51q5 24-12.5 52.5T283 372q-36 0-61-22t-25-59h161zm-20 249H178l90 150h180z"/><glyph glyph-name="ecircumflex" unicode="ê" horiz-adv-x="548" d="M27 240q0 67 24 118.5t63 80 81 42.5 84 14q60 0 107-18t74.5-48 44.5-69.5 16.5-83T513 189H199q27-74 153-74 77 0 138 23V12q-76-27-178-27-123 0-204 67.5T27 240zm331 51q5 24-12.5 52.5T283 372q-36 0-61-22t-25-59h161zM203 690h150l120-160H318l-40 53-40-53H83z"/><glyph glyph-name="edieresis" unicode="ë" horiz-adv-x="548" d="M27 240q0 67 24 118.5t63 80 81 42.5 84 14q60 0 107-18t74.5-48 44.5-69.5 16.5-83T513 189H199q27-74 153-74 77 0 138 23V12q-76-27-178-27-123 0-204 67.5T27 240zm331 51q5 24-12.5 52.5T283 372q-36 0-61-22t-25-59h161zm115 320q0-35-25-60t-60-25-60 25-25 60 25 60 60 25 60-25 25-60zm-220 0q0-35-25-60t-60-25-60 25-25 60 25 60 60 25 60-25 25-60z"/><glyph glyph-name="igrave" unicode="ì" horiz-adv-x="274" d="M222 0H52v480h170V0zm5 540H67l-80 150h180z"/><glyph glyph-name="iacute" unicode="í" horiz-adv-x="274" d="M52 480h170V0H52v480zm145 60H37l90 150h180z"/><glyph glyph-name="icircumflex" unicode="î" horiz-adv-x="274" d="M62 690h150l100-160H167l-30 53-30-53H-38zM52 480h170V0H52v480z"/><glyph glyph-name="idieresis" unicode="ï" horiz-adv-x="274" d="M317 611q0-33-23.5-56.5T237 531t-56.5 23.5T157 611t23.5 56.5T237 691t56.5-23.5T317 611zm-200 0q0-33-23.5-56.5T37 531t-56.5 23.5T-43 611t23.5 56.5T37 691t56.5-23.5T117 611zM52 480h170V0H52v480z"/><glyph glyph-name="eth" unicode="ð" horiz-adv-x="582" d="M549 280q0-155-71-225T289-15q-114 0-187 59.5T29 215q0 102 56 161t144 59q99 0 145-57 0 9-2 27-11 82-83 134l-74-74-73 74 46 46q-39 10-87 10v120q102 0 186-31l69 69 73-74-45-45q165-118 165-354zm-345-65q0-34 19-62t66-28 66 28 19 62-19 62-66 28-66-28-19-62z"/><glyph glyph-name="ntilde" unicode="ñ" d="M201 425q65 70 153 70 94 0 143-55.5T546 298V0H376v275q0 37-20 56t-53 19q-49 0-82-42V0H51v480h150v-55zm270 249q18-66-11.5-111.5T371 517q-38 0-82.5 21T232 559q-17 0-21-14.5t1-21.5H97q-18 66 11.5 111.5T197 680q38 0 82.5-21t56.5-21q17 0 21 14t-1 22h115z"/><glyph glyph-name="ograve" unicode="ò" horiz-adv-x="594" d="M27 240q0 122 77.5 188.5T297 495t192.5-66.5T567 240 489.5 51.5 297-15 104.5 51.5 27 240zm365 0q0 45-23 75t-72 30-72-30-23-75 23-75 72-30 72 30 23 75zm6 290H238L128 680h180z"/><glyph glyph-name="oacute" unicode="ó" horiz-adv-x="594" d="M27 240q0 122 77.5 188.5T297 495t192.5-66.5T567 240 489.5 51.5 297-15 104.5 51.5 27 240zm365 0q0 45-23 75t-72 30-72-30-23-75 23-75 72-30 72 30 23 75zm-34 290H198l90 150h180z"/><glyph glyph-name="ocircumflex" unicode="ô" horiz-adv-x="594" d="M27 240q0 122 77.5 188.5T297 495t192.5-66.5T567 240 489.5 51.5 297-15 104.5 51.5 27 240zm365 0q0 45-23 75t-72 30-72-30-23-75 23-75 72-30 72 30 23 75zM223 680h150l120-160H338l-40 53-40-53H103z"/><glyph glyph-name="otilde" unicode="õ" horiz-adv-x="594" d="M27 240q0 122 77.5 188.5T297 495t192.5-66.5T567 240 489.5 51.5 297-15 104.5 51.5 27 240zm365 0q0 45-23 75t-72 30-72-30-23-75 23-75 72-30 72 30 23 75zm91 424q18-66-11.5-111.5T383 507q-38 0-82.5 21T244 549q-17 0-21-14.5t1-21.5H109q-18 66 11.5 111.5T209 670q38 0 82.5-21t56.5-21q17 0 21 14t-1 22h115z"/><glyph glyph-name="odieresis" unicode="ö" horiz-adv-x="594" d="M27 240q0 122 77.5 188.5T297 495t192.5-66.5T567 240 489.5 51.5 297-15 104.5 51.5 27 240zm365 0q0 45-23 75t-72 30-72-30-23-75 23-75 72-30 72 30 23 75zm101 361q0-35-25-60t-60-25-60 25-25 60 25 60 60 25 60-25 25-60zm-220 0q0-35-25-60t-60-25-60 25-25 60 25 60 60 25 60-25 25-60z"/><glyph glyph-name="divide" unicode="÷" horiz-adv-x="544" d="M512 280H32v140h480V280zM374 127q0-49-29-74t-73-25-73 25-29 74q0 48 29 73t73 25 73-25 29-73zm0 447q0-49-29-74t-73-25-73 25-29 74q0 48 29 73t73 25 73-25 29-73z"/><glyph glyph-name="oslash" unicode="ø" horiz-adv-x="594" d="M513 543l-56-90q110-68 110-213 0-122-77.5-188.5T297-15q-66 0-119 22l-44-70H79l57 91Q27 97 27 240q0 122 77.5 188.5T297 495q64 0 118-21l43 69h55zM297 345q-49 0-72-30t-23-75 21-73l108 173q-17 5-34 5zm-36-205q18-5 36-5 49 0 72 30t23 75-22 74z"/><glyph glyph-name="ugrave" unicode="ù" d="M371 480h170V0H391v55q-65-70-153-70-94 0-143 55.5T46 182v298h170V205q0-37 20-56t53-19q49 0 82 42v308zm25 60H236L126 690h180z"/><glyph glyph-name="uacute" unicode="ú" d="M371 480h170V0H391v55q-65-70-153-70-94 0-143 55.5T46 182v298h170V205q0-37 20-56t53-19q49 0 82 42v308zm-15 60H196l90 150h180z"/><glyph glyph-name="ucircumflex" unicode="û" d="M371 480h170V0H391v55q-65-70-153-70-94 0-143 55.5T46 182v298h170V205q0-37 20-56t53-19q49 0 82 42v308zM221 690h150l120-160H336l-40 53-40-53H101z"/><glyph glyph-name="udieresis" unicode="ü" d="M371 480h170V0H391v55q-65-70-153-70-94 0-143 55.5T46 182v298h170V205q0-37 20-56t53-19q49 0 82 42v308zm120 131q0-35-25-60t-60-25-60 25-25 60 25 60 60 25 60-25 25-60zm-220 0q0-35-25-60t-60-25-60 25-25 60 25 60 60 25 60-25 25-60z"/><glyph glyph-name="yacute" unicode="ý" horiz-adv-x="577" d="M297 194l98 286h175L369-50q-70-183-220-183-36 0-88 13v140q34-8 65-8 66 0 100 76L0 480h180zm44 346H181l90 150h180z"/><glyph glyph-name="thorn" unicode="þ" horiz-adv-x="623" d="M51 700h170V430q60 65 148 65 76 0 129.5-40t75.5-95.5T596 240q0-104-60-179.5T369-15q-90 0-148 60v-265H51v920zm370-460q0 47-26 81t-76 34q-34 0-60-18.5T221 290V190q16-26 42-42.5t56-17.5q48-1 75 32t27 78z"/><glyph glyph-name="ydieresis" unicode="ÿ" horiz-adv-x="577" d="M297 194l98 286h175L369-50q-70-183-220-183-36 0-88 13v140q34-8 65-8 66 0 100 76L0 480h180zm179 417q0-35-25-60t-60-25-60 25-25 60 25 60 60 25 60-25 25-60zm-220 0q0-35-25-60t-60-25-60 25-25 60 25 60 60 25 60-25 25-60z"/><glyph glyph-name="Amacron" unicode="Ā" horiz-adv-x="752" d="M191 0H1l275 700h200L751 0H561l-40 110H231zm167 462l-72-202h180l-72 202q-12 34-18 71-6-37-18-71zM206 888h340V758H206v130z"/><glyph glyph-name="amacron" unicode="ā" horiz-adv-x="567" d="M505 137q0-30 33-30 10 0 19 3V5q-38-15-86-15-80 0-114 53-74-58-167-58-71 0-119 40T23 133q0 43 19 75.5T92.5 258t66 25 72.5 8q54 0 104-11v17q0 27-25.5 43.5T235 357q-76 0-168-37v143q98 32 187 32 123 0 187-51t64-173V137zm-307 10q0-20 16-33.5t42-13.5q45 0 79 25v65q-27 9-61 9-76 0-76-52zM92 678h340V548H92v130z"/><glyph glyph-name="Abreve" unicode="Ă" horiz-adv-x="752" d="M191 0H1l275 700h200L751 0H561l-40 110H231zm167 462l-72-202h180l-72 202q-12 34-18 71-6-37-18-71zm183 323q-68-46-165-46t-165 46v126q69-42 165-42t165 42V785z"/><glyph glyph-name="abreve" unicode="ă" horiz-adv-x="567" d="M505 137q0-30 33-30 10 0 19 3V5q-38-15-86-15-80 0-114 53-74-58-167-58-71 0-119 40T23 133q0 43 19 75.5T92.5 258t66 25 72.5 8q54 0 104-11v17q0 27-25.5 43.5T235 357q-76 0-168-37v143q98 32 187 32 123 0 187-51t64-173V137zm-307 10q0-20 16-33.5t42-13.5q45 0 79 25v65q-27 9-61 9-76 0-76-52zm229 428q-68-46-165-46T97 575v126q69-42 165-42t165 42V575z"/><glyph glyph-name="Aogonek" unicode="Ą" horiz-adv-x="752" d="M751 0h-1q-62-40-62-82 0-28 31-28 17 0 31 8v-110q-39-23-91-23-58 0-90 30t-31 76q2 75 75 129h-52l-40 110H231L191 0H1l275 700h200zM358 462l-72-202h180l-72 202q-12 34-18 71-6-37-18-71z"/><glyph glyph-name="aogonek" unicode="ą" horiz-adv-x="568" d="M557 110V5q-62-40-62-82 0-28 31-28 17 0 31 8v-110q-39-23-91-23-58 0-90 30t-31 76q2 70 68 123-36 14-56 44-74-58-167-58-71 0-119 40T23 133q0 43 19 75.5T92.5 258t66 25 72.5 8q54 0 104-11v17q0 27-25.5 43.5T235 357q-76 0-168-37v143q98 32 187 32 123 0 187-51t64-173V137q0-30 33-30 10 0 19 3zm-301-10q45 0 79 25v65q-27 9-61 9-76 0-76-52 0-20 16-33.5t42-13.5z"/><glyph glyph-name="Cacute" unicode="Ć" horiz-adv-x="655" d="M32 340q0 95 32 169t87 118 121 66 139 22q110 0 203-44V496q-68 57-171 57-92 0-156.5-53.5T222 340q0-95 64-143.5T441 148q115 0 178 61V29q-93-44-204-44-75 0-141.5 21T152 68.5 64.5 180 32 340zm435 420H307l90 150h180z"/><glyph glyph-name="cacute" unicode="ć" horiz-adv-x="490" d="M27 230q0 132 81.5 199T304 496q79 0 148-33V318q-57 33-122 33-56 0-92-27t-36-84q0-54 36-82t89-28q74 0 130 32V17q-77-32-165-32-110 0-187.5 62.5T27 230zm321 310H188l90 150h180z"/><glyph glyph-name="Cdotaccent" unicode="Ċ" horiz-adv-x="655" d="M32 340q0 95 32 169t87 118 121 66 139 22q110 0 203-44V496q-68 57-171 57-92 0-156.5-53.5T222 340q0-95 64-143.5T441 148q115 0 178 61V29q-93-44-204-44-75 0-141.5 21T152 68.5 64.5 180 32 340zm283 497q0 44 26.5 67t66.5 23 66.5-23 26.5-67q0-45-26.5-67.5T408 747t-66.5 22.5T315 837z"/><glyph glyph-name="cdotaccent" unicode="ċ" horiz-adv-x="490" d="M27 230q0 132 81.5 199T304 496q79 0 148-33V318q-57 33-122 33-56 0-92-27t-36-84q0-54 36-82t89-28q74 0 130 32V17q-77-32-165-32-110 0-187.5 62.5T27 230zm169 387q0 44 26.5 67t66.5 23 66.5-23 26.5-67q0-45-26.5-67.5T289 527t-66.5 22.5T196 617z"/><glyph glyph-name="Ccaron" unicode="Č" horiz-adv-x="655" d="M32 340q0 95 32 169t87 118 121 66 139 22q110 0 203-44V496q-68 57-171 57-92 0-156.5-53.5T222 340q0-95 64-143.5T441 148q115 0 178 61V29q-93-44-204-44-75 0-141.5 21T152 68.5 64.5 180 32 340zm580 580L482 760H332L202 920h155l50-63 50 63h155z"/><glyph glyph-name="ccaron" unicode="č" horiz-adv-x="490" d="M27 230q0 132 81.5 199T304 496q79 0 148-33V318q-57 33-122 33-56 0-92-27t-36-84q0-54 36-82t89-28q74 0 130 32V17q-77-32-165-32-110 0-187.5 62.5T27 230zm466 470L363 540H213L83 700h155l50-63 50 63h155z"/><glyph glyph-name="Dcaron" unicode="Ď" horiz-adv-x="744" d="M66 700h279q181 0 273.5-95T711 350 618.5 95 345 0H66v700zm455-350q0 190-176 190h-94V160h94q176 0 176 190zm30 570L421 760H271L141 920h155l50-63 50 63h155z"/><glyph glyph-name="dcaron" unicode="ď" horiz-adv-x="623" d="M628 700h140l-35-211H613zm-226 0h170V0H422v65q-20-34-61.5-57T259-15q-58 0-104 22T82 66t-41 81.5T27 240t14 92.5T82 414t73 59 104 22q91 0 143-54v259zm0-405q-12 25-38 42.5T305 355q-50 0-76.5-34T202 240t26.5-81 76.5-34q33 0 59 17.5t38 42.5v110z"/><glyph glyph-name="Dcroat" unicode="Đ" horiz-adv-x="760" d="M82 700h279q181 0 273.5-95T727 350 634.5 95 361 0H82v285H12v130h70v285zm185-540h94q176 0 176 190T361 540h-94V415h125V285H267V160z"/><glyph glyph-name="dcroat" unicode="đ" horiz-adv-x="623" d="M572 638h59V538h-59V0H422v65q-20-34-61.5-57T259-15q-58 0-104 22T82 66t-41 81.5T27 240t14 92.5T82 414t73 59 104 22q91 0 143-54v97H281v100h121v62h170v-62zM305 125q33 0 59 17.5t38 42.5v110q-12 25-38 42.5T305 355q-50 0-76.5-34T202 240t26.5-81 76.5-34z"/><glyph glyph-name="Emacron" unicode="Ē" horiz-adv-x="617" d="M66 700h504V540H251V433h289V274H251V160h325V0H66v700zm92 188h340V758H158v130z"/><glyph glyph-name="emacron" unicode="ē" horiz-adv-x="548" d="M27 240q0 67 24 118.5t63 80 81 42.5 84 14q60 0 107-18t74.5-48 44.5-69.5 16.5-83T513 189H199q27-74 153-74 77 0 138 23V12q-76-27-178-27-123 0-204 67.5T27 240zm331 51q5 24-12.5 52.5T283 372q-36 0-61-22t-25-59h161zM108 668h340V538H108v130z"/><glyph glyph-name="Edotaccent" unicode="Ė" horiz-adv-x="617" d="M66 700h504V540H251V433h289V274H251V160h325V0H66v700zm170 137q0 44 26.5 67t66.5 23 66.5-23 26.5-67q0-45-26.5-67.5T329 747t-66.5 22.5T236 837z"/><glyph glyph-name="edotaccent" unicode="ė" horiz-adv-x="548" d="M27 240q0 67 24 118.5t63 80 81 42.5 84 14q60 0 107-18t74.5-48 44.5-69.5 16.5-83T513 189H199q27-74 153-74 77 0 138 23V12q-76-27-178-27-123 0-204 67.5T27 240zm331 51q5 24-12.5 52.5T283 372q-36 0-61-22t-25-59h161zM186 617q0 44 26.5 67t66.5 23 66.5-23 26.5-67q0-45-26.5-67.5T279 527t-66.5 22.5T186 617z"/><glyph glyph-name="Eogonek" unicode="Ę" horiz-adv-x="617" d="M576 160V0q-62-40-62-82 0-28 31-28 17 0 31 8v-110q-39-23-91-23-58 0-90 30t-31 76q2 75 75 129H66v700h504V540H251V433h289V274H251V160h325z"/><glyph glyph-name="eogonek" unicode="ę" horiz-adv-x="548" d="M477-212q-39-23-91-23-58 0-90 30t-31 76q2 67 64 114h-17q-123 0-204 67.5T27 240q0 67 24 118.5t63 80 81 42.5 84 14q60 0 107-18t74.5-48 44.5-69.5 16.5-83T513 189H199q27-74 153-74 77 0 138 23V12q-75-53-75-94 0-28 31-28 17 0 31 8v-110zM283 372q-36 0-61-22t-25-59h161q5 24-12.5 52.5T283 372z"/><glyph glyph-name="Ecaron" unicode="Ě" horiz-adv-x="617" d="M66 700h504V540H251V433h289V274H251V160h325V0H66v700zm467 220L403 760H253L123 920h155l50-63 50 63h155z"/><glyph glyph-name="ecaron" unicode="ě" horiz-adv-x="548" d="M27 240q0 67 24 118.5t63 80 81 42.5 84 14q60 0 107-18t74.5-48 44.5-69.5 16.5-83T513 189H199q27-74 153-74 77 0 138 23V12q-76-27-178-27-123 0-204 67.5T27 240zm331 51q5 24-12.5 52.5T283 372q-36 0-61-22t-25-59h161zm125 409L353 540H203L73 700h155l50-63 50 63h155z"/><glyph glyph-name="Gbreve" unicode="Ğ" horiz-adv-x="699" d="M32 350q0 94 32.5 166.5t88 114.5T275 694t143 21q113 0 217-44V496q-81 56-193 56-93 0-156.5-50.5T222 350q0-61 20.5-104.5t54-64 65.5-29 67-8.5q28 0 48 5v236h175V32Q539-15 420-15q-77 0-145 22T152 72 64.5 186.5 32 350zm527 435q-68-46-165-46t-165 46v126q69-42 165-42t165 42V785z"/><glyph glyph-name="gbreve" unicode="ğ" horiz-adv-x="623" d="M27 240q0 48 14 92.5T82 414t73 59 104 22q60 0 101.5-23t61.5-57v65h150V20q0-69-23.5-120.5T484-180t-90-41.5T288-235q-114 0-207 45v145q81-50 184-50 137 0 137 105v29q-52-54-143-54-58 0-104 22T82 66t-41 81.5T27 240zm375 55q-12 25-38 42.5T305 355q-50 0-76.5-34T202 240t26.5-81 76.5-34q33 0 59 17.5t38 42.5v110zm41 270q-68-46-165-46t-165 46v126q69-42 165-42t165 42V565z"/><glyph glyph-name="Gdotaccent" unicode="Ġ" horiz-adv-x="699" d="M32 350q0 94 32.5 166.5t88 114.5T275 694t143 21q113 0 217-44V496q-81 56-193 56-93 0-156.5-50.5T222 350q0-61 20.5-104.5t54-64 65.5-29 67-8.5q28 0 48 5v236h175V32Q539-15 420-15q-77 0-145 22T152 72 64.5 186.5 32 350zm270 487q0 44 26.5 67t66.5 23 66.5-23 26.5-67q0-45-26.5-67.5T395 747t-66.5 22.5T302 837z"/><glyph glyph-name="gdotaccent" unicode="ġ" horiz-adv-x="623" d="M27 240q0 48 14 92.5T82 414t73 59 104 22q60 0 101.5-23t61.5-57v65h150V20q0-69-23.5-120.5T484-180t-90-41.5T288-235q-114 0-207 45v145q81-50 184-50 137 0 137 105v29q-52-54-143-54-58 0-104 22T82 66t-41 81.5T27 240zm375 55q-12 25-38 42.5T305 355q-50 0-76.5-34T202 240t26.5-81 76.5-34q33 0 59 17.5t38 42.5v110zM186 617q0 44 26.5 67t66.5 23 66.5-23 26.5-67q0-45-26.5-67.5T279 527t-66.5 22.5T186 617z"/><glyph glyph-name="Gcommaaccent" unicode="Ģ" horiz-adv-x="699" d="M32 350q0 94 32.5 166.5t88 114.5T275 694t143 21q113 0 217-44V496q-81 56-193 56-93 0-156.5-50.5T222 350q0-61 20.5-104.5t54-64 65.5-29 67-8.5q28 0 48 5v236h175V32Q539-15 420-15q-77 0-145 22T152 72 64.5 186.5 32 350zm407-640H304l35 220h155z"/><glyph glyph-name="gcommaaccent" unicode="ģ" horiz-adv-x="623" d="M366 536H226l55 211h120zM27 240q0 48 14 92.5T82 414t73 59 104 22q60 0 101.5-23t61.5-57v65h150V20q0-69-23.5-120.5T484-180t-90-41.5T288-235q-114 0-207 45v145q81-50 184-50 137 0 137 105v29q-52-54-143-54-58 0-104 22T82 66t-41 81.5T27 240zm375 55q-12 25-38 42.5T305 355q-50 0-76.5-34T202 240t26.5-81 76.5-34q33 0 59 17.5t38 42.5v110z"/><glyph glyph-name="Hbar" unicode="Ħ" horiz-adv-x="780" d="M260 0H75v495H10v110h65v95h185v-95h260v95h185v-95h65V495h-65V0H520v277H260V0zm0 495v-73h260v73H260z"/><glyph glyph-name="hbar" unicode="ħ" d="M221 444q57 51 133 51 94 0 143-55.5T546 298V0H376v275q0 37-20 56t-53 19q-49 0-82-42V0H51v538H2v100h49v62h170v-62h121V538H221v-94z"/><glyph glyph-name="Imacron" unicode="Ī" horiz-adv-x="317" d="M66 700h185V0H66v700zm-77 188h340V758H-11v130z"/><glyph glyph-name="imacron" unicode="ī" horiz-adv-x="274" d="M7 668h260V558H7v110zm45-188h170V0H52v480z"/><glyph glyph-name="Iogonek" unicode="Į" horiz-adv-x="317" d="M251 700V0q-62-40-62-82 0-28 31-28 17 0 31 8v-110q-39-23-91-23-58 0-90 30t-31 76q2 75 75 129H66v700h185z"/><glyph glyph-name="iogonek" unicode="į" horiz-adv-x="274" d="M234 642q0-47-27.5-70.5T137 548t-69.5 23.5T40 642q0 46 28 69.5t69 23.5q42 0 69.5-23.5T234 642zM85 0H52v480h170V0q-62-40-62-82 0-28 31-28 17 0 31 8v-110q-39-23-91-23-58 0-89.5 30T10-129Q10-56 85 0z"/><glyph glyph-name="Idotaccent" unicode="İ" horiz-adv-x="317" d="M66 700h185V0H66v700zm1 137q0 44 26.5 67t66.5 23 66.5-23 26.5-67q0-45-26.5-67.5T160 747t-66.5 22.5T67 837z"/><glyph glyph-name="dotlessi" unicode="ı" horiz-adv-x="274" d="M52 480h170V0H52v480z"/><glyph glyph-name="IJ" unicode="Ĳ" horiz-adv-x="835" d="M66 700h185V0H66v700zm348 0h360V218q0-63-21-109.5T695 36 612.5-2.5 513-15q-90 0-181 33v170q61-33 134-33 123 0 123 88v292H414v165z"/><glyph glyph-name="ij" unicode="ĳ" horiz-adv-x="548" d="M222 0H52v480h170V0zm12 642q0-47-27.5-70.5T137 548t-69.5 23.5T40 642q0 46 28 69.5t69 23.5q42 0 69.5-23.5T234 642zM496-57q0-92-51.5-135T311-235q-57 0-92 15v142q24-8 49-8 26 0 42 15.5T326-25v505h170V-57zm12 699q0-47-27.5-70.5T411 548t-69.5 23.5T314 642q0 46 28 69.5t69 23.5q42 0 69.5-23.5T508 642z"/><glyph glyph-name="Kcommaaccent" unicode="Ķ" horiz-adv-x="706" d="M251 0H66v700h185V435h88l159 265h205L483 359 713 0H508L338 270h-87V0zm143-280H259l35 220h155z"/><glyph glyph-name="kcommaaccent" unicode="ķ" horiz-adv-x="561" d="M564 0H375L257 182h-36V0H51v700h170V312h38l105 168h190L398 244zM324-280H189l35 220h155z"/><glyph glyph-name="Lacute" unicode="Ĺ" horiz-adv-x="584" d="M66 700h185V165h320V0H66v700zm148 60H54l90 150h180z"/><glyph glyph-name="lacute" unicode="ĺ" horiz-adv-x="274" d="M52 730h170V0H52v730zm147 50H39l90 150h180z"/><glyph glyph-name="Lcommaaccent" unicode="Ļ" horiz-adv-x="584" d="M66 700h185V165h320V0H66v700zm280-980H211l35 220h155z"/><glyph glyph-name="lcommaaccent" unicode="ļ" horiz-adv-x="274" d="M52 730h170V0H52v730zM167-280H32L67-60h155z"/><glyph glyph-name="Lcaron" unicode="Ľ" horiz-adv-x="585" d="M379 700h140l-35-211H364zm-313 0h185V165h320V0H66v700z"/><glyph glyph-name="lcaron" unicode="ľ" horiz-adv-x="274" d="M278 730h140l-35-211H263zm-226 0h170V0H52v730z"/><glyph glyph-name="Ldot" unicode="Ŀ" horiz-adv-x="593" d="M505 408q0-45-26.5-67.5T412 318t-66.5 22.5T319 408q0 44 26.5 67t66.5 23 66.5-23 26.5-67zM66 700h185V165h320V0H66v700z"/><glyph glyph-name="ldot" unicode="ŀ" horiz-adv-x="454" d="M52 730h170V0H52v730zm414-380q0-49-29-74t-73-25-73 25-29 74q0 48 29 73t73 25 73-25 29-73z"/><glyph glyph-name="Lslash" unicode="Ł" horiz-adv-x="620" d="M607 0H102v235l-80-30v150l80 30v315h185V453l155 57V360l-155-57V165h320V0z"/><glyph glyph-name="lslash" unicode="ł" horiz-adv-x="378" d="M102 730h170V451l75 29V350l-75-29V0H102v254l-75-29v130l75 29v346z"/><glyph glyph-name="Nacute" unicode="Ń" horiz-adv-x="762" d="M251 0H66v700h175l274-402q-4 44-4 116v286h185V0H521L247 401q4-44 4-115V0zm190 760H281l90 150h180z"/><glyph glyph-name="nacute" unicode="ń" d="M201 425q65 70 153 70 94 0 143-55.5T546 298V0H376v275q0 37-20 56t-53 19q-49 0-82-42V0H51v480h150v-55zm145 115H186l90 150h180z"/><glyph glyph-name="Ncommaaccent" unicode="Ņ" horiz-adv-x="762" d="M251 0H66v700h175l274-402q-4 44-4 116v286h185V0H521L247 401q4-44 4-115V0zm175-280H291l35 220h155z"/><glyph glyph-name="ncommaaccent" unicode="ņ" d="M201 425q65 70 153 70 94 0 143-55.5T546 298V0H376v275q0 37-20 56t-53 19q-49 0-82-42V0H51v480h150v-55zm128-705H194l35 220h155z"/><glyph glyph-name="Ncaron" unicode="Ň" horiz-adv-x="762" d="M251 0H66v700h175l274-402q-4 44-4 116v286h185V0H521L247 401q4-44 4-115V0zm335 920L456 760H306L176 920h155l50-63 50 63h155z"/><glyph glyph-name="ncaron" unicode="ň" d="M201 425q65 70 153 70 94 0 143-55.5T546 298V0H376v275q0 37-20 56t-53 19q-49 0-82-42V0H51v480h150v-55zm290 275L361 540H211L81 700h155l50-63 50 63h155z"/><glyph glyph-name="Eng" unicode="Ŋ" horiz-adv-x="762" d="M696-25q0-98-50-152t-137-54q-34 0-78 11v150q11-3 23-3 57 0 57 63v25L247 401q4-44 4-115V0H66v700h175l274-402q-4 44-4 116v286h185V-25z"/><glyph glyph-name="eng" unicode="ŋ" d="M546-67q0-89-51.5-128.5T372-235q-50 0-83 15v130q13-4 32-4 55 0 55 59v310q0 37-20 56t-53 19q-49 0-82-42V0H51v480h150v-55q65 70 153 70 94 0 143-55.5T546 298V-67z"/><glyph glyph-name="Omacron" unicode="Ō" horiz-adv-x="812" d="M31 350q0 155 98 260t277 105 277-105 98-260-98-260T406-15 129 90 31 350zm560 0q0 87-48.5 141T406 545t-136.5-54T221 350t48.5-141T406 155t136.5 54T591 350zM236 888h340V758H236v130z"/><glyph glyph-name="omacron" unicode="ō" horiz-adv-x="594" d="M27 240q0 122 77.5 188.5T297 495t192.5-66.5T567 240 489.5 51.5 297-15 104.5 51.5 27 240zm365 0q0 45-23 75t-72 30-72-30-23-75 23-75 72-30 72 30 23 75zM128 658h340V528H128v130z"/><glyph glyph-name="Ohungarumlaut" unicode="Ő" horiz-adv-x="812" d="M31 350q0 155 98 260t277 105 277-105 98-260-98-260T406-15 129 90 31 350zm560 0q0 87-48.5 141T406 545t-136.5-54T221 350t48.5-141T406 155t136.5 54T591 350zm-25 420H416l74 157h160zm-195 0H221l74 157h160z"/><glyph glyph-name="ohungarumlaut" unicode="ő" horiz-adv-x="594" d="M27 240q0 122 77.5 188.5T297 495t192.5-66.5T567 240 489.5 51.5 297-15 104.5 51.5 27 240zm365 0q0 45-23 75t-72 30-72-30-23-75 23-75 72-30 72 30 23 75zm66 300H308l74 157h160zm-195 0H113l74 157h160z"/><glyph glyph-name="OE" unicode="Œ" horiz-adv-x="1053" d="M527 0q-54-15-121-15-179 0-277 105T31 350t98 260 277 105q67 0 121-15h479V540H707V433h269V274H707V160h305V0H527zM221 350q0-92 56-146t140-54q53 0 110 23v354q-57 23-110 23-84 0-140-54t-56-146z"/><glyph glyph-name="oe" unicode="œ" horiz-adv-x="913" d="M472 73q-60-88-194-88-104 0-177.5 67T27 240t73 188 177 67q134 0 194-87 66 87 183 87 57 0 102-18.5t71.5-49 43-70 16-82.5-8.5-86H564q27-74 154-74 77 0 138 23V12q-76-27-178-27-139 0-206 88zM202 240q0-45 23-75t72-30 72 30 23 75-23 75-72 30-72-30-23-75zm446 130q-36 0-61-22t-25-59h161q5 24-12.5 52.5T648 370z"/><glyph glyph-name="Racute" unicode="Ŕ" horiz-adv-x="711" d="M251 0H66v700h295q57 0 105.5-11.5t91-37T624 578t24-114q0-156-134-210L707 0H498L331 228h-80V0zm0 540V378h118q41 0 65 21t24 60-24 60-65 21H251zm150 220H241l90 150h180z"/><glyph glyph-name="racute" unicode="ŕ" horiz-adv-x="404" d="M201 415q61 89 188 75V325q-51 11-98.5-3.5T221 273V0H51v480h150v-65zm75 125H116l90 150h180z"/><glyph glyph-name="Rcommaaccent" unicode="Ŗ" horiz-adv-x="711" d="M251 0H66v700h295q57 0 105.5-11.5t91-37T624 578t24-114q0-156-134-210L707 0H498L331 228h-80V0zm0 540V378h118q41 0 65 21t24 60-24 60-65 21H251zm141-820H257l35 220h155z"/><glyph glyph-name="rcommaaccent" unicode="ŗ" horiz-adv-x="404" d="M201 415q61 89 188 75V325q-51 11-98.5-3.5T221 273V0H51v480h150v-65zm-37-695H29L64-60h155z"/><glyph glyph-name="Rcaron" unicode="Ř" horiz-adv-x="711" d="M251 0H66v700h295q57 0 105.5-11.5t91-37T624 578t24-114q0-156-134-210L707 0H498L331 228h-80V0zm0 540V378h118q41 0 65 21t24 60-24 60-65 21H251zm295 380L416 760H266L136 920h155l50-63 50 63h155z"/><glyph glyph-name="rcaron" unicode="ř" horiz-adv-x="404" d="M201 415q61 89 188 75V325q-51 11-98.5-3.5T221 273V0H51v480h150v-65zm220 285L291 540H141L11 700h155l50-63 50 63h155z"/><glyph glyph-name="Sacute" unicode="Ś" horiz-adv-x="621" d="M41 509q0 100 74.5 153T305 715q137 0 235-56V489q-90 68-220 66-89-1-89-45 0-21 27-37.5t67.5-28 87.5-31 87.5-43.5 67.5-68.5T595 199q0-214-280-214-153 0-269 64v175q115-79 255-79 56 0 80 10.5t24 36.5q0 27-37.5 47t-91 37.5-107 41.5-91 73T41 509zm320 251H201l90 150h180z"/><glyph glyph-name="sacute" unicode="ś" horiz-adv-x="486" d="M34 342q0 81 59 117t150 36q94 0 181-41V319q-32 22-79.5 36.5T255 370q-46 0-46-24 0-18 26-29.5t63-21.5 74-24.5 63-47.5 26-83q0-155-229-155-116 0-193 44v135q77-51 184-51 63 0 63 24 0 17-26 28.5T197 187t-74 25.5T60 261t-26 81zm269 198H143l90 150h180z"/><glyph glyph-name="Scedilla" unicode="Ş" horiz-adv-x="621" d="M231 510q0-21 27-37.5t67.5-28 87.5-31 87.5-43.5 67.5-68.5T595 199Q595 7 373-12l-9-31q88-14 88-92 0-35-25-58.5T370-226t-68-9q-61 0-105 19v95q30-18 76-18 56 0 56 28 0 33-86 26l18 72Q138-2 46 49v175q115-79 255-79 56 0 80 10.5t24 36.5q0 27-37.5 47t-91 37.5-107 41.5-91 73T41 509q0 100 74.5 153T305 715q137 0 235-56V489q-90 68-220 66-89-1-89-45z"/><glyph glyph-name="scedilla" unicode="ş" horiz-adv-x="486" d="M209 346q0-18 26-29.5t63-21.5 74-24.5 63-47.5 26-83Q461 17 315-8l-10-35q88-14 88-92 0-35-25-58.5T311-226t-68-9q-61 0-105 19v95q30-18 76-18 56 0 56 28 0 33-86 26l18 71Q107-9 39 29v135q77-51 184-51 63 0 63 24 0 17-26 28.5T197 187t-74 25.5T60 261t-26 81q0 81 59 117t150 36q94 0 181-41V319q-32 22-79.5 36.5T255 370q-46 0-46-24z"/><glyph glyph-name="Scaron" unicode="Š" horiz-adv-x="621" d="M41 509q0 100 74.5 153T305 715q137 0 235-56V489q-90 68-220 66-89-1-89-45 0-21 27-37.5t67.5-28 87.5-31 87.5-43.5 67.5-68.5T595 199q0-214-280-214-153 0-269 64v175q115-79 255-79 56 0 80 10.5t24 36.5q0 27-37.5 47t-91 37.5-107 41.5-91 73T41 509zm465 411L376 760H226L96 920h155l50-63 50 63h155z"/><glyph glyph-name="scaron" unicode="š" horiz-adv-x="486" d="M34 342q0 81 59 117t150 36q94 0 181-41V319q-32 22-79.5 36.5T255 370q-46 0-46-24 0-18 26-29.5t63-21.5 74-24.5 63-47.5 26-83q0-155-229-155-116 0-193 44v135q77-51 184-51 63 0 63 24 0 17-26 28.5T197 187t-74 25.5T60 261t-26 81zm414 358L318 540H168L38 700h155l50-63 50 63h155z"/><glyph glyph-name="Tcommaaccent" unicode="Ţ" horiz-adv-x="606" d="M13 700h580V535H396V0H211v535H13v165zm322-980H200l35 220h155z"/><glyph glyph-name="tcommaaccent" unicode="ţ" horiz-adv-x="422" d="M89 615l170 40V480h130V340H259V184q0-59 63-59 42 0 77 12V5q-58-20-130-20-79 0-129.5 38.5T89 150v190H13v140h76v135zm192-895H146l35 220h155z"/><glyph glyph-name="Tcaron" unicode="Ť" horiz-adv-x="606" d="M13 700h580V535H396V0H211v535H13v165zm495 220L378 760H228L98 920h155l50-63 50 63h155z"/><glyph glyph-name="tcaron" unicode="ť" horiz-adv-x="422" d="M335 750h140l-35-211H320zM89 615l170 40V480h130V340H259V184q0-59 63-59 42 0 77 12V5q-58-20-130-20-79 0-129.5 38.5T89 150v190H13v140h76v135z"/><glyph glyph-name="Tbar" unicode="Ŧ" horiz-adv-x="620" d="M403 0H218v265H100v120h118v150H20v165h580V535H403V385h117V265H403V0z"/><glyph glyph-name="tbar" unicode="ŧ" horiz-adv-x="423" d="M260 182q0-59 63-59 42 0 77 12V5q-71-20-130-20-79 0-129.5 38.5T90 150v52H34v90h56v58H14v130h76v135l170 40V480h130V350H260v-58h104v-90H260v-20z"/><glyph glyph-name="Umacron" unicode="Ū" horiz-adv-x="748" d="M504 700h185V267q0-76-27-132.5t-73-88T489 0 374-15 259 0 159 46.5t-73 88T59 267v433h185V277q0-127 130-127t130 127v423zM204 888h340V758H204v130z"/><glyph glyph-name="umacron" unicode="ū" d="M371 480h170V0H391v55q-65-70-153-70-94 0-143 55.5T46 182v298h170V205q0-37 20-56t53-19q49 0 82 42v308zM126 668h340V538H126v130z"/><glyph glyph-name="Uring" unicode="Ů" horiz-adv-x="748" d="M504 700h185V267q0-76-27-132.5t-73-88T489 0 374-15 259 0 159 46.5t-73 88T59 267v433h185V277q0-127 130-127t130 127v423zm0 156q0-58-37.5-92T374 730q-54 0-92 34t-38 92q0 56 38 90t92 34q55 0 92.5-33.5T504 856zm-165 0q0-16 9.5-26.5T374 819t25.5 10.5T409 856q0 15-9.5 25T374 891t-25.5-10-9.5-25z"/><glyph glyph-name="uring" unicode="ů" d="M371 480h170V0H391v55q-65-70-153-70-94 0-143 55.5T46 182v298h170V205q0-37 20-56t53-19q49 0 82 42v308zm55 156q0-58-37.5-92T296 510q-54 0-92 34t-38 92q0 56 38 90t92 34q55 0 92.5-33.5T426 636zm-165 0q0-16 9.5-26.5T296 599t25.5 10.5T331 636q0 15-9.5 25T296 671t-25.5-10-9.5-25z"/><glyph glyph-name="Uhungarumlaut" unicode="Ű" horiz-adv-x="748" d="M504 700h185V267q0-76-27-132.5t-73-88T489 0 374-15 259 0 159 46.5t-73 88T59 267v433h185V277q0-127 130-127t130 127v423zm30 70H384l74 157h160zm-195 0H189l74 157h160z"/><glyph glyph-name="uhungarumlaut" unicode="ű" d="M371 480h170V0H391v55q-65-70-153-70-94 0-143 55.5T46 182v298h170V205q0-37 20-56t53-19q49 0 82 42v308zm85 70H306l74 157h160zm-195 0H111l74 157h160z"/><glyph glyph-name="Uogonek" unicode="Ų" horiz-adv-x="748" d="M570-212q-39-23-91-23-58 0-90 30t-31 76q2 59 51 115-11-1-35-1-61 0-115 15T159 46.5t-73 88T59 267v433h185V277q0-127 130-127t130 127v423h185V267q0-139-89-212-92-76-92-137 0-28 31-28 17 0 31 8v-110z"/><glyph glyph-name="uogonek" unicode="ų" d="M541 480V0q-62-40-62-82 0-28 31-28 18 0 31 6v-114q-38-17-91-17-58 0-90 30t-31 76q2 75 75 129h-13v55q-65-70-153-70-94 0-143 55.5T46 182v298h170V205q0-37 20-56t53-19q49 0 82 42v308h170z"/><glyph glyph-name="Wcircumflex" unicode="Ŵ" horiz-adv-x="1078" d="M872 700h200L858 0H658L539 433 420 0H220L6 700h200l119-492 133 492h162l133-492zM464 910h150l120-160H579l-40 53-40-53H344z"/><glyph glyph-name="wcircumflex" unicode="ŵ" horiz-adv-x="828" d="M637 480h182L670 0H490l-76 281L338 0H158L9 480h182l68-295 73 295h164l73-295zM337 690h150l120-160H452l-40 53-40-53H217z"/><glyph glyph-name="Ycircumflex" unicode="Ŷ" horiz-adv-x="728" d="M456 0H272v239L-1 700h210l155-289 155 289h210L456 239V0zM287 910h150l120-160H402l-40 53-40-53H167z"/><glyph glyph-name="ycircumflex" unicode="ŷ" horiz-adv-x="577" d="M297 194l98 286h175L369-50q-70-183-220-183-36 0-88 13v140q34-8 65-8 66 0 100 76L0 480h180zm-91 496h150l120-160H321l-40 53-40-53H86z"/><glyph glyph-name="Ydieresis" unicode="Ÿ" horiz-adv-x="728" d="M456 0H272v239L-1 700h210l155-289 155 289h210L456 239V0zm101 831q0-35-25-60t-60-25-60 25-25 60 25 60 60 25 60-25 25-60zm-220 0q0-35-25-60t-60-25-60 25-25 60 25 60 60 25 60-25 25-60z"/><glyph glyph-name="Zacute" unicode="Ź" horiz-adv-x="627" d="M593 0H30v125l304 410H48v165h536V575L279 165h314V0zM378 760H218l90 150h180z"/><glyph glyph-name="zacute" unicode="ź" horiz-adv-x="492" d="M43 480h405V380L254 140h208V0H29v100l195 240H43v140zm271 60H154l90 150h180z"/><glyph glyph-name="Zdotaccent" unicode="Ż" horiz-adv-x="627" d="M593 0H30v125l304 410H48v165h536V575L279 165h314V0zM226 837q0 44 26.5 67t66.5 23 66.5-23 26.5-67q0-45-26.5-67.5T319 747t-66.5 22.5T226 837z"/><glyph glyph-name="zdotaccent" unicode="ż" horiz-adv-x="492" d="M43 480h405V380L254 140h208V0H29v100l195 240H43v140zm119 137q0 44 26.5 67t66.5 23 66.5-23 26.5-67q0-45-26.5-67.5T255 527t-66.5 22.5T162 617z"/><glyph glyph-name="Zcaron" unicode="Ž" horiz-adv-x="627" d="M593 0H30v125l304 410H48v165h536V575L279 165h314V0zm-70 920L393 760H243L113 920h155l50-63 50 63h155z"/><glyph glyph-name="zcaron" unicode="ž" horiz-adv-x="492" d="M43 480h405V380L254 140h208V0H29v100l195 240H43v140zm416 220L329 540H179L49 700h155l50-63 50 63h155z"/><glyph glyph-name="Scommaaccent" unicode="Ș" horiz-adv-x="621" d="M41 509q0 100 74.5 153T305 715q137 0 235-56V489q-90 68-220 66-89-1-89-45 0-21 27-37.5t67.5-28 87.5-31 87.5-43.5 67.5-68.5T595 199q0-214-280-214-153 0-269 64v175q115-79 255-79 56 0 80 10.5t24 36.5q0 27-37.5 47t-91 37.5-107 41.5-91 73T41 509zm305-789H211l35 220h155z"/><glyph glyph-name="scommaaccent" unicode="ș" horiz-adv-x="486" d="M34 342q0 81 59 117t150 36q94 0 181-41V319q-32 22-79.5 36.5T255 370q-46 0-46-24 0-18 26-29.5t63-21.5 74-24.5 63-47.5 26-83q0-155-229-155-116 0-193 44v135q77-51 184-51 63 0 63 24 0 17-26 28.5T197 187t-74 25.5T60 261t-26 81zm248-622H147l35 220h155z"/><glyph glyph-name="uni021A" unicode="Ț" horiz-adv-x="606" d="M13 700h580V535H396V0H211v535H13v165zm322-980H200l35 220h155z"/><glyph glyph-name="uni021B" unicode="ț" horiz-adv-x="422" d="M89 615l170 40V480h130V340H259V184q0-59 63-59 42 0 77 12V5q-58-20-130-20-79 0-129.5 38.5T89 150v190H13v140h76v135zm192-895H146l35 220h155z"/><glyph glyph-name="circumflex" unicode="ˆ" horiz-adv-x="390" d="M120 910h150l120-160H235l-40 53-40-53H0z"/><glyph glyph-name="caron" unicode="ˇ" horiz-adv-x="390" d="M400 920L270 760H120L-10 920h155l50-63 50 63h155z"/><glyph glyph-name="breve" unicode="˘" horiz-adv-x="370" d="M350 780q-68-46-165-46T20 780v126q69-42 165-42t165 42V780z"/><glyph glyph-name="dotaccent" unicode="˙" horiz-adv-x="180" d="M-2 842q0 44 26.5 67T91 932t66.5-23 26.5-67q0-45-26.5-67.5T91 752t-66.5 22.5T-2 842z"/><glyph glyph-name="ring" unicode="˚" horiz-adv-x="260" d="M260 856q0-58-37.5-92T130 730q-54 0-92 34T0 856q0 56 38 90t92 34q55 0 92.5-33.5T260 856zm-165 0q0-16 9.5-26.5T130 819t25.5 10.5T165 856q0 15-9.5 25T130 891t-25.5-10-9.5-25z"/><glyph glyph-name="ogonek" unicode="˛" horiz-adv-x="230" d="M78 0h137q-62-40-62-82 0-28 31-28 17 0 31 8v-110q-39-23-91-23-58 0-90 30T3-129Q5-54 78 0z"/><glyph glyph-name="tilde" unicode="˜" horiz-adv-x="427" d="M401 894q18-66-11.5-111.5T301 737q-38 0-82.5 21T162 779q-17 0-21-14.5t1-21.5H27Q9 809 38.5 854.5T127 900q38 0 82.5-21t56.5-21q17 0 21 14t-1 22h115z"/><glyph glyph-name="hungarumlaut" unicode="˝" horiz-adv-x="460" d="M385 770H235l74 157h160zm-195 0H40l74 157h160z"/><glyph glyph-name="uni0326" unicode="̦" horiz-adv-x="168" d="M157-280H22L57-60h155z"/><glyph glyph-name="uni0401" unicode="Ё" horiz-adv-x="617" d="M523 831q0-35-25-60t-60-25-60 25-25 60 25 60 60 25 60-25 25-60zm-220 0q0-35-25-60t-60-25-60 25-25 60 25 60 60 25 60-25 25-60zM66 700h504V540H251V433h289V274H251V160h325V0H66v700z"/><glyph glyph-name="uni0410" unicode="А" horiz-adv-x="752" d="M191 0H1l275 700h200L751 0H561l-40 110H231zm167 462l-72-202h180l-72 202q-12 34-18 71-6-37-18-71z"/><glyph glyph-name="uni0411" unicode="Б" horiz-adv-x="680" d="M251 452h138q56 0 102-11t84.5-36 59.5-70.5T656 226t-21-108.5T575.5 47 491 11 389 0H66v700h531V535H251v-83zm0-292h136q79 0 79 66t-79 66H251V160z"/><glyph glyph-name="uni0412" unicode="В" horiz-adv-x="684" d="M66 700h316q118 0 181.5-44T627 523q0-115-104-152 132-39 132-173 0-57-25-97.5T561.5 39t-90-30T370 0H66v700zm403-482q0 73-93 73H250V145h126q93 0 93 73zm-27 272q0 30-20.5 47.5T365 555H251V426l114-1q36 0 56.5 17.5T442 490z"/><glyph glyph-name="uni0413" unicode="Г" horiz-adv-x="582" d="M251 0H66v700h505V535H251V0z"/><glyph glyph-name="uni0414" unicode="Д" horiz-adv-x="829" d="M181-145H21v305h80q110 196 110 540h500V160h90v-305H641V0H181v-145zm200 680q-18-251-85-375h230v375H381z"/><glyph glyph-name="uni0415" unicode="Е" horiz-adv-x="617" d="M66 700h504V540H251V433h289V274H251V160h325V0H66v700z"/><glyph glyph-name="uni0416" unicode="Ж" horiz-adv-x="1013" d="M207 0H2l200 359L12 700h205l136-265h61v265h185V435h61l136 265h205L811 359 1011 0H806L659 270h-60V0H414v270h-60z"/><glyph glyph-name="uni0417" unicode="З" horiz-adv-x="629" d="M597 191q0-57-25.5-99t-69-64T409-4.5 302-15Q170-15 37 31v175q118-58 250-56 124 0 124 70 0 59-93 59H152l1 160 154-1q77 0 77 51 0 61-115 61-102 2-220-56v175q113 46 235 46 133 0 209-49t76-145q0-111-110-149 63-19 100.5-64.5T597 191z"/><glyph glyph-name="uni0418" unicode="И" horiz-adv-x="762" d="M696 0H511v286q0 71 4 115L241 0H66v700h185V414q0-72-4-116l274 402h175V0z"/><glyph glyph-name="uni0419" unicode="Й" horiz-adv-x="762" d="M511 0h185v700H521L247 298q4 44 4 116v286H66V0h175l274 401q-4-44-4-115V0zm35 785q-68-46-165-46t-165 46v126q69-42 165-42t165 42V785z"/><glyph glyph-name="uni041A" unicode="К" horiz-adv-x="706" d="M251 0H66v700h185V435h88l159 265h205L483 359 713 0H508L338 270h-87V0z"/><glyph glyph-name="uni041B" unicode="Л" horiz-adv-x="754" d="M183 700h505V0H503v535H352q-6-83-13-141t-19-126.5-30-113T245.5 70 181 10.5 94-9Q51-9 8 5v161q22-7 48-4 23 2 41.5 21t30.5 55 20.5 73 14 93 8 97.5 6.5 104 6 94.5z"/><glyph glyph-name="uni041C" unicode="М" horiz-adv-x="908" d="M667 700h175V0H657v372L507 142H401L251 373V0H66v700h175l213-328z"/><glyph glyph-name="uni041D" unicode="Н" horiz-adv-x="762" d="M511 700h185V0H511v267H251V0H66v700h185V432h260v268z"/><glyph glyph-name="uni041E" unicode="О" horiz-adv-x="812" d="M31 350q0 155 98 260t277 105 277-105 98-260-98-260T406-15 129 90 31 350zm560 0q0 87-48.5 141T406 545t-136.5-54T221 350t48.5-141T406 155t136.5 54T591 350z"/><glyph glyph-name="uni041F" unicode="П" horiz-adv-x="762" d="M251 0H66v700h630V0H511v535H251V0z"/><glyph glyph-name="uni0420" unicode="Р" horiz-adv-x="670" d="M66 700h277q305 0 305-240 0-238-305-240h-92V0H66v700zm392-240q0 80-106 80H251V380h101q106 0 106 80z"/><glyph glyph-name="uni0421" unicode="С" horiz-adv-x="655" d="M32 340q0 95 32 169t87 118 121 66 139 22q110 0 203-44V496q-68 57-171 57-92 0-156.5-53.5T222 340q0-95 64-143.5T441 148q115 0 178 61V29q-93-44-204-44-75 0-141.5 21T152 68.5 64.5 180 32 340z"/><glyph glyph-name="uni0422" unicode="Т" horiz-adv-x="606" d="M13 700h580V535H396V0H211v535H13v165z"/><glyph glyph-name="uni0423" unicode="У" horiz-adv-x="685" d="M435 160Q390 64 333 24.5T200-15Q154-15 88 4v153q37-14 81-14 70 0 91 48l11 24L-2 700h205l154-319 126 319h205z"/><glyph glyph-name="uni0424" unicode="Ф" horiz-adv-x="884" d="M532-40H357v86q-157 8-248.5 88T17 350t91.5 216T357 654v86h175v-86q155-10 245-89.5T867 350t-90-214.5T532 46v-86zM202 350q0-59 35-102t120-51v306q-85-8-120-51t-35-102zm330 153V197q82 10 116 52.5T682 350t-34 100.5T532 503z"/><glyph glyph-name="uni0425" unicode="Х" horiz-adv-x="694" d="M205 0H-11l240 364L4 700h216l127-206 127 206h216L465 364 705 0H489L347 235z"/><glyph glyph-name="uni0426" unicode="Ц" horiz-adv-x="814" d="M786-145H626V0H66v700h185V165h260v535h185V165h90v-310z"/><glyph glyph-name="uni0427" unicode="Ч" horiz-adv-x="703" d="M637 0H452v238q-87-26-162-26-118 0-186.5 61.5T35 454v246h185V464q0-41 32.5-63t84.5-22q57 0 115 24v297h185V0z"/><glyph glyph-name="uni0428" unicode="Ш" horiz-adv-x="1047" d="M981 0H66v700h185V165h180v535h185V165h180v535h185V0z"/><glyph glyph-name="uni0429" unicode="Щ" horiz-adv-x="1099" d="M1071-145H911V0H66v700h185V165h180v535h185V165h180v535h185V165h90v-310z"/><glyph glyph-name="uni042A" unicode="Ъ" horiz-adv-x="778" d="M452 0H175v535H15v165h345V480h92q305-2 305-240Q757 0 452 0zm-92 320V160h101q106 0 106 80t-106 80H360z"/><glyph glyph-name="uni042B" unicode="Ы" horiz-adv-x="944" d="M343 0H66v700h185V480h92q305-2 305-240Q648 0 343 0zm-92 320V160h101q106 0 106 80t-106 80H251zM878 0H693v700h185V0z"/><glyph glyph-name="uni042C" unicode="Ь" horiz-adv-x="669" d="M343 0H66v700h185V480h92q305-2 305-240Q648 0 343 0zm-92 320V160h101q106 0 106 80t-106 80H251z"/><glyph glyph-name="uni042D" unicode="Э" horiz-adv-x="657" d="M43 671q93 44 203 44 73 0 139-22t121-66 87-118 32-169q0-90-32.5-160T505 68.5 383.5 6 242-15Q136-15 43 29v180q62-59 171-59 57 0 99 9t77.5 37.5T438 273H148v155h287q-20 69-75 95t-142 27q-110 0-175-54v175z"/><glyph glyph-name="uni042E" unicode="Ю" horiz-adv-x="1112" d="M1081 350q0-155-98-260T706-15q-151 0-244 80T347 268h-96V0H66v700h185V433h96q22 122 115 202t244 80q179 0 277-105t98-260zm-560 0q0-87 48.5-141T706 155t136.5 54T891 350t-48.5 141T706 545t-136.5-54T521 350z"/><glyph glyph-name="uni042F" unicode="Я" horiz-adv-x="701" d="M220 0H9l189 253Q53 307 53 459q0 123 81 182t206 59h295V0H450v228h-65zm23 459q0-81 99-81h108v162H342q-99 0-99-81z"/><glyph glyph-name="uni0430" unicode="а" horiz-adv-x="576" d="M505 137q0-30 33-30 10 0 19 3V5q-38-15-86-15-80 0-114 53-74-58-167-58-71 0-119 40T23 133q0 43 19 75.5T92.5 258t66 25 72.5 8q54 0 104-11v17q0 27-25.5 43.5T235 357q-76 0-168-37v143q98 32 187 32 123 0 187-51t64-173V137zm-307 10q0-20 16-33.5t42-13.5q45 0 79 25v65q-27 9-61 9-76 0-76-52z"/><glyph glyph-name="uni0431" unicode="б" horiz-adv-x="583" d="M554 215q0-111-73-170.5T294-15q-115 0-187.5 70.5T34 280q0 232 147 324 58 36 128.5 51t123 24.5T512 715V565q-34-31-113.5-40.5T283 497q-34-17-54-52t-20-67q54 67 145 67 89 0 144.5-60.5T554 215zm-345 0q0-16 3-30.5t11-31.5 26.5-27.5T294 115t44.5 10.5T365 153t11 31.5 3 30.5-3 30.5-11 31.5-26.5 27.5T294 315t-44.5-10.5T223 277t-11-31.5-3-30.5z"/><glyph glyph-name="uni0432" unicode="в" horiz-adv-x="551" d="M357 0H51v480h298q88 0 125.5-37.5T512 355q0-83-78-113 88-28 88-114 0-55-38-91.5T357 0zM222 194v-86h78q52 0 52 42 0 44-53 44h-77zm-1 178v-86h69q52 0 52 42 0 44-53 44h-68z"/><glyph glyph-name="uni0433" unicode="г" horiz-adv-x="439" d="M221 0H51v480h374V340H221V0z"/><glyph glyph-name="uni0434" unicode="д" horiz-adv-x="661" d="M173-125H18v250h69q70 121 63 355h415V125h73v-250H483V0H173v-125zm132 480q-4-142-44-230h134v230h-90z"/><glyph glyph-name="uni0435" unicode="е" horiz-adv-x="547" d="M27 240q0 67 24 118.5t63 80 81 42.5 84 14q60 0 107-18t74.5-48 44.5-69.5 16.5-83T513 189H199q27-74 153-74 77 0 138 23V12q-76-27-178-27-123 0-204 67.5T27 240zm331 51q5 24-12.5 52.5T283 372q-36 0-61-22t-25-59h161z"/><glyph glyph-name="uni0436" unicode="ж" horiz-adv-x="806" d="M806 0H626l-96 167h-42V0H318v167h-42L180 0H0l152 241L10 480h180l97-183h31v183h170V297h31l97 183h180L654 241z"/><glyph glyph-name="uni0437" unicode="з" horiz-adv-x="493" d="M464 135q0-59-60.5-104T217-14Q104-14 31 27v130q28-16 75-29t89-13q94 0 94 42 0 22-21.5 28.5T204 192h-80v102h80q75 0 75 35 0 38-74 38-39 0-88-13t-76-29v130q73 41 186 41 65 0 112-13.5t70.5-36 34-46T454 351q0-40-22-66.5T377 247q87-27 87-112z"/><glyph glyph-name="uni0438" unicode="и" d="M200 0H51v480h170V253l171 227h149V0H371v227z"/><glyph glyph-name="uni0439" unicode="й" d="M456 568q-70-39-160-39t-160 39v122q67-35 160-35 92 0 160 35V568zM200 0H51v480h170V253l171 227h149V0H371v227z"/><glyph glyph-name="uni043A" unicode="к" horiz-adv-x="562" d="M221 0H51v480h170V312h38l105 168h190L398 244 564 0H375L257 182h-36V0z"/><glyph glyph-name="uni043B" unicode="л" horiz-adv-x="590" d="M284 350q-5-81-15.5-141.5t-31-113-56-79.5T97-11Q58-11 11 5v135q15-6 27-6 18 0 31 11.5T91.5 182t15.5 51.5 10.5 72 6.5 81 5 93.5h410V0H369v350h-85z"/><glyph glyph-name="uni043C" unicode="м" horiz-adv-x="688" d="M217 0H51v480h157l136-223 136 223h157V0H471v240L381 93h-74l-90 147V0z"/><glyph glyph-name="uni043D" unicode="н" d="M221 0H51v480h170V310h150v170h170V0H371v170H221V0z"/><glyph glyph-name="uni043E" unicode="о" horiz-adv-x="594" d="M27 240q0 122 77.5 188.5T297 495t192.5-66.5T567 240 489.5 51.5 297-15 104.5 51.5 27 240zm365 0q0 45-23 75t-72 30-72-30-23-75 23-75 72-30 72 30 23 75z"/><glyph glyph-name="uni043F" unicode="п" d="M221 0H51v480h490V0H371v340H221V0z"/><glyph glyph-name="uni0440" unicode="р" horiz-adv-x="624" d="M201 415q20 34 61.5 57T364 495q58 0 104-22t73-59 41-81.5 14-92.5-14-92.5T541 66 468 7 364-15q-91 0-143 54v-259H51v700h150v-65zm220-175q0 47-26.5 81T318 355q-33 0-59-17.5T221 295V185q12-25 38-42.5t59-17.5q50 0 76.5 34t26.5 81z"/><glyph glyph-name="uni0441" unicode="с" horiz-adv-x="492" d="M27 230q0 132 81.5 199T304 496q79 0 148-33V318q-57 33-122 33-56 0-92-27t-36-84q0-54 36-82t89-28q74 0 130 32V17q-77-32-165-32-110 0-187.5 62.5T27 230z"/><glyph glyph-name="uni0442" unicode="т" horiz-adv-x="480" d="M325 0H155v340H15v140h450V340H325V0z"/><glyph glyph-name="uni0443" unicode="у" horiz-adv-x="577" d="M297 194l98 286h175L369-50q-70-183-220-183-36 0-88 13v140q34-8 65-8 66 0 100 76L0 480h180z"/><glyph glyph-name="uni0444" unicode="ф" horiz-adv-x="762" d="M461-220H301v205q-122 5-198.5 73.5T26 240t76.5 181.5T301 495v205h160V495q122-5 198.5-73.5T736 240 659.5 58.5 461-15v-205zM196 240q0-44 25.5-77.5T301 125v230q-54-4-79.5-37.5T196 240zm265 115V125q54 4 79.5 37.5T566 240t-25.5 77.5T461 355z"/><glyph glyph-name="uni0445" unicode="х" horiz-adv-x="552" d="M355 480h192L375 239 556 0H364l-88 124L188 0H-4l181 239L5 480h192l79-126z"/><glyph glyph-name="uni0446" unicode="ц" horiz-adv-x="639" d="M614-125H459V0H51v480h170V140h150v340h170V135h73v-260z"/><glyph glyph-name="uni0447" unicode="ч" horiz-adv-x="550" d="M499 0H329v141q-51-18-112-18-80 0-134 46.5T29 307v173h170V323q0-60 64-60 36 0 66 12v205h170V0z"/><glyph glyph-name="uni0448" unicode="ш" horiz-adv-x="812" d="M761 0H51v480h170V140h100v340h170V140h100v340h170V0z"/><glyph glyph-name="uni0449" unicode="щ" horiz-adv-x="859" d="M834-125H679V0H51v480h170V140h100v340h170V140h100v340h170V135h73v-260z"/><glyph glyph-name="uni044A" unicode="ъ" horiz-adv-x="613" d="M305 340h92q94 0 146-48t52-122-52-122T397 0H135v350H15v130h290V340zm0-225h46q33 0 51 15t18 40-18 40-51 15h-46V115z"/><glyph glyph-name="uni044B" unicode="ы" horiz-adv-x="802" d="M313 0H51v480h170V340h92q94 0 146-48t52-122-52-122T313 0zm-92 225V115h46q33 0 51 15t18 40-18 40-51 15h-46zM751 0H581v480h170V0z"/><glyph glyph-name="uni044C" unicode="ь" horiz-adv-x="529" d="M313 0H51v480h170V340h92q94 0 146-48t52-122-52-122T313 0zm-92 225V115h46q33 0 51 15t18 40-18 40-51 15h-46z"/><glyph glyph-name="uni044D" unicode="э" horiz-adv-x="506" d="M479 230q0-50-16-91.5T421 69t-60.5-47.5-71-28T216-15q-59 0-98 9.5T34 27v135q62-42 145-42 106 0 130 60H124v120h185q-27 60-130 60-78 0-140-42v135q71 42 162 42 74 0 135-26t102-87.5T479 230z"/><glyph glyph-name="uni044E" unicode="ю" horiz-adv-x="843" d="M816 240q0-122-77.5-188.5T546-15q-92 0-162.5 49.5T293 175h-72V0H51v480h170V305h72q20 91 90.5 140.5T546 495q115 0 192.5-66.5T816 240zm-365 0q0-48 22-81.5t73-33.5 73 33.5 22 81.5-22 81.5-73 33.5-73-33.5-22-81.5z"/><glyph glyph-name="uni044F" unicode="я" horiz-adv-x="563" d="M201 0H12l119 154q-43 23-66.5 63T41 305q0 74 52.5 124.5T239 480h273V0H342v130h-47zm15 300q0-50 64-50h62v100h-62q-64 0-64-50z"/><glyph glyph-name="uni0451" unicode="ё" horiz-adv-x="547" d="M473 611q0-35-25-60t-60-25-60 25-25 60 25 60 60 25 60-25 25-60zm-220 0q0-35-25-60t-60-25-60 25-25 60 25 60 60 25 60-25 25-60zM27 240q0 67 24 118.5t63 80 81 42.5 84 14q60 0 107-18t74.5-48 44.5-69.5 16.5-83T513 189H199q27-74 153-74 77 0 138 23V12q-76-27-178-27-123 0-204 67.5T27 240zm331 51q5 24-12.5 52.5T283 372q-36 0-61-22t-25-59h161z"/><glyph glyph-name="Wgrave" unicode="Ẁ" horiz-adv-x="1078" d="M872 700h200L858 0H658L539 433 420 0H220L6 700h200l119-492 133 492h162l133-492zm-233 60H479L369 910h180z"/><glyph glyph-name="wgrave" unicode="ẁ" horiz-adv-x="828" d="M637 480h182L670 0H490l-76 281L338 0H158L9 480h182l68-295 73 295h164l73-295zm-125 60H352L242 690h180z"/><glyph glyph-name="Wacute" unicode="Ẃ" horiz-adv-x="1078" d="M872 700h200L858 0H658L539 433 420 0H220L6 700h200l119-492 133 492h162l133-492zm-273 60H439l90 150h180z"/><glyph glyph-name="wacute" unicode="ẃ" horiz-adv-x="828" d="M637 480h182L670 0H490l-76 281L338 0H158L9 480h182l68-295 73 295h164l73-295zm-165 60H312l90 150h180z"/><glyph glyph-name="Wdieresis" unicode="Ẅ" horiz-adv-x="1078" d="M872 700h200L858 0H658L539 433 420 0H220L6 700h200l119-492 133 492h162l133-492zM734 831q0-35-25-60t-60-25-60 25-25 60 25 60 60 25 60-25 25-60zm-220 0q0-35-25-60t-60-25-60 25-25 60 25 60 60 25 60-25 25-60z"/><glyph glyph-name="wdieresis" unicode="ẅ" horiz-adv-x="828" d="M637 480h182L670 0H490l-76 281L338 0H158L9 480h182l68-295 73 295h164l73-295zm-30 131q0-35-25-60t-60-25-60 25-25 60 25 60 60 25 60-25 25-60zm-220 0q0-35-25-60t-60-25-60 25-25 60 25 60 60 25 60-25 25-60z"/><glyph glyph-name="Ygrave" unicode="Ỳ" horiz-adv-x="728" d="M456 0H272v239L-1 700h210l155-289 155 289h210L456 239V0zm6 760H302L192 910h180z"/><glyph glyph-name="ygrave" unicode="ỳ" horiz-adv-x="577" d="M297 194l98 286h175L369-50q-70-183-220-183-36 0-88 13v140q34-8 65-8 66 0 100 76L0 480h180zm84 346H221L111 690h180z"/><glyph glyph-name="endash" unicode="–" horiz-adv-x="584" d="M532 171H52v140h480V171z"/><glyph glyph-name="emdash" unicode="—" horiz-adv-x="784" d="M732 171H52v140h680V171z"/><glyph glyph-name="quoteleft" unicode="‘" horiz-adv-x="291" d="M202 410H22l110 290h138z"/><glyph glyph-name="quoteright" unicode="’" horiz-adv-x="286" d="M169 410H31l68 290h180z"/><glyph glyph-name="quotesinglbase" unicode="‚" horiz-adv-x="281" d="M137-143H-1l68 290h180z"/><glyph glyph-name="quotedblleft" unicode="“" horiz-adv-x="511" d="M422 410H242l110 290h138zm-220 0H22l110 290h138z"/><glyph glyph-name="quotedblright" unicode="”" horiz-adv-x="506" d="M389 410H251l68 290h180zm-220 0H31l68 290h180z"/><glyph glyph-name="quotedblbase" unicode="„" horiz-adv-x="501" d="M357-143H219l68 290h180zm-220 0H-1l68 290h180z"/><glyph glyph-name="dagger" unicode="†" horiz-adv-x="556" d="M371-220H186v535H28v165h158v220h185V480h157V315H371v-535z"/><glyph glyph-name="daggerdbl" unicode="‡" horiz-adv-x="609" d="M397-220H212V0H47v160h165v160H47v160h165v220h185V480h165V320H397V160h165V0H397v-220z"/><glyph glyph-name="bullet" unicode="•" horiz-adv-x="418" d="M59 350q0 71 43 107.5T209 494q65 0 107.5-36.5T359 350q0-72-42.5-108.5T209 205q-64 0-107 36.5T59 350z"/><glyph glyph-name="ellipsis" unicode="…" horiz-adv-x="825" d="M790 84q0-49-29-74t-73-25-73 25-29 74q0 48 29 73t73 25 73-25 29-73zm-552 0q0-49-29-74t-73-25-73 25-29 74q0 48 29 73t73 25 73-25 29-73zm276 0q0-49-29-74t-73-25-73 25-29 74q0 48 29 73t73 25 73-25 29-73z"/><glyph glyph-name="perthousand" unicode="‰" horiz-adv-x="1355" d="M320-60H210l409 820h110zm88 595q0-86-54.5-133T218 355q-82 0-136.5 47T27 535t54.5 133T218 715q81 0 135.5-47T408 535zm-249 0q0-25 14.5-42.5T218 475q29 0 43.5 17.5T276 535t-14.5 42.5T218 595q-30 0-44.5-17.5T159 535zm749-370q0-86-54.5-133T718-15q-82 0-136.5 47T527 165t54.5 133T718 345q81 0 135.5-47T908 165zm-249 0q0-25 14.5-42.5T718 105q29 0 43.5 17.5T776 165t-14.5 42.5T718 225q-30 0-44.5-17.5T659 165zm669 0q0-83-55-131.5T1138-15q-81 0-136 48.5T947 165t55 131.5 136 48.5q80 0 135-48.5t55-131.5zm-249 0q0-25 14.5-42.5T1138 105q29 0 43.5 17.5T1196 165t-14.5 42.5T1138 225q-30 0-44.5-17.5T1079 165z"/><glyph glyph-name="guilsinglleft" unicode="‹" horiz-adv-x="357" d="M329 40H159L27 225v30l132 185h170L188 240z"/><glyph glyph-name="guilsinglright" unicode="›" horiz-adv-x="357" d="M198 40H28l141 200L28 440h170l132-185v-30z"/><glyph glyph-name="fraction" unicode="⁄" horiz-adv-x="187" d="M-109-15h-50l458 730h50z"/><glyph glyph-name="Euro" unicode="€" horiz-adv-x="728" d="M676 29q-93-44-199-44-127 0-224.5 59T120 220H32v100h72v40H32v100h89q35 115 132 175t220 60q110 0 203-44V476q-68 57-171 57-115 0-173-73h210V360H295q-1-6-1-20t1-20h247V220H331q56-72 172-72 110 0 173 61V29z"/><glyph glyph-name="trademark" unicode="™" horiz-adv-x="689" d="M397 440h-94v260h79l84-111 84 111h79V440h-94v116l-44-58h-50l-44 58V440zm-196 0h-94v176H35v84h238v-84h-72V440z"/><glyph glyph-name="oneeighth" unicode="⅛" horiz-adv-x="912" d="M544 300q0 47 41 82t121 35q77 0 119.5-35.5T868 300q0-51-50-89 65-33 65-97 0-52-44-87.5T706-9 573 26.5 529 114q0 63 60 99-45 33-45 87zm174-140l-30 10-32 11q-19-25-17-53 1-23 19.5-38T714 75q25 0 41.5 10t16.5 27-13 27-41 21zm44 135q-2 38-61 38-24 0-38-10t-14-24q0-18 15.5-28.5T712 249q4-1 14.5-4.5L743 239q21 30 19 56zM241-15h-50l458 730h50zm-80 695h80V365h78v-93H43v93h90v205l-88-27v99z"/><glyph glyph-name="threeeighths" unicode="⅜" horiz-adv-x="909" d="M540 300q0 47 41 82t121 35q77 0 119.5-35.5T864 300q0-51-50-89 65-33 65-97 0-52-44-87.5T702-9 569 26.5 525 114q0 63 60 99-45 33-45 87zm174-140l-30 10-32 11q-19-25-17-53 1-23 19.5-38T710 75q25 0 41.5 10t16.5 27-13 27-41 21zm44 135q-2 38-61 38-24 0-38-10t-14-24q0-18 15.5-28.5T708 249q4-1 14.5-4.5L739 239q21 30 19 56zM247-15h-50l458 730h50zm87 597q0-65-63-87 80-25 80-105 0-63-49-92t-122-29q-71 0-141 28v102q60-36 132-34 74 2 74 43 0 33-55 33h-70l1 93h56q52-2 52 30 0 35-63 35-61 0-120-40v102q60 34 135 34 68 0 110.5-28.5T334 582z"/><glyph glyph-name="fiveeighths" unicode="⅝" horiz-adv-x="913" d="M544 300q0 47 41 82t121 35q77 0 119.5-35.5T868 300q0-51-50-89 65-33 65-97 0-52-44-87.5T706-9 573 26.5 529 114q0 63 60 99-45 33-45 87zm174-140l-30 10-32 11q-19-25-17-53 1-23 19.5-38T714 75q25 0 41.5 10t16.5 27-13 27-41 21zm44 135q-2 38-61 38-24 0-38-10t-14-24q0-18 15.5-28.5T712 249q4-1 14.5-4.5L743 239q21 30 19 56zM251-15h-50l458 730h50zM63 680h267v-93H163l-5-60q20 4 44 4 67 0 106.5-32t39.5-98q0-71-52-105t-129-34q-73 0-131 28v102q47-34 119-34 82 0 82 46t-88 46q-52 0-100-17z"/><glyph glyph-name="seveneighths" unicode="⅞" horiz-adv-x="845" d="M169-15h-50l458 730h50zm308 315q0 47 41 82t121 35q77 0 119.5-35.5T801 300q0-51-50-89 65-33 65-97 0-52-44-87.5T639-9 506 26.5 462 114q0 63 60 99-45 33-45 87zm174-140l-30 10-32 11q-19-25-17-53 1-23 19.5-38T647 75q25 0 41.5 10t16.5 27-13 27-41 21zm44 135q-2 38-61 38-24 0-38-10t-14-24q0-18 15.5-28.5T645 249q4-1 14.5-4.5L676 239q21 30 19 56zm-505-24H70l152 316H32v93h318v-75z"/><glyph glyph-name="partialdiff" unicode="∂" horiz-adv-x="583" d="M548 300q0-152-71-233.5T278-15Q167-15 97.5 50T28 220q0 103 56.5 164T228 445q47 0 86.5-18t58.5-49q-1 12-5 34-19 77-88 118.5T100 565v150q204 0 326-105t122-310zm-345-85q0-16 3-30.5t11-31.5 26.5-27.5T288 115t44.5 10.5T359 153t11 31.5 3 30.5-3 30.5-11 31.5-26.5 27.5T288 315t-44.5-10.5T217 277t-11-31.5-3-30.5z"/><glyph glyph-name="emptyset" unicode="∅" horiz-adv-x="808" d="M754 700l-85-99q100-105 100-251 0-151-107-258T404-15q-114 0-208 64L154 0H54l85 99Q39 204 39 350q0 152 106.5 258.5T404 715q113 0 207-65l43 50h100zm-350-70q-116 0-198-82t-82-198q0-107 71-186l361 421q-68 45-152 45zM252 115q68-45 152-45 116 0 198 82t82 198q0 105-71 186z"/><glyph glyph-name="product" unicode="∏" horiz-adv-x="804" d="M302-220H117v775H32v145h740V555h-85v-775H502v775H302v-775z"/><glyph glyph-name="summation" unicode="∑" horiz-adv-x="591" d="M547 0H37v100l220 250L37 600v100h504V535H309l148-168v-34L309 165h238V0z"/><glyph glyph-name="minus" unicode="−" horiz-adv-x="520" d="M465 280H55v140h410V280z"/><glyph glyph-name="radical" unicode="√" horiz-adv-x="787" d="M424 0H273L129 315H21v165h218l109-271 259 571h193z"/><glyph glyph-name="infinity" unicode="∞" horiz-adv-x="886" d="M443 461q90 107 197 107 86 0 144-56.5T842 358t-58-153.5T640 148q-107 0-197 107-90-107-197-107-86 0-144 56.5T44 358t58 153.5T246 568q107 0 197-107zm-76-103q-51 70-101 70-25 0-43.5-18T204 358t18.5-52 43.5-18q50 0 101 70zm315 0q0 34-18.5 52T620 428q-50 0-101-70 51-70 101-70 25 0 43.5 18t18.5 52z"/><glyph glyph-name="integral" unicode="∫" horiz-adv-x="480" d="M155 601q0 104 58.5 149T357 795q63 0 115-19V631q-37 14-72 14-75 0-75-71V-41q0-104-58.5-149T122-235q-62 0-114 19v145q37-14 72-14 75 0 75 71v615z"/><glyph glyph-name="approxequal" unicode="≈" horiz-adv-x="619" d="M560 555q12-88-27-135.5T422 372q-41 0-111.5 26.5T224 424q-31 0-24-44H60q-12 89 27.5 136T194 563q46 0 114.5-26t86.5-26q32 0 25 44h140zm0-216q12-88-27-135.5T422 156q-41 0-111.5 26.5T224 208q-31 0-24-44H60q-12 89 27.5 136T194 347q46 0 114.5-26t86.5-26q32 0 25 44h140z"/><glyph glyph-name="notequal" unicode="≠" horiz-adv-x="590" d="M205 76H85l55 100H55v140h161l38 68H55v140h275l55 100h120l-55-100h85V384H374l-38-68h199V176H260z"/><glyph glyph-name="lessequal" unicode="≤" horiz-adv-x="522" d="M461 320V170L51 310v170l410 140V470l-267-75zm0-320H51v140h410V0z"/><glyph glyph-name="greaterequal" unicode="≥" horiz-adv-x="524" d="M472 320L62 180v150l267 75-267 75v150l410-140V320zm0-320H62v140h410V0z"/><glyph glyph-name="lozenge" unicode="◊" horiz-adv-x="610" d="M400 0H210L30 350l180 350h190l180-350zM200 350l105-204 105 204-105 204z"/><glyph glyph-name="i.loclTRK" horiz-adv-x="274" d="M52 480h170V0H52v480zm-7 137q0 44 26.5 67t66.5 23 66.5-23 26.5-67q0-45-26.5-67.5T138 527t-66.5 22.5T45 617z"/><glyph glyph-name="a.ss01" horiz-adv-x="623" d="M422 65q-20-34-61.5-57T259-15q-58 0-104 22T82 66t-41 81.5T27 240t14 92.5T82 414t73 59 104 22q60 0 101.5-23t61.5-57v65h150V0H422v65zM202 240q0-47 26.5-81t76.5-34q33 0 59 17.5t38 42.5v110q-12 25-38 42.5T305 355q-50 0-76.5-34T202 240z"/><glyph glyph-name="aacute.ss01" horiz-adv-x="623" d="M422 65q-20-34-61.5-57T259-15q-58 0-104 22T82 66t-41 81.5T27 240t14 92.5T82 414t73 59 104 22q60 0 101.5-23t61.5-57v65h150V0H422v65zM202 240q0-47 26.5-81t76.5-34q33 0 59 17.5t38 42.5v110q-12 25-38 42.5T305 355q-50 0-76.5-34T202 240zm166 300H208l90 150h180z"/><glyph glyph-name="abreve.ss01" horiz-adv-x="623" d="M422 65q-20-34-61.5-57T259-15q-58 0-104 22T82 66t-41 81.5T27 240t14 92.5T82 414t73 59 104 22q60 0 101.5-23t61.5-57v65h150V0H422v65zM202 240q0-47 26.5-81t76.5-34q33 0 59 17.5t38 42.5v110q-12 25-38 42.5T305 355q-50 0-76.5-34T202 240zm271 325q-68-46-165-46t-165 46v126q69-42 165-42t165 42V565z"/><glyph glyph-name="acircumflex.ss01" horiz-adv-x="623" d="M422 65q-20-34-61.5-57T259-15q-58 0-104 22T82 66t-41 81.5T27 240t14 92.5T82 414t73 59 104 22q60 0 101.5-23t61.5-57v65h150V0H422v65zM202 240q0-47 26.5-81t76.5-34q33 0 59 17.5t38 42.5v110q-12 25-38 42.5T305 355q-50 0-76.5-34T202 240zm31 450h150l120-160H348l-40 53-40-53H113z"/><glyph glyph-name="adieresis.ss01" horiz-adv-x="623" d="M422 65q-20-34-61.5-57T259-15q-58 0-104 22T82 66t-41 81.5T27 240t14 92.5T82 414t73 59 104 22q60 0 101.5-23t61.5-57v65h150V0H422v65zM202 240q0-47 26.5-81t76.5-34q33 0 59 17.5t38 42.5v110q-12 25-38 42.5T305 355q-50 0-76.5-34T202 240zm301 371q0-35-25-60t-60-25-60 25-25 60 25 60 60 25 60-25 25-60zm-220 0q0-35-25-60t-60-25-60 25-25 60 25 60 60 25 60-25 25-60z"/><glyph glyph-name="agrave.ss01" horiz-adv-x="623" d="M422 65q-20-34-61.5-57T259-15q-58 0-104 22T82 66t-41 81.5T27 240t14 92.5T82 414t73 59 104 22q60 0 101.5-23t61.5-57v65h150V0H422v65zM202 240q0-47 26.5-81t76.5-34q33 0 59 17.5t38 42.5v110q-12 25-38 42.5T305 355q-50 0-76.5-34T202 240zm206 300H248L138 690h180z"/><glyph glyph-name="amacron.ss01" horiz-adv-x="623" d="M422 65q-20-34-61.5-57T259-15q-58 0-104 22T82 66t-41 81.5T27 240t14 92.5T82 414t73 59 104 22q60 0 101.5-23t61.5-57v65h150V0H422v65zM202 240q0-47 26.5-81t76.5-34q33 0 59 17.5t38 42.5v110q-12 25-38 42.5T305 355q-50 0-76.5-34T202 240zm-64 428h340V538H138v130z"/><glyph glyph-name="aogonek.ss01" horiz-adv-x="623" d="M572 0h-2q-62-40-62-82 0-28 31-28 15 0 33 8v-114q-42-19-93-19-58 0-90 30t-31 76q2 75 75 129h-11v65q-20-34-61.5-57T259-15q-58 0-104 22T82 66t-41 81.5T27 240t14 92.5T82 414t73 59 104 22q60 0 101.5-23t61.5-57v65h150V0zM305 125q33 0 59 17.5t38 42.5v110q-12 25-38 42.5T305 355q-50 0-76.5-34T202 240t26.5-81 76.5-34z"/><glyph glyph-name="aring.ss01" horiz-adv-x="623" d="M422 65q-20-34-61.5-57T259-15q-58 0-104 22T82 66t-41 81.5T27 240t14 92.5T82 414t73 59 104 22q60 0 101.5-23t61.5-57v65h150V0H422v65zM202 240q0-47 26.5-81t76.5-34q33 0 59 17.5t38 42.5v110q-12 25-38 42.5T305 355q-50 0-76.5-34T202 240zm236 396q0-58-37.5-92T308 510q-54 0-92 34t-38 92q0 56 38 90t92 34q55 0 92.5-33.5T438 636zm-165 0q0-16 9.5-26.5T308 599t25.5 10.5T343 636q0 15-9.5 25T308 671t-25.5-10-9.5-25z"/><glyph glyph-name="atilde.ss01" horiz-adv-x="623" d="M422 65q-20-34-61.5-57T259-15q-58 0-104 22T82 66t-41 81.5T27 240t14 92.5T82 414t73 59 104 22q60 0 101.5-23t61.5-57v65h150V0H422v65zM202 240q0-47 26.5-81t76.5-34q33 0 59 17.5t38 42.5v110q-12 25-38 42.5T305 355q-50 0-76.5-34T202 240zm291 434q18-66-11.5-111.5T393 517q-38 0-82.5 21T254 559q-17 0-21-14.5t1-21.5H119q-18 66 11.5 111.5T219 680q38 0 82.5-21t56.5-21q17 0 21 14t-1 22h115z"/><glyph glyph-name="ae.ss01" horiz-adv-x="934" d="M422 65q-20-34-61.5-57T259-15q-58 0-104 22T82 66t-41 81.5T27 240t14 92.5T82 414t73 59 104 22q60 0 101.5-23t61.5-57v65h140v-64q45 79 142 79 63 0 109-28t66.5-72.5 27-100T898 184H584q14-34 56-51.5t97-17.5q73 0 123 23V12q-54-27-131-27-108 0-167 80V0H422v65zM202 240q0-47 26.5-81t76.5-34q33 0 59 17.5t38 42.5v110q-12 25-38 42.5T305 355q-50 0-76.5-34T202 240zm466 130q-36 0-61-22t-25-59h161q5 24-12.5 52.5T668 370z"/><glyph glyph-name="y.ss01" d="M541 0q0-113-76.5-174T262-235q-112 0-197 45v145q73-50 174-50 132 0 132 105v26q-57-51-133-51-94 0-143 55.5T46 182v298h170V205q0-37 20-56t53-19q49 0 82 42v308h170V0z"/><glyph glyph-name="yacute.ss01" d="M541 0q0-113-76.5-174T262-235q-112 0-197 45v145q73-50 174-50 132 0 132 105v26q-57-51-133-51-94 0-143 55.5T46 182v298h170V205q0-37 20-56t53-19q49 0 82 42v308h170V0zM356 540H196l90 150h180z"/><glyph glyph-name="ycircumflex.ss01" d="M541 0q0-113-76.5-174T262-235q-112 0-197 45v145q73-50 174-50 132 0 132 105v26q-57-51-133-51-94 0-143 55.5T46 182v298h170V205q0-37 20-56t53-19q49 0 82 42v308h170V0zM221 690h150l120-160H336l-40 53-40-53H101z"/><glyph glyph-name="ydieresis.ss01" d="M541 0q0-113-76.5-174T262-235q-112 0-197 45v145q73-50 174-50 132 0 132 105v26q-57-51-133-51-94 0-143 55.5T46 182v298h170V205q0-37 20-56t53-19q49 0 82 42v308h170V0zm-50 611q0-35-25-60t-60-25-60 25-25 60 25 60 60 25 60-25 25-60zm-220 0q0-35-25-60t-60-25-60 25-25 60 25 60 60 25 60-25 25-60z"/><glyph glyph-name="ygrave.ss01" d="M541 0q0-113-76.5-174T262-235q-112 0-197 45v145q73-50 174-50 132 0 132 105v26q-57-51-133-51-94 0-143 55.5T46 182v298h170V205q0-37 20-56t53-19q49 0 82 42v308h170V0zM396 540H236L126 690h180z"/><glyph glyph-name="f_b" horiz-adv-x="1017" d="M614 441q52 54 143 54 58 0 104-22t73-59 41-81.5 14-92.5-14-92.5T934 66 861 7 757-15q-60 0-101.5 23T594 65V0H444v557q-44 18-84 18-39 0-63-18t-24-56v-21h118V340H273V0H103v340H24v140h79v25q0 103 58.5 156.5T309 715q85 0 160-31l145 22V441zm0-256q12-25 38-42.5t59-17.5q50 0 76.5 34t26.5 81-26.5 81-76.5 34q-33 0-59-17.5T614 295V185z"/><glyph glyph-name="f_f_b" horiz-adv-x="1351" d="M949 441q52 54 143 54 58 0 104-22t73-59 41-81.5 14-92.5-14-92.5-41-81.5-73-59-104-22q-60 0-101.5 23T929 65V0H779v567q-44 18-84 18-39 0-63-18t-24-56v-31h118V340H608V0H438v340H273V0H103v340H24v140h79v16q0 106 62.5 157.5T323 705q87 0 173-34 55 54 148 54 85 0 160-31l145 22V441zm-511 39v35q0 14 2 38-39 17-82 17-40 0-62.5-19.5T273 495v-15h165zm511-295q12-25 38-42.5t59-17.5q50 0 76.5 34t26.5 81-26.5 81-76.5 34q-33 0-59-17.5T949 295V185z"/><glyph glyph-name="f_f_h" horiz-adv-x="1320" d="M949 444q57 51 133 51 94 0 143-55.5t49-141.5V0h-170v275q0 37-20 56t-53 19q-49 0-82-42V0H779v567q-44 18-84 18-39 0-63-18t-24-56v-31h118V340H608V0H438v340H273V0H103v340H24v140h79v16q0 106 62.5 157.5T323 705q87 0 173-34 55 54 148 54 85 0 160-31l145 22V444zm-511 36v35q0 14 2 38-39 17-82 17-40 0-62.5-19.5T273 495v-15h165z"/><glyph glyph-name="f_f_j" horiz-adv-x="991" d="M939-67q0-89-52-128.5T764-235q-50 0-82 15v130q14-4 32-4 55 0 55 59v375H608V0H438v340H273V0H103v340H24v140h79v16q0 106 62.5 157.5T323 705q85 0 173-33 64 63 188 63 83 0 178-29V567q-70 28-141 28-51 0-82-20t-31-61v-34h331V-67zM273 495v-15h165v35q0 14 2 38-39 17-82 17-40 0-62.5-19.5T273 495z"/><glyph glyph-name="f_f_k" horiz-adv-x="1289" d="M1282 480l-158-239L1292 0h-185L985 182h-36V0H779v567q-44 18-84 18-39 0-63-18t-24-56v-31h118V340H608V0H438v340H273V0H103v340H24v140h79v16q0 106 62.5 157.5T323 705q87 0 173-34 55 54 148 54 85 0 160-31l145 22V312h43l105 168h185zm-844 0v35q0 14 2 38-39 17-82 17-40 0-62.5-19.5T273 495v-15h165z"/><glyph glyph-name="f_h" horiz-adv-x="985" d="M614 444q57 51 133 51 94 0 143-55.5T939 298V0H769v275q0 37-20 56t-53 19q-49 0-82-42V0H444v557q-44 18-84 18-39 0-63-18t-24-56v-21h118V340H273V0H103v340H24v140h79v25q0 103 58.5 156.5T309 715q85 0 160-31l145 22V444z"/><glyph glyph-name="f_i" horiz-adv-x="636" d="M273 480h311V0H414v340H273V0H103v340H24v140h79v15q0 111 67 165.5T349 715q83 0 178-29V547q-70 28-141 28-51 0-82-20t-31-61v-14z"/><glyph glyph-name="f_j" horiz-adv-x="636" d="M273 480h311V-67q0-89-52-128.5T409-235q-50 0-82 15v130q14-4 32-4 55 0 55 59v375H273V0H103v340H24v140h79v15q0 111 67 165.5T349 715q83 0 178-29V547q-70 28-141 28-51 0-82-20t-31-61v-14z"/><glyph glyph-name="f_k" horiz-adv-x="954" d="M947 480L789 241 957 0H772L650 182h-36V0H444v557q-44 18-84 18-39 0-63-18t-24-56v-21h118V340H273V0H103v340H24v140h79v25q0 103 58.5 156.5T309 715q85 0 160-31l145 22V312h43l105 168h185z"/><glyph glyph-name="f_l" horiz-adv-x="666" d="M309 715q85 0 160-31l145 22V0H444v557q-44 18-84 18-39 0-63-18t-24-56v-21h118V340H273V0H103v340H24v140h79v25q0 103 58.5 156.5T309 715z"/><glyph glyph-name="uni0414.loclBGR" horiz-adv-x="852" d="M186-145H26v305h82l218 540h200l218-540h82v-305H666V0H186v-145zm240 663L302 160h248z"/><glyph glyph-name="uni041B.loclBGR" horiz-adv-x="720" d="M265 700h190L718 0H518L360 480 202 0H2z"/><glyph glyph-name="uni0424.loclBGR" horiz-adv-x="888" d="M534-90H359V2Q201 14 110 111.5T19 350t91 238.5T359 698v92h175v-92q156-14 245.5-111T869 350t-89.5-237T534 2v-92zM204 350q0-30 5.5-57.5T230 234t48-51.5 81-24.5v384q-48-4-81-24.5T230 466t-20.5-58.5T204 350zm330 191V159q46 4 78 25t46.5 51.5 20 58T684 350t-5.5 56.5-20 58T612 516t-78 25z"/><glyph glyph-name="uni0432.loclBGR" horiz-adv-x="597" d="M520 533q0-86-72-137 56-22 89.5-69.5T571 215q0-105-72.5-167.5T311-15Q40-15 39 294v96q0 154 71 239.5T308 715q89 0 150.5-52T520 533zm-165-22q0 26-15 43t-41 17q-83 0-90-153l76 13q32 6 51 29.5t19 50.5zM209 284q0-81 24-115t73-34q43 0 68.5 25t25.5 64q0 35-29 61t-80 17l-82-14v-4z"/><glyph glyph-name="uni0433.loclBGR" horiz-adv-x="497" d="M458 29q-77-44-193-44Q26-15 26 140q0 52 27 86.5t65 48.5 76.5 22.5T260 316t27 26q0 28-50 28-48 0-97-14t-82-36v134q87 41 191 41 94 0 153.5-36T462 342q0-51-27-85t-65-49-76.5-24-65.5-19-27-25q0-27 73-27 110 0 184 53V29z"/><glyph glyph-name="uni0434.loclBGR" horiz-adv-x="623" d="M27 240q0 48 14 92.5T82 414t73 59 104 22q60 0 101.5-23t61.5-57v65h150V20q0-69-23.5-120.5T484-180t-90-41.5T288-235q-114 0-207 45v145q81-50 184-50 137 0 137 105v29q-52-54-143-54-58 0-104 22T82 66t-41 81.5T27 240zm375 55q-12 25-38 42.5T305 355q-50 0-76.5-34T202 240t26.5-81 76.5-34q33 0 59 17.5t38 42.5v110z"/><glyph glyph-name="uni0436.loclBGR" horiz-adv-x="806" d="M180 0H0l152 239L10 480h180l89-168h39v388h170V312h39l89 168h180L654 239 806 0H626L521 182h-33V0H318v182h-33z"/><glyph glyph-name="uni0438.loclBGR" d="M371 480h170V0H391v55q-65-70-153-70-94 0-143 55.5T46 182v298h170V205q0-37 20-56t53-19q49 0 82 42v308z"/><glyph glyph-name="uni0439.loclBGR" d="M454 568q-70-39-160-39t-160 39v122q68-35 160-35t160 35V568zm-83-88h170V0H391v55q-65-70-153-70-94 0-143 55.5T46 182v298h170V205q0-37 20-56t53-19q49 0 82 42v308z"/><glyph glyph-name="uni043A.loclBGR" horiz-adv-x="562" d="M564 0H375L257 182h-36V0H51v700h170V312h38l105 168h190L398 244z"/><glyph glyph-name="uni043B.loclBGR" horiz-adv-x="572" d="M566 0H386L286 303 186 0H6l190 480h180z"/><glyph glyph-name="uni043F.loclBGR" d="M201 425q65 70 153 70 94 0 143-55.5T546 298V0H376v275q0 37-20 56t-53 19q-49 0-82-42V0H51v480h150v-55z"/><glyph glyph-name="uni0442.loclBGR" horiz-adv-x="867" d="M221 0H51v480h150v-51q22 26 61.5 46t86.5 20q96 0 142-66 71 66 153 66 51 0 88-18.5t55-49 26-60 8-59.5V0H651v293q0 27-15.5 42T596 350q-39 0-70-31V0H356v293q0 27-15.5 42T301 350q-47 0-80-42V0z"/><glyph glyph-name="uni0446.loclBGR" horiz-adv-x="636" d="M541 138q0-13 8.5-21.5T571 108h43v-233H459V-3q-52 5-72 54-63-66-149-66-94 0-143 55.5T46 182v298h170V205q0-37 20-56t53-19q49 0 82 42v308h170V138z"/><glyph glyph-name="uni0448.loclBGR" horiz-adv-x="867" d="M646 480h170V0H666v51q-22-26-61.5-46T518-15q-96 0-142 66-72-66-153-66-51 0-88 18.5t-55 49-26 60-8 59.5v308h170V187q0-27 15.5-42t39.5-15q39 0 70 31v319h170V187q0-27 15.5-42t39.5-15q47 0 80 42v308z"/><glyph glyph-name="uni0449.loclBGR" horiz-adv-x="911" d="M816 138q0-13 8.5-21.5T846 108h43v-233H734V-3q-51 5-71 51-55-63-145-63-96 0-142 66-72-66-153-66-51 0-88 18.5t-55 49-26 60-8 59.5v308h170V187q0-27 15.5-42t39.5-15q39 0 70 31v319h170V187q0-27 15.5-42t39.5-15q47 0 80 42v308h170V138z"/><glyph glyph-name="uni044E.loclBGR" horiz-adv-x="843" d="M816 240q0-122-77.5-188.5T546-15q-92 0-162.5 49.5T293 175h-72V0H51v700h170V305h72q20 91 90.5 140.5T546 495q115 0 192.5-66.5T816 240zm-365 0q0-48 22-81.5t73-33.5 73 33.5 22 81.5-22 81.5-73 33.5-73-33.5-22-81.5z"/><glyph glyph-name="uni0430.ss01" horiz-adv-x="623" d="M422 65q-20-34-61.5-57T259-15q-58 0-104 22T82 66t-41 81.5T27 240t14 92.5T82 414t73 59 104 22q60 0 101.5-23t61.5-57v65h150V0H422v65zM202 240q0-47 26.5-81t76.5-34q33 0 59 17.5t38 42.5v110q-12 25-38 42.5T305 355q-50 0-76.5-34T202 240z"/><glyph glyph-name="uni0437.ss01" horiz-adv-x="481" d="M417 313q0-86-72-137 56-22 89.5-69.5T468-5q0-108-78-168.5T197-234q-105 0-185 40v142q73-46 159-46 56 0 91 24t35 73q0 43-31.5 68T176 79l-58-13v130l64 15q70 16 70 80 0 72-97 72-67 0-136-41v136q80 37 175 37 92 0 157.5-47.5T417 313z"/><glyph glyph-name="uni0443.ss01" d="M541 0q0-113-76.5-174T262-235q-112 0-197 45v145q73-50 174-50 132 0 132 105v26q-57-51-133-51-94 0-143 55.5T46 182v298h170V205q0-37 20-56t53-19q49 0 82 42v308h170V0z"/><glyph glyph-name="zero.osf" horiz-adv-x="678" d="M644 260q0-70-32-131T509 26.5 339-15 169 26.5 66 129 34 260t32 131 103 102.5T339 535t170-41.5T612 391t32-131zm-425 0q0-48 31.5-81.5T339 145t88.5 33.5T459 260t-31.5 81.5T339 375t-88.5-33.5T219 260z"/><glyph glyph-name="one.osf" horiz-adv-x="480" d="M214 520h135V155h106V0H49v155h120v182L49 292v165z"/><glyph glyph-name="two.osf" horiz-adv-x="569" d="M524 0H37v71q0 23 5 42.5t17 35T81.5 175t31.5 22.5 33.5 17.5 38.5 17.5 37 16.5q44 20 62.5 29.5t34 24.5 15.5 32q0 40-69 40-40 0-96.5-16.5T59 310v170q107 55 233 55 95 0 161-46t66-135q0-56-26-90t-75-60q-61-32-119-49h225V0z"/><glyph glyph-name="three.osf" horiz-adv-x="563" d="M502 346q0-108-105-144 60-19 96.5-62.5T530 26q0-54-24-94t-64.5-62.5-87-33.5-99.5-11q-103 0-215 42V32q100-49 200-47 47 1 80.5 18.5T354 56q0 56-83 56H165l1 155 84-1q77 0 77 51 0 58-95 58-85 0-180-47v164q90 43 205 43 107 0 176-48t69-141z"/><glyph glyph-name="four.osf" horiz-adv-x="626" d="M329 520h180V100h90V-50h-90v-110H334v110H19v150zm5-420v184L198 100h136z"/><glyph glyph-name="five.osf" horiz-adv-x="556" d="M82 521h415V366l-249 1-7-100q30 6 63 6 97 0 160-54t63-162q0-60-25-106.5t-66.5-73T346-162t-100-13q-123 0-209 41V31q76-46 189-46 47 0 81.5 19.5T342 61q0 35-30.5 56T216 138q-78 0-158-28z"/><glyph glyph-name="six.osf" horiz-adv-x="634" d="M234 422q63 27 138 27 94 0 162-61.5T602 220q0-114-76-174.5T338-15q-151 0-225 92T39 336q0 93 29 164.5T145 613t103.5 61.5T364 695q104 0 180-42V502q-65 43-150 43-126 0-160-123zm-7-147q13-145 105-145 35 0 60 22t25 64-29 62.5-65 20.5q-54 0-96-24z"/><glyph glyph-name="seven.osf" horiz-adv-x="534" d="M21 521h500V396L265-160H65l242 526H21v155z"/><glyph glyph-name="eight.osf" horiz-adv-x="634" d="M62 500q0 78 65.5 136.5T317 695q118 0 186.5-59T572 500q0-85-83-148 108-55 108-162 0-86-70.5-145.5T317-15 107.5 44.5 37 190q0 51 28.5 95t72.5 70q-76 54-76 145zm264-226q-51 17-78 28-30-43-28-89 2-37 26.5-60.5T321 129q44 0 67.5 17.5T412 192q0 33-19.5 49.5T326 274zm70 217q-1 27-23.5 45.5T315 555q-39 0-58.5-17.5T237 494q0-50 73-78 14-6 54-17 34 48 32 92z"/><glyph glyph-name="nine.osf" horiz-adv-x="623" d="M25 300q0 114 76 174.5T289 535q151 0 225-92t74-259q0-93-29-164.5T482-93t-103.5-61.5T263-175q-103 0-180 42V18q65-43 150-43 126 0 160 123-63-27-138-27-94 0-162 61.5T25 300zm270 90q-35 0-60-22t-25-64 29-62.5 65-20.5q54 0 96 24-13 145-105 145z"/><glyph glyph-name="zero.sinf" horiz-adv-x="430" d="M404 104q0-94-47-153.5T215-109 73-49.5 26 104t47 153.5T215 317t142-59.5T404 104zm-267 0q0-117 78-117t78 117-78 117-78-117z"/><glyph glyph-name="one.sinf" horiz-adv-x="321" d="M149 308h80V-7h78v-93H31v93h90v205l-88-27v99z"/><glyph glyph-name="two.sinf" horiz-adv-x="368" d="M38 272q62 45 146 45 67 0 110.5-31.5T338 190q0-46-29.5-79T230 49Q152 3 152-7h186v-93H25v49q0 28 9.5 53t19 39 34 33 33 24 37.5 22q5 3 21 11.5t20.5 12L213 154l11.5 14 2.5 16q0 37-53 37-70 0-136-51v102z"/><glyph glyph-name="three.sinf" horiz-adv-x="366" d="M324 204q0-65-63-87 80-25 80-105 0-63-49-92t-122-29q-71 0-141 28V21q60-36 132-34 74 2 74 43 0 33-55 33h-70l1 93h56q52-2 52 30 0 35-63 35-61 0-120-40v102q60 34 135 34 68 0 110.5-28.5T324 204z"/><glyph glyph-name="four.sinf" horiz-adv-x="403" d="M219 308h108V56h54v-90h-54v-66H222v66H15v90zm3-252v119L125 56h97z"/><glyph glyph-name="five.sinf" horiz-adv-x="363" d="M55 309h267v-93H155l-5-60q20 4 44 4 67 0 106.5-32T340 30q0-71-52-105t-129-34q-73 0-131 28V21q47-34 119-34 82 0 82 46t-88 46Q89 79 41 62z"/><glyph glyph-name="six.sinf" horiz-adv-x="401" d="M137 147q47 22 98 22 61 0 102.5-35T379 35q0-69-46.5-106.5T217-109Q26-109 26 108q0 104 57 156.5T224 317q62 0 120-26v-96q-47 32-102 32-89 0-105-80zm-1-85q6-48 24-66t48-18q26 0 43 13t17 39q0 49-69 49-29 0-63-17z"/><glyph glyph-name="seven.sinf" horiz-adv-x="345" d="M174-100H54l152 316H16v93h318v-75z"/><glyph glyph-name="eight.sinf" horiz-adv-x="404" d="M40 200q0 47 41 82t121 35q77 0 119.5-35.5T364 200q0-51-50-89 65-33 65-97 0-52-44-87.5T202-109 69-73.5 25 14q0 63 60 99-45 33-45 87zM214 60l-30 10-32 11q-19-25-17-53 1-23 19.5-38T210-25q25 0 41.5 10T268 12t-13 27-41 21zm44 135q-2 38-61 38-24 0-38-10t-14-24q0-18 15.5-28.5T208 149q4-1 14.5-4.5L239 139q21 30 19 56z"/><glyph glyph-name="nine.sinf" horiz-adv-x="401" d="M22 173q0 69 46.5 106.5T183 317q101 0 146.5-55.5T375 100q0-104-57-156.5T177-109q-62 0-120 26v96q45-32 102-32 89 0 105 80-47-22-98-22-61 0-102.5 35T22 173zm170 57q-25 0-42-13t-17-39q0-49 68-49 30 0 64 17-6 48-24 66t-49 18z"/><glyph glyph-name="zero.sups" horiz-adv-x="430" d="M404 582q0-94-47-153.5T215 369 73 428.5 26 582t47 153.5T215 795t142-59.5T404 582zm-267 0q0-117 78-117t78 117-78 117-78-117z"/><glyph glyph-name="one.sups" horiz-adv-x="321" d="M149 780h80V465h78v-93H31v93h90v205l-88-27v99z"/><glyph glyph-name="two.sups" horiz-adv-x="368" d="M38 750q62 45 146 45 67 0 110.5-31.5T338 668q0-46-29.5-79T230 527q-78-46-78-56h186v-93H25v49q0 28 9.5 53t19 39 34 33 33 24 37.5 22q5 3 21 11.5t20.5 12L213 632l11.5 14 2.5 16q0 37-53 37-70 0-136-51v102z"/><glyph glyph-name="three.sups" horiz-adv-x="366" d="M324 682q0-65-63-87 80-25 80-105 0-63-49-92t-122-29q-71 0-141 28v102q60-36 132-34 74 2 74 43 0 33-55 33h-70l1 93h56q52-2 52 30 0 35-63 35-61 0-120-40v102q60 34 135 34 68 0 110.5-28.5T324 682z"/><glyph glyph-name="four.sups" horiz-adv-x="403" d="M219 780h108V528h54v-90h-54v-66H222v66H15v90zm3-252v119l-97-119h97z"/><glyph glyph-name="five.sups" horiz-adv-x="363" d="M55 780h267v-93H155l-5-60q20 4 44 4 67 0 106.5-32t39.5-98q0-71-52-105t-129-34q-73 0-131 28v102q47-34 119-34 82 0 82 46t-88 46q-52 0-100-17z"/><glyph glyph-name="six.sups" horiz-adv-x="400" d="M137 625q47 22 98 22 61 0 102.5-35t41.5-99q0-69-46.5-106.5T217 369Q26 369 26 586q0 104 57 156.5T224 795q62 0 120-26v-96q-47 32-102 32-89 0-105-80zm-1-85q6-48 24-66t48-18q26 0 43 13t17 39q0 49-69 49-29 0-63-17z"/><glyph glyph-name="seven.sups" horiz-adv-x="345" d="M174 371H54l152 316H16v93h318v-75z"/><glyph glyph-name="eight.sups" horiz-adv-x="404" d="M40 678q0 47 41 82t121 35q77 0 119.5-35.5T364 678q0-51-50-89 65-33 65-97 0-52-44-87.5T202 369 69 404.5 25 492q0 63 60 99-45 33-45 87zm174-140l-30 10-32 11q-19-25-17-53 1-23 19.5-38t55.5-15q25 0 41.5 10t16.5 27-13 27-41 21zm44 135q-2 38-61 38-24 0-38-10t-14-24q0-18 15.5-28.5T208 627q4-1 14.5-4.5L239 617q21 30 19 56z"/><glyph glyph-name="nine.sups" horiz-adv-x="400" d="M21 651q0 69 46.5 106.5T182 795q101 0 146.5-55.5T374 578q0-104-57-156.5T176 369q-62 0-120 26v96q45-32 102-32 89 0 105 80-47-22-98-22-61 0-102.5 35T21 651zm170 57q-25 0-42-13t-17-39q0-49 68-49 30 0 64 17-6 48-24 66t-49 18z"/><glyph glyph-name="zero.tf" horiz-adv-x="650" d="M630 340q0-156-77-255.5T325-15 97 84.5 20 340t77 255.5T325 695t228-99.5T630 340zm-425 0q0-195 120-195t120 195-120 195-120-195z"/><glyph glyph-name="one.tf" horiz-adv-x="650" d="M295 680h135V155h190V0H50v155h200v342L84 433v165z"/><glyph glyph-name="two.tf" horiz-adv-x="650" d="M74 620q121 75 251 75 111 0 184-52t73-159q0-41-15-77t-44-65-56-49.5-65-43.5q-17-10-42-24.5t-39-23-29-18-21.5-16.5-6.5-12h333V0H52v81q0 24 4.5 46.5t9.5 40T84 204t20.5 31 26.5 28.5 27.5 24.5 32 23 30 19 32 19 29.5 17q8 5 34.5 19.5t34.5 20 22.5 17.5 19 24 4.5 27q0 30-24.5 45.5T308 535q-111 0-234-85v170z"/><glyph glyph-name="three.tf" horiz-adv-x="650" d="M571 506q0-108-105-144 60-19 96.5-62.5T599 186q0-71-43-117.5t-106.5-65T304-15Q175-15 59 31v170q100-58 230-56 134 2 134 71 0 56-93 56H214l1 155 94-1q87-2 87 51 0 58-115 58-112 0-210-66v170q98 56 235 56 121 0 193-47.5T571 506z"/><glyph glyph-name="four.tf" horiz-adv-x="650" d="M354 680h180V260h90V110h-90V0H359v110H14v150zm5-420v199L198 260h161z"/><glyph glyph-name="five.tf" horiz-adv-x="650" d="M104 681h465V526l-299 1-7-102q47 8 93 8 111 0 177-53t66-163q0-80-45-134T441.5 7 288-15Q156-15 59 31v170q80-56 209-56 146 0 146 76 0 77-156 77-98 0-178-28z"/><glyph glyph-name="six.tf" horiz-adv-x="650" d="M220 412q77 37 162 37 101 0 170.5-59T622 225q0-115-77.5-177.5T353-15Q34-15 34 336q0 93 27 164t74 112.5 104.5 62T364 695q103 0 200-43V492q-76 53-170 53-148 0-174-133zm-2-142q9-80 39-110t81-30q42 0 70.5 22t28.5 64q0 43-32 63t-82 20q-52 0-105-29z"/><glyph glyph-name="seven.tf" horiz-adv-x="650" d="M43 681h570V556L327 0H127l271 526H43v155z"/><glyph glyph-name="eight.tf" horiz-adv-x="650" d="M55 500q0 79 68 137t202 58q128 0 199-58.5T595 500q0-85-83-148 108-55 108-162 0-86-73-145.5T325-15 103 44.5 30 190q0 51 28.5 95t72.5 70q-76 54-76 145zm290-234q-17 7-53 19l-51 17q-29-42-27-89 2-38 32.5-63t92.5-25q42 0 69 17t27 44q0 29-22 45.5T345 266zm74 225q-1 28-27 46t-76 18q-39 0-62.5-16.5T230 499q0-31 25.5-48.5T335 415q7-2 24.5-7.5T387 399q34 48 32 92z"/><glyph glyph-name="nine.tf" horiz-adv-x="650" d="M28 455q0 115 77.5 177.5T297 695q168 0 243.5-92.5T616 334q0-90-27-158.5T515 66 410.5 5 286-15Q183-15 86 28v160q76-53 170-53 148 0 174 133-77-37-162-37-101 0-170.5 59T28 455zm284 95q-42 0-70.5-22T213 464q0-43 32-63t82-20q52 0 105 29-9 80-39 110t-81 30z"/><glyph glyph-name="zero.tosf" horiz-adv-x="650" d="M630 260q0-70-32-131T495 26.5 325-15 155 26.5 52 129 20 260t32 131 103 102.5T325 535t170-41.5T598 391t32-131zm-425 0q0-48 31.5-81.5T325 145t88.5 33.5T445 260t-31.5 81.5T325 375t-88.5-33.5T205 260z"/><glyph glyph-name="one.tosf" horiz-adv-x="650" d="M292 520h135V155h190V0H47v155h200v182L81 273v165z"/><glyph glyph-name="two.tosf" horiz-adv-x="650" d="M594 0H49v71q0 32 14.5 60t36 47.5T153 215t59.5 27.5T274 263q66 20 98 36.5t32 39.5q0 36-97 36-52 0-116-21.5T71 295v170q118 70 253 70 122 0 193.5-46.5T589 344q0-94-101-144-60-30-167-45h273V0z"/><glyph glyph-name="three.tosf" horiz-adv-x="650" d="M571 346q0-108-105-144 60-19 96.5-62.5T599 26q0-71-43-117.5t-106.5-65T304-175q-129 0-245 46V41q100-58 230-56 134 2 134 71 0 56-93 56H214l1 155 94-1q87-2 87 51 0 58-115 58-112 0-210-66v170q98 56 235 56 121 0 193-47.5T571 346z"/><glyph glyph-name="four.tosf" horiz-adv-x="650" d="M356 520h180V100h90V-50h-90v-110H361v110H16v150zm5-420v199L200 100h161z"/><glyph glyph-name="five.tosf" horiz-adv-x="650" d="M104 521h465V366l-299 1-7-102q47 8 93 8 111 0 177-53t66-163q0-80-45-134t-112.5-76T288-175q-132 0-229 46V41q80-56 209-56 146 0 146 76 0 77-156 77-98 0-178-28z"/><glyph glyph-name="six.tosf" horiz-adv-x="650" d="M220 412q77 37 162 37 101 0 170.5-59T622 225q0-115-77.5-177.5T353-15q-168 0-243.5 92.5T34 346q0 90 27 158.5T135 614t104.5 61T364 695q103 0 200-43V492q-76 53-170 53-148 0-174-133zm-2-142q9-80 39-110t81-30q42 0 70.5 22t28.5 64q0 43-32 63t-82 20q-52 0-105-29z"/><glyph glyph-name="seven.tosf" horiz-adv-x="650" d="M43 521h570V396L327-160H127l271 526H43v155z"/><glyph glyph-name="eight.tosf" horiz-adv-x="650" d="M55 500q0 79 68 137t202 58q128 0 199-58.5T595 500q0-85-83-148 108-55 108-162 0-86-73-145.5T325-15 103 44.5 30 190q0 51 28.5 95t72.5 70q-76 54-76 145zm290-234q-17 7-53 19l-51 17q-29-42-27-89 2-38 32.5-63t92.5-25q42 0 69 17t27 44q0 29-22 45.5T345 266zm74 225q-1 28-27 46t-76 18q-39 0-62.5-16.5T230 499q0-31 25.5-48.5T335 415q7-2 24.5-7.5T387 399q34 48 32 92z"/><glyph glyph-name="nine.tosf" horiz-adv-x="650" d="M26 295q0 115 77.5 177.5T295 535q168 0 243.5-92.5T614 174q0-90-27-158.5T513-94t-104.5-61T284-175q-103 0-200 43V28q76-53 170-53 148 0 174 133-77-37-162-37-101 0-170.5 59T26 295zm284 95q-42 0-70.5-22T211 304q0-43 32-63t82-20q52 0 105 29-9 80-39 110t-81 30z"/><glyph glyph-name="zero.dnom" horiz-adv-x="430" d="M404 204q0-94-47-153.5T215-9 73 50.5 26 204t47 153.5T215 417t142-59.5T404 204zm-267 0q0-117 78-117t78 117-78 117-78-117z"/><glyph glyph-name="one.dnom" horiz-adv-x="321" d="M149 408h80V93h78V0H31v93h90v205l-88-27v99z"/><glyph glyph-name="two.dnom" horiz-adv-x="368" d="M38 372q62 45 146 45 67 0 110.5-31.5T338 290q0-46-29.5-79T230 149q-78-46-78-56h186V0H25v49q0 28 9.5 53t19 39 34 33 33 24 37.5 22q5 3 21 11.5t20.5 12L213 254l11.5 14 2.5 16q0 37-53 37-70 0-136-51v102z"/><glyph glyph-name="three.dnom" horiz-adv-x="366" d="M324 304q0-65-63-87 80-25 80-105 0-63-49-92T170-9Q99-9 29 19v102q60-36 132-34 74 2 74 43 0 33-55 33h-70l1 93h56q52-2 52 30 0 35-63 35-61 0-120-40v102q60 34 135 34 68 0 110.5-28.5T324 304z"/><glyph glyph-name="four.dnom" horiz-adv-x="403" d="M219 408h108V156h54V66h-54V0H222v66H15v90zm3-252v119l-97-119h97z"/><glyph glyph-name="five.dnom" horiz-adv-x="363" d="M55 409h267v-93H155l-5-60q20 4 44 4 67 0 106.5-32t39.5-98q0-71-52-105T159-9Q86-9 28 19v102q47-34 119-34 82 0 82 46t-88 46q-52 0-100-17z"/><glyph glyph-name="six.dnom" horiz-adv-x="401" d="M137 247q47 22 98 22 61 0 102.5-35t41.5-99q0-69-46.5-106.5T217-9Q26-9 26 208q0 104 57 156.5T224 417q62 0 120-26v-96q-47 32-102 32-89 0-105-80zm-1-85q6-48 24-66t48-18q26 0 43 13t17 39q0 49-69 49-29 0-63-17z"/><glyph glyph-name="seven.dnom" horiz-adv-x="345" d="M174 0H54l152 316H16v93h318v-75z"/><glyph glyph-name="eight.dnom" horiz-adv-x="403" d="M39 300q0 47 41 82t121 35q77 0 119.5-35.5T363 300q0-51-50-89 65-33 65-97 0-52-44-87.5T201-9 68 26.5 24 114q0 63 60 99-45 33-45 87zm174-140l-30 10-32 11q-19-25-17-53 1-23 19.5-38T209 75q25 0 41.5 10t16.5 27-13 27-41 21zm44 135q-2 38-61 38-24 0-38-10t-14-24q0-18 15.5-28.5T207 249q4-1 14.5-4.5L238 239q21 30 19 56z"/><glyph glyph-name="nine.dnom" horiz-adv-x="401" d="M22 273q0 69 46.5 106.5T183 417q101 0 146.5-55.5T375 200q0-104-57-156.5T177-9Q115-9 57 17v96q45-32 102-32 89 0 105 80-47-22-98-22-61 0-102.5 35T22 273zm170 57q-25 0-42-13t-17-39q0-49 68-49 30 0 64 17-6 48-24 66t-49 18z"/><glyph glyph-name="zero.numr" horiz-adv-x="430" d="M404 482q0-94-47-153.5T215 269 73 328.5 26 482t47 153.5T215 695t142-59.5T404 482zm-267 0q0-117 78-117t78 117-78 117-78-117z"/><glyph glyph-name="one.numr" horiz-adv-x="321" d="M149 680h80V365h78v-93H31v93h90v205l-88-27v99z"/><glyph glyph-name="two.numr" horiz-adv-x="368" d="M38 650q62 45 146 45 67 0 110.5-31.5T338 568q0-46-29.5-79T230 427q-78-46-78-56h186v-93H25v49q0 28 9.5 53t19 39 34 33 33 24 37.5 22q5 3 21 11.5t20.5 12L213 532l11.5 14 2.5 16q0 37-53 37-70 0-136-51v102z"/><glyph glyph-name="three.numr" horiz-adv-x="366" d="M324 582q0-65-63-87 80-25 80-105 0-63-49-92t-122-29q-71 0-141 28v102q60-36 132-34 74 2 74 43 0 33-55 33h-70l1 93h56q52-2 52 30 0 35-63 35-61 0-120-40v102q60 34 135 34 68 0 110.5-28.5T324 582z"/><glyph glyph-name="four.numr" horiz-adv-x="403" d="M219 680h108V428h54v-90h-54v-66H222v66H15v90zm3-252v119l-97-119h97z"/><glyph glyph-name="five.numr" horiz-adv-x="363" d="M55 680h267v-93H155l-5-60q20 4 44 4 67 0 106.5-32t39.5-98q0-71-52-105t-129-34q-73 0-131 28v102q47-34 119-34 82 0 82 46t-88 46q-52 0-100-17z"/><glyph glyph-name="six.numr" horiz-adv-x="400" d="M137 525q47 22 98 22 61 0 102.5-35t41.5-99q0-69-46.5-106.5T217 269Q26 269 26 486q0 104 57 156.5T224 695q62 0 120-26v-96q-47 32-102 32-89 0-105-80zm-1-85q6-48 24-66t48-18q26 0 43 13t17 39q0 49-69 49-29 0-63-17z"/><glyph glyph-name="seven.numr" horiz-adv-x="345" d="M174 271H54l152 316H16v93h318v-75z"/><glyph glyph-name="eight.numr" horiz-adv-x="404" d="M40 578q0 47 41 82t121 35q77 0 119.5-35.5T364 578q0-51-50-89 65-33 65-97 0-52-44-87.5T202 269 69 304.5 25 392q0 63 60 99-45 33-45 87zm174-140l-30 10-32 11q-19-25-17-53 1-23 19.5-38t55.5-15q25 0 41.5 10t16.5 27-13 27-41 21zm44 135q-2 38-61 38-24 0-38-10t-14-24q0-18 15.5-28.5T208 527q4-1 14.5-4.5L239 517q21 30 19 56z"/><glyph glyph-name="nine.numr" horiz-adv-x="400" d="M21 551q0 69 46.5 106.5T182 695q101 0 146.5-55.5T374 478q0-104-57-156.5T176 269q-62 0-120 26v96q45-32 102-32 89 0 105 80-47-22-98-22-61 0-102.5 35T21 551zm170 57q-25 0-42-13t-17-39q0-49 68-49 30 0 64 17-6 48-24 66t-49 18z"/><glyph glyph-name="emdash.case" horiz-adv-x="790" d="M735 280H55v140h680V280z"/><glyph glyph-name="endash.case" horiz-adv-x="590" d="M535 280H55v140h480V280z"/><glyph glyph-name="hyphen.case" horiz-adv-x="490" d="M55 420h380V280H55v140z"/><glyph glyph-name="guillemotleft.case" horiz-adv-x="639" d="M590 150H420L288 335v30l132 185h170L449 350zm-250 0H170L38 335v30l132 185h170L199 350z"/><glyph glyph-name="guillemotright.case" horiz-adv-x="639" d="M469 150H299l141 200-141 200h170l132-185v-30zm-250 0H49l141 200L49 550h170l132-185v-30z"/><glyph glyph-name="guilsinglleft.case" horiz-adv-x="389" d="M340 150H170L38 335v30l132 185h170L199 350z"/><glyph glyph-name="guilsinglright.case" horiz-adv-x="389" d="M219 150H49l141 200L49 550h170l132-185v-30z"/><glyph glyph-name="cent.tf" horiz-adv-x="650" d="M453 135q43 7 77 27V17Q492 1 453-6v-114H343v106Q240-7 170 54.5T100 230q0 121 70 187.5T343 494v106h110V488q42-10 72-25V318q-28 17-72 27V135zM343 342q-68-26-68-102 0-74 68-100v202z"/><glyph glyph-name="currency.tf" horiz-adv-x="650" d="M223 172l-81-81-76 76 76 76q-29 47-29 107t29 108l-76 76 75 76 82-82q45 22 102 22t102-22l82 82 75-76-76-76q29-48 29-108t-29-107l76-76-76-76-81 81q-45-22-102-22t-102 22zm30 178q0-29 18-50.5t54-21.5 54 21.5 18 50.5-18 50.5-54 21.5-54-21.5-18-50.5z"/><glyph glyph-name="dollar.tf" horiz-adv-x="650" d="M382-130H272v117Q154-3 60 49v175q115-79 255-79 56 0 80 10.5t24 36.5q0 27-38 45t-92.5 32.5T180 305t-92 68-38 116q0 90 61.5 142T272 693v117h110V691q99-13 167-52V469q-90 68-220 66-89-1-89-45 0-21 27.5-36t68.5-24.5 88.5-26.5 88.5-38.5 68.5-64.5T609 199Q609 7 382-13v-117z"/><glyph glyph-name="Euro.tf" horiz-adv-x="650" d="M322 220q60-72 179-72 62 0 114 23V6q-67-21-140-21-82 0-154 24T191.5 87 109 220H20v100h72v40H20v100h90q25 77 81.5 131.5t126.5 79T466 695q75 0 144-21V511q-53 22-112 22-112 0-175-73h197V360H283q-1-6-1-20t1-20h237V220H322z"/><glyph glyph-name="sterling.tf" horiz-adv-x="650" d="M608 0H48v145h20q32 0 51 24t19 62v39H61v130h77v49q0 125 71 185.5T400 695q89 0 167-36V514q-59 46-138 46-57 0-89-29t-32-85v-46h178V270H308v-39q0-61-38-86h338V0z"/><glyph glyph-name="yen.tf" horiz-adv-x="650" d="M441 680h198L468 360h107V250H417v-50h158V90H417V0H233v90H75v110h158v50H75v110h107L11 680h198l116-269z"/></font>
</defs>
</svg>
