<svg xmlns="http://www.w3.org/2000/svg"><defs><font id="MullerUltraLightItalic" horiz-adv-x="618"><font-face font-family="Muller UltraLight Italic" font-weight="250" font-style="italic" ascent="780" descent="-220" x-height="480" cap-height="700" bbox="-207 -231 1215.21 932" underline-thickness="50" underline-position="-225" slope="-9" unicode-range="U+0020-25CA"/><glyph glyph-name="f_f" unicode="ff" horiz-adv-x="669" d="M749 663q-39 22-102 22-127 0-147-121l-14-84h205l-5-36H481L410 0h-38l71 444H171L100 0H62l71 444H49l5 36h84l10 58q12 76 67 116.5T346 695t147-47q47 73 148 73 70 0 113-24zM176 480h272l14 88q4 25 14 50-58 41-129 41-66 0-109-32t-53-92z"/><glyph glyph-name="f_f_i" unicode="ffi" horiz-adv-x="846" d="M100 0H62l71 444H49l5 36h84l10 58q12 76 66.5 116.5T346 695q81 0 152-51 55 71 155 71 81 0 149-43l-6-38q-64 45-141 45-62 0-104.5-33T498 551l-12-71h305L715 0h-38l70 444H481L410 0h-38l71 444H171zm85 535l-9-55h272l12 74q6 35 20 60-63 45-133 45-66 0-109-32t-53-92z"/><glyph glyph-name="f_f_l" unicode="ffl" horiz-adv-x="856" d="M794 679l3 17 40 11L725 0h-38l102 643q-59 36-135 36-62 0-104-32.5T498 551l-12-71h184l-5-36H481L410 0h-38l71 444H171L100 0H62l71 444H49l5 36h84l10 58q12 76 67 116.5T346 695q80 0 151-51 56 71 155 71 79 0 142-36zM448 480l12 74q6 37 20 60-59 45-133 45-65 0-108.5-32T185 535l-9-55h272z"/><glyph glyph-name=".notdef" horiz-adv-x="265"/><glyph glyph-name=".null" horiz-adv-x="0"/><glyph glyph-name="nonmarkingreturn" horiz-adv-x="333"/><glyph glyph-name="space" horiz-adv-x="265"/><glyph glyph-name="exclam" unicode="!" horiz-adv-x="204" d="M102 177H68l80 523h40zM91 19Q84-7 59-7 46-7 38 1.5T32 25q5 26 31 26 14 0 21.5-8.5T91 19z"/><glyph glyph-name="quotedbl" unicode="&quot;" horiz-adv-x="267" d="M235 556h-27l23 144h38zm-100 0h-27l23 144h38z"/><glyph glyph-name="numbersign" unicode="#" horiz-adv-x="649" d="M79 0H40l73 185H24l6 34h97l96 243H118l5 34h113l73 185h38l-72-185h239l73 185h39l-73-185h87l-5-34h-95l-96-243h103l-6-34H430L357 0h-39l73 185H152zm183 462l-96-243h239l95 243H262z"/><glyph glyph-name="dollar" unicode="$" horiz-adv-x="570" d="M241-130h-34l19 120Q100-2 17 48l6 39q97-60 227-60 86 0 148.5 32.5T471 162q7 47-20 81t-73 51.5-100 38-99 40.5-71 60-17 96q13 76 85 117.5T337 690l18 120h34l-18-120q101-6 169-49l-6-37q-79 49-193 49-76 0-138-32.5T131 525q-7-41 12-71.5t55-48.5 80-33.5 88-32.5 79.5-38.5 54-57.5 11.5-84q-13-85-84.5-126.5T260-11z"/><glyph glyph-name="percent" unicode="%" horiz-adv-x="878" d="M199-60h-40l539 820h40zm182 620q-10-68-59.5-105.5T210 417q-61 0-101.5 41T79 568q11 68 60.5 105.5T252 711q61 0 100.5-41T381 560zm-266 5q-8-51 20-82.5t76-31.5q51 0 89 30t47 82q7 51-21 82.5T251 677q-52 0-90-30t-46-82zm703-433q-11-68-60.5-105.5T647-11q-62 0-102.5 41T515 140q11 68 60.5 105.5T688 283q61 0 101-41t29-110zm-267 5q-8-51 20-82.5T647 23q51 0 89 30t47 82q7 51-21 82.5T687 249q-52 0-90-30t-46-82z"/><glyph glyph-name="ampersand" unicode="&amp;" horiz-adv-x="681" d="M520 113L628 0h-47l-85 89Q389-11 236-11 131-11 76 40T33 167q10 65 62.5 113T228 371q-84 95-70 177 11 68 73 115.5T381 711q75 0 121-40.5T538 567q-3-18-12-35t-19-30.5-29-29-32.5-25.5-39.5-24.5-39-21-42.5-21T285 361l210-221q70 77 84 177h39q-18-117-98-204zM381 674q-79 0-128-38.5T195 541q-10-67 65-153 9 4 32.5 15.5t35 17.5 34 17 34.5 19 30 19.5 28 21.5 21 22.5 17 25 8 25.5q7 46-27.5 74.5T381 674zM72 164q-9-60 36.5-99T241 26q133 0 230 89L253 344q-35-18-61-34.5t-53.5-39T94 221t-22-57z"/><glyph glyph-name="quotesingle" unicode="'" horiz-adv-x="167" d="M135 556h-27l23 144h38z"/><glyph glyph-name="parenleft" unicode="(" horiz-adv-x="257" d="M277 808h39q-82-96-140-218.5T99 347q-19-119 .5-240T171-108h-38Q80-11 59.5 111T58 353q19 118 77.5 238.5T277 808z"/><glyph glyph-name="parenright" unicode=")" horiz-adv-x="258" d="M105 808h37q53-98 74-219.5t2-241.5q-18-117-77-238T-1-108h-40Q41-12 99 110.5T176 353q19 118 0 239.5T105 808z"/><glyph glyph-name="asterisk" unicode="*" horiz-adv-x="426" d="M250 524L148 406l-26 21 104 113-127 41 17 33 125-48 18 134h35l-25-134 140 48 7-34-141-40 69-113-32-21z"/><glyph glyph-name="plus" unicode="+" horiz-adv-x="532" d="M297 368h197l-6-36H291l-31-197h-37l32 197H58l5 36h197l32 197h36z"/><glyph glyph-name="comma" unicode="," horiz-adv-x="204" d="M6-144h-32L60 74h40z"/><glyph glyph-name="hyphen" unicode="-" horiz-adv-x="485" d="M64 262h347l-5-36H59z"/><glyph glyph-name="period" unicode="." horiz-adv-x="195" d="M89 20Q84-7 57-7 43-7 35 2t-5 23q1 12 10.5 19.5T62 52q14 0 21.5-8.5T89 20z"/><glyph glyph-name="slash" unicode="/" horiz-adv-x="413" d="M18-57h-31l426 814h31z"/><glyph glyph-name="zero" unicode="0" horiz-adv-x="704" d="M66 346q25 157 114 251t233 94 205-98.5T654 334Q628 176 539 82.5T306-11 101.5 87.5 66 346zm549-8q23 145-27.5 230T412 653q-127 0-205-82.5T106 342q-23-145 27-230t175-85q128 0 206 82.5T615 338z"/><glyph glyph-name="one" unicode="1" horiz-adv-x="404" d="M282 680h28L209 38h138l-6-38H9l6 38h154l95 599-163-58 6 38z"/><glyph glyph-name="two" unicode="2" horiz-adv-x="561" d="M126 629q103 62 216 62 96 0 151.5-47T537 519q-6-41-26-75.5T455.5 380t-67-48.5T305 285q-112-60-145-84Q70 134 52 38h417l-6-38H3l4 23q8 48 28 88.5T77.5 179t62.5 55 66.5 43 75.5 40q49 24 77 40.5t62 42.5 52.5 56.5T498 524q10 60-34 95t-126 35q-106 0-218-67z"/><glyph glyph-name="three" unicode="3" horiz-adv-x="586" d="M537 507q-9-54-48.5-97T385 353q65-12 102.5-56.5T513 178q-15-90-88.5-139.5T246-11Q109-11 21 34l5 37q90-45 219-45 93 0 155.5 41T475 184q12 75-37.5 112T301 333H201l7 37h94q86-1 136.5 40T498 510q10 62-33.5 103T338 654q-105 0-216-47l6 40q102 44 216 44 96 0 150-53t43-131z"/><glyph glyph-name="four" unicode="4" horiz-adv-x="638" d="M483 680h44l-76-477h141l-5-38H446L419 0h-39l26 165H9l5 35zm-72-477l68 422L65 203h346z"/><glyph glyph-name="five" unicode="5" horiz-adv-x="578" d="M163 680h391l-6-38H195l-60-267q78 23 155 23 49 0 91.5-12t75.5-36 48-65.5 7-94.5q-15-91-92-146T234-11Q109-11 23 36l5 36q86-46 204-46 96 0 162 46t78 123q13 85-42.5 125.5T277 361q-96 0-190-33z"/><glyph glyph-name="six" unicode="6" horiz-adv-x="608" d="M558 617q-60 36-139 36-123 0-206-80.5T102 317q0-3-1-4 122 100 254 100 43 0 81-13t66.5-38.5 42-66.5 5.5-93q-16-99-90.5-156T286-11Q153-11 96 78.5T63 324q30 187 124 277t232 90q82 0 145-38zm-48-412q13 86-34.5 128.5T346 376q-65 0-131-28.5T96 268q-8-117 40-179.5T285 26q86 0 148.5 47T510 205z"/><glyph glyph-name="seven" unicode="7" horiz-adv-x="517" d="M92 680h464l-6-34L139 0H95l409 642H86z"/><glyph glyph-name="eight" unicode="8" horiz-adv-x="643" d="M568 159q-11-70-85-120T288-11Q157-11 92.5 48T41 193q17 115 162 186-99 53-84 148 11 67 79 115.5T380 691q110 0 169-57.5T597 502q-14-101-139-176 128-55 110-167zM80 192q-11-72 44-119t167-47q99 0 163.5 40.5T528 165q6 37-6.5 64.5t-43 45.5-60 28.5T342 328q-5 1-8 2-63 19-97 31-66-29-107-72.5T80 192zm254 174q76-21 89-25 120 69 135 162 9 60-38.5 105.5T379 654q-94 0-153-38t-67-92q-6-35 5-61.5t43-45 51-26 64-21.5q8-3 12-4z"/><glyph glyph-name="nine" unicode="9" horiz-adv-x="609" d="M74 478q16 99 90.5 156T338 691q132 0 189.5-89.5T561 356Q531 169 437 79T205-11q-82 0-145 38l6 37q58-37 139-37 123 0 206 81t111 258q-120-99-253-99-93 0-152 55T74 478zm265 176q-86 0-148.5-46.5T114 475q-13-86 34.5-128.5T278 304q64 0 130 28.5T527 412q10 116-38.5 179T339 654z"/><glyph glyph-name="colon" unicode=":" horiz-adv-x="201" d="M147 399q-3-26-32-26-13 0-21 8.5T88 405q5 26 32 26 14 0 21.5-8.5T147 399zM88 20Q83-7 55-7 42-7 34 2t-5 23q1 12 10.5 19.5T60 52q15 0 22.5-8.5T88 20z"/><glyph glyph-name="semicolon" unicode=";" horiz-adv-x="292" d="M46-144H14l86 218h40zm151 585q-1-12-10.5-19.5T165 414q-13 0-21 8.5t-6 23.5q1 12 11 19.5t21 7.5q14 0 21.5-8.5T197 441z"/><glyph glyph-name="less" unicode="&lt;" horiz-adv-x="483" d="M393 209l-6-38L51 331l6 39 386 159-5-39L93 350z"/><glyph glyph-name="equal" unicode="=" horiz-adv-x="546" d="M490 422H93l6 37h397zm-28-181H65l5 37h398z"/><glyph glyph-name="greater" unicode="&gt;" horiz-adv-x="481" d="M442 330L56 171l6 39 345 140-300 141 5 38 337-160z"/><glyph glyph-name="question" unicode="?" horiz-adv-x="490" d="M236 192h-38q7 47 45 96t80 84.5 80.5 83T449 548q10 60-33 92.5T289 673q-97 0-199-57l6 40q98 55 200 55 95 0 150-44t42-121q-6-40-32.5-79.5t-61-72T326 330t-59.5-68-30.5-70zM220 20q-5-27-32-27-14 0-22 9t-5 23q1 12 10.5 19.5T193 52q14 0 21.5-8.5T220 20z"/><glyph glyph-name="at" unicode="@" horiz-adv-x="1057" d="M43 250q14 91 60 173.5t116.5 147 170 102.5T602 711q87 0 159.5-27t120-71.5 78-101.5 40-118 .5-120q-20-129-80.5-196.5T779 9q-62 0-95 32.5T655 134q-31-47-79.5-74.5T471 32q-83 0-131 58.5T307 240q14 90 78 147t147 57q56 0 96-29t56-75l15 95h37l-45-282Q675 43 780 43q67 0 115.5 61.5T961 279q11 68-7 136.5T893.5 542 774 636.5 600 673q-207 0-348.5-125.5T82 244Q66 144 91.5 60T173-78.5 308.5-163 480-193q123 0 230 37l-6-40q-102-35-226-35-100 0-186 32.5T144-106 54 46.5 43 250zm633 41q-8 50-45.5 83.5T535 408q-71 0-125-46.5T344 237q-12-76 26-122.5T476 68q59 0 109 34.5t74 84.5z"/><glyph glyph-name="A" unicode="A" horiz-adv-x="710" d="M649 0h-41l-60 204H138L14 0h-45l428 700h46zM405 641L160 241h379L421 642q-4 11-5 20-7-14-11-21z"/><glyph glyph-name="B" unicode="B" horiz-adv-x="680" d="M167 700h260q104 0 162.5-45.5T634 521q-11-66-55-104t-106-49q29-6 53-17t47-31 33-54.5 4-79.5Q579 0 313 0H56zm404-505q6 38-4 67t-28.5 44.5-45.5 25-50 12.5-48 3H151L102 38h209q36 0 64.5 2.5t63.5 12T499 78t45 46 27 71zm23 328q11 72-36 105.5T419 662H200l-44-277h251q71 0 123.5 34T594 523z"/><glyph glyph-name="C" unicode="C" horiz-adv-x="648" d="M62 359q18 112 86 194.5t154 120T478 711q106 0 184-49l-6-38q-70 49-175 49-61 0-122-20t-114.5-58-92-101T101 353q-13-80 6-144t60.5-102.5 95.5-59T377 27q106 0 197 51l-6-42q-89-47-200-47-66 0-126 23.5t-106 68-67 117T62 359z"/><glyph glyph-name="D" unicode="D" horiz-adv-x="732" d="M167 700h203q181 0 262.5-97.5T689 347Q665 190 556.5 95T263 0H56zm483-347q23 142-48 225.5T368 662H200L102 38h166q163 0 261.5 85T650 353z"/><glyph glyph-name="E" unicode="E" horiz-adv-x="624" d="M167 700h459l-6-38H200l-45-291h389l-6-38H149L102 38h426l-7-38H56z"/><glyph glyph-name="F" unicode="F" horiz-adv-x="601" d="M167 700h461l-7-38H200l-47-300h392l-6-38H147L96 0H56z"/><glyph glyph-name="G" unicode="G" horiz-adv-x="711" d="M63 363q12 72 43 131t73.5 98.5 95 67T380 699t107 12q113 0 198-47l-6-38q-73 47-189 47-63 0-123.5-17.5t-116-53.5-95.5-99-53-146 6.5-148.5 62.5-104 98.5-58T388 27q98 0 182 39l47 301h41L605 36Q498-11 385-11q-70 0-132.5 22.5T141 78 70 195.5 63 363z"/><glyph glyph-name="H" unicode="H" horiz-adv-x="767" d="M691 700h39L619 0h-39l52 333H148L96 0H56l111 700h40l-52-329h484z"/><glyph glyph-name="I" unicode="I" horiz-adv-x="244" d="M167 700h40L96 0H56z"/><glyph glyph-name="J" unicode="J" horiz-adv-x="522" d="M228 700h264l-80-510Q396 89 330.5 39.5T165-10Q56-10-9 33l6 39q64-44 163-44 186 0 212 166l75 468H221z"/><glyph glyph-name="K" unicode="K" horiz-adv-x="655" d="M644 700h46L387 357 605 0h-43L353 340H149L96 0H56l111 700h40l-51-322h202z"/><glyph glyph-name="L" unicode="L" horiz-adv-x="569" d="M167 700h40L102 38h418l-6-38H56z"/><glyph glyph-name="M" unicode="M" horiz-adv-x="901" d="M826 700h38L753 0h-39l99 626-363-437h-27L196 627 96 0H56l111 700h34l240-464z"/><glyph glyph-name="N" unicode="N" horiz-adv-x="767" d="M96 0H56l111 700h33L591 65q1 12 3.5 30t3.5 24l93 581h39L619 0h-32L196 636q-1-7-4-25.5t-4-28.5z"/><glyph glyph-name="O" unicode="O" horiz-adv-x="824" d="M783 347q-11-67-44-130t-84.5-114.5-127-82.5T365-11q-85 0-150.5 32T113 105 62.5 221.5 59 353t44.5 130 85 114.5T315 680t161 31q85 0 150.5-32t102-84T779 478.5t4-131.5zm-685 2q-9-59 2.5-115t42-103 89-75.5T367 27q78 0 145.5 28t114 74.5T703 233t40 118q9 59-2.5 115t-42 103-89 75.5T474 673q-78 0-146-28t-114.5-74.5-76-103.5T98 349z"/><glyph glyph-name="P" unicode="P" horiz-adv-x="656" d="M167 700h223q47 0 87-6.5t76-22.5 59-40.5 33-63.5 2-89q-35-217-326-217H137L96 0H56zm441-217q8 51-6 87.5T555 626t-73 27.5-92 8.5H200l-57-363h184q253 0 281 184z"/><glyph glyph-name="Q" unicode="Q" horiz-adv-x="824" d="M724-33l-29-25-97 116Q493-11 365-11q-85 0-150.5 32T113 105 62.5 221.5 59 353t44.5 130 85 114.5T315 680t161 31q85 0 150.5-32t102-84T779 478.5t4-131.5q-12-76-52-146.5T628 80zM98 349q-9-59 2.5-115t42-103 89-75.5T367 27q112 0 206 61L445 239l28 24 130-154q57 46 93 110t47 132q9 59-2.5 115t-42 103-89 75.5T474 673q-78 0-146-28t-114.5-74.5-76-103.5T98 349z"/><glyph glyph-name="R" unicode="R" horiz-adv-x="686" d="M96 0H56l111 700h262q47 0 88.5-11.5T593 654t50-65 7-97q-15-95-84-143.5T404 292L617 0h-47L359 289H141zm104 662l-52-335h227q86 0 153.5 41T610 497q8 45-5 78.5T564 627t-62 26.5-73 8.5H200z"/><glyph glyph-name="S" unicode="S" horiz-adv-x="569" d="M96 545q9 56 50 95t93 55 111 16q113 0 194-51l-5-38q-76 51-189 51-82 0-142.5-32T136 541q-7-42 12-73t54-50 78.5-35 87-34 78.5-40.5 53-60.5 10-89q-9-60-49.5-99.5T366 4.5 249-11Q114-11 16 48l6 39q96-60 226-60 57 0 102 12t78.5 43 40.5 79q7 44-12 77t-54 53-78.5 36.5-86.5 34-78 39.5-53 58.5T96 545z"/><glyph glyph-name="T" unicode="T" horiz-adv-x="590" d="M76 700h567l-7-38H373L268 0h-39l104 662H70z"/><glyph glyph-name="U" unicode="U" horiz-adv-x="752" d="M683 700h40l-72-457Q630 109 545 49T333-11q-128 0-197.5 61.5T87 246l72 454h40l-72-455Q92 27 332 27q245 0 280 220z"/><glyph glyph-name="V" unicode="V" horiz-adv-x="680" d="M314 0h-40L83 700h41L300 45l383 655h45z"/><glyph glyph-name="W" unicode="W" horiz-adv-x="989" d="M989 700h42L700 0h-45L551 624 247 0h-46L89 700h40L232 52l313 642h33L685 57z"/><glyph glyph-name="X" unicode="X" horiz-adv-x="615" d="M12 0h-50l334 362L90 700h44l189-309 286 309h50L342 357 559 0h-43L316 328z"/><glyph glyph-name="Y" unicode="Y" horiz-adv-x="631" d="M289 0h-39l44 279L86 700h42l190-382 312 382h46L334 279z"/><glyph glyph-name="Z" unicode="Z" horiz-adv-x="571" d="M496 0H-20l5 35 556 627H102l6 38h490l-6-35L36 38h466z"/><glyph glyph-name="bracketleft" unicode="[" horiz-adv-x="248" d="M163-110H13l145 920h150l-5-38H192L58-72h111z"/><glyph glyph-name="backslash" unicode="\" horiz-adv-x="406" d="M312-57h-30L114 757h29z"/><glyph glyph-name="bracketright" unicode="]" horiz-adv-x="247" d="M108-110H-42l5 38H75l133 844H98l5 38h150z"/><glyph glyph-name="asciicircum" unicode="^" horiz-adv-x="493" d="M116 398H72l225 302h34l129-302h-41L309 658z"/><glyph glyph-name="underscore" unicode="_" horiz-adv-x="434" d="M367-132H-67l6 36h434z"/><glyph glyph-name="grave" unicode="`" horiz-adv-x="170" d="M250 776h-40l-73 137h46z"/><glyph glyph-name="a" unicode="a" horiz-adv-x="615" d="M471 113q-40-56-100-90T240-11Q137-11 79 61T39 246q18 110 96.5 177.5T315 491q69 0 121-36t74-91l19 116h35L488 0h-35zM76 242q-15-98 33.5-157.5T245 25q73 0 135.5 41T476 169l22 142q-12 61-61.5 102.5T317 455q-88 0-156.5-57T76 242z"/><glyph glyph-name="b" unicode="b" horiz-adv-x="614" d="M146 700h38l-53-331q38 54 99 88t129 34q100 0 159-72.5T559 234q-17-111-93.5-178T284-11q-72 0-122 35.5T89 118L70 0H35zm376-462q15 97-35 157t-134 60q-73 0-135.5-41.5T122 309L99 170q13-63 61.5-104T281 25q93 0 159 56.5T522 238z"/><glyph glyph-name="c" unicode="c" horiz-adv-x="493" d="M39 244q13 83 62 141t109 82 124 24q83 0 140-41l-6-36q-49 41-131 41-58 0-110.5-21T131 362.5 76 239Q60 136 114 80.5T260 25q85 0 157 40l-5-39q-73-37-158-37-105 0-169.5 66.5T39 244z"/><glyph glyph-name="d" unicode="d" horiz-adv-x="615" d="M561 700h38L488 0h-35l19 116q-38-57-99-92T240-11Q138-11 79.5 61T39 246q18 110 94.5 177.5T313 491q72 0 123-35.5t71-91.5zm-62-390q-13 63-61.5 104T317 455q-90 0-157.5-57T76 242q-15-97 34-157t135-60q73 0 135.5 41.5T476 171z"/><glyph glyph-name="e" unicode="e" horiz-adv-x="545" d="M38 242q19 115 97.5 182T309 491q62 0 106.5-26t62.5-65.5 22.5-87.5-13.5-93H74q-8-66 20-111.5t73.5-64T270 25q90 0 165 39l-6-39q-70-36-164-36-49 0-93 15T93.5 49t-50 80T38 242zm420 11q11 32 6 67.5T445 386t-50 49.5-86 19.5q-82 0-147.5-54T78 253h380z"/><glyph glyph-name="f" unicode="f" horiz-adv-x="359" d="M151 562q13 78 62.5 113.5T332 711q63 0 111-24l-6-35q-41 23-101 23-129 0-147-117l-13-78h205l-5-36H171L100 0H62l71 444H49l5 36h84z"/><glyph glyph-name="g" unicode="g" horiz-adv-x="615" d="M488-1q-19-118-98.5-174T203-231q-108 0-181 48l6 36q71-48 172-48 96 0 165 47.5T450 1l18 109q-37-53-97.5-87T240-11Q136-11 78.5 60.5T39 246q18 110 95.5 177.5T315 491q72 0 122-36t73-95l18 120h36zM76 242q-15-97 33-157t136-60q73 0 135.5 41T476 168l23 143q-13 62-61.5 103T317 455q-89 0-157-57T76 242z"/><glyph glyph-name="h" unicode="h" horiz-adv-x="578" d="M146 700h38l-51-317q95 108 212 108 82 0 127-54t31-143L456 0h-38l47 293q12 77-24.5 119.5T337 455q-63 0-119.5-36T125 333L73 0H35z"/><glyph glyph-name="i" unicode="i" horiz-adv-x="208" d="M77 0H39l76 480h38zm108 617q-4-25-31-25-13 0-20 8t-5 22q3 25 30 25 29 0 26-30z"/><glyph glyph-name="j" unicode="j" horiz-adv-x="208" d="M59-111Q41-231-79-231q-39 0-71 13l5 34q28-11 60-11 92 0 108 92l92 583h38zm125 728q-4-25-31-25-13 0-20 8t-5 22q3 25 30 25 29 0 26-30z"/><glyph glyph-name="k" unicode="k" horiz-adv-x="496" d="M452 480h45L265 247 446 0h-43L231 233H110L73 0H35l111 700h38l-69-431h125z"/><glyph glyph-name="l" unicode="l" horiz-adv-x="208" d="M155 730h38L77 0H39z"/><glyph glyph-name="m" unicode="m" horiz-adv-x="893" d="M471 388q97 103 202 103 79 0 119-51.5T820 307L771 0h-38l49 309q11 65-20 105.5T668 455q-103 0-190-105 1-18-2-43L427 0h-38l49 309q11 65-20 105.5T324 455q-59 0-110-34.5T127 341L73 0H35l76 480h34l-15-95q35 42 87.5 74T329 491q56 0 93.5-28t48.5-75z"/><glyph glyph-name="n" unicode="n" horiz-adv-x="578" d="M129 380q98 111 216 111 82 0 127-54t31-143L456 0h-38l47 293q12 77-24.5 119.5T337 455q-63 0-119.5-36T125 334L73 0H35l76 480h34z"/><glyph glyph-name="o" unicode="o" horiz-adv-x="592" d="M537 234Q519 120 436 54.5T250-11q-99 0-164 70.5T39 246q19 114 102.5 179.5T327 491q100 0 164.5-70.5T537 234zm-460 6q-15-97 37.5-155.5T253 26q90 0 161 57t87 157q15 97-37.5 155.5T325 454q-90 0-161-57T77 240z"/><glyph glyph-name="p" unicode="p" horiz-adv-x="614" d="M127 364q40 57 101 92t131 35q101 0 159.5-72T559 234q-17-110-94.5-177.5T284-11q-72 0-122 35.5T91 118L38-220H0l111 700h35zm395-126q16 97-33 157t-135 60q-72 0-135-42t-97-105l-22-139q13-62 61.5-103T281 25q91 0 158.5 57T522 238z"/><glyph glyph-name="q" unicode="q" horiz-adv-x="615" d="M39 246q18 110 96.5 177.5T315 491q69 0 121-36.5t74-92.5l19 118h35L453-220h-38l52 330q-37-53-96.5-87T240-11Q137-11 79 61T39 246zm460 66q-12 61-62 102t-120 41q-88 0-156.5-57T76 242q-15-98 33.5-157.5T245 25q73 0 135.5 41T476 169z"/><glyph glyph-name="r" unicode="r" horiz-adv-x="345" d="M125 349q35 64 96.5 104T363 490l-6-39q-79 5-144-43t-94-119L73 0H35l76 480h35z"/><glyph glyph-name="s" unicode="s" horiz-adv-x="458" d="M60 368q9 62 65 92.5T254 491q92 0 159-42l-5-36q-61 43-155 43-59 0-104-23t-51-69q-6-39 25-63t78-36.5 93.5-27 76-45T392 113q-10-63-66.5-93.5T191-11q-51 0-99.5 13.5T14 39l6 37q67-51 172-51 64 0 109.5 22.5T355 116q6 39-24.5 62.5T253 215t-94 27.5T82.5 288 60 368z"/><glyph glyph-name="t" unicode="t" horiz-adv-x="370" d="M156 635l39 12-26-167h209l-5-36H164l-49-305Q96 25 212 25q59 0 109 25l-6-37q-48-24-113-24-67 0-102 38.5T77 136l49 308H36l5 36h90z"/><glyph glyph-name="u" unicode="u" horiz-adv-x="577" d="M488 480h38L450 0h-35l16 101q-35-45-92-78.5T219-11q-83 0-129 54T58 187l47 293h38L96 187q-12-77 24-119.5T224 25q64 0 120 36t91 86z"/><glyph glyph-name="v" unicode="v" horiz-adv-x="524" d="M493 480h42L236 0h-40L50 480h40L221 43z"/><glyph glyph-name="w" unicode="w" horiz-adv-x="796" d="M760 480h41L546 0h-39l-87 422L197 0h-40L54 480h38l92-430 225 424h35l88-424z"/><glyph glyph-name="x" unicode="x" horiz-adv-x="483" d="M15 0h-46l244 247L57 480h43l138-207 204 207h46L256 246 421 0h-43L232 219z"/><glyph glyph-name="y" unicode="y" horiz-adv-x="530" d="M235 39l263 441h42L202-85q-48-79-91.5-112.5T18-231q-21 0-51 7l5 33q22-6 43-6 43 0 79.5 30.5T171-69l41 69L45 480h39z"/><glyph glyph-name="z" unicode="z" horiz-adv-x="447" d="M74 480h360l-5-32L39 34h336l-5-34H-15l5 32 391 414H69z"/><glyph glyph-name="braceleft" unicode="{" horiz-adv-x="270" d="M173-76l-5-34q-60-11-84 15.5T69-12l40 252q7 48-14.5 70.5T35 333l5 35q38 0 67 23.5t37 72.5l40 251q19 118 129 95l-5-34q-40 7-59.5-12T221 697l-39-243q-13-86-85-105 65-18 52-106L110 0q-7-46 6.5-64T173-76z"/><glyph glyph-name="bar" unicode="|" horiz-adv-x="191" d="M54-100H14l144 910h40z"/><glyph glyph-name="braceright" unicode="}" horiz-adv-x="269" d="M104-15Q86-134-25-110l5 36q40-9 60 9T67-2l40 252q6 44 30.5 70t58.5 32q-30 7-46.5 34t-9.5 72l39 244q7 46-6.5 64.5T115 777l5 33q60 11 84-15.5t15-82.5l-39-251q-8-48 14.5-71.5T253 366l-5-34q-37 0-66.5-24T144 236z"/><glyph glyph-name="asciitilde" unicode="~" horiz-adv-x="577" d="M517 371q-3-42-30.5-67.5T417 278q-38 0-121.5 33.5T177 345q-28 0-46-15.5T110 288H74q4 43 31.5 68t69.5 25q39 0 122-33t118-33q28 0 46 15.5t20 40.5h36z"/><glyph glyph-name="exclamdown" unicode="¡" horiz-adv-x="190" d="M34-216H-6l86 523h34zm115 675q-5-26-31-26-13 0-21 8.5T92 464q1 12 10.5 19.5T123 491q13 0 21-9t5-23z"/><glyph glyph-name="cent" unicode="¢" horiz-adv-x="510" d="M478 450l-6-36q-48 39-128 41L276 25q79 3 145 40l-5-39Q350-8 270-11l-17-109h-34l17 110Q139-3 82 63T43 244q12 78 56.5 134t99.5 82 117 30l17 110h34l-17-109q76-3 128-41zm-168 3q-83-9-148.5-63T80 239t31-152 131-61z"/><glyph glyph-name="sterling" unicode="£" horiz-adv-x="603" d="M516 0H-6l6 38h32q38 0 62.5 25t31.5 70l30 186H74l6 38h82l17 107q12 81 53.5 133.5T324 670t109 20q80 0 138-39l-6-37q-55 39-133 39-79 0-138.5-45.5T218 461l-17-104h248l-6-38H195l-30-188q-10-74-59-94l416 1z"/><glyph glyph-name="currency" unicode="¤" horiz-adv-x="573" d="M154 201l-76-65-23 27 74 64q-40 52-27 126 10 71 66 122l-53 62 30 27 54-65q54 38 124 38 69 0 116-38l75 65 23-27-75-64q40-51 28-126-12-73-66-122l53-62-30-27-54 65q-56-38-125-38-68 0-114 38zm-14 146q-10-67 28-108t102-41q67 0 119.5 42.5T453 353q10 66-27.5 107.5T323 502q-67 0-119-42.5T140 347z"/><glyph glyph-name="yen" unicode="¥" horiz-adv-x="640" d="M618 680h44L359 309h166l-6-34H335l-14-87h185l-6-34H315L291 0h-40l25 154H92l6 34h183l15 87H111l6 34h166L97 680h43l180-366z"/><glyph glyph-name="brokenbar" unicode="¦" horiz-adv-x="210" d="M153 463h-40l54 347h40zM63-100H23l55 347h40z"/><glyph glyph-name="section" unicode="§" horiz-adv-x="488" d="M391 86q-9-58-65-89T195-34Q97-34 30 11l5 36Q103 0 194 0q64 0 108.5 23.5T354 90q4 25-4.5 43T318 164t-42 20-55 18q-33 9-49.5 14.5t-42.5 18T91.5 260t-19 35-3.5 49q13 79 119 131-82 36-71 114 10 58 64 90t123 32q84 0 151-40l-5-36q-60 42-145 42-57 0-100-25t-50-68q-4-25 5.5-43t30-29.5 45.5-20 55-16.5q3 0 5-.5t4-1.5q36-10 59-19t46.5-25 33-40 4.5-56q-13-76-126-129 87-38 74-118zM233 234q3-1 21-6t27-8q46 16 82 44t42 69q3 19-2 35t-14.5 26-28 19.5-33.5 15-40 12.5q-59 17-62 18-42-13-77.5-43.5T106 344q-3-20 3.5-36.5t15.5-26 31-20 35-14.5 42-13z"/><glyph glyph-name="dieresis" unicode="¨" horiz-adv-x="282" d="M384 833q-2-11-11.5-19.5T351 805q-14 0-22 10t-6 23q2 11 12 20t21 9q14 0 22-10t6-24zm-201 0q-2-11-11.5-19.5T150 805q-14 0-22 10t-6 23q2 11 12 20t21 9q14 0 22-10t6-24z"/><glyph glyph-name="copyright" unicode="©" horiz-adv-x="854" d="M809 344q-14-86-58-155.5t-104.5-112-128.5-65T382-11q-67 0-128.5 24T144 81 73 197t-9 159q13 86 57 155.5t104.5 112 129 65T490 711t129-24 110-68 71-116 9-159zM556 183q-65-34-136-34-80 0-132 52t-37 147q16 100 87 151.5T490 551q70 0 118-35l-3-30q-46 34-110 34-74 0-135-43.5T284 344q-13-81 30-122.5T427 180t133 34zM83 354q-10-66 1.5-123t40-97.5 69-69.5T282 21t98-14q66 0 131.5 21.5t124 61.5T736 197t55 149q13 81-8 149t-65 110-102.5 65T493 693q-65 0-130.5-21.5t-124-61.5T138 503 83 354z"/><glyph glyph-name="guillemotleft" unicode="«" horiz-adv-x="434" d="M334 66h-40l-93 169 2 11 145 168h42L239 239zm-159 0h-40L42 235l2 11 145 168h42L80 239z"/><glyph glyph-name="logicalnot" unicode="¬" horiz-adv-x="579" d="M500 294h-38l24 150H94l5 36h431z"/><glyph glyph-name="registered" unicode="®" horiz-adv-x="854" d="M809 344q-14-86-58-155.5t-104.5-112-128.5-65T382-11q-67 0-128.5 24T144 81 73 197t-9 159q13 86 57 155.5t104.5 112 129 65T490 711t129-24 110-68 71-116 9-159zM83 354q-10-66 1.5-123t40-97.5 69-69.5T282 21t98-14q66 0 131.5 21.5t124 61.5T736 197t55 149q13 81-8 149t-65 110-102.5 65T493 693q-65 0-130.5-21.5t-124-61.5T138 503 83 354zm220-204h-30l62 395h154q55 0 96.5-28.5T616 420q-14-87-107-107l88-163h-33l-86 158q-10-1-29-1H327zm58 365l-29-179h122q119 0 133 89 5 29-3.5 48t-27 27.5T521 512t-37 3H361z"/><glyph glyph-name="macron" unicode="¯" horiz-adv-x="312" d="M136 840h264l-5-36H131z"/><glyph glyph-name="degree" unicode="°" horiz-adv-x="389" d="M384 570q-11-65-59.5-103T217 429q-60 0-98.5 41T91 577q10 64 59 102t107 38q60 0 98.5-40.5T384 570zm-264 4q-8-51 21-83t76-32q50 0 89.5 30.5T354 573q8 50-20.5 82T258 687q-50 0-89.5-30.5T120 574z"/><glyph glyph-name="plusminus" unicode="±" horiz-adv-x="578" d="M357 579l-31-197h197l-6-37H320l-31-197h-36l31 197H87l5 37h197l32 197h36zM462 0H32l6 36h430z"/><glyph glyph-name="acute" unicode="´" horiz-adv-x="170" d="M173 776h-43l110 137h48z"/><glyph glyph-name="paragraph" unicode="¶" horiz-adv-x="602" d="M210-220h-39l81 512q-101 0-150.5 55T68 499q15 95 80.5 148T315 700h266L435-220h-40l140 882H349z"/><glyph glyph-name="periodcentered" unicode="·" horiz-adv-x="198" d="M120 236q-3-26-31-26-14 0-22 8.5T61 242q5 26 32 26 14 0 21.5-8.5T120 236z"/><glyph glyph-name="cedilla" unicode="¸" horiz-adv-x="211" d="M63 0h33L61-86q46 9 80-9.5t29-57.5q-5-36-37.5-57T46-231t-102 22l6 32q39-22 93-22 87 0 94 50 4 30-34 40t-84-4z"/><glyph glyph-name="guillemotright" unicode="»" horiz-adv-x="435" d="M230 66h-43l151 175-95 173h40l94-169-2-11zM71 66H28l151 175-95 173h40l94-169-2-11z"/><glyph glyph-name="onequarter" unicode="¼" horiz-adv-x="938" d="M801 408h37l-45-281h83l-5-31h-82L773 0h-33l15 96H521l5 30zm-40-281l36 233-228-233h192zM183-11h-23l571 722h23zm41 691h25l-60-376h77l-6-32H52l5 32h99l54 340-97-35 6 33z"/><glyph glyph-name="onehalf" unicode="½" horiz-adv-x="888" d="M178-11h-23l571 722h23zm418 389q61 37 130 37 57 0 92.5-29.5T845 307q-8-45-42.5-76.5T707 168q-30-16-40.5-21.5T633 126t-32.5-26T580 71t-14-39h241l-6-32H521l3 19q5 35 20 62.5t41.5 49T631 163t56 30q59 30 89 55.5t36 63.5q6 33-19 52t-68 19q-68 0-135-41zM219 680h25l-60-376h77l-6-32H47l5 32h99l54 340-97-35 6 33z"/><glyph glyph-name="threequarters" unicode="¾" horiz-adv-x="986" d="M253-11h-23l571 722h23zm596 419h37l-45-281h83l-5-31h-82L821 0h-33l15 96H569l5 30zm-40-281l36 233-228-233h192zM371 579q-5-32-28-57t-60-34q37-8 59-34.5t15-70.5q-9-55-54-84.5T191 269q-77 0-133 27l6 34q53-28 126-28 122 0 135 88 6 42-21 61t-76 19h-62l4 33h57q49 0 77.5 22.5T339 582q5 33-20.5 54.5T247 658q-67 0-129-29l6 35q59 27 128 27 58 0 92.5-32.5T371 579z"/><glyph glyph-name="questiondown" unicode="¿" horiz-adv-x="480" d="M374-173q-99-55-200-55-96 0-150.5 44T-19-63q6 40 33 80t61 73 68 65 60 67.5 31 68.5h37q-6-38-32-76t-59.5-71T112 79 52 9.5 20-65q-10-60 33.5-92.5T181-190q98 0 199 58zm-65 632q-1-12-10.5-19.5T277 432q-14 0-21.5 9t-4.5 23q1 12 10 19.5t21 7.5q14 0 22-8.5t5-23.5z"/><glyph glyph-name="Agrave" unicode="À" horiz-adv-x="710" d="M649 0h-41l-60 204H138L14 0h-45l428 700h46zM405 641L160 241h379L421 642q-4 11-5 20-7-14-11-21zm63 135h-40l-73 137h46z"/><glyph glyph-name="Aacute" unicode="Á" horiz-adv-x="710" d="M649 0h-41l-60 204H138L14 0h-45l428 700h46zM405 641L160 241h379L421 642q-4 11-5 20-7-14-11-21zm34 135h-43l110 137h48z"/><glyph glyph-name="Acircumflex" unicode="Â" horiz-adv-x="710" d="M649 0h-41l-60 204H138L14 0h-45l428 700h46zM405 641L160 241h379L421 642q-4 11-5 20-7-14-11-21zm30 266h33l108-131h-42l-85 101-116-101h-46z"/><glyph glyph-name="Atilde" unicode="Ã" horiz-adv-x="710" d="M649 0h-41l-60 204H138L14 0h-45l428 700h46zM405 641L160 241h379L421 642q-4 11-5 20-7-14-11-21zm185 222q-1-38-21.5-59.5T516 782q-30 0-82.5 26.5T361 835q-21 0-33-13t-12-34h-34q0 36 21.5 58.5T355 869q29 0 82.5-26.5T512 816q44 0 44 47h34z"/><glyph glyph-name="Adieresis" unicode="Ä" horiz-adv-x="710" d="M649 0h-41l-60 204H138L14 0h-45l428 700h46zM405 641L160 241h379L421 642q-4 11-5 20-7-14-11-21zm165 192q-2-11-11.5-19.5T537 805q-14 0-22 10t-6 23q2 11 12 20t21 9q14 0 22-10t6-24zm-201 0q-2-11-11.5-19.5T336 805q-14 0-22 10t-6 23q2 11 12 20t21 9q14 0 22-10t6-24z"/><glyph glyph-name="Aring" unicode="Å" horiz-adv-x="710" d="M649 0h-41l-60 204H138L14 0h-45l428 700h46zM405 641L160 241h379L421 642q-4 11-5 20-7-14-11-21zm130 200q-7-38-37-62.5T432 754q-38 0-63 26t-18 66q7 38 37 62t67 24q38 0 62.5-25.5T535 841zm-154 2q-4-27 11.5-44t39.5-17q26 0 48 16.5t26 45.5q4 26-11 43t-39 17q-27 0-49-16.5T381 843z"/><glyph glyph-name="AE" unicode="Æ" horiz-adv-x="997" d="M1001 700l-6-38H606l-46-291h359l-6-38H554L507 38h396l-7-38H462l32 205H172L-6 0h-48l608 700h447zM203 241h297l66 419z"/><glyph glyph-name="Ccedilla" unicode="Ç" horiz-adv-x="647" d="M656 624q-70 49-175 49-131 0-243.5-84T101 353q-13-80 6-144t60.5-102.5 95-59T376 27q107 0 198 51l-7-42Q482-9 377-11l-31-75q46 9 80-9.5t29-57.5q-5-36-37.5-57T331-231t-102 22l6 32q41-22 93-22 87 0 94 50 4 30-34 40t-84-4l40 103q-63 4-118.5 29.5t-98 70-61 114.5T61 359q14 85 56.5 153.5t101.5 111 125.5 65T478 711q106 0 184-49z"/><glyph glyph-name="Egrave" unicode="È" horiz-adv-x="624" d="M167 700h459l-6-38H200l-45-291h389l-6-38H149L102 38h426l-7-38H56zm278 76h-40l-73 137h46z"/><glyph glyph-name="Eacute" unicode="É" horiz-adv-x="624" d="M167 700h459l-6-38H200l-45-291h389l-6-38H149L102 38h426l-7-38H56zm249 76h-43l110 137h48z"/><glyph glyph-name="Ecircumflex" unicode="Ê" horiz-adv-x="624" d="M167 700h459l-6-38H200l-45-291h389l-6-38H149L102 38h426l-7-38H56zm245 207h33l108-131h-42l-85 101-116-101h-46z"/><glyph glyph-name="Edieresis" unicode="Ë" horiz-adv-x="624" d="M167 700h459l-6-38H200l-45-291h389l-6-38H149L102 38h426l-7-38H56zm380 133q-2-11-11.5-19.5T514 805q-14 0-22 10t-6 23q2 11 12 20t21 9q14 0 22-10t6-24zm-201 0q-2-11-11.5-19.5T313 805q-14 0-22 10t-6 23q2 11 12 20t21 9q14 0 22-10t6-24z"/><glyph glyph-name="Igrave" unicode="Ì" horiz-adv-x="244" d="M167 700h40L96 0H56zm67 76h-40l-73 137h46z"/><glyph glyph-name="Iacute" unicode="Í" horiz-adv-x="244" d="M167 700h40L96 0H56zm38 76h-43l110 137h48z"/><glyph glyph-name="Icircumflex" unicode="Î" horiz-adv-x="244" d="M167 700h40L96 0H56zm34 207h33l108-131h-42l-85 101L99 776H53z"/><glyph glyph-name="Idieresis" unicode="Ï" horiz-adv-x="244" d="M167 700h40L96 0H56zm169 133q-2-11-11.5-19.5T303 805q-14 0-22 10t-6 23q2 11 12 20t21 9q14 0 22-10t6-24zm-201 0q-2-11-11.5-19.5T102 805q-14 0-22 10t-6 23q2 11 12 20t21 9q14 0 22-10t6-24z"/><glyph glyph-name="Eth" unicode="Ð" horiz-adv-x="733" d="M167 700h204q180 0 262-97.5T690 347Q665 190 556.5 95T264 0H56l53 331H41l5 37h68zM268 38q163 0 261.5 85T650 353q23 142-48 225.5T368 662H200l-46-294h247l-5-37H148L102 38h166z"/><glyph glyph-name="Ntilde" unicode="Ñ" horiz-adv-x="767" d="M96 0H56l111 700h33L591 65q1 12 3.5 30t3.5 24l93 581h39L619 0h-32L196 636q-1-7-4-25.5t-4-28.5zm523 863q-1-38-21.5-59.5T545 782q-30 0-82.5 26.5T390 835q-21 0-33-13t-12-34h-34q0 36 21.5 58.5T384 869q29 0 82.5-26.5T541 816q44 0 44 47h34z"/><glyph glyph-name="Ograve" unicode="Ò" horiz-adv-x="824" d="M783 347q-11-67-44-130t-84.5-114.5-127-82.5T365-11q-85 0-150.5 32T113 105 62.5 221.5 59 353t44.5 130 85 114.5T315 680t161 31q85 0 150.5-32t102-84T779 478.5t4-131.5zm-685 2q-9-59 2.5-115t42-103 89-75.5T367 27q78 0 145.5 28t114 74.5T703 233t40 118q9 59-2.5 115t-42 103-89 75.5T474 673q-78 0-146-28t-114.5-74.5-76-103.5T98 349zm426 427h-40l-73 137h46z"/><glyph glyph-name="Oacute" unicode="Ó" horiz-adv-x="824" d="M783 347q-11-67-44-130t-84.5-114.5-127-82.5T365-11q-85 0-150.5 32T113 105 62.5 221.5 59 353t44.5 130 85 114.5T315 680t161 31q85 0 150.5-32t102-84T779 478.5t4-131.5zm-685 2q-9-59 2.5-115t42-103 89-75.5T367 27q78 0 145.5 28t114 74.5T703 233t40 118q9 59-2.5 115t-42 103-89 75.5T474 673q-78 0-146-28t-114.5-74.5-76-103.5T98 349zm397 427h-43l110 137h48z"/><glyph glyph-name="Ocircumflex" unicode="Ô" horiz-adv-x="824" d="M783 347q-11-67-44-130t-84.5-114.5-127-82.5T365-11q-85 0-150.5 32T113 105 62.5 221.5 59 353t44.5 130 85 114.5T315 680t161 31q85 0 150.5-32t102-84T779 478.5t4-131.5zm-685 2q-9-59 2.5-115t42-103 89-75.5T367 27q78 0 145.5 28t114 74.5T703 233t40 118q9 59-2.5 115t-42 103-89 75.5T474 673q-78 0-146-28t-114.5-74.5-76-103.5T98 349zm393 558h33l108-131h-42l-85 101-116-101h-46z"/><glyph glyph-name="Otilde" unicode="Õ" horiz-adv-x="824" d="M783 347q-11-67-44-130t-84.5-114.5-127-82.5T365-11q-85 0-150.5 32T113 105 62.5 221.5 59 353t44.5 130 85 114.5T315 680t161 31q85 0 150.5-32t102-84T779 478.5t4-131.5zm-685 2q-9-59 2.5-115t42-103 89-75.5T367 27q78 0 145.5 28t114 74.5T703 233t40 118q9 59-2.5 115t-42 103-89 75.5T474 673q-78 0-146-28t-114.5-74.5-76-103.5T98 349zm548 514q-1-38-21.5-59.5T572 782q-30 0-82.5 26.5T417 835q-21 0-33-13t-12-34h-34q0 36 21.5 58.5T411 869q29 0 82.5-26.5T568 816q44 0 44 47h34z"/><glyph glyph-name="Odieresis" unicode="Ö" horiz-adv-x="824" d="M783 347q-11-67-44-130t-84.5-114.5-127-82.5T365-11q-85 0-150.5 32T113 105 62.5 221.5 59 353t44.5 130 85 114.5T315 680t161 31q85 0 150.5-32t102-84T779 478.5t4-131.5zm-685 2q-9-59 2.5-115t42-103 89-75.5T367 27q78 0 145.5 28t114 74.5T703 233t40 118q9 59-2.5 115t-42 103-89 75.5T474 673q-78 0-146-28t-114.5-74.5-76-103.5T98 349zm528 484q-2-11-11.5-19.5T593 805q-14 0-22 10t-6 23q2 11 12 20t21 9q14 0 22-10t6-24zm-201 0q-2-11-11.5-19.5T392 805q-14 0-22 10t-6 23q2 11 12 20t21 9q14 0 22-10t6-24z"/><glyph glyph-name="multiply" unicode="×" horiz-adv-x="450" d="M230 326L76 193l-21 25 154 133L97 483l27 25 112-133 155 133 21-25-155-133 112-133-27-24z"/><glyph glyph-name="Oslash" unicode="Ø" horiz-adv-x="824" d="M89-48H49L150 66q-57 52-80 128.5T60 353q10 67 43.5 130T189 597.5 316 680t161 31q113 0 193-57l84 94h40L693 634q57-52 80-128.5T783 347q-10-67-43-130t-84.5-114.5-127-82.5T366-11q-113 0-193 57zm10 397q-11-73 8.5-140.5T176 95l468 529q-69 49-169 49-78 0-145.5-28t-114-74.5T139 467 99 349zM199 76q69-49 169-49 78 0 146 28t114.5 74.5 76 103.5T744 351q11 73-8 140.5T667 605z"/><glyph glyph-name="Ugrave" unicode="Ù" horiz-adv-x="752" d="M683 700h40l-72-457Q630 109 545 49T333-11q-128 0-197.5 61.5T87 246l72 454h40l-72-455Q92 27 332 27q245 0 280 220zm-198 76h-40l-73 137h46z"/><glyph glyph-name="Uacute" unicode="Ú" horiz-adv-x="752" d="M683 700h40l-72-457Q630 109 545 49T333-11q-128 0-197.5 61.5T87 246l72 454h40l-72-455Q92 27 332 27q245 0 280 220zm-227 76h-43l110 137h48z"/><glyph glyph-name="Ucircumflex" unicode="Û" horiz-adv-x="752" d="M683 700h40l-72-457Q630 109 545 49T333-11q-128 0-197.5 61.5T87 246l72 454h40l-72-455Q92 27 332 27q245 0 280 220zM452 907h33l108-131h-42l-85 101-116-101h-46z"/><glyph glyph-name="Udieresis" unicode="Ü" horiz-adv-x="752" d="M683 700h40l-72-457Q630 109 545 49T333-11q-128 0-197.5 61.5T87 246l72 454h40l-72-455Q92 27 332 27q245 0 280 220zm-96 133q-2-11-11.5-19.5T554 805q-14 0-22 10t-6 23q2 11 12 20t21 9q14 0 22-10t6-24zm-201 0q-2-11-11.5-19.5T353 805q-14 0-22 10t-6 23q2 11 12 20t21 9q14 0 22-10t6-24z"/><glyph glyph-name="Yacute" unicode="Ý" horiz-adv-x="631" d="M289 0h-39l44 279L86 700h42l190-382 312 382h46L334 279zm106 776h-43l110 137h48z"/><glyph glyph-name="Thorn" unicode="Þ" horiz-adv-x="652" d="M186 569h181q62 0 110-11t87-35 56-69 7-107q-35-216-326-216H117L96 0H56l111 700h40zm-64-400h184q252 0 281 184 29 178-220 178H180z"/><glyph glyph-name="germandbls" unicode="ß" horiz-adv-x="590" d="M529 147q-13-77-78-117.5T304-11q-72 0-127 31l6 33q51-30 116-30 73 0 127.5 33t64.5 98q6 37-12.5 73t-44 60-45.5 52.5-16 52.5q4 27 27.5 53t48 56 29.5 65q7 44-28 77.5T352 677q-78 0-132-45.5T153 507L73 0H35l80 504q16 97 79.5 151.5T352 711q82 0 127.5-45T516 565q-8-48-55-97t-51-75q-3-18 10-38.5t33-41 39.5-44 31-55.5 5.5-67z"/><glyph glyph-name="agrave" unicode="à" horiz-adv-x="615" d="M471 113q-40-56-100-90T240-11Q137-11 79 61T39 246q18 110 96.5 177.5T315 491q69 0 121-36t74-91l19 116h35L488 0h-35zM76 242q-15-98 33.5-157.5T245 25q73 0 135.5 41T476 169l22 142q-12 61-61.5 102.5T317 455q-88 0-156.5-57T76 242zm303 314h-40l-73 137h46z"/><glyph glyph-name="aacute" unicode="á" horiz-adv-x="615" d="M471 113q-40-56-100-90T240-11Q137-11 79 61T39 246q18 110 96.5 177.5T315 491q69 0 121-36t74-91l19 116h35L488 0h-35zM76 242q-15-98 33.5-157.5T245 25q73 0 135.5 41T476 169l22 142q-12 61-61.5 102.5T317 455q-88 0-156.5-57T76 242zm274 314h-43l110 137h48z"/><glyph glyph-name="acircumflex" unicode="â" horiz-adv-x="615" d="M471 113q-40-56-100-90T240-11Q137-11 79 61T39 246q18 110 96.5 177.5T315 491q69 0 121-36t74-91l19 116h35L488 0h-35zM76 242q-15-98 33.5-157.5T245 25q73 0 135.5 41T476 169l22 142q-12 61-61.5 102.5T317 455q-88 0-156.5-57T76 242zm270 445h33l108-131h-42l-85 101-116-101h-46z"/><glyph glyph-name="atilde" unicode="ã" horiz-adv-x="615" d="M471 113q-40-56-100-90T240-11Q137-11 79 61T39 246q18 110 96.5 177.5T315 491q69 0 121-36t74-91l19 116h35L488 0h-35zM76 242q-15-98 33.5-157.5T245 25q73 0 135.5 41T476 169l22 142q-12 61-61.5 102.5T317 455q-88 0-156.5-57T76 242zm425 401q-1-38-21.5-59.5T427 562q-30 0-82.5 26.5T272 615q-21 0-33-13t-12-34h-34q0 36 21.5 58.5T266 649q29 0 82.5-26.5T423 596q44 0 44 47h34z"/><glyph glyph-name="adieresis" unicode="ä" horiz-adv-x="615" d="M471 113q-40-56-100-90T240-11Q137-11 79 61T39 246q18 110 96.5 177.5T315 491q69 0 121-36t74-91l19 116h35L488 0h-35zM76 242q-15-98 33.5-157.5T245 25q73 0 135.5 41T476 169l22 142q-12 61-61.5 102.5T317 455q-88 0-156.5-57T76 242zm405 371q-2-11-11.5-19.5T448 585q-14 0-22 10t-6 23q2 11 12 20t21 9q14 0 22-10t6-24zm-201 0q-2-11-11.5-19.5T247 585q-14 0-22 10t-6 23q2 11 12 20t21 9q14 0 22-10t6-24z"/><glyph glyph-name="aring" unicode="å" horiz-adv-x="615" d="M471 113q-40-56-100-90T240-11Q137-11 79 61T39 246q18 110 96.5 177.5T315 491q69 0 121-36t74-91l19 116h35L488 0h-35zM76 242q-15-98 33.5-157.5T245 25q73 0 135.5 41T476 169l22 142q-12 61-61.5 102.5T317 455q-88 0-156.5-57T76 242zm370 379q-7-38-37-62.5T343 534q-38 0-63 26t-18 66q7 38 37 62t67 24q38 0 62.5-25.5T446 621zm-154 2q-4-27 11.5-44t39.5-17q26 0 48 16.5t26 45.5q4 26-11 43t-39 17q-27 0-49-16.5T292 623z"/><glyph glyph-name="ae" unicode="æ" horiz-adv-x="998" d="M471 112q-40-55-100-89T240-11Q137-11 79 61T39 246q18 110 96.5 177.5T315 491q69 0 121-36t74-91l19 116h35l-20-128q35 66 95.5 102.5T769 491q63 0 107-26t60-65.5 19-87.5-15-93H527q-11-97 48-145.5T723 25t164 39l-7-39q-70-36-163-36-74 0-133 36.5T509 133L488 0h-35zM76 242q-15-98 33.5-157.5T245 25q73 0 135.5 41T476 169l22 142q-12 61-62 102.5T317 455q-89 0-157-57T76 242zm689 213q-85 0-151.5-57T532 253h379q11 32 7 67.5T901 386t-48.5 49.5T765 455z"/><glyph glyph-name="ccedilla" unicode="ç" horiz-adv-x="493" d="M468 414q-49 41-131 41-58 0-110.5-21T131 362.5 76 239Q60 136 114 80.5T260 25q84 0 158 40l-6-39Q345-9 263-11l-31-75q46 9 80-9.5t29-57.5q-5-36-37.5-57T217-231t-102 22l6 32q39-22 93-22 87 0 94 50 4 30-34 40t-84-4L230-9Q135-2 78 63.5T39 244q19 121 106.5 184T335 491q82 0 139-41z"/><glyph glyph-name="egrave" unicode="è" horiz-adv-x="545" d="M38 242q19 115 97.5 182T309 491q62 0 106.5-26t62.5-65.5 22.5-87.5-13.5-93H74q-8-66 20-111.5t73.5-64T270 25q90 0 165 39l-6-39q-70-36-164-36-49 0-93 15T93.5 49t-50 80T38 242zm420 11q11 32 6 67.5T445 386t-50 49.5-86 19.5q-82 0-147.5-54T78 253h380zm-99 303h-40l-73 137h46z"/><glyph glyph-name="eacute" unicode="é" horiz-adv-x="545" d="M38 242q19 115 97.5 182T309 491q62 0 106.5-26t62.5-65.5 22.5-87.5-13.5-93H74q-8-66 20-111.5t73.5-64T270 25q90 0 165 39l-6-39q-70-36-164-36-49 0-93 15T93.5 49t-50 80T38 242zm420 11q11 32 6 67.5T445 386t-50 49.5-86 19.5q-82 0-147.5-54T78 253h380zM330 556h-43l110 137h48z"/><glyph glyph-name="ecircumflex" unicode="ê" horiz-adv-x="545" d="M38 242q19 115 97.5 182T309 491q62 0 106.5-26t62.5-65.5 22.5-87.5-13.5-93H74q-8-66 20-111.5t73.5-64T270 25q90 0 165 39l-6-39q-70-36-164-36-49 0-93 15T93.5 49t-50 80T38 242zm420 11q11 32 6 67.5T445 386t-50 49.5-86 19.5q-82 0-147.5-54T78 253h380zM326 687h33l108-131h-42l-85 101-116-101h-46z"/><glyph glyph-name="edieresis" unicode="ë" horiz-adv-x="545" d="M38 242q19 115 97.5 182T309 491q62 0 106.5-26t62.5-65.5 22.5-87.5-13.5-93H74q-8-66 20-111.5t73.5-64T270 25q90 0 165 39l-6-39q-70-36-164-36-49 0-93 15T93.5 49t-50 80T38 242zm420 11q11 32 6 67.5T445 386t-50 49.5-86 19.5q-82 0-147.5-54T78 253h380zm3 360q-2-11-11.5-19.5T428 585q-14 0-22 10t-6 23q2 11 12 20t21 9q14 0 22-10t6-24zm-201 0q-2-11-11.5-19.5T227 585q-14 0-22 10t-6 23q2 11 12 20t21 9q14 0 22-10t6-24z"/><glyph glyph-name="igrave" unicode="ì" horiz-adv-x="208" d="M173 556h-38L84 693h45zM77 0H39l76 480h38z"/><glyph glyph-name="iacute" unicode="í" horiz-adv-x="208" d="M77 0H39l76 480h38zm77 556h-43l110 137h48z"/><glyph glyph-name="icircumflex" unicode="î" horiz-adv-x="208" d="M77 0H39l76 480h38zM62 556H16l134 131h33l94-131h-42l-71 101z"/><glyph glyph-name="idieresis" unicode="ï" horiz-adv-x="208" d="M77 0H39l76 480h38zm31 613q-2-11-11-18.5T77 587q-13 0-20.5 9T51 618q2 11 11.5 19t19.5 8q13 0 20.5-9.5T108 613zm148 0q-2-11-11-18.5t-20-7.5q-13 0-20.5 9t-5.5 22q2 11 11.5 19t19.5 8q13 0 20.5-9.5T256 613z"/><glyph glyph-name="eth" unicode="ð" horiz-adv-x="594" d="M533 265q-20-128-99-202T244-11Q138-11 78.5 54.5T36 226q15 96 92.5 159T300 448q80 0 138-44.5T500 280q2 9 4 26 15 132-34 211T334 632L203 519l-19 23 118 101q-64 21-142 21l4 36q89 0 168-30l99 86 20-23-90-77q45-21 79-51t62.5-78.5 35-112T533 265zM74 221q-14-89 34.5-142T245 26q85 0 145.5 47.5T479 203q14 98-38.5 153.5T304 412q-85 0-151-53.5T74 221z"/><glyph glyph-name="ntilde" unicode="ñ" horiz-adv-x="578" d="M129 380q98 111 216 111 82 0 127-54t31-143L456 0h-38l47 293q12 77-24.5 119.5T337 455q-63 0-119.5-36T125 334L73 0H35l76 480h34zm358 263q-1-38-21.5-59.5T413 562q-30 0-82.5 26.5T258 615q-21 0-33-13t-12-34h-34q0 36 21.5 58.5T252 649q29 0 82.5-26.5T409 596q44 0 44 47h34z"/><glyph glyph-name="ograve" unicode="ò" horiz-adv-x="592" d="M537 234Q519 120 436 54.5T250-11q-99 0-164 70.5T39 246q19 114 102.5 179.5T327 491q100 0 164.5-70.5T537 234zm-460 6q-15-97 37.5-155.5T253 26q90 0 161 57t87 157q15 97-37.5 155.5T325 454q-90 0-161-57T77 240zm296 310h-40l-73 137h46z"/><glyph glyph-name="oacute" unicode="ó" horiz-adv-x="592" d="M537 234Q519 120 436 54.5T250-11q-99 0-164 70.5T39 246q19 114 102.5 179.5T327 491q100 0 164.5-70.5T537 234zm-460 6q-15-97 37.5-155.5T253 26q90 0 161 57t87 157q15 97-37.5 155.5T325 454q-90 0-161-57T77 240zm267 310h-43l110 137h48z"/><glyph glyph-name="ocircumflex" unicode="ô" horiz-adv-x="592" d="M537 234Q519 120 436 54.5T250-11q-99 0-164 70.5T39 246q19 114 102.5 179.5T327 491q100 0 164.5-70.5T537 234zm-460 6q-15-97 37.5-155.5T253 26q90 0 161 57t87 157q15 97-37.5 155.5T325 454q-90 0-161-57T77 240zm263 441h33l108-131h-42l-85 101-116-101h-46z"/><glyph glyph-name="otilde" unicode="õ" horiz-adv-x="592" d="M537 234Q519 120 436 54.5T250-11q-99 0-164 70.5T39 246q19 114 102.5 179.5T327 491q100 0 164.5-70.5T537 234zm-460 6q-15-97 37.5-155.5T253 26q90 0 161 57t87 157q15 97-37.5 155.5T325 454q-90 0-161-57T77 240zm418 397q-1-38-21.5-59.5T421 556q-30 0-82.5 26.5T266 609q-21 0-33-13t-12-34h-34q0 36 21.5 58.5T260 643q29 0 82.5-26.5T417 590q44 0 44 47h34z"/><glyph glyph-name="odieresis" unicode="ö" horiz-adv-x="592" d="M537 234Q519 120 436 54.5T250-11q-99 0-164 70.5T39 246q19 114 102.5 179.5T327 491q100 0 164.5-70.5T537 234zm-460 6q-15-97 37.5-155.5T253 26q90 0 161 57t87 157q15 97-37.5 155.5T325 454q-90 0-161-57T77 240zm398 367q-2-11-11.5-19.5T442 579q-14 0-22 10t-6 23q2 11 12 20t21 9q14 0 22-10t6-24zm-201 0q-2-11-11.5-19.5T241 579q-14 0-22 10t-6 23q2 11 12 20t21 9q14 0 22-10t6-24z"/><glyph glyph-name="divide" unicode="÷" horiz-adv-x="640" d="M567 332H87l5 36h480zM324 123q-5-27-32-27-13 0-21 8.5t-6 23.5q5 26 32 26 14 0 21.5-8t5.5-23zm70 447q-5-27-32-27-13 0-21 9t-5 23q1 12 10.5 19t20.5 7q32 0 27-31z"/><glyph glyph-name="oslash" unicode="ø" horiz-adv-x="593" d="M548 543l-80-100q90-73 70-209-18-114-101.5-179.5T251-11q-67 0-121 34L65-58H29l79 97q-90 73-68 207 18 114 101.5 179.5T327 491q66 0 118-32l67 84h36zm-223-89q-90 0-161-57T77 240Q60 131 131 68l290 361q-41 25-96 25zM253 26q90 0 161 57t87 157q17 113-57 174L154 52q43-26 99-26z"/><glyph glyph-name="ugrave" unicode="ù" horiz-adv-x="577" d="M488 480h38L450 0h-35l16 101q-35-45-92-78.5T219-11q-83 0-129 54T58 187l47 293h38L96 187q-12-77 24-119.5T224 25q64 0 120 36t91 86zm-129 76h-40l-73 137h46z"/><glyph glyph-name="uacute" unicode="ú" horiz-adv-x="577" d="M488 480h38L450 0h-35l16 101q-35-45-92-78.5T219-11q-83 0-129 54T58 187l47 293h38L96 187q-12-77 24-119.5T224 25q64 0 120 36t91 86zm-158 76h-43l110 137h48z"/><glyph glyph-name="ucircumflex" unicode="û" horiz-adv-x="577" d="M488 480h38L450 0h-35l16 101q-35-45-92-78.5T219-11q-83 0-129 54T58 187l47 293h38L96 187q-12-77 24-119.5T224 25q64 0 120 36t91 86zM326 687h33l108-131h-42l-85 101-116-101h-46z"/><glyph glyph-name="udieresis" unicode="ü" horiz-adv-x="577" d="M488 480h38L450 0h-35l16 101q-35-45-92-78.5T219-11q-83 0-129 54T58 187l47 293h38L96 187q-12-77 24-119.5T224 25q64 0 120 36t91 86zm-27 133q-2-11-11.5-19.5T428 585q-14 0-22 10t-6 23q2 11 12 20t21 9q14 0 22-10t6-24zm-201 0q-2-11-11.5-19.5T227 585q-14 0-22 10t-6 23q2 11 12 20t21 9q14 0 22-10t6-24z"/><glyph glyph-name="yacute" unicode="ý" horiz-adv-x="530" d="M235 39l263 441h42L202-85q-48-79-91.5-112.5T18-231q-21 0-51 7l5 33q22-6 43-6 43 0 79.5 30.5T171-69l41 69L45 480h39zm67 517h-43l110 137h48z"/><glyph glyph-name="thorn" unicode="þ" horiz-adv-x="614" d="M38-220H0l146 920h38l-53-333q39 55 98.5 89.5T359 491q101 0 159.5-72T559 234q-17-110-94.5-177.5T284-11q-72 0-122 35.5T91 118zm62 389q13-62 61.5-103T281 25q91 0 158.5 57T522 238q16 97-33 157t-135 60q-72 0-135-42t-97-105z"/><glyph glyph-name="ydieresis" unicode="ÿ" horiz-adv-x="530" d="M235 39l263 441h42L202-85q-48-79-91.5-112.5T18-231q-21 0-51 7l5 33q22-6 43-6 43 0 79.5 30.5T171-69l41 69L45 480h39zm198 574q-2-11-11.5-19.5T400 585q-14 0-22 10t-6 23q2 11 12 20t21 9q14 0 22-10t6-24zm-201 0q-2-11-11.5-19.5T199 585q-14 0-22 10t-6 23q2 11 12 20t21 9q14 0 22-10t6-24z"/><glyph glyph-name="Amacron" unicode="Ā" horiz-adv-x="710" d="M649 0h-41l-60 204H138L14 0h-45l428 700h46zM405 641L160 241h379L421 642q-4 11-5 20-7-14-11-21zm-93 199h264l-5-36H307z"/><glyph glyph-name="amacron" unicode="ā" horiz-adv-x="615" d="M471 113q-40-56-100-90T240-11Q137-11 79 61T39 246q18 110 96.5 177.5T315 491q69 0 121-36t74-91l19 116h35L488 0h-35zM76 242q-15-98 33.5-157.5T245 25q73 0 135.5 41T476 169l22 142q-12 61-61.5 102.5T317 455q-88 0-156.5-57T76 242zm147 378h264l-5-36H218z"/><glyph glyph-name="Abreve" unicode="Ă" horiz-adv-x="710" d="M649 0h-41l-60 204H138L14 0h-45l428 700h46zM405 641L160 241h379L421 642q-4 11-5 20-7-14-11-21zm160 181q-57-41-132-41-80 0-124 41l6 39q49-44 120-44 73 0 136 44z"/><glyph glyph-name="abreve" unicode="ă" horiz-adv-x="615" d="M471 113q-40-56-100-90T240-11Q137-11 79 61T39 246q18 110 96.5 177.5T315 491q69 0 121-36t74-91l19 116h35L488 0h-35zM76 242q-15-98 33.5-157.5T245 25q73 0 135.5 41T476 169l22 142q-12 61-61.5 102.5T317 455q-88 0-156.5-57T76 242zm400 360q-57-41-132-41-80 0-124 41l6 39q49-44 120-44 73 0 136 44z"/><glyph glyph-name="Aogonek" unicode="Ą" horiz-adv-x="710" d="M650 0Q522-79 513-146q-8-52 51-52 30 0 55 12l-5-33q-26-11-59-11-43 0-63.5 22.5T476-147q10 69 129 160l-57 191H138L14 0h-45l428 700h46L649 0h1zM416 662q-7-14-11-21L160 241h379L421 642q-4 11-5 20z"/><glyph glyph-name="aogonek" unicode="ą" horiz-adv-x="615" d="M564 480L488 0Q366-79 356-146q-4-24 8-38.5t37-14.5q23 0 55 10l-5-33q-32-9-58-9-40 0-60 23t-14 60q12 72 136 159l16 102q-40-56-100-90T240-11Q137-11 79 61T39 246q18 110 96.5 177.5T315 491q69 0 121-36t74-91l19 116h35zM76 242q-15-98 33.5-157.5T245 25q73 0 135.5 41T476 169l22 142q-12 61-61.5 102.5T317 455q-88 0-156.5-57T76 242z"/><glyph glyph-name="Cacute" unicode="Ć" horiz-adv-x="648" d="M62 359q18 112 86 194.5t154 120T478 711q106 0 184-49l-6-38q-70 49-175 49-61 0-122-20t-114.5-58-92-101T101 353q-13-80 6-144t60.5-102.5 95.5-59T377 27q106 0 197 51l-6-42q-89-47-200-47-66 0-126 23.5t-106 68-67 117T62 359zm435 417h-43l110 137h48z"/><glyph glyph-name="cacute" unicode="ć" horiz-adv-x="493" d="M39 244q13 83 62 141t109 82 124 24q83 0 140-41l-6-36q-49 41-131 41-58 0-110.5-21T131 362.5 76 239Q60 136 114 80.5T260 25q85 0 157 40l-5-39q-73-37-158-37-105 0-169.5 66.5T39 244zm304 312h-43l110 137h48z"/><glyph glyph-name="Cdotaccent" unicode="Ċ" horiz-adv-x="648" d="M62 359q18 112 86 194.5t154 120T478 711q106 0 184-49l-6-38q-70 49-175 49-61 0-122-20t-114.5-58-92-101T101 353q-13-80 6-144t60.5-102.5 95.5-59T377 27q106 0 197 51l-6-42q-89-47-200-47-66 0-126 23.5t-106 68-67 117T62 359zm467 458q-5-33-39-33-16 0-25.5 10.5T458 822q3 15 14 24t25 9q16 0 25.5-10.5T529 817z"/><glyph glyph-name="cdotaccent" unicode="ċ" horiz-adv-x="493" d="M39 244q13 83 62 141t109 82 124 24q83 0 140-41l-6-36q-49 41-131 41-58 0-110.5-21T131 362.5 76 239Q60 136 114 80.5T260 25q85 0 157 40l-5-39q-73-37-158-37-105 0-169.5 66.5T39 244zm336 353q-5-33-39-33-16 0-25.5 10.5T304 602q3 15 14 24t25 9q16 0 25.5-10.5T375 597z"/><glyph glyph-name="Ccaron" unicode="Č" horiz-adv-x="648" d="M62 359q18 112 86 194.5t154 120T478 711q106 0 184-49l-6-38q-70 49-175 49-61 0-122-20t-114.5-58-92-101T101 353q-13-80 6-144t60.5-102.5 95.5-59T377 27q106 0 197 51l-6-42q-89-47-200-47-66 0-126 23.5t-106 68-67 117T62 359zm591 538L505 766h-34L364 897h42l85-101 115 101h47z"/><glyph glyph-name="ccaron" unicode="č" horiz-adv-x="493" d="M39 244q13 83 62 141t109 82 124 24q83 0 140-41l-6-36q-49 41-131 41-58 0-110.5-21T131 362.5 76 239Q60 136 114 80.5T260 25q85 0 157 40l-5-39q-73-37-158-37-105 0-169.5 66.5T39 244zm460 433L351 546h-34L210 677h42l85-101 115 101h47z"/><glyph glyph-name="Dcaron" unicode="Ď" horiz-adv-x="732" d="M167 700h203q181 0 262.5-97.5T689 347Q665 190 556.5 95T263 0H56zm483-347q23 142-48 225.5T368 662H200L102 38h166q163 0 261.5 85T650 353zm-84 544L418 766h-34L277 897h42l85-101 115 101h47z"/><glyph glyph-name="dcaron" unicode="ď" horiz-adv-x="615" d="M681 700h37l-48-163h-33zm-120 0h38L488 0h-35l19 116q-38-57-99-92T240-11Q138-11 79.5 61T39 246q18 110 94.5 177.5T313 491q72 0 123-35.5t71-91.5zm-62-390q-13 63-61.5 104T317 455q-90 0-157.5-57T76 242q-15-97 34-157t135-60q73 0 135.5 41.5T476 171z"/><glyph glyph-name="Dcroat" unicode="Đ" horiz-adv-x="733" d="M167 700h204q180 0 262-97.5T690 347Q665 190 556.5 95T264 0H56l53 331H41l5 37h68zM268 38q163 0 261.5 85T650 353q23 142-48 225.5T368 662H200l-46-294h247l-5-37H148L102 38h166z"/><glyph glyph-name="dcroat" unicode="đ" horiz-adv-x="615" d="M584 613h85l-4-30h-85L488 0h-35l19 116q-38-57-99-92T240-11Q138-11 79.5 61T39 246q18 110 94.5 177.5T313 491q72 0 123-35.5t71-91.5l35 219H358l4 30h185l14 87h38zM245 25q73 0 135.5 41.5T476 171l23 139q-13 63-61.5 104T317 455q-90 0-157.5-57T76 242q-15-97 34-157t135-60z"/><glyph glyph-name="Emacron" unicode="Ē" horiz-adv-x="624" d="M167 700h459l-6-38H200l-45-291h389l-6-38H149L102 38h426l-7-38H56zm122 140h264l-5-36H284z"/><glyph glyph-name="emacron" unicode="ē" horiz-adv-x="545" d="M38 242q19 115 97.5 182T309 491q62 0 106.5-26t62.5-65.5 22.5-87.5-13.5-93H74q-8-66 20-111.5t73.5-64T270 25q90 0 165 39l-6-39q-70-36-164-36-49 0-93 15T93.5 49t-50 80T38 242zm420 11q11 32 6 67.5T445 386t-50 49.5-86 19.5q-82 0-147.5-54T78 253h380zM203 620h264l-5-36H198z"/><glyph glyph-name="Edotaccent" unicode="Ė" horiz-adv-x="624" d="M167 700h459l-6-38H200l-45-291h389l-6-38H149L102 38h426l-7-38H56zm281 117q-5-33-39-33-16 0-25.5 10.5T377 822q3 15 14 24t25 9q16 0 25.5-10.5T448 817z"/><glyph glyph-name="edotaccent" unicode="ė" horiz-adv-x="545" d="M38 242q19 115 97.5 182T309 491q62 0 106.5-26t62.5-65.5 22.5-87.5-13.5-93H74q-8-66 20-111.5t73.5-64T270 25q90 0 165 39l-6-39q-70-36-164-36-49 0-93 15T93.5 49t-50 80T38 242zm420 11q11 32 6 67.5T445 386t-50 49.5-86 19.5q-82 0-147.5-54T78 253h380zm-96 344q-5-33-39-33-16 0-25.5 10.5T291 602q3 15 14 24t25 9q16 0 25.5-10.5T362 597z"/><glyph glyph-name="Eogonek" unicode="Ę" horiz-adv-x="624" d="M489-189l-5-33q-27-9-58-9-43 0-64 23t-15 60Q360-71 466 0H56l111 700h459l-6-38H200l-45-291h389l-6-38H149L102 38h426l-7-38Q393-81 384-145q-4-25 9-39.5t42-14.5q24 0 54 10z"/><glyph glyph-name="eogonek" unicode="ę" horiz-adv-x="545" d="M380-211q-37-20-79-20-43 0-64 23t-15 60Q232-80 353 1q-48-12-88-12-49 0-93 15T93.5 49t-50 80T38 242q19 115 97.5 182T309 491q62 0 106.5-26t62.5-65.5 22.5-87.5-13.5-93H74q-8-66 20-111.5t73.5-64T270 25q90 0 165 39l-6-39Q270-81 259-146q-4-25 9-39t42-14q37 1 75 22zm-70 666q-82 0-147.5-54T79 253h380q11 32 6 67.5T446 386t-50 49.5-86 19.5z"/><glyph glyph-name="Ecaron" unicode="Ě" horiz-adv-x="624" d="M167 700h459l-6-38H200l-45-291h389l-6-38H149L102 38h426l-7-38H56zm405 197L424 766h-34L283 897h42l85-101 115 101h47z"/><glyph glyph-name="ecaron" unicode="ě" horiz-adv-x="545" d="M38 242q19 115 97.5 182T309 491q62 0 106.5-26t62.5-65.5 22.5-87.5-13.5-93H74q-8-66 20-111.5t73.5-64T270 25q90 0 165 39l-6-39q-70-36-164-36-49 0-93 15T93.5 49t-50 80T38 242zm420 11q11 32 6 67.5T445 386t-50 49.5-86 19.5q-82 0-147.5-54T78 253h380zm28 424L338 546h-34L197 677h42l85-101 115 101h47z"/><glyph glyph-name="Gbreve" unicode="Ğ" horiz-adv-x="711" d="M63 363q12 72 43 131t73.5 98.5 95 67T380 699t107 12q113 0 198-47l-6-38q-73 47-189 47-63 0-123.5-17.5t-116-53.5-95.5-99-53-146 6.5-148.5 62.5-104 98.5-58T388 27q98 0 182 39l47 301h41L605 36Q498-11 385-11q-70 0-132.5 22.5T141 78 70 195.5 63 363zm558 459q-57-41-132-41-80 0-124 41l6 39q49-44 120-44 73 0 136 44z"/><glyph glyph-name="gbreve" unicode="ğ" horiz-adv-x="615" d="M488-1q-19-118-98.5-174T203-231q-108 0-181 48l6 36q71-48 172-48 96 0 165 47.5T450 1l18 109q-37-53-97.5-87T240-11Q136-11 78.5 60.5T39 246q18 110 95.5 177.5T315 491q72 0 122-36t73-95l18 120h36zM76 242q-15-97 33-157t136-60q73 0 135.5 41T476 168l23 143q-13 62-61.5 103T317 455q-89 0-157-57T76 242zm391 360q-57-41-132-41-80 0-124 41l6 39q49-44 120-44 73 0 136 44z"/><glyph glyph-name="Gdotaccent" unicode="Ġ" horiz-adv-x="711" d="M63 363q12 72 43 131t73.5 98.5 95 67T380 699t107 12q113 0 198-47l-6-38q-73 47-189 47-63 0-123.5-17.5t-116-53.5-95.5-99-53-146 6.5-148.5 62.5-104 98.5-58T388 27q98 0 182 39l47 301h41L605 36Q498-11 385-11q-70 0-132.5 22.5T141 78 70 195.5 63 363zm464 454q-5-33-39-33-16 0-25.5 10.5T456 822q3 15 14 24t25 9q16 0 25.5-10.5T527 817z"/><glyph glyph-name="gdotaccent" unicode="ġ" horiz-adv-x="615" d="M488-1q-19-118-98.5-174T203-231q-108 0-181 48l6 36q71-48 172-48 96 0 165 47.5T450 1l18 109q-37-53-97.5-87T240-11Q136-11 78.5 60.5T39 246q18 110 95.5 177.5T315 491q72 0 122-36t73-95l18 120h36zM76 242q-15-97 33-157t136-60q73 0 135.5 41T476 168l23 143q-13 62-61.5 103T317 455q-89 0-157-57T76 242zm297 355q-5-33-39-33-16 0-25.5 10.5T302 602q3 15 14 24t25 9q16 0 25.5-10.5T373 597z"/><glyph glyph-name="Gcommaaccent" unicode="Ģ" horiz-adv-x="711" d="M63 363q12 72 43 131t73.5 98.5 95 67T380 699t107 12q113 0 198-47l-6-38q-73 47-189 47-63 0-123.5-17.5t-116-53.5-95.5-99-53-146 6.5-148.5 62.5-104 98.5-58T388 27q98 0 182 39l47 301h41L605 36Q498-11 385-11q-70 0-132.5 22.5T141 78 70 195.5 63 363zm281-591h-34l48 172h38z"/><glyph glyph-name="gcommaaccent" unicode="ģ" horiz-adv-x="615" d="M337 549h-39l51 155h33zM488-1q-19-118-98.5-174T203-231q-108 0-181 48l6 36q71-48 172-48 96 0 165 47.5T450 1l18 109q-37-53-97.5-87T240-11Q136-11 78.5 60.5T39 246q18 110 95.5 177.5T315 491q72 0 122-36t73-95l18 120h36zM76 242q-15-97 33-157t136-60q73 0 135.5 41T476 168l23 143q-13 62-61.5 103T317 455q-89 0-157-57T76 242z"/><glyph glyph-name="Hbar" unicode="Ħ" horiz-adv-x="769" d="M97 0H57l82 516H61l6 34h77l24 150h40l-24-150h484l24 150h39l-23-150h77l-5-34h-78L620 0h-39l52 333H149zm81 516l-23-145h484l23 145H178z"/><glyph glyph-name="hbar" unicode="ħ" horiz-adv-x="578" d="M133 383q95 108 212 108 82 0 127-54t31-143L456 0h-38l47 293q12 77-24.5 119.5T337 455q-63 0-119.5-36T125 333L73 0H35l93 583H69l4 30h59l14 87h38l-14-87h210l-5-30H166z"/><glyph glyph-name="Imacron" unicode="Ī" horiz-adv-x="244" d="M167 700h40L96 0H56zM78 840h264l-5-36H73z"/><glyph glyph-name="imacron" unicode="ī" horiz-adv-x="208" d="M262 588H42l5 36h220zM77 0H39l76 480h38z"/><glyph glyph-name="Iogonek" unicode="Į" horiz-adv-x="244" d="M96 0Q14-82 4-145q-4-25 9.5-40T56-199q38 0 75 21l-5-33q-34-20-79-20-42 0-63.5 23T-32-148Q-22-87 57 7l110 693h40z"/><glyph glyph-name="iogonek" unicode="į" horiz-adv-x="208" d="M129 622q3 25 30 25 29 0 26-30-4-25-31-25-13 0-20 8t-5 22zm24-142L77 0Q-3-82-14-144q-4-25 10-40t42-15q35 0 72 19l-5-33q-34-18-75-18-43 0-64 24.5T-49-146Q-39-85 39 0l76 480h38z"/><glyph glyph-name="Idotaccent" unicode="İ" horiz-adv-x="244" d="M167 700h40L96 0H56zm70 117q-5-33-39-33-16 0-25.5 10.5T166 822q3 15 14 24t25 9q16 0 25.5-10.5T237 817z"/><glyph glyph-name="dotlessi" unicode="ı" horiz-adv-x="208" d="M77 0H39l76 480h38z"/><glyph glyph-name="IJ" unicode="Ĳ" horiz-adv-x="766" d="M167 700h40L96 0H56zm305 0h264l-80-510Q640 89 574.5 39.5T409-10q-109 0-174 43l6 39q64-44 163-44 186 0 212 166l75 468H465z"/><glyph glyph-name="ij" unicode="ĳ" horiz-adv-x="416" d="M77 0H39l76 480h38zm108 617q-4-25-31-25-13 0-20 8t-5 22q3 25 30 25 29 0 26-30zm82-728q-18-120-138-120-39 0-71 13l5 34q28-11 60-11 92 0 108 92l92 583h38zm125 728q-4-25-31-25-13 0-20 8t-5 22q3 25 30 25 29 0 26-30z"/><glyph glyph-name="Kcommaaccent" unicode="Ķ" horiz-adv-x="655" d="M644 700h46L387 357 605 0h-43L353 340H149L96 0H56l111 700h40l-51-322h202zM275-218h-34l48 172h38z"/><glyph glyph-name="kcommaaccent" unicode="ķ" horiz-adv-x="496" d="M452 480h45L265 247 446 0h-43L231 233H110L73 0H35l111 700h38l-69-431h125zM193-218h-34l48 172h38z"/><glyph glyph-name="Lacute" unicode="Ĺ" horiz-adv-x="569" d="M167 700h40L102 38h418l-6-38H56zm54 76h-43l110 137h48z"/><glyph glyph-name="lacute" unicode="ĺ" horiz-adv-x="208" d="M155 730h38L77 0H39zm45 52h-43l110 137h48z"/><glyph glyph-name="Lcommaaccent" unicode="Ļ" horiz-adv-x="569" d="M167 700h40L102 38h418l-6-38H56zm89-918h-34l48 172h38z"/><glyph glyph-name="lcommaaccent" unicode="ļ" horiz-adv-x="208" d="M155 730h38L77 0H39zM13-218h-34L27-46h38z"/><glyph glyph-name="Lcaron" unicode="Ľ" horiz-adv-x="570" d="M445 700h37l-48-163h-33zm-278 0h40L102 38h418l-6-38H56z"/><glyph glyph-name="lcaron" unicode="ľ" horiz-adv-x="207" d="M274 730h37l-48-163h-33zm-120 0h38L76 0H38z"/><glyph glyph-name="Ldot" unicode="Ŀ" horiz-adv-x="575" d="M392 335q-3-26-31-26-14 0-22 8.5t-6 23.5q5 26 32 26 14 0 21.5-8.5T392 335zM167 700h40L102 38h418l-6-38H56z"/><glyph glyph-name="ldot" unicode="ŀ" horiz-adv-x="262" d="M155 730h38L77 0H39zm119-383q-3-26-31-26-14 0-22 8.5t-6 23.5q5 26 32 26 14 0 21.5-8.5T274 347z"/><glyph glyph-name="Lslash" unicode="Ł" horiz-adv-x="574" d="M518 0H61l45 286-98-40 6 34 98 40 60 380h39l-58-365 251 102-6-34-250-102-41-263h418z"/><glyph glyph-name="lslash" unicode="ł" horiz-adv-x="236" d="M169 730h38l-53-332 94 38-6-34-93-38L91 0H53l55 348-93-38 5 34 94 39z"/><glyph glyph-name="Nacute" unicode="Ń" horiz-adv-x="767" d="M96 0H56l111 700h33L591 65q1 12 3.5 30t3.5 24l93 581h39L619 0h-32L196 636q-1-7-4-25.5t-4-28.5zm372 776h-43l110 137h48z"/><glyph glyph-name="nacute" unicode="ń" horiz-adv-x="578" d="M129 380q98 111 216 111 82 0 127-54t31-143L456 0h-38l47 293q12 77-24.5 119.5T337 455q-63 0-119.5-36T125 334L73 0H35l76 480h34zm207 176h-43l110 137h48z"/><glyph glyph-name="Ncommaaccent" unicode="Ņ" horiz-adv-x="767" d="M96 0H56l111 700h33L591 65q1 12 3.5 30t3.5 24l93 581h39L619 0h-32L196 636q-1-7-4-25.5t-4-28.5zm216-218h-34l48 172h38z"/><glyph glyph-name="ncommaaccent" unicode="ņ" horiz-adv-x="578" d="M129 380q98 111 216 111 82 0 127-54t31-143L456 0h-38l47 293q12 77-24.5 119.5T337 455q-63 0-119.5-36T125 334L73 0H35l76 480h34zm84-598h-34l48 172h38z"/><glyph glyph-name="Ncaron" unicode="Ň" horiz-adv-x="767" d="M96 0H56l111 700h33L591 65q1 12 3.5 30t3.5 24l93 581h39L619 0h-32L196 636q-1-7-4-25.5t-4-28.5zm528 897L476 766h-34L335 897h42l85-101 115 101h47z"/><glyph glyph-name="ncaron" unicode="ň" horiz-adv-x="578" d="M129 380q98 111 216 111 82 0 127-54t31-143L456 0h-38l47 293q12 77-24.5 119.5T337 455q-63 0-119.5-36T125 334L73 0H35l76 480h34zm363 297L344 546h-34L203 677h42l85-101 115 101h47z"/><glyph glyph-name="Eng" unicode="Ŋ" horiz-adv-x="768" d="M603-107q-20-124-141-124-38 0-71 12l6 36q28-10 58-10 94 0 109 92L581 8 196 636q-1-7-4-25.5t-4-28.5L96 0H56l111 700h33L591 65q1 12 3.5 30t3.5 24l93 581h39z"/><glyph glyph-name="eng" unicode="ŋ" horiz-adv-x="578" d="M439-111q-19-120-139-120-40 0-71 13l6 34q27-11 61-11 92 0 106 92l63 396q12 77-24.5 119.5T337 455q-63 0-119.5-36T125 334L73 0H35l76 480h34l-16-100q98 111 216 111 82 0 127-54t31-143z"/><glyph glyph-name="Omacron" unicode="Ō" horiz-adv-x="824" d="M783 347q-11-67-44-130t-84.5-114.5-127-82.5T365-11q-85 0-150.5 32T113 105 62.5 221.5 59 353t44.5 130 85 114.5T315 680t161 31q85 0 150.5-32t102-84T779 478.5t4-131.5zm-685 2q-9-59 2.5-115t42-103 89-75.5T367 27q78 0 145.5 28t114 74.5T703 233t40 118q9 59-2.5 115t-42 103-89 75.5T474 673q-78 0-146-28t-114.5-74.5-76-103.5T98 349zm270 491h264l-5-36H363z"/><glyph glyph-name="omacron" unicode="ō" horiz-adv-x="592" d="M537 234Q519 120 436 54.5T250-11q-99 0-164 70.5T39 246q19 114 102.5 179.5T327 491q100 0 164.5-70.5T537 234zm-460 6q-15-97 37.5-155.5T253 26q90 0 161 57t87 157q15 97-37.5 155.5T325 454q-90 0-161-57T77 240zm140 374h264l-5-36H212z"/><glyph glyph-name="Ohungarumlaut" unicode="Ő" horiz-adv-x="824" d="M783 347q-11-67-44-130t-84.5-114.5-127-82.5T365-11q-85 0-150.5 32T113 105 62.5 221.5 59 353t44.5 130 85 114.5T315 680t161 31q85 0 150.5-32t102-84T779 478.5t4-131.5zm-685 2q-9-59 2.5-115t42-103 89-75.5T367 27q78 0 145.5 28t114 74.5T703 233t40 118q9 59-2.5 115t-42 103-89 75.5T474 673q-78 0-146-28t-114.5-74.5-76-103.5T98 349zm487 430h-42l97 143h44zm-153 0h-42l97 143h44z"/><glyph glyph-name="ohungarumlaut" unicode="ő" horiz-adv-x="592" d="M537 234Q519 120 436 54.5T250-11q-99 0-164 70.5T39 246q19 114 102.5 179.5T327 491q100 0 164.5-70.5T537 234zm-460 6q-15-97 37.5-155.5T253 26q90 0 161 57t87 157q15 97-37.5 155.5T325 454q-90 0-161-57T77 240zm357 313h-42l97 143h44zm-153 0h-42l97 143h44z"/><glyph glyph-name="OE" unicode="Œ" horiz-adv-x="1023" d="M488 0q-50-11-115-11-114 0-192 55.5T74.5 184 62 363q11 65 44.5 126.5T191 601t124.5 80T472 711q72 0 119-11h436l-7-38H631l-46-291h360l-6-38H579L532 38h396l-6-38H488zM101 357q-14-85 10-158.5T204 76t172-49q65 0 116 13l99 620q-44 13-121 13-75 0-141-27.5T217 573t-76-101-40-115z"/><glyph glyph-name="oe" unicode="œ" horiz-adv-x="990" d="M498 153Q463 74 396.5 31.5T246-11q-96 0-160.5 71T39 246q19 114 101.5 179.5T323 491q76 0 132-44.5T523 324q32 80 96 123.5T757 491q62 0 106-26t61.5-66 21.5-88.5-14-94.5H528q-8-64 20-109t72.5-63.5T718 25q87 0 162 39l-6-39q-70-36-163-36-79 0-140.5 42T498 153zM77 241q-15-97 37-156t135-59q93 0 160.5 57T493 240q15 98-36 156t-136 58q-88 0-158-57T77 241zm681 214q-80 0-143.5-54T533 250h371q11 33 6.5 69t-18 66.5-49 50T758 455z"/><glyph glyph-name="Racute" unicode="Ŕ" horiz-adv-x="686" d="M96 0H56l111 700h262q47 0 88.5-11.5T593 654t50-65 7-97q-15-95-84-143.5T404 292L617 0h-47L359 289H141zm104 662l-52-335h227q86 0 153.5 41T610 497q8 45-5 78.5T564 627t-62 26.5-73 8.5H200zm218 114h-43l110 137h48z"/><glyph glyph-name="racute" unicode="ŕ" horiz-adv-x="345" d="M125 349q35 64 96.5 104T363 490l-6-39q-79 5-144-43t-94-119L73 0H35l76 480h35zm131 207h-43l110 137h48z"/><glyph glyph-name="Rcommaaccent" unicode="Ŗ" horiz-adv-x="686" d="M96 0H56l111 700h262q47 0 88.5-11.5T593 654t50-65 7-97q-15-95-84-143.5T404 292L617 0h-47L359 289H141zm104 662l-52-335h227q86 0 153.5 41T610 497q8 45-5 78.5T564 627t-62 26.5-73 8.5H200zm92-880h-34l48 172h38z"/><glyph glyph-name="rcommaaccent" unicode="ŗ" horiz-adv-x="345" d="M125 349q35 64 96.5 104T363 490l-6-39q-79 5-144-43t-94-119L73 0H35l76 480h35zM15-218h-34L29-46h38z"/><glyph glyph-name="Rcaron" unicode="Ř" horiz-adv-x="686" d="M96 0H56l111 700h262q47 0 88.5-11.5T593 654t50-65 7-97q-15-95-84-143.5T404 292L617 0h-47L359 289H141zm104 662l-52-335h227q86 0 153.5 41T610 497q8 45-5 78.5T564 627t-62 26.5-73 8.5H200zm374 235L426 766h-34L285 897h42l85-101 115 101h47z"/><glyph glyph-name="rcaron" unicode="ř" horiz-adv-x="345" d="M125 349q35 64 96.5 104T363 490l-6-39q-79 5-144-43t-94-119L73 0H35l76 480h35zm287 328L264 546h-34L123 677h42l85-101 115 101h47z"/><glyph glyph-name="Sacute" unicode="Ś" horiz-adv-x="569" d="M96 545q9 56 50 95t93 55 111 16q113 0 194-51l-5-38q-76 51-189 51-82 0-142.5-32T136 541q-7-42 12-73t54-50 78.5-35 87-34 78.5-40.5 53-60.5 10-89q-9-60-49.5-99.5T366 4.5 249-11Q114-11 16 48l6 39q96-60 226-60 57 0 102 12t78.5 43 40.5 79q7 44-12 77t-54 53-78.5 36.5-86.5 34-78 39.5-53 58.5T96 545zm256 231h-43l110 137h48z"/><glyph glyph-name="sacute" unicode="ś" horiz-adv-x="458" d="M60 368q9 62 65 92.5T254 491q92 0 159-42l-5-36q-61 43-155 43-59 0-104-23t-51-69q-6-39 25-63t78-36.5 93.5-27 76-45T392 113q-10-63-66.5-93.5T191-11q-51 0-99.5 13.5T14 39l6 37q67-51 172-51 64 0 109.5 22.5T355 116q6 39-24.5 62.5T253 215t-94 27.5T82.5 288 60 368zm209 188h-43l110 137h48z"/><glyph glyph-name="Scedilla" unicode="Ş" horiz-adv-x="569" d="M346-153q-5-36-37.5-57T222-231t-102 22l6 32q41-22 93-22 87 0 94 50 4 30-34 40t-84-4l40 103Q105-7 16 48l6 39q96-60 226-60 57 0 102 12t78.5 43 40.5 79q7 44-12 77t-54 53-78.5 36.5-86.5 34-78 39.5-53 58.5T96 545q9 56 50 95t93 55 111 16q113 0 194-51l-5-38q-76 51-189 51-82 0-142.5-32T136 541q-7-42 12-73t54-50 78.5-35 87-34 78.5-40.5 53-60.5 10-89q-13-84-80-125.5T268-10l-31-76q46 9 80-9.5t29-57.5z"/><glyph glyph-name="scedilla" unicode="ş" horiz-adv-x="458" d="M285-153q-5-36-37-57t-86-21q-56 0-102 22l5 32q41-22 94-22 44 0 67.5 14t25.5 36q5 30-33 40t-85-4l40 103Q75-7 14 39l6 37q67-51 172-51 64 0 109.5 22.5T355 116q6 39-24.5 62.5T253 215t-94 27.5T82.5 288 60 368q9 62 65 92.5T254 491q92 0 159-42l-5-36q-61 43-155 43-59 0-104-23t-51-69q-6-39 25-63t78-36.5 93.5-27 76-45T392 113q-9-59-60.5-90T208-10l-31-76q46 9 80-9.5t28-57.5z"/><glyph glyph-name="Scaron" unicode="Š" horiz-adv-x="569" d="M96 545q9 56 50 95t93 55 111 16q113 0 194-51l-5-38q-76 51-189 51-82 0-142.5-32T136 541q-7-42 12-73t54-50 78.5-35 87-34 78.5-40.5 53-60.5 10-89q-9-60-49.5-99.5T366 4.5 249-11Q114-11 16 48l6 39q96-60 226-60 57 0 102 12t78.5 43 40.5 79q7 44-12 77t-54 53-78.5 36.5-86.5 34-78 39.5-53 58.5T96 545zm412 352L360 766h-34L219 897h42l85-101 115 101h47z"/><glyph glyph-name="scaron" unicode="š" horiz-adv-x="458" d="M60 368q9 62 65 92.5T254 491q92 0 159-42l-5-36q-61 43-155 43-59 0-104-23t-51-69q-6-39 25-63t78-36.5 93.5-27 76-45T392 113q-10-63-66.5-93.5T191-11q-51 0-99.5 13.5T14 39l6 37q67-51 172-51 64 0 109.5 22.5T355 116q6 39-24.5 62.5T253 215t-94 27.5T82.5 288 60 368zm365 309L277 546h-34L136 677h42l85-101 115 101h47z"/><glyph glyph-name="Tcommaaccent" unicode="Ţ" horiz-adv-x="590" d="M76 700h567l-7-38H373L268 0h-39l104 662H70zm134-918h-34l48 172h38z"/><glyph glyph-name="tcommaaccent" unicode="ţ" horiz-adv-x="370" d="M156 635l39 12-26-167h209l-5-36H164l-49-305Q96 25 212 25q59 0 109 25l-6-37q-48-24-113-24-67 0-102 38.5T77 136l49 308H36l5 36h90zm11-853h-34l48 172h38z"/><glyph glyph-name="Tcaron" unicode="Ť" horiz-adv-x="590" d="M76 700h567l-7-38H373L268 0h-39l104 662H70zm461 197L389 766h-34L248 897h42l85-101 115 101h47z"/><glyph glyph-name="tcaron" unicode="ť" horiz-adv-x="370" d="M317 716h37l-48-159h-33zm-161-81l39 12-26-167h209l-5-36H164l-49-305Q96 25 212 25q59 0 109 25l-6-37q-48-24-113-24-67 0-102 38.5T77 136l49 308H36l5 36h90z"/><glyph glyph-name="Tbar" unicode="Ŧ" horiz-adv-x="602" d="M274 0h-39l53 338H154l5 34h135l45 290H76l6 38h567l-7-38H379l-45-290h134l-5-34H328z"/><glyph glyph-name="tbar" unicode="ŧ" horiz-adv-x="372" d="M380 480l-5-36H166l-22-136h165l-6-34H138l-21-135Q98 25 214 25q59 0 109 25l-6-37q-48-24-113-24-67 0-102 38.5T79 136l21 138H46l6 34h54l22 136H38l5 36h90l25 155 39 12-26-167h209z"/><glyph glyph-name="Umacron" unicode="Ū" horiz-adv-x="752" d="M683 700h40l-72-457Q630 109 545 49T333-11q-128 0-197.5 61.5T87 246l72 454h40l-72-455Q92 27 332 27q245 0 280 220zM329 840h264l-5-36H324z"/><glyph glyph-name="umacron" unicode="ū" horiz-adv-x="577" d="M488 480h38L450 0h-35l16 101q-35-45-92-78.5T219-11q-83 0-129 54T58 187l47 293h38L96 187q-12-77 24-119.5T224 25q64 0 120 36t91 86zM203 620h264l-5-36H198z"/><glyph glyph-name="Uring" unicode="Ů" horiz-adv-x="752" d="M683 700h40l-72-457Q630 109 545 49T333-11q-128 0-197.5 61.5T87 246l72 454h40l-72-455Q92 27 332 27q245 0 280 220zM552 841q-7-38-37-62.5T449 754q-38 0-63 26t-18 66q7 38 37 62t67 24q38 0 62.5-25.5T552 841zm-154 2q-4-27 11.5-44t39.5-17q26 0 48 16.5t26 45.5q4 26-11 43t-39 17q-27 0-49-16.5T398 843z"/><glyph glyph-name="uring" unicode="ů" horiz-adv-x="577" d="M488 480h38L450 0h-35l16 101q-35-45-92-78.5T219-11q-83 0-129 54T58 187l47 293h38L96 187q-12-77 24-119.5T224 25q64 0 120 36t91 86zm-62 141q-7-38-37-62.5T323 534q-38 0-63 26t-18 66q7 38 37 62t67 24q38 0 62.5-25.5T426 621zm-154 2q-4-27 11.5-44t39.5-17q26 0 48 16.5t26 45.5q4 26-11 43t-39 17q-27 0-49-16.5T272 623z"/><glyph glyph-name="Uhungarumlaut" unicode="Ű" horiz-adv-x="752" d="M683 700h40l-72-457Q630 109 545 49T333-11q-128 0-197.5 61.5T87 246l72 454h40l-72-455Q92 27 332 27q245 0 280 220zm-137 79h-42l97 143h44zm-153 0h-42l97 143h44z"/><glyph glyph-name="uhungarumlaut" unicode="ű" horiz-adv-x="577" d="M488 480h38L450 0h-35l16 101q-35-45-92-78.5T219-11q-83 0-129 54T58 187l47 293h38L96 187q-12-77 24-119.5T224 25q64 0 120 36t91 86zm-68 79h-42l97 143h44zm-153 0h-42l97 143h44z"/><glyph glyph-name="Uogonek" unicode="Ų" horiz-adv-x="752" d="M612 247l71 453h40l-72-457Q631 112 541 47 397-58 383-146q-4-24 10-39t41-14q39 0 76 20l-5-32q-38-20-80-20t-64 23-16 60Q355-78 457 9q-53-20-124-20-128 0-197.5 61.5T87 246l72 454h40l-72-455Q92 27 332 27q245 0 280 220z"/><glyph glyph-name="uogonek" unicode="ų" horiz-adv-x="577" d="M526 480L450 0Q329-78 319-146q-4-24 8-38.5t37-14.5 53 10l-5-33q-31-9-56-9-40 0-60 23t-14 60q12 73 135 159l14 90q-35-45-92-78.5T219-11q-83 0-129 54T58 187l47 293h38L96 187q-12-77 24-119.5T224 25q64 0 120 36t91 86l53 333h38z"/><glyph glyph-name="Wcircumflex" unicode="Ŵ" horiz-adv-x="993" d="M989 700h42L700 0h-45L551 624 247 0h-46L89 700h40L232 52l313 642h33L685 57zM576 907h33l108-131h-42l-85 101-116-101h-46z"/><glyph glyph-name="wcircumflex" unicode="ŵ" horiz-adv-x="796" d="M760 480h41L546 0h-39l-87 422L197 0h-40L54 480h38l92-430 225 424h35l88-424zM442 687h33l108-131h-42l-85 101-116-101h-46z"/><glyph glyph-name="Ycircumflex" unicode="Ŷ" horiz-adv-x="631" d="M289 0h-39l44 279L86 700h42l190-382 312 382h46L334 279zm102 907h33l108-131h-42l-85 101-116-101h-46z"/><glyph glyph-name="ycircumflex" unicode="ŷ" horiz-adv-x="530" d="M235 39l263 441h42L202-85q-48-79-91.5-112.5T18-231q-21 0-51 7l5 33q22-6 43-6 43 0 79.5 30.5T171-69l41 69L45 480h39zm63 648h33l108-131h-42l-85 101-116-101h-46z"/><glyph glyph-name="Ydieresis" unicode="Ÿ" horiz-adv-x="631" d="M289 0h-39l44 279L86 700h42l190-382 312 382h46L334 279zm237 833q-2-11-11.5-19.5T493 805q-14 0-22 10t-6 23q2 11 12 20t21 9q14 0 22-10t6-24zm-201 0q-2-11-11.5-19.5T292 805q-14 0-22 10t-6 23q2 11 12 20t21 9q14 0 22-10t6-24z"/><glyph glyph-name="Zacute" unicode="Ź" horiz-adv-x="571" d="M496 0H-20l5 35 556 627H102l6 38h490l-6-35L36 38h466zM380 776h-43l110 137h48z"/><glyph glyph-name="zacute" unicode="ź" horiz-adv-x="447" d="M74 480h360l-5-32L39 34h336l-5-34H-15l5 32 391 414H69zm201 76h-43l110 137h48z"/><glyph glyph-name="Zdotaccent" unicode="Ż" horiz-adv-x="571" d="M496 0H-20l5 35 556 627H102l6 38h490l-6-35L36 38h466zm-84 817q-5-33-39-33-16 0-25.5 10.5T341 822q3 15 14 24t25 9q16 0 25.5-10.5T412 817z"/><glyph glyph-name="zdotaccent" unicode="ż" horiz-adv-x="447" d="M74 480h360l-5-32L39 34h336l-5-34H-15l5 32 391 414H69zm233 117q-5-33-39-33-16 0-25.5 10.5T236 602q3 15 14 24t25 9q16 0 25.5-10.5T307 597z"/><glyph glyph-name="Zcaron" unicode="Ž" horiz-adv-x="571" d="M496 0H-20l5 35 556 627H102l6 38h490l-6-35L36 38h466zm40 897L388 766h-34L247 897h42l85-101 115 101h47z"/><glyph glyph-name="zcaron" unicode="ž" horiz-adv-x="447" d="M74 480h360l-5-32L39 34h336l-5-34H-15l5 32 391 414H69zm357 197L283 546h-34L142 677h42l85-101 115 101h47z"/><glyph glyph-name="Scommaaccent" unicode="Ș" horiz-adv-x="569" d="M96 545q9 56 50 95t93 55 111 16q113 0 194-51l-5-38q-76 51-189 51-82 0-142.5-32T136 541q-7-42 12-73t54-50 78.5-35 87-34 78.5-40.5 53-60.5 10-89q-9-60-49.5-99.5T366 4.5 249-11Q114-11 16 48l6 39q96-60 226-60 57 0 102 12t78.5 43 40.5 79q7 44-12 77t-54 53-78.5 36.5-86.5 34-78 39.5-53 58.5T96 545zm137-763h-34l48 172h38z"/><glyph glyph-name="scommaaccent" unicode="ș" horiz-adv-x="458" d="M60 368q9 62 65 92.5T254 491q92 0 159-42l-5-36q-61 43-155 43-59 0-104-23t-51-69q-6-39 25-63t78-36.5 93.5-27 76-45T392 113q-10-63-66.5-93.5T191-11q-51 0-99.5 13.5T14 39l6 37q67-51 172-51 64 0 109.5 22.5T355 116q6 39-24.5 62.5T253 215t-94 27.5T82.5 288 60 368zm112-586h-34l48 172h38z"/><glyph glyph-name="uni021A" unicode="Ț" horiz-adv-x="590" d="M76 700h567l-7-38H373L268 0h-39l104 662H70zm135-918h-34l48 172h38z"/><glyph glyph-name="uni021B" unicode="ț" horiz-adv-x="370" d="M156 635l39 12-26-167h209l-5-36H164l-49-305Q96 25 212 25q59 0 109 25l-6-37q-48-24-113-24-67 0-102 38.5T77 136l49 308H36l5 36h90zm11-853h-34l48 172h38z"/><glyph glyph-name="circumflex" unicode="ˆ" horiz-adv-x="275" d="M243 907h33l108-131h-42l-85 101-116-101H95z"/><glyph glyph-name="caron" unicode="ˇ" horiz-adv-x="275" d="M404 897L256 766h-34L115 897h42l85-101 115 101h47z"/><glyph glyph-name="breve" unicode="˘" horiz-adv-x="321" d="M398 822q-57-41-132-41-80 0-124 41l6 39q49-44 120-44 73 0 136 44z"/><glyph glyph-name="dotaccent" unicode="˙" horiz-adv-x="92" d="M191 817q-5-33-39-33-16 0-25.5 10.5T120 822q3 15 14 24t25 9q16 0 25.5-10.5T191 817z"/><glyph glyph-name="ring" unicode="˚" horiz-adv-x="206" d="M307 841q-7-38-37-62.5T204 754q-38 0-63 26t-18 66q7 38 37 62t67 24q38 0 62.5-25.5T307 841zm-154 2q-4-27 11.5-44t39.5-17q26 0 48 16.5t26 45.5q4 26-11 43t-39 17q-27 0-49-16.5T153 843z"/><glyph glyph-name="ogonek" unicode="˛" horiz-adv-x="206" d="M99 5l47-5Q18-81 9-145q-4-25 9-39.5T60-199q37 0 75 19l-5-34q-37-17-79-17-43 0-64 23t-15 60Q-15-68 99 5z"/><glyph glyph-name="tilde" unicode="˜" horiz-adv-x="319" d="M423 863q-1-38-21.5-59.5T349 782q-30 0-82.5 26.5T194 835q-21 0-33-13t-12-34h-34q0 36 21.5 58.5T188 869q29 0 82.5-26.5T345 816q44 0 44 47h34z"/><glyph glyph-name="hungarumlaut" unicode="˝" horiz-adv-x="318" d="M321 779h-42l97 143h44zm-153 0h-42l97 143h44z"/><glyph glyph-name="uni0326" unicode="̦" horiz-adv-x="100" d="M0-218h-34L14-46h38z"/><glyph glyph-name="uni0401" unicode="Ё" horiz-adv-x="622" d="M547 833q-2-11-11.5-19.5T514 805q-14 0-22 10t-6 23q2 11 12 20t21 9q14 0 22-10t6-24zm-201 0q-2-11-11.5-19.5T313 805q-14 0-22 10t-6 23q2 11 12 20t21 9q14 0 22-10t6-24zM167 700h459l-6-38H200l-45-291h389l-6-38H149L102 38h426l-7-38H56z"/><glyph glyph-name="uni0410" unicode="А" horiz-adv-x="709" d="M649 0h-41l-60 204H138L14 0h-45l428 700h46zM405 641L160 241h379L421 642q-4 11-5 20-7-14-11-21z"/><glyph glyph-name="uni0411" unicode="Б" horiz-adv-x="660" d="M159 401h194q46 0 83.5-4.5t73.5-18 58.5-35.5 33-59 2.5-86q-9-60-38-101t-74.5-61T399 8 292 0H56l111 700h465l-7-38H200zM102 38h196q53 0 92.5 6T469 66.5t63.5 51T565 203q8 50-6 83.5T511.5 336t-70 21.5T353 363H153z"/><glyph glyph-name="uni0412" unicode="В" horiz-adv-x="680" d="M167 700h260q104 0 162.5-45.5T634 521q-11-66-55-104t-106-49q29-6 53-17t47-31 33-54.5 4-79.5Q579 0 313 0H56zm404-505q6 38-4 67t-28.5 44.5-45.5 25-50 12.5-48 3H151L102 38h209q36 0 64.5 2.5t63.5 12T499 78t45 46 27 71zm23 328q11 72-36 105.5T419 662H200l-44-277h251q71 0 123.5 34T594 523z"/><glyph glyph-name="uni0413" unicode="Г" horiz-adv-x="576" d="M96 0H56l111 700h453l-7-38H200z"/><glyph glyph-name="uni0414" unicode="Д" horiz-adv-x="752" d="M-17-174h-38l34 212h76q85 121 144.5 298.5T287 700h411L593 38h87l-34-212h-38L635 0H10zm338 836q-32-179-88.5-345.5T99 38h455l99 624H321z"/><glyph glyph-name="uni0415" unicode="Е" horiz-adv-x="622" d="M167 700h459l-6-38H200l-45-291h389l-6-38H149L102 38h426l-7-38H56z"/><glyph glyph-name="uni0416" unicode="Ж" horiz-adv-x="927" d="M911 700h45L689 359 872 0h-42L657 340H492L439 0h-40l54 340H293L11 0h-47l298 359-159 341h42l150-322h164l51 322h40l-51-322h161z"/><glyph glyph-name="uni0417" unicode="З" horiz-adv-x="603" d="M535 185q-8-52-38-91.5T424.5 32 335-.5 238-11Q100-11 1 33l6 39q93-45 230-45 60 0 112 14.5t95 54 52 98.5q7 43-8.5 74t-48 47.5T370 339t-81 7H156l6 38h129q93 0 156 39t74 106q11 70-43 107t-143 37q-120 0-229-48l6 39q105 47 228 47 105 0 169.5-48.5T560 527q-10-65-60-107t-125-54q77-11 125-54.5T535 185z"/><glyph glyph-name="uni0418" unicode="И" horiz-adv-x="767" d="M730 700L619 0h-39l92 583q1 6 3 16t3.5 18.5T681 634L93 0H56l111 700h40l-94-585q-2-17-8-49l588 634h37z"/><glyph glyph-name="uni0419" unicode="Й" horiz-adv-x="767" d="M730 700L619 0h-39l92 583q1 6 3 16t3.5 18.5T681 634L93 0H56l111 700h40l-94-585q-2-17-8-49l588 634h37zM600 822q-57-41-132-41-80 0-124 41l6 39q49-44 120-44 73 0 136 44z"/><glyph glyph-name="uni041A" unicode="К" horiz-adv-x="655" d="M644 700h46L387 357 605 0h-43L353 340H149L96 0H56l111 700h40l-51-322h202z"/><glyph glyph-name="uni041B" unicode="Л" horiz-adv-x="737" d="M301 700h399L589 0h-39l104 662H333q-21-92-35.5-151.5t-36-137.5T222 246t-43-103-49.5-84-56-49.5T8-10q-32 0-56 10l6 38q21-8 45-8 26 0 49.5 13.5t44.5 42 40 62 37.5 85T208 331t32.5 115T271 568.5 301 700z"/><glyph glyph-name="uni041C" unicode="М" horiz-adv-x="901" d="M826 700h38L753 0h-39l99 626-363-437h-27L196 627 96 0H56l111 700h34l240-464z"/><glyph glyph-name="uni041D" unicode="Н" horiz-adv-x="767" d="M691 700h39L619 0h-39l52 333H148L96 0H56l111 700h40l-52-329h484z"/><glyph glyph-name="uni041E" unicode="О" horiz-adv-x="824" d="M783 347q-11-67-44-130t-84.5-114.5-127-82.5T365-11q-85 0-150.5 32T113 105 62.5 221.5 59 353t44.5 130 85 114.5T315 680t161 31q85 0 150.5-32t102-84T779 478.5t4-131.5zm-685 2q-9-59 2.5-115t42-103 89-75.5T367 27q78 0 145.5 28t114 74.5T703 233t40 118q9 59-2.5 115t-42 103-89 75.5T474 673q-78 0-146-28t-114.5-74.5-76-103.5T98 349z"/><glyph glyph-name="uni041F" unicode="П" horiz-adv-x="750" d="M96 0H56l111 700h546L602 0h-39l104 662H200z"/><glyph glyph-name="uni0420" unicode="Р" horiz-adv-x="654" d="M167 700h223q47 0 87-6.5t76-22.5 59-40.5 33-63.5 2-89q-35-217-326-217H137L96 0H56zm441-217q8 51-6 87.5T555 626t-73 27.5-92 8.5H200l-57-363h184q253 0 281 184z"/><glyph glyph-name="uni0421" unicode="С" horiz-adv-x="652" d="M62 359q18 112 86 194.5t154 120T478 711q106 0 184-49l-6-38q-70 49-175 49-61 0-122-20t-114.5-58-92-101T101 353q-13-80 6-144t60.5-102.5 95.5-59T377 27q106 0 197 51l-6-42q-89-47-200-47-66 0-126 23.5t-106 68-67 117T62 359z"/><glyph glyph-name="uni0422" unicode="Т" horiz-adv-x="590" d="M76 700h567l-7-38H373L268 0h-39l104 662H70z"/><glyph glyph-name="uni0423" unicode="У" horiz-adv-x="620" d="M331 158Q268 62 212.5 25.5T96-11Q52-11 17 2l6 37q35-12 68-12 50 0 94 26.5t94 95.5l16 22L72 700h42l205-492 319 492h45z"/><glyph glyph-name="uni0424" unicode="Ф" horiz-adv-x="848" d="M392-36h-39l14 94q-163 2-255 82T42 357q21 136 133 209.5T460 642l15 94h40l-15-94q160-2 253.5-82.5T826 343q-21-135-133-209T407 58zM81 354q-18-119 60-188t232-72l81 512q-158-3-256-68T81 354zm413 252L413 94q159 3 256.5 68T786 347q19 118-60 187t-232 72z"/><glyph glyph-name="uni0425" unicode="Х" horiz-adv-x="615" d="M12 0h-50l334 362L90 700h44l189-309 286 309h50L342 357 559 0h-43L316 328z"/><glyph glyph-name="uni0426" unicode="Ц" horiz-adv-x="768" d="M662-174h-38L652 0H56l111 700h40L102 38h468l105 662h39L610 38h85z"/><glyph glyph-name="uni0427" unicode="Ч" horiz-adv-x="673" d="M525 0h-40l46 289q-119-39-228-37-123 2-183.5 62T77 488l34 212h40l-34-216q-16-99 36-146t160-48q105-1 225 38l58 372h40z"/><glyph glyph-name="uni0428" unicode="Ш" horiz-adv-x="1064" d="M916 0H56l111 700h40L102 38h371l104 662h40L512 38h371l105 662h39z"/><glyph glyph-name="uni0429" unicode="Щ" horiz-adv-x="1081" d="M975-174h-38L965 0H56l111 700h40L102 38h371l104 662h40L512 38h371l105 662h39L923 38h86z"/><glyph glyph-name="uni042A" unicode="Ъ" horiz-adv-x="748" d="M372 0H149l104 662H68l6 38h225l-41-262h184q60 0 108-11t86.5-35 55.5-68.5 7-106.5Q665 0 372 0zM251 400L194 38h184q252 0 281 184 7 41-1.5 72.5T630 346t-50 32-65 17-76 5H251z"/><glyph glyph-name="uni042B" unicode="Ы" horiz-adv-x="844" d="M280 0H56l111 700h40l-42-262h185q60 0 107.5-11t86-35 55.5-68.5 7-106.5Q573 0 280 0zM159 400L102 38h184q252 0 281 184 7 41-1.5 72.5T538 346t-50 32-65 17-76 5H159zM696 0h-40l111 700h40z"/><glyph glyph-name="uni042C" unicode="Ь" horiz-adv-x="655" d="M280 0H56l111 700h40l-42-262h185q60 0 107.5-11t86-35 55.5-68.5 7-106.5Q573 0 280 0zM159 400L102 38h184q252 0 281 184 7 41-1.5 72.5T538 346t-50 32-65 17-76 5H159z"/><glyph glyph-name="uni042D" unicode="Э" horiz-adv-x="655" d="M106 664q91 47 202 47 64 0 123-23.5t105.5-68 68-117T612 342Q584 169 467.5 79T200-11Q86-11 7 38l6 38q79-49 184-49 137 0 241.5 77T570 332l-398-1 6 38 397 1q8 74-13 133.5T500 599t-92 55-107 19q-110 0-201-49z"/><glyph glyph-name="uni042E" unicode="Ю" horiz-adv-x="1080" d="M1039 347q-11-67-44-130t-84-114.5T784.5 20 622-11q-108 0-183 51T334 167.5 313 331H148L96 0H56l111 700h40l-53-331h164q28 138 140 240t274 102q113 0 189.5-55t104-136.5T1039 347zm-685 2q-9-59 2.5-115t42-103 89-75.5T623 27q78 0 145.5 28t114 74.5T959 233t40 118q9 59-2.5 115t-42 103-89 75.5T730 673q-78 0-146-28t-114.5-74.5-76-103.5T354 349z"/><glyph glyph-name="uni042F" unicode="Я" horiz-adv-x="681" d="M36 0h-48l264 276q-86 17-128.5 71T95 487q17 108 99 160.5T397 700h247L533 0h-40l43 269H333q-27 0-40 1zm99 482q-14-90 41-132.5T333 307h208l56 355H391q-101 0-171.5-44T135 482z"/><glyph glyph-name="uni0430" unicode="а" horiz-adv-x="615" d="M471 113q-40-56-100-90T240-11Q137-11 79 61T39 246q18 110 96.5 177.5T315 491q69 0 121-36t74-91l19 116h35L488 0h-35zM76 242q-15-98 33.5-157.5T245 25q73 0 135.5 41T476 169l22 142q-12 61-61.5 102.5T317 455q-88 0-156.5-57T76 242z"/><glyph glyph-name="uni0431" unicode="б" horiz-adv-x="590" d="M531 219q-17-107-87.5-168.5T265-11Q151-11 90.5 69T51 281q17 106 71.5 187T252 591q63 35 127 53t108 30 73 37l-6-42q-28-22-70-33.5T384.5 608 272 561Q150 494 98 338q37 56 100.5 89T329 460q97 0 157.5-68.5T531 219zM85 266Q69 158 119 92t146-66q94 0 153.5 53.5T493 224q13 85-37 142.5T322 424q-77 0-143-43T85 266z"/><glyph glyph-name="uni0432" unicode="в" horiz-adv-x="541" d="M290 0H35l76 480h241q68 0 104.5-34t27.5-93q-15-88-98-109 42-9 64.5-39t14.5-81q-10-60-55.5-92T290 0zM109 227L79 34h210q125 0 140 98 14 95-100 95H109zm35 219l-29-186h207q108 0 124 95 7 44-20 67.5T346 446H144z"/><glyph glyph-name="uni0433" unicode="г" horiz-adv-x="438" d="M73 0H35l76 480h341l-6-36H144z"/><glyph glyph-name="uni0434" unicode="д" horiz-adv-x="613" d="M-4-136h-37l27 171h63q63 97 101 199t61 246h330L471 35h69l-27-171h-37L497 0H18zm245 580Q203 213 90 35h343l65 409H241z"/><glyph glyph-name="uni0435" unicode="е" horiz-adv-x="543" d="M38 242q19 115 97.5 182T309 491q62 0 106.5-26t62.5-65.5 22.5-87.5-13.5-93H74q-8-66 20-111.5t73.5-64T270 25q90 0 165 39l-6-39q-70-36-164-36-49 0-93 15T93.5 49t-50 80T38 242zm420 11q11 32 6 67.5T445 386t-50 49.5-86 19.5q-82 0-147.5-54T78 253h380z"/><glyph glyph-name="uni0436" unicode="ж" horiz-adv-x="718" d="M9 0h-46l252 247L68 480h40l138-217h91l34 217h38l-34-217h89l206 217h44L492 245 664 0h-42L461 227h-92L333 0h-38l36 227h-89z"/><glyph glyph-name="uni0437" unicode="з" horiz-adv-x="474" d="M398 124q-11-68-71.5-101T171-11Q68-11-2 25l6 36q67-36 164-36 176 0 193 108 8 46-24.5 69.5T258 226H136l6 36h114q55 0 89.5 24.5T386 354q8 48-35 75t-109 27q-90 0-175-36l6 38q88 34 174 33t136.5-38T424 353q-6-43-35.5-71.5T312 244q42-10 68-41.5t18-78.5z"/><glyph glyph-name="uni0438" unicode="и" horiz-adv-x="585" d="M70 0H35l76 480h38L83 62l416 418h35L458 0h-38l66 418z"/><glyph glyph-name="uni0439" unicode="й" horiz-adv-x="585" d="M472 602q-57-41-132-41-80 0-124 41l6 37q48-44 120-44 73 0 136 44zM70 0H35l76 480h38L83 62l416 418h35L458 0h-38l66 418z"/><glyph glyph-name="uni043A" unicode="к" horiz-adv-x="500" d="M73 0H35l76 480h38l-34-211h125l212 211h45L266 248 447 0h-43L233 233H110z"/><glyph glyph-name="uni043B" unicode="л" horiz-adv-x="587" d="M241 444q-46-229-97-339.5T14-6q-29 0-50 8l5 32q14-7 39-7 66 0 112.5 111.5T210 480h326L460 0h-38l70 444H241z"/><glyph glyph-name="uni043C" unicode="м" horiz-adv-x="666" d="M73 0H35l76 480h38l165-298 256 298h45L539 0h-38l68 424-243-282h-30L141 423z"/><glyph glyph-name="uni043D" unicode="н" horiz-adv-x="577" d="M73 0H35l76 480h38l-35-222h339l35 222h38L450 0h-38l35 222H108z"/><glyph glyph-name="uni043E" unicode="о" horiz-adv-x="592" d="M537 234Q519 120 436 54.5T250-11q-99 0-164 70.5T39 246q19 114 102.5 179.5T327 491q100 0 164.5-70.5T537 234zm-460 6q-15-97 37.5-155.5T253 26q90 0 161 57t87 157q15 97-37.5 155.5T325 454q-90 0-161-57T77 240z"/><glyph glyph-name="uni043F" unicode="п" horiz-adv-x="577" d="M73 0H35l76 480h415L450 0h-38l71 444H144z"/><glyph glyph-name="uni0440" unicode="р" horiz-adv-x="614" d="M127 364q40 57 101 92t131 35q101 0 159.5-72T559 234q-17-110-94.5-177.5T284-11q-72 0-122 35.5T91 118L38-220H0l111 700h35zm395-126q16 97-33 157t-135 60q-72 0-135-42t-97-105l-22-139q13-62 61.5-103T281 25q91 0 158.5 57T522 238z"/><glyph glyph-name="uni0441" unicode="с" horiz-adv-x="496" d="M39 244q13 83 62 141t109 82 124 24q83 0 140-41l-6-36q-49 41-131 41-58 0-110.5-21T131 362.5 76 239Q60 136 114 80.5T260 25q85 0 157 40l-5-39q-73-37-158-37-105 0-169.5 66.5T39 244z"/><glyph glyph-name="uni0442" unicode="т" horiz-adv-x="453" d="M199 0h-38l71 444H38l5 36h426l-6-36H270z"/><glyph glyph-name="uni0443" unicode="у" horiz-adv-x="530" d="M235 39l263 441h42L202-85q-48-79-91.5-112.5T18-231q-21 0-51 7l5 33q22-6 43-6 43 0 79.5 30.5T171-69l41 69L45 480h39z"/><glyph glyph-name="uni0444" unicode="ф" horiz-adv-x="702" d="M288-220h-37l33 209Q163-9 91.5 61T38 246q18 114 108.5 178.5T364 491l33 209h37l-33-209q121-2 193-72t54-185Q630 120 539 55.5T321-11zM75 242q-15-99 44.5-158T290 23l69 434q-112-2-190-58.5T75 242zm321 215L327 23q112 2 190 58.5T611 238q15 99-45 158t-170 61z"/><glyph glyph-name="uni0445" unicode="х" horiz-adv-x="483" d="M15 0h-46l244 247L57 480h43l138-207 204 207h46L256 246 421 0h-43L232 219z"/><glyph glyph-name="uni0446" unicode="ц" horiz-adv-x="592" d="M492-136h-37L476 0H35l76 480h38L79 36h333l70 444h38L450 36h69z"/><glyph glyph-name="uni0447" unicode="ч" horiz-adv-x="515" d="M388 0h-38l28 180q-76-30-164-30-87 0-133.5 44T48 323l24 157h38L86 323q-11-71 26-104t113-33q77 0 159 29l42 265h38z"/><glyph glyph-name="uni0448" unicode="ш" horiz-adv-x="808" d="M681 0H35l76 480h38L79 36h266l70 444h38L383 36h266l70 444h38z"/><glyph glyph-name="uni0449" unicode="щ" horiz-adv-x="829" d="M729-136h-38L713 0H35l76 480h38L79 36h266l70 444h38L383 36h266l70 444h38L687 36h69z"/><glyph glyph-name="uni044A" unicode="ъ" horiz-adv-x="575" d="M316 0H102l71 446H37l5 34h174l-28-180h178q78 0 121-43.5T519 147q-10-65-64.5-106T316 0zM182 265L146 35h170q69 0 113 32t52 86q8 51-25.5 81.5T358 265H182z"/><glyph glyph-name="uni044B" unicode="ы" horiz-adv-x="691" d="M249 0H35l76 480h38l-28-180h178q78 0 121-43.5T452 147q-10-65-64.5-106T249 0zM115 265L79 35h170q69 0 113 32t52 86q8 51-25.5 81.5T291 265H115zM564 0h-38l76 480h38z"/><glyph glyph-name="uni044C" unicode="ь" horiz-adv-x="508" d="M249 0H35l76 480h38l-28-180h178q78 0 121-43.5T452 147q-10-65-64.5-106T249 0zM115 265L79 35h170q69 0 113 32t52 86q8 51-25.5 81.5T291 265H115z"/><glyph glyph-name="uni044D" unicode="э" horiz-adv-x="502" d="M446 232q-10-63-37.5-111.5t-67-76-84-41.5T164-11Q76-11 3 32l6 36q68-43 150-43 93 0 161 48t86 150l-280-1 6 36 280 1q7 66-21.5 112t-73 65-97.5 19q-85 0-157-44l6 37q72 43 156 43 46 0 89-15.5t77-46 49.5-81.5 5.5-116z"/><glyph glyph-name="uni044E" unicode="ю" horiz-adv-x="805" d="M750 234Q732 120 649 54.5T463-11q-94 0-158 64t-56 170H109L74 1H36l76 480h38l-35-223h140q21 105 102.5 168.5T540 491q100 0 164.5-70.5T750 234zm-461 6q-15-97 37.5-155.5T465 26q90 0 161 57t87 157q15 97-37.5 155.5T537 454q-90 0-161-57t-87-157z"/><glyph glyph-name="uni044F" unicode="я" horiz-adv-x="537" d="M34 0h-44l175 192q-56 14-84 51.5T62 336q10 64 64 104t137 40h223L410 0h-38l30 186H206zm66 330q-8-50 26-79.5T226 221h181l36 224H264q-68 0-112-31.5T100 330z"/><glyph glyph-name="uni0451" unicode="ё" horiz-adv-x="543" d="M461 613q-2-11-11.5-19.5T428 585q-14 0-22 10t-6 23q2 11 12 20t21 9q14 0 22-10t6-24zm-201 0q-2-11-11.5-19.5T227 585q-14 0-22 10t-6 23q2 11 12 20t21 9q14 0 22-10t6-24zM38 242q19 115 97.5 182T309 491q62 0 106.5-26t62.5-65.5 22.5-87.5-13.5-93H74q-8-66 20-111.5t73.5-64T270 25q90 0 165 39l-6-39q-70-36-164-36-49 0-93 15T93.5 49t-50 80T38 242zm420 11q11 32 6 67.5T445 386t-50 49.5-86 19.5q-82 0-147.5-54T78 253h380z"/><glyph glyph-name="Wgrave" unicode="Ẁ" horiz-adv-x="993" d="M989 700h42L700 0h-45L551 624 247 0h-46L89 700h40L232 52l313 642h33L685 57zm-380 76h-40l-73 137h46z"/><glyph glyph-name="wgrave" unicode="ẁ" horiz-adv-x="796" d="M760 480h41L546 0h-39l-87 422L197 0h-40L54 480h38l92-430 225 424h35l88-424zm-285 76h-40l-73 137h46z"/><glyph glyph-name="Wacute" unicode="Ẃ" horiz-adv-x="993" d="M989 700h42L700 0h-45L551 624 247 0h-46L89 700h40L232 52l313 642h33L685 57zm-409 76h-43l110 137h48z"/><glyph glyph-name="wacute" unicode="ẃ" horiz-adv-x="796" d="M760 480h41L546 0h-39l-87 422L197 0h-40L54 480h38l92-430 225 424h35l88-424zm-314 76h-43l110 137h48z"/><glyph glyph-name="Wdieresis" unicode="Ẅ" horiz-adv-x="993" d="M989 700h42L700 0h-45L551 624 247 0h-46L89 700h40L232 52l313 642h33L685 57zM711 833q-2-11-11.5-19.5T678 805q-14 0-22 10t-6 23q2 11 12 20t21 9q14 0 22-10t6-24zm-201 0q-2-11-11.5-19.5T477 805q-14 0-22 10t-6 23q2 11 12 20t21 9q14 0 22-10t6-24z"/><glyph glyph-name="wdieresis" unicode="ẅ" horiz-adv-x="796" d="M760 480h41L546 0h-39l-87 422L197 0h-40L54 480h38l92-430 225 424h35l88-424zM577 613q-2-11-11.5-19.5T544 585q-14 0-22 10t-6 23q2 11 12 20t21 9q14 0 22-10t6-24zm-201 0q-2-11-11.5-19.5T343 585q-14 0-22 10t-6 23q2 11 12 20t21 9q14 0 22-10t6-24z"/><glyph glyph-name="Ygrave" unicode="Ỳ" horiz-adv-x="631" d="M289 0h-39l44 279L86 700h42l190-382 312 382h46L334 279zm135 776h-40l-73 137h46z"/><glyph glyph-name="ygrave" unicode="ỳ" horiz-adv-x="530" d="M235 39l263 441h42L202-85q-48-79-91.5-112.5T18-231q-21 0-51 7l5 33q22-6 43-6 43 0 79.5 30.5T171-69l41 69L45 480h39zm96 517h-40l-73 137h46z"/><glyph glyph-name="endash" unicode="–" horiz-adv-x="569" d="M489 226H59l5 36h431z"/><glyph glyph-name="emdash" unicode="—" horiz-adv-x="752" d="M673 226H59l5 36h614z"/><glyph glyph-name="quoteleft" unicode="‘" horiz-adv-x="192" d="M124 482H84l94 218h32z"/><glyph glyph-name="quoteright" unicode="’" horiz-adv-x="190" d="M117 482H85l86 218h40z"/><glyph glyph-name="quotesinglbase" unicode="‚" horiz-adv-x="204" d="M6-144h-32L60 74h40z"/><glyph glyph-name="quotedblleft" unicode="“" horiz-adv-x="320" d="M252 482h-40l94 218h32zm-128 0H84l94 218h32z"/><glyph glyph-name="quotedblright" unicode="”" horiz-adv-x="318" d="M245 482h-32l86 218h40zm-128 0H85l86 218h40z"/><glyph glyph-name="quotedblbase" unicode="„" horiz-adv-x="332" d="M134-144h-32l86 218h40zM6-144h-32L60 74h40z"/><glyph glyph-name="dagger" unicode="†" horiz-adv-x="491" d="M184-220h-40l105 662H59l6 38h190l35 220h40l-35-220h189l-5-38H289z"/><glyph glyph-name="daggerdbl" unicode="‡" horiz-adv-x="518" d="M197-220h-40l53 328H20l6 38h190l47 296H73l6 38h189l35 220h40l-35-220h190l-6-38H302l-47-296h190l-6-38H249z"/><glyph glyph-name="bullet" unicode="•" horiz-adv-x="297" d="M107 353q3 22 19 34.5t36 12.5q22 0 35.5-14.5T207 347q-3-22-19-34.5T151 300q-22 0-35 14.5t-9 38.5z"/><glyph glyph-name="ellipsis" unicode="…" horiz-adv-x="489" d="M383 20q-5-27-33-27-13 0-21 9t-5 23q1 12 10.5 19.5T355 52q15 0 22.5-8.5T383 20zM89 20Q84-7 57-7 43-7 35 2t-5 23q1 12 10.5 19.5T62 52q14 0 21.5-8.5T89 20zm147 0q-5-27-32-27-14 0-22 9t-5 23q1 12 10.5 19.5T209 52q14 0 21.5-8.5T236 20z"/><glyph glyph-name="perthousand" unicode="‰" horiz-adv-x="1251" d="M199-60h-40l539 820h40zm182 620q-10-68-59.5-105.5T210 417q-61 0-101.5 41T79 568q11 68 60.5 105.5T252 711q61 0 100.5-41T381 560zm-266 5q-8-51 20-82.5t76-31.5q51 0 89 30t47 82q7 51-21 82.5T251 677q-52 0-90-30t-46-82zm703-433q-11-68-60.5-105.5T647-11q-62 0-102.5 41T515 140q11 68 60.5 105.5T688 283q61 0 101-41t29-110zm-267 5q-8-51 20-82.5T647 23q51 0 89 30t47 82q7 51-21 82.5T687 249q-52 0-90-30t-46-82zm640-5q-11-68-60.5-105.5T1020-11q-62 0-102.5 41T888 140q11 68 60.5 105.5T1061 283q61 0 101-41t29-110zm-268 5q-8-51 20-82.5t76-31.5q51 0 89 30t47 82q7 51-21 82.5t-75 31.5q-52 0-90-30t-46-82z"/><glyph glyph-name="guilsinglleft" unicode="‹" horiz-adv-x="275" d="M175 66h-40L42 235l2 11 145 168h42L80 239z"/><glyph glyph-name="guilsinglright" unicode="›" horiz-adv-x="276" d="M71 66H28l151 175-95 173h40l94-169-2-11z"/><glyph glyph-name="fraction" unicode="⁄" horiz-adv-x="165" d="M-184-11h-23l571 722h23z"/><glyph glyph-name="Euro" unicode="€" horiz-adv-x="730" d="M709 604q-76 49-180 49-107 0-202.5-57T189 428h387l-6-34H178q-6-21-9-43-5-29-5-65h389l-6-34H167q13-105 88-165t178-60q121 0 203 50l-7-41q-82-47-200-47-120 0-205 70.5T126 252H37l6 34h81q0 38 5 68 2 14 8 40H60l6 34h81q44 127 153.5 195T529 691q106 0 187-50z"/><glyph glyph-name="trademark" unicode="™" horiz-adv-x="656" d="M351 448h-25l40 252h28l82-153 132 153h30l-40-252h-25l34 215-126-144h-16l-79 144zm-169 0h-25l36 228h-91l4 24h207l-4-24h-91z"/><glyph glyph-name="oneeighth" unicode="⅛" horiz-adv-x="919" d="M576 315q7 41 48 70.5T736 415q68 0 103-34t29-79q-9-66-79-106 72-35 61-98-7-44-51-74.5T675-7q-79 0-116.5 35T529 115q12 71 93 111-55 31-46 89zm134-122q-34 8-57 18-79-33-89-96-6-41 22.5-65.5T678 25q61 0 97.5 22t41.5 55q3 20-3.5 35T787 163t-33 15.5-44 14.5zm124 107q6 34-19.5 58.5T735 383t-87-20.5-39-51.5q-4-25 10-42.5t32.5-26T696 226q8-2 11-3 27-6 53-14 65 35 74 91zM175-11h-23l571 722h23zm45 691h25l-60-376h77l-6-32H48l5 32h99l54 340-97-35 6 33z"/><glyph glyph-name="threeeighths" unicode="⅜" horiz-adv-x="966" d="M622 315q7 41 48 70.5T782 415q68 0 103-34t29-79q-9-66-79-106 72-35 61-98-7-44-51-74.5T721-7q-79 0-116.5 35T575 115q12 71 93 111-55 31-46 89zm134-122q-34 8-57 18-79-33-89-96-6-41 22.5-65.5T724 25q61 0 97.5 22t41.5 55q3 20-3.5 35T833 163t-33 15.5-44 14.5zm124 107q6 34-19.5 58.5T781 383t-87-20.5-39-51.5q-4-25 10-42.5t32.5-26T742 226q8-2 11-3 27-6 53-14 65 35 74 91zM231-11h-23l571 722h23zm135 590q-5-32-28-57t-60-34q37-8 59-34.5t15-70.5q-9-55-54-84.5T186 269q-77 0-133 27l6 34q53-28 126-28 122 0 135 88 6 42-21 61t-76 19h-62l4 33h57q49 0 77.5 22.5T334 582q5 33-20.5 54.5T242 658q-67 0-129-29l6 35q59 27 128 27 58 0 92.5-32.5T366 579z"/><glyph glyph-name="fiveeighths" unicode="⅝" horiz-adv-x="958" d="M614 315q7 41 48 70.5T774 415q68 0 103-34t29-79q-9-66-79-106 72-35 61-98-7-44-51-74.5T713-7q-79 0-116.5 35T567 115q12 71 93 111-55 31-46 89zm134-122q-34 8-57 18-79-33-89-96-6-41 22.5-65.5T716 25q61 0 97.5 22t41.5 55q3 20-3.5 35T825 163t-33 15.5-44 14.5zm124 107q6 34-19.5 58.5T773 383t-87-20.5-39-51.5q-4-25 10-42.5t32.5-26T734 226q8-2 11-3 27-6 53-14 65 35 74 91zM223-11h-23l571 722h23zm-86 691h239l-6-32H164l-33-143q42 12 85 12 61 0 102.5-32.5T350 388q-10-56-56.5-89.5T180 265q-74 0-128 28l5 32q48-27 120-27 56 0 94 25.5t45 70.5q8 48-24.5 70T204 486 91 466z"/><glyph glyph-name="seveneighths" unicode="⅞" horiz-adv-x="858" d="M119-11H96l571 722h23zm393 326q7 41 48 70.5T672 415q68 0 103-34t29-79q-9-66-79-106 72-35 61-98-7-44-51-74.5T611-7q-79 0-116.5 35T465 115q12 71 93 111-55 31-46 89zm134-122q-34 8-57 18-79-33-89-96-6-41 22.5-65.5T614 25q61 0 97.5 22t41.5 55q3 20-3.5 35T723 163t-33 15.5-44 14.5zm124 107q6 34-19.5 58.5T671 383t-87-20.5-39-51.5q-4-25 10-42.5t32.5-26T632 226q8-2 11-3 27-6 53-14 65 35 74 91zm-628-28h-37l226 376H94l6 32h274l-5-30z"/><glyph glyph-name="partialdiff" unicode="∂" horiz-adv-x="593" d="M533 265q-20-128-99-202T244-11Q138-11 78.5 54.5T36 226q15 96 92.5 159T300 448q80 0 138-44.5T500 280q2 9 4 26 16 176-85 268.5T158 664l6 36q86 0 158.5-26t127-77.5 77.5-137 6-194.5zM73 221q-14-89 33.5-142T245 26q84 0 145 47.5T479 204q14 98-38.5 153T304 412q-85 0-151.5-53.5T73 221z"/><glyph glyph-name="emptyset" unicode="∅" horiz-adv-x="821" d="M781 345Q758 202 641 95.5T365-11q-133 0-217 79L79 0H50l84 83q-48 51-67.5 123T59 355q23 143 140 249.5T475 711q133 0 217-79l69 68h29l-84-82q48-52 67.5-124t7.5-149zm-698 4Q59 199 150 98l526 518q-79 72-200 72-151 0-262-101.5T83 349zm81-265q79-72 200-72 152 0 262.5 101.5T758 351q24 151-68 251z"/><glyph glyph-name="product" unicode="∏" horiz-adv-x="731" d="M98-220H58l140 882H97l6 38h656l-6-38H652L512-220h-40l140 882H237z"/><glyph glyph-name="summation" unicode="∑" horiz-adv-x="563" d="M464 0H-5l3 24 337 327-232 326 3 23h466l-7-38H161l219-307-2-13L66 38h405z"/><glyph glyph-name="minus" unicode="−" horiz-adv-x="518" d="M448 330H79l5 36h369z"/><glyph glyph-name="radical" unicode="√" horiz-adv-x="723" d="M301 0h-36L148 442H52l6 38h117L289 46l461 734h43z"/><glyph glyph-name="infinity" unicode="∞" horiz-adv-x="827" d="M427 389q28 33 47 53t46.5 43 57 33.5T640 529q69 0 111-47.5T781 355q-12-77-66-122.5T593 187q-104 0-174 140-37-45-62-70.5T290.5 209 205 187q-68 0-109.5 47.5T66 361q12 77 66 122.5T254 529q103 0 173-140zm-24-29q-31 63-63 98t-81 35q-57 0-101-36t-54-100q-10-62 21.5-98t86.5-36 96.5 34.5T403 360zm340 1q10 62-21.5 97T635 493t-97.5-35T444 356q29-62 62-97.5t82-35.5q57 0 101 37t54 101z"/><glyph glyph-name="integral" unicode="∫" horiz-adv-x="401" d="M240 660q11 69 55.5 100t98.5 31q41 0 71-14l-6-36q-26 13-62 13-43 0-77-23t-43-78L157-101q-11-68-54.5-99T3-231q-38 0-70 14l5 36q26-13 59-13 109 0 124 101z"/><glyph glyph-name="approxequal" unicode="≈" horiz-adv-x="579" d="M535 473q-3-42-31-67.5T434 380q-38 0-121.5 33.5T195 447q-28 0-46-15.5T128 390H92q4 43 31.5 68t69.5 25q39 0 122-33t118-33q28 0 46 15.5t20 40.5h36zm-23-145q-4-42-31.5-67.5T411 235q-37 0-121 33.5T172 302q-28 0-46-15.5T105 245H69q4 43 31.5 68t69.5 25q39 0 122-33t118-33q28 0 46 15.5t20 40.5h36z"/><glyph glyph-name="notequal" unicode="≠" horiz-adv-x="546" d="M134 140H98l80 101H65l5 37h135l115 144H93l6 37h249l79 101h36l-79-101h113l-6-37H356L241 278h227l-6-37H214z"/><glyph glyph-name="lessequal" unicode="≤" horiz-adv-x="517" d="M427 219l-6-38L85 341l6 38 386 159-5-38-345-140zM391 0H30l6 36h361z"/><glyph glyph-name="greaterequal" unicode="≥" horiz-adv-x="511" d="M450 340L64 181l6 38 344 141-299 140 5 38 337-159zM396 0H35l6 36h361z"/><glyph glyph-name="lozenge" unicode="◊" horiz-adv-x="546" d="M248 0h-42L48 350l268 350h43l158-350zM91 346L231 37l244 316-141 310z"/><glyph glyph-name="i.loclTRK" horiz-adv-x="208" d="M77 0H39l76 480h38zm109 597q-5-33-39-33-16 0-25.5 10.5T115 602q3 15 14 24t25 9q16 0 25.5-10.5T186 597z"/><glyph glyph-name="a.ss01" horiz-adv-x="536" d="M414 76q-8-45 38-45 18 0 41 7l-6-32q-22-8-45-8-34 0-53 19t-13 60l1 8q-40-46-96.5-71T166-11Q94-11 49.5 27.5T12 136q8 77 74 111.5T238 282t166-26l8 46q12 74-26 113.5T259 455q-75 0-164-31l6 38q85 29 163 29 105 0 152-51t32-145zM172 23q58 0 117 29t96 81l14 92q-75 24-157 24-47 0-86-9.5t-70.5-37T50 132q-4-52 30-80.5T172 23z"/><glyph glyph-name="aacute.ss01" horiz-adv-x="537" d="M415 76q-8-45 38-45 18 0 41 7l-6-32q-22-8-45-8-34 0-53 19t-13 60l1 8q-40-46-96.5-71T167-11Q95-11 50.5 27.5T13 136q8 77 74 111.5T239 282t166-26l8 46q12 74-26 113.5T260 455q-75 0-164-31l6 38q85 29 163 29 105 0 152-51t32-145zM173 23q58 0 117 29t96 81l14 92q-75 24-157 24-47 0-86-9.5t-70.5-37T51 132q-4-52 30-80.5T173 23zm122 533h-43l110 137h48z"/><glyph glyph-name="abreve.ss01" horiz-adv-x="537" d="M415 76q-8-45 38-45 18 0 41 7l-6-32q-22-8-45-8-34 0-53 19t-13 60l1 8q-40-46-96.5-71T167-11Q95-11 50.5 27.5T13 136q8 77 74 111.5T239 282t166-26l8 46q12 74-26 113.5T260 455q-75 0-164-31l6 38q85 29 163 29 105 0 152-51t32-145zM173 23q58 0 117 29t96 81l14 92q-75 24-157 24-47 0-86-9.5t-70.5-37T51 132q-4-52 30-80.5T173 23zm248 579q-57-41-132-41-80 0-124 41l6 39q49-44 120-44 73 0 136 44z"/><glyph glyph-name="acircumflex.ss01" horiz-adv-x="537" d="M415 76q-8-45 38-45 18 0 41 7l-6-32q-22-8-45-8-34 0-53 19t-13 60l1 8q-40-46-96.5-71T167-11Q95-11 50.5 27.5T13 136q8 77 74 111.5T239 282t166-26l8 46q12 74-26 113.5T260 455q-75 0-164-31l6 38q85 29 163 29 105 0 152-51t32-145zM173 23q58 0 117 29t96 81l14 92q-75 24-157 24-47 0-86-9.5t-70.5-37T51 132q-4-52 30-80.5T173 23zm118 664h33l108-131h-42l-85 101-116-101h-46z"/><glyph glyph-name="adieresis.ss01" horiz-adv-x="537" d="M415 76q-8-45 38-45 18 0 41 7l-6-32q-22-8-45-8-34 0-53 19t-13 60l1 8q-40-46-96.5-71T167-11Q95-11 50.5 27.5T13 136q8 77 74 111.5T239 282t166-26l8 46q12 74-26 113.5T260 455q-75 0-164-31l6 38q85 29 163 29 105 0 152-51t32-145zM173 23q58 0 117 29t96 81l14 92q-75 24-157 24-47 0-86-9.5t-70.5-37T51 132q-4-52 30-80.5T173 23zm253 590q-2-11-11.5-19.5T393 585q-14 0-22 10t-6 23q2 11 12 20t21 9q14 0 22-10t6-24zm-201 0q-2-11-11.5-19.5T192 585q-14 0-22 10t-6 23q2 11 12 20t21 9q14 0 22-10t6-24z"/><glyph glyph-name="agrave.ss01" horiz-adv-x="537" d="M415 76q-8-45 38-45 18 0 41 7l-6-32q-22-8-45-8-34 0-53 19t-13 60l1 8q-40-46-96.5-71T167-11Q95-11 50.5 27.5T13 136q8 77 74 111.5T239 282t166-26l8 46q12 74-26 113.5T260 455q-75 0-164-31l6 38q85 29 163 29 105 0 152-51t32-145zM173 23q58 0 117 29t96 81l14 92q-75 24-157 24-47 0-86-9.5t-70.5-37T51 132q-4-52 30-80.5T173 23zm151 533h-40l-73 137h46z"/><glyph glyph-name="amacron.ss01" horiz-adv-x="537" d="M415 76q-8-45 38-45 18 0 41 7l-6-32q-22-8-45-8-34 0-53 19t-13 60l1 8q-40-46-96.5-71T167-11Q95-11 50.5 27.5T13 136q8 77 74 111.5T239 282t166-26l8 46q12 74-26 113.5T260 455q-75 0-164-31l6 38q85 29 163 29 105 0 152-51t32-145zM173 23q58 0 117 29t96 81l14 92q-75 24-157 24-47 0-86-9.5t-70.5-37T51 132q-4-52 30-80.5T173 23zm-5 597h264l-5-36H163z"/><glyph glyph-name="aogonek.ss01" horiz-adv-x="537" d="M494 38l-6-32Q360-78 351-144q-4-25 8-39t37-14q29 0 53 10l-5-33q-25-9-56-9-40 0-60 23t-14 60Q324-80 430-1q-64 7-53 78l1 8q-40-46-96.5-71T167-11Q95-11 50.5 27.5T13 136q8 77 74 111.5T239 282t166-26l8 46q12 74-26 113.5T260 455q-75 0-164-31l6 38q85 29 163 29 105 0 152-51t32-145L415 76q-8-45 38-45 18 0 41 7zM173 23q58 0 117 29t96 81l14 92q-75 24-157 24-47 0-86-9.5t-70.5-37T51 132q-4-52 30-80.5T173 23z"/><glyph glyph-name="aring.ss01" horiz-adv-x="537" d="M415 76q-8-45 38-45 18 0 41 7l-6-32q-22-8-45-8-34 0-53 19t-13 60l1 8q-40-46-96.5-71T167-11Q95-11 50.5 27.5T13 136q8 77 74 111.5T239 282t166-26l8 46q12 74-26 113.5T260 455q-75 0-164-31l6 38q85 29 163 29 105 0 152-51t32-145zM173 23q58 0 117 29t96 81l14 92q-75 24-157 24-47 0-86-9.5t-70.5-37T51 132q-4-52 30-80.5T173 23zm218 598q-7-38-37-62.5T288 534q-38 0-63 26t-18 66q7 38 37 62t67 24q38 0 62.5-25.5T391 621zm-154 2q-4-27 11.5-44t39.5-17q26 0 48 16.5t26 45.5q4 26-11 43t-39 17q-27 0-49-16.5T237 623z"/><glyph glyph-name="atilde.ss01" horiz-adv-x="537" d="M415 76q-8-45 38-45 18 0 41 7l-6-32q-22-8-45-8-34 0-53 19t-13 60l1 8q-40-46-96.5-71T167-11Q95-11 50.5 27.5T13 136q8 77 74 111.5T239 282t166-26l8 46q12 74-26 113.5T260 455q-75 0-164-31l6 38q85 29 163 29 105 0 152-51t32-145zM173 23q58 0 117 29t96 81l14 92q-75 24-157 24-47 0-86-9.5t-70.5-37T51 132q-4-52 30-80.5T173 23zm273 620q-1-38-21.5-59.5T372 562q-30 0-82.5 26.5T217 615q-21 0-33-13t-12-34h-34q0 36 21.5 58.5T211 649q29 0 82.5-26.5T368 596q44 0 44 47h34z"/><glyph glyph-name="ae.ss01" horiz-adv-x="897" d="M421 104Q312-11 170-11q-69 0-117 41T14 139q10 77 75 110t155 33q84 0 163-27l8 47q11 71-26 112t-118 41q-85 0-174-31l6 38q85 29 173 29 80 0 124.5-38.5T446 347q34 68 94.5 106T674 491q58 0 99.5-25t59-65 21-88.5T839 216H439q-10-97 46.5-144T630 25q90 0 158 38l-6-39q-67-35-159-35-68 0-122 28.5T421 104zM52 136q-7-50 31.5-81.5T175 23q124 0 233 110-12 43-6 92-77 24-154 24-181 0-196-113zm618 319q-84 0-146-54t-80-151h367q21 78-14.5 141.5T670 455z"/><glyph glyph-name="y.ss01" horiz-adv-x="577" d="M449-7q-19-116-93.5-170T182-231q-107 0-164 38l6 36q59-38 155-38 57 0 103 17t83 61T412-5l15 102q-37-44-90.5-76T220-11q-85 0-130.5 53.5T58 186l47 294h38L96 187q-12-79 23-120.5T224 25q63 0 119 36t92 85l53 334h38z"/><glyph glyph-name="yacute.ss01" horiz-adv-x="577" d="M449-7q-19-116-93.5-170T182-231q-107 0-164 38l6 36q59-38 155-38 57 0 103 17t83 61T412-5l15 102q-37-44-90.5-76T220-11q-85 0-130.5 53.5T58 186l47 294h38L96 187q-12-79 23-120.5T224 25q63 0 119 36t92 85l53 334h38zM332 556h-43l110 137h48z"/><glyph glyph-name="ycircumflex.ss01" horiz-adv-x="577" d="M449-7q-19-116-93.5-170T182-231q-107 0-164 38l6 36q59-38 155-38 57 0 103 17t83 61T412-5l15 102q-37-44-90.5-76T220-11q-85 0-130.5 53.5T58 186l47 294h38L96 187q-12-79 23-120.5T224 25q63 0 119 36t92 85l53 334h38zM328 687h33l108-131h-42l-85 101-116-101h-46z"/><glyph glyph-name="ydieresis.ss01" horiz-adv-x="577" d="M449-7q-19-116-93.5-170T182-231q-107 0-164 38l6 36q59-38 155-38 57 0 103 17t83 61T412-5l15 102q-37-44-90.5-76T220-11q-85 0-130.5 53.5T58 186l47 294h38L96 187q-12-79 23-120.5T224 25q63 0 119 36t92 85l53 334h38zm14 620q-2-11-11.5-19.5T430 585q-14 0-22 10t-6 23q2 11 12 20t21 9q14 0 22-10t6-24zm-201 0q-2-11-11.5-19.5T229 585q-14 0-22 10t-6 23q2 11 12 20t21 9q14 0 22-10t6-24z"/><glyph glyph-name="ygrave.ss01" horiz-adv-x="577" d="M449-7q-19-116-93.5-170T182-231q-107 0-164 38l6 36q59-38 155-38 57 0 103 17t83 61T412-5l15 102q-37-44-90.5-76T220-11q-85 0-130.5 53.5T58 186l47 294h38L96 187q-12-79 23-120.5T224 25q63 0 119 36t92 85l53 334h38zm-88 563h-40l-73 137h46z"/><glyph glyph-name="f_b" horiz-adv-x="956" d="M473 369q38 54 99 88t129 34q100 0 159-72.5T901 234q-17-111-93.5-178T626-11q-72 0-122 35.5T431 118L412 0h-35l102 640q-60 35-135 35-63 0-104.5-32T188 551l-12-71h184l-5-36H171L100 0H62l71 444H49l5 36h84l13 74q12 76 65 116.5T343 711q78 0 141-36l3 17 40 11zM624 25q93 0 159 56.5T865 238q15 97-35 157t-134 60q-73 0-135.5-41.5T465 309l-23-139q13-63 61.5-104T624 25z"/><glyph glyph-name="f_f_b" horiz-adv-x="1266" d="M783 369q38 54 99 88t129 34q100 0 159-72.5t41-184.5q-17-111-93.5-178T936-11q-72 0-122 35.5T741 118L722 0h-35l103 643q-61 36-136 36-62 0-104-32.5T498 551l-12-71h184l-5-36H481L410 0h-38l71 444H171L100 0H62l71 444H49l5 36h84l10 58q12 76 67 116.5T346 695q80 0 151-51 56 71 155 71 80 0 143-36l3 17 39 11zM448 480l12 74q6 37 20 60-59 45-133 45-65 0-108.5-32T185 535l-9-55h272zM934 25q93 0 159 56.5t82 156.5q15 97-35 157t-134 60q-73 0-135.5-41.5T775 309l-23-139q13-63 61.5-104T934 25z"/><glyph glyph-name="f_f_h" horiz-adv-x="1229" d="M785 383q95 108 212 108 82 0 127-54t31-143L1108 0h-38l47 293q12 77-24.5 119.5T989 455q-63 0-119.5-36T777 333L725 0h-38l103 643q-61 36-136 36-62 0-104-32.5T498 551l-12-71h184l-5-36H481L410 0h-38l71 444H171L100 0H62l71 444H49l5 36h84l10 58q12 76 67 116.5T346 695q80 0 151-51 56 71 155 71 80 0 143-36l3 17 39 11zm-337 97l12 74q6 37 20 60-59 45-133 45-65 0-108.5-32T185 535l-9-55h272z"/><glyph glyph-name="f_f_j" horiz-adv-x="846" d="M698-111q-20-120-139-120-39 0-71 13l6 34q27-11 59-11 94 0 108 92l86 547H481L410 0h-38l71 444H171L100 0H62l71 444H49l5 36h84l10 58q12 76 66.5 116.5T346 695q81 0 152-51 55 71 155 71 81 0 149-43l-6-38q-64 45-141 45-62 0-104.5-33T498 551l-12-71h305zM185 535l-9-55h272l12 74q6 35 20 60-63 45-133 45-66 0-109-32t-53-92z"/><glyph glyph-name="f_f_k" horiz-adv-x="1149" d="M1105 480h45L918 247 1099 0h-43L884 233H763L726 0h-38l102 643q-61 36-136 36-62 0-104-32.5T498 551l-12-71h184l-5-36H481L410 0h-38l71 444H171L100 0H62l71 444H49l5 36h84l10 58q12 76 67 116.5T346 695q80 0 151-51 56 71 155 71 80 0 143-36l3 17 40 11-69-438h124zm-657 0l12 74q6 37 20 60-59 45-133 45-65 0-108.5-32T185 535l-9-55h272z"/><glyph glyph-name="f_h" horiz-adv-x="919" d="M475 383q95 108 212 108 82 0 127-54t31-143L798 0h-38l47 293q12 77-24.5 119.5T679 455q-63 0-119.5-36T467 333L415 0h-38l102 640q-60 35-135 35-63 0-104.5-32T188 551l-12-71h184l-5-36H171L100 0H62l71 444H49l5 36h84l13 74q12 76 65 116.5T343 711q78 0 141-36l3 17 40 11z"/><glyph glyph-name="f_i" horiz-adv-x="536" d="M100 0H62l71 444H49l5 36h84l13 74q12 76 64.5 116.5T341 711q83 0 151-43l-7-37q-65 44-141 44-62 0-104.5-32T188 551l-12-71h305L405 0h-38l70 444H171z"/><glyph glyph-name="f_j" horiz-adv-x="536" d="M388-111q-20-120-139-120-39 0-71 13l6 34q27-11 59-11 94 0 108 92l86 547H171L100 0H62l71 444H49l5 36h84l13 74q12 76 64.5 116.5T341 711q83 0 151-43l-7-37q-65 44-141 44-62 0-104.5-32T188 551l-12-71h305z"/><glyph glyph-name="f_k" horiz-adv-x="838" d="M794 480h46L607 247 788 0h-43L574 233H452L415 0h-38l102 640q-60 35-135 35-63 0-104.5-32T188 551l-12-71h184l-5-36H171L100 0H62l71 444H49l5 36h84l13 74q12 76 65 116.5T343 711q78 0 141-36l3 17 40 11-69-434h125z"/><glyph glyph-name="f_l" horiz-adv-x="546" d="M484 675l3 17 40 11L415 0h-38l102 640q-60 35-135 35-63 0-104.5-32T188 551l-12-71h184l-5-36H171L100 0H62l71 444H49l5 36h84l13 74q12 76 65 116.5T343 711q78 0 141-36z"/><glyph glyph-name="uni0414.loclBGR" horiz-adv-x="792" d="M-8-174h-38l34 212h73l377 662h46L653 38h73l-34-212h-38L682 0H20zm464 831L105 38h508z"/><glyph glyph-name="uni041B.loclBGR" horiz-adv-x="676" d="M-30 0l413 700h41L615 0h-42L398 653 14 0h-44z"/><glyph glyph-name="uni0424.loclBGR" horiz-adv-x="889" d="M401-106h-39l15 98Q213-4 124.5 99T60 356q24 152 142 250t289 102l16 98h38l-15-98q165-4 253.5-107T848 344Q824 192 706 94T416-8zM99 352q-21-135 55-226.5T383 30l102 640q-155-4-259.5-93T99 352zm424 318L422 30q155 4 259.5 93T807 348q22 135-54 226.5T523 670z"/><glyph glyph-name="uni0432.loclBGR" horiz-adv-x="576" d="M371 711q79 0 122.5-48T526 545q-18-110-146-155 71-10 109.5-65.5T516 191q-15-90-82-146T268-11q-108 0-166.5 70T65 263l17 115q27 163 99.5 248T371 711zM117 360l191 37q86 18 128.5 55t51.5 96q8 54-24.5 90.5T368 675q-200 0-248-297zM269 25q82 0 139 45t70 123q13 83-37.5 134T301 361l-189-36-9-62Q84 143 130 84t139-59z"/><glyph glyph-name="uni0433.loclBGR" horiz-adv-x="466" d="M378 40q-36-23-89.5-37T186-11q-84 0-133 33.5T13 122q7 51 46 80t90.5 40T252 262.5t90 33 46 66.5q8 47-29 70t-97 23q-93 0-179-47l6 38q90 45 181 45 74 0 120.5-33t35.5-98q-8-52-48-82t-91.5-41T184 216.5t-89-32T51 120q-7-49 32-72t111-23q47 0 99.5 14.5T384 80z"/><glyph glyph-name="uni0434.loclBGR" horiz-adv-x="615" d="M488-1q-19-118-98.5-174T203-231q-108 0-181 48l6 36q71-48 172-48 96 0 165 47.5T450 1l18 109q-37-53-97.5-87T240-11Q136-11 78.5 60.5T39 246q18 110 95.5 177.5T315 491q72 0 122-36t73-95l18 120h36zM76 242q-15-97 33-157t136-60q73 0 135.5 41T476 168l23 143q-13 62-61.5 103T317 455q-89 0-157-57T76 242z"/><glyph glyph-name="uni0436.loclBGR" horiz-adv-x="718" d="M9 0h-46l252 247L68 480h40l138-217h91l69 437h38l-69-437h89l206 217h44L492 245 664 0h-42L461 227h-92L333 0h-38l36 227h-89z"/><glyph glyph-name="uni0438.loclBGR" horiz-adv-x="577" d="M488 480h38L450 0h-35l16 101q-35-45-92-78.5T219-11q-83 0-129 54T58 187l47 293h38L96 187q-12-77 24-119.5T224 25q64 0 120 36t91 86z"/><glyph glyph-name="uni0439.loclBGR" horiz-adv-x="577" d="M458 602q-57-41-132-41-80 0-124 41l6 37q48-44 120-44 73 0 136 44zm30-122h38L450 0h-35l16 101q-35-45-92-78.5T219-11q-83 0-129 54T58 187l47 293h38L96 187q-12-77 24-119.5T224 25q64 0 120 36t91 86z"/><glyph glyph-name="uni043A.loclBGR" horiz-adv-x="499" d="M452 480h45L265 247 446 0h-43L231 233H110L73 0H35l111 700h38l-69-431h125z"/><glyph glyph-name="uni043B.loclBGR" horiz-adv-x="524" d="M313 480L459 0h-40L288 437 18 0h-44l298 480h41z"/><glyph glyph-name="uni043F.loclBGR" horiz-adv-x="578" d="M129 380q98 111 216 111 82 0 127-54t31-143L456 0h-38l47 293q12 77-24.5 119.5T337 455q-63 0-119.5-36T125 334L73 0H35l76 480h34z"/><glyph glyph-name="uni0442.loclBGR" horiz-adv-x="893" d="M471 388q97 103 202 103 79 0 119-51.5T820 307L771 0h-38l49 309q11 65-20 105.5T668 455q-103 0-190-105 1-18-2-43L427 0h-38l49 309q11 65-20 105.5T324 455q-59 0-110-34.5T127 341L73 0H35l76 480h34l-15-95q35 42 87.5 74T329 491q56 0 93.5-28t48.5-75z"/><glyph glyph-name="uni0446.loclBGR" horiz-adv-x="604" d="M464 88q-5-32 8.5-44.5T515 31h21l-26-167h-36L496-2q-37 2-57 26.5T427 96q-37-44-92-75.5T219-11q-83 0-129 54T58 187l47 293h38L96 187q-12-77 24-119.5T224 25q64 0 120 36t91 86l53 333h38z"/><glyph glyph-name="uni0448.loclBGR" horiz-adv-x="892" d="M749 136l54 344h38L765 0h-35l15 93q-33-40-85.5-72T547-11q-55 0-93 28.5T405 93Q309-11 203-11q-78 0-118.5 52T57 173l48 307h38L94 171q-10-65 20.5-105.5T208 25q57 0 106.5 31.5T398 131q0 19 3 42l48 307h38l-49-309q-10-65 20.5-105.5T552 25q59 0 111 33.5t86 77.5z"/><glyph glyph-name="uni0449.loclBGR" horiz-adv-x="919" d="M779 88q-5-32 8.5-44.5T830 31h22l-26-167h-36L812-2q-83 4-70 91-33-39-85-69.5T547-11q-55 0-92.5 27.5T404 91Q308-11 203-11q-78 0-118.5 52T57 173l48 307h38L94 171q-10-65 20.5-105.5T208 25q56 0 105.5 31.5T398 131q0 19 3 42l48 307h38l-49-309q-10-65 20.5-105.5T552 25q59 0 111 33.5t86 77.5l54 344h38z"/><glyph glyph-name="uni044E.loclBGR" horiz-adv-x="804" d="M749 234Q731 120 648 54.5T462-11q-94 0-158 64t-55 170H108L73 1H35l111 699h38l-70-442h140q21 105 102.5 168.5T539 491q100 0 164.5-70.5T749 234zm-461 6q-15-97 37.5-155.5T464 26q90 0 161 57t87 157q15 97-37.5 155.5T536 454q-90 0-161-57t-87-157z"/><glyph glyph-name="uni0430.ss01" horiz-adv-x="542" d="M414 76q-8-45 38-45 18 0 41 7l-6-32q-22-8-45-8-34 0-53 19t-13 60l1 8q-40-46-96.5-71T166-11Q94-11 49.5 27.5T12 136q8 77 74 111.5T238 282t166-26l8 46q12 74-26 113.5T259 455q-75 0-164-31l6 38q85 29 163 29 105 0 152-51t32-145zM172 23q58 0 117 29t96 81l14 92q-75 24-157 24-47 0-86-9.5t-70.5-37T50 132q-4-52 30-80.5T172 23z"/><glyph glyph-name="uni0437.ss01" horiz-adv-x="448" d="M367-36q-15-94-85.5-144.5T107-231q-111 0-171 45l6 37q62-47 162-47 87 0 149.5 42.5T329-32q13 82-38.5 137T153 141l-63-13 5 35 70 15q158 36 174 151 8 56-27.5 91T213 455q-87 0-166-48l5 42q81 42 165 42 78 0 124.5-46.5T378 327q-16-112-148-157 70-11 109.5-71T367-36z"/><glyph glyph-name="uni0443.ss01" horiz-adv-x="577" d="M449-7q-19-116-93.5-170T182-231q-107 0-164 38l6 36q59-38 155-38 57 0 103 17t83 61T412-5l15 102q-37-44-90.5-76T220-11q-85 0-130.5 53.5T58 186l47 294h38L96 187q-12-79 23-120.5T224 25q63 0 119 36t92 85l53 334h38z"/><glyph glyph-name="zero.osf" horiz-adv-x="659" d="M602 254Q585 146 501 67.5T288-11q-69 0-120.5 24T88 77t-38.5 89T47 266q18 108 103 186.5T361 531q130 0 194-84t47-193zm-515 8q-9-60 8-112.5T162 62t127-35q112 0 186 67.5T563 258q15 94-38 164.5T362 493q-113 0-186.5-67.5T87 262z"/><glyph glyph-name="one.osf" horiz-adv-x="409" d="M258 520h28L210 38h139l-7-38H11l6 38h154l68 439-161-58 6 38z"/><glyph glyph-name="two.osf" horiz-adv-x="521" d="M424 0H4l5 27q3 17 9 33t11.5 28.5T48 114t19.5 21T93 154.5t26 16 30 15.5 29.5 13.5 33.5 14 32 13.5q7 3 35 14t37.5 15.5 32 15.5 32.5 19.5 24 22 21 28.5 10 33q9 53-28.5 86T298 494q-99 0-206-58l6 40q100 55 205 55 86 0 134.5-44.5T475 370q-3-19-11.5-36.5t-17.5-30-25.5-26T393 256t-33.5-19-33.5-15.5-36.5-15.5-33.5-14q-111-47-143-69-53-36-60-85h377z"/><glyph glyph-name="three.osf" horiz-adv-x="539" d="M471 347q-9-54-48-97t-103-57q64-12 101.5-56.5T447 18q-14-89-88-139t-171-50q-119 0-203 45l5 38q84-45 196-45 86 0 149 41t75 116-36 112-130 37h-78l6 38 73-1q80 0 129 40.5t59 99.5q10 62-31.5 103T282 494q-95 0-195-47l7 40q93 44 193 44 94 0 145-53t39-131z"/><glyph glyph-name="four.osf" horiz-adv-x="592" d="M428 520h43L396 43h134l-6-38H391l-27-165h-39L352 5H-21l5 35zM358 43l67 421L33 43h325z"/><glyph glyph-name="five.osf" horiz-adv-x="531" d="M130 520h361l-5-38H161l-58-267q72 23 142 23 42 0 80.5-12t69.5-36 46-65.5 7-93.5q-14-91-89.5-146.5T178-171q-106 0-189 47l6 37q81-47 180-47 93 0 157 46t77 124q13 84-40 124.5T233 201q-88 0-179-33z"/><glyph glyph-name="six.osf" horiz-adv-x="581" d="M538 616q-59 37-135 37-48 0-93.5-19T222 577t-74-105.5T102 316q108 97 232 97 87 0 144-55t42-156q-16-98-87.5-155.5T274-11Q148-11 93.5 79T63 324q30 183 126 275t214 92q81 0 141-38zm-58-411q13 85-33 128t-121 43q-58 0-119.5-28.5T96 269q-8-116 37.5-179.5T271 26q75 0 135 47.5T480 205z"/><glyph glyph-name="seven.osf" horiz-adv-x="470" d="M55 520h436l-4-34L82-160H39l402 642H50z"/><glyph glyph-name="eight.osf" horiz-adv-x="612" d="M118 527q10 66 77.5 115T366 691q101 0 156-54.5T567 511q-14-107-141-185 60-25 90.5-63.5T537 163q-11-72-83.5-123T263-11 85.5 45 39 185q9 57 51 108t111 85q-99 53-83 149zm198-195q-37 13-81 29-65-29-106.5-76T78 184q-11-71 38.5-114.5T265 26q96 0 160.5 41t73.5 99q5 34-2 57.5T461.5 266t-46 27-68.5 27q-20 8-31 12zm212 179q9 57-35.5 100T364 654q-83 0-141-39t-67-93q-5-32 3.5-56.5T197 422t45-26.5 59-23.5l15-6q71-23 75-24 121 68 137 169z"/><glyph glyph-name="nine.osf" horiz-adv-x="568" d="M45 320q16 98 87 154.5T290 531q126 0 180.5-90T501 196Q471 13 375.5-79T161-171q-78 0-141 38l5 37q64-37 137-37 47 0 93 19t88 57 73.5 105T462 203q-102-96-233-96-87 0-143.5 56T45 320zm39-4q-13-86 33-129t122-43q60 0 121 28.5T468 251q9 116-37.5 179.5T292 494q-75 0-134.5-46.5T84 316z"/><glyph glyph-name="zero.sinf" horiz-adv-x="431" d="M363 100Q348 7 294-50t-139-57q-88 0-125 59.5T9 108q15 93 69 150t140 57q87 0 124-60t21-155zm-320 6Q30 23 58-25.5T156-74q74 0 117.5 46T330 102q13 83-15 131.5T217 282q-73 0-117-46T43 106z"/><glyph glyph-name="one.sinf" horiz-adv-x="256" d="M141 308h25L106-68h77l-6-32H-31l5 32h99l54 340-97-35 6 33z"/><glyph glyph-name="two.sinf" horiz-adv-x="346" d="M45 278q61 37 130 37 57 0 92.5-29.5T294 207q-8-45-42.5-76.5T156 68q-30-16-40.5-21.5T82 26 49.5 0 29-29 15-68h241l-6-32H-30l3 19q5 35 20 62.5t41.5 49T80 63t56 30q59 30 89 55.5t36 63.5q6 33-19 52t-68 19q-68 0-135-41z"/><glyph glyph-name="three.sinf" horiz-adv-x="357" d="M289 203q-5-32-28-57t-60-34q37-8 59-34.5T275 7q-9-55-54-84.5T109-107q-77 0-133 27l6 34q53-28 126-28 122 0 135 88 6 42-21 61t-76 19H84l4 33h57q49 0 77.5 22.5T257 206q5 33-20.5 54.5T165 282q-67 0-129-29l6 35q59 27 128 27 58 0 92.5-32.5T289 203z"/><glyph glyph-name="four.sinf" horiz-adv-x="392" d="M254 308h37L246 27h83l-5-31h-82l-16-96h-33l15 96H-26l5 30zM214 27l36 233L22 27h192z"/><glyph glyph-name="five.sinf" horiz-adv-x="354" d="M65 308h239l-6-32H92L59 133q42 12 85 12 61 0 102.5-32.5T278 16q-10-56-56.5-89.5T108-107q-74 0-128 28l5 32q48-27 120-27 56 0 94 25.5T244 22q8 48-24.5 70T132 114 19 94z"/><glyph glyph-name="six.sinf" horiz-adv-x="378" d="M308 260q-35 22-86 22-67 0-115-44T42 99q70 52 144 52 56 0 92.5-34T305 22q-9-61-54-95t-106-34q-81 0-116.5 55T8 97q17 110 75 164t139 54q50 0 91-23zM143-75q50 0 85 24.5T271 23q8 48-19.5 72T178 119q-77 0-140-57Q33-5 60-40t83-35z"/><glyph glyph-name="seven.sinf" horiz-adv-x="307" d="M61-100H24l226 376H13l6 32h274l-5-30z"/><glyph glyph-name="eight.sinf" horiz-adv-x="397" d="M40 215q7 41 48 70.5T200 315q68 0 103-34t29-79q-9-66-79-106 72-35 61-98-7-44-51-74.5T139-107q-79 0-116.5 35T-7 15Q5 86 86 126q-55 31-46 89zM174 93q-34 8-57 18-79-33-89-96-6-41 22.5-65.5T142-75q61 0 97.5 22T281 2q3 20-3.5 35T251 63t-33 15.5T174 93zm124 107q6 34-19.5 58.5T199 283t-87-20.5T73 211q-4-25 10-42.5t32.5-26T160 126q8-2 11-3 27-6 53-14 65 35 74 91z"/><glyph glyph-name="nine.sinf" horiz-adv-x="377" d="M13 186q9 61 55 95t106 34q81 0 116-54.5T310 111Q292 1 234.5-53T95-107q-51 0-90 23l5 32q37-22 86-22 67 0 114.5 43.5T275 107q-70-50-143-50-56 0-92.5 34T13 186zm162 97q-50 0-85.5-25T47 185q-8-48 19.5-72T140 89q77 0 140 57 5 67-22 102t-83 35z"/><glyph glyph-name="zero.sups" horiz-adv-x="432" d="M439 576q-15-93-69-150t-139-57q-88 0-125 59.5T85 584q15 93 69 150t140 57q87 0 124-60t21-155zm-320 6q-13-83 15-131.5t98-48.5q74 0 117.5 46T406 578q13 83-15 131.5T293 758q-73 0-117-46t-57-130z"/><glyph glyph-name="one.sups" horiz-adv-x="256" d="M216 780h25l-60-376h77l-6-32H44l5 32h99l54 340-97-35 6 33z"/><glyph glyph-name="two.sups" horiz-adv-x="347" d="M120 754q61 37 130 37 57 0 92.5-29.5T369 683q-8-45-42.5-76.5T231 544q-30-16-40.5-21.5T157 502t-32.5-26-20.5-29-14-39h241l-6-32H45l3 19q5 35 20 62.5t41.5 49T155 539t56 30q59 30 89 55.5t36 63.5q6 33-19 52t-68 19q-68 0-135-41z"/><glyph glyph-name="three.sups" horiz-adv-x="356" d="M364 679q-5-32-28-57t-60-34q37-8 59-34.5t15-70.5q-9-55-54-84.5T184 369q-77 0-133 27l6 34q53-28 126-28 122 0 135 88 6 42-21 61t-76 19h-62l4 33h57q49 0 77.5 22.5T332 682q5 33-20.5 54.5T240 758q-67 0-129-29l6 35q59 27 128 27 58 0 92.5-32.5T364 679z"/><glyph glyph-name="four.sups" horiz-adv-x="392" d="M328 780h37l-45-281h83l-5-31h-82l-16-96h-33l15 96H48l5 30zm-40-281l36 233L96 499h192z"/><glyph glyph-name="five.sups" horiz-adv-x="354" d="M140 780h239l-6-32H167l-33-143q42 12 85 12 61 0 102.5-32.5T353 488q-10-56-56.5-89.5T183 365q-74 0-128 28l5 32q48-27 120-27 56 0 94 25.5t45 70.5q8 48-24.5 70T207 586 94 566z"/><glyph glyph-name="six.sups" horiz-adv-x="377" d="M383 736q-35 22-86 22-67 0-115-44t-65-139q70 52 144 52 56 0 92.5-34t26.5-95q-9-61-54-95t-106-34q-81 0-116.5 55T83 573q17 110 75 164t139 54q50 0 91-23zM218 401q50 0 85 24.5t43 73.5q8 48-19.5 72T253 595q-77 0-140-57-5-67 22-102t83-35z"/><glyph glyph-name="seven.sups" horiz-adv-x="308" d="M136 372H99l226 376H88l6 32h274l-5-30z"/><glyph glyph-name="eight.sups" horiz-adv-x="397" d="M115 691q7 41 48 70.5T275 791q68 0 103-34t29-79q-9-66-79-106 72-35 61-98-7-44-51-74.5T214 369q-79 0-116.5 35T68 491q12 71 93 111-55 31-46 89zm134-122q-34 8-57 18-79-33-89-96-6-41 22.5-65.5T217 401q61 0 97.5 22t41.5 55q3 20-3.5 35T326 539t-33 15.5-44 14.5zm124 107q6 34-19.5 58.5T274 759t-87-20.5-39-51.5q-4-25 10-42.5t32.5-26T235 602q3 0 4-.5t3-1 4-1.5q27-6 53-14 65 35 74 91z"/><glyph glyph-name="nine.sups" horiz-adv-x="378" d="M89 662q9 61 55 95t106 34q81 0 116-54.5T386 587q-18-110-75.5-164T171 369q-51 0-90 23l5 32q37-22 86-22 67 0 114.5 43.5T351 583q-70-50-143-50-56 0-92.5 34T89 662zm162 97q-50 0-85.5-25T123 661q-8-48 19.5-72t73.5-24q77 0 140 57 5 67-22 102t-83 35z"/><glyph glyph-name="zero.tf" d="M45 346q25 156 110.5 250.5T370 691t186.5-99.5T589 334Q564 178 478 83.5T263-11 77 88.5 45 346zm505-8q22 143-24.5 229T369 653q-112 0-186.5-83T85 342q-23-143 23.5-229T265 27q113 0 187.5 83T550 338z"/><glyph glyph-name="one.tf" d="M389 680h28L315 38h218l-6-38H33l6 38h236l95 599-219-77 6 38z"/><glyph glyph-name="two.tf" d="M144 629q109 62 226 62 102 0 159.5-48.5T574 515q-5-33-22.5-62.5t-35.5-49-55.5-44.5-58-36.5T333 285q-8-4-42-22t-44.5-24-39-23-39.5-27-31.5-29-30.5-35.5-20-39T71 38h436l-6-38H21l4 23q7 45 26.5 83.5t40.5 64 59.5 53 64 41.5 72.5 39q15 8 23 12 6 3 19 10 48 25 73 39.5t58.5 40T513 459t23 61q9 61-36.5 97.5T366 654q-112 0-224-67z"/><glyph glyph-name="three.tf" d="M560 507q-9-54-48.5-97T408 353q65-12 102.5-56.5T536 178q-15-90-90.5-139.5T259-11Q118-11 30 34l5 37q90-45 223-45 99 1 163.5 41.5T498 184q12 75-38 112t-140 37H210l7 37h104q89 0 140 40.5t60 99.5q10 62-35 103t-135 41q-109 0-220-47l6 40q102 44 220 44 103 0 159-53t44-131z"/><glyph glyph-name="four.tf" d="M477 680h44l-76-477h134l-5-38H440L413 0h-39l26 165H3l5 35zm-72-477l68 423L59 203h346z"/><glyph glyph-name="five.tf" d="M176 680h405l-6-38H208l-60-267q78 23 162 23 111 0 178-52t51-156q-15-92-93.5-146.5T254-11Q122-11 36 36l5 36q86-46 211-46 101 0 168 45.5T499 195q13 86-43.5 126T297 361q-103 0-197-33z"/><glyph glyph-name="six.tf" d="M563 617q-60 36-139 36-123 0-206-80.5T107 317q119 96 253 96 43 0 81-13t66.5-38.5 42-66.5 5.5-93q-16-99-90.5-156T291-11q-133 0-190 89.5T68 324q30 187 124 277t232 90q82 0 145-38zM290 26q86 0 148.5 47T515 205q13 86-34.5 128.5T351 376q-64 0-130-27.5T102 272Q92 153 140 89.5T290 26z"/><glyph glyph-name="seven.tf" d="M122 680h504l-6-34L209 0h-44l409 642H116z"/><glyph glyph-name="eight.tf" d="M554 159q-11-71-84-120.5T274-11Q141-11 77 47T27 191q19 123 163 188-99 52-84 148 11 68 78 116t184 48q111 0 169.5-57T585 505q-17-107-141-179 128-53 110-167zM67 192q-11-73 42-119.5T278 26q100 0 164 40.5t73 98.5q6 37-6.5 64.5t-43 45.5-60 28.5T329 328q-5 1-8 2-63 19-97 31-66-26-107-70t-50-99zm254 174q72-20 88-25 121 65 136 165 9 58-37 103t-140 45q-98 0-156-37.5T146 524q-6-35 5-61.5t43-45 51-26 64-21.5q8-3 12-4z"/><glyph glyph-name="nine.tf" d="M79 478q16 99 90.5 156T343 691q132 0 189.5-89.5T566 356Q536 169 442 79T210-11q-82 0-145 38l6 37q58-37 139-37 123 0 206 80.5T527 363q-119-96-253-96-93 0-152 55T79 478zm265 176q-86 0-148.5-47.5T119 473q-13-86 34.5-127.5T283 304q64 0 130 27.5T532 408q10 119-38 182.5T344 654z"/><glyph glyph-name="zero.tosf" d="M581 256Q564 148 479.5 68.5T265-11Q137-11 73.5 71.5T27 263q18 108 103.5 188T343 531t191-83 47-192zm-515 3q-14-94 38-163t161-69q114 0 187.5 69T541 261q15 93-38 162.5T342 493q-111 0-186-69T66 259z"/><glyph glyph-name="one.tosf" d="M362 520h28L314 38h218l-6-38H32l6 38h236l69 439-218-77 6 38z"/><glyph glyph-name="two.tosf" d="M502 0H27l5 27q6 37 26 67t43.5 50 61.5 37.5 65.5 27T298 230q100 28 150 59t59 84q9 55-35.5 88T345 494q-117 0-231-66l7 41q107 62 229 62 99 0 153-44.5T545 367q-10-65-67.5-102T310 196Q93 135 77 38h431z"/><glyph glyph-name="three.tosf" d="M531 347q-9-54-48.5-97T379 193q65-12 102.5-56.5T507 18q-15-90-89.5-139.5T233-171Q93-171 5-126l5 37q90-45 222-45 98 0 161 40.5T469 24q12 75-38 112t-140 37H185l7 37h100q89-1 140 40t60 100q10 62-34.5 103T325 494q-108 0-219-47l6 40q102 44 219 44 101 0 156-53t44-131z"/><glyph glyph-name="four.tosf" d="M452 516h44L420 39h135l-5-38H415l-27-165h-39L375 1H-22l5 35zM381 39l68 422L35 39h346z"/><glyph glyph-name="five.tosf" d="M153 520h401l-6-38H185l-60-267q78 23 155 23 113 0 180.5-52T512 30q-15-92-94-146.5T224-171q-125 0-211 47l5 36q86-46 204-46 103 0 170.5 45.5T472 35q13 86-44 126t-161 40q-96 0-190-33z"/><glyph glyph-name="six.tosf" d="M563 617q-60 36-139 36-123 0-206-81T107 315q119 98 253 98 43 0 81-13t66.5-38.5 42-66.5 5.5-93q-16-99-90.5-156T291-11q-133 0-190 89.5T68 324q30 187 124 277t232 90q82 0 145-38zM290 26q86 0 148.5 47T515 205q13 86-34.5 128.5T351 376q-64 0-130-28t-119-78Q92 153 140.5 89.5T290 26z"/><glyph glyph-name="seven.tosf" d="M96 520h502l-5-34-426-646h-44l424 642H90z"/><glyph glyph-name="eight.tosf" d="M555 159q-11-71-84.5-120.5T275-11Q141-11 77.5 47.5T28 193q19 121 163 186-99 52-84 148 11 68 77 116t184 48q111 0 170-57t48-129q-17-107-141-179 128-53 110-167zM68 192q-11-73 42-119.5T279 26q100 0 164 40.5t73 98.5q6 37-6.5 64.5t-43 45.5-60 28.5T330 328q-5 1-8 2-63 19-97 31-66-26-107-70t-50-99zm254 174q72-20 88-25 121 65 136 165 9 58-38 103t-141 45q-98 0-155-37.5T147 524q-6-35 5-61.5t43-45 51-26 64-21.5q8-3 12-4z"/><glyph glyph-name="nine.tosf" d="M53 318q16 99 90.5 156T317 531q132 0 189.5-89.5T540 196Q510 9 416-81t-232-90q-82 0-145 38l6 37q58-37 139-37 123 0 206 81t111 256q-120-97-253-97-93 0-152 55T53 318zm40-3q-13-86 34.5-128.5T257 144q64 0 130 27.5T506 249q10 118-38.5 181.5T318 494q-86 0-148.5-46.5T93 315z"/><glyph glyph-name="zero.dnom" horiz-adv-x="431" d="M379 200q-15-93-69-150T171-7Q83-7 46 52.5T25 208q15 93 69 150t140 57q87 0 124-60t21-155zm-320 6Q46 123 74 74.5T172 26q74 0 117.5 46T346 202q13 83-15 131.5T233 382q-73 0-117-46T59 206z"/><glyph glyph-name="one.dnom" horiz-adv-x="256" d="M157 408h25L122 32h77l-6-32H-15l5 32h99l54 340-97-35 6 33z"/><glyph glyph-name="two.dnom" horiz-adv-x="345" d="M60 378q61 37 130 37 57 0 92.5-29.5T309 307q-8-45-42.5-76.5T171 168q-30-16-40.5-21.5T97 126t-32.5-26T44 71 30 32h241l-6-32H-15l3 19q5 35 20 62.5t41.5 49T95 163t56 30q59 30 89 55.5t36 63.5q6 33-19 52t-68 19q-68 0-135-41z"/><glyph glyph-name="three.dnom" horiz-adv-x="357" d="M305 303q-5-32-28-57t-60-34q37-8 59-34.5t15-70.5q-9-55-54-84.5T125-7Q48-7-8 20l6 34q53-28 126-28 122 0 135 88 6 42-21 61t-76 19h-62l4 33h57q49 0 77.5 22.5T273 306q5 33-20.5 54.5T181 382q-67 0-129-29l6 35q59 27 128 27 58 0 92.5-32.5T305 303z"/><glyph glyph-name="four.dnom" horiz-adv-x="391" d="M269 408h37l-45-281h83l-5-31h-82L241 0h-33l15 96H-11l5 30zm-40-281l36 233L37 127h192z"/><glyph glyph-name="five.dnom" horiz-adv-x="354" d="M81 408h239l-6-32H108L75 233q42 12 85 12 61 0 102.5-32.5T294 116q-10-56-56.5-89.5T124-7Q50-7-4 21l5 32q48-27 120-27 56 0 94 25.5t45 70.5q8 48-24.5 70T148 214 35 194z"/><glyph glyph-name="six.dnom" horiz-adv-x="378" d="M324 360q-35 22-86 22-67 0-115-44T58 199q70 52 144 52 56 0 92.5-34t26.5-95q-9-61-54-95T161-7Q80-7 44.5 48T24 197q17 110 75 164t139 54q50 0 91-23zM159 25q50 0 85 24.5t43 73.5q8 48-19.5 72T194 219q-77 0-140-57-5-67 22-102t83-35z"/><glyph glyph-name="seven.dnom" horiz-adv-x="308" d="M77 0H40l226 376H29l6 32h274l-5-30z"/><glyph glyph-name="eight.dnom" horiz-adv-x="397" d="M56 315q7 41 48 70.5T216 415q68 0 103-34t29-79q-9-66-79-106 72-35 61-98-7-44-51-74.5T155-7Q76-7 38.5 28T9 115q12 71 93 111-55 31-46 89zm134-122q-34 8-57 18-79-33-89-96-6-41 22.5-65.5T158 25q61 0 97.5 22t41.5 55q3 20-3.5 35T267 163t-33 15.5-44 14.5zm124 107q6 34-19.5 58.5T215 383t-87-20.5T89 311q-4-25 10-42.5t32.5-26T176 226q8-2 11-3 27-6 53-14 65 35 74 91z"/><glyph glyph-name="nine.dnom" horiz-adv-x="377" d="M29 286q9 61 55 95t106 34q81 0 116-54.5T326 211q-18-110-75.5-164T111-7Q60-7 21 16l5 32q37-22 86-22 67 0 114.5 43.5T291 207q-70-50-143-50-56 0-92.5 34T29 286zm162 97q-50 0-85.5-25T63 285q-8-48 19.5-72t73.5-24q77 0 140 57 5 67-22 102t-83 35z"/><glyph glyph-name="zero.numr" horiz-adv-x="432" d="M423 476q-15-93-69-150t-139-57q-88 0-125 59.5T69 484q15 93 69 150t140 57q87 0 124-60t21-155zm-320 6q-13-83 15-131.5t98-48.5q74 0 117.5 46T390 478q13 83-15 131.5T277 658q-73 0-117-46t-57-130z"/><glyph glyph-name="one.numr" horiz-adv-x="256" d="M200 680h25l-60-376h77l-6-32H28l5 32h99l54 340-97-35 6 33z"/><glyph glyph-name="two.numr" horiz-adv-x="347" d="M105 654q61 37 130 37 57 0 92.5-29.5T354 583q-8-45-42.5-76.5T216 444q-30-16-40.5-21.5T142 402t-32.5-26T89 347t-14-39h241l-6-32H30l3 19q5 35 20 62.5t41.5 49T140 439t56 30q59 30 89 55.5t36 63.5q6 33-19 52t-68 19q-68 0-135-41z"/><glyph glyph-name="three.numr" horiz-adv-x="356" d="M348 579q-5-32-28-57t-60-34q37-8 59-34.5t15-70.5q-9-55-54-84.5T168 269q-77 0-133 27l6 34q53-28 126-28 122 0 135 88 6 42-21 61t-76 19h-62l4 33h57q49 0 77.5 22.5T316 582q5 33-20.5 54.5T224 658q-67 0-129-29l6 35q59 27 128 27 58 0 92.5-32.5T348 579z"/><glyph glyph-name="four.numr" horiz-adv-x="391" d="M312 680h37l-45-281h83l-5-31h-82l-16-96h-33l15 96H32l5 30zm-40-281l36 233L80 399h192z"/><glyph glyph-name="five.numr" horiz-adv-x="354" d="M124 680h239l-6-32H151l-33-143q42 12 85 12 61 0 102.5-32.5T337 388q-10-56-56.5-89.5T167 265q-74 0-128 28l5 32q48-27 120-27 56 0 94 25.5t45 70.5q8 48-24.5 70T191 486 78 466z"/><glyph glyph-name="six.numr" horiz-adv-x="377" d="M367 636q-35 22-86 22-67 0-115-44t-65-139q70 52 144 52 56 0 92.5-34t26.5-95q-9-61-54-95t-106-34q-81 0-116.5 55T67 473q17 110 75 164t139 54q50 0 91-23zM202 301q50 0 85 24.5t43 73.5q8 48-19.5 72T237 495q-77 0-140-57-5-67 22-102t83-35z"/><glyph glyph-name="seven.numr" horiz-adv-x="308" d="M120 272H83l226 376H72l6 32h274l-5-30z"/><glyph glyph-name="eight.numr" horiz-adv-x="398" d="M100 591q7 41 48 70.5T260 691q68 0 103-34t29-79q-9-66-79-106 72-35 61-98-7-44-51-74.5T199 269q-79 0-116.5 35T53 391q12 71 93 111-55 31-46 89zm134-122q-34 8-57 18-79-33-89-96-6-41 22.5-65.5T202 301q61 0 97.5 22t41.5 55q3 20-3.5 35T311 439t-33 15.5-44 14.5zm124 107q6 34-19.5 58.5T259 659t-87-20.5-39-51.5q-4-25 10-42.5t32.5-26T220 502q8-2 11-3 27-6 53-14 65 35 74 91z"/><glyph glyph-name="nine.numr" horiz-adv-x="378" d="M73 562q9 61 55 95t106 34q81 0 116-54.5T370 487q-18-110-75.5-164T155 269q-51 0-90 23l5 32q37-22 86-22 67 0 114.5 43.5T335 483q-70-50-143-50-56 0-92.5 34T73 562zm162 97q-50 0-85.5-25T107 561q-8-48 19.5-72t73.5-24q77 0 140 57 5 67-22 102t-83 35z"/><glyph glyph-name="emdash.case" horiz-adv-x="764" d="M694 332H80l5 36h614z"/><glyph glyph-name="endash.case" horiz-adv-x="580" d="M510 332H80l5 36h431z"/><glyph glyph-name="hyphen.case" horiz-adv-x="497" d="M85 368h347l-5-36H80z"/><glyph glyph-name="guillemotleft.case" horiz-adv-x="454" d="M360 176h-40l-93 169 2 11 145 168h42L265 349zm-159 0h-40L68 345l2 11 145 168h42L106 349z"/><glyph glyph-name="guillemotright.case" horiz-adv-x="454" d="M257 176h-43l151 175-95 173h40l94-169-2-11zm-158 0H56l151 175-95 173h40l94-169-2-11z"/><glyph glyph-name="guilsinglleft.case" horiz-adv-x="295" d="M201 176h-40L68 345l2 11 145 168h42L106 349z"/><glyph glyph-name="guilsinglright.case" horiz-adv-x="296" d="M99 176H56l151 175-95 173h40l94-169-2-11z"/><glyph glyph-name="cent.tf" d="M532 450l-6-36q-48 41-129 41L329 25q78 3 146 40l-5-39Q402-8 323-11l-17-109h-34l17 110q-97 7-153.5 72.5T97 244q17 114 96 176t176 70l17 110h34l-17-109q77-3 129-41zm-169 3q-83-9-148-63t-81-151q-15-96 31.5-151T295 26z"/><glyph glyph-name="currency.tf" d="M177 201l-76-65-23 27 74 64q-40 52-27 126 10 71 66 122l-53 62 30 27 54-65q54 38 124 38 68 0 116-38l75 65 23-27-75-64q40-51 28-126-12-73-66-122l53-62-30-27-54 65q-56-38-125-38-68 0-114 38zm-14 146q-10-67 28-108t102-41q67 0 119.5 42.5T476 353q10 66-27.5 107.5T346 502q-67 0-119-42.5T163 347z"/><glyph glyph-name="dollar.tf" d="M266-130h-34l18 120Q124-2 41 48l6 39q97-60 227-60 86 0 148.5 32.5T495 162q7 47-20 81t-73 51.5-100 38-99 40.5-71 60-17 96q13 76 85.5 117.5T361 690l18 120h34l-18-120q99-6 169-49l-6-37q-79 49-193 49-76 0-138-32.5T155 525q-7-41 12-71.5t55-48.5 80-33.5 88-32.5 79.5-38.5 54-57.5 11.5-84q-13-85-84.5-126.5T284-11z"/><glyph glyph-name="Euro.tf" d="M635 633q-52 20-128 20-112 0-208-57T160 428h352l-6-34H149q-5-17-10-46-5-37-5-62h355l-6-34H136q13-105 89.5-165T408 27q73 0 138 21l-6-38q-60-21-136-21-120 0-207.5 70.5T96 252H7l6 34h82q-1 30 5 68 2 14 8 40H30l6 34h83q45 128 155 195.5T509 691q71 0 132-22z"/><glyph glyph-name="sterling.tf" d="M523 0H1l6 38h32q38 0 62.5 25t31.5 70l30 186H81l6 38h82l17 107q12 81 53.5 133.5T331 670t109 20q80 0 138-39l-6-37q-55 39-133 39-79 0-138.5-45.5T225 461l-17-104h248l-6-38H202l-30-188q-10-74-59-94l416 1z"/><glyph glyph-name="yen.tf" d="M607 680h44L348 309h166l-6-34H324l-14-87h185l-6-34H304L280 0h-40l25 154H81l6 34h183l15 87H100l6 34h166L86 680h43l180-366z"/></font>
</defs>
</svg>
