<svg xmlns="http://www.w3.org/2000/svg"><defs><font id="MullerThin" horiz-adv-x="574"><font-face font-family="Muller Thin" font-weight="250" ascent="780" descent="-220" x-height="480" cap-height="700" bbox="-157 -231 1213 922" underline-thickness="50" underline-position="-225" unicode-range="U+0020-25CA"/><glyph glyph-name="f_f" unicode="ff" horiz-adv-x="657" d="M682 674q-43 24-110 24-58 0-95-30t-37-96v-92h213v-23H440V0h-24v457H130V0h-24v457H24v23h82v58q0 74 46.5 114T269 692q87 0 160-50 34 78 139 78 70 0 114-23v-23zM130 480h286v93q0 27 6 48-72 49-152 49-63 0-101.5-35T130 538v-58z"/><glyph glyph-name="f_f_i" unicode="ffi" horiz-adv-x="834" d="M130 0h-24v457H24v23h82v58q0 75 47.5 114.5T277 692q82 0 158-52 42 72 144 72 83 0 157-45v-25q-75 48-156 48-63 0-101.5-34T440 564v-84h307V0h-24v457H440V0h-24v457H130V0zm0 538v-58h286v84q0 29 10 57-70 49-148 49-69 0-108.5-35T130 538z"/><glyph glyph-name="f_f_l" unicode="ffl" horiz-adv-x="844" d="M733 673v25l24 8V0h-24v650q-70 40-153 40-64 0-102-35.5T440 556v-76h195v-23H440V0h-24v457H130V0h-24v457H24v23h82v58q0 75 47.5 114.5T277 692q83 0 160-53 39 73 142 73 84 0 154-39zM416 480v76q0 37 12 64-73 50-150 50-69 0-108.5-35T130 538v-58h286z"/><glyph glyph-name=".notdef" horiz-adv-x="267"/><glyph glyph-name=".null" horiz-adv-x="0"/><glyph glyph-name="nonmarkingreturn" horiz-adv-x="333"/><glyph glyph-name="space" horiz-adv-x="267"/><glyph glyph-name="exclam" unicode="!" horiz-adv-x="194" d="M108 169H86l-1 531h25zm11-153q0-22-22-22-9 0-15.5 6T75 16t6.5 16T97 38q22 0 22-22z"/><glyph glyph-name="quotedbl" unicode="&quot;" horiz-adv-x="248" d="M177 568h-18v132h25zm-90 0H69v132h25z"/><glyph glyph-name="numbersign" unicode="#" horiz-adv-x="647" d="M117 0H93l44 190H41v22h101l62 257H91v22h118l45 190h24l-44-190h250l45 190h25l-45-190h96v-22H504l-61-257h112v-22H438L393 0h-25l45 190H162zm111 469l-61-257h251l61 257H228z"/><glyph glyph-name="dollar" unicode="$" horiz-adv-x="568" d="M299-130h-22v120Q151-5 56 48v25q106-59 237-59 92 0 149.5 34.5T500 158q0 47-24.5 80t-63 51-85.5 32-94.5 28.5-86 33.5-63 54T59 521q0 81 62.5 124T276 690v120h22V690q107-3 185-47v-25q-88 50-197 48-87 0-144.5-36T84 521q0-45 24.5-76t63-48.5 85.5-31 94.5-28 86-34.5 63-56.5T525 159q0-86-63.5-127.5T299-10v-120z"/><glyph glyph-name="percent" unicode="%" horiz-adv-x="872" d="M244-60h-25l409 820h25zm87 627q0-68-42.5-105.5T184 424q-61 0-104.5 37.5T36 567t43.5 105.5T184 710q62 0 104.5-37.5T331 567zm-272 0q0-56 36-88.5t89-32.5 88.5 32.5T308 567t-35.5 88.5T184 688t-89-32.5T59 567zm777-434q0-68-43-105.5T689-10q-62 0-105 37.5T541 133t43 105.5T689 276q61 0 104-37.5T836 133zm-272 0q0-56 36-88.5T689 12t88.5 32.5T813 133t-35.5 88.5T689 254t-89-32.5-36-88.5z"/><glyph glyph-name="ampersand" unicode="&amp;" horiz-adv-x="681" d="M542 111L667 0h-30L529 96Q435-10 278-10q-103 0-162.5 48.5T56 161q0 66 45 115.5T222 370q-101 97-101 176 0 67 54 115.5T319 710q75 0 122-37.5t47-97.5q0-20-6.5-38t-22-35.5-28.5-30-40-29.5-41-25.5-47-26.5l-44-24q10-10 26-24l240-215q62 83 62 186h25q0-114-70-202zM319 687q-80 0-127-42t-47-100q0-70 97-163 13 7 49.5 27t53 29.5T389 467t41 33.5 23.5 34T464 574q0 50-40.5 81.5T319 687zM81 162q0-65 53-107t145-42q144 0 232 98L265 330l-27 24q-73-44-115-89T81 162z"/><glyph glyph-name="quotesingle" unicode="'" horiz-adv-x="158" d="M87 568H69v132h25z"/><glyph glyph-name="parenleft" unicode="(" horiz-adv-x="246" d="M200 808h25q-68-96-108-217.5T77 350t40-240.5T225-108h-25Q131-11 91 110T51 350t40 240 109 218z"/><glyph glyph-name="parenright" unicode=")" horiz-adv-x="246" d="M21 808h25q69-97 109-218t40-240q0-118-40-239.5T46-108H21q69 95 108.5 217T169 350t-39.5 241T21 808z"/><glyph glyph-name="asterisk" unicode="*" horiz-adv-x="425" d="M213 536l-85-118-19 13 87 115-136 44 8 22 135-48-2 136h23l-2-136 135 48 8-22-136-44 87-115-19-13z"/><glyph glyph-name="plus" unicode="+" horiz-adv-x="537" d="M280 362h201v-24H280V137h-23v201H56v24h201v201h23V362z"/><glyph glyph-name="comma" unicode="," horiz-adv-x="170" d="M53-142H32L82 72h25z"/><glyph glyph-name="hyphen" unicode="-" horiz-adv-x="485" d="M71 254h343v-23H71v23z"/><glyph glyph-name="period" unicode="." horiz-adv-x="169" d="M107 16q0-10-6.5-16T85-6 69 .5 62 16t7 15.5T85 38t15.5-6 6.5-16z"/><glyph glyph-name="slash" unicode="/" horiz-adv-x="401" d="M62-57H42l297 814h20z"/><glyph glyph-name="zero" unicode="0" horiz-adv-x="702" d="M59 340q0 160 74.5 255T351 690t217.5-95T643 340 568.5 85 351-10 133.5 85 59 340zm559 0q0 151-67.5 238.5T351 666t-199.5-87.5T84 340t67.5-238.5T351 14t199.5 87.5T618 340z"/><glyph glyph-name="one" unicode="1" horiz-adv-x="401" d="M220 680h16V24h143V0H55v24h157v628L55 593v24z"/><glyph glyph-name="two" unicode="2" horiz-adv-x="558" d="M74 629q89 61 203 61 97 0 156.5-44.5T493 525q0-42-15-76.5t-48-64-59.5-47T295 291q-102-59-135-88-84-72-85-179h427V0H49v16q0 46 14 86t31 65.5 52 54 56.5 42T269 303q2 1 3.5 2t4 2.5 4.5 2.5q40 23 58 34.5t48.5 34.5 44.5 41.5 25.5 46T469 525q0 65-53 103.5T276 667q-106 0-202-63v25z"/><glyph glyph-name="three" unicode="3" horiz-adv-x="587" d="M500 511q0-56-34.5-100T364 354q73-12 119-55.5T529 179q0-89-63-139T301-10Q154-10 64 34v24q98-45 236-45 92 0 148.5 43.5T505 179q0 81-58.5 121T296 340h-98v24h96q91 0 136.5 42.5T476 510q0 67-52 112t-142 45q-107 0-206-45v24q91 44 209 44 98 0 156.5-51.5T500 511z"/><glyph glyph-name="four" unicode="4" horiz-adv-x="636" d="M429 680h27V194h146v-24H456V0h-25v170H28v22zm2-486v451L61 194h370z"/><glyph glyph-name="five" unicode="5" horiz-adv-x="573" d="M102 680h385v-24H125l-19-293q83 26 167 26 107 0 178-49t71-149q0-90-65.5-145.5T280-10Q153-10 63 36v24q94-47 215-47 102 0 160.5 48.5T497 191q0 88-65 131.5T267 366q-94 0-187-33z"/><glyph glyph-name="six" unicode="6" horiz-adv-x="603" d="M85 295q107 115 249 115 93 0 158-54t65-154q0-98-65-155T329-10q-131 0-200 87.5T60 319q0 191 78.5 281T357 690q79 0 143-36v-24q-63 36-143 36-272 0-272-348v-23zm2-28q11-121 72-187.5T327 13q90 0 147.5 49.5T532 201q0 91-58 138t-144 47q-68 0-132.5-31.5T87 267z"/><glyph glyph-name="seven" unicode="7" horiz-adv-x="514" d="M38 680h458v-20L174 0h-26l319 656H38v24z"/><glyph glyph-name="eight" unicode="8" horiz-adv-x="641" d="M83 527q0 68 60 115.5T320 690q110 0 174-52.5T559 517q0-62-31.5-111.5T440 326q144-53 144-163 0-71-68.5-122T322-10q-127 0-195.5 54T58 181q0 64 36 116.5T196 380Q83 430 83 527zm238-189q-82 23-103 32-64-26-100-76T82 183q0-75 61.5-122.5T321 13q112 0 174.5 43.5T558 162q0 32-13 57.5t-32.5 42T462 292t-60.5 23-68.5 20zm213 176q0 60-57.5 106.5T319 667q-103 0-157.5-40.5T107 527q0-31 13.5-56t29.5-39.5 49-29 50.5-20T305 366q9-3 14-4 11-3 45-12.5t52-14.5q55 28 86.5 74.5T534 514z"/><glyph glyph-name="nine" unicode="9" horiz-adv-x="603" d="M46 478q0 98 64.5 155T274 690q131 0 200-87.5T543 361q0-191-78.5-281T246-10q-80 0-144 36v24q63-36 143-36 273 0 273 348v23Q411 270 269 270q-93 0-158 54T46 478zm25 1q0-91 57.5-138T273 294q68 0 132.5 31.5T516 413q-11 121-72.5 187.5T275 667q-89 0-146.5-49.5T71 479z"/><glyph glyph-name="colon" unicode=":" horiz-adv-x="187" d="M116 406q0-10-6.5-16T93 384q-9 0-15.5 6.5T71 406t6.5 15.5T93 428q10 0 16.5-6t6.5-16zm0-390q0-10-6.5-16T93-6Q84-6 77.5.5T71 16t6.5 15.5T93 38q10 0 16.5-6t6.5-16z"/><glyph glyph-name="semicolon" unicode=";" horiz-adv-x="265" d="M101-142H80l50 214h25zm53 591q0-10-6.5-16t-16.5-6q-9 0-15.5 6.5T109 449t6.5 15.5T131 471q10 0 16.5-6t6.5-16z"/><glyph glyph-name="less" unicode="&lt;" horiz-adv-x="484" d="M404 201v-25L48 337v26l356 161v-25L73 350z"/><glyph glyph-name="equal" unicode="=" horiz-adv-x="537" d="M463 429H74v23h389v-23zm0-181H74v23h389v-23z"/><glyph glyph-name="greater" unicode="&gt;" horiz-adv-x="484" d="M436 337L80 176v25l331 149L80 499v25l356-161v-26z"/><glyph glyph-name="question" unicode="?" horiz-adv-x="488" d="M245 187h-24q0 37 20.5 75.5t49.5 71 58.5 66 50 72.5 20.5 77q0 64-51.5 100.5T229 686q-99 0-190-56v24q86 56 192 56 97 0 155.5-43T445 550q0-49-31.5-100.5T345 361t-68.5-84.5T245 187zm10-171q0-10-6.5-16T233-6 217 .5 210 16t7 15.5 16 6.5 15.5-6 6.5-16z"/><glyph glyph-name="at" unicode="@" horiz-adv-x="1058" d="M52 240q0 91 32.5 175t92 150 153 105.5T536 710q109 0 200-40t147-104 87-138.5 31-148.5q0-131-49-200T824 10q-62 0-97.5 33.5T688 141q-25-49-71.5-78.5T512 33q-85 0-140 56.5T317 238t55 148.5T512 443q58 0 104-30t70-77v98h23V148q0-55 30-85.5T825 32q68 0 109.5 64T976 279q0 70-29.5 141t-83 131T724 648.5 536 686q-142 0-248.5-64T129 458 77 240q0-84 25.5-156T173-40.5 278.5-131 410-187.5 557-206q125 0 223 36v-24q-97-36-224-36-100 0-190.5 31.5T205-109 93.5 39.5 52 240zm633 56q-17 53-63.5 88.5T513 420q-75 0-123.5-49.5T341 238t48.5-132.5T513 56q62 0 108.5 35.5T685 180v116z"/><glyph glyph-name="A" unicode="A" horiz-adv-x="704" d="M43 0H16l322 700h29L688 0h-27l-99 215H142zm303 660L153 239h400L360 660q-3 6-7 16-4-10-7-16z"/><glyph glyph-name="B" unicode="B" horiz-adv-x="674" d="M105 700h252q107 0 170.5-43.5T591 525q0-65-41-106t-99-51q41-7 75.5-23.5t63.5-57 29-99.5q0-48-17.5-83.5t-44.5-55-65.5-31-71.5-15T349 0H105v700zm489-510q0 50-22 85t-57.5 51-67.5 22.5-65 6.5H130V24h216q49 0 86 5.5t77.5 21 62.5 51 22 88.5zm-28 333q0 79-55.5 116T356 676H130V379h262q70 0 122 39t52 105z"/><glyph glyph-name="C" unicode="C" horiz-adv-x="658" d="M53 341q0 88 31.5 160t83 116.5T282 686t130 24q112 0 196-48v-25q-84 49-193 49-63 0-122-22t-107.5-63.5-78-109T78 341q0-81 29.5-145T186 93t108-59 123-20q115 0 200 50V39q-84-49-204-49-67 0-130 22T168 75.5 84.5 186 53 341z"/><glyph glyph-name="D" unicode="D" horiz-adv-x="730" d="M105 700h199q182 0 277-96t95-254-95-254T304 0H105v700zm546-350q0 148-88.5 237T304 676H130V24h174q170 0 258.5 89T651 350z"/><glyph glyph-name="E" unicode="E" horiz-adv-x="628" d="M105 700h455v-24H130V364h400v-24H130V24h439V0H105v700z"/><glyph glyph-name="F" unicode="F" horiz-adv-x="592" d="M105 700h456v-24H130V357h402v-24H130V0h-25v700z"/><glyph glyph-name="G" unicode="G" horiz-adv-x="710" d="M54 350q0 91 31.5 162.5t85 113 117.5 63T422 710q113 0 202-46v-25q-88 47-200 47-66 0-126-19.5T188 608t-79.5-105.5T79 350q0-87 30-153.5t80.5-105 111.5-58T430 14q105 0 188 40v311h25V37q-99-47-214-47-73 0-138 21T172 73.5t-86 113T54 350z"/><glyph glyph-name="H" unicode="H" horiz-adv-x="767" d="M637 700h25V0h-25v340H130V0h-25v700h25V364h507v336z"/><glyph glyph-name="I" unicode="I" horiz-adv-x="235" d="M105 700h25V0h-25v700z"/><glyph glyph-name="J" unicode="J" horiz-adv-x="522" d="M169 700h256V184q0-95-58.5-144.5T212-10Q100-10 33 33v25q67-44 176-44 87 0 139 42.5T400 184v492H169v24z"/><glyph glyph-name="K" unicode="K" horiz-adv-x="654" d="M130 0h-25v700h25V371h216l246 329h29L367 359 649 0h-30L345 347H130V0z"/><glyph glyph-name="L" unicode="L" horiz-adv-x="576" d="M105 700h25V24h428V0H105v700z"/><glyph glyph-name="M" unicode="M" horiz-adv-x="897" d="M773 700h19V0h-25v650L456 196h-15L130 650V0h-25v700h19l324-473z"/><glyph glyph-name="N" unicode="N" horiz-adv-x="767" d="M130 0h-25v700h21L637 44v656h25V0h-22L130 657V0z"/><glyph glyph-name="O" unicode="O" horiz-adv-x="826" d="M52 350q0 67 23 129.5t66 115 114 84T413 710t158-31.5 114-84 66-115T774 350t-23-129.5-66-115-114-84T413-10 255 21.5t-114 84-66 115T52 350zm697 0q0 63-21.5 121.5t-61.5 107-106 78T413 686t-147-29.5-106-78-61.5-107T77 350t21.5-121.5 61.5-107 106-78T413 14t147 29.5 106 78 61.5 107T749 350z"/><glyph glyph-name="P" unicode="P" horiz-adv-x="651" d="M105 700h217q292 0 292-217T322 266H130V0h-25v700zm484-217q0 193-266 193H130V290h193q266 0 266 193z"/><glyph glyph-name="Q" unicode="Q" horiz-adv-x="826" d="M776-42l-16-16L639 62q-93-72-226-72-87 0-158 31.5t-114 84-66 115T52 350t23 129.5 66 115 114 84T413 710t158-31.5 114-84 66-115T774 350q0-77-30-149T657 77zM77 350q0-63 21.5-121.5t61.5-107 106-78T413 14q124 0 209 66L460 242l16 16L639 95q54 47 82 115t28 140q0 63-21.5 121.5t-61.5 107-106 78T413 686t-147-29.5-106-78-61.5-107T77 350z"/><glyph glyph-name="R" unicode="R" horiz-adv-x="682" d="M130 0h-25v700h263q46 0 87.5-11t78-34 58.5-63.5 22-94.5q0-51-19.5-90t-52-62-71-35.5T390 295L658 0h-31L361 294H130V0zm0 676V318h239q41 0 78 9.5t70 29 52.5 56T589 497q0 63-34.5 105t-82 58T369 676H130z"/><glyph glyph-name="S" unicode="S" horiz-adv-x="563" d="M59 541q0 83 64 126t154 43q114 0 198-47v-25q-39 22-93 35.5T278 686q-81 0-137.5-36.5T84 541q0-45 24-77.5t63-51.5 85.5-34.5T350 345t86-38.5 63-59 24-88.5q0-87-66.5-128.5T290-10Q157-10 52 48v25q106-59 236-59 93 0 151.5 34.5T498 158q0 47-24 81t-63 54-85.5 36-93.5 32.5-86 37.5-63 57-24 85z"/><glyph glyph-name="T" unicode="T" horiz-adv-x="593" d="M15 700h563v-24H309V0h-25v676H15v24z"/><glyph glyph-name="U" unicode="U" horiz-adv-x="749" d="M628 700h25V241q0-132-75.5-191.5T375-10 172 49.5 96 241v459h25V242q0-228 254-228 253 0 253 228v458z"/><glyph glyph-name="V" unicode="V" horiz-adv-x="677" d="M351 0h-25L20 700h27L339 28l292 672h26z"/><glyph glyph-name="W" unicode="W" horiz-adv-x="987" d="M931 700h28L735 0h-27L493 651 279 0h-27L28 700h27L265 34l217 658h23L721 34z"/><glyph glyph-name="X" unicode="X" horiz-adv-x="606" d="M41 0H11l277 360L26 700h30l247-321 248 321h29L318 360 595 0h-29L303 340z"/><glyph glyph-name="Y" unicode="Y" horiz-adv-x="625" d="M325 0h-25v284L24 700h28l260-392 260 392h28L325 284V0z"/><glyph glyph-name="Z" unicode="Z" horiz-adv-x="569" d="M539 0H24v22l476 654H44v24h488v-22L55 24h484V0z"/><glyph glyph-name="bracketleft" unicode="[" horiz-adv-x="235" d="M216-110H78v920h138v-24H103V-86h113v-24z"/><glyph glyph-name="backslash" unicode="\" horiz-adv-x="401" d="M359-57h-20L42 757h20z"/><glyph glyph-name="bracketright" unicode="]" horiz-adv-x="235" d="M157-110H19v24h113v872H19v24h138v-920z"/><glyph glyph-name="asciicircum" unicode="^" horiz-adv-x="484" d="M84 404H57l174 296h22l174-296h-26L242 674z"/><glyph glyph-name="underscore" unicode="_" horiz-adv-x="427" d="M427-127H0v24h427v-24z"/><glyph glyph-name="grave" unicode="`" horiz-adv-x="165" d="M139 778h-28L21 911h30z"/><glyph glyph-name="a" unicode="a" horiz-adv-x="539" d="M444 70q0-49 52-49 20 0 37 7V7q-21-8-42-8-30 0-50.5 17T420 69v36q-34-55-92-85T203-10 88 25.5 40 127q0 77 60 114t146 37 174-30v52q0 78-44.5 123T247 468q-89 0-170-30v24q80 28 171 28 94 0 145-51t51-141V70zM64 128q0-56 42-86.5T207 11q66 0 124 33t89 93v89q-85 30-172 30-78 0-131-31t-53-97z"/><glyph glyph-name="b" unicode="b" horiz-adv-x="613" d="M84 700h24V357q29 58 87 95.5T326 490q104 0 171-68t67-182-67-182-171-68q-73 0-131 37.5T106 125V0H84v700zm456-460q0 105-60.5 166.5T324 468q-76 0-134.5-44T108 313V167q23-67 81.5-111T324 12q95 0 155.5 61.5T540 240z"/><glyph glyph-name="c" unicode="c" horiz-adv-x="493" d="M49 236q0 64 22.5 114.5t60 80 82 44.5 93.5 15q83 0 140-39v-23q-58 40-138 40-97 0-166.5-59T73 236q0-108 65.5-166T297 12q87 0 155 39V27q-67-37-157-37-101 0-173.5 63T49 236z"/><glyph glyph-name="d" unicode="d" horiz-adv-x="613" d="M505 700h24V0h-22v125q-31-60-89-97.5T287-10q-104 0-171 68T49 240t67 182 171 68q73 0 131-37.5t87-95.5v343zm0-387q-23 67-81.5 111T289 468q-94 0-155-61.5T73 240q0-104 61-166t155-62q76 0 134.5 44T505 167v146z"/><glyph glyph-name="e" unicode="e" horiz-adv-x="545" d="M49 240q0 115 69.5 182.5T283 490q63 0 110-25t70.5-65 32-85 1.5-89H73q3-107 71.5-160.5T313 12q90 0 155 38V26q-62-36-158-36-111 0-186 63T49 240zm427 8q5 51-10.5 99T403 431.5 284 468q-86 0-147.5-58.5T73 248h403z"/><glyph glyph-name="f" unicode="f" horiz-adv-x="347" d="M130 0h-24v457H24v23h82v83q0 76 43.5 111.5T258 710q70 0 114-23v-23q-43 24-110 24-58 0-95-30t-37-96v-82h213v-23H130V0z"/><glyph glyph-name="g" unicode="g" horiz-adv-x="613" d="M49 240q0 114 67 182t171 68q73 0 131-37.5t89-97.5v125h22V0q0-114-72.5-172T278-230q-100 0-188 45v24q91-47 186-47 46 0 86.5 12t73 36.5 51 65.5T505 0v124q-29-59-87-96.5T287-10q-104 0-171 68T49 240zm456 73q-23 67-81.5 111T289 468q-94 0-155-61.5T73 240q0-104 61-166t155-62q76 0 134.5 43.5T505 165v148z"/><glyph glyph-name="h" unicode="h" d="M84 700h24V374q30 46 82 81t121 35q80 0 133-52.5T497 295V0h-24v293q0 82-46 128.5T309 468q-70 0-121-38t-80-91V0H84v700z"/><glyph glyph-name="i" unicode="i" horiz-adv-x="198" d="M111 0H87v480h24V0zm8 615q0-19-20-19t-20 19q0 9 6 14.5t14 5.5 14-5.5 6-14.5z"/><glyph glyph-name="j" unicode="j" horiz-adv-x="198" d="M111-116q0-61-33.5-87.5T-6-230q-37 0-68 11v23q30-11 64-11 42 0 69.5 21.5T87-114v594h24v-596zm8 731q0-19-20-19t-20 19q0 9 6 14.5t14 5.5q20 0 20-20z"/><glyph glyph-name="k" unicode="k" horiz-adv-x="490" d="M486 0h-29L237 237H108V0H84v700h24V260h131l190 220h29L258 247z"/><glyph glyph-name="l" unicode="l" horiz-adv-x="198" d="M87 730h24V0H87v730z"/><glyph glyph-name="m" unicode="m" horiz-adv-x="894" d="M108 0H84v480h22V378q29 44 78.5 78T297 490q57 0 99-29.5t59-79.5q32 44 81 76.5T646 490q76 0 123-49.5T816 313V0h-24v312q0 68-40 112t-108 44q-59 0-105-33t-76-80q4-17 4-42V0h-24v312q0 68-40 112t-108 44q-62 0-110.5-37T108 345V0z"/><glyph glyph-name="n" unicode="n" d="M106 372q30 47 82.5 82.5T311 490q80 0 133-52.5T497 295V0h-24v293q0 82-46 128.5T309 468q-70 0-121-38t-80-91V0H84v480h22V372z"/><glyph glyph-name="o" unicode="o" horiz-adv-x="592" d="M49 240q0 115 72.5 182.5T296 490q103 0 175-67.5T543 240 471 57.5 296-10q-102 0-174.5 67.5T49 240zm470 0q0 105-64.5 166T296 467t-158.5-61T73 240t64.5-166T296 13t158.5 61T519 240z"/><glyph glyph-name="p" unicode="p" horiz-adv-x="613" d="M106 355q31 60 89 97.5T326 490q104 0 171-68t67-182-67-182-171-68q-73 0-131 37.5T108 123v-343H84v700h22V355zm434-115q0 105-60.5 166.5T324 468q-76 0-134.5-44T108 313V167q23-67 81.5-111T324 12q95 0 155.5 61.5T540 240z"/><glyph glyph-name="q" unicode="q" horiz-adv-x="613" d="M49 240q0 114 67 182t171 68q73 0 131-37.5t89-97.5v125h22v-700h-24v343q-29-58-87-95.5T287-10q-104 0-171 68T49 240zm456 73q-23 67-81.5 111T289 468q-94 0-155-62T73 240q0-105 61-166.5T289 12q76 0 134.5 44T505 167v146z"/><glyph glyph-name="r" unicode="r" horiz-adv-x="336" d="M106 333q25 67 83 112.5T325 490v-24q-85 1-142.5-52.5T108 285V0H84v480h22V333z"/><glyph glyph-name="s" unicode="s" horiz-adv-x="452" d="M53 368q0 61 49.5 91.5T221 490q93 0 163-41v-24q-67 43-162 43-60 0-102-24.5T78 369q0-43 34.5-69.5t83-39 97.5-26 83.5-43T411 113q0-62-51-92.5T232-10q-49 0-100 13.5T49 38v24q76-50 182-50 67 0 111.5 25t44.5 75q0 43-34.5 68.5t-83.5 38-98 26-83.5 44T53 368z"/><glyph glyph-name="t" unicode="t" horiz-adv-x="362" d="M103 638l24 8V480h214v-23H127V136q0-122 123-122 58 0 103 24V15Q311-9 245-9q-68 0-105 36.5T103 133v324H13v23h90v158z"/><glyph glyph-name="u" unicode="u" d="M466 480h24V0h-22v108q-30-47-82.5-82.5T263-10q-82 0-134 52.5T77 185v295h24V187q0-83 45.5-129T265 12q70 0 121 38t80 91v339z"/><glyph glyph-name="v" unicode="v" horiz-adv-x="522" d="M473 480h27L274 0h-26L22 480h27L261 27z"/><glyph glyph-name="w" unicode="w" horiz-adv-x="798" d="M746 480h25L587 0h-24L399 441 236 0h-24L27 480h26L224 31l163 441h24L575 31z"/><glyph glyph-name="x" unicode="x" horiz-adv-x="482" d="M426 480h28L256 246 465 0h-29L241 229 46 0H17l210 246L28 480h29l184-216z"/><glyph glyph-name="y" unicode="y" horiz-adv-x="530" d="M277 25l204 455h26L252-88q-34-77-72-109.5T93-230q-23 0-49 6v22q24-6 47-6 45 0 78.5 31T232-77l33 75L17 480h26z"/><glyph glyph-name="z" unicode="z" horiz-adv-x="443" d="M44 480h356v-20L61 22h350V0H30v20l339 438H44v22z"/><glyph glyph-name="braceleft" unicode="{" horiz-adv-x="259" d="M221-88v-22q-101-18-101 91v258q0 48-28.5 74.5T28 339v22q35-1 63.5 25.5T120 461v258q0 110 101 91v-22q-43 7-59.5-12T145 712V460q0-46-21-74.5T72 350q31-7 52-35.5t21-74.5V-12q0-45 16.5-64T221-88z"/><glyph glyph-name="bar" unicode="|" horiz-adv-x="181" d="M103-100H78v910h25v-910z"/><glyph glyph-name="braceright" unicode="}" horiz-adv-x="259" d="M139-19q0-109-101-91v22q43-7 59.5 12T114-12v252q0 46 21 74.5t52 35.5q-31 7-52 35.5T114 460v252q0 45-16.5 64T38 788v22q101 20 101-91V461q0-48 28-74.5t64-25.5v-22q-36 1-64-25.5T139 239V-19z"/><glyph glyph-name="asciitilde" unicode="~" horiz-adv-x="577" d="M502 365q0-36-22.5-59T419 283q-37 0-129 35t-128 35q-29 0-45.5-16.5T101 293H78q-1 37 21.5 60t60.5 23 129.5-35T417 306q29 0 45.5 16t16.5 43h23z"/><glyph glyph-name="exclamdown" unicode="¡" horiz-adv-x="180" d="M103-216H78l1 532h22zm9 684q0-22-22-22-9 0-15.5 6T68 468t6.5 16 15.5 6q22 0 22-22z"/><glyph glyph-name="cent" unicode="¢" horiz-adv-x="511" d="M314 12q81 3 142 39V27Q396-7 314-10v-110h-22v110q-99 2-169 65T53 236q0 119 70 183t169 70v111h22V490q79 0 137-39v-23q-58 40-137 40V12zm-22 455q-90-7-152.5-65.5T77 236q0-105 62.5-163T292 12v455z"/><glyph glyph-name="sterling" unicode="£" horiz-adv-x="609" d="M559 0H38v24h31q38 0 60 25t22 72v206H70v24h81v114q0 113 63 169t154 56q82 0 140-39v-24q-61 39-138 39-83 0-138.5-50T176 464V351h256v-24H176V121q0-74-47-97h430V0z"/><glyph glyph-name="currency" unicode="¤" horiz-adv-x="573" d="M163 206l-65-65-17 17 64 64q-51 51-51 128t51 128l-64 64 17 17 65-65q53 42 123 42 71 0 124-42l65 65 17-17-64-64q51-53 51-128t-51-128l64-64-17-17-65 65q-53-42-124-42-70 0-123 42zm-45 144q0-72 49.5-117.5T287 187q69 0 119 45.5T456 350t-49.5 117.5T287 513q-71 0-120-45t-49-118z"/><glyph glyph-name="yen" unicode="¥" horiz-adv-x="622" d="M558 680h28L336 304h177v-22H324v-98h189v-22H324V0h-25v162H109v22h190v98H109v22h177L36 680h28l247-372z"/><glyph glyph-name="brokenbar" unicode="¦" horiz-adv-x="199" d="M112 467H87v343h25V467zm0-567H87v343h25v-343z"/><glyph glyph-name="section" unicode="§" horiz-adv-x="483" d="M418 84q0-55-50-86.5T245-34Q140-34 76 11v22q68-45 168-45 65 0 107.5 26T394 84q0 23-9.5 41T363 154t-36.5 21.5-41 15.5-48.5 14q-37 10-52.5 15t-45 17.5-42.5 25T72.5 296 61 344q0 47 30.5 80.5T165 477q-94 37-94 113 0 56 47.5 88T234 710q94 0 155-39v-23q-63 40-154 40-60 0-100-26t-40-72q0-35 26-59.5t50.5-33T252 474q9-3 14-4 39-10 61-18.5t49.5-24 40-38.5 12.5-55q0-84-112-130 101-38 101-120zM243 227q35-9 46-13 116 37 116 117 0 27-11 46.5t-34.5 33-44.5 21-56 16.5q-51 14-67 19-40-12-74-43.5T84 347q0-23 10-41t21.5-28.5T153 256t41-15.5 49-13.5z"/><glyph glyph-name="dieresis" unicode="¨" horiz-adv-x="276" d="M262 835q0-9-6.5-16t-16.5-7q-9 0-16 7t-7 16q0 10 7 16.5t16 6.5q10 0 16.5-6.5T262 835zm-201 0q0-9-6.5-16T38 812q-9 0-16 7t-7 16q0 10 7 16.5t16 6.5q10 0 16.5-6.5T61 835z"/><glyph glyph-name="copyright" unicode="©" horiz-adv-x="855" d="M799 350q0-86-33.5-156.5T678 79.5 559 13 427-10 295.5 13t-119 66.5-87.5 114T56 350t33 156.5 87.5 114 119 66.5T427 710t132-23 119-66.5 87.5-114T799 350zM572 184q-60-34-132-34-79 0-137 49.5T245 342q0 102 61.5 155T452 550q69 0 120-34v-21q-52 35-118 35-76 0-131.5-47T267 343q0-85 51.5-129T444 170q68 0 128 34v-20zM70 350q0-83 32-150.5t84-109 114-64T427 4t127.5 22.5 114 64 83.5 109T784 350t-32 150.5-83.5 109-114 64T427 696t-127-22.5-114-64-84-109T70 350z"/><glyph glyph-name="guillemotleft" unicode="«" horiz-adv-x="414" d="M346 69h-27L201 236v8l118 167h27L225 240zm-149 0h-27L52 236v8l118 167h27L76 240z"/><glyph glyph-name="logicalnot" unicode="¬" horiz-adv-x="576" d="M500 302h-24v155H75v23h425V302z"/><glyph glyph-name="registered" unicode="®" horiz-adv-x="855" d="M799 350q0-86-33.5-156.5T678 79.5 559 13 427-10 295.5 13t-119 66.5-87.5 114T56 350t33 156.5 87.5 114 119 66.5T427 710t132-23 119-66.5 87.5-114T799 350zm-729 0q0-83 32-150.5t84-109 114-64T427 4t127.5 22.5 114 64 83.5 109T784 350t-32 150.5-83.5 109-114 64T427 696t-127-22.5-114-64-84-109T70 350zm248-201h-20v395h151q23 0 45-5t46-17.5 38.5-38T593 422q0-90-93-108l116-165h-22L480 311q-12-2-33-2H318V149zm0 375V329h129q126 0 126 93 0 31-12.5 53T527 506.5 487 520t-40 4H318z"/><glyph glyph-name="macron" unicode="¯" horiz-adv-x="296" d="M22 834h252v-23H22v23z"/><glyph glyph-name="degree" unicode="°" horiz-adv-x="388" d="M338 577q0-64-42.5-102.5T194 436 92.5 474.5 50 577t42.5 102.5T194 718t101.5-38.5T338 577zm-268 0q0-55 36.5-88.5T194 455t87.5 33.5T318 577t-36.5 88.5T194 699t-87.5-33.5T70 577z"/><glyph glyph-name="plusminus" unicode="±" horiz-adv-x="584" d="M303 569V368h201v-23H303V144h-23v201H79v23h201v201h23zM504 0H79v23h425V0z"/><glyph glyph-name="acute" unicode="´" horiz-adv-x="165" d="M57 778H29l88 133h30z"/><glyph glyph-name="paragraph" unicode="¶" horiz-adv-x="590" d="M275-220h-25v516q-100 0-157 53.5T36 498t57 148.5T250 700h253v-920h-25v896H275v-896z"/><glyph glyph-name="periodcentered" unicode="·" horiz-adv-x="187" d="M116 239q0-10-6.5-16T94 217q-10 0-16.5 6T71 239t6.5 16 16.5 6q9 0 15.5-6t6.5-16z"/><glyph glyph-name="cedilla" unicode="¸" horiz-adv-x="210" d="M90 0h22L88-96q47 11 84.5-5t38.5-53q1-35-28.5-55.5T98-230q-56 0-98 22v21q41-22 96-22 47 0 70.5 15.5T189-153q-1 32-41 42t-86-4z"/><glyph glyph-name="guillemotright" unicode="»" horiz-adv-x="414" d="M244 69h-27l121 171-121 171h27l118-167v-8zM95 69H68l121 171L68 411h27l118-167v-8z"/><glyph glyph-name="onequarter" unicode="¼" horiz-adv-x="916" d="M769 408h24V120h87v-20h-87V0h-22v100H532v19zm2-288v257L560 120h211zM203-11h-17l456 721h17zm-38 691h16V293h78v-21H56v21h103v363l-93-35v21z"/><glyph glyph-name="onehalf" unicode="½" horiz-adv-x="869" d="M199-11h-17l456 721h17zm364 388q55 37 124 37 59 0 95-27t36-74q0-33-19-61t-40-43-59-37q-70-41-91-62-36-37-37-89h251V0H548v13q0 29 9.5 53.5t18.5 39 34 34 35 25 41 24.5q68 41 87 63 23 27 23 61 0 37-30 58.5T686 393q-67 0-123-38v22zM161 680h16V293h78v-21H52v21h103v363l-93-35v21z"/><glyph glyph-name="threequarters" unicode="¾" horiz-adv-x="965" d="M277-11h-17l456 721h17zm540 419h24V120h87v-20h-87V0h-22v100H580v19zm2-288v257L608 120h211zM325 582q0-34-19.5-59.5T248 489q94-19 94-105 0-54-38.5-84T203 270q-87 0-142 26v22q57-27 141-27 54 0 86.5 24.5T321 385q0 47-33.5 69T201 476h-60v21h58q52 0 78.5 24.5T304 581q0 38-30 63t-82 25q-66 0-124-27v22q55 26 126 26 60 0 95.5-31t35.5-77z"/><glyph glyph-name="questiondown" unicode="¿" horiz-adv-x="477" d="M442-170q-89-56-192-56-97 0-155.5 43T36-66q0 40 20.5 81t50 74.5 59 66.5 50 69.5T236 297h24q0-37-20.5-75.5t-50-71T131 85 81.5 13 61-64q0-64 51.5-101T253-202q95 0 189 56v-24zM271 468q0-9-7-15.5t-16-6.5-15.5 6-6.5 16 6.5 16 15.5 6 16-6.5 7-15.5z"/><glyph glyph-name="Agrave" unicode="À" horiz-adv-x="704" d="M43 0H16l322 700h29L688 0h-27l-99 215H142zm303 660L153 239h400L360 660q-3 6-7 16-4-10-7-16zm39 118h-28l-90 133h30z"/><glyph glyph-name="Aacute" unicode="Á" horiz-adv-x="704" d="M43 0H16l322 700h29L688 0h-27l-99 215H142zm303 660L153 239h400L360 660q-3 6-7 16-4-10-7-16zm-3 118h-28l88 133h30z"/><glyph glyph-name="Acircumflex" unicode="Â" horiz-adv-x="704" d="M43 0H16l322 700h29L688 0h-27l-99 215H142zm303 660L153 239h400L360 660q-3 6-7 16-4-10-7-16zm-4 243h21l127-125h-29L353 884 245 778h-29z"/><glyph glyph-name="Atilde" unicode="Ã" horiz-adv-x="704" d="M43 0H16l322 700h29L688 0h-27l-99 215H142zm303 660L153 239h400L360 660q-3 6-7 16-4-10-7-16zm150 201q4-32-11.5-52T439 789q-28 0-87 28t-81 28q-21 0-31.5-14t-7.5-37h-22q-4 31 12 52t45 21q27 0 86.5-28t81.5-28q44 0 39 50h22z"/><glyph glyph-name="Adieresis" unicode="Ä" horiz-adv-x="704" d="M43 0H16l322 700h29L688 0h-27l-99 215H142zm303 660L153 239h400L360 660q-3 6-7 16-4-10-7-16zm129 175q0-9-6.5-16t-16.5-7q-9 0-16 7t-7 16q0 10 7 16.5t16 6.5q10 0 16.5-6.5T475 835zm-201 0q0-9-6.5-16t-16.5-7q-9 0-16 7t-7 16q0 10 7 16.5t16 6.5q10 0 16.5-6.5T274 835z"/><glyph glyph-name="Aring" unicode="Å" horiz-adv-x="704" d="M43 0H16l322 700h29L688 0h-27l-99 215H142zm303 660L153 239h400L360 660q-3 6-7 16-4-10-7-16zm90 180q0-36-25-59t-59-23-59.5 23-25.5 59 25.5 59 59.5 23 59-23 25-59zm-149 0q0-28 19.5-45.5T352 777t45 17.5 19 45.5-19 45.5-45 17.5-45.5-18-19.5-45z"/><glyph glyph-name="AE" unicode="Æ" horiz-adv-x="991" d="M525 340V24h407V0H501v216H173L18 0h-29l501 700h436v-24H525V364h371v-24H525zM188 239h312v435z"/><glyph glyph-name="Ccedilla" unicode="Ç" horiz-adv-x="658" d="M617 64V39Q537-7 424-10l-22-86q47 11 84.5-5t38.5-53q1-35-28.5-55.5T412-230q-56 0-98 22v21q41-22 96-22 47 0 70.5 15.5T503-153q-1 32-41 42t-86-4l26 105q-66 2-127 24.5T163.5 79 83 189 53 341q0 88 31.5 160t83 116.5T282 686t130 24q112 0 196-48v-25q-84 49-193 49-63 0-122-22t-107.5-63.5-78-109T78 341q0-81 29.5-145T186 93t108-59 123-20q115 0 200 50z"/><glyph glyph-name="Egrave" unicode="È" horiz-adv-x="628" d="M105 700h455v-24H130V364h400v-24H130V24h439V0H105v700zm261 78h-28l-90 133h30z"/><glyph glyph-name="Eacute" unicode="É" horiz-adv-x="628" d="M105 700h455v-24H130V364h400v-24H130V24h439V0H105v700zm219 78h-28l88 133h30z"/><glyph glyph-name="Ecircumflex" unicode="Ê" horiz-adv-x="628" d="M105 700h455v-24H130V364h400v-24H130V24h439V0H105v700zm218 203h21l127-125h-29L334 884 226 778h-29z"/><glyph glyph-name="Edieresis" unicode="Ë" horiz-adv-x="628" d="M105 700h455v-24H130V364h400v-24H130V24h439V0H105v700zm351 135q0-9-6.5-16t-16.5-7q-9 0-16 7t-7 16q0 10 7 16.5t16 6.5q10 0 16.5-6.5T456 835zm-201 0q0-9-6.5-16t-16.5-7q-9 0-16 7t-7 16q0 10 7 16.5t16 6.5q10 0 16.5-6.5T255 835z"/><glyph glyph-name="Igrave" unicode="Ì" horiz-adv-x="235" d="M105 700h25V0h-25v700zm46 78h-28L33 911h30z"/><glyph glyph-name="Iacute" unicode="Í" horiz-adv-x="235" d="M105 700h25V0h-25v700zm4 78H81l88 133h30z"/><glyph glyph-name="Icircumflex" unicode="Î" horiz-adv-x="235" d="M105 700h25V0h-25v700zm3 203h21l127-125h-29L119 884 11 778h-29z"/><glyph glyph-name="Idieresis" unicode="Ï" horiz-adv-x="235" d="M105 700h25V0h-25v700zm136 135q0-9-6.5-16t-16.5-7q-9 0-16 7t-7 16q0 10 7 16.5t16 6.5q10 0 16.5-6.5T241 835zm-201 0q0-9-6.5-16T17 812q-9 0-16 7t-7 16q0 10 7 16.5t16 6.5q10 0 16.5-6.5T40 835z"/><glyph glyph-name="Eth" unicode="Ð" horiz-adv-x="730" d="M105 700h199q182 0 277-96t95-254-95-254T304 0H105v338H25v23h80v339zm25-676h174q170 0 258.5 89T651 350t-88.5 237T304 676H130V361h242v-23H130V24z"/><glyph glyph-name="Ntilde" unicode="Ñ" horiz-adv-x="767" d="M130 0h-25v700h21L637 44v656h25V0h-22L130 657V0zm397 861q4-32-11.5-52T470 789q-28 0-87 28t-81 28q-21 0-31.5-14t-7.5-37h-22q-4 31 12 52t45 21q27 0 86.5-28t81.5-28q44 0 39 50h22z"/><glyph glyph-name="Ograve" unicode="Ò" horiz-adv-x="826" d="M52 350q0 67 23 129.5t66 115 114 84T413 710t158-31.5 114-84 66-115T774 350t-23-129.5-66-115-114-84T413-10 255 21.5t-114 84-66 115T52 350zm697 0q0 63-21.5 121.5t-61.5 107-106 78T413 686t-147-29.5-106-78-61.5-107T77 350t21.5-121.5 61.5-107 106-78T413 14t147 29.5 106 78 61.5 107T749 350zM446 778h-28l-90 133h30z"/><glyph glyph-name="Oacute" unicode="Ó" horiz-adv-x="826" d="M52 350q0 67 23 129.5t66 115 114 84T413 710t158-31.5 114-84 66-115T774 350t-23-129.5-66-115-114-84T413-10 255 21.5t-114 84-66 115T52 350zm697 0q0 63-21.5 121.5t-61.5 107-106 78T413 686t-147-29.5-106-78-61.5-107T77 350t21.5-121.5 61.5-107 106-78T413 14t147 29.5 106 78 61.5 107T749 350zM404 778h-28l88 133h30z"/><glyph glyph-name="Ocircumflex" unicode="Ô" horiz-adv-x="826" d="M52 350q0 67 23 129.5t66 115 114 84T413 710t158-31.5 114-84 66-115T774 350t-23-129.5-66-115-114-84T413-10 255 21.5t-114 84-66 115T52 350zm697 0q0 63-21.5 121.5t-61.5 107-106 78T413 686t-147-29.5-106-78-61.5-107T77 350t21.5-121.5 61.5-107 106-78T413 14t147 29.5 106 78 61.5 107T749 350zM403 903h21l127-125h-29L414 884 306 778h-29z"/><glyph glyph-name="Otilde" unicode="Õ" horiz-adv-x="826" d="M52 350q0 67 23 129.5t66 115 114 84T413 710t158-31.5 114-84 66-115T774 350t-23-129.5-66-115-114-84T413-10 255 21.5t-114 84-66 115T52 350zm697 0q0 63-21.5 121.5t-61.5 107-106 78T413 686t-147-29.5-106-78-61.5-107T77 350t21.5-121.5 61.5-107 106-78T413 14t147 29.5 106 78 61.5 107T749 350zM557 861q4-32-11.5-52T500 789q-28 0-87 28t-81 28q-21 0-31.5-14t-7.5-37h-22q-4 31 12 52t45 21q27 0 86.5-28t81.5-28q44 0 39 50h22z"/><glyph glyph-name="Odieresis" unicode="Ö" horiz-adv-x="826" d="M52 350q0 67 23 129.5t66 115 114 84T413 710t158-31.5 114-84 66-115T774 350t-23-129.5-66-115-114-84T413-10 255 21.5t-114 84-66 115T52 350zm697 0q0 63-21.5 121.5t-61.5 107-106 78T413 686t-147-29.5-106-78-61.5-107T77 350t21.5-121.5 61.5-107 106-78T413 14t147 29.5 106 78 61.5 107T749 350zM536 835q0-9-6.5-16t-16.5-7q-9 0-16 7t-7 16q0 10 7 16.5t16 6.5q10 0 16.5-6.5T536 835zm-201 0q0-9-6.5-16t-16.5-7q-9 0-16 7t-7 16q0 10 7 16.5t16 6.5q10 0 16.5-6.5T335 835z"/><glyph glyph-name="multiply" unicode="×" horiz-adv-x="445" d="M223 334L88 199l-16 17 134 134L72 485l16 16 135-134 134 134 16-16-134-135 134-134-16-17z"/><glyph glyph-name="Oslash" unicode="Ø" horiz-adv-x="826" d="M721 748l-81-111q65-52 99.5-128.5T774 350q0-67-23-129.5t-66-115-114-84T413-10q-117 0-203 56l-68-94h-26l77 106q-68 51-104.5 129.5T52 350q0 67 23 129.5t66 115 114 84T413 710q122 0 210-61l72 99h26zm-308-62q-81 0-147-29.5t-106-78-61.5-107T77 350q0-80 33.5-153T208 78l401 552q-82 56-196 56zM225 66q80-52 188-52 82 0 147.5 29.5t106 78 62 107T750 350q0 77-32 148.5T626 617z"/><glyph glyph-name="Ugrave" unicode="Ù" horiz-adv-x="749" d="M628 700h25V241q0-132-75.5-191.5T375-10 172 49.5 96 241v459h25V242q0-228 254-228 253 0 253 228v458zm-217 78h-28l-90 133h30z"/><glyph glyph-name="Uacute" unicode="Ú" horiz-adv-x="749" d="M628 700h25V241q0-132-75.5-191.5T375-10 172 49.5 96 241v459h25V242q0-228 254-228 253 0 253 228v458zm-259 78h-28l88 133h30z"/><glyph glyph-name="Ucircumflex" unicode="Û" horiz-adv-x="749" d="M628 700h25V241q0-132-75.5-191.5T375-10 172 49.5 96 241v459h25V242q0-228 254-228 253 0 253 228v458zM368 903h21l127-125h-29L379 884 271 778h-29z"/><glyph glyph-name="Udieresis" unicode="Ü" horiz-adv-x="749" d="M628 700h25V241q0-132-75.5-191.5T375-10 172 49.5 96 241v459h25V242q0-228 254-228 253 0 253 228v458zM501 835q0-9-6.5-16t-16.5-7q-9 0-16 7t-7 16q0 10 7 16.5t16 6.5q10 0 16.5-6.5T501 835zm-201 0q0-9-6.5-16t-16.5-7q-9 0-16 7t-7 16q0 10 7 16.5t16 6.5q10 0 16.5-6.5T300 835z"/><glyph glyph-name="Yacute" unicode="Ý" horiz-adv-x="625" d="M325 0h-25v284L24 700h28l260-392 260 392h28L325 284V0zm-21 778h-28l88 133h30z"/><glyph glyph-name="Thorn" unicode="Þ" horiz-adv-x="650" d="M130 567h192q292 0 292-217T322 133H130V0h-25v700h25V567zm0-410h193q266 0 266 193T323 543H130V157z"/><glyph glyph-name="germandbls" unicode="ß" horiz-adv-x="588" d="M549 150q0-79-57.5-119.5T347-10q-80 0-131 32v22q54-32 128-32 79 0 130 34.5T525 151q0 39-25 76t-54.5 61-54.5 53-25 54q0 22 12.5 43t27.5 36 27.5 39.5T446 566q0 48-41.5 85T293 688q-82 0-133.5-48T108 507V0H84v504q0 96 58 151t151 55q81 1 129-42.5t48-99.5q0-38-20-67.5t-40-54-20-48.5q0-22 25-50t54.5-52 54.5-63.5 25-82.5z"/><glyph glyph-name="agrave" unicode="à" horiz-adv-x="539" d="M444 70q0-49 52-49 20 0 37 7V7q-21-8-42-8-30 0-50.5 17T420 69v36q-34-55-92-85T203-10 88 25.5 40 127q0 77 60 114t146 37 174-30v52q0 78-44.5 123T247 468q-89 0-170-30v24q80 28 171 28 94 0 145-51t51-141V70zM64 128q0-56 42-86.5T207 11q66 0 124 33t89 93v89q-85 30-172 30-78 0-131-31t-53-97zm220 430h-28l-90 133h30z"/><glyph glyph-name="aacute" unicode="á" horiz-adv-x="539" d="M444 70q0-49 52-49 20 0 37 7V7q-21-8-42-8-30 0-50.5 17T420 69v36q-34-55-92-85T203-10 88 25.5 40 127q0 77 60 114t146 37 174-30v52q0 78-44.5 123T247 468q-89 0-170-30v24q80 28 171 28 94 0 145-51t51-141V70zM64 128q0-56 42-86.5T207 11q66 0 124 33t89 93v89q-85 30-172 30-78 0-131-31t-53-97zm178 430h-28l88 133h30z"/><glyph glyph-name="acircumflex" unicode="â" horiz-adv-x="539" d="M444 70q0-49 52-49 20 0 37 7V7q-21-8-42-8-30 0-50.5 17T420 69v36q-34-55-92-85T203-10 88 25.5 40 127q0 77 60 114t146 37 174-30v52q0 78-44.5 123T247 468q-89 0-170-30v24q80 28 171 28 94 0 145-51t51-141V70zM64 128q0-56 42-86.5T207 11q66 0 124 33t89 93v89q-85 30-172 30-78 0-131-31t-53-97zm177 555h21l127-125h-29L252 664 144 558h-29z"/><glyph glyph-name="atilde" unicode="ã" horiz-adv-x="539" d="M444 70q0-49 52-49 20 0 37 7V7q-21-8-42-8-30 0-50.5 17T420 69v36q-34-55-92-85T203-10 88 25.5 40 127q0 77 60 114t146 37 174-30v52q0 78-44.5 123T247 468q-89 0-170-30v24q80 28 171 28 94 0 145-51t51-141V70zM64 128q0-56 42-86.5T207 11q66 0 124 33t89 93v89q-85 30-172 30-78 0-131-31t-53-97zm331 513q4-32-11.5-52T338 569q-28 0-87 28t-81 28q-21 0-31.5-14t-7.5-37h-22q-4 31 12 52t45 21q27 0 86.5-28t81.5-28q44 0 39 50h22z"/><glyph glyph-name="adieresis" unicode="ä" horiz-adv-x="539" d="M444 70q0-49 52-49 20 0 37 7V7q-21-8-42-8-30 0-50.5 17T420 69v36q-34-55-92-85T203-10 88 25.5 40 127q0 77 60 114t146 37 174-30v52q0 78-44.5 123T247 468q-89 0-170-30v24q80 28 171 28 94 0 145-51t51-141V70zM64 128q0-56 42-86.5T207 11q66 0 124 33t89 93v89q-85 30-172 30-78 0-131-31t-53-97zm310 487q0-9-6.5-16t-16.5-7q-9 0-16 7t-7 16q0 10 7 16.5t16 6.5q10 0 16.5-6.5T374 615zm-201 0q0-9-6.5-16t-16.5-7q-9 0-16 7t-7 16q0 10 7 16.5t16 6.5q10 0 16.5-6.5T173 615z"/><glyph glyph-name="aring" unicode="å" horiz-adv-x="539" d="M444 70q0-49 52-49 20 0 37 7V7q-21-8-42-8-30 0-50.5 17T420 69v36q-34-55-92-85T203-10 88 25.5 40 127q0 77 60 114t146 37 174-30v52q0 78-44.5 123T247 468q-89 0-170-30v24q80 28 171 28 94 0 145-51t51-141V70zM64 128q0-56 42-86.5T207 11q66 0 124 33t89 93v89q-85 30-172 30-78 0-131-31t-53-97zm271 492q0-36-25-59t-59-23-59.5 23-25.5 59 25.5 59 59.5 23 59-23 25-59zm-149 0q0-28 19.5-45.5T251 557t45 17.5 19 45.5-19 45.5-45 17.5-45.5-18-19.5-45z"/><glyph glyph-name="ae" unicode="æ" horiz-adv-x="906" d="M453 115q-43-61-109-93T205-10q-68 0-116.5 35.5T40 127q0 77 60 114t148 37q91 0 177-31v53q0 77-45 122.5T247 468q-89 0-170-30v24q80 28 171 28 89 0 138.5-43T444 329q21 75 81 118t131 43q78 0 128.5-42.5t66.5-102 5-124.5H449q4-103 71-156t160-53q82 0 147 38V27q-65-37-150-37-71 0-132 31.5T453 115zM64 128q0-57 42-87t102-30q68 0 130.5 31T443 133q-17 42-18 93-87 30-175 30-79 0-132.5-31T64 128zm591 340q-84 0-144-59.5T449 243h386q4 40-4 78.5t-27.5 72-58 54T655 468z"/><glyph glyph-name="ccedilla" unicode="ç" horiz-adv-x="494" d="M452 51V27Q388-8 304-10l-21-86q47 11 84-5t38-53q1-35-28.5-55.5T292-230q-56 0-98 22v21q41-22 97-22 46 0 69.5 15.5T384-153q-1 32-41 42t-86-4l26 105q-98 4-166 67T49 236q0 64 22.5 114.5t60 80 82 44.5 93.5 15q83 0 140-39v-23q-58 40-138 40-97 0-166.5-59T73 236q0-108 65.5-166T297 12q87 0 155 39z"/><glyph glyph-name="egrave" unicode="è" horiz-adv-x="545" d="M49 240q0 115 69.5 182.5T283 490q63 0 110-25t70.5-65 32-85 1.5-89H73q3-107 71.5-160.5T313 12q90 0 155 38V26q-62-36-158-36-111 0-186 63T49 240zm427 8q5 51-10.5 99T403 431.5 284 468q-86 0-147.5-58.5T73 248h403zM315 558h-28l-90 133h30z"/><glyph glyph-name="eacute" unicode="é" horiz-adv-x="545" d="M49 240q0 115 69.5 182.5T283 490q63 0 110-25t70.5-65 32-85 1.5-89H73q3-107 71.5-160.5T313 12q90 0 155 38V26q-62-36-158-36-111 0-186 63T49 240zm427 8q5 51-10.5 99T403 431.5 284 468q-86 0-147.5-58.5T73 248h403zM273 558h-28l88 133h30z"/><glyph glyph-name="ecircumflex" unicode="ê" horiz-adv-x="545" d="M49 240q0 115 69.5 182.5T283 490q63 0 110-25t70.5-65 32-85 1.5-89H73q3-107 71.5-160.5T313 12q90 0 155 38V26q-62-36-158-36-111 0-186 63T49 240zm427 8q5 51-10.5 99T403 431.5 284 468q-86 0-147.5-58.5T73 248h403zM272 683h21l127-125h-29L283 664 175 558h-29z"/><glyph glyph-name="edieresis" unicode="ë" horiz-adv-x="545" d="M49 240q0 115 69.5 182.5T283 490q63 0 110-25t70.5-65 32-85 1.5-89H73q3-107 71.5-160.5T313 12q90 0 155 38V26q-62-36-158-36-111 0-186 63T49 240zm427 8q5 51-10.5 99T403 431.5 284 468q-86 0-147.5-58.5T73 248h403zm-71 367q0-9-6.5-16t-16.5-7q-9 0-16 7t-7 16q0 10 7 16.5t16 6.5q10 0 16.5-6.5T405 615zm-201 0q0-9-6.5-16t-16.5-7q-9 0-16 7t-7 16q0 10 7 16.5t16 6.5q10 0 16.5-6.5T204 615z"/><glyph glyph-name="igrave" unicode="ì" horiz-adv-x="199" d="M112 0H88v480h24V0zm32 558h-25L33 691h27z"/><glyph glyph-name="iacute" unicode="í" horiz-adv-x="199" d="M87 480h24V0H87v480zm3 78H62l88 133h30z"/><glyph glyph-name="icircumflex" unicode="î" horiz-adv-x="200" d="M90 673h21l98-115h-27l-81 96-81-96H-7zm-2-193h24V0H88v480z"/><glyph glyph-name="idieresis" unicode="ï" horiz-adv-x="200" d="M195 615q0-9-6.5-15.5T173 593t-15.5 7-6.5 15q0 9 6.5 15.5T173 637q10 0 16-6.5t6-15.5zm-145 0q0-9-6.5-15.5T28 593t-15.5 7T6 615q0 9 6.5 15.5T28 637q10 0 16-6.5t6-15.5zm38-135h24V0H88v480z"/><glyph glyph-name="eth" unicode="ð" horiz-adv-x="596" d="M537 266q0-126-67.5-201T291-10q-106 0-174 64T49 224q0 98 68 161.5T282 449q83 0 150-49t82-140v24q-3 150-70.5 237.5T274 646L155 527l-15 15 112 111q-73 24-151 24v23q89 0 169-29l84 85 15-15-78-79q107-42 176.5-138T537 266zM73 224q0-96 60.5-153.5T291 13q87 0 143.5 50T507 199q-2 109-68 168t-155 59q-88 0-149.5-56.5T73 224z"/><glyph glyph-name="ntilde" unicode="ñ" d="M106 372q30 47 82.5 82.5T311 490q80 0 133-52.5T497 295V0h-24v293q0 82-46 128.5T309 468q-70 0-121-38t-80-91V0H84v480h22V372zm323 269q4-32-11.5-52T372 569q-28 0-87 28t-81 28q-21 0-31.5-14t-7.5-37h-22q-4 31 12 52t45 21q27 0 86.5-28t81.5-28q44 0 39 50h22z"/><glyph glyph-name="ograve" unicode="ò" horiz-adv-x="592" d="M49 240q0 115 72.5 182.5T296 490q103 0 175-67.5T543 240 471 57.5 296-10q-102 0-174.5 67.5T49 240zm470 0q0 105-64.5 166T296 467t-158.5-61T73 240t64.5-166T296 13t158.5 61T519 240zM329 550h-28l-90 133h30z"/><glyph glyph-name="oacute" unicode="ó" horiz-adv-x="592" d="M49 240q0 115 72.5 182.5T296 490q103 0 175-67.5T543 240 471 57.5 296-10q-102 0-174.5 67.5T49 240zm470 0q0 105-64.5 166T296 467t-158.5-61T73 240t64.5-166T296 13t158.5 61T519 240zM287 550h-28l88 133h30z"/><glyph glyph-name="ocircumflex" unicode="ô" horiz-adv-x="592" d="M49 240q0 115 72.5 182.5T296 490q103 0 175-67.5T543 240 471 57.5 296-10q-102 0-174.5 67.5T49 240zm470 0q0 105-64.5 166T296 467t-158.5-61T73 240t64.5-166T296 13t158.5 61T519 240zM286 675h21l127-125h-29L297 656 189 550h-29z"/><glyph glyph-name="otilde" unicode="õ" horiz-adv-x="592" d="M49 240q0 115 72.5 182.5T296 490q103 0 175-67.5T543 240 471 57.5 296-10q-102 0-174.5 67.5T49 240zm470 0q0 105-64.5 166T296 467t-158.5-61T73 240t64.5-166T296 13t158.5 61T519 240zm-79 393q4-32-11.5-52T383 561q-28 0-87 28t-81 28q-21 0-31.5-14t-7.5-37h-22q-4 31 12 52t45 21q27 0 86.5-28t81.5-28q44 0 39 50h22z"/><glyph glyph-name="odieresis" unicode="ö" horiz-adv-x="592" d="M49 240q0 115 72.5 182.5T296 490q103 0 175-67.5T543 240 471 57.5 296-10q-102 0-174.5 67.5T49 240zm470 0q0 105-64.5 166T296 467t-158.5-61T73 240t64.5-166T296 13t158.5 61T519 240zM419 607q0-9-6.5-16t-16.5-7q-9 0-16 7t-7 16q0 10 7 16.5t16 6.5q10 0 16.5-6.5T419 607zm-201 0q0-9-6.5-16t-16.5-7q-9 0-16 7t-7 16q0 10 7 16.5t16 6.5q10 0 16.5-6.5T218 607z"/><glyph glyph-name="divide" unicode="÷" horiz-adv-x="642" d="M561 338H81v24h480v-24zM343 125q0-10-6.5-16t-16.5-6q-9 0-15.5 6t-6.5 16 6.5 16 15.5 6q10 0 16.5-6t6.5-16zm0 447q0-10-6.5-16t-16.5-6q-9 0-15.5 6t-6.5 16 6.5 16 15.5 6q10 0 16.5-6t6.5-16z"/><glyph glyph-name="oslash" unicode="ø" horiz-adv-x="592" d="M499 543l-60-95q104-69 104-208 0-115-72-182.5T296-10q-70 0-129 33l-51-81H93l58 92Q49 104 49 240q0 115 72.5 182.5T296 490q69 0 127-32l54 85h22zm-203-76q-94 0-158.5-61T73 240q0-123 91-187l246 386q-53 28-114 28zM181 43q51-30 116-30 93 0 158 61t65 166q0 125-93 189z"/><glyph glyph-name="ugrave" unicode="ù" d="M466 480h24V0h-22v108q-30-47-82.5-82.5T263-10q-82 0-134 52.5T77 185v295h24V187q0-83 45.5-129T265 12q70 0 121 38t80 91v339zm-142 78h-28l-90 133h30z"/><glyph glyph-name="uacute" unicode="ú" d="M466 480h24V0h-22v108q-30-47-82.5-82.5T263-10q-82 0-134 52.5T77 185v295h24V187q0-83 45.5-129T265 12q70 0 121 38t80 91v339zm-184 78h-28l88 133h30z"/><glyph glyph-name="ucircumflex" unicode="û" d="M466 480h24V0h-22v108q-30-47-82.5-82.5T263-10q-82 0-134 52.5T77 185v295h24V187q0-83 45.5-129T265 12q70 0 121 38t80 91v339zM281 683h21l127-125h-29L292 664 184 558h-29z"/><glyph glyph-name="udieresis" unicode="ü" d="M466 480h24V0h-22v108q-30-47-82.5-82.5T263-10q-82 0-134 52.5T77 185v295h24V187q0-83 45.5-129T265 12q70 0 121 38t80 91v339zm-52 135q0-9-6.5-16t-16.5-7q-9 0-16 7t-7 16q0 10 7 16.5t16 6.5q10 0 16.5-6.5T414 615zm-201 0q0-9-6.5-16t-16.5-7q-9 0-16 7t-7 16q0 10 7 16.5t16 6.5q10 0 16.5-6.5T213 615z"/><glyph glyph-name="yacute" unicode="ý" horiz-adv-x="530" d="M277 25l204 455h26L252-88q-34-77-72-109.5T93-230q-23 0-49 6v22q24-6 47-6 45 0 78.5 31T232-77l33 75L17 480h26zm-28 533h-28l88 133h30z"/><glyph glyph-name="thorn" unicode="þ" horiz-adv-x="613" d="M84 700h24V357q29 58 87 95.5T326 490q104 0 171-68t67-182-67-182-171-68q-73 0-131 37.5T108 123v-343H84v920zm456-460q0 105-60.5 166.5T324 468q-76 0-134.5-44T108 313V167q23-67 81.5-111T324 12q95 0 155.5 61.5T540 240z"/><glyph glyph-name="ydieresis" unicode="ÿ" horiz-adv-x="530" d="M277 25l204 455h26L252-88q-34-77-72-109.5T93-230q-23 0-49 6v22q24-6 47-6 45 0 78.5 31T232-77l33 75L17 480h26zm104 590q0-9-6.5-16t-16.5-7q-9 0-16 7t-7 16q0 10 7 16.5t16 6.5q10 0 16.5-6.5T381 615zm-201 0q0-9-6.5-16t-16.5-7q-9 0-16 7t-7 16q0 10 7 16.5t16 6.5q10 0 16.5-6.5T180 615z"/><glyph glyph-name="Amacron" unicode="Ā" horiz-adv-x="704" d="M43 0H16l322 700h29L688 0h-27l-99 215H142zm303 660L153 239h400L360 660q-3 6-7 16-4-10-7-16zM226 834h252v-23H226v23z"/><glyph glyph-name="amacron" unicode="ā" horiz-adv-x="539" d="M444 70q0-49 52-49 20 0 37 7V7q-21-8-42-8-30 0-50.5 17T420 69v36q-34-55-92-85T203-10 88 25.5 40 127q0 77 60 114t146 37 174-30v52q0 78-44.5 123T247 468q-89 0-170-30v24q80 28 171 28 94 0 145-51t51-141V70zM64 128q0-56 42-86.5T207 11q66 0 124 33t89 93v89q-85 30-172 30-78 0-131-31t-53-97zm61 486h252v-23H125v23z"/><glyph glyph-name="Abreve" unicode="Ă" horiz-adv-x="704" d="M43 0H16l322 700h29L688 0h-27l-99 215H142zm303 660L153 239h400L360 660q-3 6-7 16-4-10-7-16zm130 163q-48-41-124-41t-124 41v26q52-44 124-44t124 44v-26z"/><glyph glyph-name="abreve" unicode="ă" horiz-adv-x="539" d="M444 70q0-49 52-49 20 0 37 7V7q-21-8-42-8-30 0-50.5 17T420 69v36q-34-55-92-85T203-10 88 25.5 40 127q0 77 60 114t146 37 174-30v52q0 78-44.5 123T247 468q-89 0-170-30v24q80 28 171 28 94 0 145-51t51-141V70zM64 128q0-56 42-86.5T207 11q66 0 124 33t89 93v89q-85 30-172 30-78 0-131-31t-53-97zm311 475q-48-41-124-41t-124 41v26q52-44 124-44t124 44v-26z"/><glyph glyph-name="Aogonek" unicode="Ą" horiz-adv-x="704" d="M567-149q0-28 18-44t50-16q36 0 73 19v-21q-35-19-77-19-41 0-64 21t-23 56q0 75 114 160l-96 208H142L43 0H16l322 700h29L688 0Q567-85 567-149zM346 660L154 239h399L360 660q-3 6-7 16-4-10-7-16z"/><glyph glyph-name="aogonek" unicode="ą" horiz-adv-x="539" d="M207 11q66 0 124 33t89 93v89q-85 30-172 30-78 0-131-31t-53-97q0-56 42-86.5T207 11zm324-204v-21q-24-10-55-10-41 0-64 21t-23 57q0 70 105 145h-3q-30 0-50.5 17T420 69v36q-34-55-92-85T203-10 88 25.5 40 127q0 77 60 114t146 37 174-30v52q0 78-44.5 123T247 468q-89 0-170-30v24q80 28 171 28 94 0 145-51t51-141V70q0-49 52-49 20 0 37 7V7Q412-78 412-142q0-28 18-44t50-17q27 1 51 10z"/><glyph glyph-name="Cacute" unicode="Ć" horiz-adv-x="658" d="M53 341q0 88 31.5 160t83 116.5T282 686t130 24q112 0 196-48v-25q-84 49-193 49-63 0-122-22t-107.5-63.5-78-109T78 341q0-81 29.5-145T186 93t108-59 123-20q115 0 200 50V39q-84-49-204-49-67 0-130 22T168 75.5 84.5 186 53 341zm342 437h-28l88 133h30z"/><glyph glyph-name="cacute" unicode="ć" horiz-adv-x="493" d="M49 236q0 64 22.5 114.5t60 80 82 44.5 93.5 15q83 0 140-39v-23q-58 40-138 40-97 0-166.5-59T73 236q0-108 65.5-166T297 12q87 0 155 39V27q-67-37-157-37-101 0-173.5 63T49 236zm237 322h-28l88 133h30z"/><glyph glyph-name="Cdotaccent" unicode="Ċ" horiz-adv-x="658" d="M53 341q0 88 31.5 160t83 116.5T282 686t130 24q112 0 196-48v-25q-84 49-193 49-63 0-122-22t-107.5-63.5-78-109T78 341q0-81 29.5-145T186 93t108-59 123-20q115 0 200 50V39q-84-49-204-49-67 0-130 22T168 75.5 84.5 186 53 341zm322 476q0 12 8 20t20 8 20-8 8-20-8-19.5-20-7.5-20 7.5-8 19.5z"/><glyph glyph-name="cdotaccent" unicode="ċ" horiz-adv-x="493" d="M49 236q0 64 22.5 114.5t60 80 82 44.5 93.5 15q83 0 140-39v-23q-58 40-138 40-97 0-166.5-59T73 236q0-108 65.5-166T297 12q87 0 155 39V27q-67-37-157-37-101 0-173.5 63T49 236zm217 361q0 12 8 20t20 8 20-8 8-20-8-19.5-20-7.5-20 7.5-8 19.5z"/><glyph glyph-name="Ccaron" unicode="Č" horiz-adv-x="658" d="M53 341q0 88 31.5 160t83 116.5T282 686t130 24q112 0 196-48v-25q-84 49-193 49-63 0-122-22t-107.5-63.5-78-109T78 341q0-81 29.5-145T186 93t108-59 123-20q115 0 200 50V39q-84-49-204-49-67 0-130 22T168 75.5 84.5 186 53 341zm489 552L415 768h-21L268 893h29l108-106 108 106h29z"/><glyph glyph-name="ccaron" unicode="č" horiz-adv-x="493" d="M49 236q0 64 22.5 114.5t60 80 82 44.5 93.5 15q83 0 140-39v-23q-58 40-138 40-97 0-166.5-59T73 236q0-108 65.5-166T297 12q87 0 155 39V27q-67-37-157-37-101 0-173.5 63T49 236zm384 437L306 548h-21L159 673h29l108-106 108 106h29z"/><glyph glyph-name="Dcaron" unicode="Ď" horiz-adv-x="730" d="M105 700h199q182 0 277-96t95-254-95-254T304 0H105v700zm546-350q0 148-88.5 237T304 676H130V24h174q170 0 258.5 89T651 350zM482 893L355 768h-21L208 893h29l108-106 108 106h29z"/><glyph glyph-name="dcaron" unicode="ď" horiz-adv-x="613" d="M614 700h23l-21-156h-20zm-109 0h24V0h-22v125q-31-60-89-97.5T287-10q-104 0-171 68T49 240t67 182 171 68q73 0 131-37.5t87-95.5v343zm0-387q-23 67-81.5 111T289 468q-94 0-155-61.5T73 240q0-104 61-166t155-62q76 0 134.5 44T505 167v146z"/><glyph glyph-name="Dcroat" unicode="Đ" horiz-adv-x="730" d="M105 700h199q182 0 277-96t95-254-95-254T304 0H105v338H25v23h80v339zm25-676h174q170 0 258.5 89T651 350t-88.5 237T304 676H130V361h242v-23H130V24z"/><glyph glyph-name="dcroat" unicode="đ" horiz-adv-x="613" d="M529 613h78v-20h-78V0h-22v125q-31-60-89-97.5T287-10q-104 0-171 68T49 240t67 182 171 68q73 0 131-37.5t87-95.5v236H303v20h202v87h24v-87zM289 12q76 0 134.5 44T505 167v146q-23 67-81.5 111T289 468q-94 0-155-61.5T73 240q0-104 61-166t155-62z"/><glyph glyph-name="Emacron" unicode="Ē" horiz-adv-x="628" d="M105 700h455v-24H130V364h400v-24H130V24h439V0H105v700zm102 134h252v-23H207v23z"/><glyph glyph-name="emacron" unicode="ē" horiz-adv-x="545" d="M49 240q0 115 69.5 182.5T283 490q63 0 110-25t70.5-65 32-85 1.5-89H73q3-107 71.5-160.5T313 12q90 0 155 38V26q-62-36-158-36-111 0-186 63T49 240zm427 8q5 51-10.5 99T403 431.5 284 468q-86 0-147.5-58.5T73 248h403zM156 614h252v-23H156v23z"/><glyph glyph-name="Edotaccent" unicode="Ė" horiz-adv-x="628" d="M105 700h455v-24H130V364h400v-24H130V24h439V0H105v700zm199 117q0 12 8 20t20 8 20-8 8-20-8-19.5-20-7.5-20 7.5-8 19.5z"/><glyph glyph-name="edotaccent" unicode="ė" horiz-adv-x="545" d="M49 240q0 115 69.5 182.5T283 490q63 0 110-25t70.5-65 32-85 1.5-89H73q3-107 71.5-160.5T313 12q90 0 155 38V26q-62-36-158-36-111 0-186 63T49 240zm427 8q5 51-10.5 99T403 431.5 284 468q-86 0-147.5-58.5T73 248h403zM253 597q0 12 8 20t20 8 20-8 8-20-8-19.5-20-7.5-20 7.5-8 19.5z"/><glyph glyph-name="Eogonek" unicode="Ę" horiz-adv-x="628" d="M569 24V0Q441-85 441-149q0-28 17-44t47-16 64 13v-21q-30-13-68-13-39 0-61 20.5T418-153q0 73 119 153H105v700h455v-24H130V364h400v-24H130V24h439z"/><glyph glyph-name="eogonek" unicode="ę" horiz-adv-x="545" d="M459-211q-35-19-77-19-41-1-64 20.5T295-153q0 68 119 158-44-15-104-15-111 0-186 63T49 240q0 115 69.5 182.5T283 490q63 0 110-25t70.5-65 32-85 1.5-89H73q3-107 71.5-160.5T313 12q90 0 155 38V26q-76-56-113-97t-37-78q0-28 18-44t50-16q36 0 73 19v-21zM284 468q-86 0-147.5-58.5T73 248h403q5 51-10.5 99T403 431.5 284 468z"/><glyph glyph-name="Ecaron" unicode="Ě" horiz-adv-x="628" d="M105 700h455v-24H130V364h400v-24H130V24h439V0H105v700zm366 193L344 768h-21L197 893h29l108-106 108 106h29z"/><glyph glyph-name="ecaron" unicode="ě" horiz-adv-x="545" d="M49 240q0 115 69.5 182.5T283 490q63 0 110-25t70.5-65 32-85 1.5-89H73q3-107 71.5-160.5T313 12q90 0 155 38V26q-62-36-158-36-111 0-186 63T49 240zm427 8q5 51-10.5 99T403 431.5 284 468q-86 0-147.5-58.5T73 248h403zm-56 425L293 548h-21L146 673h29l108-106 108 106h29z"/><glyph glyph-name="Gbreve" unicode="Ğ" horiz-adv-x="710" d="M54 350q0 91 31.5 162.5t85 113 117.5 63T422 710q113 0 202-46v-25q-88 47-200 47-66 0-126-19.5T188 608t-79.5-105.5T79 350q0-87 30-153.5t80.5-105 111.5-58T430 14q105 0 188 40v311h25V37q-99-47-214-47-73 0-138 21T172 73.5t-86 113T54 350zm477 473q-48-41-124-41t-124 41v26q52-44 124-44t124 44v-26z"/><glyph glyph-name="gbreve" unicode="ğ" horiz-adv-x="613" d="M49 240q0 114 67 182t171 68q73 0 131-37.5t89-97.5v125h22V0q0-114-72.5-172T278-230q-100 0-188 45v24q91-47 186-47 46 0 86.5 12t73 36.5 51 65.5T505 0v124q-29-59-87-96.5T287-10q-104 0-171 68T49 240zm456 73q-23 67-81.5 111T289 468q-94 0-155-61.5T73 240q0-104 61-166t155-62q76 0 134.5 43.5T505 165v148zm-92 290q-48-41-124-41t-124 41v26q52-44 124-44t124 44v-26z"/><glyph glyph-name="Gdotaccent" unicode="Ġ" horiz-adv-x="710" d="M54 350q0 91 31.5 162.5t85 113 117.5 63T422 710q113 0 202-46v-25q-88 47-200 47-66 0-126-19.5T188 608t-79.5-105.5T79 350q0-87 30-153.5t80.5-105 111.5-58T430 14q105 0 188 40v311h25V37q-99-47-214-47-73 0-138 21T172 73.5t-86 113T54 350zm324 467q0 12 8 20t20 8 20-8 8-20-8-19.5-20-7.5-20 7.5-8 19.5z"/><glyph glyph-name="gdotaccent" unicode="ġ" horiz-adv-x="613" d="M49 240q0 114 67 182t171 68q73 0 131-37.5t89-97.5v125h22V0q0-114-72.5-172T278-230q-100 0-188 45v24q91-47 186-47 46 0 86.5 12t73 36.5 51 65.5T505 0v124q-29-59-87-96.5T287-10q-104 0-171 68T49 240zm456 73q-23 67-81.5 111T289 468q-94 0-155-61.5T73 240q0-104 61-166t155-62q76 0 134.5 43.5T505 165v148zM260 597q0 12 8 20t20 8 20-8 8-20-8-19.5-20-7.5-20 7.5-8 19.5z"/><glyph glyph-name="Gcommaaccent" unicode="Ģ" horiz-adv-x="710" d="M54 350q0 91 31.5 162.5t85 113 117.5 63T422 710q113 0 202-46v-25q-88 47-200 47-66 0-126-19.5T188 608t-79.5-105.5T79 350q0-87 30-153.5t80.5-105 111.5-58T430 14q105 0 188 40v311h25V37q-99-47-214-47-73 0-138 21T172 73.5t-86 113T54 350zm360-574h-22l20 166h24z"/><glyph glyph-name="gcommaaccent" unicode="ģ" horiz-adv-x="613" d="M306 550h-23l22 152h20zM49 240q0 114 67 182t171 68q73 0 131-37.5t89-97.5v125h22V0q0-114-72.5-172T278-230q-100 0-188 45v24q91-47 186-47 46 0 86.5 12t73 36.5 51 65.5T505 0v124q-29-59-87-96.5T287-10q-104 0-171 68T49 240zm456 73q-23 67-81.5 111T289 468q-94 0-155-61.5T73 240q0-104 61-166t155-62q76 0 134.5 43.5T505 165v148z"/><glyph glyph-name="Hbar" unicode="Ħ" horiz-adv-x="767" d="M130 0h-25v520H26v22h79v158h25V542h507v158h25V542h79v-22h-79V0h-25v340H130V0zm0 520V364h507v156H130z"/><glyph glyph-name="hbar" unicode="ħ" d="M108 374q30 46 82 81t120 35q81 0 134-52.5T497 295V0h-24v293q0 82-46 128.5T309 468q-70 0-121-38t-80-91V0H84v591H8v20h76v89h24v-89h203v-20H108V374z"/><glyph glyph-name="Imacron" unicode="Ī" horiz-adv-x="235" d="M105 700h25V0h-25v700zM-8 834h252v-23H-8v23z"/><glyph glyph-name="imacron" unicode="ī" horiz-adv-x="200" d="M-10 616h220v-23H-10v23zm98-136h24V0H88v480z"/><glyph glyph-name="Iogonek" unicode="Į" horiz-adv-x="235" d="M58-149q0-28 18.5-44t49.5-16q29 0 68 17v-21q-34-17-72-17-40 0-63.5 21T35-153q0 67 70 157v696h25V0Q58-90 58-149z"/><glyph glyph-name="iogonek" unicode="į" horiz-adv-x="199" d="M120 615q0-19-20-19t-20 19q0 9 6 14.5t14 5.5q20 0 20-20zM34-149q0-28 18-44t50-17q37 1 73 20v-21q-34-20-77-20-41 0-64 21t-23 57Q11-86 88 6v474h24V0Q34-88 34-149z"/><glyph glyph-name="Idotaccent" unicode="İ" horiz-adv-x="235" d="M105 700h25V0h-25v700zM89 817q0 12 8 20t20 8 20-8 8-20-8-19.5-20-7.5-20 7.5-8 19.5z"/><glyph glyph-name="dotlessi" unicode="ı" horiz-adv-x="198" d="M87 480h24V0H87v480z"/><glyph glyph-name="IJ" unicode="Ĳ" horiz-adv-x="757" d="M105 700h25V0h-25v700zm299 0h256V184q0-95-58.5-144.5T447-10q-112 0-179 43v25q67-44 176-44 87 0 139 42.5T635 184v492H404v24z"/><glyph glyph-name="ij" unicode="ĳ" horiz-adv-x="396" d="M111 0H87v480h24V0zm8 615q0-19-20-19t-20 19q0 9 6 14.5t14 5.5 14-5.5 6-14.5zm190-731q0-61-33.5-87.5T192-230q-37 0-68 11v23q30-11 64-11 42 0 69.5 21.5T285-114v594h24v-596zm8 731q0-19-20-19t-20 19q0 9 6 14.5t14 5.5q20 0 20-20z"/><glyph glyph-name="Kcommaaccent" unicode="Ķ" horiz-adv-x="654" d="M130 0h-25v700h25V371h216l246 329h29L367 359 649 0h-30L345 347H130V0zm219-214h-22l20 166h24z"/><glyph glyph-name="kcommaaccent" unicode="ķ" horiz-adv-x="490" d="M486 0h-29L237 237H108V0H84v700h24V260h131l190 220h29L258 247zM262-214h-22l20 166h24z"/><glyph glyph-name="Lacute" unicode="Ĺ" horiz-adv-x="576" d="M105 700h25V24h428V0H105v700zm19 78H96l88 133h30z"/><glyph glyph-name="lacute" unicode="ĺ" horiz-adv-x="198" d="M87 730h24V0H87v730zm10 56H69l88 133h30z"/><glyph glyph-name="Lcommaaccent" unicode="Ļ" horiz-adv-x="576" d="M105 700h25V24h428V0H105v700zm216-914h-22l20 166h24z"/><glyph glyph-name="lcommaaccent" unicode="ļ" horiz-adv-x="198" d="M87 730h24V0H87v730zm5-944H70L90-48h24z"/><glyph glyph-name="Lcaron" unicode="Ľ" horiz-adv-x="576" d="M375 700h23l-21-156h-20zm-270 0h25V24h428V0H105v700z"/><glyph glyph-name="lcaron" unicode="ľ" horiz-adv-x="199" d="M195 730h23l-21-156h-20zm-108 0h24V0H87v730z"/><glyph glyph-name="Ldot" unicode="Ŀ" horiz-adv-x="584" d="M368 334q0-10-6.5-16t-15.5-6-16 6.5-7 15.5 7 15.5 16 6.5 15.5-6 6.5-16zM105 700h25V24h428V0H105v700z"/><glyph glyph-name="ldot" unicode="ŀ" horiz-adv-x="231" d="M87 730h24V0H87v730zm151-380q0-10-6.5-16t-15.5-6q-10 0-16.5 6t-6.5 16 6.5 16 16.5 6q9 0 15.5-6t6.5-16z"/><glyph glyph-name="Lslash" unicode="Ł" horiz-adv-x="579" d="M561 0H108v291l-96-42v22l96 42v387h25V323l242 107v-22L133 301V24h428V0z"/><glyph glyph-name="lslash" unicode="ł" horiz-adv-x="222" d="M100 730h24V389l89 39v-22l-89-39V0h-24v357l-89-39v22l89 39v351z"/><glyph glyph-name="Nacute" unicode="Ń" horiz-adv-x="767" d="M130 0h-25v700h21L637 44v656h25V0h-22L130 657V0zm244 778h-28l88 133h30z"/><glyph glyph-name="nacute" unicode="ń" d="M106 372q30 47 82.5 82.5T311 490q80 0 133-52.5T497 295V0h-24v293q0 82-46 128.5T309 468q-70 0-121-38t-80-91V0H84v480h22V372zm170 186h-28l88 133h30z"/><glyph glyph-name="Ncommaaccent" unicode="Ņ" horiz-adv-x="767" d="M130 0h-25v700h21L637 44v656h25V0h-22L130 657V0zm254-214h-22l20 166h24z"/><glyph glyph-name="ncommaaccent" unicode="ņ" d="M106 372q30 47 82.5 82.5T311 490q80 0 133-52.5T497 295V0h-24v293q0 82-46 128.5T309 468q-70 0-121-38t-80-91V0H84v480h22V372zm182-586h-22l20 166h24z"/><glyph glyph-name="Ncaron" unicode="Ň" horiz-adv-x="767" d="M130 0h-25v700h21L637 44v656h25V0h-22L130 657V0zm391 893L394 768h-21L247 893h29l108-106 108 106h29z"/><glyph glyph-name="ncaron" unicode="ň" d="M106 372q30 47 82.5 82.5T311 490q80 0 133-52.5T497 295V0h-24v293q0 82-46 128.5T309 468q-70 0-121-38t-80-91V0H84v480h22V372zm317 301L296 548h-21L149 673h29l108-106 108 106h29z"/><glyph glyph-name="Eng" unicode="Ŋ" horiz-adv-x="767" d="M662-115q0-60-33.5-87.5T544-230q-35 0-68 11v23q32-10 64-10 97 0 97 93V5L130 657V0h-25v700h21L637 44v656h25v-815z"/><glyph glyph-name="eng" unicode="ŋ" d="M497-116q0-61-33.5-87.5T381-230q-38 0-69 11v23q33-12 64-12 42 0 69.5 22t27.5 72v407q0 82-46 128.5T309 468q-70 0-121-38t-80-91V0H84v480h22V372q30 47 82.5 82.5T311 490q80 0 133-52.5T497 295v-411z"/><glyph glyph-name="Omacron" unicode="Ō" horiz-adv-x="826" d="M52 350q0 67 23 129.5t66 115 114 84T413 710t158-31.5 114-84 66-115T774 350t-23-129.5-66-115-114-84T413-10 255 21.5t-114 84-66 115T52 350zm697 0q0 63-21.5 121.5t-61.5 107-106 78T413 686t-147-29.5-106-78-61.5-107T77 350t21.5-121.5 61.5-107 106-78T413 14t147 29.5 106 78 61.5 107T749 350zM287 834h252v-23H287v23z"/><glyph glyph-name="omacron" unicode="ō" horiz-adv-x="592" d="M49 240q0 115 72.5 182.5T296 490q103 0 175-67.5T543 240 471 57.5 296-10q-102 0-174.5 67.5T49 240zm470 0q0 105-64.5 166T296 467t-158.5-61T73 240t64.5-166T296 13t158.5 61T519 240zM170 606h252v-23H170v23z"/><glyph glyph-name="Ohungarumlaut" unicode="Ő" horiz-adv-x="826" d="M52 350q0 67 23 129.5t66 115 114 84T413 710t158-31.5 114-84 66-115T774 350t-23-129.5-66-115-114-84T413-10 255 21.5t-114 84-66 115T52 350zm697 0q0 63-21.5 121.5t-61.5 107-106 78T413 686t-147-29.5-106-78-61.5-107T77 350t21.5-121.5 61.5-107 106-78T413 14t147 29.5 106 78 61.5 107T749 350zM495 778h-27l75 142h28zm-152 0h-27l75 142h28z"/><glyph glyph-name="ohungarumlaut" unicode="ő" horiz-adv-x="592" d="M49 240q0 115 72.5 182.5T296 490q103 0 175-67.5T543 240 471 57.5 296-10q-102 0-174.5 67.5T49 240zm470 0q0 105-64.5 166T296 467t-158.5-61T73 240t64.5-166T296 13t158.5 61T519 240zM378 550h-27l75 142h28zm-152 0h-27l75 142h28z"/><glyph glyph-name="OE" unicode="Œ" horiz-adv-x="1025" d="M535 0q-48-10-122-10-87 0-158 31.5t-114 84-66 115T52 350t23 129.5 66 115 114 84T413 710q74 0 122-10h425v-24H560V364h370v-24H560V24h406V0H535zM78 350q0-64 22-123t62.5-107 106-77T415 14q75 0 121 11v650q-46 11-121 11-81 0-146.5-29t-106-77T100 473 78 350z"/><glyph glyph-name="oe" unicode="œ" horiz-adv-x="994" d="M522 167q-21-84-84-130.5T291-10q-102 0-172 67T49 240t70 183 172 67q85 0 147.5-47T522 311q20 82 81.5 130.5T739 490q50 0 89.5-16.5t63-44 39-63 17-72.5-2.5-73H535q3-103 71-156t159-53q86 0 151 38V27q-63-37-154-37-84 0-152.5 45T522 167zM73 240q0-105 62-166t156-61 156.5 61T510 240t-62.5 166T291 467t-156-61-62-166zm668 228q-82 0-143-60t-63-165h390q4 39-4 77t-28 72-59 55-93 21z"/><glyph glyph-name="Racute" unicode="Ŕ" horiz-adv-x="682" d="M130 0h-25v700h263q46 0 87.5-11t78-34 58.5-63.5 22-94.5q0-51-19.5-90t-52-62-71-35.5T390 295L658 0h-31L361 294H130V0zm0 676V318h239q41 0 78 9.5t70 29 52.5 56T589 497q0 63-34.5 105t-82 58T369 676H130zm203 102h-28l88 133h30z"/><glyph glyph-name="racute" unicode="ŕ" horiz-adv-x="336" d="M106 333q25 67 83 112.5T325 490v-24q-85 1-142.5-52.5T108 285V0H84v480h22V333zm72 225h-28l88 133h30z"/><glyph glyph-name="Rcommaaccent" unicode="Ŗ" horiz-adv-x="682" d="M130 0h-25v700h263q46 0 87.5-11t78-34 58.5-63.5 22-94.5q0-51-19.5-90t-52-62-71-35.5T390 295L658 0h-31L361 294H130V0zm0 676V318h239q41 0 78 9.5t70 29 52.5 56T589 497q0 63-34.5 105t-82 58T369 676H130zm225-890h-22l20 166h24z"/><glyph glyph-name="rcommaaccent" unicode="ŗ" horiz-adv-x="336" d="M106 333q25 67 83 112.5T325 490v-24q-85 1-142.5-52.5T108 285V0H84v480h22V333zM87-214H65L85-48h24z"/><glyph glyph-name="Rcaron" unicode="Ř" horiz-adv-x="682" d="M130 0h-25v700h263q46 0 87.5-11t78-34 58.5-63.5 22-94.5q0-51-19.5-90t-52-62-71-35.5T390 295L658 0h-31L361 294H130V0zm0 676V318h239q41 0 78 9.5t70 29 52.5 56T589 497q0 63-34.5 105t-82 58T369 676H130zm350 217L353 768h-21L206 893h29l108-106 108 106h29z"/><glyph glyph-name="rcaron" unicode="ř" horiz-adv-x="336" d="M106 333q25 67 83 112.5T325 490v-24q-85 1-142.5-52.5T108 285V0H84v480h22V333zm219 340L198 548h-21L51 673h29l108-106 108 106h29z"/><glyph glyph-name="Sacute" unicode="Ś" horiz-adv-x="563" d="M59 541q0 83 64 126t154 43q114 0 198-47v-25q-39 22-93 35.5T278 686q-81 0-137.5-36.5T84 541q0-45 24-77.5t63-51.5 85.5-34.5T350 345t86-38.5 63-59 24-88.5q0-87-66.5-128.5T290-10Q157-10 52 48v25q106-59 236-59 93 0 151.5 34.5T498 158q0 47-24 81t-63 54-85.5 36-93.5 32.5-86 37.5-63 57-24 85zm203 237h-28l88 133h30z"/><glyph glyph-name="sacute" unicode="ś" horiz-adv-x="452" d="M53 368q0 61 49.5 91.5T221 490q93 0 163-41v-24q-67 43-162 43-60 0-102-24.5T78 369q0-43 34.5-69.5t83-39 97.5-26 83.5-43T411 113q0-62-51-92.5T232-10q-49 0-100 13.5T49 38v24q76-50 182-50 67 0 111.5 25t44.5 75q0 43-34.5 68.5t-83.5 38-98 26-83.5 44T53 368zm159 190h-28l88 133h30z"/><glyph glyph-name="Scedilla" unicode="Ş" horiz-adv-x="562" d="M84 541q0-45 24-77.5t63-51.5 85.5-34.5T350 345t86-38.5 63-59 24-88.5q0-83-61-124.5T305-10l-22-86q47 11 84.5-5t38.5-53q1-35-28.5-55.5T293-230q-56 0-98 22v21q41-22 96-22 47 0 70.5 15.5T384-153q-1 32-41 42t-86-4l26 105Q154-10 52 48v25q106-59 236-59 93 0 151.5 34.5T498 158q0 47-24 81t-63 54-85.5 36-93.5 32.5-86 37.5-63 57-24 85q0 83 64 126t154 43q114 0 198-47v-25q-39 22-93 35.5T278 686q-81 0-137.5-36.5T84 541z"/><glyph glyph-name="scedilla" unicode="ş" horiz-adv-x="452" d="M78 369q0-43 34.5-69.5t83-39 97.5-26 83.5-43T411 113q0-58-46.5-89.5T248-10l-18-86q47 11 84.5-5t38.5-53q1-35-28.5-55.5T240-230q-57 0-98 22v21q40-22 96-22 47 0 70.5 15.5T331-153q-1 32-41 42t-86-4l22 105Q117-8 49 38v24q76-50 182-50 67 0 111.5 25t44.5 75q0 43-34.5 68.5t-83.5 38-98 26-83.5 44T53 368q0 61 49.5 91.5T221 490q93 0 163-41v-24q-67 43-162 43-60 0-102-24.5T78 369z"/><glyph glyph-name="Scaron" unicode="Š" horiz-adv-x="563" d="M59 541q0 83 64 126t154 43q114 0 198-47v-25q-39 22-93 35.5T278 686q-81 0-137.5-36.5T84 541q0-45 24-77.5t63-51.5 85.5-34.5T350 345t86-38.5 63-59 24-88.5q0-87-66.5-128.5T290-10Q157-10 52 48v25q106-59 236-59 93 0 151.5 34.5T498 158q0 47-24 81t-63 54-85.5 36-93.5 32.5-86 37.5-63 57-24 85zm350 352L282 768h-21L135 893h29l108-106 108 106h29z"/><glyph glyph-name="scaron" unicode="š" horiz-adv-x="452" d="M53 368q0 61 49.5 91.5T221 490q93 0 163-41v-24q-67 43-162 43-60 0-102-24.5T78 369q0-43 34.5-69.5t83-39 97.5-26 83.5-43T411 113q0-62-51-92.5T232-10q-49 0-100 13.5T49 38v24q76-50 182-50 67 0 111.5 25t44.5 75q0 43-34.5 68.5t-83.5 38-98 26-83.5 44T53 368zm306 305L232 548h-21L85 673h29l108-106 108 106h29z"/><glyph glyph-name="Tcommaaccent" unicode="Ţ" horiz-adv-x="593" d="M15 700h563v-24H309V0h-25v676H15v24zm274-914h-22l20 166h24z"/><glyph glyph-name="tcommaaccent" unicode="ţ" horiz-adv-x="362" d="M103 638l24 8V480h214v-23H127V136q0-122 123-122 58 0 103 24V15Q311-9 245-9q-68 0-105 36.5T103 133v324H13v23h90v158zm123-852h-22l20 166h24z"/><glyph glyph-name="Tcaron" unicode="Ť" horiz-adv-x="593" d="M15 700h563v-24H309V0h-25v676H15v24zm421 193L309 768h-21L162 893h29l108-106 108 106h29z"/><glyph glyph-name="tcaron" unicode="ť" horiz-adv-x="362" d="M240 730h23l-21-154h-20zm-137-92l24 8V480h214v-23H127V136q0-122 123-122 58 0 103 24V15Q311-9 245-9q-68 0-105 36.5T103 133v324H13v23h90v158z"/><glyph glyph-name="Tbar" unicode="Ŧ" horiz-adv-x="605" d="M315 0h-25v347H150v22h140v307H21v24h563v-24H315V369h140v-22H315V0z"/><glyph glyph-name="tbar" unicode="ŧ" horiz-adv-x="363" d="M128 136q0-122 123-122 58 0 103 24V15Q312-9 246-9q-68 0-105 36.5T104 133v151H47v22h57v151H14v23h90v158l24 8V480h214v-23H128V306h167v-22H128V136z"/><glyph glyph-name="Umacron" unicode="Ū" horiz-adv-x="749" d="M628 700h25V241q0-132-75.5-191.5T375-10 172 49.5 96 241v459h25V242q0-228 254-228 253 0 253 228v458zM252 834h252v-23H252v23z"/><glyph glyph-name="umacron" unicode="ū" d="M466 480h24V0h-22v108q-30-47-82.5-82.5T263-10q-82 0-134 52.5T77 185v295h24V187q0-83 45.5-129T265 12q70 0 121 38t80 91v339zM165 614h252v-23H165v23z"/><glyph glyph-name="Uring" unicode="Ů" horiz-adv-x="749" d="M628 700h25V241q0-132-75.5-191.5T375-10 172 49.5 96 241v459h25V242q0-228 254-228 253 0 253 228v458zM462 840q0-36-25-59t-59-23-59.5 23-25.5 59 25.5 59 59.5 23 59-23 25-59zm-149 0q0-28 19.5-45.5T378 777t45 17.5 19 45.5-19 45.5-45 17.5-45.5-18-19.5-45z"/><glyph glyph-name="uring" unicode="ů" d="M466 480h24V0h-22v108q-30-47-82.5-82.5T263-10q-82 0-134 52.5T77 185v295h24V187q0-83 45.5-129T265 12q70 0 121 38t80 91v339zm-91 140q0-36-25-59t-59-23-59.5 23-25.5 59 25.5 59 59.5 23 59-23 25-59zm-149 0q0-28 19.5-45.5T291 557t45 17.5 19 45.5-19 45.5-45 17.5-45.5-18-19.5-45z"/><glyph glyph-name="Uhungarumlaut" unicode="Ű" horiz-adv-x="749" d="M628 700h25V241q0-132-75.5-191.5T375-10 172 49.5 96 241v459h25V242q0-228 254-228 253 0 253 228v458zm-168 78h-27l75 142h28zm-152 0h-27l75 142h28z"/><glyph glyph-name="uhungarumlaut" unicode="ű" d="M466 480h24V0h-22v108q-30-47-82.5-82.5T263-10q-82 0-134 52.5T77 185v295h24V187q0-83 45.5-129T265 12q70 0 121 38t80 91v339zm-93 78h-27l75 142h28zm-152 0h-27l75 142h28z"/><glyph glyph-name="Uogonek" unicode="Ų" horiz-adv-x="749" d="M574-210q-34-20-76-20-41 0-64 21t-23 57q0 34 24.5 79.5T498 8q-52-18-123-18-127 0-203 59.5T96 241v459h25V242q0-228 254-228 253 0 253 228v458h25V241q0-139-92-204-56-39-91.5-92T434-148q0-59 68-61 38 2 72 20v-21z"/><glyph glyph-name="uogonek" unicode="ų" d="M490 480V0q-57-49-85-83.5T377-153q0-56 60-56 29 0 53 10v-21q-24-10-57-10-36 0-57.5 19.5T354-157q0 38 27.5 76T468 7v101q-30-47-82.5-82.5T263-10q-82 0-134 52.5T77 185v295h24V187q0-83 45.5-129T265 12q70 0 121 38t80 91v339h24z"/><glyph glyph-name="Wcircumflex" unicode="Ŵ" horiz-adv-x="987" d="M931 700h28L735 0h-27L493 651 279 0h-27L28 700h27L265 34l217 658h23L721 34zM483 903h21l127-125h-29L494 884 386 778h-29z"/><glyph glyph-name="wcircumflex" unicode="ŵ" horiz-adv-x="798" d="M746 480h25L587 0h-24L399 441 236 0h-24L27 480h26L224 31l163 441h24L575 31zM389 683h21l127-125h-29L400 664 292 558h-29z"/><glyph glyph-name="Ycircumflex" unicode="Ŷ" horiz-adv-x="625" d="M325 0h-25v284L24 700h28l260-392 260 392h28L325 284V0zm-22 903h21l127-125h-29L314 884 206 778h-29z"/><glyph glyph-name="ycircumflex" unicode="ŷ" horiz-adv-x="530" d="M277 25l204 455h26L252-88q-34-77-72-109.5T93-230q-23 0-49 6v22q24-6 47-6 45 0 78.5 31T232-77l33 75L17 480h26zm-29 658h21l127-125h-29L259 664 151 558h-29z"/><glyph glyph-name="Ydieresis" unicode="Ÿ" horiz-adv-x="625" d="M325 0h-25v284L24 700h28l260-392 260 392h28L325 284V0zm111 835q0-9-6.5-16t-16.5-7q-9 0-16 7t-7 16q0 10 7 16.5t16 6.5q10 0 16.5-6.5T436 835zm-201 0q0-9-6.5-16t-16.5-7q-9 0-16 7t-7 16q0 10 7 16.5t16 6.5q10 0 16.5-6.5T235 835z"/><glyph glyph-name="Zacute" unicode="Ź" horiz-adv-x="569" d="M539 0H24v22l476 654H44v24h488v-22L55 24h484V0zM278 778h-28l88 133h30z"/><glyph glyph-name="zacute" unicode="ź" horiz-adv-x="443" d="M44 480h356v-20L61 22h350V0H30v20l339 438H44v22zm181 78h-28l88 133h30z"/><glyph glyph-name="Zdotaccent" unicode="Ż" horiz-adv-x="569" d="M539 0H24v22l476 654H44v24h488v-22L55 24h484V0zM258 817q0 12 8 20t20 8 20-8 8-20-8-19.5-20-7.5-20 7.5-8 19.5z"/><glyph glyph-name="zdotaccent" unicode="ż" horiz-adv-x="443" d="M44 480h356v-20L61 22h350V0H30v20l339 438H44v22zm161 117q0 12 8 20t20 8 20-8 8-20-8-19.5-20-7.5-20 7.5-8 19.5z"/><glyph glyph-name="Zcaron" unicode="Ž" horiz-adv-x="569" d="M539 0H24v22l476 654H44v24h488v-22L55 24h484V0zM425 893L298 768h-21L151 893h29l108-106 108 106h29z"/><glyph glyph-name="zcaron" unicode="ž" horiz-adv-x="443" d="M44 480h356v-20L61 22h350V0H30v20l339 438H44v22zm328 193L245 548h-21L98 673h29l108-106 108 106h29z"/><glyph glyph-name="Scommaaccent" unicode="Ș" horiz-adv-x="563" d="M59 541q0 83 64 126t154 43q114 0 198-47v-25q-39 22-93 35.5T278 686q-81 0-137.5-36.5T84 541q0-45 24-77.5t63-51.5 85.5-34.5T350 345t86-38.5 63-59 24-88.5q0-87-66.5-128.5T290-10Q157-10 52 48v25q106-59 236-59 93 0 151.5 34.5T498 158q0 47-24 81t-63 54-85.5 36-93.5 32.5-86 37.5-63 57-24 85zm219-755h-22l20 166h24z"/><glyph glyph-name="scommaaccent" unicode="ș" horiz-adv-x="452" d="M53 368q0 61 49.5 91.5T221 490q93 0 163-41v-24q-67 43-162 43-60 0-102-24.5T78 369q0-43 34.5-69.5t83-39 97.5-26 83.5-43T411 113q0-62-51-92.5T232-10q-49 0-100 13.5T49 38v24q76-50 182-50 67 0 111.5 25t44.5 75q0 43-34.5 68.5t-83.5 38-98 26-83.5 44T53 368zm180-582h-22l20 166h24z"/><glyph glyph-name="uni021A" unicode="Ț" horiz-adv-x="593" d="M15 700h563v-24H309V0h-25v676H15v24zm274-914h-22l20 166h24z"/><glyph glyph-name="uni021B" unicode="ț" horiz-adv-x="362" d="M103 638l24 8V480h214v-23H127V136q0-122 123-122 58 0 103 24V15Q311-9 245-9q-68 0-105 36.5T103 133v324H13v23h90v158zm123-852h-22l20 166h24z"/><glyph glyph-name="circumflex" unicode="ˆ" horiz-adv-x="258" d="M118 903h21l127-125h-29L129 884 21 778H-8z"/><glyph glyph-name="caron" unicode="ˇ" horiz-adv-x="258" d="M266 893L139 768h-21L-8 893h29l108-106 108 106h29z"/><glyph glyph-name="breve" unicode="˘" horiz-adv-x="316" d="M282 823q-48-41-124-41T34 823v26q52-44 124-44t124 44v-26z"/><glyph glyph-name="dotaccent" unicode="˙" horiz-adv-x="86" d="M15 817q0 12 8 20t20 8 20-8 8-20-8-19.5-20-7.5-20 7.5-8 19.5z"/><glyph glyph-name="ring" unicode="˚" horiz-adv-x="200" d="M184 840q0-36-25-59t-59-23-59.5 23T15 840t25.5 59 59.5 23 59-23 25-59zm-149 0q0-28 19.5-45.5T100 777t45 17.5 19 45.5-19 45.5-45 17.5-45.5-18T35 840z"/><glyph glyph-name="ogonek" unicode="˛" horiz-adv-x="203" d="M130 0h32Q41-85 41-149q0-28 18-44t50-17q37 1 73 20v-21q-34-20-77-20-41 0-64 21t-23 57Q18-79 130 0z"/><glyph glyph-name="tilde" unicode="˜" horiz-adv-x="308" d="M296 861q4-32-11.5-52T239 789q-28 0-87 28t-81 28q-21 0-31.5-14T32 794H10q-4 31 12 52t45 21q27 0 86.5-28t81.5-28q44 0 39 50h22z"/><glyph glyph-name="hungarumlaut" unicode="˝" horiz-adv-x="299" d="M201 778h-27l75 142h28zm-152 0H22l75 142h28z"/><glyph glyph-name="uni0326" unicode="̦" horiz-adv-x="85" d="M43-214H21L41-48h24z"/><glyph glyph-name="uni0401" unicode="Ё" horiz-adv-x="627" d="M456 835q0-9-6.5-16t-16.5-7q-9 0-16 7t-7 16q0 10 7 16.5t16 6.5q10 0 16.5-6.5T456 835zm-201 0q0-9-6.5-16t-16.5-7q-9 0-16 7t-7 16q0 10 7 16.5t16 6.5q10 0 16.5-6.5T255 835zM105 700h455v-24H130V364h400v-24H130V24h439V0H105v700z"/><glyph glyph-name="uni0410" unicode="А" horiz-adv-x="704" d="M43 0H16l322 700h29L688 0h-27l-99 215H142zm303 660L153 239h400L360 660q-3 6-7 16-4-10-7-16z"/><glyph glyph-name="uni0411" unicode="Б" horiz-adv-x="656" d="M130 395h199q49 0 87-4t76.5-17 64-34 41.5-57 16-85-16-85.5T556.5 55t-64-34T416 4t-87-4H105v700h458v-24H130V395zm0-371h200q46 0 80.5 3.5t70 14.5 58 29.5 37 50.5 14.5 76-14.5 76-37 50.5-58 29-70 14T330 371H130V24z"/><glyph glyph-name="uni0412" unicode="В" horiz-adv-x="675" d="M105 700h252q107 0 170.5-43.5T591 525q0-65-41-106t-99-51q41-7 75.5-23.5t63.5-57 29-99.5q0-48-17.5-83.5t-44.5-55-65.5-31-71.5-15T349 0H105v700zm489-510q0 50-22 85t-57.5 51-67.5 22.5-65 6.5H130V24h216q49 0 86 5.5t77.5 21 62.5 51 22 88.5zm-28 333q0 79-55.5 116T356 676H130V379h262q70 0 122 39t52 105z"/><glyph glyph-name="uni0413" unicode="Г" horiz-adv-x="571" d="M130 0h-25v700h450v-24H130V0z"/><glyph glyph-name="uni0414" unicode="Д" horiz-adv-x="742" d="M40-177H16V24h71q69 122 101.5 304T220 700h406V24h85v-201h-24V0H40v-177zm205 853q-6-426-130-652h486v652H245z"/><glyph glyph-name="uni0415" unicode="Е" horiz-adv-x="627" d="M105 700h455v-24H130V364h400v-24H130V24h439V0H105v700z"/><glyph glyph-name="uni0416" unicode="Ж" horiz-adv-x="927" d="M40 0H11l244 359L38 700h29l208-329h176v329h25V371h176l208 329h29L672 359 916 0h-29L651 347H476V0h-25v347H276z"/><glyph glyph-name="uni0417" unicode="З" horiz-adv-x="603" d="M549 187q0-52-24-91.5T461.5 34t-85-33T283-10Q142-10 44 33v25q102-45 238-44 61 0 113.5 15.5t90.5 57T524 189q0 46-22 79.5t-59 51-78 25.5-87 8H149v24h128q99 0 158.5 41.5T495 529q0 77-62.5 117T273 686q-115 1-217-45v25q94 44 219 44 105 0 175-46t70-133q0-67-47-110t-127-55q86-9 144.5-52T549 187z"/><glyph glyph-name="uni0418" unicode="И" horiz-adv-x="767" d="M662 0h-25v657L127 0h-22v700h25V44l511 656h21V0z"/><glyph glyph-name="uni0419" unicode="Й" horiz-adv-x="767" d="M637 0h25v700h-21L130 44v656h-25V0h22l510 657V0zM508 823q-48-41-124-41t-124 41v26q52-44 124-44t124 44v-26z"/><glyph glyph-name="uni041A" unicode="К" horiz-adv-x="654" d="M130 0h-25v700h25V371h216l246 329h29L367 359 649 0h-30L345 347H130V0z"/><glyph glyph-name="uni041B" unicode="Л" horiz-adv-x="729" d="M235 700h389V0h-25v676H259q-6-80-10.5-132T236 420.5t-16-118-20-101-27.5-88.5-35-64.5T93 4 38-10q-26 0-48 9v24q23-8 45-8 27 0 49 14t39.5 44 31.5 64 25 88.5 18.5 101 14.5 118 11.5 123T235 700z"/><glyph glyph-name="uni041C" unicode="М" horiz-adv-x="897" d="M773 700h19V0h-25v650L456 196h-15L130 650V0h-25v700h19l324-473z"/><glyph glyph-name="uni041D" unicode="Н" horiz-adv-x="767" d="M637 700h25V0h-25v340H130V0h-25v700h25V364h507v336z"/><glyph glyph-name="uni041E" unicode="О" horiz-adv-x="826" d="M52 350q0 67 23 129.5t66 115 114 84T413 710t158-31.5 114-84 66-115T774 350t-23-129.5-66-115-114-84T413-10 255 21.5t-114 84-66 115T52 350zm697 0q0 63-21.5 121.5t-61.5 107-106 78T413 686t-147-29.5-106-78-61.5-107T77 350t21.5-121.5 61.5-107 106-78T413 14t147 29.5 106 78 61.5 107T749 350z"/><glyph glyph-name="uni041F" unicode="П" horiz-adv-x="748" d="M130 0h-25v700h538V0h-25v676H130V0z"/><glyph glyph-name="uni0420" unicode="Р" horiz-adv-x="651" d="M105 700h217q292 0 292-217T322 266H130V0h-25v700zm484-217q0 193-266 193H130V290h193q266 0 266 193z"/><glyph glyph-name="uni0421" unicode="С" horiz-adv-x="663" d="M53 341q0 88 31.5 160t83 116.5T282 686t130 24q112 0 196-48v-25q-84 49-193 49-63 0-122-22t-107.5-63.5-78-109T78 341q0-81 29.5-145T186 93t108-59 123-20q115 0 200 50V39q-84-49-204-49-67 0-130 22T168 75.5 84.5 186 53 341z"/><glyph glyph-name="uni0422" unicode="Т" horiz-adv-x="593" d="M15 700h563v-24H309V0h-25v676H15v24z"/><glyph glyph-name="uni0423" unicode="У" horiz-adv-x="617" d="M342 159q-50-97-97.5-133T138-10Q96-10 63 0v24q33-10 72-10 51 0 90 29t79 100l12 23L13 700h27l290-510 262 510h27z"/><glyph glyph-name="uni0424" unicode="Ф" horiz-adv-x="843" d="M434-35h-25v94q-173 2-274.5 77.5T33 350t101.5 213.5T409 641v94h25v-94q173-2 274.5-77.5T810 350 708.5 136.5 434 59v-94zM58 350q0-126 93.5-196T409 82v536q-164-2-257.5-72T58 350zm376 268V82q164 2 257.5 72T785 350t-93.5 196T434 618z"/><glyph glyph-name="uni0425" unicode="Х" horiz-adv-x="606" d="M41 0H11l277 360L26 700h30l247-321 248 321h29L318 360 595 0h-29L303 340z"/><glyph glyph-name="uni0426" unicode="Ц" horiz-adv-x="760" d="M729-177h-24V0H105v700h25V24h489v676h25V24h85v-201z"/><glyph glyph-name="uni0427" unicode="Ч" horiz-adv-x="672" d="M567 0h-24v295q-119-41-232-39-125 2-193 61T50 491v209h25V490q0-105 63-156.5T315 280q115-2 228 41v379h24V0z"/><glyph glyph-name="uni0428" unicode="Ш" horiz-adv-x="1065" d="M960 0H105v700h25V24h390v676h25V24h390v676h25V0z"/><glyph glyph-name="uni0429" unicode="Щ" horiz-adv-x="1077" d="M1046-177h-24V0H105v700h25V24h390v676h25V24h390v676h25V24h86v-201z"/><glyph glyph-name="uni042A" unicode="Ъ" horiz-adv-x="748" d="M420 0H203v676H15v24h212V434h193q291 0 291-217T420 0zM227 410V24h193q266 0 266 193T420 410H227z"/><glyph glyph-name="uni042B" unicode="Ы" horiz-adv-x="830" d="M322 0H105v700h25V434h192q292 0 292-217T322 0zM130 410V24h193q266 0 266 193T323 410H130zM725 0h-25v700h25V0z"/><glyph glyph-name="uni042C" unicode="Ь" horiz-adv-x="651" d="M322 0H105v700h25V434h192q292 0 292-217T322 0zM130 410V24h193q266 0 266 193T323 410H130z"/><glyph glyph-name="uni042D" unicode="Э" horiz-adv-x="658" d="M50 662q84 48 196 48 67 0 130-23.5T490.5 619t83-115T605 345q0-89-31.5-159T490 74.5t-115-63T245-10Q134-10 50 39v25q86-50 192-50 63 0 121.5 19.5t107 57.5T549 193t31 145H171v24h408q-3 103-54 178.5T400.5 651 243 686q-111 0-193-49v25z"/><glyph glyph-name="uni042E" unicode="Ю" horiz-adv-x="1076" d="M1024 350q0-66-23-129.5T934.5 105t-114-83.5T663-10q-85 0-155 30.5T395 101t-67 111-26 126H130V0h-25v700h25V362h172q2 65 26 126t67 111 113 80.5T663 710q87 0 157.5-31.5t114-83.5 66.5-115.5 23-129.5zm-698 0q0-63 21.5-121.5t61.5-107 106-78T662 14t147 29.5 106 78 61.5 107T998 350t-21.5 121.5-61.5 107-106 78T662 686t-147-29.5-106-78-61.5-107T326 350z"/><glyph glyph-name="uni042F" unicode="Я" horiz-adv-x="677" d="M69 0H39l218 279q-88 14-141 67T63 487q0 102 72 157.5T319 700h253V0h-25v274H319q-23 0-35 1zm20 487q0-91 64-140t166-49h228v378H319q-102 0-166-49T89 487z"/><glyph glyph-name="uni0430" unicode="а" horiz-adv-x="540" d="M444 70q0-49 52-49 20 0 37 7V7q-21-8-42-8-30 0-50.5 17T420 69v36q-34-55-92-85T203-10 88 25.5 40 127q0 77 60 114t146 37 174-30v52q0 78-44.5 123T247 468q-89 0-170-30v24q80 28 171 28 94 0 145-51t51-141V70zM64 128q0-56 42-86.5T207 11q66 0 124 33t89 93v89q-85 30-172 30-78 0-131-31t-53-97z"/><glyph glyph-name="uni0431" unicode="б" horiz-adv-x="590" d="M541 224q0-105-66-169.5T301-10q-111 0-179 76T54 262q0 112 42.5 198.5T207 589q57 35 116.5 52T424 670t68 40v-27q-27-25-67.5-36.5t-96-27.5T221 571Q102 497 78 309q27 71 89.5 111T306 460q101 0 168-66.5T541 224zM78 255q0-105 61.5-173.5T301 13q97 0 156.5 58.5T517 224q0 93-59.5 153T304 437q-80 0-143.5-47.5T78 255z"/><glyph glyph-name="uni0432" unicode="в" horiz-adv-x="541" d="M337 0H84v480h241q69 0 107-33t38-90q0-42-21.5-71.5T386 246q103-20 103-121 0-61-42-93T337 0zM108 233V22h226q60 0 95.5 25.5T465 126q0 56-35 81.5T339 233H108zm0 225V255h218q59 0 89.5 26.5T446 356t-32 75-92 27H108z"/><glyph glyph-name="uni0433" unicode="г" horiz-adv-x="436" d="M108 0H84v480h337v-23H108V0z"/><glyph glyph-name="uni0434" unicode="д" horiz-adv-x="601" d="M46-138H22V22h61q49 101 71.5 205.5T177 480h323V22h69v-160h-24V0H46v-138zm155 596q-1-137-23.5-237T109 22h368v436H201z"/><glyph glyph-name="uni0435" unicode="е" horiz-adv-x="543" d="M49 240q0 115 69.5 182.5T283 490q63 0 110-25t70.5-65 32-85 1.5-89H73q3-107 71.5-160.5T313 12q90 0 155 38V26q-62-36-158-36-111 0-186 63T49 240zm427 8q5 51-10.5 99T403 431.5 284 468q-86 0-147.5-58.5T73 248h403z"/><glyph glyph-name="uni0436" unicode="ж" horiz-adv-x="709" d="M698 0h-28L460 236h-93V0h-24v236h-94L39 0H11l217 247L39 480h29l181-221h94v221h24V259h93l182 221h28L481 247z"/><glyph glyph-name="uni0437" unicode="з" horiz-adv-x="464" d="M412 126q0-69-56.5-102.5T214-10q-97 0-171 34v23q77-35 169-35 74 0 125 28t51 88q0 49-38.5 77T265 233H143v22h122q113 11 113 99 0 56-47.5 85T212 468q-82 0-163-34v23q84 34 164 34 83 0 136-35t53-100q0-44-25.5-73T305 246q43-10 75-41.5t32-78.5z"/><glyph glyph-name="uni0438" unicode="и" horiz-adv-x="584" d="M107 0H84v480h24V37l369 443h23V0h-24v443z"/><glyph glyph-name="uni0439" unicode="й" horiz-adv-x="584" d="M416 604q-49-41-124-41t-124 41v25q52-44 124-44t124 44v-25zM107 0H84v480h24V37l369 443h23V0h-24v443z"/><glyph glyph-name="uni043A" unicode="к" horiz-adv-x="495" d="M108 0H84v480h24V260h131l190 220h29L258 247 486 0h-29L237 237H108V0z"/><glyph glyph-name="uni043B" unicode="л" horiz-adv-x="583" d="M206 457q-8-229-45-346T47-6Q27-6 6 1v21q16-6 36-6 67 0 100 116.5T182 480h317V0h-24v457H206z"/><glyph glyph-name="uni043C" unicode="м" horiz-adv-x="662" d="M107 0H84v480h26l221-308 220 308h27V0h-24v444L339 143h-17L107 444V0z"/><glyph glyph-name="uni043D" unicode="н" horiz-adv-x="576" d="M108 0H84v480h24V251h360v229h24V0h-24v229H108V0z"/><glyph glyph-name="uni043E" unicode="о" horiz-adv-x="592" d="M49 240q0 115 72.5 182.5T296 490q103 0 175-67.5T543 240 471 57.5 296-10q-102 0-174.5 67.5T49 240zm470 0q0 105-64.5 166T296 467t-158.5-61T73 240t64.5-166T296 13t158.5 61T519 240z"/><glyph glyph-name="uni043F" unicode="п" horiz-adv-x="576" d="M108 0H84v480h408V0h-24v457H108V0z"/><glyph glyph-name="uni0440" unicode="р" horiz-adv-x="613" d="M106 355q31 60 89 97.5T326 490q104 0 171-68t67-182-67-182-171-68q-73 0-131 37.5T108 123v-343H84v700h22V355zm434-115q0 105-60.5 166.5T324 468q-76 0-134.5-44T108 313V167q23-67 81.5-111T324 12q95 0 155.5 61.5T540 240z"/><glyph glyph-name="uni0441" unicode="с" horiz-adv-x="497" d="M49 236q0 64 22.5 114.5t60 80 82 44.5 93.5 15q83 0 140-39v-23q-58 40-138 40-97 0-166.5-59T73 236q0-108 65.5-166T297 12q87 0 155 39V27q-67-37-157-37-101 0-173.5 63T49 236z"/><glyph glyph-name="uni0442" unicode="т" horiz-adv-x="451" d="M237 0h-24v457H14v23h423v-23H237V0z"/><glyph glyph-name="uni0443" unicode="у" horiz-adv-x="530" d="M277 25l204 455h26L252-88q-34-77-72-109.5T93-230q-23 0-49 6v22q24-6 47-6 45 0 78.5 31T232-77l33 75L17 480h26z"/><glyph glyph-name="uni0444" unicode="ф" horiz-adv-x="696" d="M360-220h-24v210Q210-8 129 58T48 240t81 182 207 68v210h24V490q126-2 207-68t81-182-81-182-207-68v-210zM72 240q0-106 73.5-166T336 12v456q-117-2-190.5-62T72 240zm288 228V12q117 2 190.5 62T624 240t-73.5 166T360 468z"/><glyph glyph-name="uni0445" unicode="х" horiz-adv-x="482" d="M426 480h28L256 246 465 0h-29L241 229 46 0H17l210 246L28 480h29l184-216z"/><glyph glyph-name="uni0446" unicode="ц" horiz-adv-x="589" d="M557-138h-23V0H84v480h24V23h357v457h24V23h68v-161z"/><glyph glyph-name="uni0447" unicode="ч" horiz-adv-x="516" d="M432 0h-24v185q-74-32-167-32-91 0-143 42.5T46 324v156h24V326q0-76 46-113t129-37q93 0 163 31v273h24V0z"/><glyph glyph-name="uni0448" unicode="ш" horiz-adv-x="806" d="M722 0H84v480h24V23h283v457h24V23h283v457h24V0z"/><glyph glyph-name="uni0449" unicode="щ" horiz-adv-x="822" d="M790-138h-23V0H84v480h24V23h283v457h24V23h283v457h24V23h68v-161z"/><glyph glyph-name="uni044A" unicode="ъ" d="M177 296h184q81 0 130-41.5T540 148 491 41.5 361 0H153v458H15v22h162V296zm0-274h182q72 0 114.5 35t42.5 91-43 91-114 35H177V22z"/><glyph glyph-name="uni044B" unicode="ы" horiz-adv-x="677" d="M292 0H84v480h24V296h184q81 0 130-41.5T471 148 422 41.5 292 0zM108 274V22h182q72 0 114.5 35t42.5 91-43 91-114 35H108zM593 0h-24v480h24V0z"/><glyph glyph-name="uni044C" unicode="ь" horiz-adv-x="505" d="M292 0H84v480h24V296h184q81 0 130-41.5T471 148 422 41.5 292 0zM108 274V22h182q72 0 114.5 35t42.5 91-43 91-114 35H108z"/><glyph glyph-name="uni044D" unicode="э" horiz-adv-x="503" d="M454 235q0-123-71.5-184T210-10q-89 0-165 42v23q76-43 161-43 60 0 108.5 20.5t81.5 71T430 229H139v22h291q-5 106-74 161.5T194 468q-79 0-144-44v23q64 43 145 43 67 0 123.5-25.5t96-85T454 235z"/><glyph glyph-name="uni044E" unicode="ю" horiz-adv-x="799" d="M750 240q0-115-72.5-182.5T502-10q-99 0-170.5 64.5T256 229H108V0H84v480h24V251h148q4 110 75.5 174.5T502 490q103 0 175.5-67.5T750 240zm-471 0q0-105 64.5-166T502 13t158.5 61T725 240t-64.5 166T502 467t-158.5-61T279 240z"/><glyph glyph-name="uni044F" unicode="я" horiz-adv-x="538" d="M65 0H37l148 196q-60 12-94 49.5T57 336q0 64 48.5 104T235 480h219V0h-24v192H235q-17 0-25 1zm16 336q0-55 42-88.5T236 214h194v244H236q-72 0-113.5-33.5T81 336z"/><glyph glyph-name="uni0451" unicode="ё" horiz-adv-x="543" d="M405 615q0-9-6.5-16t-16.5-7q-9 0-16 7t-7 16q0 10 7 16.5t16 6.5q10 0 16.5-6.5T405 615zm-201 0q0-9-6.5-16t-16.5-7q-9 0-16 7t-7 16q0 10 7 16.5t16 6.5q10 0 16.5-6.5T204 615zM49 240q0 115 69.5 182.5T283 490q63 0 110-25t70.5-65 32-85 1.5-89H73q3-107 71.5-160.5T313 12q90 0 155 38V26q-62-36-158-36-111 0-186 63T49 240zm427 8q5 51-10.5 99T403 431.5 284 468q-86 0-147.5-58.5T73 248h403z"/><glyph glyph-name="Wgrave" unicode="Ẁ" horiz-adv-x="987" d="M931 700h28L735 0h-27L493 651 279 0h-27L28 700h27L265 34l217 658h23L721 34zm-405 78h-28l-90 133h30z"/><glyph glyph-name="wgrave" unicode="ẁ" horiz-adv-x="798" d="M746 480h25L587 0h-24L399 441 236 0h-24L27 480h26L224 31l163 441h24L575 31zm-314 78h-28l-90 133h30z"/><glyph glyph-name="Wacute" unicode="Ẃ" horiz-adv-x="987" d="M931 700h28L735 0h-27L493 651 279 0h-27L28 700h27L265 34l217 658h23L721 34zm-447 78h-28l88 133h30z"/><glyph glyph-name="wacute" unicode="ẃ" horiz-adv-x="798" d="M746 480h25L587 0h-24L399 441 236 0h-24L27 480h26L224 31l163 441h24L575 31zm-356 78h-28l88 133h30z"/><glyph glyph-name="Wdieresis" unicode="Ẅ" horiz-adv-x="987" d="M931 700h28L735 0h-27L493 651 279 0h-27L28 700h27L265 34l217 658h23L721 34zM616 835q0-9-6.5-16t-16.5-7q-9 0-16 7t-7 16q0 10 7 16.5t16 6.5q10 0 16.5-6.5T616 835zm-201 0q0-9-6.5-16t-16.5-7q-9 0-16 7t-7 16q0 10 7 16.5t16 6.5q10 0 16.5-6.5T415 835z"/><glyph glyph-name="wdieresis" unicode="ẅ" horiz-adv-x="798" d="M746 480h25L587 0h-24L399 441 236 0h-24L27 480h26L224 31l163 441h24L575 31zM522 615q0-9-6.5-16t-16.5-7q-9 0-16 7t-7 16q0 10 7 16.5t16 6.5q10 0 16.5-6.5T522 615zm-201 0q0-9-6.5-16t-16.5-7q-9 0-16 7t-7 16q0 10 7 16.5t16 6.5q10 0 16.5-6.5T321 615z"/><glyph glyph-name="Ygrave" unicode="Ỳ" horiz-adv-x="625" d="M325 0h-25v284L24 700h28l260-392 260 392h28L325 284V0zm21 778h-28l-90 133h30z"/><glyph glyph-name="ygrave" unicode="ỳ" horiz-adv-x="530" d="M277 25l204 455h26L252-88q-34-77-72-109.5T93-230q-23 0-49 6v22q24-6 47-6 45 0 78.5 31T232-77l33 75L17 480h26zm14 533h-28l-90 133h30z"/><glyph glyph-name="endash" unicode="–" horiz-adv-x="567" d="M496 231H71v23h425v-23z"/><glyph glyph-name="emdash" unicode="—" horiz-adv-x="749" d="M678 231H71v23h607v-23z"/><glyph glyph-name="quoteleft" unicode="‘" horiz-adv-x="181" d="M84 486H59l54 214h21z"/><glyph glyph-name="quoteright" unicode="’" horiz-adv-x="180" d="M81 486H60l50 214h25z"/><glyph glyph-name="quotesinglbase" unicode="‚" horiz-adv-x="170" d="M53-142H32L82 72h25z"/><glyph glyph-name="quotedblleft" unicode="“" horiz-adv-x="305" d="M208 486h-25l54 214h21zm-124 0H59l54 214h21z"/><glyph glyph-name="quotedblright" unicode="”" horiz-adv-x="304" d="M205 486h-21l50 214h25zm-124 0H60l50 214h25z"/><glyph glyph-name="quotedblbase" unicode="„" horiz-adv-x="294" d="M177-142h-21l50 214h25zm-124 0H32L82 72h25z"/><glyph glyph-name="dagger" unicode="†" horiz-adv-x="482" d="M253-220h-24v676H36v24h193v220h24V480h193v-24H253v-676z"/><glyph glyph-name="daggerdbl" unicode="‡" horiz-adv-x="514" d="M269-220h-25v339H52v24h192v313H52v24h192v220h25V480h193v-24H269V143h193v-24H269v-339z"/><glyph glyph-name="bullet" unicode="•" horiz-adv-x="280" d="M99 350q0 18 11.5 29t28.5 11 29-11 12-29-12-29-29-11-28.5 11T99 350z"/><glyph glyph-name="ellipsis" unicode="…" horiz-adv-x="437" d="M374 16q0-10-6.5-16T351-6q-9 0-15.5 6.5T329 16t6.5 15.5T351 38q10 0 16.5-6t6.5-16zm-267 0q0-10-6.5-16T85-6 69 .5 62 16t7 15.5T85 38t15.5-6 6.5-16zm134 0q0-10-6.5-16T219-6 203 .5 196 16t7 15.5 16 6.5 15.5-6 6.5-16z"/><glyph glyph-name="perthousand" unicode="‰" horiz-adv-x="1237" d="M244-60h-25l409 820h25zm87 627q0-68-42.5-105.5T184 424q-61 0-104.5 37.5T36 567t43.5 105.5T184 710q62 0 104.5-37.5T331 567zm-272 0q0-56 36-88.5t89-32.5 88.5 32.5T308 567t-35.5 88.5T184 688t-89-32.5T59 567zm777-434q0-68-43-105.5T689-10q-62 0-105 37.5T541 133t43 105.5T689 276q61 0 104-37.5T836 133zm-272 0q0-56 36-88.5T689 12t88.5 32.5T813 133t-35.5 88.5T689 254t-89-32.5-36-88.5zm637 0q0-68-43-105.5T1054-10q-62 0-105 37.5T906 133t43 105.5 105 37.5q61 0 104-37.5t43-105.5zm-272 0q0-56 36-88.5t89-32.5 88.5 32.5T1178 133t-35.5 88.5T1054 254t-89-32.5-36-88.5z"/><glyph glyph-name="guilsinglleft" unicode="‹" horiz-adv-x="265" d="M197 69h-27L52 236v8l118 167h27L76 240z"/><glyph glyph-name="guilsinglright" unicode="›" horiz-adv-x="265" d="M95 69H68l121 171L68 411h27l118-167v-8z"/><glyph glyph-name="fraction" unicode="⁄" horiz-adv-x="162" d="M-140-11h-17l456 721h17z"/><glyph glyph-name="Euro" unicode="€" horiz-adv-x="741" d="M671 39q-84-49-195-49-122 0-219 69T134 256H47v22h84q-5 30-5 58 0 34 6 66H47v22h89q27 125 124 195.5T476 690q111 0 195-48v-25q-84 49-193 49-110 0-199.5-64T162 424h395v-22H157q-6-32-6-66 0-28 5-58h401v-22H160q25-117 115.5-179.5T480 14q106 0 191 50V39z"/><glyph glyph-name="trademark" unicode="™" horiz-adv-x="655" d="M323 449h-18v251h20l113-157 114 157h19V449h-17v225L444 522h-12L323 674V449zm-165 0h-18v234H47v17h204v-17h-93V449z"/><glyph glyph-name="oneeighth" unicode="⅛" horiz-adv-x="897" d="M553 315q0 41 37.5 70T697 414q66 0 105-31.5t40-73.5q0-73-68-113 83-32 83-97 0-43-41.5-74T698-6q-77 0-118.5 32.5T538 109q0 80 80 118-65 31-65 88zm146-116q-39 10-62 19-36-16-56.5-44.5T560 112q0-44 35.5-71T698 14q64 0 100.5 24.5T835 98q0 18-8.5 33T808 155.5 775.5 174 740 187t-41 12zm121 106q0 36-33 62.5T697 394t-89.5-23-32.5-56q0-18 9-33t18.5-23.5 31-17.5 30.5-11.5 33-9.5q5-1 25.5-7t31.5-9q66 35 66 101zM197-11h-17l456 721h17zm-36 691h16V293h78v-21H52v21h103v363l-93-35v21z"/><glyph glyph-name="threeeighths" unicode="⅜" horiz-adv-x="952" d="M607 315q0 41 37.5 70T751 414q66 0 105-31.5t40-73.5q0-73-68-113 83-32 83-97 0-43-41.5-74T752-6q-77 0-118.5 32.5T592 109q0 80 80 118-65 31-65 88zm146-116q-39 10-62 19-36-16-56.5-44.5T614 112q0-44 35.5-71T752 14q64 0 100.5 24.5T889 98q0 18-8.5 33T862 155.5 829.5 174 794 187t-41 12zm121 106q0 36-33 62.5T751 394t-89.5-23-32.5-56q0-18 9-33t18.5-23.5 31-17.5 30.5-11.5 33-9.5q5-1 25.5-7t31.5-9q66 35 66 101zM261-11h-17l456 721h17zm61 593q0-34-19.5-59.5T245 489q94-19 94-105 0-54-38.5-84T200 270q-87 0-142 26v22q57-27 141-27 54 0 86.5 24.5T318 385q0 47-33.5 69T198 476h-60v21h58q52 0 78.5 24.5T301 581q0 38-30 63t-82 25q-65 0-124-27v22q55 26 126 26 60 0 95.5-31t35.5-77z"/><glyph glyph-name="fiveeighths" unicode="⅝" horiz-adv-x="941" d="M596 315q0 41 37.5 70T740 414q66 0 105-31.5t40-73.5q0-73-68-113 83-32 83-97 0-43-41.5-74T741-6q-77 0-118.5 32.5T581 109q0 80 80 118-65 31-65 88zm146-116q-39 10-62 19-36-16-56.5-44.5T603 112q0-44 35.5-71T741 14q64 0 100.5 24.5T878 98q0 18-8.5 33T851 155.5 818.5 174 783 187t-41 12zm121 106q0 36-33 62.5T740 394t-89.5-23-32.5-56q0-18 9-33t18.5-23.5 31-17.5 30.5-11.5 33-9.5q5-1 25.5-7t31.5-9q66 35 66 101zM250-11h-17l456 721h17zM78 680h235v-21H100L89 495q45 15 94 15 64 0 107-30.5t43-91.5q0-55-41-88.5T185 266q-76 0-130 27v21q57-27 128-27 58 0 93 27.5t35 73.5q0 52-37.5 76.5T176 489q-56 0-111-19z"/><glyph glyph-name="seveneighths" unicode="⅞" horiz-adv-x="833" d="M140-11h-17l456 721h17zm347 326q0 41 37.5 70T631 414q66 0 105-31.5t40-73.5q0-73-68-113 83-32 83-97 0-43-41.5-74T632-6q-77 0-118.5 32.5T472 109q0 80 80 118-65 31-65 88zm146-116q-39 10-62 19-36-16-56.5-44.5T494 112q0-44 35.5-71T632 14q64 0 100.5 24.5T769 98q0 18-8.5 33T742 155.5 709.5 174 674 187t-41 12zm121 106q0 36-33 62.5T631 394t-89.5-23-32.5-56q0-18 9-33t18.5-23.5 31-17.5 30.5-11.5 33-9.5q5-1 25.5-7t31.5-9q66 35 66 101zm-618-33h-24l170 387H38v21h269v-19z"/><glyph glyph-name="partialdiff" unicode="∂" horiz-adv-x="595" d="M537 266q0-126-67.5-201T291-10q-106 0-174 64T49 224q0 98 68 161.5T282 449q83 0 149.5-49T514 260v24q-4 127-62.5 218t-149 133T101 677v23q88 0 166-27.5T405.5 592t96-137T537 266zM73 224q0-96 60.5-153.5T291 13q87 0 143.5 50T507 200q-2 108-68 167t-155 59q-88 0-149.5-56.5T73 224z"/><glyph glyph-name="emptyset" unicode="∅" horiz-adv-x="822" d="M721 700l-70-81q57-50 89-120.5T772 350q0-148-106-254T412-10q-129 0-230 82L121 0h-19l70 82q-57 51-89 120.5T51 350q0 149 106 254.5T412 710q128 0 228-82l62 72h19zm-309-6q-142 0-243-101T68 350q0-75 30.5-141.5T183 94l447 521q-97 79-218 79zM194 85Q291 6 412 6q142 0 243 101t101 243q0 75-30.5 141.5T641 606z"/><glyph glyph-name="product" unicode="∏" horiz-adv-x="722" d="M165-220h-25v896H37v24h648v-24H582v-896h-25v896H165v-896z"/><glyph glyph-name="summation" unicode="∑" horiz-adv-x="562" d="M507 0H40v16l291 334L40 684v16h462v-24H79l280-322v-8L79 24h428V0z"/><glyph glyph-name="minus" unicode="−" horiz-adv-x="512" d="M438 337H74v24h364v-24z"/><glyph glyph-name="radical" unicode="√" horiz-adv-x="713" d="M342 0h-23L126 456H32v24h109L331 29l351 751h27z"/><glyph glyph-name="infinity" unicode="∞" horiz-adv-x="823" d="M411 378q22 35 37.5 55.5T488 478t53 35.5 63 11.5q68 0 114.5-45.5T765 358t-46.5-121.5T604 191q-34 0-63 11.5T488 238t-39.5 44.5T411 338q-22-35-37-55.5T334.5 238t-53-35.5T219 191q-68 0-114.5 45.5T58 358t46.5 121.5T219 525q64 0 106-38t86-109zm-13-20q-22 36-36 55t-36.5 43-48 35-56.5 11q-59 0-99-38.5T82 358t40-105.5 99-38.5q31 0 56.5 11t48 35 36.5 43 36 55zm343 0q0 67-40 105.5T602 502q-31 0-56.5-11t-48-35-36.5-43-36-55q22-36 36-55t36.5-43 48-35 56.5-11q59 0 99 38.5T741 358z"/><glyph glyph-name="integral" unicode="∫" horiz-adv-x="389" d="M183 661q0 67 38 98t90 31q41 0 67-13v-23q-29 13-65 13-44 0-75-25t-31-81v-762q0-67-38.5-98T78-230q-37 0-67 13v23q29-13 64-13 45 0 76.5 25t31.5 81v762z"/><glyph glyph-name="approxequal" unicode="≈" horiz-adv-x="577" d="M503 466q0-36-22.5-59T420 384q-37 0-129 35t-128 35q-29 0-45.5-16.5T102 394H79q-1 37 21.5 60t60.5 23 129.5-35T418 407q29 0 45.5 16t16.5 43h23zm0-142q0-36-22.5-59.5T420 241q-37 0-129 35t-128 35q-29 0-45.5-16T102 252H79q-1 36 21.5 59t60.5 23 129.5-35T418 264q29 0 45.5 16.5T480 324h23z"/><glyph glyph-name="notequal" unicode="≠" horiz-adv-x="537" d="M150 146h-23l65 102H74v23h132l101 158H74v23h247l65 102h24l-65-102h118v-23H331L230 271h233v-23H215z"/><glyph glyph-name="lessequal" unicode="≤" horiz-adv-x="520" d="M434 205v-24L78 342v26l356 161v-25L103 355zm0-205H78v23h356V0z"/><glyph glyph-name="greaterequal" unicode="≥" horiz-adv-x="520" d="M442 342L86 181v24l331 150L86 504v25l356-161v-26zm0-342H86v23h356V0z"/><glyph glyph-name="lozenge" unicode="◊" horiz-adv-x="540" d="M284 0h-27L40 350l217 350h27l216-350zM68 350L271 24l202 326-202 326z"/><glyph glyph-name="i.loclTRK" horiz-adv-x="198" d="M87 480h24V0H87v480zM70 597q0 12 8 20t20 8 20-8 8-20-8-19.5-20-7.5-20 7.5-8 19.5z"/><glyph glyph-name="a.ss01" horiz-adv-x="613" d="M507 125q-29-60-86-97.5T291-10q-104 0-173 68.5T49 240t69 181.5T291 490q73 0 130-37.5t86-97.5v125h22V0h-22v125zM73 240q0-104 63-166t157-62q76 0 133 44t79 111v146q-22 67-79 111t-133 44q-95 0-157.5-62T73 240z"/><glyph glyph-name="aacute.ss01" horiz-adv-x="613" d="M507 125q-29-60-86-97.5T291-10q-104 0-173 68.5T49 240t69 181.5T291 490q73 0 130-37.5t86-97.5v125h22V0h-22v125zM73 240q0-104 63-166t157-62q76 0 133 44t79 111v146q-22 67-79 111t-133 44q-95 0-157.5-62T73 240zm224 318h-28l88 133h30z"/><glyph glyph-name="abreve.ss01" horiz-adv-x="613" d="M507 125q-29-60-86-97.5T291-10q-104 0-173 68.5T49 240t69 181.5T291 490q73 0 130-37.5t86-97.5v125h22V0h-22v125zM73 240q0-104 63-166t157-62q76 0 133 44t79 111v146q-22 67-79 111t-133 44q-95 0-157.5-62T73 240zm357 363q-48-41-124-41t-124 41v26q52-44 124-44t124 44v-26z"/><glyph glyph-name="acircumflex.ss01" horiz-adv-x="613" d="M507 125q-29-60-86-97.5T291-10q-104 0-173 68.5T49 240t69 181.5T291 490q73 0 130-37.5t86-97.5v125h22V0h-22v125zM73 240q0-104 63-166t157-62q76 0 133 44t79 111v146q-22 67-79 111t-133 44q-95 0-157.5-62T73 240zm223 443h21l127-125h-29L307 664 199 558h-29z"/><glyph glyph-name="adieresis.ss01" horiz-adv-x="613" d="M507 125q-29-60-86-97.5T291-10q-104 0-173 68.5T49 240t69 181.5T291 490q73 0 130-37.5t86-97.5v125h22V0h-22v125zM73 240q0-104 63-166t157-62q76 0 133 44t79 111v146q-22 67-79 111t-133 44q-95 0-157.5-62T73 240zm356 375q0-9-6.5-16t-16.5-7q-9 0-16 7t-7 16q0 10 7 16.5t16 6.5q10 0 16.5-6.5T429 615zm-201 0q0-9-6.5-16t-16.5-7q-9 0-16 7t-7 16q0 10 7 16.5t16 6.5q10 0 16.5-6.5T228 615z"/><glyph glyph-name="agrave.ss01" horiz-adv-x="613" d="M507 125q-29-60-86-97.5T291-10q-104 0-173 68.5T49 240t69 181.5T291 490q73 0 130-37.5t86-97.5v125h22V0h-22v125zM73 240q0-104 63-166t157-62q76 0 133 44t79 111v146q-22 67-79 111t-133 44q-95 0-157.5-62T73 240zm266 318h-28l-90 133h30z"/><glyph glyph-name="amacron.ss01" horiz-adv-x="613" d="M507 125q-29-60-86-97.5T291-10q-104 0-173 68.5T49 240t69 181.5T291 490q73 0 130-37.5t86-97.5v125h22V0h-22v125zM73 240q0-104 63-166t157-62q76 0 133 44t79 111v146q-22 67-79 111t-133 44q-95 0-157.5-62T73 240zm107 374h252v-23H180v23z"/><glyph glyph-name="aogonek.ss01" horiz-adv-x="613" d="M529 480V0q-55-45-84-81t-29-72q0-27 16.5-42t43.5-15q26 0 53 11v-21q-27-11-57-11-36 0-57.5 19.5T393-157q0 72 114 166v116q-29-60-86-97.5T291-10q-104 0-173 68.5T49 240t69 181.5T291 490q73 0 130-37.5t86-97.5v125h22zM293 12q76 0 133 44t79 111v146q-22 67-79 111t-133 44q-95 0-157.5-62T73 240t63-166 157-62z"/><glyph glyph-name="aring.ss01" horiz-adv-x="613" d="M507 125q-29-60-86-97.5T291-10q-104 0-173 68.5T49 240t69 181.5T291 490q73 0 130-37.5t86-97.5v125h22V0h-22v125zM73 240q0-104 63-166t157-62q76 0 133 44t79 111v146q-22 67-79 111t-133 44q-95 0-157.5-62T73 240zm317 380q0-36-25-59t-59-23-59.5 23-25.5 59 25.5 59 59.5 23 59-23 25-59zm-149 0q0-28 19.5-45.5T306 557t45 17.5 19 45.5-19 45.5-45 17.5-45.5-18-19.5-45z"/><glyph glyph-name="atilde.ss01" horiz-adv-x="613" d="M507 125q-29-60-86-97.5T291-10q-104 0-173 68.5T49 240t69 181.5T291 490q73 0 130-37.5t86-97.5v125h22V0h-22v125zM73 240q0-104 63-166t157-62q76 0 133 44t79 111v146q-22 67-79 111t-133 44q-95 0-157.5-62T73 240zm377 401q4-32-11.5-52T393 569q-28 0-87 28t-81 28q-21 0-31.5-14t-7.5-37h-22q-4 31 12 52t45 21q27 0 86.5-28t81.5-28q44 0 39 50h22z"/><glyph glyph-name="ae.ss01" horiz-adv-x="1004" d="M507 125q-29-60-86-97.5T291-10q-104 0-173 68.5T49 240t69 181.5T291 490q73 0 130-37.5t86-97.5v125h22V334q24 74 83 115t132 41q63 0 109.5-25t69.5-65.5 31-86.5 1-92H531q4-104 72-156.5T771 12q90 0 155 38V27q-65-37-156-37-85 0-150.5 38.5T529 144V0h-22v125zM73 240q0-104 63-166t157-62q76 0 133 44t79 111v146q-22 67-79 111t-133 44q-95 0-157.5-62T73 240zm669 228q-87 0-148-59.5T531 243h403q4 39-5 77t-29.5 72-61.5 55-96 21z"/><glyph glyph-name="y.ss01" d="M490-8q-1-113-70-167.5T257-230q-99 0-160 36v23q63-37 158-37 87 0 149 49T466-8v114q-30-46-82-81T263-10q-82 0-134 52.5T77 185v295h24V187q0-83 45.5-129T265 12q70 0 121 38t80 91v339h24V-8z"/><glyph glyph-name="yacute.ss01" d="M490-8q-1-113-70-167.5T257-230q-99 0-160 36v23q63-37 158-37 87 0 149 49T466-8v114q-30-46-82-81T263-10q-82 0-134 52.5T77 185v295h24V187q0-83 45.5-129T265 12q70 0 121 38t80 91v339h24V-8zM282 558h-28l88 133h30z"/><glyph glyph-name="ycircumflex.ss01" d="M490-8q-1-113-70-167.5T257-230q-99 0-160 36v23q63-37 158-37 87 0 149 49T466-8v114q-30-46-82-81T263-10q-82 0-134 52.5T77 185v295h24V187q0-83 45.5-129T265 12q70 0 121 38t80 91v339h24V-8zM281 683h21l127-125h-29L292 664 184 558h-29z"/><glyph glyph-name="ydieresis.ss01" d="M490-8q-1-113-70-167.5T257-230q-99 0-160 36v23q63-37 158-37 87 0 149 49T466-8v114q-30-46-82-81T263-10q-82 0-134 52.5T77 185v295h24V187q0-83 45.5-129T265 12q70 0 121 38t80 91v339h24V-8zm-76 623q0-9-6.5-16t-16.5-7q-9 0-16 7t-7 16q0 10 7 16.5t16 6.5q10 0 16.5-6.5T414 615zm-201 0q0-9-6.5-16t-16.5-7q-9 0-16 7t-7 16q0 10 7 16.5t16 6.5q10 0 16.5-6.5T213 615z"/><glyph glyph-name="ygrave.ss01" d="M490-8q-1-113-70-167.5T257-230q-99 0-160 36v23q63-37 158-37 87 0 149 49T466-8v114q-30-46-82-81T263-10q-82 0-134 52.5T77 185v295h24V187q0-83 45.5-129T265 12q70 0 121 38t80 91v339h24V-8zM324 558h-28l-90 133h30z"/><glyph glyph-name="f_b" horiz-adv-x="952" d="M447 357q29 58 87 95.5T665 490q104 0 171-68t67-182-67-182-171-68q-73 0-131 37.5T445 125V0h-22v648q-70 40-153 40-63 0-101.5-35T130 556v-76h195v-23H130V0h-24v457H24v23h82v76q0 74 46.5 114T269 710q84 0 154-39v25l24 8V357zm0-190q23-67 81.5-111T663 12q95 0 155.5 61.5T879 240t-60.5 166.5T663 468q-76 0-134.5-44T447 313V167z"/><glyph glyph-name="f_f_b" horiz-adv-x="1262" d="M757 357q29 58 87 95.5T975 490q104 0 171-68t67-182-67-182-171-68q-73 0-131 37.5T755 125V0h-22v650q-70 40-153 40-64 0-102-35.5T440 556v-76h195v-23H440V0h-24v457H130V0h-24v457H24v23h82v58q0 75 47.5 114.5T277 692q83 0 160-53 39 73 142 73 84 0 154-39v25l24 8V357zM416 480v76q0 37 12 64-73 50-150 50-69 0-108.5-35T130 538v-58h286zm341-313q23-67 81.5-111T973 12q95 0 155.5 61.5T1189 240t-60.5 166.5T973 468q-76 0-134.5-44T757 313V167z"/><glyph glyph-name="f_f_h" horiz-adv-x="1223" d="M757 374q30 46 82 81t121 35q80 0 133-52.5t53-142.5V0h-24v293q0 82-46 128.5T958 468q-70 0-121-38t-80-91V0h-24v650q-70 40-153 40-64 0-102-35.5T440 556v-76h195v-23H440V0h-24v457H130V0h-24v457H24v23h82v58q0 75 47.5 114.5T277 692q83 0 160-53 39 73 142 73 84 0 154-39v25l24 8V374zM416 480v76q0 37 12 64-73 50-150 50-69 0-108.5-35T130 538v-58h286z"/><glyph glyph-name="f_f_j" horiz-adv-x="834" d="M747-116q0-61-33.5-87.5T631-230q-37 0-68 11v23q33-12 64-12 42 0 69 22t27 72v571H440V0h-24v457H130V0h-24v457H24v23h82v58q0 75 47.5 114.5T277 692q82 0 158-52 42 72 144 72 83 0 157-45v-25q-75 48-156 48-63 0-101.5-34T440 564v-84h307v-596zM130 538v-58h286v84q0 29 10 57-70 49-148 49-69 0-108.5-35T130 538z"/><glyph glyph-name="f_f_k" horiz-adv-x="1139" d="M1107 480L907 247 1135 0h-29L886 237H757V0h-24v650q-70 40-153 40-64 0-102-35.5T440 556v-76h195v-23H440V0h-24v457H130V0h-24v457H24v23h82v58q0 75 47.5 114.5T277 692q83 0 160-53 39 73 142 73 84 0 154-39v25l24 8V260h131l190 220h29zm-691 0v76q0 37 12 64-73 50-150 50-69 0-108.5-35T130 538v-58h286z"/><glyph glyph-name="f_h" horiz-adv-x="913" d="M447 374q30 46 82 81t121 35q80 0 133-52.5T836 295V0h-24v293q0 82-46 128.5T648 468q-70 0-121-38t-80-91V0h-24v648q-70 40-153 40-63 0-101.5-35T130 556v-76h195v-23H130V0h-24v457H24v23h82v76q0 74 46.5 114T269 710q84 0 154-39v25l24 8V374z"/><glyph glyph-name="f_i" horiz-adv-x="524" d="M130 480h307V0h-24v457H130V0h-24v457H24v23h82v76q0 74 46.5 114T269 710q83 0 157-45v-25q-75 48-156 48-63 0-101.5-35T130 556v-76z"/><glyph glyph-name="f_j" horiz-adv-x="524" d="M130 480h307v-596q0-61-33.5-87.5T321-230q-37 0-68 11v23q33-12 64-12 42 0 69 22t27 72v571H130V0h-24v457H24v23h82v76q0 74 46.5 114T269 710q83 0 157-45v-25q-75 48-156 48-63 0-101.5-35T130 556v-76z"/><glyph glyph-name="f_k" horiz-adv-x="829" d="M797 480L597 247 825 0h-29L576 237H447V0h-24v648q-70 40-153 40-63 0-101.5-35T130 556v-76h195v-23H130V0h-24v457H24v23h82v76q0 74 46.5 114T269 710q84 0 154-39v25l24 8V260h131l190 220h29z"/><glyph glyph-name="f_l" horiz-adv-x="534" d="M423 671v25l24 8V0h-24v648q-70 40-153 40-63 0-101.5-35T130 556v-76h195v-23H130V0h-24v457H24v23h82v76q0 74 46.5 114T269 710q84 0 154-39z"/><glyph glyph-name="uni0414.loclBGR" horiz-adv-x="795" d="M52-177H28V24h72l283 676h29L695 24h72v-201h-24V0H52v-177zm346 851L127 24h541z"/><glyph glyph-name="uni041B.loclBGR" horiz-adv-x="671" d="M323 700h25L654 0h-26L336 672 44 0H17z"/><glyph glyph-name="uni0424.loclBGR" horiz-adv-x="883" d="M454-108h-25v99Q259-6 155.5 95T52 350t103.5 255T429 709v99h25v-99q170-3 273.5-104T831 350 727.5 95 454-9v-99zM77 350q0-144 96-238t256-97v670q-160-3-256-97T77 350zm377 335V15q160 3 256 97t96 238-96 238-256 97z"/><glyph glyph-name="uni0432.loclBGR" d="M483 551q0-115-129-163 74-7 123.5-61T527 194q0-89-61.5-146.5T305-10q-107 0-170.5 69.5T71 266v105q-1 164 59.5 251.5T308 710q78 0 126.5-45T483 551zm-24-1q0 59-41.5 98.5T308 688Q95 688 95 371v-16l198 35q80 14 123 56.5T459 550zM95 266q0-128 57-191t153-63q86 0 142 49.5T503 194q0 86-62 137.5T291 367L95 332v-66z"/><glyph glyph-name="uni0433.loclBGR" horiz-adv-x="464" d="M415 38q-31-21-82-34.5T233-10q-83 0-136.5 31T43 113q0 53 35.5 83.5t86 41.5 101 21 86 35 35.5 71q0 51-43.5 77T237 468q-86 0-172-43v24q85 41 173 41 72 0 122.5-31t50.5-94q0-44-25.5-72.5t-63.5-39-83-21-83-20T92.5 178 67 113q0-50 46-75.5T233 12q47 0 97.5 13.5T415 62V38z"/><glyph glyph-name="uni0434.loclBGR" horiz-adv-x="613" d="M49 240q0 114 67 182t171 68q73 0 131-37.5t89-97.5v125h22V0q0-114-72.5-172T278-230q-100 0-188 45v24q91-47 186-47 46 0 86.5 12t73 36.5 51 65.5T505 0v124q-29-59-87-96.5T287-10q-104 0-171 68T49 240zm456 73q-23 67-81.5 111T289 468q-94 0-155-61.5T73 240q0-104 61-166t155-62q76 0 134.5 43.5T505 165v148z"/><glyph glyph-name="uni0436.loclBGR" horiz-adv-x="709" d="M39 0H11l217 247L39 480h29l181-221h94v441h24V259h93l182 221h28L481 247 698 0h-28L460 236h-93V0h-24v236h-94z"/><glyph glyph-name="uni0438.loclBGR" d="M466 480h24V0h-22v108q-30-47-82.5-82.5T263-10q-82 0-134 52.5T77 185v295h24V187q0-83 45.5-129T265 12q70 0 121 38t80 91v339z"/><glyph glyph-name="uni0439.loclBGR" d="M415 604q-49-41-124-41t-124 41v25q52-44 124-44t124 44v-25zm51-124h24V0h-22v108q-30-47-82.5-82.5T263-10q-82 0-134 52.5T77 185v295h24V187q0-83 45.5-129T265 12q70 0 121 38t80 91v339z"/><glyph glyph-name="uni043A.loclBGR" horiz-adv-x="495" d="M486 0h-29L237 237H108V0H84v700h24V260h131l190 220h29L258 247z"/><glyph glyph-name="uni043B.loclBGR" horiz-adv-x="522" d="M500 0h-27L261 453 49 0H22l226 480h26z"/><glyph glyph-name="uni043F.loclBGR" d="M106 372q30 47 82.5 82.5T311 490q80 0 133-52.5T497 295V0h-24v293q0 82-46 128.5T309 468q-70 0-121-38t-80-91V0H84v480h22V372z"/><glyph glyph-name="uni0442.loclBGR" horiz-adv-x="894" d="M108 0H84v480h22V378q29 44 78.5 78T297 490q57 0 99-29.5t59-79.5q32 44 81 76.5T646 490q76 0 123-49.5T816 313V0h-24v312q0 68-40 112t-108 44q-59 0-105-33t-76-80q4-17 4-42V0h-24v312q0 68-40 112t-108 44q-62 0-110.5-37T108 345V0z"/><glyph glyph-name="uni0446.loclBGR" horiz-adv-x="598" d="M490 86q0-65 67-65h17v-159h-23V-1q-85 2-85 86v20q-30-46-82.5-80.5T263-10q-82 0-134 52.5T77 185v295h24V187q0-83 45.5-129T265 12q70 0 121 38t80 91v339h24V86z"/><glyph glyph-name="uni0448.loclBGR" horiz-adv-x="893" d="M785 480h24V0h-22v102q-29-44-78.5-78T596-10q-57 0-99 29.5T438 99q-32-44-81-76.5T247-10q-76 0-123 49.5T77 167v313h24V168q0-68 40-112t108-44q59 0 105 33t76 80q-4 17-4 42v313h24V168q0-68 40-112t108-44q62 0 110.5 37t76.5 86v345z"/><glyph glyph-name="uni0449.loclBGR" horiz-adv-x="917" d="M809 86q0-65 67-65h17v-159h-23V-1q-85 2-85 86v14q-30-43-78.5-76T596-10q-57 0-99 29t-60 79q-33-44-81.5-76T247-10q-76 0-123 49.5T77 167v313h24V168q0-68 40-112t108-44q58 0 105 33.5t76 79.5q-4 17-4 42v313h24V168q0-68 40-112t108-44q62 0 110.5 37t76.5 86v345h24V86z"/><glyph glyph-name="uni044E.loclBGR" horiz-adv-x="799" d="M750 240q0-115-72.5-182.5T502-10q-99 0-170.5 64.5T256 229H108V0H84v700h24V251h148q4 110 75.5 174.5T502 490q103 0 175.5-67.5T750 240zm-471 0q0-105 64.5-166T502 13t158.5 61T725 240t-64.5 166T502 467t-158.5-61T279 240z"/><glyph glyph-name="uni0430.ss01" horiz-adv-x="613" d="M507 125q-29-60-86-97.5T291-10q-104 0-173 68.5T49 240t69 181.5T291 490q73 0 130-37.5t86-97.5v125h22V0h-22v125zM73 240q0-104 63-166t157-62q76 0 133 44t79 111v146q-22 67-79 111t-133 44q-95 0-157.5-62T73 240z"/><glyph glyph-name="uni0437.ss01" horiz-adv-x="449" d="M371 332q0-117-132-164 75-6 125.5-60T415-26q0-92-64.5-148T181-230q-103 0-168 44v23q67-45 166-45 93 0 152.5 49T391-26q0 87-63.5 139.5T174 146l-55-12v23l64 14q85 19 124.5 58T347 331q0 61-43 99t-111 38q-89 0-161-44v23q72 44 163 44 77 0 126.5-44.5T371 332z"/><glyph glyph-name="uni0443.ss01" d="M490-8q-1-113-70-167.5T257-230q-99 0-160 36v23q63-37 158-37 87 0 149 49T466-8v114q-30-46-82-81T263-10q-82 0-134 52.5T77 185v295h24V187q0-83 45.5-129T265 12q70 0 121 38t80 91v339h24V-8z"/><glyph glyph-name="zero.osf" horiz-adv-x="662" d="M608 260q0-109-74-189.5T331-10 128 70.5 54 260t74 189.5T331 530t203-80.5T608 260zm-529 0q0-100 67-173t185-73q117 0 184.5 73T583 260t-67.5 173T331 506q-118 0-185-73T79 260z"/><glyph glyph-name="one.osf" horiz-adv-x="407" d="M223 520h16V24h143V0H58v24h157v468L58 433v24z"/><glyph glyph-name="two.osf" horiz-adv-x="520" d="M465 0H52v18q0 19 3 35t11.5 30.5T81 109t22 22.5 24 18.5 30 18 30.5 15 34.5 15.5 34 15.5q11 5 40 17.5t42 19 35 20 32 26.5 18.5 32.5T432 372q0 59-48.5 97T264 507q-94 0-195-56v24q93 55 196 55 81 0 136-43.5T456 372q0-27-9.5-49.5t-20-37T391 255t-37.5-22.5-46-21T265 193t-32-14.5-32-15l-28-14-27-15.5-22-16-20-19-13.5-21-10-25.5L78 24h387V0z"/><glyph glyph-name="three.osf" horiz-adv-x="539" d="M459 351q0-56-33-100t-94-57q67-13 111.5-56.5T488 19q0-88-65.5-138.5T262-170q-130 0-209 44v24q84-45 208-45 85 0 144 44.5T464 19q0 80-55.5 120.5T275 180h-88v24h86q77-1 119.5 42.5T435 350q0 70-49.5 113.5T252 507q-88 0-187-47v24q91 46 190 46 92 0 148-50t56-129z"/><glyph glyph-name="four.osf" horiz-adv-x="593" d="M399 520h27V34h138V10H426v-170h-25V10H20v22zm2-486v450L51 34h350z"/><glyph glyph-name="five.osf" horiz-adv-x="527" d="M95 520h355v-24H118L99 203q76 26 157 26 96 0 162.5-49.5T485 31q0-90-64-145.5T253-170q-113 0-197 46v24q88-47 195-47 94 0 151.5 49T460 31q0 88-60.5 131.5T250 206q-91 0-177-33z"/><glyph glyph-name="six.osf" horiz-adv-x="575" d="M85 297q44 53 105.5 83T314 410q86 0 149.5-54.5T527 202q0-97-62-154.5T317-10q-123 0-190 88T60 319q0 96 23.5 169.5t63.5 116 88.5 64T339 690q77 0 141-36v-24q-63 36-141 36-49 0-93-19.5T165 587t-58.5-109T85 318v-21zm2-29q11-120 70-187.5T315 13q77 0 132 50.5T502 201q0 91-56.5 138T310 386q-61 0-121.5-31.5T87 268z"/><glyph glyph-name="seven.osf" horiz-adv-x="464" d="M26 520h428v-20L142-160h-26l309 656H26v24z"/><glyph glyph-name="eight.osf" horiz-adv-x="611" d="M83 527q0 66 60.5 114.5T305 690q100 0 161.5-52.5T529 517q0-113-119-191 68-26 106-64t38-99q0-71-65.5-122T307-10q-117 0-183 54T58 181q0 61 36 112.5T195 380Q83 430 83 527zm222-189q-55 20-88 31-63-30-99-79T82 183q0-75 59-122.5T306 13q102 0 162 44t60 105q0 18-3.5 34t-12 29.5-16 23.5-24.5 20-27 16.5-32.5 15-33 12.5-37.5 12.5-37 12.5zm199 176q0 60-55 106.5T304 667q-89 0-143-41.5T107 527q0-18 3.5-33.5t13-28.5 17-23 23.5-20 25-16 30-14.5 28.5-11 30-10.5 26.5-9q64-21 83-26 117 73 117 179z"/><glyph glyph-name="nine.osf" horiz-adv-x="562" d="M41 318q0 97 62 154.5T251 530q123 0 190-88t67-241q0-96-23.5-169.5T421-84.5t-88.5-64T229-170q-78 0-142 36v24q63-36 141-36 50 0 94 19.5T403-67t58.5 109T483 202v21q-44-52-105.5-82.5T254 110q-86 0-149.5 54.5T41 318zm25 1q0-91 56-138t136-47q61 0 121.5 31.5T481 252q-11 120-70.5 187.5T252 507q-77 0-131.5-50.5T66 319z"/><glyph glyph-name="zero.sinf" horiz-adv-x="430" d="M391 104q0-95-44.5-152.5T216-106q-87 0-132 57.5T39 104t45 152.5T216 314q86 0 130.5-57.5T391 104zm-330 0q0-88 39-138.5T216-85q76 0 114.5 50.5T369 104t-38.5 138.5T216 293q-77 0-116-50.5T61 104z"/><glyph glyph-name="one.sinf" horiz-adv-x="247" d="M137 308h16V-79h78v-21H28v21h103v363l-93-35v21z"/><glyph glyph-name="two.sinf" horiz-adv-x="341" d="M46 277q55 37 124 37 59 0 95-27t36-74q0-33-19-61t-40-43-59-37q-70-41-91-62-36-37-37-89h251v-21H31v13q0 29 9.5 53.5T59 5.5t34 34 35 25T169 89q68 41 87 63 23 27 23 61 0 37-30 58.5T169 293q-67 0-123-38v22z"/><glyph glyph-name="three.sinf" horiz-adv-x="355" d="M300 206q0-34-19.5-59.5T223 113q94-19 94-105 0-54-38.5-84T178-106q-87 0-142 26v22q57-27 141-27 54 0 86.5 24.5T296 9q0 47-33.5 69T176 100h-60v21h58q52 0 78.5 24.5T279 205q0 38-30 63t-82 25q-65 0-124-27v22q55 26 126 26 60 0 95.5-31t35.5-77z"/><glyph glyph-name="four.sinf" horiz-adv-x="389" d="M256 308h24V20h87V0h-87v-100h-22V0H19v19zm2-288v257L47 20h211z"/><glyph glyph-name="five.sinf" horiz-adv-x="350" d="M62 308h235v-21H84L73 123q45 15 94 15 64 0 107-30.5T317 16q0-55-41-88.5T169-106q-76 0-130 27v21q57-27 128-27 58 0 93 27.5T295 16q0 52-37.5 76.5T160 117q-56 0-111-19z"/><glyph glyph-name="six.sinf" horiz-adv-x="372" d="M62 85q65 63 145 63 56 0 95.5-32.5T342 23t-39.5-94.5T204-106q-80 0-122 52.5T40 92q0 114 48 168t131 54q49 0 90-22v-21q-42 22-89 22Q62 293 62 92v-7zm1-23q7-71 42-109t97-38q52 0 85 27.5T320 21q0 53-33 79.5T203 127q-81 0-140-65z"/><glyph glyph-name="seven.sinf" horiz-adv-x="301" d="M115-100H91l170 387H17v21h269v-19z"/><glyph glyph-name="eight.sinf" horiz-adv-x="395" d="M53 215q0 41 37.5 70T197 314q66 0 105-31.5t40-73.5q0-73-68-113 83-32 83-97 0-43-41.5-74T198-106q-77 0-118.5 32.5T38 9q0 80 80 118-65 31-65 88zM199 99q-39 10-62 19-36-16-56.5-44.5T60 12q0-44 35.5-71T198-86q64 0 100.5 24.5T335-2q0 18-8.5 33T308 55.5 275.5 74 240 87t-41 12zm121 106q0 36-33 62.5T197 294t-89.5-23T75 215q0-18 9-33t18.5-23.5 31-17.5 30.5-11.5 33-9.5q4-1 25-7t32-9q66 35 66 101z"/><glyph glyph-name="nine.sinf" horiz-adv-x="372" d="M30 185q0 60 39.5 94.5T169 314q80 0 121.5-52.5T332 116q0-114-48-168t-132-54q-47 0-88 22v21q41-22 88-22 158 0 158 201v7q-65-63-145-63-56 0-95.5 32.5T30 185zm22 2q0-53 33.5-79.5T169 81q81 0 140 65-7 71-42 109t-97 38q-52 0-85-27.5T52 187z"/><glyph glyph-name="zero.sups" horiz-adv-x="430" d="M391 580q0-95-44.5-152.5T216 370q-87 0-132 57.5T39 580t45 152.5T216 790q86 0 130.5-57.5T391 580zm-330 0q0-88 39-138.5T216 391q76 0 114.5 50.5T369 580t-38.5 138.5T216 769q-77 0-116-50.5T61 580z"/><glyph glyph-name="one.sups" horiz-adv-x="247" d="M137 780h16V393h78v-21H28v21h103v363l-93-35v21z"/><glyph glyph-name="two.sups" horiz-adv-x="342" d="M46 753q55 37 124 37 59 0 95-27t36-74q0-33-19-61t-40-43-59-37q-70-41-91-62-36-37-37-89h251v-21H31v13q0 29 9.5 53.5t18.5 39 34 34 35 25 41 24.5q68 41 87 63 23 27 23 61 0 37-30 58.5T169 769q-67 0-123-38v22z"/><glyph glyph-name="three.sups" horiz-adv-x="355" d="M300 682q0-34-19.5-59.5T223 589q94-19 94-105 0-54-38.5-84T178 370q-87 0-142 26v22q57-27 141-27 54 0 86.5 24.5T296 485q0 47-33.5 69T176 576h-60v21h58q52 0 78.5 24.5T279 681q0 38-30 63t-82 25q-65 0-124-27v22q55 26 126 26 60 0 95.5-31t35.5-77z"/><glyph glyph-name="four.sups" horiz-adv-x="389" d="M256 780h24V492h87v-20h-87V372h-22v100H19v19zm2-288v257L47 492h211z"/><glyph glyph-name="five.sups" horiz-adv-x="350" d="M62 780h235v-21H84L73 595q45 15 94 15 64 0 107-30.5t43-91.5q0-55-41-88.5T169 366q-76 0-130 27v21q57-27 128-27 58 0 93 27.5t35 73.5q0 52-37.5 76.5T160 589q-56 0-111-19z"/><glyph glyph-name="six.sups" horiz-adv-x="372" d="M62 561q65 63 145 63 56 0 95.5-32.5T342 499t-39.5-94.5T204 370q-80 0-122 52.5T40 568q0 114 48 168t131 54q49 0 90-22v-21q-42 22-89 22-158 0-158-201v-7zm1-23q7-71 42-109t97-38q52 0 85 27.5t33 78.5q0 53-33 79.5T203 603q-81 0-140-65z"/><glyph glyph-name="seven.sups" horiz-adv-x="301" d="M115 372H91l170 387H17v21h269v-19z"/><glyph glyph-name="eight.sups" horiz-adv-x="395" d="M53 691q0 41 37.5 70T197 790q66 0 105-31.5t40-73.5q0-73-68-113 83-32 83-97 0-43-41.5-74T198 370q-77 0-118.5 32.5T38 485q0 80 80 118-65 31-65 88zm146-116q-39 10-62 19-36-16-56.5-44.5T60 488q0-44 35.5-71T198 390q64 0 100.5 24.5T335 474q0 18-8.5 33T308 531.5 275.5 550 240 563t-41 12zm121 106q0 36-33 62.5T197 770t-89.5-23T75 691q0-18 9-33t18.5-23.5 31-17.5 30.5-11.5 33-9.5q5-1 25.5-7t31.5-9q66 35 66 101z"/><glyph glyph-name="nine.sups" horiz-adv-x="372" d="M30 661q0 60 39.5 94.5T169 790q80 0 121.5-52.5T332 592q0-114-48-168t-132-54q-47 0-88 22v21q41-22 88-22 158 0 158 201v7q-65-63-145-63-56 0-95.5 32.5T30 661zm22 2q0-53 33.5-79.5T169 557q81 0 140 65-7 71-42 109t-97 38q-52 0-85-27.5T52 663z"/><glyph glyph-name="zero.tf" horiz-adv-x="614" d="M578 340q0-157-71-253.5T307-10 107 86.5 36 340q0 158 71 254t200 96 200-96 71-254zm-517 0q0-149 64-237.5T307 14t182 88.5T553 340t-64 237.5T307 666t-182-88.5T61 340z"/><glyph glyph-name="one.tf" horiz-adv-x="614" d="M325 680h17V24h222V0H77v24h240v628l-212-79v24z"/><glyph glyph-name="two.tf" horiz-adv-x="614" d="M87 629q91 61 213 61 103 0 164.5-44T526 525q0-42-15-76.5t-47.5-63-63-48T320 291q-43-23-66-36.5T196.5 215 144 164.5t-31.5-61T98 24h446V0H72v16q0 48 14.5 89t34 68 55.5 55.5 61 43 69 38.5q49 26 77 43.5t59.5 44.5 45.5 58 14 69q0 65-54.5 103.5T299 667q-115 0-212-63v25z"/><glyph glyph-name="three.tf" horiz-adv-x="614" d="M520 511q0-56-34.5-100T385 354q72-12 118-56t46-119q0-90-64.5-139.5T311-10Q164-10 72 35v24q97-46 238-46 99 1 157 44t58 122q0 82-60 121.5T306 340H206v24h98q97-1 144.5 41.5T496 510q0 67-54 112t-150 45q-108 0-208-46v25q96 44 211 44 105 0 165-51.5T520 511z"/><glyph glyph-name="four.tf" horiz-adv-x="614" d="M421 680h27V194h140v-24H448V0h-25v170H20v22zm2-486v451L53 194h370z"/><glyph glyph-name="five.tf" horiz-adv-x="614" d="M117 680h397v-24H140l-19-293q83 26 173 26 111 0 183-49t72-149q0-90-67.5-145.5T301-10Q168-10 78 36v24q94-47 221-47 104 0 164.5 48.5T524 191q0 89-66 132t-170 43q-100 0-193-33z"/><glyph glyph-name="six.tf" horiz-adv-x="614" d="M91 295q107 115 249 115 93 0 158-54t65-154q0-98-65-155T335-10q-131 0-200 87.5T66 319q0 191 78.5 281T363 690q79 0 143-36v-24q-63 36-143 36-272 0-272-348v-23zm2-28q11-121 72-187.5T333 13q90 0 147.5 49.5T538 201q0 91-58 138t-144 47q-68 0-132.5-31.5T93 267z"/><glyph glyph-name="seven.tf" horiz-adv-x="614" d="M70 680h496v-20L226 0h-26l337 656H70v24z"/><glyph glyph-name="eight.tf" horiz-adv-x="614" d="M69 527q0 67 62.5 115T306 690q110 0 174-52.5T545 517q0-62-31.5-111.5T426 326q68-26 106-64t38-99q0-71-68.5-122T308-10q-127 0-195.5 54T44 181q0 64 36 116.5T182 380Q69 430 69 527zm239-189q-70 20-103 32-64-26-100-76T69 183q0-75 61.5-122.5T308 13q112 0 174.5 43.5T545 162q0 32-13 57.5t-32.5 42T449 292t-60.5 23-68.5 20zm213 176q0 60-57.5 106.5T306 667q-99 0-155.5-41T94 527q0-31 13.5-56t29.5-39.5 49-29 50.5-20T292 366q9-3 14-4 11-3 31-8.5t36-10 29-8.5q56 27 87.5 73.5T521 514z"/><glyph glyph-name="nine.tf" horiz-adv-x="614" d="M51 478q0 98 64.5 155T279 690q131 0 200-87.5T548 361q0-191-78.5-281T251-10q-80 0-144 36v24q63-36 143-36 273 0 273 348v23Q416 270 274 270q-93 0-158 54T51 478zm25 1q0-91 57.5-138T278 294q68 0 132.5 31.5T521 413q-11 121-72.5 187.5T280 667q-89 0-146.5-49.5T76 479z"/><glyph glyph-name="zero.tosf" horiz-adv-x="614" d="M583 260q0-109-74-189.5T307-10 105 70.5 31 260t73.5 189.5T307 530t202.5-80.5T583 260zm-527 0q0-100 67-173t184-73 184 73 67 173-67 173-184 73-184-73-67-173z"/><glyph glyph-name="one.tosf" horiz-adv-x="614" d="M324 520h17V24h222V0H76v24h240v468l-212-79v24z"/><glyph glyph-name="two.tosf" horiz-adv-x="614" d="M542 0H72v18q0 43 20 78t57 58.5 73 39 84 28.5q105 30 150.5 59.5T502 371q0 62-53 99t-145 37q-119 0-215-63v25q89 61 216 61 102 0 161.5-43T526 371q0-37-14-64t-46-46.5-63.5-31.5-87.5-28q-44-13-78-27t-68-35-52.5-50.5T98 24h444V0z"/><glyph glyph-name="three.tosf" horiz-adv-x="614" d="M517 351q0-56-34.5-100T382 194q72-12 118-56t46-119q0-90-64.5-139.5T309-170q-148 0-238 44v24q98-45 237-45 99 1 156.5 44T522 19q0 82-60 121.5T304 180h-99v24h97q96-1 143.5 41.5T493 350q0 67-53.5 112T290 507q-108 0-207-45v24q91 44 210 44 104 0 164-51.5T517 351z"/><glyph glyph-name="four.tosf" horiz-adv-x="614" d="M420 520h27V34h138V10H447v-170h-25V10H19v22zm2-486v451L52 34h370z"/><glyph glyph-name="five.tosf" horiz-adv-x="614" d="M118 520h395v-24H141l-19-293q83 26 169 26 113 0 185-49t72-149q0-91-66.5-146T298-170q-129 0-219 46v24q94-47 217-47 107 0 167 48.5T523 31q0 89-66 132t-172 43q-96 0-189-33z"/><glyph glyph-name="six.tosf" horiz-adv-x="614" d="M91 295q107 115 249 115 93 0 158-54t65-154q0-98-65-155T335-10q-131 0-200 87.5T66 319q0 191 78.5 281T363 690q79 0 143-36v-24q-63 36-143 36-272 0-272-348v-23zm2-28q11-121 72-187.5T333 13q90 0 147.5 49.5T538 201q0 91-58 138t-144 47q-68 0-132.5-31.5T93 267z"/><glyph glyph-name="seven.tosf" horiz-adv-x="614" d="M68 520h496v-20L224-160h-26l337 656H68v24z"/><glyph glyph-name="eight.tosf" horiz-adv-x="614" d="M69 527q0 67 62.5 115T306 690q110 0 174-52.5T545 517q0-62-31.5-111.5T426 326q68-26 106-64t38-99q0-71-68.5-122T308-10q-127 0-195.5 54T44 181q0 64 36 116.5T182 380Q69 430 69 527zm239-189q-70 20-103 32-64-26-100-76T69 183q0-75 61.5-122.5T308 13q112 0 174.5 43.5T545 162q0 32-13 57.5t-32.5 42T449 292t-60.5 23-68.5 20zm213 176q0 60-57.5 106.5T306 667q-99 0-155.5-41T94 527q0-31 13.5-56t29.5-39.5 49-29 50.5-20T292 366q9-3 14-4 11-3 31-8.5t36-10 29-8.5q56 27 87.5 73.5T521 514z"/><glyph glyph-name="nine.tosf" horiz-adv-x="614" d="M51 318q0 98 64.5 155T279 530q131 0 200-87.5T548 201q0-191-78.5-281T251-170q-80 0-144 36v24q63-36 143-36 273 0 273 348v23Q416 110 274 110q-93 0-158 54T51 318zm25 1q0-91 57.5-138T278 134q68 0 132.5 31.5T521 253q-11 121-72.5 187.5T280 507q-89 0-146.5-49.5T76 319z"/><glyph glyph-name="zero.dnom" horiz-adv-x="430" d="M391 204q0-95-44.5-152.5T216-6Q129-6 84 51.5T39 204t45 152.5T216 414q86 0 130.5-57.5T391 204zm-330 0q0-88 39-138.5T216 15q76 0 114.5 50.5T369 204t-38.5 138.5T216 393q-77 0-116-50.5T61 204z"/><glyph glyph-name="one.dnom" horiz-adv-x="247" d="M137 408h16V21h78V0H28v21h103v363l-93-35v21z"/><glyph glyph-name="two.dnom" horiz-adv-x="341" d="M46 377q55 37 124 37 59 0 95-27t36-74q0-33-19-61t-40-43-59-37q-70-41-91-62-36-37-37-89h251V0H31v13q0 29 9.5 53.5t18.5 39 34 34 35 25 41 24.5q68 41 87 63 23 27 23 61 0 37-30 58.5T169 393q-67 0-123-38v22z"/><glyph glyph-name="three.dnom" horiz-adv-x="355" d="M300 306q0-34-19.5-59.5T223 213q94-19 94-105 0-54-38.5-84T178-6Q91-6 36 20v22q57-27 141-27 54 0 86.5 24.5T296 109q0 47-33.5 69T176 200h-60v21h58q52 0 78.5 24.5T279 305q0 38-30 63t-82 25q-65 0-124-27v22q55 26 126 26 60 0 95.5-31t35.5-77z"/><glyph glyph-name="four.dnom" horiz-adv-x="389" d="M256 408h24V120h87v-20h-87V0h-22v100H19v19zm2-288v257L47 120h211z"/><glyph glyph-name="five.dnom" horiz-adv-x="350" d="M62 408h235v-21H84L73 223q45 15 94 15 64 0 107-30.5t43-91.5q0-55-41-88.5T169-6Q93-6 39 21v21q57-27 128-27 58 0 93 27.5t35 73.5q0 52-37.5 76.5T160 217q-56 0-111-19z"/><glyph glyph-name="six.dnom" horiz-adv-x="372" d="M62 185q65 63 145 63 56 0 95.5-32.5T342 123t-39.5-94.5T204-6Q124-6 82 46.5T40 192q0 114 48 168t131 54q49 0 90-22v-21q-42 22-89 22-158 0-158-201v-7zm1-23q7-71 42-109t97-38q52 0 85 27.5t33 78.5q0 53-33 79.5T203 227q-81 0-140-65z"/><glyph glyph-name="seven.dnom" horiz-adv-x="301" d="M115 0H91l170 387H17v21h269v-19z"/><glyph glyph-name="eight.dnom" horiz-adv-x="395" d="M53 315q0 41 37.5 70T197 414q66 0 105-31.5t40-73.5q0-73-68-113 83-32 83-97 0-43-41.5-74T198-6Q121-6 79.5 26.5T38 109q0 80 80 118-65 31-65 88zm146-116q-39 10-62 19-36-16-56.5-44.5T60 112q0-44 35.5-71T198 14q64 0 100.5 24.5T335 98q0 18-8.5 33T308 155.5 275.5 174 240 187t-41 12zm121 106q0 36-33 62.5T197 394t-89.5-23T75 315q0-18 9-33t18.5-23.5 31-17.5 30.5-11.5 33-9.5q4-1 25-7t32-9q66 35 66 101z"/><glyph glyph-name="nine.dnom" horiz-adv-x="372" d="M30 285q0 60 39.5 94.5T169 414q80 0 121.5-52.5T332 216q0-114-48-168T152-6q-47 0-88 22v21q41-22 88-22 158 0 158 201v7q-65-63-145-63-56 0-95.5 32.5T30 285zm22 2q0-53 33.5-79.5T169 181q81 0 140 65-7 71-42 109t-97 38q-52 0-85-27.5T52 287z"/><glyph glyph-name="zero.numr" horiz-adv-x="430" d="M391 480q0-95-44.5-152.5T216 270q-87 0-132 57.5T39 480t45 152.5T216 690q86 0 130.5-57.5T391 480zm-330 0q0-88 39-138.5T216 291q76 0 114.5 50.5T369 480t-38.5 138.5T216 669q-77 0-116-50.5T61 480z"/><glyph glyph-name="one.numr" horiz-adv-x="247" d="M137 680h16V293h78v-21H28v21h103v363l-93-35v21z"/><glyph glyph-name="two.numr" horiz-adv-x="342" d="M46 653q55 37 124 37 59 0 95-27t36-74q0-33-19-61t-40-43-59-37q-70-41-91-62-36-37-37-89h251v-21H31v13q0 29 9.5 53.5t18.5 39 34 34 35 25 41 24.5q68 41 87 63 23 27 23 61 0 37-30 58.5T169 669q-67 0-123-38v22z"/><glyph glyph-name="three.numr" horiz-adv-x="355" d="M300 582q0-34-19.5-59.5T223 489q94-19 94-105 0-54-38.5-84T178 270q-87 0-142 26v22q57-27 141-27 54 0 86.5 24.5T296 385q0 47-33.5 69T176 476h-60v21h58q52 0 78.5 24.5T279 581q0 38-30 63t-82 25q-65 0-124-27v22q55 26 126 26 60 0 95.5-31t35.5-77z"/><glyph glyph-name="four.numr" horiz-adv-x="389" d="M256 680h24V392h87v-20h-87V272h-22v100H19v19zm2-288v257L47 392h211z"/><glyph glyph-name="five.numr" horiz-adv-x="350" d="M62 680h235v-21H84L73 495q45 15 94 15 64 0 107-30.5t43-91.5q0-55-41-88.5T169 266q-76 0-130 27v21q57-27 128-27 58 0 93 27.5t35 73.5q0 52-37.5 76.5T160 489q-56 0-111-19z"/><glyph glyph-name="six.numr" horiz-adv-x="372" d="M62 461q65 63 145 63 56 0 95.5-32.5T342 399t-39.5-94.5T204 270q-80 0-122 52.5T40 468q0 114 48 168t131 54q49 0 90-22v-21q-42 22-89 22-158 0-158-201v-7zm1-23q7-71 42-109t97-38q52 0 85 27.5t33 78.5q0 53-33 79.5T203 503q-81 0-140-65z"/><glyph glyph-name="seven.numr" horiz-adv-x="301" d="M115 272H91l170 387H17v21h269v-19z"/><glyph glyph-name="eight.numr" horiz-adv-x="395" d="M53 591q0 41 37.5 70T197 690q66 0 105-31.5t40-73.5q0-73-68-113 83-32 83-97 0-43-41.5-74T198 270q-77 0-118.5 32.5T38 385q0 80 80 118-65 31-65 88zm146-116q-39 10-62 19-36-16-56.5-44.5T60 388q0-44 35.5-71T198 290q64 0 100.5 24.5T335 374q0 18-8.5 33T308 431.5 275.5 450 240 463t-41 12zm121 106q0 36-33 62.5T197 670t-89.5-23T75 591q0-18 9-33t18.5-23.5 31-17.5 30.5-11.5 33-9.5q5-1 25.5-7t31.5-9q66 35 66 101z"/><glyph glyph-name="nine.numr" horiz-adv-x="372" d="M30 561q0 60 39.5 94.5T169 690q80 0 121.5-52.5T332 492q0-114-48-168t-132-54q-47 0-88 22v21q41-22 88-22 158 0 158 201v7q-65-63-145-63-56 0-95.5 32.5T30 561zm22 2q0-53 33.5-79.5T169 457q81 0 140 65-7 71-42 109t-97 38q-52 0-85-27.5T52 563z"/><glyph glyph-name="emdash.case" horiz-adv-x="755" d="M681 338H74v24h607v-24z"/><glyph glyph-name="endash.case" horiz-adv-x="573" d="M499 338H74v24h425v-24z"/><glyph glyph-name="hyphen.case" horiz-adv-x="491" d="M74 362h343v-24H74v24z"/><glyph glyph-name="guillemotleft.case" horiz-adv-x="432" d="M355 179h-27L210 346v8l118 167h27L234 350zm-149 0h-27L61 346v8l118 167h27L85 350z"/><glyph glyph-name="guillemotright.case" horiz-adv-x="432" d="M253 179h-27l121 171-121 171h27l118-167v-8zm-149 0H77l121 171L77 521h27l118-167v-8z"/><glyph glyph-name="guilsinglleft.case" horiz-adv-x="283" d="M206 179h-27L61 346v8l118 167h27L85 350z"/><glyph glyph-name="guilsinglright.case" horiz-adv-x="283" d="M104 179H77l121 171L77 521h27l118-167v-8z"/><glyph glyph-name="cent.tf" horiz-adv-x="614" d="M365 12q80 3 143 39V27Q448-7 365-10v-110h-22v110q-99 2-168.5 65.5T105 236q0 118 69.5 182.5T343 489v111h22V490q82 0 138-39v-23q-58 40-138 40V12zm-22 455q-90-7-152-65.5T129 236q0-105 62-163t152-61v455z"/><glyph glyph-name="currency.tf" horiz-adv-x="614" d="M184 206l-85-85-17 17 84 84q-51 53-51 128t51 128l-84 84 17 17 85-85q51 42 123 42 73 0 124-42l85 85 17-17-84-84q51-53 51-128t-51-128l84-84-17-17-85 85q-51-42-124-42-72 0-123 42zm-46 144q0-72 49.5-117.5T307 187q69 0 119 45.5T476 350t-49.5 117.5T307 513q-71 0-120-45t-49-118z"/><glyph glyph-name="dollar.tf" horiz-adv-x="614" d="M323-130h-22v120Q178-7 80 48v25q106-59 237-59 93 0 150 34t57 109q0 54-33 91t-82 54-106.5 35.5T196 374t-82 56.5T81 526q0 81 62.5 121.5T300 690v120h22V690q102-3 183-47v-25q-88 50-197 48-88 0-145-34t-57-106q0-45 24.5-76.5T194 400t86.5-32 94.5-29.5 86-36 63.5-57T549 158q0-85-63.5-126.5T323-10v-120z"/><glyph glyph-name="Euro.tf" horiz-adv-x="614" d="M124 256q26-116 120-179t209-63q67 0 129 21V11q-62-21-133-21-123 0-224 69.5T98 256H11v22h83q-4 34-4 54 0 32 7 70H11v22h90q29 124 128 195t215 71q70 0 133-21v-24q-60 21-130 21-108 0-199.5-64T127 424h362v-22H122q-7-38-7-70 0-26 5-54h369v-22H124z"/><glyph glyph-name="sterling.tf" horiz-adv-x="614" d="M563 0H38v24h47q31 0 48.5 22.5T151 105v222H72v24h79v114q0 113 63.5 169T372 690q82 0 140-39v-24q-61 39-138 39-86 0-142-49.5T176 464V351h256v-24H176V105q0-60-38-81h425V0z"/><glyph glyph-name="yen.tf" horiz-adv-x="614" d="M552 680h28L331 303h178v-22H319v-97h190v-22H319V0h-24v162H105v22h190v97H105v22h178L34 680h28l245-372z"/></font>
</defs>
</svg>
