<svg xmlns="http://www.w3.org/2000/svg"><defs><font id="MullerBlackItalic" horiz-adv-x="594"><font-face font-family="Muller Black Italic" font-weight="900" font-style="italic" ascent="780" descent="-220" x-height="480" cap-height="700" bbox="-215 -287 1385 992" underline-thickness="50" underline-position="-225" slope="-9" unicode-range="U+0020-25CA"/><glyph glyph-name="f_f" unicode="ff" horiz-adv-x="769" d="M811 556q-25 10-53 10-61 0-70-49l-7-37h105l-26-168H655L605 0H395l49 312H306L256 0H46l49 312H27l27 168h68l5 30q15 97 88 147.5T389 708q87 0 154-32 60 60 173 60 67 0 120-20zm-479-76h139l6 40q0 2 1 6t1.5 7 .5 5q-24 11-63 11-36 0-57.5-17T333 488z"/><glyph glyph-name="f_f_i" unicode="ffi" horiz-adv-x="1031" d="M256 0H46l49 312H27l27 168h68l5 30q15 97 88 147.5T389 708q95 0 166-39 78 67 210 67 105 0 195-35l-26-160q-71 25-135 25-50 0-80-19t-35-53l-3-14h339L944 0H733l50 312H655L605 0H395l49 312H306zm77 488l-1-8h139l4 28 6 30q-26 11-64 11-36 0-57.5-17T333 488z"/><glyph glyph-name="f_f_l" unicode="ffl" horiz-adv-x="1045" d="M739 731q81 0 156-26l177 19L957 0H746l87 552q-30 10-55 8-37 0-63.5-18T683 492l-2-12h90l-27-168h-89L605 0H395l49 312H306L256 0H46l49 312H27l27 168h68l5 30q15 97 87 147.5T385 708q96 0 171-39 71 62 183 62zM471 480l4 28q1 11 6 30-24 11-64 11-36 0-57.5-17T333 488l-1-8h139z"/><glyph glyph-name=".notdef" horiz-adv-x="184"/><glyph glyph-name=".null" horiz-adv-x="0"/><glyph glyph-name="nonmarkingreturn" horiz-adv-x="333"/><glyph glyph-name="space" horiz-adv-x="184"/><glyph glyph-name="exclam" unicode="!" horiz-adv-x="310" d="M240 275H63l44 425h225zm-1-192q-8-50-42-74.5T116-16q-54 0-85 33t-21 94q8 50 42 74.5t80 24.5q54 0 85-33.5T239 83z"/><glyph glyph-name="quotedbl" unicode="&quot;" horiz-adv-x="486" d="M449 433H300l43 267h183zm-238 0H62l43 267h183z"/><glyph glyph-name="numbersign" unicode="#" horiz-adv-x="731" d="M200 0H13l50 126H3l23 142h94l56 145H99l23 142h111l49 126h187l-49-126h79l49 126h187l-50-126h59l-23-142h-93l-56-145h77l-23-142H515L466 0H279l49 126h-78zm163 413l-56-145h79l56 145h-79z"/><glyph glyph-name="dollar" unicode="$" horiz-adv-x="636" d="M329-119H171l17 109Q83 5 1 53l32 200q100-79 232-79 91 0 96 33 2 15-14.5 27T302 256t-62.5 21.5-67.5 30-59 42.5-39 63.5-5 89.5q12 78 75.5 126.5T298 691l18 108h158l-17-111q96-14 165-53l-30-193q-92 66-212 66-75 0-79-29-2-15 21-28.5t59-24 76.5-29.5 74.5-42.5 52-67.5 10-100Q567 11 346-13z"/><glyph glyph-name="percent" unicode="%" horiz-adv-x="966" d="M288-60H158l539 820h130zm175 572q-14-86-75.5-131T243 336q-89 0-142.5 53.5T63 540q14 87 75 131.5T284 716q87 0 140.5-53.5T463 512zm-250 9q-4-47 40-47 28 0 42.5 17t16.5 40q4 47-40 47-28 0-42-16.5T213 521zm709-361q-14-86-75.5-131T701-16q-89 0-142 53.5T522 188q14 87 75 132t145 45q89 0 142-54t38-151zm-251 10q-5-48 40-48 52 0 59 57 4 48-40 48-28 0-42.5-17T671 170z"/><glyph glyph-name="ampersand" unicode="&amp;" horiz-adv-x="743" d="M547 355h182q-14-124-127-231L706 0H505l-31 36Q364-16 248-16 127-16 62 39T12 187q10 64 55 108t114 79q-68 86-55 159 13 82 88.5 132.5T393 716q111 0 174-57t47-140q-19-102-184-189l71-86q40 52 46 111zM383 575q-32 0-52-17t-23-42q-4-28 29-74 90 38 98 81 3 20-11 36t-41 16zM214 190q-2-24 15.5-39t57.5-15 86 16l-94 109q-60-32-65-71z"/><glyph glyph-name="quotesingle" unicode="'" horiz-adv-x="248" d="M211 433H62l43 267h183z"/><glyph glyph-name="parenleft" unicode="(" horiz-adv-x="347" d="M263 812h156Q272 557 238 351q-17-129-8-247t38-217H122Q65-10 41 115t-4 249q19 116 79.5 236T263 812z"/><glyph glyph-name="parenright" unicode=")" horiz-adv-x="349" d="M98 813h147q57-102 80.5-229t4.5-252q-19-116-79-233.5T104-112H-53Q94 139 128 354q37 235-30 459z"/><glyph glyph-name="asterisk" unicode="*" horiz-adv-x="534" d="M288 387l-76-120L72 370l94 75-113 22 93 174 94-61 1 120h187l-40-120 108 61 40-174-119-22 72-75-163-103z"/><glyph glyph-name="plus" unicode="+" horiz-adv-x="553" d="M384 435h164l-27-168H357l-26-164H163l26 164H25l27 168h164l26 163h168z"/><glyph glyph-name="comma" unicode="," horiz-adv-x="291" d="M82-143H-78L41 164h205z"/><glyph glyph-name="hyphen" unicode="-" horiz-adv-x="478" d="M49 322h390l-26-163H23z"/><glyph glyph-name="period" unicode="." horiz-adv-x="282" d="M226 83q-8-50-42-74.5T103-16q-54 0-85 33t-21 94q8 50 42 74.5t80 24.5q54 0 85-33.5T226 83z"/><glyph glyph-name="slash" unicode="/" horiz-adv-x="506" d="M116-61H-36l446 822h152z"/><glyph glyph-name="zero" unicode="0" horiz-adv-x="704" d="M41 354q11 71 38 131t71 108 109.5 75.5T407 696q107 0 175.5-52T673 510t6-184q-11-71-38-131T570 87 460.5 11.5 313-16q-108 0-176.5 52t-90 134T41 354zm411-14q26 157-63 157-48 0-78-37t-45-120q-13-81 2.5-119t61.5-38q48 0 78 37t44 120z"/><glyph glyph-name="one" unicode="1" horiz-adv-x="502" d="M274 680h168l-78-491h105L439 0H-5l30 189h117l43 273-116-43 31 196z"/><glyph glyph-name="two" unicode="2" horiz-adv-x="622" d="M110 626q124 70 256 70 53 0 99-13.5t82-40.5 52.5-73.5T607 462q-10-63-44-101t-101-79q-13-8-38-22.5t-38-22-29-18-24-17.5-11-13h243L535 1H-11L5 101q9 52 30 93.5T92 268t64 51 76 46q16 9 42.5 22.5T313 408t27.5 17.5 22 19.5 8.5 20q2 16-11 25.5t-39 9.5q-111 0-244-90z"/><glyph glyph-name="three" unicode="3" horiz-adv-x="604" d="M577 487q-15-100-129-136 55-14 87-59.5T556 174q-11-69-58.5-113T387.5.5 246-16Q107-16-2 32l30 191q96-50 209-50 102 2 110 51 5 36-47 36H170l28 171h93q60 0 67 33 6 41-66 41-109 0-216-63l31 198q103 56 232 56 111 0 182.5-53.5T577 487z"/><glyph glyph-name="four" unicode="4" horiz-adv-x="678" d="M399 680h228l-65-410h84L618 91h-85L519 0H310l15 91H-13l29 185zm-46-410l24 149-142-149h118z"/><glyph glyph-name="five" unicode="5" horiz-adv-x="602" d="M143 680h461l-30-188-267 1-14-68q28 4 56 4 45 0 85-12.5t72-38 46.5-71T558 203q-10-61-42-105t-80-68T334.5-5 220-16Q90-16-6 32l28 179q72-42 171-42 130 0 140 63 4 28-24 44t-84 16q-89 0-167-22z"/><glyph glyph-name="six" unicode="6" horiz-adv-x="669" d="M280 412q70 32 147 32 44 0 83.5-15t70.5-42.5 45.5-73T632 212Q614 98 529.5 41T326-16Q160-16 87.5 82.5T42 356q14 88 53 155.5t94.5 107T307 677t130 19q114 0 205-48l-27-170q-68 41-146 41-139 0-189-107zm45-259q35 0 60.5 16.5T417 221q4 29-14 45.5T353 283q-48 0-102-31 1-57 20.5-78t53.5-21z"/><glyph glyph-name="seven" unicode="7" horiz-adv-x="592" d="M83 680h555l-23-148L278 0H25l312 492H53z"/><glyph glyph-name="eight" unicode="8" horiz-adv-x="666" d="M619 178q-13-83-95-138.5T292-16Q141-16 70.5 47T14 199q8 49 42 90.5t81 66.5q-64 60-49 151 13 77 89.5 133T389 696q129 0 198.5-64.5T643 487q-8-45-33-74.5T538 354q47-29 69-69.5T619 178zm-383 37q-2-25 17.5-44.5T312 151q35 0 57 13.5t26 31.5q4 16-4 28t-20 18.5-35 14.5q-54 23-59 25-37-31-41-67zm109 214q8-3 24.5-9t24.5-9q36 30 41 65 2 21-15.5 37T369 529q-30 0-50-12t-24-32q-5-34 50-56z"/><glyph glyph-name="nine" unicode="9" horiz-adv-x="668" d="M52 468q18 114 103.5 171T359 696q163 0 237-99t46-273Q615 151 508 67.5T253-16Q131-16 40 31l28 171q66-41 150-41 72 0 117.5 24t70.5 84q-67-32-144-32-47 0-88 14.5t-72 42-45 73T52 468zm303 58q-34 0-58-17t-28-48q-5-30 14.5-47.5T336 396q51 0 99 29-3 101-80 101z"/><glyph glyph-name="colon" unicode=":" horiz-adv-x="294" d="M270 358q-7-48-40-72t-78-24q-51 0-81 32t-21 91q7 47 39.5 71t77.5 24q52 0 82.5-32t20.5-90zM226 79q-8-48-41-71.5T107-16q-51 0-81 32T5 107q8 48 40.5 71.5T123 202q52 0 82-32t21-91z"/><glyph glyph-name="semicolon" unicode=";" horiz-adv-x="307" d="M87-143H-73L46 164h205zm201 507q-8-50-42-75t-81-25q-53 0-84.5 33.5T58 391q8 50 42 74.5t81 24.5q53 0 84.5-33t22.5-93z"/><glyph glyph-name="less" unicode="&lt;" horiz-adv-x="512" d="M457 292l-29-182L24 245l33 210 447 134-29-186-262-58z"/><glyph glyph-name="equal" unicode="=" horiz-adv-x="626" d="M579 382H76l26 162h502zm-36-226H40l26 162h502z"/><glyph glyph-name="greater" unicode="&gt;" horiz-adv-x="511" d="M473 245L26 109l30 187 263 59-245 55 29 180 403-135z"/><glyph glyph-name="question" unicode="?" horiz-adv-x="508" d="M314 257H120q7 44 32.5 82.5t53 61 51.5 46 27 39.5q4 18-9 26t-40 8q-76 0-172-49l32 203q94 42 197 42 48 0 90-10t77.5-31 52.5-61 8-94q-6-35-28-69t-50-60-56-49-48.5-45-23.5-40zm-6-174q-8-50-42-74.5T185-16q-54 0-85 33t-21 94q8 50 42 74.5t80 24.5q54 0 85-33.5T308 83z"/><glyph glyph-name="at" unicode="@" horiz-adv-x="1043" d="M21 254q14 90 59.5 172.5t116 147.5T368 677.5 585 716q93 0 169.5-27.5t126.5-73 82-104 42-121 1-123.5q-20-128-93-194T732 7q-66 0-107.5 25.5T567 97q-49-64-134-64-62 0-102.5 35t-53 83.5T273 252q11 74 63 132.5T471 443q80 0 123-66l9 54h152l-37-236q-8-51 32-51 38 0 56.5 35.5T836 279q7 46-3.5 93T794 461t-84 68.5T579 556q-153 0-258-90.5T195 242q-13-81 7.5-143T269 0t107-55.5T511-74q115 0 225 33l-22-161q-92-33-215-33-84 0-161 19t-141.5 59.5T87.5-59t-63 137.5T21 254zm552 28q-10 31-46 31-35 0-56-23.5T446 235q-4-27 7-49t41-22q42 0 65 34z"/><glyph glyph-name="A" unicode="A" horiz-adv-x="765" d="M722 0H497l-16 93H234L189 0H-49l372 700h249zM388 413l-75-153h141l-25 152q-7 47-7 90-15-50-34-89z"/><glyph glyph-name="B" unicode="B" horiz-adv-x="698" d="M117 700h341q115 0 178-49t49-142q-8-51-36.5-85.5T563 368q55-18 82.5-64.5T662 187Q645 82 563 41T352 0H6zm323-472q5 26-9.5 41T383 284H282l-18-114h93q73 0 83 58zm20 251q4 22-8.5 36.5T410 530h-89l-17-103 82-1q30 0 49.5 14.5T460 479z"/><glyph glyph-name="C" unicode="C" horiz-adv-x="645" d="M34 361q12 73 44 134t75.5 101 97 68 107 40T465 716q117 0 204-48l-31-195q-53 43-145 43-82 0-146-41t-79-128q-12-76 34-118t117-42q104 0 187 50L572 23q-85-39-198-39-75 0-140.5 22.5T117 73.5t-74.5 119T34 361z"/><glyph glyph-name="D" unicode="D" horiz-adv-x="743" d="M117 700h296q177 0 257.5-100T725 336Q700 180 598.5 90T317 0H6zm375-342q25 148-104 148h-71l-49-312h60q140 0 164 164z"/><glyph glyph-name="E" unicode="E" horiz-adv-x="621" d="M117 700h530l-29-182H318l-12-81h264l-27-170H279l-13-83h305L542 0H6z"/><glyph glyph-name="F" unicode="F" horiz-adv-x="601" d="M117 700h519l-32-202H316l-14-86h260l-32-196H271L237 0H6z"/><glyph glyph-name="G" unicode="G" horiz-adv-x="692" d="M35 364q15 92 59.5 162T201 636t129.5 60T468 716q131 0 224-45l-31-197q-59 41-163 41-85 0-150-42.5T269 342q-13-83 24-117.5t92-34.5q20 0 37 5l32 196h216L612 28Q512-16 383-16q-78 0-146 24T118 77 44 196.5 35 364z"/><glyph glyph-name="H" unicode="H" horiz-adv-x="756" d="M538 700h230L657 0H427l39 249H276L237 0H6l111 700h231l-40-249h191z"/><glyph glyph-name="I" unicode="I" horiz-adv-x="336" d="M117 700h231L237 0H6z"/><glyph glyph-name="J" unicode="J" horiz-adv-x="517" d="M143 700h392l-73-463Q422-12 157-12 40-12-28 21L3 217q51-20 111-20 111 0 123 81l35 220H112z"/><glyph glyph-name="K" unicode="K" horiz-adv-x="728" d="M546 700h258L533 346 691 0H448L338 250h-62L237 0H6l111 700h231l-40-248h61z"/><glyph glyph-name="L" unicode="L" horiz-adv-x="593" d="M117 700h231l-79-498h300L536 0H6z"/><glyph glyph-name="M" unicode="M" horiz-adv-x="906" d="M698 700h220L807 0H582l52 325-136-177H367l-83 178L231 0H6l111 700h198l145-312z"/><glyph glyph-name="N" unicode="N" horiz-adv-x="762" d="M237 0H6l111 700h174l207-337q1 61 11 118l34 219h231L663 0H489L283 336q0-44-10-114z"/><glyph glyph-name="O" unicode="O" horiz-adv-x="805" d="M789 336Q765 183 653 83.5T364-16Q185-16 97 93T35 364q24 153 136 252.5T460 716t266-109 63-271zm-520 2q-8-68 21.5-106.5T383 193q71 0 117.5 45.5T556 362q9 68-20.5 106.5T442 507q-70 0-116-45.5T269 338z"/><glyph glyph-name="P" unicode="P" horiz-adv-x="688" d="M117 700h301q66 0 119-14.5t93.5-45 57.5-85 5-127.5q-21-135-107.5-190T349 183h-83L237 0H6zm351-256q6 33-14 49.5T397 510h-79l-22-137h71q90 0 101 71z"/><glyph glyph-name="Q" unicode="Q" horiz-adv-x="805" d="M746 65L598-52l-58 67q-81-31-176-31Q185-16 97 93T35 364q24 153 136 252.5T460 716t266-109 63-271q-19-123-95-211zM264 338q-8-70 24-110t96-40q14 0 21 1l-49 56 129 114 57-68q16 33 20 71 8 70-24 110t-97 40q-71 0-119.5-46.5T264 338z"/><glyph glyph-name="R" unicode="R" horiz-adv-x="729" d="M237 0H6l111 700h320q56 0 104.5-13.5t89.5-42 60-81.5 8-123q-22-142-149-199L687 0H443L335 207h-66zm82 512l-21-132h84q34 0 58.5 19t29.5 50q4 28-12 45.5T411 512h-92z"/><glyph glyph-name="S" unicode="S" horiz-adv-x="632" d="M69 518q15 95 100 146.5T366 716q149 0 256-61l-30-193q-95 65-211 63-76 0-79-32-1-15 22.5-29.5T384 438t76.5-31.5 74-45.5 51-69 8.5-101Q559-16 276-16 114-16 2 53l32 200q103-76 231-76 90 0 95 32 3 18-20 33.5T281.5 269 205 300t-75 44.5T78 414t-9 104z"/><glyph glyph-name="T" unicode="T" horiz-adv-x="630" d="M77 700h606l-32-202H463L384 0H154l79 498H45z"/><glyph glyph-name="U" unicode="U" horiz-adv-x="741" d="M530 700h230l-68-435Q646-16 328-16 265-16 211 .5T113.5 50t-63 92T43 279l67 421h231l-68-423q-7-47 13-66.5t64-19.5q98 0 115 99z"/><glyph glyph-name="V" unicode="V" horiz-adv-x="744" d="M444 0H208L62 700h235l60-429 199 429h255z"/><glyph glyph-name="W" unicode="W" horiz-adv-x="1111" d="M917 700h256L851 0H599l-35 353L413 0H167L67 700h240l32-422 177 422h191l40-422z"/><glyph glyph-name="X" unicode="X" horiz-adv-x="730" d="M208 0H-67l304 358L60 700h260l74-177 136 177h275L517 360 702 0H442l-83 190z"/><glyph glyph-name="Y" unicode="Y" horiz-adv-x="752" d="M443 0H214l39 239L60 700h246l82-267 164 267h270L482 239z"/><glyph glyph-name="Z" unicode="Z" horiz-adv-x="645" d="M570 0H-19L4 146l312 352H77l31 202h561l-23-147-312-351h268z"/><glyph glyph-name="bracketleft" unicode="[" horiz-adv-x="386" d="M296-110H-12l145 920h308l-28-181h-99L225 72h99z"/><glyph glyph-name="backslash" unicode="\" horiz-adv-x="494" d="M421-61H276L91 761h145z"/><glyph glyph-name="bracketright" unicode="]" horiz-adv-x="385" d="M271-110H-37L-9 72h99l89 557H80l28 181h308z"/><glyph glyph-name="asciicircum" unicode="^" horiz-adv-x="665" d="M254 322H31l274 378h186l156-378H439l-63 179z"/><glyph glyph-name="underscore" unicode="_" horiz-adv-x="521" d="M443-203H-78l27 169h521z"/><glyph glyph-name="grave" unicode="`" horiz-adv-x="356" d="M422 752H239l-96 164h207z"/><glyph glyph-name="a" unicode="a" horiz-adv-x="624" d="M360 52q-54-68-158-68Q95-16 46 63.5T15 254q16 103 80.5 172.5T265 496q53 0 92.5-25t59.5-62l11 71h185L537 0H352zM228 236q-5-35 10-59t46-24q43 0 73 37l17 104q-5 15-19 24t-33 9q-38 0-63-26t-31-65z"/><glyph glyph-name="b" unicode="b" horiz-adv-x="624" d="M105 700h211l-41-253q59 49 132 49 104 0 153.5-80T592 226q-16-102-79.5-172T346-16q-55 0-94.5 23.5T192 67L179 0H-6zm274-459q5 35-8.5 60.5T324 327q-41 0-74-37l-16-105q13-32 51-32 37 0 62.5 25t31.5 63z"/><glyph glyph-name="c" unicode="c" horiz-adv-x="490" d="M13 243q17 126 109.5 190T329 497q86 0 154-34l-26-163q-44 23-98 23-49 0-86.5-21T228 237q-6-39 20.5-58.5T321 159q67 0 122 26L416 9q-74-25-151-25-123 0-196 67.5T13 243z"/><glyph glyph-name="d" unicode="d" horiz-adv-x="623" d="M438 700h210L537 0H352l9 57q-57-73-158-73Q99-16 49 64T16 254q15 101 80.5 171.5T265 496q88 0 131-58zm-64-405q-12 32-52 32-38 0-63-25.5T228 236q-5-36 10-59.5t46-23.5q42-1 73 37z"/><glyph glyph-name="e" unicode="e" horiz-adv-x="546" d="M15 258q9 62 39.5 109.5T126 442t85 40.5 88 13.5q61 0 107-18.5t71-49.5 36.5-70.5 8.5-82-19-83.5H205q15-61 126-61 85 0 149 24L457 8q-72-24-173-24-57 0-107.5 16T85 48t-60.5 86.5T15 258zm332 31q7 26-5.5 47T297 357q-33 0-55-20.5T216 289h131z"/><glyph glyph-name="f" unicode="f" horiz-adv-x="420" d="M129 527q31 189 234 189 69 0 120-20l-24-154q-24 11-53 11-61 0-70-51l-4-22h105l-26-168H306L256 0H46l49 312H27l27 168h68z"/><glyph glyph-name="g" unicode="g" horiz-adv-x="624" d="M542 24q-22-135-110-197.5T225-236Q92-236-4-192L23-23q78-42 165-42 58 0 96.5 22T331 25l3 20Q290-5 205-5 97-5 48 72T16 259q16 100 82.5 168.5T266 496q102 0 151-80l11 64h185zM229 239q-5-36 10-59.5t46-24.5q42 0 73 38l17 105q-12 32-52 32-38 0-63-26t-31-65z"/><glyph glyph-name="h" unicode="h" d="M105 700h211l-39-244q65 40 125 40 90 0 130-57.5T560 304L512 0H301l44 278q7 41-33 41-32 0-61-27L205 0H-6z"/><glyph glyph-name="i" unicode="i" horiz-adv-x="293" d="M206 0H-5l76 480h211zm103 622q-7-47-39.5-70.5T193 528q-50 0-79.5 31.5T93 647q8 47 40.5 70.5T210 741q50 0 79-31.5t20-87.5z"/><glyph glyph-name="j" unicode="j" horiz-adv-x="294" d="M196-64q-14-91-72-131.5T-18-236q-69 0-116 20l26 166q18-6 41-6 29 0 43.5 13.5T-4 2l76 478h210zm114 686q-7-47-39.5-70.5T194 528q-50 0-79.5 31.5T94 647q8 47 40.5 70.5T211 741q50 0 79-31.5t20-87.5z"/><glyph glyph-name="k" unicode="k" horiz-adv-x="595" d="M397 480h234L439 230 550 0H333l-68 162h-35L205 0H-6l111 700h211l-60-374h31z"/><glyph glyph-name="l" unicode="l" horiz-adv-x="294" d="M111 730h211L206 0H-5z"/><glyph glyph-name="m" unicode="m" horiz-adv-x="864" d="M522 433q66 63 161 63 86 0 122.5-59T829 295L782 0H574l46 290q2 15-6.5 22.5T591 320q-26 0-50-22 0-6-2-16L494 0H286l46 290q2 15-6.5 22.5T304 320q-32 0-56-28L202 0H-6l76 480h186l-8-48q24 27 65.5 45.5T399 496q87 0 123-63z"/><glyph glyph-name="n" unicode="n" d="M248 435q72 61 158 61 87 0 126.5-57.5T560 305L512 0H301l44 278q7 41-33 41-28 0-61-26L205 0H-6l76 480h185z"/><glyph glyph-name="o" unicode="o" d="M563 224Q544 105 459 44.5T257-16q-57 0-105 17.5T69.5 52t-50 86T15 256q19 119 102 179.5T320 496q74 0 133.5-29.5t91.5-93T563 224zm-346 11q-4-33 10-54t47-21q36 0 58.5 23t27.5 62q4 33-10 54t-47 21q-36 0-58.5-23T217 235z"/><glyph glyph-name="p" unicode="p" horiz-adv-x="625" d="M247 424q63 72 159 72 105 0 154.5-80T593 226q-16-103-79-172.5T346-16q-85 0-135 56l-41-260H-41L71 480h185zm133-181q5 33-8.5 58.5T324 327q-43 0-73-38l-17-105q14-31 53-31 36 0 61 26t32 64z"/><glyph glyph-name="q" unicode="q" horiz-adv-x="624" d="M15 254q16 103 80.5 172.5T265 496q54 0 93.5-25t58.5-61l11 70h185L502-220H292l39 247q-46-43-129-43Q95-16 46 63.5T15 254zm359 41q-5 13-19.5 22.5T322 327q-37 0-62.5-26T228 236q-5-36 10-59.5t46-23.5q42-1 73 37z"/><glyph glyph-name="r" unicode="r" horiz-adv-x="420" d="M248 428q64 76 190 61l-31-194q-44 15-90.5 5T246 261L205 0H-6l76 480h186z"/><glyph glyph-name="s" unicode="s" horiz-adv-x="493" d="M35 355q20 141 237 141 106 0 190-42l-24-152q-69 49-144 49-41 0-44-19-2-13 20.5-23.5t55-21.5 63.5-27.5 49.5-50T449 129q-7-43-30.5-73T358 11t-76.5-21-89.5-6Q77-16-5 28l26 163q31-26 75.5-40t81.5-15q54-3 57 16 2 13-20 23.5t-54 22-63 28-50 50T35 355z"/><glyph glyph-name="t" unicode="t" horiz-adv-x="433" d="M132 609l219 49-28-178h107l-27-168H296l-18-113q-4-24 7.5-34t36.5-10q32 0 65 11L361 2q-60-19-129-19-37 0-68 9.5t-58.5 30-39 59.5-3.5 92l22 138H18l27 168h67z"/><glyph glyph-name="u" unicode="u" d="M372 480h211L507 0H321l8 45q-59-61-147-61T49.5 41 17 178l48 302h211l-44-275q-8-45 34-45 35 0 60 27z"/><glyph glyph-name="v" unicode="v" horiz-adv-x="601" d="M400 480h231L365 0H142L32 480h214l32-279z"/><glyph glyph-name="w" unicode="w" horiz-adv-x="846" d="M648 480h223L642 0H437l-25 237L308 0H108L36 480h206l16-263 108 263h161l23-263z"/><glyph glyph-name="x" unicode="x" horiz-adv-x="570" d="M174 0H-56l208 245L31 480h211l52-110 81 110h229L403 239 531 0H310l-49 111z"/><glyph glyph-name="y" unicode="y" horiz-adv-x="603" d="M298 220l103 260h229L367-34Q264-235 87-235q-61 0-115 20L-1-47q29-11 62-11 68 0 108 70L26 480h213z"/><glyph glyph-name="z" unicode="z" horiz-adv-x="505" d="M72 480h422l-20-123-192-189h176L432 0H-19L0 123l192 189H46z"/><glyph glyph-name="braceleft" unicode="{" horiz-adv-x="411" d="M345 56l-26-167q-135-27-206 27T57 70l23 142q3 18-1 29t-16 15-21.5 5-28.5 1l29 179q36-3 56.5 8t26.5 47l23 148q18 113 104 156.5t212 7.5l-26-166q-79 22-95-84l-16-105q-16-99-107-104 34-2 57-32.5t15-83.5l-17-104q-7-45 8-62.5T345 56z"/><glyph glyph-name="bar" unicode="|" horiz-adv-x="309" d="M197-100H-12l144 910h209z"/><glyph glyph-name="braceright" unicode="}" horiz-adv-x="411" d="M281 56Q263-57 180-99t-216-10l26 164q45-9 66.5 11.5T86 142l16 104q9 51 38 77t70 28q-33 2-57 34t-16 82l17 104q7 45-8 62t-62 10l27 170q136 27 207-27t54-156l-23-144q-3-18 2-28.5t14.5-14T388 439t27 0l-28-178q-72 7-82-57z"/><glyph glyph-name="asciitilde" unicode="~" horiz-adv-x="606" d="M585 435q3-104-43-156t-119-52q-44 0-111.5 24T232 275q-31 0-32-43H37q-2 104 44 156t117 52q46 0 112.5-24t79.5-24q31 0 32 43h163z"/><glyph glyph-name="exclamdown" unicode="¡" horiz-adv-x="299" d="M180-220H-45l92 425h177zm99 589q-8-50-42-74.5T156 270q-53 0-84.5 33.5T50 397q8 50 42 74.5t80 24.5q54 0 85-33t22-94z"/><glyph glyph-name="cent" unicode="¢" horiz-adv-x="513" d="M488 463l-26-163q-28 14-59 20l-25-157q33 5 70 22L421 9Q388-3 351-9l-18-111h-89l16 104Q141-13 71 54.5T18 243q17 126 109.5 190T334 497h8l16 103h89l-18-115q35-10 59-22zM313 317q-71-20-80-80t56-74z"/><glyph glyph-name="sterling" unicode="£" horiz-adv-x="609" d="M532 0H-12l29 180h21q31 0 49.5 18t22.5 46l4 24H46l24 150h68l6 39q19 122 97.5 180.5T434 696q93 0 177-38l-25-165q-51 31-119 31-94 0-107-81l-4-25h165l-24-150H333l-5-26q-6-47-41-62h274z"/><glyph glyph-name="currency" unicode="¤" horiz-adv-x="558" d="M166 168l-72-63-77 87 65 60q-20 53-10 112 8 55 42 98l-45 49 92 84 51-59q44 18 98 18 56 0 100-22l74 65 76-87-68-62q21-53 11-112-8-57-42-97l46-49-94-84-50 57q-42-17-98-17-55 0-99 22zm71 177q-3-18 7.5-31t34.5-13q27 0 42 16t17 38q3 18-7.5 31.5T296 400q-27 0-42-16.5T237 345z"/><glyph glyph-name="yen" unicode="¥" horiz-adv-x="765" d="M545 680h258L566 360h92l-17-110H489l-7-39h152l-17-110H464L448 0H219l16 101H83l17 110h153l7 39H107l17 110h93L83 680h235l78-257z"/><glyph glyph-name="brokenbar" unicode="¦" horiz-adv-x="318" d="M284 420H75l62 390h209zm-83-520H-8l62 390h209z"/><glyph glyph-name="section" unicode="§" horiz-adv-x="528" d="M461 108Q438-36 205-36q-99 0-193 47l23 148q70-45 154-45 55 0 59 18 1 13-16.5 21.5T164 179q-61 22-95 57.5T44 336q9 71 90 115-60 46-48 125 12 76 78 108t159 32q102 0 188-44l-21-138q-65 37-143 37-43 0-46-20-1-6 3.5-11t14.5-9.5 21-8.5 28.5-10.5T400 499q54-23 83-57.5t20-93.5q-11-69-84-120 55-43 42-120zM254 310q9-3 25-8.5t23-7.5q23 13 26 33 5 26-36 43-6 3-22 8t-23 8q-25-13-29-34-5-27 36-42z"/><glyph glyph-name="dieresis" unicode="¨" horiz-adv-x="437" d="M541 829q-4-41-33-66t-69-25q-43 0-68.5 28T349 839q4 41 33 66t69 25q43 0 68.5-28t21.5-73zm-230 0q-4-41-33-66t-69-25q-43 0-68.5 28T119 839q4 41 33 66t69 25q43 0 68.5-28t21.5-73z"/><glyph glyph-name="copyright" unicode="©" horiz-adv-x="828" d="M806 336q-19-114-86-195.5t-156-119T374-16Q215-16 114 86.5T41 364q18 114 85.5 195.5t156 119T471 716q76 0 142-25.5t114.5-72 70.5-120 8-162.5zM558 176q-61-32-146-32-38 0-74.5 13T271 194.5 226.5 261t-5.5 95q8 52 34 92t62 62.5 75 34 78 11.5q83 0 142-34l-18-118q-41 22-91 22-43 0-74.5-18.5T391 348q-5-36 18-55t58-19q63 0 110 25zM111 345q-20-137 59-216t207-79q135 0 236 80t122 225q20 137-59 216t-207 79q-135 0-236-80T111 345z"/><glyph glyph-name="guillemotleft" unicode="«" horiz-adv-x="672" d="M605 32H398L293 222l6 41 162 185h214L494 240zm-278 0H120L15 222l6 41 162 185h214L216 240z"/><glyph glyph-name="logicalnot" unicode="¬" horiz-adv-x="578" d="M514 197H340l18 114H37l27 169h495z"/><glyph glyph-name="registered" unicode="®" horiz-adv-x="828" d="M806 336q-19-114-86-195.5t-156-119T374-16Q215-16 114 86.5T41 364q18 114 85.5 195.5t156 119T471 716q76 0 142-25.5t114.5-72 70.5-120 8-162.5zm-695 9q-20-137 59-216t207-79q135 0 236 80t122 225q20 137-59 216t-207 79q-135 0-236-80T111 345zm251-187H228l61 390h187q71 0 117.5-39T627 393q-13-78-85-108l74-127H474l-60 111h-35zm44 279l-11-67h46q46 0 52 35 2 12-6.5 22T462 437h-56z"/><glyph glyph-name="macron" unicode="¯" horiz-adv-x="360" d="M120 902h363l-23-145H97z"/><glyph glyph-name="degree" unicode="°" horiz-adv-x="442" d="M458 515q-14-87-74.5-133T236 336q-88 0-141 55T57 543q13 82 74 127.5T277 716q89 0 142-54.5T458 515zm-254 7q-2-22 9.5-34.5T247 475q26 0 42 15.5t18 41.5q2 21-9 33.5T265 578q-26 0-42.5-15.5T204 522z"/><glyph glyph-name="plusminus" unicode="±" horiz-adv-x="582" d="M439 687l-25-152h164l-26-168H388l-24-153H196l24 153H56l27 168h163l25 152h168zM494 0H-2l27 168h495z"/><glyph glyph-name="acute" unicode="´" horiz-adv-x="347" d="M313 752H119l124 164h217z"/><glyph glyph-name="paragraph" unicode="¶" horiz-adv-x="831" d="M397-220H181l75 471q-108 0-164 63.5T54 488q16 101 86 156.5T322 700h510L686-220H470l114 718h-72z"/><glyph glyph-name="periodcentered" unicode="·" horiz-adv-x="290" d="M250 225q-8-50-41.5-75T127 125q-53 0-84 33.5T21 252q8 50 42 74.5t81 24.5q54 0 85-33t21-93z"/><glyph glyph-name="cedilla" unicode="¸" horiz-adv-x="230" d="M20 0h123l-22-44q43-3 66.5-29.5T204-142q-8-50-55-72.5T41-237q-75 0-128 21l18 111q33-19 80-19 55 0 59 24 2 11-11 17.5T26.5-76-14-79z"/><glyph glyph-name="guillemotright" unicode="»" horiz-adv-x="673" d="M475 32H260l182 208-112 208h207l106-190-7-41zm-279 0H-19l182 208L51 448h207l105-190-6-41z"/><glyph glyph-name="onequarter" unicode="¼" horiz-adv-x="934" d="M741 408h137l-39-246h50L872 55h-50l-9-55H688l8 55H494l17 110zm-28-246l15 90-85-90h70zM222-16h-63l578 732h63zm-15 696h101l-47-295h69l-18-113H32l18 113h77l26 164-77-25 19 118z"/><glyph glyph-name="onehalf" unicode="½" horiz-adv-x="903" d="M219-16h-63l578 732h63zm356 393q76 41 151 41 68 0 113-37.5T872 271q-6-36-26.5-58.5T784 165q-10-6-24.5-15t-23-14-17.5-11.5-15-12.5h142L829 0H502l9 59q9 60 44.5 96.5T647 221q9 5 27 14t25 13 16.5 10 13.5 11 5 11q2 9-6 14.5t-22 5.5q-67 0-152-55zM204 680h101l-47-295h69l-18-113H29l18 113h77l26 164-77-25 19 118z"/><glyph glyph-name="threequarters" unicode="¾" horiz-adv-x="984" d="M272-16h-63l578 732h63zm519 424h137l-39-246h50L922 55h-50l-9-55H738l8 55H544l17 110zm-28-246l15 90-85-90h70zM380 566q-10-57-77-77 32-9 51.5-38t12.5-73q-18-109-181-109-90 0-152 30l18 114q59-30 122-30t67 28q2 11-5 17.5t-23 6.5h-77l17 103h54q40 0 42 21 2 11-7.5 17t-28.5 6q-70 0-134-33l19 116q67 32 135 32 66 0 111.5-34t35.5-97z"/><glyph glyph-name="questiondown" unicode="¿" horiz-adv-x="502" d="M394-196q-89-40-196-40-48 0-90 10t-77.5 31-52.5 61-8 94q6 35 28 68t50 58 56 47.5 48.5 45.5 23.5 44h193q-6-42-32-81t-53.5-61.5T232 34 205-6q-3-18 10-26t40-8q84 0 172 46zm18 565q-8-50-42-74.5T289 270q-53 0-84.5 33.5T183 397q8 50 42 74.5t80 24.5q54 0 85-33t22-94z"/><glyph glyph-name="Agrave" unicode="À" horiz-adv-x="765" d="M722 0H497l-16 93H234L189 0H-49l372 700h249zM388 413l-75-153h141l-25 152q-7 47-7 90-15-50-34-89zm178 339H383l-96 164h207z"/><glyph glyph-name="Aacute" unicode="Á" horiz-adv-x="765" d="M722 0H497l-16 93H234L189 0H-49l372 700h249zM388 413l-75-153h141l-25 152q-7 47-7 90-15-50-34-89zm145 339H339l124 164h217z"/><glyph glyph-name="Acircumflex" unicode="Â" horiz-adv-x="765" d="M722 0H497l-16 93H234L189 0H-49l372 700h249zM388 413l-75-153h141l-25 152q-7 47-7 90-15-50-34-89zm0 505h185l101-171H506l-35 60-55-60H233z"/><glyph glyph-name="Atilde" unicode="Ã" horiz-adv-x="765" d="M722 0H497l-16 93H234L189 0H-49l372 700h249zM388 413l-75-153h141l-25 152q-7 47-7 90-15-50-34-89zm291 505q10-78-27-128.5T551 739q-36 0-82.5 20T408 779q-13 0-20-11t-5-23H249q-10 77 27 128t100 51q37 0 83.5-20t59.5-20 20 11 5 23h135z"/><glyph glyph-name="Adieresis" unicode="Ä" horiz-adv-x="765" d="M722 0H497l-16 93H234L189 0H-49l372 700h249zM388 413l-75-153h141l-25 152q-7 47-7 90-15-50-34-89zm292 416q-4-41-33-66t-69-25q-43 0-68.5 28T488 839q4 41 33 66t69 25q43 0 68.5-28t21.5-73zm-230 0q-4-41-33-66t-69-25q-43 0-68.5 28T258 839q4 41 33 66t69 25q43 0 68.5-28t21.5-73z"/><glyph glyph-name="Aring" unicode="Å" horiz-adv-x="765" d="M722 0H497l-16 93H234L189 0H-49l372 700h249zM388 413l-75-153h141l-25 152q-7 47-7 90-15-50-34-89zm228 435q-9-57-51-87t-100-30q-59 0-98.5 39.5T337 876q9 54 51.5 85t98.5 31q60 0 99.5-40T616 848zm-174 15q-2-16 6-26t24-10q33 0 38 33 3 15-5 25t-25 10q-15 0-25.5-9T442 863z"/><glyph glyph-name="AE" unicode="Æ" horiz-adv-x="1042" d="M1068 700l-29-182H765l-12-81h238l-27-170H726l-14-83h280L963 0H458l15 95H259L188 0H-60l540 700h588zM379 260h120l34 206z"/><glyph glyph-name="Ccedilla" unicode="Ç" horiz-adv-x="645" d="M638 473q-53 43-145 43-82 0-146-41t-79-128q-12-76 34-118t117-42q104 0 187 50L572 23Q502-8 410-15l-14-29q43-3 66.5-29.5T479-142q-8-50-55-72.5T316-237q-75 0-128 21l18 111q33-19 80-19 55 0 59 24 2 11-11 17.5T301.5-76 261-79l30 70Q229 3 178 31t-88.5 72-53 110.5T34 361q12 73 44 134t75.5 101 97 68 107 40T465 716q117 0 204-48z"/><glyph glyph-name="Egrave" unicode="È" horiz-adv-x="621" d="M117 700h530l-29-182H318l-12-81h264l-27-170H279l-13-83h305L542 0H6zm386 52H320l-96 164h207z"/><glyph glyph-name="Eacute" unicode="É" horiz-adv-x="621" d="M117 700h530l-29-182H318l-12-81h264l-27-170H279l-13-83h305L542 0H6zm353 52H276l124 164h217z"/><glyph glyph-name="Ecircumflex" unicode="Ê" horiz-adv-x="621" d="M117 700h530l-29-182H318l-12-81h264l-27-170H279l-13-83h305L542 0H6zm208 218h185l101-171H443l-35 60-55-60H170z"/><glyph glyph-name="Edieresis" unicode="Ë" horiz-adv-x="621" d="M117 700h530l-29-182H318l-12-81h264l-27-170H279l-13-83h305L542 0H6zm500 129q-4-41-33-66t-69-25q-43 0-68.5 28T425 839q4 41 33 66t69 25q43 0 68.5-28t21.5-73zm-230 0q-4-41-33-66t-69-25q-43 0-68.5 28T195 839q4 41 33 66t69 25q43 0 68.5-28t21.5-73z"/><glyph glyph-name="Igrave" unicode="Ì" horiz-adv-x="336" d="M117 700h231L237 0H6zm233 52H167L71 916h207z"/><glyph glyph-name="Iacute" unicode="Í" horiz-adv-x="336" d="M117 700h231L237 0H6zm200 52H123l124 164h217z"/><glyph glyph-name="Icircumflex" unicode="Î" horiz-adv-x="336" d="M117 700h231L237 0H6zm55 218h185l101-171H290l-35 60-55-60H17z"/><glyph glyph-name="Idieresis" unicode="Ï" horiz-adv-x="336" d="M117 700h231L237 0H6zm347 129q-4-41-33-66t-69-25q-43 0-68.5 28T272 839q4 41 33 66t69 25q43 0 68.5-28t21.5-73zm-230 0q-4-41-33-66t-69-25q-43 0-68.5 28T42 839q4 41 33 66t69 25q43 0 68.5-28t21.5-73z"/><glyph glyph-name="Eth" unicode="Ð" horiz-adv-x="757" d="M131 700h296q176 0 257-100t55-264Q714 180 612.5 90T331 0H20l44 281H6l22 136h58zm210-506q140 0 164 164 25 148-104 148h-71l-14-89h102l-22-136H295l-14-87h60z"/><glyph glyph-name="Ntilde" unicode="Ñ" horiz-adv-x="762" d="M237 0H6l111 700h174l207-337q1 61 11 118l34 219h231L663 0H489L283 336q0-44-10-114zm420 918q10-78-27-128.5T529 739q-36 0-82.5 20T386 779q-13 0-20-11t-5-23H227q-10 77 27 128t100 51q37 0 83.5-20t59.5-20 20 11 5 23h135z"/><glyph glyph-name="Ograve" unicode="Ò" horiz-adv-x="805" d="M789 336Q765 183 653 83.5T364-16Q185-16 97 93T35 364q24 153 136 252.5T460 716t266-109 63-271zm-520 2q-8-68 21.5-106.5T383 193q71 0 117.5 45.5T556 362q9 68-20.5 106.5T442 507q-70 0-116-45.5T269 338zm315 414H401l-96 164h207z"/><glyph glyph-name="Oacute" unicode="Ó" horiz-adv-x="805" d="M789 336Q765 183 653 83.5T364-16Q185-16 97 93T35 364q24 153 136 252.5T460 716t266-109 63-271zm-520 2q-8-68 21.5-106.5T383 193q71 0 117.5 45.5T556 362q9 68-20.5 106.5T442 507q-70 0-116-45.5T269 338zm282 414H357l124 164h217z"/><glyph glyph-name="Ocircumflex" unicode="Ô" horiz-adv-x="805" d="M789 336Q765 183 653 83.5T364-16Q185-16 97 93T35 364q24 153 136 252.5T460 716t266-109 63-271zm-520 2q-8-68 21.5-106.5T383 193q71 0 117.5 45.5T556 362q9 68-20.5 106.5T442 507q-70 0-116-45.5T269 338zm137 580h185l101-171H524l-35 60-55-60H251z"/><glyph glyph-name="Otilde" unicode="Õ" horiz-adv-x="805" d="M789 336Q765 183 653 83.5T364-16Q185-16 97 93T35 364q24 153 136 252.5T460 716t266-109 63-271zm-520 2q-8-68 21.5-106.5T383 193q71 0 117.5 45.5T556 362q9 68-20.5 106.5T442 507q-70 0-116-45.5T269 338zm428 580q10-78-27-128.5T569 739q-36 0-82.5 20T426 779q-13 0-20-11t-5-23H267q-10 77 27 128t100 51q37 0 83.5-20t59.5-20 20 11 5 23h135z"/><glyph glyph-name="Odieresis" unicode="Ö" horiz-adv-x="805" d="M789 336Q765 183 653 83.5T364-16Q185-16 97 93T35 364q24 153 136 252.5T460 716t266-109 63-271zm-520 2q-8-68 21.5-106.5T383 193q71 0 117.5 45.5T556 362q9 68-20.5 106.5T442 507q-70 0-116-45.5T269 338zm429 491q-4-41-33-66t-69-25q-43 0-68.5 28T506 839q4 41 33 66t69 25q43 0 68.5-28t21.5-73zm-230 0q-4-41-33-66t-69-25q-43 0-68.5 28T276 839q4 41 33 66t69 25q43 0 68.5-28t21.5-73z"/><glyph glyph-name="multiply" unicode="×" horiz-adv-x="526" d="M259 239L116 117 20 227l142 122L59 472l124 110 103-122 142 122 97-110-143-123 104-122-125-110z"/><glyph glyph-name="Oslash" unicode="Ø" horiz-adv-x="805" d="M122-48H8L114 74Q7 181 35 364q24 153 136 252.5T460 716q105 0 180-40l63 72h114L710 625q52-52 72.5-127.5T789 336Q765 183 653 83.5T364-16q-104 0-180 39zm147 386q-7-44 8-78l210 240q-23 7-46 7-70 0-116-45.5T269 338zm69-138q23-7 44-7 71 0 117.5 45.5T555 362q8 44-8 78z"/><glyph glyph-name="Ugrave" unicode="Ù" horiz-adv-x="741" d="M530 700h230l-68-435Q646-16 328-16 265-16 211 .5T113.5 50t-63 92T43 279l67 421h231l-68-423q-7-47 13-66.5t64-19.5q98 0 115 99zm12 52H359l-96 164h207z"/><glyph glyph-name="Uacute" unicode="Ú" horiz-adv-x="741" d="M530 700h230l-68-435Q646-16 328-16 265-16 211 .5T113.5 50t-63 92T43 279l67 421h231l-68-423q-7-47 13-66.5t64-19.5q98 0 115 99zm-21 52H315l124 164h217z"/><glyph glyph-name="Ucircumflex" unicode="Û" horiz-adv-x="741" d="M530 700h230l-68-435Q646-16 328-16 265-16 211 .5T113.5 50t-63 92T43 279l67 421h231l-68-423q-7-47 13-66.5t64-19.5q98 0 115 99zM364 918h185l101-171H482l-35 60-55-60H209z"/><glyph glyph-name="Udieresis" unicode="Ü" horiz-adv-x="741" d="M530 700h230l-68-435Q646-16 328-16 265-16 211 .5T113.5 50t-63 92T43 279l67 421h231l-68-423q-7-47 13-66.5t64-19.5q98 0 115 99zm126 129q-4-41-33-66t-69-25q-43 0-68.5 28T464 839q4 41 33 66t69 25q43 0 68.5-28t21.5-73zm-230 0q-4-41-33-66t-69-25q-43 0-68.5 28T234 839q4 41 33 66t69 25q43 0 68.5-28t21.5-73z"/><glyph glyph-name="Yacute" unicode="Ý" horiz-adv-x="752" d="M443 0H214l39 239L60 700h246l82-267 164 267h270L482 239zm73 752H322l124 164h217z"/><glyph glyph-name="Thorn" unicode="Þ" horiz-adv-x="687" d="M333 609h70q65 0 117.5-14.5t93.5-45 59-85 6-128.5q-11-69-40-117.5t-75-76T461.5 103 331 91h-80L237 0H6l111 700h231zm-51-327h68q93 0 105 73 4 31-15.5 47T384 418h-80z"/><glyph glyph-name="germandbls" unicode="ß" horiz-adv-x="619" d="M584 126q-8-69-63.5-105.5T390-16q-69 0-135 27l24 156q22-11 52-11 23 0 37 10.5t16 25.5q3 20-19.5 51T320 310t-16 68q5 27 36.5 67.5T377 508q4 19-5.5 29T344 547q-51 0-61-54L206 0H-5l76 482q37 233 282 234 60 0 107-17t73-44.5 37.5-59T578 534q-5-38-48-87.5T483 370q-3-17 14-43t39-50.5 37.5-65.5 10.5-85z"/><glyph glyph-name="agrave" unicode="à" horiz-adv-x="624" d="M360 52q-54-68-158-68Q95-16 46 63.5T15 254q16 103 80.5 172.5T265 496q53 0 92.5-25t59.5-62l11 71h185L537 0H352zM228 236q-5-35 10-59t46-24q43 0 73 37l17 104q-5 15-19 24t-33 9q-38 0-63-26t-31-65zm220 306H265l-96 164h207z"/><glyph glyph-name="aacute" unicode="á" horiz-adv-x="624" d="M360 52q-54-68-158-68Q95-16 46 63.5T15 254q16 103 80.5 172.5T265 496q53 0 92.5-25t59.5-62l11 71h185L537 0H352zM228 236q-5-35 10-59t46-24q43 0 73 37l17 104q-5 15-19 24t-33 9q-38 0-63-26t-31-65zm187 306H221l124 164h217z"/><glyph glyph-name="acircumflex" unicode="â" horiz-adv-x="624" d="M360 52q-54-68-158-68Q95-16 46 63.5T15 254q16 103 80.5 172.5T265 496q53 0 92.5-25t59.5-62l11 71h185L537 0H352zM228 236q-5-35 10-59t46-24q43 0 73 37l17 104q-5 15-19 24t-33 9q-38 0-63-26t-31-65zm42 472h185l101-171H388l-35 60-55-60H115z"/><glyph glyph-name="atilde" unicode="ã" horiz-adv-x="624" d="M360 52q-54-68-158-68Q95-16 46 63.5T15 254q16 103 80.5 172.5T265 496q53 0 92.5-25t59.5-62l11 71h185L537 0H352zM228 236q-5-35 10-59t46-24q43 0 73 37l17 104q-5 15-19 24t-33 9q-38 0-63-26t-31-65zm333 472q10-78-27-128.5T433 529q-36 0-82.5 20T290 569q-13 0-20-11t-5-23H131q-10 77 27 128t100 51q37 0 83.5-20t59.5-20 20 11 5 23h135z"/><glyph glyph-name="adieresis" unicode="ä" horiz-adv-x="624" d="M360 52q-54-68-158-68Q95-16 46 63.5T15 254q16 103 80.5 172.5T265 496q53 0 92.5-25t59.5-62l11 71h185L537 0H352zM228 236q-5-35 10-59t46-24q43 0 73 37l17 104q-5 15-19 24t-33 9q-38 0-63-26t-31-65zm334 383q-4-41-33-66t-69-25q-43 0-68.5 28T370 629q4 41 33 66t69 25q43 0 68.5-28t21.5-73zm-230 0q-4-41-33-66t-69-25q-43 0-68.5 28T140 629q4 41 33 66t69 25q43 0 68.5-28t21.5-73z"/><glyph glyph-name="aring" unicode="å" horiz-adv-x="624" d="M360 52q-54-68-158-68Q95-16 46 63.5T15 254q16 103 80.5 172.5T265 496q53 0 92.5-25t59.5-62l11 71h185L537 0H352zM228 236q-5-35 10-59t46-24q43 0 73 37l17 104q-5 15-19 24t-33 9q-38 0-63-26t-31-65zm270 402q-9-57-51-87t-100-30q-59 0-98.5 39.5T219 666q9 54 51.5 85t98.5 31q60 0 99.5-40T498 638zm-174 15q-2-16 6-26t24-10q33 0 38 33 3 15-5 25t-25 10q-15 0-25.5-9T324 653z"/><glyph glyph-name="ae" unicode="æ" horiz-adv-x="924" d="M360 53q-54-69-158-69Q95-16 46 63.5T15 254q16 103 80.5 172.5T265 496q53 0 93-24.5t59-61.5l11 70h169l-10-64q52 80 153 80 76 0 119.5-43T905 342t-26-151H577q15-59 124-59 73 0 136 20L815 6q-63-22-124-22-113 0-161 74l-9-58H352zM226 236q-5-36 10-59.5t46-24.5q42 0 73 37l17 104q-5 15-19 24t-33 9q-37 0-62.5-25.5T226 236zm447 121q-35 0-56-20.5T592 289h131q7 26-5.5 47T673 357z"/><glyph glyph-name="ccedilla" unicode="ç" horiz-adv-x="490" d="M456 300q-43 23-98 23-49 0-86.5-21T228 237q-6-39 20-58.5t72-19.5q66 0 123 26L415 9q-58-19-112-23l-14-30q43-3 66.5-30t16.5-68q-8-50-55.5-72.5T208-237q-74 0-127 21l17 111q35-19 81-19 55 0 59 24 2 11-11.5 17.5t-33 6.5-40.5-3l31 72Q94 13 46.5 77T13 243q17 126 109.5 190T329 497q87 0 153-34z"/><glyph glyph-name="egrave" unicode="è" horiz-adv-x="546" d="M15 258q9 62 39.5 109.5T126 442t85 40.5 88 13.5q61 0 107-18.5t71-49.5 36.5-70.5 8.5-82-19-83.5H205q15-61 126-61 85 0 149 24L457 8q-72-24-173-24-57 0-107.5 16T85 48t-60.5 86.5T15 258zm332 31q7 26-5.5 47T297 357q-33 0-55-20.5T216 289h131zm70 243H234l-96 164h207z"/><glyph glyph-name="eacute" unicode="é" horiz-adv-x="546" d="M15 258q9 62 39.5 109.5T126 442t85 40.5 88 13.5q61 0 107-18.5t71-49.5 36.5-70.5 8.5-82-19-83.5H205q15-61 126-61 85 0 149 24L457 8q-72-24-173-24-57 0-107.5 16T85 48t-60.5 86.5T15 258zm332 31q7 26-5.5 47T297 357q-33 0-55-20.5T216 289h131zm37 243H190l124 164h217z"/><glyph glyph-name="ecircumflex" unicode="ê" horiz-adv-x="546" d="M15 258q9 62 39.5 109.5T126 442t85 40.5 88 13.5q61 0 107-18.5t71-49.5 36.5-70.5 8.5-82-19-83.5H205q15-61 126-61 85 0 149 24L457 8q-72-24-173-24-57 0-107.5 16T85 48t-60.5 86.5T15 258zm332 31q7 26-5.5 47T297 357q-33 0-55-20.5T216 289h131zM239 698h185l101-171H357l-35 60-55-60H84z"/><glyph glyph-name="edieresis" unicode="ë" horiz-adv-x="546" d="M15 258q9 62 39.5 109.5T126 442t85 40.5 88 13.5q61 0 107-18.5t71-49.5 36.5-70.5 8.5-82-19-83.5H205q15-61 126-61 85 0 149 24L457 8q-72-24-173-24-57 0-107.5 16T85 48t-60.5 86.5T15 258zm332 31q7 26-5.5 47T297 357q-33 0-55-20.5T216 289h131zm184 320q-4-41-33-66t-69-25q-43 0-68.5 28T339 619q4 41 33 66t69 25q43 0 68.5-28t21.5-73zm-230 0q-4-41-33-66t-69-25q-43 0-68.5 28T109 619q4 41 33 66t69 25q43 0 68.5-28t21.5-73z"/><glyph glyph-name="igrave" unicode="ì" horiz-adv-x="293" d="M285 532H96L36 696h212zM206 0H-5l76 480h211z"/><glyph glyph-name="iacute" unicode="í" horiz-adv-x="293" d="M206 0H-5l76 480h211zm55 532H67l124 164h217z"/><glyph glyph-name="icircumflex" unicode="î" horiz-adv-x="293" d="M206 0H-5l76 480h211zm-47 527H-17l135 171h185l81-171H213l-17 60z"/><glyph glyph-name="idieresis" unicode="ï" horiz-adv-x="293" d="M206 0H-5l76 480h211zm-24 609q-4-39-31.5-62.5T85 523q-41 0-65 26T0 618q4 39 31.5 63T97 705q41 0 65-26.5t20-69.5zm210 0q-4-39-31.5-62.5T295 523q-41 0-65 26t-20 69q4 39 31.5 63t65.5 24q41 0 65-26.5t20-69.5z"/><glyph glyph-name="eth" unicode="ð" horiz-adv-x="572" d="M545 276q-13-80-42.5-138.5t-70.5-91T344.5-1 244-16Q135-16 64 49.5T9 229q13 96 76.5 147T230 427q92 0 138-61 4 22 1 48-5 67-58 105l-80-71-60 69 50 40q-35 10-88 8l15 162q119 0 211-45l79 68 60-68-59-51q142-131 106-355zm-342-65q-4-33 11-51t44-18q30 0 49.5 18t23.5 51q6 69-56 69-30 0-49-18t-23-51z"/><glyph glyph-name="ntilde" unicode="ñ" d="M248 435q72 61 158 61 87 0 126.5-57.5T560 305L512 0H301l44 278q7 41-33 41-28 0-61-26L205 0H-6l76 480h185zm302 263q10-78-27-128.5T422 519q-36 0-82.5 20T279 559q-13 0-20-11t-5-23H120q-10 77 27 128t100 51q37 0 83.5-20t59.5-20 20 11 5 23h135z"/><glyph glyph-name="ograve" unicode="ò" d="M563 224Q544 105 459 44.5T257-16q-57 0-105 17.5T69.5 52t-50 86T15 256q19 119 102 179.5T320 496q74 0 133.5-29.5t91.5-93T563 224zm-346 11q-4-33 10-54t47-21q36 0 58.5 23t27.5 62q4 33-10 54t-47 21q-36 0-58.5-23T217 235zm217 293H251l-96 164h207z"/><glyph glyph-name="oacute" unicode="ó" d="M563 224Q544 105 459 44.5T257-16q-57 0-105 17.5T69.5 52t-50 86T15 256q19 119 102 179.5T320 496q74 0 133.5-29.5t91.5-93T563 224zm-346 11q-4-33 10-54t47-21q36 0 58.5 23t27.5 62q4 33-10 54t-47 21q-36 0-58.5-23T217 235zm184 293H207l124 164h217z"/><glyph glyph-name="ocircumflex" unicode="ô" d="M563 224Q544 105 459 44.5T257-16q-57 0-105 17.5T69.5 52t-50 86T15 256q19 119 102 179.5T320 496q74 0 133.5-29.5t91.5-93T563 224zm-346 11q-4-33 10-54t47-21q36 0 58.5 23t27.5 62q4 33-10 54t-47 21q-36 0-58.5-23T217 235zm39 459h185l101-171H374l-35 60-55-60H101z"/><glyph glyph-name="otilde" unicode="õ" d="M563 224Q544 105 459 44.5T257-16q-57 0-105 17.5T69.5 52t-50 86T15 256q19 119 102 179.5T320 496q74 0 133.5-29.5t91.5-93T563 224zm-346 11q-4-33 10-54t47-21q36 0 58.5 23t27.5 62q4 33-10 54t-47 21q-36 0-58.5-23T217 235zm330 459q10-78-27-128.5T419 515q-36 0-82.5 20T276 555q-13 0-20-11t-5-23H117q-10 77 27 128t100 51q37 0 83.5-20t59.5-20 20 11 5 23h135z"/><glyph glyph-name="odieresis" unicode="ö" d="M563 224Q544 105 459 44.5T257-16q-57 0-105 17.5T69.5 52t-50 86T15 256q19 119 102 179.5T320 496q74 0 133.5-29.5t91.5-93T563 224zm-346 11q-4-33 10-54t47-21q36 0 58.5 23t27.5 62q4 33-10 54t-47 21q-36 0-58.5-23T217 235zm331 370q-4-41-33-66t-69-25q-43 0-68.5 28T356 615q4 41 33 66t69 25q43 0 68.5-28t21.5-73zm-230 0q-4-41-33-66t-69-25q-43 0-68.5 28T126 615q4 41 33 66t69 25q43 0 68.5-28t21.5-73z"/><glyph glyph-name="divide" unicode="÷" horiz-adv-x="558" d="M527 269H24l26 163h503zM366 102q-8-50-42-74.5T243 3q-54 0-85 33t-21 94q8 49 42 73.5t80 24.5q54 0 85-33t22-93zm75 470q-8-50-42-74.5T318 473q-54 0-85 33t-21 94q8 49 42 73.5t80 24.5q54 0 85-33t22-93z"/><glyph glyph-name="oslash" unicode="ø" d="M556 543l-75-94q106-77 82-225-19-119-104-179.5T257-16q-71 0-125 25L74-64H22l75 94Q-9 104 15 256q19 119 102 179.5T320 496q70 0 126-27l59 74h51zM302 320q-35 0-58-23t-28-62q-4-30 7-47l102 129q-21 3-23 3zm-28-160q36 0 58 23t27 62q5 24-5 44L254 163q9-3 20-3z"/><glyph glyph-name="ugrave" unicode="ù" d="M372 480h211L507 0H321l8 45q-59-61-147-61T49.5 41 17 178l48 302h211l-44-275q-8-45 34-45 35 0 60 27zm66 52H255l-96 164h207z"/><glyph glyph-name="uacute" unicode="ú" d="M372 480h211L507 0H321l8 45q-59-61-147-61T49.5 41 17 178l48 302h211l-44-275q-8-45 34-45 35 0 60 27zm33 52H211l124 164h217z"/><glyph glyph-name="ucircumflex" unicode="û" d="M372 480h211L507 0H321l8 45q-59-61-147-61T49.5 41 17 178l48 302h211l-44-275q-8-45 34-45 35 0 60 27zM260 698h185l101-171H378l-35 60-55-60H105z"/><glyph glyph-name="udieresis" unicode="ü" d="M372 480h211L507 0H321l8 45q-59-61-147-61T49.5 41 17 178l48 302h211l-44-275q-8-45 34-45 35 0 60 27zm180 129q-4-41-33-66t-69-25q-43 0-68.5 28T360 619q4 41 33 66t69 25q43 0 68.5-28t21.5-73zm-230 0q-4-41-33-66t-69-25q-43 0-68.5 28T130 619q4 41 33 66t69 25q43 0 68.5-28t21.5-73z"/><glyph glyph-name="yacute" unicode="ý" horiz-adv-x="603" d="M298 220l103 260h229L367-34Q264-235 87-235q-61 0-115 20L-1-47q29-11 62-11 68 0 108 70L26 480h213zm107 312H211l124 164h217z"/><glyph glyph-name="thorn" unicode="þ" horiz-adv-x="625" d="M170-220H-41l147 920h210l-40-250q58 46 130 46 105 0 154.5-80T593 226q-16-103-79-172.5T346-16q-85 0-135 56zm64 404q14-31 53-31 36 0 61 26t32 64q5 33-8.5 58.5T324 327q-43 0-73-38z"/><glyph glyph-name="ydieresis" unicode="ÿ" horiz-adv-x="603" d="M298 220l103 260h229L367-34Q264-235 87-235q-61 0-115 20L-1-47q29-11 62-11 68 0 108 70L26 480h213zm254 389q-4-41-33-66t-69-25q-43 0-68.5 28T360 619q4 41 33 66t69 25q43 0 68.5-28t21.5-73zm-230 0q-4-41-33-66t-69-25q-43 0-68.5 28T130 619q4 41 33 66t69 25q43 0 68.5-28t21.5-73z"/><glyph glyph-name="Amacron" unicode="Ā" horiz-adv-x="765" d="M722 0H497l-16 93H234L189 0H-49l372 700h249zM388 413l-75-153h141l-25 152q-7 47-7 90-15-50-34-89zm-88 489h363l-23-145H277z"/><glyph glyph-name="amacron" unicode="ā" horiz-adv-x="624" d="M360 52q-54-68-158-68Q95-16 46 63.5T15 254q16 103 80.5 172.5T265 496q53 0 92.5-25t59.5-62l11 71h185L537 0H352zM228 236q-5-35 10-59t46-24q43 0 73 37l17 104q-5 15-19 24t-33 9q-38 0-63-26t-31-65zm-46 456h363l-23-145H159z"/><glyph glyph-name="Abreve" unicode="Ă" horiz-adv-x="765" d="M722 0H497l-16 93H234L189 0H-49l372 700h249zM388 413l-75-153h141l-25 152q-7 47-7 90-15-50-34-89zm257 377q-82-51-181-51-111 0-181 51l23 143q68-46 168-46 111 0 193 46z"/><glyph glyph-name="abreve" unicode="ă" horiz-adv-x="624" d="M360 52q-54-68-158-68Q95-16 46 63.5T15 254q16 103 80.5 172.5T265 496q53 0 92.5-25t59.5-62l11 71h185L537 0H352zM228 236q-5-35 10-59t46-24q43 0 73 37l17 104q-5 15-19 24t-33 9q-38 0-63-26t-31-65zm299 344q-82-51-181-51-111 0-181 51l23 143q68-46 168-46 111 0 193 46z"/><glyph glyph-name="Aogonek" unicode="Ą" horiz-adv-x="765" d="M722 0q-26-19-44.5-42.5T659-82q0-18 22-18 13 0 25 5l-20-127q-36-14-83-14-58 0-92.5 27.5T480-133q5 74 96 133h-79l-16 93H234L189 0H-49l372 700h249zM388 413l-75-153h141l-25 152q-7 47-7 90-15-50-34-89z"/><glyph glyph-name="aogonek" unicode="ą" horiz-adv-x="624" d="M613 480L537 0q-26-19-44.5-42.5T474-82q0-18 22-18 13 0 25 5l-20-127q-36-14-83-14-58 0-92.5 27.5T295-133q5 74 96 133h-39l8 52q-54-68-158-68Q95-16 46 63.5T15 254q16 103 80.5 172.5T265 496q53 0 92.5-25t59.5-62l11 71h185zM284 153q43 0 73 37l17 104q-5 15-19 24t-33 9q-38 0-63-26t-31-65q-5-35 10-59t46-24z"/><glyph glyph-name="Cacute" unicode="Ć" horiz-adv-x="645" d="M34 361q12 73 44 134t75.5 101 97 68 107 40T465 716q117 0 204-48l-31-195q-53 43-145 43-82 0-146-41t-79-128q-12-76 34-118t117-42q104 0 187 50L572 23q-85-39-198-39-75 0-140.5 22.5T117 73.5t-74.5 119T34 361zm504 391H344l124 164h217z"/><glyph glyph-name="cacute" unicode="ć" horiz-adv-x="490" d="M13 243q17 126 109.5 190T329 497q86 0 154-34l-26-163q-44 23-98 23-49 0-86.5-21T228 237q-6-39 20.5-58.5T321 159q67 0 122 26L416 9q-74-25-151-25-123 0-196 67.5T13 243zm363 289H182l124 164h217z"/><glyph glyph-name="Cdotaccent" unicode="Ċ" horiz-adv-x="645" d="M34 361q12 73 44 134t75.5 101 97 68 107 40T465 716q117 0 204-48l-31-195q-53 43-145 43-82 0-146-41t-79-128q-12-76 34-118t117-42q104 0 187 50L572 23q-85-39-198-39-75 0-140.5 22.5T117 73.5t-74.5 119T34 361zm544 476q-14-88-109-88-49 0-77.5 29.5T372 864q7 45 37 66.5t73 21.5q49 0 77-30t19-85z"/><glyph glyph-name="cdotaccent" unicode="ċ" horiz-adv-x="490" d="M13 243q17 126 109.5 190T329 497q86 0 154-34l-26-163q-44 23-98 23-49 0-86.5-21T228 237q-6-39 20.5-58.5T321 159q67 0 122 26L416 9q-74-25-151-25-123 0-196 67.5T13 243zm403 374q-14-88-109-88-49 0-77.5 29.5T210 644q7 45 37 66.5t73 21.5q49 0 77-30t19-85z"/><glyph glyph-name="Ccaron" unicode="Č" horiz-adv-x="645" d="M34 361q12 73 44 134t75.5 101 97 68 107 40T465 716q117 0 204-48l-31-195q-53 43-145 43-82 0-146-41t-79-128q-12-76 34-118t117-42q104 0 187 50L572 23q-85-39-198-39-75 0-140.5 22.5T117 73.5t-74.5 119T34 361zm682 562L557 752H372L267 923h174l38-65 61 65h176z"/><glyph glyph-name="ccaron" unicode="č" horiz-adv-x="490" d="M13 243q17 126 109.5 190T329 497q86 0 154-34l-26-163q-44 23-98 23-49 0-86.5-21T228 237q-6-39 20.5-58.5T321 159q67 0 122 26L416 9q-74-25-151-25-123 0-196 67.5T13 243zm541 460L395 532H210L105 703h174l38-65 61 65h176z"/><glyph glyph-name="Dcaron" unicode="Ď" horiz-adv-x="743" d="M117 700h296q177 0 257.5-100T725 336Q700 180 598.5 90T317 0H6zm375-342q25 148-104 148h-71l-49-312h60q140 0 164 164zm158 565L491 752H306L201 923h174l38-65 61 65h176z"/><glyph glyph-name="dcaron" unicode="ď" horiz-adv-x="623" d="M698 700h172l-73-215H648zm-260 0h210L537 0H352l9 57q-57-73-158-73Q99-16 49 64T16 254q15 101 80.5 171.5T265 496q88 0 131-58zm-64-405q-12 32-52 32-38 0-63-25.5T228 236q-5-36 10-59.5t46-23.5q42-1 73 37z"/><glyph glyph-name="Dcroat" unicode="Đ" horiz-adv-x="757" d="M131 700h296q176 0 257-100t55-264Q714 180 612.5 90T331 0H20l44 281H6l22 136h58zm210-506q140 0 164 164 25 148-104 148h-71l-14-89h102l-22-136H295l-14-87h60z"/><glyph glyph-name="dcroat" unicode="đ" horiz-adv-x="623" d="M638 638h59l-16-103h-59L537 0H352l9 57q-57-73-158-73Q99-16 49 64T16 254q15 101 80.5 171.5T265 496q88 0 131-58l16 97H290l16 103h122l10 62h210zM284 153q43 0 73 37l17 105q-12 32-52 32-38 0-63-25.5T228 236q-5-36 10-59.5t46-23.5z"/><glyph glyph-name="Emacron" unicode="Ē" horiz-adv-x="621" d="M117 700h530l-29-182H318l-12-81h264l-27-170H279l-13-83h305L542 0H6zm120 202h363l-23-145H214z"/><glyph glyph-name="emacron" unicode="ē" horiz-adv-x="546" d="M15 258q9 62 39.5 109.5T126 442t85 40.5 88 13.5q61 0 107-18.5t71-49.5 36.5-70.5 8.5-82-19-83.5H205q15-61 126-61 85 0 149 24L457 8q-72-24-173-24-57 0-107.5 16T85 48t-60.5 86.5T15 258zm332 31q7 26-5.5 47T297 357q-33 0-55-20.5T216 289h131zM151 682h363l-23-145H128z"/><glyph glyph-name="Edotaccent" unicode="Ė" horiz-adv-x="621" d="M117 700h530l-29-182H318l-12-81h264l-27-170H279l-13-83h305L542 0H6zm393 137q-14-88-109-88-49 0-77.5 29.5T304 864q7 45 37 66.5t73 21.5q49 0 77-30t19-85z"/><glyph glyph-name="edotaccent" unicode="ė" horiz-adv-x="546" d="M15 258q9 62 39.5 109.5T126 442t85 40.5 88 13.5q61 0 107-18.5t71-49.5 36.5-70.5 8.5-82-19-83.5H205q15-61 126-61 85 0 149 24L457 8q-72-24-173-24-57 0-107.5 16T85 48t-60.5 86.5T15 258zm332 31q7 26-5.5 47T297 357q-33 0-55-20.5T216 289h131zm77 328q-14-88-109-88-49 0-77.5 29.5T218 644q7 45 37 66.5t73 21.5q49 0 77-30t19-85z"/><glyph glyph-name="Eogonek" unicode="Ę" horiz-adv-x="621" d="M647 700l-29-182H318l-12-81h264l-27-170H279l-13-83h305L542 0q-26-19-44.5-42.5T479-82q0-18 22-18 13 0 25 5l-20-127q-36-14-83-14-58 0-92.5 27.5T300-133q5 74 96 133H6l111 700h530z"/><glyph glyph-name="eogonek" unicode="ę" horiz-adv-x="546" d="M400-223q-36-14-83-14-58 0-92.5 27.5T194-134q5 64 83 122-31 0-55 4Q118 7 58 75T15 258q9 62 39 110t71.5 74.5 85.5 40 88 13.5q61 0 106.5-18.5T476 428t37-70.5 8.5-82T503 192H205q14-61 125-61 85 0 149 24L456 8q-39-24-61-49t-22-42q0-18 22-18 15 0 25 6zM296 357q-33 0-55-20.5T215 289h131q7 26-5.5 47T296 357z"/><glyph glyph-name="Ecaron" unicode="Ě" horiz-adv-x="621" d="M117 700h530l-29-182H318l-12-81h264l-27-170H279l-13-83h305L542 0H6zm531 223L489 752H304L199 923h174l38-65 61 65h176z"/><glyph glyph-name="ecaron" unicode="ě" horiz-adv-x="546" d="M15 258q9 62 39.5 109.5T126 442t85 40.5 88 13.5q61 0 107-18.5t71-49.5 36.5-70.5 8.5-82-19-83.5H205q15-61 126-61 85 0 149 24L457 8q-72-24-173-24-57 0-107.5 16T85 48t-60.5 86.5T15 258zm332 31q7 26-5.5 47T297 357q-33 0-55-20.5T216 289h131zm215 414L403 532H218L113 703h174l38-65 61 65h176z"/><glyph glyph-name="Gbreve" unicode="Ğ" horiz-adv-x="692" d="M35 364q15 92 59.5 162T201 636t129.5 60T468 716q131 0 224-45l-31-197q-59 41-163 41-85 0-150-42.5T269 342q-13-83 24-117.5t92-34.5q20 0 37 5l32 196h216L612 28Q512-16 383-16q-78 0-146 24T118 77 44 196.5 35 364zm616 426q-82-51-181-51-111 0-181 51l23 143q68-46 168-46 111 0 193 46z"/><glyph glyph-name="gbreve" unicode="ğ" horiz-adv-x="624" d="M542 24q-22-135-110-197.5T225-236Q92-236-4-192L23-23q78-42 165-42 58 0 96.5 22T331 25l3 20Q290-5 205-5 97-5 48 72T16 259q16 100 82.5 168.5T266 496q102 0 151-80l11 64h185zM229 239q-5-36 10-59.5t46-24.5q42 0 73 38l17 105q-12 32-52 32-38 0-63-26t-31-65zm281 331q-82-51-181-51-111 0-181 51l23 143q68-46 168-46 111 0 193 46z"/><glyph glyph-name="Gdotaccent" unicode="Ġ" horiz-adv-x="692" d="M35 364q15 92 59.5 162T201 636t129.5 60T468 716q131 0 224-45l-31-197q-59 41-163 41-85 0-150-42.5T269 342q-13-83 24-117.5t92-34.5q20 0 37 5l32 196h216L612 28Q512-16 383-16q-78 0-146 24T118 77 44 196.5 35 364zm544 473q-14-88-109-88-49 0-77.5 29.5T373 864q7 45 37 66.5t73 21.5q49 0 77-30t19-85z"/><glyph glyph-name="gdotaccent" unicode="ġ" horiz-adv-x="624" d="M542 24q-22-135-110-197.5T225-236Q92-236-4-192L23-23q78-42 165-42 58 0 96.5 22T331 25l3 20Q290-5 205-5 97-5 48 72T16 259q16 100 82.5 168.5T266 496q102 0 151-80l11 64h185zM229 239q-5-36 10-59.5t46-24.5q42 0 73 38l17 105q-12 32-52 32-38 0-63-26t-31-65zm209 378q-14-88-109-88-49 0-77.5 29.5T232 644q7 45 37 66.5t73 21.5q49 0 77-30t19-85z"/><glyph glyph-name="Gcommaaccent" unicode="Ģ" horiz-adv-x="692" d="M35 364q15 92 59.5 162T201 636t129.5 60T468 716q131 0 224-45l-31-197q-59 41-163 41-85 0-150-42.5T269 342q-13-83 24-117.5t92-34.5q20 0 37 5l32 196h216L612 28Q512-16 383-16q-78 0-146 24T118 77 44 196.5 35 364zm362-651H238l64 223h188z"/><glyph glyph-name="gcommaaccent" unicode="ģ" horiz-adv-x="624" d="M408 532H233l87 216h152zM542 24q-22-135-110-197.5T225-236Q92-236-4-192L23-23q78-42 165-42 58 0 96.5 22T331 25l3 20Q290-5 205-5 97-5 48 72T16 259q16 100 82.5 168.5T266 496q102 0 151-80l11 64h185zM229 239q-5-36 10-59.5t46-24.5q42 0 73 38l17 105q-12 32-52 32-38 0-63-26t-31-65z"/><glyph glyph-name="Hbar" unicode="Ħ" horiz-adv-x="789" d="M253 0H22l82 517H39l16 105h66l12 78h230l-12-78h191l12 78h230l-12-78h66l-17-105h-65L673 0H443l40 253H293zm81 517l-11-71h191l11 71H334z"/><glyph glyph-name="hbar" unicode="ħ" d="M277 456q65 40 125 40 90 0 130-57.5T560 304L512 0H301l44 278q7 41-33 41-32 0-61-27L205 0H-6l85 535H18l16 103h61l10 62h211l-10-62h118l-16-103H290z"/><glyph glyph-name="Imacron" unicode="Ī" horiz-adv-x="336" d="M117 700h231L237 0H6zM84 902h363l-23-145H61z"/><glyph glyph-name="imacron" unicode="ī" horiz-adv-x="293" d="M338 551H44l21 132h294zM206 0H-5l76 480h211z"/><glyph glyph-name="Iogonek" unicode="Į" horiz-adv-x="336" d="M348 700L237 0q-26-19-44.5-42.5T174-82q0-18 22-18 13 0 25 5l-20-127q-36-14-83-14-58 0-92.5 27.5T-5-133Q0-59 91 0H6l111 700h231z"/><glyph glyph-name="iogonek" unicode="į" horiz-adv-x="293" d="M89 647q8 47 40.5 70.5T206 741q50 0 79-31.5t20-87.5q-7-47-39.5-70.5T189 528q-50 0-79.5 31.5T89 647zM59 0H-5l76 480h211L206 0q-57-49-57-82 0-18 22-18 13 0 25 5l-20-127q-36-14-83-14-58 0-92.5 27.5T-30-133q2 33 25 68.5T59 0z"/><glyph glyph-name="Idotaccent" unicode="İ" horiz-adv-x="336" d="M117 700h231L237 0H6zm240 137q-14-88-109-88-49 0-77.5 29.5T151 864q7 45 37 66.5t73 21.5q49 0 77-30t19-85z"/><glyph glyph-name="dotlessi" unicode="ı" horiz-adv-x="293" d="M206 0H-5l76 480h211z"/><glyph glyph-name="IJ" unicode="Ĳ" horiz-adv-x="853" d="M117 700h231L237 0H6zm362 0h392l-73-463Q758-12 493-12q-117 0-185 33l31 196q51-20 111-20 111 0 123 81l35 220H448z"/><glyph glyph-name="ij" unicode="ĳ" horiz-adv-x="587" d="M206 0H-5l76 480h211zm103 622q-7-47-39.5-70.5T193 528q-50 0-79.5 31.5T93 647q8 47 40.5 70.5T210 741q50 0 79-31.5t20-87.5zM489-64q-14-91-72-131.5T275-236q-69 0-116 20l26 166q18-6 41-6 29 0 43.5 13.5T289 2l76 478h210zm114 686q-7-47-39.5-70.5T487 528q-50 0-79.5 31.5T387 647q8 47 40.5 70.5T504 741q50 0 79-31.5t20-87.5z"/><glyph glyph-name="Kcommaaccent" unicode="Ķ" horiz-adv-x="728" d="M546 700h258L533 346 691 0H448L338 250h-62L237 0H6l111 700h231l-40-248h61zM348-277H189l64 223h188z"/><glyph glyph-name="kcommaaccent" unicode="ķ" horiz-adv-x="595" d="M397 480h234L439 230 550 0H333l-68 162h-35L205 0H-6l111 700h211l-60-374h31zM270-277H111l64 223h188z"/><glyph glyph-name="Lacute" unicode="Ĺ" horiz-adv-x="593" d="M117 700h231l-79-498h300L536 0H6zm217 52H140l124 164h217z"/><glyph glyph-name="lacute" unicode="ĺ" horiz-adv-x="294" d="M111 730h211L206 0H-5zm206 50H123l124 164h217z"/><glyph glyph-name="Lcommaaccent" unicode="Ļ" horiz-adv-x="593" d="M117 700h231l-79-498h300L536 0H6zm163-977H121l64 223h188z"/><glyph glyph-name="lcommaaccent" unicode="ļ" horiz-adv-x="294" d="M111 730h211L206 0H-5zM96-277H-63L1-54h188z"/><glyph glyph-name="Lcaron" unicode="Ľ" horiz-adv-x="597" d="M453 700h172l-79-232H401zm-336 0h231l-79-498h300L536 0H6z"/><glyph glyph-name="lcaron" unicode="ľ" horiz-adv-x="294" d="M374 730h172l-76-232H321zm-263 0h211L206 0H-5z"/><glyph glyph-name="Ldot" unicode="Ŀ" horiz-adv-x="605" d="M567 403q-7-45-37.5-66.5T457 315q-47 0-75.5 30T362 430q6 44 36.5 66t71.5 22q49 0 77.5-30.5T567 403zM117 700h231l-79-498h300L536 0H6z"/><glyph glyph-name="ldot" unicode="ŀ" horiz-adv-x="514" d="M111 730h211L206 0H-5zm415-393q-8-50-41.5-75T403 237q-53 0-84 33.5T297 364q8 50 42 74.5t81 24.5q54 0 85-33t21-93z"/><glyph glyph-name="Lslash" unicode="Ł" horiz-adv-x="644" d="M588 0H58l34 219-83-28 28 186 85 28 47 295h230l-34-214 137 47-28-186-138-47-16-98h300z"/><glyph glyph-name="lslash" unicode="ł" horiz-adv-x="399" d="M165 730h210l-44-277 75 27-24-157-76-26L259 0H49l34 214-75-27 25 158 74 26z"/><glyph glyph-name="Nacute" unicode="Ń" horiz-adv-x="762" d="M237 0H6l111 700h174l207-337q1 61 11 118l34 219h231L663 0H489L283 336q0-44-10-114zm274 752H317l124 164h217z"/><glyph glyph-name="nacute" unicode="ń" d="M248 435q72 61 158 61 87 0 126.5-57.5T560 305L512 0H301l44 278q7 41-33 41-28 0-61-26L205 0H-6l76 480h185zm156 97H210l124 164h217z"/><glyph glyph-name="Ncommaaccent" unicode="Ņ" horiz-adv-x="762" d="M237 0H6l111 700h174l207-337q1 61 11 118l34 219h231L663 0H489L283 336q0-44-10-114zm125-277H203l64 223h188z"/><glyph glyph-name="ncommaaccent" unicode="ņ" d="M248 435q72 61 158 61 87 0 126.5-57.5T560 305L512 0H301l44 278q7 41-33 41-28 0-61-26L205 0H-6l76 480h185zm5-712H94l64 223h188z"/><glyph glyph-name="Ncaron" unicode="Ň" horiz-adv-x="762" d="M237 0H6l111 700h174l207-337q1 61 11 118l34 219h231L663 0H489L283 336q0-44-10-114zm452 923L530 752H345L240 923h174l38-65 61 65h176z"/><glyph glyph-name="ncaron" unicode="ň" d="M248 435q72 61 158 61 87 0 126.5-57.5T560 305L512 0H301l44 278q7 41-33 41-28 0-61-26L205 0H-6l76 480h185zm334 268L423 532H238L133 703h174l38-65 61 65h176z"/><glyph glyph-name="Eng" unicode="Ŋ" horiz-adv-x="762" d="M660-18q-34-214-231-214-47 0-98 12l27 174q14-6 32-6 45 0 54 56l9 54-170 279q0-44-10-114L237 0H6l111 700h173l208-336q1 61 11 118l34 218h231z"/><glyph glyph-name="eng" unicode="ŋ" d="M503-58q-28-178-210-178-58 0-94 20l25 158q13-5 29-5 38 0 46 53l46 288q7 41-33 41-28 0-61-26L205 0H-6l76 480h185l-7-45q72 61 158 61 87 0 126.5-57.5T560 305z"/><glyph glyph-name="Omacron" unicode="Ō" horiz-adv-x="805" d="M789 336Q765 183 653 83.5T364-16Q185-16 97 93T35 364q24 153 136 252.5T460 716t266-109 63-271zm-520 2q-8-68 21.5-106.5T383 193q71 0 117.5 45.5T556 362q9 68-20.5 106.5T442 507q-70 0-116-45.5T269 338zm49 564h363l-23-145H295z"/><glyph glyph-name="omacron" unicode="ō" d="M563 224Q544 105 459 44.5T257-16q-57 0-105 17.5T69.5 52t-50 86T15 256q19 119 102 179.5T320 496q74 0 133.5-29.5t91.5-93T563 224zm-346 11q-4-33 10-54t47-21q36 0 58.5 23t27.5 62q4 33-10 54t-47 21q-36 0-58.5-23T217 235zm-49 443h363l-23-145H145z"/><glyph glyph-name="Ohungarumlaut" unicode="Ő" horiz-adv-x="805" d="M789 336Q765 183 653 83.5T364-16Q185-16 97 93T35 364q24 153 136 252.5T460 716t266-109 63-271zm-520 2q-8-68 21.5-106.5T383 193q71 0 117.5 45.5T556 362q9 68-20.5 106.5T442 507q-70 0-116-45.5T269 338zm400 415H496l112 168h186zm-217 0H279l104 168h185z"/><glyph glyph-name="ohungarumlaut" unicode="ő" d="M563 224Q544 105 459 44.5T257-16q-57 0-105 17.5T69.5 52t-50 86T15 256q19 119 102 179.5T320 496q74 0 133.5-29.5t91.5-93T563 224zm-346 11q-4-33 10-54t47-21q36 0 58.5 23t27.5 62q4 33-10 54t-47 21q-36 0-58.5-23T217 235zm302 294H346l112 168h186zm-217 0H129l104 168h185z"/><glyph glyph-name="OE" unicode="Œ" horiz-adv-x="1025" d="M454 0q-51-16-113-16Q174-16 91.5 93T35 364q24 152 131.5 252T438 716q64 0 118-16h495l-29-182H759l-12-81h227l-27-170H720l-13-83h268L946 0H454zM268 344q-11-71 23.5-112t87.5-41q58 0 103 26l44 274q-32 18-79 18-63 0-115-41.5T268 344z"/><glyph glyph-name="oe" unicode="œ" horiz-adv-x="902" d="M442 57q-74-73-200-73-112 0-180 72.5T15 257q19 119 100.5 179.5T310 497q108 0 167-68 74 67 185 67 68 0 118-25.5t72.5-68 26-97.5T858 192H560q15-61 126-61 85 0 149 24L812 8q-72-24-172-24-129 0-198 73zM218 235q-4-30 9-52.5t45-22.5q40 0 62.5 23.5T361 247q3 30-9.5 51.5T307 320q-40 0-62.5-23T218 235zm435 123q-33 0-55-20.5T572 290h131q7 26-5.5 47T653 358z"/><glyph glyph-name="Racute" unicode="Ŕ" horiz-adv-x="729" d="M237 0H6l111 700h320q56 0 104.5-13.5t89.5-42 60-81.5 8-123q-22-142-149-199L687 0H443L335 207h-66zm82 512l-21-132h84q34 0 58.5 19t29.5 50q4 28-12 45.5T411 512h-92zm146 240H271l124 164h217z"/><glyph glyph-name="racute" unicode="ŕ" horiz-adv-x="420" d="M248 428q64 76 190 61l-31-194q-44 15-90.5 5T246 261L205 0H-6l76 480h186zm82 104H136l124 164h217z"/><glyph glyph-name="Rcommaaccent" unicode="Ŗ" horiz-adv-x="729" d="M237 0H6l111 700h320q56 0 104.5-13.5t89.5-42 60-81.5 8-123q-22-142-149-199L687 0H443L335 207h-66zm82 512l-21-132h84q34 0 58.5 19t29.5 50q4 28-12 45.5T411 512h-92zm24-789H184l64 223h188z"/><glyph glyph-name="rcommaaccent" unicode="ŗ" horiz-adv-x="420" d="M248 428q64 76 190 61l-31-194q-44 15-90.5 5T246 261L205 0H-6l76 480h186zM96-277H-63L1-54h188z"/><glyph glyph-name="Rcaron" unicode="Ř" horiz-adv-x="729" d="M237 0H6l111 700h320q56 0 104.5-13.5t89.5-42 60-81.5 8-123q-22-142-149-199L687 0H443L335 207h-66zm82 512l-21-132h84q34 0 58.5 19t29.5 50q4 28-12 45.5T411 512h-92zm324 411L484 752H299L194 923h174l38-65 61 65h176z"/><glyph glyph-name="rcaron" unicode="ř" horiz-adv-x="420" d="M248 428q64 76 190 61l-31-194q-44 15-90.5 5T246 261L205 0H-6l76 480h186zm260 275L349 532H164L59 703h174l38-65 61 65h176z"/><glyph glyph-name="Sacute" unicode="Ś" horiz-adv-x="632" d="M69 518q15 95 100 146.5T366 716q149 0 256-61l-30-193q-95 65-211 63-76 0-79-32-1-15 22.5-29.5T384 438t76.5-31.5 74-45.5 51-69 8.5-101Q559-16 276-16 114-16 2 53l32 200q103-76 231-76 90 0 95 32 3 18-20 33.5T281.5 269 205 300t-75 44.5T78 414t-9 104zm371 234H246l124 164h217z"/><glyph glyph-name="sacute" unicode="ś" horiz-adv-x="493" d="M35 355q20 141 237 141 106 0 190-42l-24-152q-69 49-144 49-41 0-44-19-2-13 20.5-23.5t55-21.5 63.5-27.5 49.5-50T449 129q-7-43-30.5-73T358 11t-76.5-21-89.5-6Q77-16-5 28l26 163q31-26 75.5-40t81.5-15q54-3 57 16 2 13-20 23.5t-54 22-63 28-50 50T35 355zm306 177H147l124 164h217z"/><glyph glyph-name="Scedilla" unicode="Ş" horiz-adv-x="632" d="M398-142q-8-50-55.5-72.5T234-237q-74 0-127 21l17 111q35-19 81-19 55 0 59 24 2 11-11.5 17.5t-33 6.5-40.5-3l29 66Q90 0 2 53l32 200q103-76 231-76 90 0 95 32 3 18-20 33.5T281.5 269 205 300t-75 44.5T78 414t-9 104q15 95 100 146.5T366 716q149 0 256-61l-30-193q-95 65-211 63-76 0-79-32-1-15 22.5-29.5T384 438t76.5-31.5 74-45.5 51-69 8.5-101Q562 2 329-14l-14-30q43-3 66.5-30t16.5-68z"/><glyph glyph-name="scedilla" unicode="ş" horiz-adv-x="493" d="M338-142q-8-50-55.5-72.5T175-237q-75 0-128 21l17 111q35-19 81-19 55 0 59 24 2 11-11 17.5T160-76t-41-3l28 65Q59-6-5 28l26 163q31-26 75.5-40t81.5-15q54-3 57 16 2 13-20 23.5t-54 22-63 28-50 50T35 355q20 141 237 141 106 0 190-42l-24-152q-69 49-144 49-41 0-44-19-2-13 20.5-23.5t55-21.5 63.5-27.5 49.5-50T449 129Q430 8 271-12l-16-32q43-3 66.5-30t16.5-68z"/><glyph glyph-name="Scaron" unicode="Š" horiz-adv-x="632" d="M69 518q15 95 100 146.5T366 716q149 0 256-61l-30-193q-95 65-211 63-76 0-79-32-1-15 22.5-29.5T384 438t76.5-31.5 74-45.5 51-69 8.5-101Q559-16 276-16 114-16 2 53l32 200q103-76 231-76 90 0 95 32 3 18-20 33.5T281.5 269 205 300t-75 44.5T78 414t-9 104zm549 405L459 752H274L169 923h174l38-65 61 65h176z"/><glyph glyph-name="scaron" unicode="š" horiz-adv-x="493" d="M35 355q20 141 237 141 106 0 190-42l-24-152q-69 49-144 49-41 0-44-19-2-13 20.5-23.5t55-21.5 63.5-27.5 49.5-50T449 129q-7-43-30.5-73T358 11t-76.5-21-89.5-6Q77-16-5 28l26 163q31-26 75.5-40t81.5-15q54-3 57 16 2 13-20 23.5t-54 22-63 28-50 50T35 355zm484 348L360 532H175L70 703h174l38-65 61 65h176z"/><glyph glyph-name="Tcommaaccent" unicode="Ţ" horiz-adv-x="630" d="M77 700h606l-32-202H463L384 0H154l79 498H45zm191-977H109l64 223h188z"/><glyph glyph-name="tcommaaccent" unicode="ţ" horiz-adv-x="433" d="M132 609l219 49-28-178h107l-27-168H296l-18-113q-4-24 7.5-34t36.5-10q32 0 65 11L361 2q-60-19-129-19-37 0-68 9.5t-58.5 30-39 59.5-3.5 92l22 138H18l27 168h67zm99-886H72l64 223h188z"/><glyph glyph-name="Tcaron" unicode="Ť" horiz-adv-x="630" d="M77 700h606l-32-202H463L384 0H154l79 498H45zm561 223L479 752H294L189 923h174l38-65 61 65h176z"/><glyph glyph-name="tcaron" unicode="ť" horiz-adv-x="432" d="M438 762h172l-76-232H385zM132 609l219 49-28-178h107l-27-168H296l-18-113q-4-24 7.5-34t36.5-10q32 0 65 11L361 2q-60-19-129-19-37 0-68 9.5t-58.5 30-39 59.5-3.5 92l22 138H18l27 168h67z"/><glyph glyph-name="Tbar" unicode="Ŧ" horiz-adv-x="641" d="M389 0H159l38 238H85l22 137h111l20 123H50l32 202h606l-32-202H468l-20-123h112l-21-137H427z"/><glyph glyph-name="tbar" unicode="ŧ" horiz-adv-x="433" d="M430 480l-25-158H298l-7-42h93l-12-73h-92l-3-14q-3-20 9-29t37-9q33 0 64 11L362 2q-60-19-129-19-37 0-68 9.5t-58.5 30-39 59.5-3.5 92l5 33H31l11 73h38l7 42H20l25 158h67l21 129 219 49-29-178h107z"/><glyph glyph-name="Umacron" unicode="Ū" horiz-adv-x="741" d="M530 700h230l-68-435Q646-16 328-16 265-16 211 .5T113.5 50t-63 92T43 279l67 421h231l-68-423q-7-47 13-66.5t64-19.5q98 0 115 99zM276 902h363l-23-145H253z"/><glyph glyph-name="umacron" unicode="ū" d="M372 480h211L507 0H321l8 45q-59-61-147-61T49.5 41 17 178l48 302h211l-44-275q-8-45 34-45 35 0 60 27zM172 682h363l-23-145H149z"/><glyph glyph-name="Uring" unicode="Ů" horiz-adv-x="741" d="M530 700h230l-68-435Q646-16 328-16 265-16 211 .5T113.5 50t-63 92T43 279l67 421h231l-68-423q-7-47 13-66.5t64-19.5q98 0 115 99zm62 148q-9-57-51-87t-100-30q-59 0-98.5 39.5T313 876q9 54 51.5 85t98.5 31q60 0 99.5-40T592 848zm-174 15q-2-16 6-26t24-10q33 0 38 33 3 15-5 25t-25 10q-15 0-25.5-9T418 863z"/><glyph glyph-name="uring" unicode="ů" d="M372 480h211L507 0H321l8 45q-59-61-147-61T49.5 41 17 178l48 302h211l-44-275q-8-45 34-45 35 0 60 27zm116 148q-9-57-51-87t-100-30q-59 0-98.5 39.5T209 656q9 54 51.5 85t98.5 31q60 0 99.5-40T488 628zm-174 15q-2-16 6-26t24-10q33 0 38 33 3 15-5 25t-25 10q-15 0-25.5-9T314 643z"/><glyph glyph-name="Uhungarumlaut" unicode="Ű" horiz-adv-x="741" d="M530 700h230l-68-435Q646-16 328-16 265-16 211 .5T113.5 50t-63 92T43 279l67 421h231l-68-423q-7-47 13-66.5t64-19.5q98 0 115 99zm97 53H454l112 168h186zm-217 0H237l104 168h185z"/><glyph glyph-name="uhungarumlaut" unicode="ű" horiz-adv-x="593" d="M372 480h211L507 0H321l8 45q-59-61-147-61T49.5 41 17 178l48 302h211l-44-275q-8-45 34-45 35 0 60 27zm151 53H350l112 168h186zm-217 0H133l104 168h185z"/><glyph glyph-name="Uogonek" unicode="Ų" horiz-adv-x="741" d="M465 290l65 410h230l-68-435Q669 126 577 55 469-30 469-82q0-18 23-18 12 0 25 5l-20-127q-38-14-83-14-58 0-92.5 27.5T290-133q5 66 83 118-15-1-45-1-63 0-117 16.5T113.5 50t-63 92T43 279l67 421h231l-68-423q-7-47 13-66.5t64-19.5q98 0 115 99z"/><glyph glyph-name="uogonek" unicode="ų" d="M326 187l46 293h211L507 0h-1q-26-19-44.5-42.5T443-82q0-18 22-18 13 0 25 5l-20-127q-36-14-83-14-58 0-92.5 27.5T264-133q5 74 96 133h-39l8 45q-59-61-147-61T49.5 41 17 178l48 302h211l-44-275q-8-45 34-45 35 0 60 27z"/><glyph glyph-name="Wcircumflex" unicode="Ŵ" horiz-adv-x="1111" d="M917 700h256L851 0H599l-35 353L413 0H167L67 700h240l32-422 177 422h191l40-422zM546 918h185l101-171H664l-35 60-55-60H391z"/><glyph glyph-name="wcircumflex" unicode="ŵ" horiz-adv-x="846" d="M648 480h223L642 0H437l-25 237L308 0H108L36 480h206l16-263 108 263h161l23-263zM384 698h185l101-171H502l-35 60-55-60H229z"/><glyph glyph-name="Ycircumflex" unicode="Ŷ" horiz-adv-x="752" d="M443 0H214l39 239L60 700h246l82-267 164 267h270L482 239zm-72 918h185l101-171H489l-35 60-55-60H216z"/><glyph glyph-name="ycircumflex" unicode="ŷ" horiz-adv-x="603" d="M298 220l103 260h229L367-34Q264-235 87-235q-61 0-115 20L-1-47q29-11 62-11 68 0 108 70L26 480h213zm-38 478h185l101-171H378l-35 60-55-60H105z"/><glyph glyph-name="Ydieresis" unicode="Ÿ" horiz-adv-x="752" d="M443 0H214l39 239L60 700h246l82-267 164 267h270L482 239zm220 829q-4-41-33-66t-69-25q-43 0-68.5 28T471 839q4 41 33 66t69 25q43 0 68.5-28t21.5-73zm-230 0q-4-41-33-66t-69-25q-43 0-68.5 28T241 839q4 41 33 66t69 25q43 0 68.5-28t21.5-73z"/><glyph glyph-name="Zacute" unicode="Ź" horiz-adv-x="645" d="M570 0H-19L4 146l312 352H77l31 202h561l-23-147-312-351h268zM462 752H268l124 164h217z"/><glyph glyph-name="zacute" unicode="ź" horiz-adv-x="505" d="M72 480h422l-20-123-192-189h176L432 0H-19L0 123l192 189H46zm300 52H178l124 164h217z"/><glyph glyph-name="Zdotaccent" unicode="Ż" horiz-adv-x="645" d="M570 0H-19L4 146l312 352H77l31 202h561l-23-147-312-351h268zm-68 837q-14-88-109-88-49 0-77.5 29.5T296 864q7 45 37 66.5t73 21.5q49 0 77-30t19-85z"/><glyph glyph-name="zdotaccent" unicode="ż" horiz-adv-x="505" d="M72 480h422l-20-123-192-189h176L432 0H-19L0 123l192 189H46zm340 137q-14-88-109-88-49 0-77.5 29.5T206 644q7 45 37 66.5t73 21.5q49 0 77-30t19-85z"/><glyph glyph-name="Zcaron" unicode="Ž" horiz-adv-x="645" d="M570 0H-19L4 146l312 352H77l31 202h561l-23-147-312-351h268zm70 923L481 752H296L191 923h174l38-65 61 65h176z"/><glyph glyph-name="zcaron" unicode="ž" horiz-adv-x="505" d="M72 480h422l-20-123-192-189h176L432 0H-19L0 123l192 189H46zm478 223L391 532H206L101 703h174l38-65 61 65h176z"/><glyph glyph-name="Scommaaccent" unicode="Ș" horiz-adv-x="632" d="M69 518q15 95 100 146.5T366 716q149 0 256-61l-30-193q-95 65-211 63-76 0-79-32-1-15 22.5-29.5T384 438t76.5-31.5 74-45.5 51-69 8.5-101Q559-16 276-16 114-16 2 53l32 200q103-76 231-76 90 0 95 32 3 18-20 33.5T281.5 269 205 300t-75 44.5T78 414t-9 104zm224-795H134l64 223h188z"/><glyph glyph-name="scommaaccent" unicode="ș" horiz-adv-x="493" d="M35 355q20 141 237 141 106 0 190-42l-24-152q-69 49-144 49-41 0-44-19-2-13 20.5-23.5t55-21.5 63.5-27.5 49.5-50T449 129q-7-43-30.5-73T358 11t-76.5-21-89.5-6Q77-16-5 28l26 163q31-26 75.5-40t81.5-15q54-3 57 16 2 13-20 23.5t-54 22-63 28-50 50T35 355zm184-632H60l64 223h188z"/><glyph glyph-name="uni021A" unicode="Ț" horiz-adv-x="630" d="M77 700h606l-32-202H463L384 0H154l79 498H45zm191-977H109l64 223h188z"/><glyph glyph-name="uni021B" unicode="ț" horiz-adv-x="433" d="M132 609l219 49-28-178h107l-27-168H296l-18-113q-4-24 7.5-34t36.5-10q32 0 65 11L361 2q-60-19-129-19-37 0-68 9.5t-58.5 30-39 59.5-3.5 92l22 138H18l27 168h67zm99-886H72l64 223h188z"/><glyph glyph-name="circumflex" unicode="ˆ" horiz-adv-x="418" d="M239 918h185l101-171H357l-35 60-55-60H84z"/><glyph glyph-name="caron" unicode="ˇ" horiz-adv-x="418" d="M560 923L401 752H216L111 923h174l38-65 61 65h176z"/><glyph glyph-name="breve" unicode="˘" horiz-adv-x="427" d="M495 790q-82-51-181-51-111 0-181 51l23 143q68-46 168-46 111 0 193 46z"/><glyph glyph-name="dotaccent" unicode="˙" horiz-adv-x="211" d="M322 837q-14-88-109-88-49 0-77.5 29.5T116 864q7 45 37 66.5t73 21.5q49 0 77-30t19-85z"/><glyph glyph-name="ring" unicode="˚" horiz-adv-x="277" d="M393 848q-9-57-51-87t-100-30q-59 0-98.5 39.5T114 876q9 54 51.5 85t98.5 31q60 0 99.5-40T393 848zm-174 15q-2-16 6-26t24-10q33 0 38 33 3 15-5 25t-25 10q-15 0-25.5-9T219 863z"/><glyph glyph-name="ogonek" unicode="˛" horiz-adv-x="237" d="M58 0h146q-26-19-44.5-42.5T141-82q0-18 22-18 13 0 25 5l-20-127q-36-14-83-14-58 0-92.5 27.5T-38-133q5 74 96 133z"/><glyph glyph-name="tilde" unicode="˜" horiz-adv-x="420" d="M535 918q10-78-27-128.5T407 739q-36 0-82.5 20T264 779q-13 0-20-11t-5-23H105q-10 77 27 128t100 51q37 0 83.5-20t59.5-20 20 11 5 23h135z"/><glyph glyph-name="hungarumlaut" unicode="˝" horiz-adv-x="504" d="M510 753H337l112 168h186zm-217 0H120l104 168h185z"/><glyph glyph-name="uni0326" unicode="̦" horiz-adv-x="250" d="M136-277H-23L41-54h188z"/><glyph glyph-name="uni0401" unicode="Ё" horiz-adv-x="621" d="M617 829q-4-41-33-66t-69-25q-43 0-68.5 28T425 839q4 41 33 66t69 25q43 0 68.5-28t21.5-73zm-230 0q-4-41-33-66t-69-25q-43 0-68.5 28T195 839q4 41 33 66t69 25q43 0 68.5-28t21.5-73zM117 700h530l-29-182H318l-12-81h264l-27-170H279l-13-83h305L542 0H6z"/><glyph glyph-name="uni0410" unicode="А" horiz-adv-x="765" d="M722 0H497l-16 93H234L189 0H-49l372 700h249zM388 413l-75-153h141l-25 152q-7 47-7 90-15-50-34-89z"/><glyph glyph-name="uni0411" unicode="Б" horiz-adv-x="681" d="M308 449h107q40 0 76-6.5t70-23.5 56.5-43 32.5-68.5 1-96.5q-10-63-38-106.5t-70.5-65T455 9 354 0H6l111 700h553l-29-185H318zm-44-281h78q76 0 84 58 5 29-12 42t-48 13h-84z"/><glyph glyph-name="uni0412" unicode="В" horiz-adv-x="697" d="M117 700h341q115 0 178-49t49-142q-8-51-36.5-85.5T563 368q55-18 82.5-64.5T662 187Q645 82 563 41T352 0H6zm323-472q5 26-9.5 41T383 284H282l-18-114h93q73 0 83 58zm20 251q4 22-8.5 36.5T410 530h-89l-17-103 82-1q30 0 49.5 14.5T460 479z"/><glyph glyph-name="uni0413" unicode="Г" horiz-adv-x="588" d="M237 0H6l111 700h525l-32-202H316z"/><glyph glyph-name="uni0414" unicode="Д" horiz-adv-x="850" d="M156-136H-49L3 194h76q78 105 119.5 229T264 700h537l-81-506h91l-52-330H554L576 0H177zm292 640q-46-205-122-310h166l50 310h-94z"/><glyph glyph-name="uni0415" unicode="Е" horiz-adv-x="621" d="M117 700h530l-29-182H318l-12-81h264l-27-170H279l-13-83h305L542 0H6z"/><glyph glyph-name="uni0416" unicode="Ж" horiz-adv-x="1046" d="M857 700h255L873 329 994 0H760l-82 250h-47L592 0H361l40 250h-41L203 0H-47l239 356L66 700h236l87-248h44l39 248h231l-39-248h43z"/><glyph glyph-name="uni0417" unicode="З" horiz-adv-x="629" d="M588 178Q557-16 264-16 125-16-9 33l31 195q108-48 225-48 113 2 121 54 3 19-10.5 28t-38.5 9H145l28 168h138q62 0 69 36 3 21-17 32.5T302 519q-106 0-232-56l33 210q117 43 237 43 136 0 212-55t60-157q-15-101-130-139 128-46 106-187z"/><glyph glyph-name="uni0418" unicode="И" horiz-adv-x="756" d="M768 700L657 0H427l33 205q9 65 25 113L197 0H6l111 700h231l-33-205q-13-76-25-112l287 317h191z"/><glyph glyph-name="uni0419" unicode="Й" horiz-adv-x="756" d="M768 700L657 0H427l33 205q9 65 25 113L197 0H6l111 700h231l-33-205q-13-76-25-112l287 317h191zm-127 90q-82-51-181-51-111 0-181 51l23 143q68-46 168-46 111 0 193 46z"/><glyph glyph-name="uni041A" unicode="К" horiz-adv-x="728" d="M546 700h258L533 346 691 0H448L338 250h-62L237 0H6l111 700h231l-40-248h61z"/><glyph glyph-name="uni041B" unicode="Л" horiz-adv-x="756" d="M220 700h548L657 0H427l79 498H406q-12-56-19.5-90t-20-84-23-81-27-70.5-33-63.5-39-50-48-40T139-4t-69-9Q2-13-43 8l31 196q25-13 57-5 17 3 33 16t29 36 24 47.5 21 61 17.5 66T185 498t13 70.5 12 70 10 61.5z"/><glyph glyph-name="uni041C" unicode="М" horiz-adv-x="906" d="M698 700h220L807 0H582l52 325-136-177H367l-83 178L231 0H6l111 700h198l145-312z"/><glyph glyph-name="uni041D" unicode="Н" horiz-adv-x="756" d="M538 700h230L657 0H427l39 249H276L237 0H6l111 700h231l-40-249h191z"/><glyph glyph-name="uni041E" unicode="О" horiz-adv-x="805" d="M789 336Q765 183 653 83.5T364-16Q185-16 97 93T35 364q24 153 136 252.5T460 716t266-109 63-271zm-520 2q-8-68 21.5-106.5T383 193q71 0 117.5 45.5T556 362q9 68-20.5 106.5T442 507q-70 0-116-45.5T269 338z"/><glyph glyph-name="uni041F" unicode="П" horiz-adv-x="761" d="M236 0H6l111 700h656L662 0H432l79 498H315z"/><glyph glyph-name="uni0420" unicode="Р" horiz-adv-x="689" d="M117 700h301q66 0 119-14.5t93.5-45 57.5-85 5-127.5q-21-135-107.5-190T349 183h-83L237 0H6zm351-256q6 33-14 49.5T397 510h-79l-22-137h71q90 0 101 71z"/><glyph glyph-name="uni0421" unicode="С" horiz-adv-x="645" d="M34 361q12 73 44 134t75.5 101 97 68 107 40T465 716q117 0 204-48l-31-195q-53 43-145 43-82 0-146-41t-79-128q-12-76 34-118t117-42q104 0 187 50L572 23q-85-39-198-39-75 0-140.5 22.5T117 73.5t-74.5 119T34 361z"/><glyph glyph-name="uni0422" unicode="Т" horiz-adv-x="630" d="M77 700h606l-32-202H463L384 0H154l79 498H45z"/><glyph glyph-name="uni0423" unicode="У" horiz-adv-x="706" d="M439 154Q332-16 176-16 97-16 40 7l29 183q31-14 75-14 54 0 86 37l17 21L57 700h233l92-282 149 282h245z"/><glyph glyph-name="uni0424" unicode="Ф" horiz-adv-x="888" d="M496-47H289l16 91Q164 57 80 142.5T18 364q21 131 121 207.5T401 657l14 90h207l-14-90q140-14 222-99.5T891 336q-21-130-121-206T510 43zM242 347q-7-44 13.5-80t80.5-43l39 249q-115-15-133-126zm335 129l-40-250q113 16 131 128 7 44-12.5 79.5T577 476z"/><glyph glyph-name="uni0425" unicode="Х" horiz-adv-x="730" d="M208 0H-67l304 358L60 700h260l74-177 136 177h275L517 360 702 0H442l-83 190z"/><glyph glyph-name="uni0426" unicode="Ц" horiz-adv-x="815" d="M723-136H523L545 0H6l111 700h231l-79-498h191l79 498h231l-79-498h85z"/><glyph glyph-name="uni0427" unicode="Ч" horiz-adv-x="706" d="M607 0H377l35 221q-63-21-136-21-113 0-178 64.5T51 445l41 255h230l-38-241q-9-59 68-59 48 0 91 20l45 280h230z"/><glyph glyph-name="uni0428" unicode="Ш" horiz-adv-x="1037" d="M938 0H6l111 700h231l-79-498h120l79 498h231l-79-498h120l79 498h230z"/><glyph glyph-name="uni0429" unicode="Щ" horiz-adv-x="1095" d="M1003-136H803L825 0H6l111 700h231l-79-498h120l79 498h231l-79-498h120l79 498h230l-78-498h85z"/><glyph glyph-name="uni042A" unicode="Ъ" horiz-adv-x="787" d="M429 0H118l79 498H45l32 202h382l-31-200h70q61 0 110.5-13t90.5-42 58.5-82.5T763 236q-11-69-40.5-116.5t-76-73-99-36T429 0zm-31 310l-19-120h68q83 0 93 62 4 27-13.5 42.5T477 310h-79z"/><glyph glyph-name="uni042B" unicode="Ы" horiz-adv-x="987" d="M317 0H6l111 700h231l-32-200h70q61 0 110.5-13t90.5-42 58.5-82.5T652 236q-11-69-41-116.5t-76.5-73-99-36T317 0zm-31 310l-19-120h68q83 0 93 62 4 27-13.5 42.5T365 310h-79zM888 0H657l111 700h231z"/><glyph glyph-name="uni042C" unicode="Ь" horiz-adv-x="676" d="M317 0H6l111 700h231l-32-200h70q61 0 110.5-13t90.5-42 58.5-82.5T652 236q-11-69-41-116.5t-76.5-73-99-36T317 0zm-31 310l-19-120h68q83 0 93 62 4 27-13.5 42.5T365 310h-79z"/><glyph glyph-name="uni042D" unicode="Э" horiz-adv-x="647" d="M96 675q86 41 201 41 57 0 110-14t100-43.5 78-75.5 44.5-109-.5-145q-11-72-40.5-130.5t-70.5-98-94-66T314-4 194-16Q82-16-6 29l30 189q65-42 160-42 151 0 201 89H130l28 174h257q-22 85-158 87-108 0-192-50z"/><glyph glyph-name="uni042E" unicode="Ю" horiz-adv-x="1118" d="M1102 336q-24-153-136.5-252.5T676-16q-144 0-226.5 73T354 249h-78L237 0H6l111 700h231l-40-249h72q44 123 146 194t247 71q118 0 199.5-51.5t114-137.5 15.5-191zm-521 2q-8-68 21.5-106.5T695 193q71 0 117.5 45.5T868 362q9 68-20.5 106.5T754 507q-70 0-116-45.5T581 338z"/><glyph glyph-name="uni042F" unicode="Я" horiz-adv-x="726" d="M216 0H-49l220 256Q55 325 78 465q10 65 41.5 112t78 73 98.5 38 112 12h330L627 0H397l32 207h-39zm91 449q-5-30 11.5-49.5T370 380h87l21 132h-80q-38 0-62.5-16.5T307 449z"/><glyph glyph-name="uni0430" unicode="а" horiz-adv-x="624" d="M360 52q-54-68-158-68Q95-16 46 63.5T15 254q16 103 80.5 172.5T265 496q53 0 92.5-25t59.5-62l11 71h185L537 0H352zM228 236q-5-35 10-59t46-24q43 0 73 37l17 104q-5 15-19 24t-33 9q-38 0-63-26t-31-65z"/><glyph glyph-name="uni0431" unicode="б" horiz-adv-x="581" d="M548 194Q532 88 453 36T263-16q-54 0-98.5 15.5t-81 50-52 98T28 299q30 223 189 317 66 37 143 51t134.5 22 86.5 32l-23-194q-31-26-110-38t-105-23q-34-11-63.5-41T242 363q57 64 142 64t133.5-61T548 194zm-326 13q-4-63 50-63 34 0 53 23.5t22 56.5q5 63-51 63-34 0-52.5-23.5T222 207z"/><glyph glyph-name="uni0432" unicode="в" horiz-adv-x="557" d="M324 0H-6l76 480h309q49 0 82.5-13.5t48.5-36 20-45 1-46.5q-11-70-95-103 91-29 76-124-8-45-50.5-78.5T324 0zM222 188l-10-68h54q48 0 52 36 2 14-6 23t-27 9h-63zm27 171l-11-68h47q49 0 54 35 2 15-6.5 24t-28.5 9h-55z"/><glyph glyph-name="uni0433" unicode="г" horiz-adv-x="438" d="M205 0H-6l76 480h384l-26-168H254z"/><glyph glyph-name="uni0434" unicode="д" horiz-adv-x="675" d="M139-123H-50l42 271h65q92 133 115 332h440l-53-332h74l-42-271H402L422 0H158zm191 454q-24-121-69-183h108l31 183h-70z"/><glyph glyph-name="uni0435" unicode="е" horiz-adv-x="545" d="M15 258q9 62 39.5 109.5T126 442t85 40.5 88 13.5q61 0 107-18.5t71-49.5 36.5-70.5 8.5-82-19-83.5H205q15-61 126-61 85 0 149 24L457 8q-72-24-173-24-57 0-107.5 16T85 48t-60.5 86.5T15 258zm332 31q7 26-5.5 47T297 357q-33 0-55-20.5T216 289h131z"/><glyph glyph-name="uni0436" unicode="ж" horiz-adv-x="861" d="M173 0H-50l173 254-78 226h204l53-163h32l26 163h203l-25-163h33l95 163h220L723 223 804 0H598l-53 153h-34L487 0H284l23 153h-36z"/><glyph glyph-name="uni0437" unicode="з" horiz-adv-x="506" d="M457 120Q436-16 185-16 61-16-17 26L4 163q67-37 154-37 84 0 89 35 5 27-49 27H96l17 109h81q64 0 69 30 2 13-11.5 20t-41.5 7q-92 0-170-37l22 146q81 33 207 33 64 0 110-14.5t68.5-38.5 30.5-49.5 4-52.5q-12-74-93-99 39-13 57-45.5t11-76.5z"/><glyph glyph-name="uni0438" unicode="и" horiz-adv-x="604" d="M161 0H-6l76 480h198l-29-185 187 185h167L517 0H319l28 184z"/><glyph glyph-name="uni0439" unicode="й" horiz-adv-x="604" d="M517 572q-70-46-169-46-96 0-170 46l21 135q72-41 158-41 99 0 181 41zM161 0H-6l76 480h198l-29-185 187 185h167L517 0H319l28 184z"/><glyph glyph-name="uni043A" unicode="к" horiz-adv-x="595" d="M205 0H-6l76 480h211l-25-154h32l110 154h233L439 230 550 0H333l-68 162h-35z"/><glyph glyph-name="uni043B" unicode="л" horiz-adv-x="617" d="M314 316q-35-166-92-247.5T69-13Q8-13-37 6l27 167q14-7 39-7 42 2 66 76t51 238h460L530 0H320l50 316h-56z"/><glyph glyph-name="uni043C" unicode="м" horiz-adv-x="684" d="M185 0H-6l76 480h168l95-206 164 206h176L597 0H406l34 202-94-118h-72l-56 121z"/><glyph glyph-name="uni043D" unicode="н" horiz-adv-x="600" d="M205 0H-6l76 480h211l-26-159h98l25 159h211L513 0H302l26 159h-98z"/><glyph glyph-name="uni043E" unicode="о" d="M563 224Q544 105 459 44.5T257-16q-57 0-105 17.5T69.5 52t-50 86T15 256q19 119 102 179.5T320 496q74 0 133.5-29.5t91.5-93T563 224zm-346 11q-4-33 10-54t47-21q36 0 58.5 23t27.5 62q4 33-10 54t-47 21q-36 0-58.5-23T217 235z"/><glyph glyph-name="uni043F" unicode="п" horiz-adv-x="596" d="M205 0H-6l76 480h515L509 0H299l49 312h-94z"/><glyph glyph-name="uni0440" unicode="р" horiz-adv-x="625" d="M247 424q63 72 159 72 105 0 154.5-80T593 226q-16-103-79-172.5T346-16q-85 0-135 56l-41-260H-41L71 480h185zm133-181q5 33-8.5 58.5T324 327q-43 0-73-38l-17-105q14-31 53-31 36 0 61 26t32 64z"/><glyph glyph-name="uni0441" unicode="с" horiz-adv-x="491" d="M13 243q17 126 109.5 190T329 497q86 0 154-34l-26-163q-44 23-98 23-49 0-86.5-21T228 237q-6-39 20.5-58.5T321 159q67 0 122 26L416 9q-74-25-151-25-123 0-196 67.5T13 243z"/><glyph glyph-name="uni0442" unicode="т" horiz-adv-x="487" d="M303 0H92l50 312H18l27 168h457l-26-168H352z"/><glyph glyph-name="uni0443" unicode="у" horiz-adv-x="603" d="M298 220l103 260h229L367-34Q264-235 87-235q-61 0-115 20L-1-47q29-11 62-11 68 0 108 70L26 480h213z"/><glyph glyph-name="uni0444" unicode="ф" horiz-adv-x="798" d="M414-220H219l33 204Q137-10 65.5 64T13 254q17 108 102.5 171.5T332 495l33 205h195l-33-204q117-6 188-80t53-190Q750 117 665 53.5T446-16zM212 238q-5-33 11.5-59.5T280 148l29 181q-84-9-97-91zm286 93l-28-180q85 9 98 91 5 32-12.5 58.5T498 331z"/><glyph glyph-name="uni0445" unicode="х" horiz-adv-x="570" d="M174 0H-56l208 245L31 480h211l52-110 81 110h229L403 239 531 0H310l-49 111z"/><glyph glyph-name="uni0446" unicode="ц" horiz-adv-x="649" d="M559-123H375L395 0H-6l76 480h211l-50-312h94l50 312h210l-49-314h68z"/><glyph glyph-name="uni0447" unicode="ч" horiz-adv-x="570" d="M483 0H272l21 129q-45-14-102-14-35 0-67 10.5T66 157t-38 57-5 82l29 184h211l-26-165q-6-34 31-34 28 0 51 12l29 187h211z"/><glyph glyph-name="uni0448" unicode="ш" horiz-adv-x="856" d="M769 0H-6l76 480h211l-50-312h72l49 312h211l-50-312h72l50 312h210z"/><glyph glyph-name="uni0449" unicode="щ" horiz-adv-x="908" d="M818-123H635L655 0H-6l76 480h211l-50-312h72l49 312h211l-50-312h72l50 312h210l-49-314h68z"/><glyph glyph-name="uni044A" unicode="ъ" horiz-adv-x="648" d="M390 0H81l52 323H18l25 157h325l-19-123h88q93 0 142-55t36-137q-12-73-69.5-119T390 0zm-61 229l-15-95h35q56 0 65 50 2 17-8 31t-32 14h-45z"/><glyph glyph-name="uni044B" unicode="ы" horiz-adv-x="851" d="M303 0H-6l76 480h211l-20-123h88q94 0 143-55t35-137q-11-73-68.5-119T303 0zm-62 229l-15-95h35q56 0 65 50 2 17-8 31t-32 14h-45zM764 0H553l76 480h211z"/><glyph glyph-name="uni044C" unicode="ь" horiz-adv-x="562" d="M303 0H-6l76 480h211l-20-123h88q94 0 143-55t35-137q-11-73-68.5-119T303 0zm-62 229l-15-95h35q56 0 65 50 2 17-8 31t-32 14h-45z"/><glyph glyph-name="uni044D" unicode="э" horiz-adv-x="504" d="M471 215Q453 100 367.5 42T176-16Q71-16-13 29L9 166q58-36 134-36 92 0 132 52H99l19 119h177q-7 23-36 36.5T192 351q-89 0-157-41l23 148q80 38 165 38 54 0 102-16.5t85.5-49.5 54.5-88.5 6-126.5z"/><glyph glyph-name="uni044E" unicode="ю" horiz-adv-x="853" d="M822 224Q803 105 718 44.5T516-16q-88 0-153.5 46.5T283 161h-54L203 0H-6l76 480h209l-25-161h46q32 88 107 132.5T578 496q122 0 193-74.5T822 224zm-347 11q-4-33 10-54t47-21q36 0 58.5 23t27.5 62q4 33-10 54t-47 21q-36 0-58.5-23T475 235z"/><glyph glyph-name="uni044F" unicode="я" horiz-adv-x="579" d="M184 0H-40L98 165q-74 49-58 153 10 66 65.5 114T258 480h310L492 0H293l20 123h-25zm56 296q-3-18 7.5-31.5T281 251h52l14 87h-44q-55 0-63-42z"/><glyph glyph-name="uni0451" unicode="ё" horiz-adv-x="545" d="M531 609q-4-41-33-66t-69-25q-43 0-68.5 28T339 619q4 41 33 66t69 25q43 0 68.5-28t21.5-73zm-230 0q-4-41-33-66t-69-25q-43 0-68.5 28T109 619q4 41 33 66t69 25q43 0 68.5-28t21.5-73zM15 258q9 62 39.5 109.5T126 442t85 40.5 88 13.5q61 0 107-18.5t71-49.5 36.5-70.5 8.5-82-19-83.5H205q15-61 126-61 85 0 149 24L457 8q-72-24-173-24-57 0-107.5 16T85 48t-60.5 86.5T15 258zm332 31q7 26-5.5 47T297 357q-33 0-55-20.5T216 289h131z"/><glyph glyph-name="Wgrave" unicode="Ẁ" horiz-adv-x="1111" d="M917 700h256L851 0H599l-35 353L413 0H167L67 700h240l32-422 177 422h191l40-422zm-193 52H541l-96 164h207z"/><glyph glyph-name="wgrave" unicode="ẁ" horiz-adv-x="846" d="M648 480h223L642 0H437l-25 237L308 0H108L36 480h206l16-263 108 263h161l23-263zm-86 52H379l-96 164h207z"/><glyph glyph-name="Wacute" unicode="Ẃ" horiz-adv-x="1111" d="M917 700h256L851 0H599l-35 353L413 0H167L67 700h240l32-422 177 422h191l40-422zm-226 52H497l124 164h217z"/><glyph glyph-name="wacute" unicode="ẃ" horiz-adv-x="846" d="M648 480h223L642 0H437l-25 237L308 0H108L36 480h206l16-263 108 263h161l23-263zm-119 52H335l124 164h217z"/><glyph glyph-name="Wdieresis" unicode="Ẅ" horiz-adv-x="1111" d="M917 700h256L851 0H599l-35 353L413 0H167L67 700h240l32-422 177 422h191l40-422zm-79 129q-4-41-33-66t-69-25q-43 0-68.5 28T646 839q4 41 33 66t69 25q43 0 68.5-28t21.5-73zm-230 0q-4-41-33-66t-69-25q-43 0-68.5 28T416 839q4 41 33 66t69 25q43 0 68.5-28t21.5-73z"/><glyph glyph-name="wdieresis" unicode="ẅ" horiz-adv-x="846" d="M648 480h223L642 0H437l-25 237L308 0H108L36 480h206l16-263 108 263h161l23-263zm28 129q-4-41-33-66t-69-25q-43 0-68.5 28T484 619q4 41 33 66t69 25q43 0 68.5-28t21.5-73zm-230 0q-4-41-33-66t-69-25q-43 0-68.5 28T254 619q4 41 33 66t69 25q43 0 68.5-28t21.5-73z"/><glyph glyph-name="Ygrave" unicode="Ỳ" horiz-adv-x="752" d="M443 0H214l39 239L60 700h246l82-267 164 267h270L482 239zm106 752H366l-96 164h207z"/><glyph glyph-name="ygrave" unicode="ỳ" horiz-adv-x="603" d="M298 220l103 260h229L367-34Q264-235 87-235q-61 0-115 20L-1-47q29-11 62-11 68 0 108 70L26 480h213zm140 312H255l-96 164h207z"/><glyph glyph-name="endash" unicode="–" horiz-adv-x="583" d="M518 159H23l26 163h495z"/><glyph glyph-name="emdash" unicode="—" horiz-adv-x="789" d="M724 159H23l26 163h701z"/><glyph glyph-name="quoteleft" unicode="‘" horiz-adv-x="302" d="M233 393H28l164 307h161z"/><glyph glyph-name="quoteright" unicode="’" horiz-adv-x="298" d="M197 393H37l120 307h205z"/><glyph glyph-name="quotesinglbase" unicode="‚" horiz-adv-x="291" d="M82-143H-78L41 164h205z"/><glyph glyph-name="quotedblleft" unicode="“" horiz-adv-x="539" d="M470 393H265l164 307h161zm-237 0H28l164 307h161z"/><glyph glyph-name="quotedblright" unicode="”" horiz-adv-x="534" d="M433 393H273l120 307h205zm-236 0H37l120 307h205z"/><glyph glyph-name="quotedblbase" unicode="„" horiz-adv-x="526" d="M318-143H158l120 307h205zm-236 0H-78L41 164h205z"/><glyph glyph-name="dagger" unicode="†" horiz-adv-x="573" d="M322-220H91l79 497H23l32 203h147l35 220h231l-35-220h145l-32-203H400z"/><glyph glyph-name="daggerdbl" unicode="‡" horiz-adv-x="624" d="M347-220H116l30 187H-11l31 196h157l20 121H39l31 196h157l35 220h231l-35-220h157l-31-196H427l-20-121h157L534-33H377z"/><glyph glyph-name="bullet" unicode="•" horiz-adv-x="437" d="M59 364q13 76 64 112.5T244 513q77 0 121-45.5T395 336q-12-77-62.5-114T211 185q-76 0-121 46T59 364z"/><glyph glyph-name="ellipsis" unicode="…" horiz-adv-x="884" d="M828 83q-8-50-42-74.5T705-16q-54 0-85 33t-21 94q8 50 42 74.5t80 24.5q54 0 85-33.5T828 83zm-602 0q-8-50-42-74.5T103-16q-54 0-85 33t-21 94q8 50 42 74.5t80 24.5q54 0 85-33.5T226 83zm301 0q-8-50-42-74.5T404-16q-54 0-85 33t-21 94q8 50 42 74.5t80 24.5q54 0 85-33.5T527 83z"/><glyph glyph-name="perthousand" unicode="‰" horiz-adv-x="1402" d="M288-60H158l539 820h130zm175 572q-14-86-75.5-131T243 336q-89 0-142.5 53.5T63 540q14 87 75 131.5T284 716q87 0 140.5-53.5T463 512zm-250 9q-4-47 40-47 28 0 42.5 17t16.5 40q4 47-40 47-28 0-42-16.5T213 521zm709-361q-14-86-75.5-131T701-16q-89 0-142 53.5T522 188q14 87 75 132t145 45q89 0 142-54t38-151zm-251 10q-5-48 40-48 52 0 59 57 4 48-40 48-28 0-42.5-17T671 170zm687-10q-14-86-75.5-131T1137-16q-89 0-142 53.5T958 188q14 87 75 132t145 45q89 0 142-54t38-151zm-250 10q-5-48 40-48 52 0 59 57 4 48-40 48-28 0-42.5-17t-16.5-40z"/><glyph glyph-name="guilsinglleft" unicode="‹" horiz-adv-x="394" d="M327 32H120L15 222l6 41 162 185h214L216 240z"/><glyph glyph-name="guilsinglright" unicode="›" horiz-adv-x="394" d="M196 32H-19l182 208L51 448h207l105-190-6-41z"/><glyph glyph-name="fraction" unicode="⁄" horiz-adv-x="194" d="M-152-16h-63l578 732h63z"/><glyph glyph-name="Euro" unicode="€" horiz-adv-x="722" d="M731 651l-31-190q-61 41-153 41-101 0-158-56h190l-14-89H341q-5-15-5-34h224l-14-89H358q38-53 124-53 102 0 181 48L631 23q-86-39-196-39-129 0-223 64T101 234H19l14 89h67q0 17 4 34H38l14 89h77q49 125 157.5 187.5T522 696q114 0 209-45z"/><glyph glyph-name="trademark" unicode="™" horiz-adv-x="712" d="M435 437H322l42 263h110l49-112 81 112h122l-42-263H571l18 110-43-60h-66l-27 63zm-202 0H118l26 161H78l16 102h247l-16-102h-66z"/><glyph glyph-name="oneeighth" unicode="⅛" horiz-adv-x="939" d="M567 309q7 44 51 76.5T740 418q79 0 122.5-40.5T898 287q-5-26-19.5-43T835 210q61-35 49-109-7-47-54-79T695-10q-91 0-135.5 40T524 125q8 57 71 92-38 33-28 92zm151-158q-34 11-38 13-21-14-23-36-2-14 10-25.5T703 91q43 0 49 27 4 22-34 33zm55 136q1 12-9 21t-31 9q-39 0-44-26-4-23 31-35 5-2 16.5-5t14.5-4q21 21 22 40zM218-16h-63l578 732h63zm-9 696h101l-47-295h69l-18-113H34l18 113h77l26 164-77-25 19 118z"/><glyph glyph-name="threeeighths" unicode="⅜" horiz-adv-x="948" d="M576 309q7 44 51 76.5T749 418q79 0 122.5-40.5T907 287q-5-26-19.5-43T844 210q61-35 49-109-7-47-54-79T704-10q-91 0-135.5 40T533 125q8 57 71 92-38 33-28 92zm151-158q-34 11-38 13-21-14-23-36-2-14 10-25.5T712 91q43 0 49 27 4 22-34 33zm55 136q1 12-9 21t-31 9q-39 0-44-26-4-23 31-35 5-2 16.5-5t14.5-4q21 21 22 40zM231-16h-63l578 732h63zm151 582q-10-57-77-77 32-9 51.5-38t12.5-73q-18-109-181-109-90 0-152 30l18 114q58-30 122-30 63 0 67 28 2 11-5 17.5t-23 6.5h-77l17 103h54q40 0 42 21 2 11-7.5 17t-28.5 6q-70 0-134-33l19 116q67 32 135 32 66 0 111.5-34t35.5-97z"/><glyph glyph-name="fiveeighths" unicode="⅝" horiz-adv-x="946" d="M574 309q7 44 51 76.5T747 418q79 0 122.5-40.5T905 287q-5-26-19.5-43T842 210q61-35 49-109-7-47-54-79T702-10q-91 0-135.5 40T531 125q8 57 71 92-38 33-28 92zm151-158q-34 11-38 13-21-14-23-36-2-14 10-25.5T710 91q43 0 49 27 4 22-34 33zm55 136q1 12-9 21t-31 9q-39 0-44-26-4-23 31-35 5-2 16.5-5t14.5-4q21 21 22 40zM229-16h-63l578 732h63zM121 680h277l-18-114H219l-8-40q11 2 30 2 61 0 100.5-35T369 387q-10-68-65.5-97.5T172 260q-79 0-141 31l17 105q45-24 105-24 79 0 84 39 2 16-16 25.5t-52 9.5q-49 0-98-14z"/><glyph glyph-name="seveneighths" unicode="⅞" horiz-adv-x="887" d="M160-16H97l578 732h63zm355 325q7 44 51 76.5T688 418q79 0 122.5-40.5T846 287q-5-26-19.5-43T783 210q61-35 49-109-7-47-54-79T643-10q-91 0-135.5 40T472 125q8 57 71 92-38 33-28 92zm151-158q-34 11-38 13-21-14-23-36-2-14 10-25.5T651 91q43 0 49 27 4 22-34 33zm55 136q1 12-9 21t-31 9q-39 0-44-26-4-23 31-35 5-2 16.5-5t14.5-4q21 21 22 40zm-513-17H55l182 296H72l18 114h329l-14-89z"/><glyph glyph-name="partialdiff" unicode="∂" horiz-adv-x="576" d="M551 288Q527 139 446.5 61.5T234-16Q124-16 60.5 54T13 233q16 102 78 156t142 54q84 0 133-51 4 25-5 47-15 51-73.5 75.5T143 532l19 184q213 4 317-111.5T551 288zm-338-76q-4-26 7.5-45.5T264 147q35 0 53 22t22 53q3 27-8.5 46.5T288 288q-36 0-53.5-22.5T213 212z"/><glyph glyph-name="emptyset" unicode="∅" horiz-adv-x="797" d="M772 336Q749 188 630.5 86T360-16q-113 0-199 65L111 0H-5l109 107Q21 214 44 364q23 148 141.5 250T457 716q114 0 199-66l50 50h116L713 593q83-110 59-257zm-626 9q-12-90 36-162l396 391q-57 38-131 38-110 0-198.5-78T146 345zm94-219q57-38 131-38 110 0 198 78t103 189q12 90-36 162z"/><glyph glyph-name="product" unicode="∏" horiz-adv-x="825" d="M258-220H28l116 727H63l31 193h767l-31-193h-80L634-220H403l116 727H374z"/><glyph glyph-name="summation" unicode="∑" horiz-adv-x="596" d="M511 0H-14L6 126l242 233L78 585l19 115h516l-32-202H370l96-128-7-45-129-123h213z"/><glyph glyph-name="minus" unicode="−" horiz-adv-x="518" d="M466 267H43l27 168h423z"/><glyph glyph-name="radical" unicode="√" horiz-adv-x="810" d="M401 0H216l-88 277H14l32 203h240l56-227 324 527h238z"/><glyph glyph-name="infinity" unicode="∞" horiz-adv-x="893" d="M470 479q104 101 212 101 89 0 145.5-65T867 344q-15-97-81.5-152.5T631 136q-108 0-185 101-103-101-212-101-89 0-145.5 65T48 372q15 97 82 152.5T286 580q109 0 184-101zM368 366q-30 47-70 45-22-1-40.5-15.5T235 355q-4-24 9-38t33-13q41 1 91 62zm313-5q4 24-9 37.5T640 411q-42-1-92-61 30-48 71-46 21 1 39 15.5t23 41.5z"/><glyph glyph-name="integral" unicode="∫" horiz-adv-x="503" d="M194 591q9 58 34 99.5t60 63.5 72 32 78 10q73 0 136-24l-27-172q-31 13-63 13-34 0-58-18.5T396 539L306-30q-7-47-25.5-84T238-173.5t-55-37-60.5-20T60-236q-76 0-134 21l28 176q27-12 57-12 35 0 61 18t32 54z"/><glyph glyph-name="approxequal" unicode="≈" horiz-adv-x="622" d="M613 579q3-104-43-156t-119-52q-44 0-111.5 24T260 419q-31 0-32-43H65q-2 104 44 156t117 52q46 0 112.5-24t79.5-24q31 0 32 43h163zm-34-235q3-104-42.5-155.5T417 137q-44 0-111.5 24T226 185q-31 0-32-43H31q-2 104 44 156t117 52q46 0 112.5-24t79.5-24q31 0 32 42h163z"/><glyph glyph-name="notequal" unicode="≠" horiz-adv-x="626" d="M181 56H58l68 100H40l26 162h172l44 64H76l26 162h292l70 100h123l-69-100h86l-26-162H406l-44-64h206l-25-162H250z"/><glyph glyph-name="lessequal" unicode="≤" horiz-adv-x="524" d="M482 361l-29-180L48 309l34 211 445 126-29-183-268-52zM424 0H-1l26 163h425z"/><glyph glyph-name="greaterequal" unicode="≥" horiz-adv-x="522" d="M482 315L37 188l29 184 263 53-246 52 28 178 405-130zM432 0H7l26 163h425z"/><glyph glyph-name="lozenge" unicode="◊" horiz-adv-x="627" d="M387 0H150L35 350l223 350h236l117-350zM237 332l51-155 121 190-51 155z"/><glyph glyph-name="i.loclTRK" horiz-adv-x="293" d="M206 0H-5l76 480h211zm95 617q-14-88-109-88-49 0-77.5 29.5T95 644q7 45 37 66.5t73 21.5q49 0 77-30t19-85z"/><glyph glyph-name="a.ss01" horiz-adv-x="574" d="M502 148q-4-22 20-22 12 0 23 3L526 2q-42-15-98-15-87 0-118 55-64-58-164-58-71 0-116 41T-7 134q10 79 74 114t150 35q63 0 106-9l3 17q7 49-94 49-79 0-172-37l26 165q94 28 181 28 140 0 206.5-54T519 256zm-235 40q-65 0-71-42-3-16 8-28t31-12q37 0 66 27l8 50q-18 5-42 5z"/><glyph glyph-name="aacute.ss01" horiz-adv-x="574" d="M502 148q-4-22 20-22 12 0 23 3L526 2q-42-15-98-15-87 0-118 55-64-58-164-58-71 0-116 41T-7 134q10 79 74 114t150 35q63 0 106-9l3 17q7 49-94 49-79 0-172-37l26 165q94 28 181 28 140 0 206.5-54T519 256zm-235 40q-65 0-71-42-3-16 8-28t31-12q37 0 66 27l8 50q-18 5-42 5zm109 344H182l124 164h217z"/><glyph glyph-name="abreve.ss01" horiz-adv-x="574" d="M502 148q-4-22 20-22 12 0 23 3L526 2q-42-15-98-15-87 0-118 55-64-58-164-58-71 0-116 41T-7 134q10 79 74 114t150 35q63 0 106-9l3 17q7 49-94 49-79 0-172-37l26 165q94 28 181 28 140 0 206.5-54T519 256zm-235 40q-65 0-71-42-3-16 8-28t31-12q37 0 66 27l8 50q-18 5-42 5zm221 382q-82-51-181-51-111 0-181 51l23 143q68-46 168-46 111 0 193 46z"/><glyph glyph-name="acircumflex.ss01" horiz-adv-x="574" d="M502 148q-4-22 20-22 12 0 23 3L526 2q-42-15-98-15-87 0-118 55-64-58-164-58-71 0-116 41T-7 134q10 79 74 114t150 35q63 0 106-9l3 17q7 49-94 49-79 0-172-37l26 165q94 28 181 28 140 0 206.5-54T519 256zm-235 40q-65 0-71-42-3-16 8-28t31-12q37 0 66 27l8 50q-18 5-42 5zm-36 510h185l101-171H349l-35 60-55-60H76z"/><glyph glyph-name="adieresis.ss01" horiz-adv-x="574" d="M502 148q-4-22 20-22 12 0 23 3L526 2q-42-15-98-15-87 0-118 55-64-58-164-58-71 0-116 41T-7 134q10 79 74 114t150 35q63 0 106-9l3 17q7 49-94 49-79 0-172-37l26 165q94 28 181 28 140 0 206.5-54T519 256zm-235 40q-65 0-71-42-3-16 8-28t31-12q37 0 66 27l8 50q-18 5-42 5zm256 421q-4-41-33-66t-69-25q-43 0-68.5 28T331 619q4 41 33 66t69 25q43 0 68.5-28t21.5-73zm-230 0q-4-41-33-66t-69-25q-43 0-68.5 28T101 619q4 41 33 66t69 25q43 0 68.5-28t21.5-73z"/><glyph glyph-name="agrave.ss01" horiz-adv-x="574" d="M502 148q-4-22 20-22 12 0 23 3L526 2q-42-15-98-15-87 0-118 55-64-58-164-58-71 0-116 41T-7 134q10 79 74 114t150 35q63 0 106-9l3 17q7 49-94 49-79 0-172-37l26 165q94 28 181 28 140 0 206.5-54T519 256zm-235 40q-65 0-71-42-3-16 8-28t31-12q37 0 66 27l8 50q-18 5-42 5zm142 344H226l-96 164h207z"/><glyph glyph-name="amacron.ss01" horiz-adv-x="574" d="M502 148q-4-22 20-22 12 0 23 3L526 2q-42-15-98-15-87 0-118 55-64-58-164-58-71 0-116 41T-7 134q10 79 74 114t150 35q63 0 106-9l3 17q7 49-94 49-79 0-172-37l26 165q94 28 181 28 140 0 206.5-54T519 256zm-235 40q-65 0-71-42-3-16 8-28t31-12q37 0 66 27l8 50q-18 5-42 5zM143 682h363l-23-145H120z"/><glyph glyph-name="aogonek.ss01" horiz-adv-x="575" d="M545 129L526 2q-25-18-44-42t-19-39q0-19 22-19 14 0 25 6l-20-128q-36-14-83-14-58 0-92.5 27.5T284-131q5 70 86 126-42 14-60 47-64-58-164-58-71 0-116 41T-7 134q10 79 74 114t150 35q63 0 106-9l3 17q7 49-94 49-79 0-172-37l26 165q94 28 181 28 140 0 206.5-54T519 256l-17-108q-4-22 20-22 12 0 23 3zm-310-23q37 0 66 27l8 50q-18 5-42 5-65 0-71-42-3-16 8-28t31-12z"/><glyph glyph-name="aring.ss01" horiz-adv-x="574" d="M502 148q-4-22 20-22 12 0 23 3L526 2q-42-15-98-15-87 0-118 55-64-58-164-58-71 0-116 41T-7 134q10 79 74 114t150 35q63 0 106-9l3 17q7 49-94 49-79 0-172-37l26 165q94 28 181 28 140 0 206.5-54T519 256zm-235 40q-65 0-71-42-3-16 8-28t31-12q37 0 66 27l8 50q-18 5-42 5zm192 440q-9-57-51-87t-100-30q-59 0-98.5 39.5T180 656q9 54 51.5 85t98.5 31q60 0 99.5-40T459 628zm-174 15q-2-16 6-26t24-10q33 0 38 33 3 15-5 25t-25 10q-15 0-25.5-9T285 643z"/><glyph glyph-name="atilde.ss01" horiz-adv-x="574" d="M502 148q-4-22 20-22 12 0 23 3L526 2q-42-15-98-15-87 0-118 55-64-58-164-58-71 0-116 41T-7 134q10 79 74 114t150 35q63 0 106-9l3 17q7 49-94 49-79 0-172-37l26 165q94 28 181 28 140 0 206.5-54T519 256zm-235 40q-65 0-71-42-3-16 8-28t31-12q37 0 66 27l8 50q-18 5-42 5zm255 510q10-78-27-128.5T394 519q-36 0-82.5 20T251 559q-13 0-20-11t-5-23H92q-10 77 27 128t100 51q37 0 83.5-20t59.5-20 20 11 5 23h135z"/><glyph glyph-name="ae.ss01" horiz-adv-x="832" d="M367 56q-90-72-211-72-77 0-123.5 40.5T-6 135q10 78 73.5 113T213 283q63 0 107-9l2 17q8 49-88 49-79 0-178-37l26 165q96 28 187 28 118 0 162-52 69 52 156 52 58 0 103-17.5t71-47.5 38.5-69 9.5-83-19-88H492q14-60 125-60 83 0 149 23L743 8q-71-25-172-25-137 0-204 73zm-169 91q-3-18 9-29.5t32-11.5q45 0 85 35-6 18-6 41-26 6-51 6-63 0-69-41zm386 210q-33 0-55-20.5T503 289h131q7 26-5.5 47T584 357z"/><glyph glyph-name="y.ss01" d="M511 24q-11-71-42-123t-75-81-94-42.5T194-236q-119 0-207 36L8-29q55-36 149-36 56 0 96 21t46 61l2 15Q248-5 183-5 95-5 50.5 51.5T19 189l46 291h211l-44-275q-8-45 34-45 35 0 60 27l46 293h211z"/><glyph glyph-name="yacute.ss01" d="M511 24q-11-71-42-123t-75-81-94-42.5T194-236q-119 0-207 36L8-29q55-36 149-36 56 0 96 21t46 61l2 15Q248-5 183-5 95-5 50.5 51.5T19 189l46 291h211l-44-275q-8-45 34-45 35 0 60 27l46 293h211zM401 532H207l124 164h217z"/><glyph glyph-name="ycircumflex.ss01" d="M511 24q-11-71-42-123t-75-81-94-42.5T194-236q-119 0-207 36L8-29q55-36 149-36 56 0 96 21t46 61l2 15Q248-5 183-5 95-5 50.5 51.5T19 189l46 291h211l-44-275q-8-45 34-45 35 0 60 27l46 293h211zM256 698h185l101-171H374l-35 60-55-60H101z"/><glyph glyph-name="ydieresis.ss01" d="M511 24q-11-71-42-123t-75-81-94-42.5T194-236q-119 0-207 36L8-29q55-36 149-36 56 0 96 21t46 61l2 15Q248-5 183-5 95-5 50.5 51.5T19 189l46 291h211l-44-275q-8-45 34-45 35 0 60 27l46 293h211zm37 585q-4-41-33-66t-69-25q-43 0-68.5 28T356 619q4 41 33 66t69 25q43 0 68.5-28t21.5-73zm-230 0q-4-41-33-66t-69-25q-43 0-68.5 28T126 619q4 41 33 66t69 25q43 0 68.5-28t21.5-73z"/><glyph glyph-name="ygrave.ss01" d="M511 24q-11-71-42-123t-75-81-94-42.5T194-236q-119 0-207 36L8-29q55-36 149-36 56 0 96 21t46 61l2 15Q248-5 183-5 95-5 50.5 51.5T19 189l46 291h211l-44-275q-8-45 34-45 35 0 60 27l46 293h211zm-77 508H251l-96 164h207z"/><glyph glyph-name="f_b" horiz-adv-x="1027" d="M678 447q59 49 132 49 104 0 153.5-80T995 226q-16-102-79.5-172T749-16q-55 0-94.5 23.5T595 67L582 0H397l87 547q-32 9-58 8-36 0-61-17t-31-50l-2-8h90l-27-168h-89L256 0H46l49 312H27l27 168h68l6 38q16 103 89.5 156T389 727q80 0 155-26l178 19zm10-294q37 0 62.5 25t31.5 63q5 35-8.5 60.5T727 327q-41 0-74-37l-16-105q13-32 51-32z"/><glyph glyph-name="f_f_b" horiz-adv-x="1376" d="M1027 447q59 49 132 49 104 0 153.5-80t31.5-190q-16-102-79.5-172T1098-16q-55 0-94.5 23.5T944 67L931 0H746l88 552q-30 10-56 8-37 0-63.5-18T683 492l-2-12h90l-27-168h-89L605 0H395l49 312H306L256 0H46l49 312H27l27 168h68l5 30q15 97 87 147.5T385 708q96 0 171-39 71 62 183 62 81 0 156-26l177 19zm-556 33l4 28q1 10 6 30-24 11-64 11-36 0-57.5-17T333 488l-1-8h139zm566-327q37 0 62.5 25t31.5 63q5 35-8.5 60.5T1076 327q-41 0-74-37l-16-105q13-32 51-32z"/><glyph glyph-name="f_f_h" horiz-adv-x="1346" d="M1029 456q65 40 125 40 90 0 130-57.5t28-134.5L1264 0h-211l44 278q7 41-33 41-32 0-61-27L957 0H746l87 552q-30 10-55 8-37 0-63.5-18T683 492l-2-12h90l-27-168h-89L605 0H395l49 312H306L256 0H46l49 312H27l27 168h68l5 30q15 97 87 147.5T385 708q96 0 171-39 71 62 183 62 81 0 156-26l177 19zm-558 24l4 32 6 26q-24 11-64 11-36 0-57.5-17T333 488l-1-8h139z"/><glyph glyph-name="f_f_j" horiz-adv-x="1032" d="M934-64q-15-91-72-131.5T723-236q-61 0-103 22l27 170q12-6 32-6 47 0 55 57l49 305H655L605 0H395l49 312H306L256 0H46l49 312H27l27 168h68l5 30q15 97 88 147.5T389 708q95 0 166-39 78 67 210 67 105 0 195-35l-26-160q-71 25-135 25-50 0-80-19t-35-53l-3-14h339zM333 488l-1-8h139l4 28q1 11 6 30-26 11-64 11-36 0-57.5-17T333 488z"/><glyph glyph-name="f_f_k" horiz-adv-x="1348" d="M1152 480h233l-193-251L1302 0h-217l-68 162h-35L957 0H746l87 552q-30 10-55 8-37 0-63.5-18T683 492l-2-12h90l-27-168h-89L605 0H395l49 312H306L256 0H46l49 312H27l27 168h68l5 30q15 97 87 147.5T385 708q96 0 171-39 71 62 183 62 81 0 156-26l177 19-63-398h33zm-681 0l4 28q1 11 6 30-24 11-64 11-36 0-57.5-17T333 488l-1-8h139z"/><glyph glyph-name="f_h" horiz-adv-x="997" d="M680 456q65 40 125 40 90 0 130-57.5T963 304L915 0H704l44 278q7 41-33 41-32 0-61-27L608 0H397l87 547q-32 9-58 8-36 0-61-17t-31-50l-2-8h90l-27-168h-89L256 0H46l49 312H27l27 168h68l6 38q16 103 89.5 156T389 727q80 0 155-26l178 19z"/><glyph glyph-name="f_i" horiz-adv-x="673" d="M256 0H46l49 312H27l27 168h68l5 34q18 109 97 161t191 52q103 0 195-35l-26-160q-71 25-136 25-50 0-79.5-19T334 486l-2-6h330L586 0H375l50 312H306z"/><glyph glyph-name="f_j" horiz-adv-x="674" d="M576-64q-14-90-71.5-131T366-236q-62 0-104 22l27 170q12-6 32-6 47 0 55 57l49 305H306L256 0H46l49 312H27l27 168h68l5 34q18 109 97 161t191 52q103 0 195-35l-26-160q-71 25-136 25-50 0-79.5-19T334 486l-2-6h330z"/><glyph glyph-name="f_k" horiz-adv-x="999" d="M803 480h233L843 229 953 0H736l-68 162h-35L608 0H397l87 547q-32 9-58 8-36 0-61-17t-31-50l-2-8h90l-27-168h-89L256 0H46l49 312H27l27 168h68l6 38q16 103 89.5 156T389 727q80 0 155-26l178 19-63-394h34z"/><glyph glyph-name="f_l" horiz-adv-x="695" d="M389 727q80 0 155-26l178 19L608 0H397l87 547q-32 9-58 8-36 0-61-17t-31-50l-2-8h90l-27-168h-89L256 0H46l49 312H27l27 168h68l6 38q16 103 89.5 156T389 727z"/><glyph glyph-name="uni0414.loclBGR" horiz-adv-x="880" d="M162-136H-43L9 194h86l283 506h251l125-506h87l-52-330H584L605 0H183zm315 601L335 194h197z"/><glyph glyph-name="uni041B.loclBGR" horiz-adv-x="743" d="M-49 0l367 700h237L700 0H460l-59 427L203 0H-49z"/><glyph glyph-name="uni0424.loclBGR" horiz-adv-x="897" d="M494-90H284l15 96Q153 22 75 125T19 368q21 133 123.5 224T409 695l16 95h210l-17-96q148-17 225-120t54-242q-20-133-120.5-223.5T510 5zM244 353q-2-28-1.5-61t23.5-62 66-35l49 308q-115-15-137-150zm341 152l-48-307q113 16 134 153 5 19 2.5 44t-9 47.5-27.5 40-52 22.5z"/><glyph glyph-name="uni0432.loclBGR" horiz-adv-x="610" d="M374 716q106 0 163-57.5T581 520q-13-88-99-132 51-22 77.5-70.5T577 206q-17-106-98-164T278-16Q142-16 73.5 59T32 306l10 68q52 342 332 342zm12-215q4 21-5 34.5T350 549q-70 0-96-129l59 12q31 6 50.5 26t22.5 43zm-95-345q33 0 55.5 19.5T374 228q5 30-17 48.5t-60 9.5l-66-14q-8-64 6-90t54-26z"/><glyph glyph-name="uni0433.loclBGR" horiz-adv-x="497" d="M419 21q-83-37-199-37-106 0-170.5 41T-3 156q7 55 49 88.5t88 43 85 20 41 23.5q3 20-38 20-80 0-164-44l24 150q87 39 190 39 44 0 82-8.5t69-27 46-52 8-79.5q-9-55-51-88.5T339 198t-83-19.5-40-25.5q-2-10 9.5-14.5T264 134q103 0 181 52z"/><glyph glyph-name="uni0434.loclBGR" horiz-adv-x="624" d="M542 24q-22-135-110-197.5T225-236Q92-236-4-192L23-23q78-42 165-42 58 0 96.5 22T331 25l3 20Q290-5 205-5 97-5 48 72T16 259q16 100 82.5 168.5T266 496q102 0 151-80l11 64h185zM229 239q-5-36 10-59.5t46-24.5q42 0 73 38l17 105q-12 32-52 32-38 0-63-26t-31-65z"/><glyph glyph-name="uni0436.loclBGR" horiz-adv-x="861" d="M173 0H-50l173 254-78 226h204l53-163h32l61 383h203l-60-383h33l95 163h220L723 223 804 0H598l-53 153h-33L487 0H284l24 153h-37z"/><glyph glyph-name="uni0438.loclBGR" d="M372 480h211L507 0H321l8 45q-59-61-147-61T49.5 41 17 178l48 302h211l-44-275q-8-45 34-45 35 0 60 27z"/><glyph glyph-name="uni0439.loclBGR" d="M508 572q-70-46-169-46-96 0-170 46l21 135q72-41 158-41 99 0 181 41zm-136-92h211L507 0H321l8 45q-59-61-147-61T49.5 41 17 178l48 302h211l-44-275q-8-45 34-45 35 0 60 27z"/><glyph glyph-name="uni043A.loclBGR" horiz-adv-x="595" d="M397 480h234L439 230 550 0H333l-68 162h-35L205 0H-6l111 700h211l-60-374h31z"/><glyph glyph-name="uni043B.loclBGR" horiz-adv-x="599" d="M443 480L551 0H338l-31 279L185 0H-44l262 480h225z"/><glyph glyph-name="uni043F.loclBGR" d="M248 435q72 61 158 61 87 0 126.5-57.5T560 305L512 0H301l44 278q7 41-33 41-28 0-61-26L205 0H-6l76 480h185z"/><glyph glyph-name="uni0442.loclBGR" horiz-adv-x="864" d="M522 433q66 63 161 63 86 0 122.5-59T829 295L782 0H574l46 290q2 15-6.5 22.5T591 320q-26 0-50-22 0-6-2-16L494 0H286l46 290q2 15-6.5 22.5T304 320q-32 0-56-28L202 0H-6l76 480h186l-8-48q24 27 65.5 45.5T399 496q87 0 123-63z"/><glyph glyph-name="uni0446.loclBGR" horiz-adv-x="639" d="M530 148q-4-21 21-21h44l-39-250H378L396-5q-42 14-62 50-65-61-152-61-88 0-132.5 57T17 178l48 302h211l-44-275q-8-45 34-45 35 0 60 27l46 293h211z"/><glyph glyph-name="uni0448.loclBGR" horiz-adv-x="867" d="M599 182l47 298h210L780 0H594l7 42q-58-58-145-58-85 0-125 61-72-61-163-61-86 0-124 59T19 185l47 295h210l-45-291q-5-31 26-31 26 0 48 20 1 3 2.5 11.5T309 201l45 279h210l-46-291q-4-31 27-31 32 0 54 24z"/><glyph glyph-name="uni0449.loclBGR" horiz-adv-x="912" d="M803 148q-1-10 4.5-15.5T825 127h44l-39-250H652L670-5q-43 14-61 49-60-60-154-60-83 0-125 59-70-59-159-59T44 43 19 185l47 295h210l-45-291q-5-31 26-31 25 0 48 20l48 302h210l-45-291q-5-31 26-31 32 0 54 24l47 298h211z"/><glyph glyph-name="uni044E.loclBGR" horiz-adv-x="853" d="M822 224Q803 105 718 44.5T516-16q-88 0-153.5 46.5T283 161h-54L203 0H-6l111 700h209l-60-381h46q32 88 107 132.5T578 496q122 0 193-74.5T822 224zm-347 11q-4-33 10-54t47-21q36 0 58.5 23t27.5 62q4 33-10 54t-47 21q-36 0-58.5-23T475 235z"/><glyph glyph-name="uni0430.ss01" horiz-adv-x="583" d="M502 148q-4-22 20-22 12 0 23 3L526 2q-42-15-98-15-87 0-118 55-64-58-164-58-71 0-116 41T-7 134q10 79 74 114t150 35q63 0 106-9l3 17q7 49-94 49-79 0-172-37l26 165q94 28 181 28 140 0 206.5-54T519 256zm-235 40q-65 0-71-42-3-16 8-28t31-12q37 0 66 27l8 50q-18 5-42 5z"/><glyph glyph-name="uni0437.ss01" horiz-adv-x="480" d="M429-24q-18-110-104-161t-208-51Q3-236-69-198l24 157Q18-78 98-78q118 0 130 84 6 36-16.5 55T136 68L79 56l22 142 64 14q67 14 74 67 4 31-17 46t-59 15q-69 0-143-44l25 160q87 40 184 40 92 0 155-53t49-143q-14-92-101-133 52-24 79.5-75.5T429-24z"/><glyph glyph-name="uni0443.ss01" d="M511 24q-11-71-42-123t-75-81-94-42.5T194-236q-119 0-207 36L8-29q55-36 149-36 56 0 96 21t46 61l2 15Q248-5 183-5 95-5 50.5 51.5T19 189l46 291h211l-44-275q-8-45 34-45 35 0 60 27l46 293h211z"/><glyph glyph-name="zero.osf" horiz-adv-x="677" d="M643 245Q625 136 535.5 60T299-16q-80 0-139.5 24t-91 65.5T26 166t-2 108q17 110 106.5 186T367 536q80 0 139-24.5t91-65.5 43.5-92.5T643 245zm-393 8q-6-36 10.5-58.5T312 172q41 0 69 26t35 69q6 37-10 59t-51 22q-43 0-71-26t-34-69z"/><glyph glyph-name="one.osf" horiz-adv-x="503" d="M247 520h169l-53-337h104L438 0H-6l30 183h116l21 130-117-41 29 185z"/><glyph glyph-name="two.osf" horiz-adv-x="571" d="M487 1H-14L0 86q10 64 51.5 98.5T177 255l30 12.5 27 11 21.5 9L274 297l12.5 8.5 9.5 9 4 9.5q3 13-7 19t-29 6q-83 0-207-70l33 205q114 52 238 52 97 0 162-48.5T541 352q-13-75-88-120-52-32-120-48h183z"/><glyph glyph-name="three.osf" horiz-adv-x="563" d="M516 327q-7-47-39-83t-90-54q55-14 87-59t21-117q-11-68-59.5-112.5t-110-61T189-176q-112 0-223 43L-5 51q79-38 183-38 98 2 106 50 3 20-9.5 28.5T234 100H128l28 171h76q59-1 67 36 4 18-12.5 28T238 345q-95 0-192-40l31 192q91 39 206 39 107 0 177.5-54.5T516 327z"/><glyph glyph-name="four.osf" horiz-adv-x="640" d="M346 520h228l-65-410h79L560-69h-79l-14-91H264l14 91H-41l26 173zm-40-410l26 153-134-153h108z"/><glyph glyph-name="five.osf" horiz-adv-x="562" d="M113 520h431l-29-188-233 1-15-68q19 4 45 4 94-2 148.5-61.5T498 43q-10-61-41-105t-78-68-98.5-35T169-176q-115 0-207 42L-9 45Q60 9 148 9q52 0 86 16t39 47q5 30-21 45.5T177 133q-77 0-149-23z"/><glyph glyph-name="six.osf" horiz-adv-x="643" d="M291 423q56 21 118 21 42 0 79.5-15t67-43.5 43-74T603 210Q585 95 502.5 39.5T305-16Q150-16 81.5 80T40 346q14 90 54 159.5T188.5 615t115 60.5T427 696q103 0 193-46l-27-170q-59 39-128 39-120 0-174-96zm21-268q29 0 50 16.5t26 47.5q5 33-11.5 49T334 284q-45 0-84-26-3-103 62-103z"/><glyph glyph-name="seven.osf" horiz-adv-x="551" d="M55 520h521l-22-146-324-534H-23l299 492H25z"/><glyph glyph-name="eight.osf" horiz-adv-x="636" d="M88 507q13 76 87 132.5T374 696q124 0 188.5-64T613 487q-8-45-33-74.5T508 354q100-55 81-176-13-83-92.5-138.5T277-16Q131-16 65.5 46.5T14 198q8 50 42.5 91.5T138 356q-65 55-50 151zm237-254l-27.5 11-24.5 9q-33-25-39-60-3-24 12.5-42t48.5-18q66 0 74 47 6 36-44 53zm85 230q2 18-12.5 32T358 529q-26 0-43.5-12T294 485q-7-34 34-52 8-3 42-14 34 28 40 64z"/><glyph glyph-name="nine.osf" horiz-adv-x="631" d="M22 310q12 77 59 129.5T188.5 514 320 536q150 0 221.5-97T586 174q-14-90-52-159T443-94.5t-112.5-61T208-176Q95-176 6-129L32 39Q89 1 172 1q116 0 165 97-53-22-116-22-97 0-157 62T22 310zm288 53q-28 0-48-15.5T237 301q-5-32 10.5-49.5T288 234q45 0 86 26 3 103-64 103z"/><glyph glyph-name="zero.sinf" horiz-adv-x="427" d="M375 90Q360 1 307.5-54.5T160-110q-96 0-139 65.5T-7 118q14 88 67 144t148 56q94 0 138-66t29-162zm-246 14q-16-94 39-94 57 0 72 94 16 94-39 94-57 0-72-94z"/><glyph glyph-name="one.sinf" horiz-adv-x="320" d="M141 308h101L195 13h69l-18-113H-34l18 113h77l26 164-77-25 19 118z"/><glyph glyph-name="two.sinf" horiz-adv-x="379" d="M36 277q76 41 151 41 68 0 113-37.5T333 171q-6-36-26.5-58.5T245 65q-10-6-24.5-15t-23-14T180 24.5 165 12h142l-17-112H-37l9 59q9 60 44.5 96.5T108 121q9 5 27 14t25 13 16.5 10 13.5 11 5 11q2 9-6 14.5t-22 5.5q-67 0-152-55z"/><glyph glyph-name="three.sinf" horiz-adv-x="367" d="M314 187q-10-57-77-77 32-9 51.5-38T301-1q-18-109-181-109-90 0-152 30l18 114Q45 4 108 4t67 28q2 11-5 17.5T147 56H70l17 103h54q40 0 42 21 2 11-7.5 17t-28.5 6q-70 0-134-33l19 116q67 32 135 32 66 0 111.5-34t35.5-97z"/><glyph glyph-name="four.sinf" horiz-adv-x="413" d="M208 308h137L306 62h50L339-45h-50l-9-55H155l8 55H-39l17 110zM180 62l15 90-85-90h70z"/><glyph glyph-name="five.sinf" horiz-adv-x="367" d="M55 310h277l-18-114H153l-8-40q11 2 30 2 61 0 100.5-35T303 17q-10-68-65.5-97.5T106-110q-79 0-141 31l17 105Q27 2 87 2q79 0 84 39 2 16-16 25.5T103 76Q54 76 5 62z"/><glyph glyph-name="six.sinf" horiz-adv-x="407" d="M142 151q35 15 79 15 57 0 97-38.5T347 22t-61-99.5T168-110Q67-110 22-48.5T-6 120q16 101 79.5 149.5T223 318q70 0 130-32l-16-98q-34 23-84 23-78 0-111-60zM166-8q47 0 52 40 3 17-8.5 27T178 69q-28 0-60-19 0-58 48-58z"/><glyph glyph-name="seven.sinf" horiz-adv-x="353" d="M135-100H-18l182 296H-1l18 114h329l-14-89z"/><glyph glyph-name="eight.sinf" horiz-adv-x="403" d="M21 211q7 44 51 76.5T194 320q79 0 122.5-40.5T352 189q-5-26-19.5-43T289 112q61-35 49-109-7-47-54-79t-135-32q-91 0-135.5 40T-22 27q8 57 71 92-38 33-28 92zM172 53q-34 11-38 13-21-14-23-36-2-14 10-25.5T157-7q43 0 49 27 4 22-34 33zm55 136q1 12-9 21t-31 9q-39 0-44-26-4-23 31-35 5-2 16.5-5t14.5-4q21 21 22 40z"/><glyph glyph-name="nine.sinf" horiz-adv-x="407" d="M2 186q11 67 60.5 99.5T180 318q101 0 146-61.5T354 88Q338-13 274.5-61.5T125-110Q49-110-6-81L10 20Q51-3 104-3q76 0 106 61-39-16-83-16-57 0-96.5 38.5T2 186zm179 30q-46 0-52-39-2-17 8.5-27.5T166 139q33 0 63 19-1 58-48 58z"/><glyph glyph-name="zero.sups" horiz-adv-x="427" d="M451 569q-15-89-67.5-144.5T236 369q-96 0-139 65.5T69 597q14 88 67 144t148 56q94 0 138-66t29-162zm-246 14q-16-94 39-94 57 0 72 94 16 94-39 94-57 0-72-94z"/><glyph glyph-name="one.sups" horiz-adv-x="319" d="M215 780h101l-47-295h69l-18-113H40l18 113h77l26 164-77-25 19 118z"/><glyph glyph-name="two.sups" horiz-adv-x="379" d="M112 756q76 41 151 41 68 0 113-37.5T409 650q-6-36-26.5-58.5T321 544q-10-6-24.5-15t-23-14-17.5-11.5-15-12.5h142l-17-112H39l9 59q9 60 44.5 96.5T184 600q9 5 27 14t25 13 16.5 10 13.5 11 5 11q2 9-6 14.5t-22 5.5q-67 0-152-55z"/><glyph glyph-name="three.sups" horiz-adv-x="367" d="M390 666q-10-57-77-77 32-9 51.5-38t12.5-73q-18-109-181-109-90 0-152 30l18 114q59-30 122-30t67 28q2 11-5 17.5t-23 6.5h-77l17 103h54q40 0 42 21 2 11-7.5 17t-28.5 6q-70 0-134-33l19 116q67 32 135 32 66 0 111.5-34t35.5-97z"/><glyph glyph-name="four.sups" horiz-adv-x="412" d="M282 780h137l-39-246h50l-17-107h-50l-9-55H229l8 55H35l17 110zm-28-246l15 90-85-90h70z"/><glyph glyph-name="five.sups" horiz-adv-x="366" d="M129 780h277l-18-114H227l-8-40q11 2 30 2 61 0 100.5-35T377 487q-10-68-65.5-97.5T180 360q-79 0-141 31l17 105q45-24 105-24 79 0 84 39 2 16-16 25.5t-52 9.5q-49 0-98-14z"/><glyph glyph-name="six.sups" horiz-adv-x="407" d="M218 630q35 15 79 15 57 0 97-38.5T423 501t-61-99.5T244 369q-101 0-146 61.5T70 599q16 101 79.5 149.5T299 797q70 0 130-32l-16-98q-34 23-84 23-78 0-111-60zm24-159q47 0 52 40 3 17-8.5 27T254 548q-28 0-60-19 0-58 48-58z"/><glyph glyph-name="seven.sups" horiz-adv-x="353" d="M209 370H56l182 296H73l18 114h329l-14-89z"/><glyph glyph-name="eight.sups" horiz-adv-x="403" d="M97 690q7 44 51 76.5T270 799q79 0 122.5-40.5T428 668q-5-26-19.5-43T365 591q61-35 49-109-7-47-54-79t-135-32q-91 0-135.5 40T54 506q8 57 71 92-38 33-28 92zm151-158q-34 11-38 13-21-14-23-36-2-14 10-25.5t36-11.5q43 0 49 27 4 22-34 33zm55 136q1 12-9 21t-31 9q-39 0-44-26-4-23 31-35 5-2 16.5-5t14.5-4q21 21 22 40z"/><glyph glyph-name="nine.sups" horiz-adv-x="406" d="M77 665q11 67 60.5 99.5T255 797q101 0 146-61.5T429 567q-16-101-79.5-149.5T200 369q-76 0-131 29l16 101q41-23 94-23 76 0 106 61-39-16-83-16-57 0-96.5 38.5T77 665zm179 30q-46 0-52-39-2-17 8.5-27.5T241 618q33 0 63 19-1 58-48 58z"/><glyph glyph-name="zero.tf" horiz-adv-x="661" d="M26 354q24 149 114.5 245.5T385 696q104 0 171-52t89-134 6-184q-11-71-38-131T542.5 87 435 11.5 292-16q-105 0-172 52T31.5 170 26 354zm399-14q26 157-57 157-88 0-116-157-26-157 57-157 90 0 116 157z"/><glyph glyph-name="one.tf" horiz-adv-x="661" d="M352 680h169l-78-491h175L588 0H-1l30 189h191l43 273-164-60 30 196z"/><glyph glyph-name="two.tf" horiz-adv-x="661" d="M120 626q136 70 272 70 117 0 190-59.5T638 467q-10-60-45.5-100T496 290q-31-19-74-41.5T358.5 213 332 189h263L565 1H-1l16 100q9 52 30 93.5t57 73.5 66 51.5 78 45.5q18 10 44 22.5t42 20 32 17.5 24.5 19.5T399 465q2 17-12 26t-43 9q-52 0-121.5-24T87 410z"/><glyph glyph-name="three.tf" horiz-adv-x="661" d="M615 487q-15-100-129-136 55-14 87-59.5T594 174q-11-69-59-113T422.5.5 274-16Q125-16 16 32l30 191q96-50 219-50 112 2 120 51 5 36-51 36H188l28 171h109q64 0 71 33 3 20-15.5 30.5T320 505q-119 0-226-63l31 198q103 56 242 56 118 0 191-53t57-156z"/><glyph glyph-name="four.tf" horiz-adv-x="661" d="M391 680h227l-65-410h85L609 91h-84L510 0H302l14 91H-21L8 276zm-46-410l24 149-142-149h118z"/><glyph glyph-name="five.tf" horiz-adv-x="661" d="M166 680h476l-30-188-282 1-14-68q28 4 66 4 45 0 85.5-12.5t73.5-38 48-71 6-104.5q-10-61-42.5-105T471 30 368.5-5 253-16Q113-16 17 32l28 179q72-42 181-42 135 0 145 63 4 29-25.5 44.5T258 292q-99 0-177-22z"/><glyph glyph-name="six.tf" horiz-adv-x="661" d="M276 412q70 32 147 32 96 0 159.5-61.5T628 212Q610 98 525.5 41T322-16Q153-16 81.5 82T38 356q14 89 52 156t92.5 106.5 116 58.5T428 696q116 0 210-48l-27-170q-68 41-146 41-139 0-189-107zm45-259q35 0 60.5 16.5T413 221q4 29-14 45.5T349 283q-48 0-102-31 1-57 20.5-78t53.5-21z"/><glyph glyph-name="seven.tf" horiz-adv-x="661" d="M104 680h579l-23-148L323 0H70l312 492H74z"/><glyph glyph-name="eight.tf" horiz-adv-x="661" d="M616 178q-13-83-95-138.5T289-16Q138-16 67.5 47T11 199q8 49 42 90.5t81 66.5q-64 60-49 151 13 77 89.5 133T386 696q129 0 198.5-64.5T640 487q-8-45-33-74.5T535 354q47-29 69-69.5T616 178zm-382 37q-2-25 17.5-44.5T310 151q35 0 57 13.5t26 31.5q4 16-4 28t-20 18.5-35 14.5q-54 23-59 25-37-31-41-67zm108 214q8-3 24.5-9t24.5-9q36 30 41 65 2 21-15.5 37T366 529q-30 0-50-12t-24-32q-5-34 50-56z"/><glyph glyph-name="nine.tf" horiz-adv-x="661" d="M49 468q18 114 103 171t203 57q166 0 238.5-99T638 324Q611 151 504 67.5T249-16Q126-16 37 31l27 171q66-41 150-41 72 0 117.5 23.5T403 269q-70-33-150-33-99 0-160.5 61.5T49 468zm304 59q-35 0-59.5-17T265 462q-5-31 14.5-48t52.5-17q53 0 99 29-1 101-78 101z"/><glyph glyph-name="zero.tosf" horiz-adv-x="661" d="M638 246Q620 135 531.5 59.5T292-16q-105 0-174 42T25 132.5 13 274q17 111 105.5 186.5T358 536q155 0 227-84.5T638 246zm-399 9q-5-35 12.5-59t53.5-24q44 0 72 24.5t36 69.5q5 34-12.5 58T347 348q-44 0-72.5-24.5T239 255z"/><glyph glyph-name="one.tosf" horiz-adv-x="661" d="M323 520h169l-53-337h175L585 0H-4l30 183h190l22 136-166-60 29 179z"/><glyph glyph-name="two.tosf" horiz-adv-x="661" d="M561 1H1l14 85q11 68 62.5 106T226 262q19 6 48 14t42 12 28.5 10.5 22 12.5 7.5 14q4 24-49 24-52 0-124-21T71 272l32 205q121 59 260 59 127 0 196.5-49T614 346q-11-73-88-116-52-29-136-46h200z"/><glyph glyph-name="three.tosf" horiz-adv-x="661" d="M590 327q-15-100-129-136 55-14 87-59.5T569 14q-11-69-59-113t-112.5-60.5T249-176q-149 0-258 48L21 63q96-50 219-50 112 2 120 51 5 36-47 36H163l28 171h113q60 0 67 33 3 20-15.5 30.5T295 345q-119 0-226-63l31 198q103 56 242 56 118 0 191-53t57-156z"/><glyph glyph-name="four.tosf" horiz-adv-x="661" d="M368 520h227l-65-410h85L586-69h-84l-15-91H279l14 91H-44l29 185zm-46-410l24 149-142-149h118z"/><glyph glyph-name="five.tosf" horiz-adv-x="661" d="M141 520h476l-30-188-282 1-14-68q28 4 64 4 48 0 89-12.5t73.5-38 47-71T570 43q-10-61-43-105t-82.5-68-104-35T223-176Q88-176-8-128L20 51Q92 9 198 9q137 0 148 63 5 29-25.5 44.5T230 132q-91 2-174-22z"/><glyph glyph-name="six.tosf" horiz-adv-x="661" d="M276 412q70 32 147 32 44 0 83.5-15t70.5-42.5 45.5-73T628 212Q610 98 525.5 41T322-16Q156-16 83.5 82.5T38 356q14 88 53 155.5t94.5 107T303 677t130 19q114 0 205-48l-27-170q-68 41-146 41-139 0-189-107zm45-259q35 0 60.5 16.5T413 221q4 29-14 45.5T349 283q-48 0-102-31 1-57 20.5-78t53.5-21z"/><glyph glyph-name="seven.tosf" horiz-adv-x="661" d="M78 520h580l-21-146-343-534H41l316 492H48z"/><glyph glyph-name="eight.tosf" horiz-adv-x="661" d="M616 178q-13-83-95-138.5T289-16Q138-16 67.5 47T11 199q8 49 42 90.5t81 66.5q-64 60-49 151 13 77 89.5 133T386 696q129 0 198.5-64.5T640 487q-8-45-33-74.5T535 354q47-29 69-69.5T616 178zm-382 37q-2-25 17.5-44.5T310 151q35 0 57 13.5t26 31.5q4 16-4 28t-20 18.5-35 14.5q-54 23-59 25-37-31-41-67zm108 214q8-3 24.5-9t24.5-9q36 30 41 65 2 21-15.5 37T366 529q-30 0-50-12t-24-32q-5-34 50-56z"/><glyph glyph-name="nine.tosf" horiz-adv-x="661" d="M22 308q18 114 103.5 171T329 536q163 0 237-99t46-273Q585-9 478-92.5T223-176q-122 0-213 47L38 42Q104 1 188 1q72 0 117.5 24t70.5 84q-67-32-144-32-47 0-88 14.5t-72 42-45 73T22 308zm303 58q-34 0-58-17t-28-48q-5-30 14.5-47.5T306 236q51 0 99 29-3 101-80 101z"/><glyph glyph-name="zero.dnom" horiz-adv-x="427" d="M391 190q-15-89-67.5-144.5T176-10Q80-10 37 55.5T9 218q14 88 67 144t148 56q94 0 138-66t29-162zm-246 14q-16-94 39-94 57 0 72 94 16 94-39 94-57 0-72-94z"/><glyph glyph-name="one.dnom" horiz-adv-x="319" d="M156 408h101l-47-295h69L261 0H-19l18 113h77l26 164-77-25 19 118z"/><glyph glyph-name="two.dnom" horiz-adv-x="379" d="M52 377q76 41 151 41 68 0 113-37.5T349 271q-6-36-26.5-58.5T261 165q-10-6-24.5-15t-23-14-17.5-11.5-15-12.5h142L306 0H-21l9 59q9 60 44.5 96.5T124 221q9 5 27 14t25 13 16.5 10 13.5 11 5 11q2 9-6 14.5t-22 5.5q-67 0-152-55z"/><glyph glyph-name="three.dnom" horiz-adv-x="367" d="M330 287q-10-57-77-77 32-9 51.5-38T317 99Q299-10 136-10 46-10-16 20L2 134q58-30 122-30 63 0 67 28 2 11-5 17.5t-23 6.5H86l17 103h54q40 0 42 21 2 11-7.5 17t-28.5 6q-70 0-134-33l19 116q67 32 135 32 66 0 111.5-34t35.5-97z"/><glyph glyph-name="four.dnom" horiz-adv-x="412" d="M223 408h137l-39-246h50L354 55h-50l-9-55H170l8 55H-24l17 110zm-28-246l15 90-85-90h70z"/><glyph glyph-name="five.dnom" horiz-adv-x="366" d="M70 410h277l-18-114H168l-8-40q11 2 30 2 61 0 100.5-35T318 117q-10-68-65.5-97.5T121-10Q42-10-20 21l17 105q45-24 105-24 79 0 84 39 2 16-16 25.5t-52 9.5q-49 0-98-14z"/><glyph glyph-name="six.dnom" horiz-adv-x="407" d="M158 251q35 15 79 15 57 0 97-38.5T363 122t-61-99.5T184-10Q83-10 38 51.5T10 220q16 101 79.5 149.5T239 418q70 0 130-32l-16-98q-34 23-84 23-78 0-111-60zm24-159q47 0 52 40 3 17-8.5 27T194 169q-28 0-60-19 0-58 48-58z"/><glyph glyph-name="seven.dnom" horiz-adv-x="353" d="M151 0H-2l182 296H15l18 114h329l-14-89z"/><glyph glyph-name="eight.dnom" horiz-adv-x="404" d="M37 309q7 44 51 76.5T210 418q79 0 122.5-40.5T368 287q-5-26-19.5-43T305 210q61-35 49-109-7-47-54-79T165-10Q74-10 29.5 30T-6 125q8 57 71 92-38 33-28 92zm151-158q-34 11-38 13-21-14-23-36-2-14 10-25.5T173 91q43 0 49 27 4 22-34 33zm55 136q1 12-9 21t-31 9q-39 0-44-26-4-23 31-35 5-2 16.5-5t14.5-4q21 21 22 40z"/><glyph glyph-name="nine.dnom" horiz-adv-x="406" d="M17 286q11 67 60.5 99.5T195 418q101 0 146-61.5T369 188Q353 87 289.5 38.5T140-10Q64-10 9 19l16 101q41-23 94-23 76 0 106 61-39-16-83-16-57 0-96.5 38.5T17 286zm179 30q-46 0-52-39-2-17 8.5-27.5T181 239q33 0 63 19-1 58-48 58z"/><glyph glyph-name="zero.numr" horiz-adv-x="428" d="M436 469q-15-89-67.5-144.5T221 269q-96 0-139 65.5T54 497q14 88 67 144t148 56q94 0 138-66t29-162zm-246 14q-16-94 39-94 57 0 72 94 16 94-39 94-57 0-72-94z"/><glyph glyph-name="one.numr" horiz-adv-x="318" d="M199 680h101l-47-295h69l-18-113H24l18 113h77l26 164-77-25 19 118z"/><glyph glyph-name="two.numr" horiz-adv-x="379" d="M96 656q76 41 151 41 68 0 113-37.5T393 550q-6-36-26.5-58.5T305 444q-10-6-24.5-15t-23-14-17.5-11.5-15-12.5h142l-17-112H23l9 59q9 60 44.5 96.5T168 500q9 5 27 14t25 13 16.5 10 13.5 11 5 11q2 9-6 14.5t-22 5.5q-67 0-152-55z"/><glyph glyph-name="three.numr" horiz-adv-x="367" d="M374 566q-10-57-77-77 32-9 51.5-38t12.5-73q-18-109-181-109-90 0-152 30l18 114q59-30 122-30t67 28q2 11-5 17.5t-23 6.5h-77l17 103h54q40 0 42 21 2 11-7.5 17t-28.5 6q-70 0-134-33l19 116q67 32 135 32 66 0 111.5-34t35.5-97z"/><glyph glyph-name="four.numr" horiz-adv-x="413" d="M267 680h137l-39-246h50l-17-107h-50l-9-55H214l8 55H20l17 110zm-28-246l15 90-85-90h70z"/><glyph glyph-name="five.numr" horiz-adv-x="366" d="M113 680h277l-18-114H211l-8-40q11 2 30 2 61 0 100.5-35T361 387q-10-68-65.5-97.5T164 260q-79 0-141 31l17 105q45-24 105-24 79 0 84 39 2 16-16 25.5t-52 9.5q-49 0-98-14z"/><glyph glyph-name="six.numr" horiz-adv-x="407" d="M202 530q35 15 79 15 57 0 97-38.5T407 401t-61-99.5T228 269q-101 0-146 61.5T54 499q16 101 79.5 149.5T283 697q70 0 130-32l-16-98q-34 23-84 23-78 0-111-60zm24-159q47 0 52 40 3 17-8.5 27T238 448q-28 0-60-19 0-58 48-58z"/><glyph glyph-name="seven.numr" horiz-adv-x="353" d="M194 270H41l182 296H58l18 114h329l-14-89z"/><glyph glyph-name="eight.numr" horiz-adv-x="403" d="M81 588q7 44 51 76.5T254 697q79 0 122.5-40.5T412 566q-5-26-19.5-43T349 489q61-35 49-109-7-47-54-79t-135-32q-91 0-135.5 40T38 404q8 57 71 92-38 33-28 92zm151-158q-34 11-38 13-21-14-23-36-2-14 10-25.5t36-11.5q43 0 49 27 4 22-34 33zm55 136q1 12-9 21t-31 9q-39 0-44-26-4-23 31-35 5-2 16.5-5t14.5-4q21 21 22 40z"/><glyph glyph-name="nine.numr" horiz-adv-x="406" d="M61 565q11 67 60.5 99.5T239 697q101 0 146-61.5T413 467q-16-101-79.5-149.5T184 269q-76 0-131 29l16 101q41-23 94-23 76 0 106 61-39-16-83-16-57 0-96.5 38.5T61 565zm179 30q-46 0-52-39-2-17 8.5-27.5T225 518q33 0 63 19-1 58-48 58z"/><glyph glyph-name="emdash.case" horiz-adv-x="798" d="M745 269H44l26 162h701z"/><glyph glyph-name="endash.case" horiz-adv-x="592" d="M539 269H44l26 162h495z"/><glyph glyph-name="hyphen.case" horiz-adv-x="487" d="M70 431h390l-26-162H44z"/><glyph glyph-name="guillemotleft.case" horiz-adv-x="689" d="M627 142H420L315 332l6 41 162 185h214L516 350zm-278 0H142L37 332l6 41 162 185h214L238 350z"/><glyph glyph-name="guillemotright.case" horiz-adv-x="690" d="M504 142H289l182 208-112 208h207l106-190-7-41zm-279 0H10l182 208L80 558h207l106-190-7-41z"/><glyph glyph-name="guilsinglleft.case" horiz-adv-x="411" d="M349 142H142L37 332l6 41 162 185h214L238 350z"/><glyph glyph-name="guilsinglright.case" horiz-adv-x="411" d="M225 142H10l182 208L80 558h207l106-190-7-41z"/><glyph glyph-name="cent.tf" horiz-adv-x="661" d="M561 463l-26-163q-25 13-61 20l-25-157q40 6 72 22L494 9Q458-3 422-9l-18-111h-89l16 104q-118 3-187 70.5T91 243q17 126 109.5 190T407 497h6l16 103h89l-18-114q29-8 61-23zM384 316q-68-17-78-79-9-59 54-74z"/><glyph glyph-name="currency.tf" horiz-adv-x="661" d="M218 168l-72-63-77 87 65 60q-20 53-10 112 8 55 42 98l-45 49 92 84 51-59q44 18 98 18 56 0 100-22l74 65 76-87-68-62q21-53 11-112-8-57-42-97l46-49-94-84-50 57q-42-17-98-17-55 0-99 22zm71 177q-3-18 7.5-31t34.5-13q27 0 42 16t17 38q3 18-7.5 31.5T348 400q-27 0-42-16.5T289 345z"/><glyph glyph-name="dollar.tf" horiz-adv-x="661" d="M341-119H183l17 109Q95 5 13 53l32 200q100-79 232-79 91 0 96 33 2 15-14.5 27T314 256t-62.5 21.5-67.5 30-59 42.5-39 63.5-5 89.5q12 78 75.5 126.5T310 691l18 108h158l-17-111q96-14 165-53l-30-193q-92 66-212 66-75 0-79-29-2-15 21-28.5t59-24 76.5-29.5 74.5-42.5 52-67.5 10-100Q579 11 358-13z"/><glyph glyph-name="Euro.tf" horiz-adv-x="661" d="M681 668l-29-187q-48 21-106 21-107 0-167-56h190l-14-89H330q-4-15-6-34h226l-14-89H346q41-53 136-53 76 0 131 24L582 7q-68-23-148-23-130 0-227 63.5T92 234H8l14 89h68q2 20 4 34H27l14 89h77q48 124 157 187t241 63q89 0 165-28z"/><glyph glyph-name="sterling.tf" horiz-adv-x="661" d="M574 0H0l29 180h21q31 0 49.5 18t22.5 46l4 24H58l24 150h68l6 39q19 123 99 181t201 58q103 0 187-38l-25-165q-61 31-129 31-104 0-117-81l-4-25h165l-24-150H345l-5-26q-6-47-41-62h304z"/><glyph glyph-name="yen.tf" horiz-adv-x="661" d="M473 680h250L502 360h104l-17-110H438l-7-39h151l-17-110H413L397 0H167l16 101H31l17 110h153l7 39H55l17 110h107L60 680h234l53-229z"/></font>
</defs>
</svg>
