<svg xmlns="http://www.w3.org/2000/svg"><defs><font id="MullerUltraLight" horiz-adv-x="577"><font-face font-family="Muller UltraLight" font-weight="250" ascent="780" descent="-220" x-height="480" cap-height="700" bbox="-158 -231.045 1219 932" underline-thickness="50" underline-position="-225" unicode-range="U+0020-25CA"/><glyph glyph-name="f_f" unicode="ff" horiz-adv-x="666" d="M689 662q-41 23-108 23-126 0-126-120v-85h205v-36H455V0h-38v444H145V0h-38v444H23v36h84v57q0 76 48 117t122 41q85 0 158-48 36 74 139 74 65 0 115-23v-36zM145 480h272v87q0 25 5 48-64 44-144 44-60 0-96.5-32T145 537v-57z"/><glyph glyph-name="f_f_i" unicode="ffi" horiz-adv-x="845" d="M145 0h-38v444H23v36h84v57q0 76 49 117t127 41q81 0 157-50 46 70 147 70 78 0 153-43v-39q-72 46-152 46-60 0-96.5-31.5T455 559v-79h305V0h-38v444H455V0h-38v444H145V0zm0 537v-57h272v79q0 31 9 56-66 44-142 44-64 0-101.5-32T145 537z"/><glyph glyph-name="f_f_l" unicode="ffl" horiz-adv-x="855" d="M732 680v16l38 11V0h-38v644q-65 35-144 35-60 0-96.5-32.5T455 553v-73h184v-36H455V0h-38v444H145V0h-38v444H23v36h84v57q0 76 49 117t127 41q79 0 159-51 43 71 145 71 77 0 145-35zM417 480v73q0 31 10 61-65 45-143 45-64 0-101.5-32T145 537v-57h272z"/><glyph glyph-name=".notdef" horiz-adv-x="283"/><glyph glyph-name=".null" horiz-adv-x="0"/><glyph glyph-name="nonmarkingreturn" horiz-adv-x="333"/><glyph glyph-name="space" horiz-adv-x="263"/><glyph glyph-name="exclam" unicode="!" horiz-adv-x="205" d="M120 177H86l-3 523h40zm12-155q0-13-8.5-21T102-7Q90-7 81.5 1T73 22t8.5 21 20.5 8q13 0 21.5-8t8.5-21z"/><glyph glyph-name="quotedbl" unicode="&quot;" horiz-adv-x="267" d="M195 556h-27v144h38zm-100 0H68v144h38z"/><glyph glyph-name="numbersign" unicode="#" horiz-adv-x="648" d="M127 0H88l44 185H40v34h100l58 243H90v34h116l43 185h39l-44-185h234l43 185h39l-44-185h91v-34h-99l-57-243h106v-34H443L399 0h-39l44 185H170zm110 462l-58-243h234l57 243H237z"/><glyph glyph-name="dollar" unicode="$" horiz-adv-x="569" d="M300-130h-34v120Q143-4 51 48v40q107-61 239-61 89 0 143.5 32T488 161q0 45-24 76.5t-62 49-84.5 31-93 27.5-84.5 33.5T78 433t-24 84q0 81 60.5 125T266 690v120h34V690q105-3 185-48v-39q-87 50-200 50-84 0-137.5-33.5T94 518q0-42 24-72t62-46.5 84.5-29.5 93-27.5T442 308t62-56.5 24-87.5q0-88-64-131T300-11v-119z"/><glyph glyph-name="percent" unicode="%" horiz-adv-x="879" d="M255-60h-39l409 820h39zm84 624q0-69-44-108t-107-39-107.5 39T36 564t44.5 108T188 711t107-39 44-108zm-266 0q0-52 32.5-82.5T189 451q49 0 82 31t33 82-33 82-82 31q-51 0-83.5-30.5T73 564zm770-428q0-69-44-108T692-11 584.5 28 540 136t44.5 108T692 283t107-39 44-108zm-266 0q0-52 32.5-82.5T693 23q49 0 82 31t33 82-33 82-82 31q-51 0-83.5-30.5T577 136z"/><glyph glyph-name="ampersand" unicode="&amp;" horiz-adv-x="688" d="M551 113L676 0h-48l-99 88q-96-99-248-99-105 0-165.5 49.5T55 163q0 111 161 206-97 95-97 173 0 69 56.5 119T322 711q77 0 125.5-39T496 571q0-18-6-35.5t-14-31-25-29.5-28.5-25.5-36-24.5-35.5-21.5-39-21.5-36-20l6-6 240-217q60 78 58 178h40q0-114-69-204zM322 674q-75 0-119.5-39T158 542q0-66 91-155 7 4 38 20t42 23 37 22.5 37.5 26 26.5 26 21 31 6 32.5q0 47-37 76.5T322 674zM95 164q0-61 50-99.5T283 26q133 0 218 88L248 339q-1 1-2.5 2t-2.5 2q-68-39-108-81t-40-98z"/><glyph glyph-name="quotesingle" unicode="'" horiz-adv-x="167" d="M95 556H68v144h38z"/><glyph glyph-name="parenleft" unicode="(" horiz-adv-x="257" d="M197 808h38q-67-95-105.5-217T91 350t38.5-241T235-108h-38Q129-11 89 110T49 350t40 240 108 218z"/><glyph glyph-name="parenright" unicode=")" horiz-adv-x="257" d="M22 808h38q69-97 108.5-218T208 350q0-118-40-239.5T60-108H22q67 95 105.5 217T166 350t-38.5 241T22 808z"/><glyph glyph-name="asterisk" unicode="*" horiz-adv-x="427" d="M213 525l-82-119-29 21 87 113-135 40 13 34 132-48-4 134h36l-4-134 133 48 12-34-135-40 87-113-29-21z"/><glyph glyph-name="plus" unicode="+" horiz-adv-x="534" d="M285 368h197v-36H285V135h-36v197H52v36h197v197h36V368z"/><glyph glyph-name="comma" unicode="," horiz-adv-x="203" d="M70-144H38L89 74h40z"/><glyph glyph-name="hyphen" unicode="-" horiz-adv-x="485" d="M69 262h347v-36H69v36z"/><glyph glyph-name="period" unicode="." horiz-adv-x="198" d="M129 23q0-14-8.5-22T99-7 77.5 1 69 23q0 13 9 21t21 8q13 0 21.5-8t8.5-21z"/><glyph glyph-name="slash" unicode="/" horiz-adv-x="406" d="M69-57H39l297 814h30z"/><glyph glyph-name="zero" unicode="0" horiz-adv-x="702" d="M57 340q0 159 75 255t219 96q145 0 219.5-95.5T645 340 570.5 84.5 351-11q-144 0-219 96T57 340zm548 0q0 146-64 229.5T351 653t-190-83.5T97 340t64-229.5T351 27t190 83.5T605 340z"/><glyph glyph-name="one" unicode="1" horiz-adv-x="406" d="M219 680h28V38h138V0H54v38h153v599L54 579v38z"/><glyph glyph-name="two" unicode="2" horiz-adv-x="562" d="M72 628q90 63 207 63 98 0 159-46t61-124q0-34-12-64t-28-51.5-45.5-45.5-52-38-59.5-36q-102-59-135-88-75-67-77-160h417V0H47v22q0 46 13.5 85.5T92 173t51 53.5 57 42.5 64 38q3 2 5 3t4.5 2.5 4.5 2.5q40 24 56 34t46.5 33 43 40 24 43.5T459 522q0 61-50 96.5T276 654q-106 0-204-65v39z"/><glyph glyph-name="three" unicode="3" horiz-adv-x="586" d="M502 510q0-55-33-98.5T375 355q67-13 111-56.5T530 180q0-90-65-140.5T297-11Q153-11 60 34v39q96-47 234-46 90 0 144 40t54 115q0 77-55.5 114T294 333H194v38l96-1q85 0 129 39.5t44 97.5q0 64-49 105.5T278 654q-107 0-206-47v39q93 45 210 45 100 0 160-52t60-129z"/><glyph glyph-name="four" unicode="4" horiz-adv-x="637" d="M420 680h43V203h142v-38H463V0h-39v165H27v35zm4-477v423L77 203h347z"/><glyph glyph-name="five" unicode="5" horiz-adv-x="574" d="M99 680h391v-38H137l-18-268q75 24 154 24 108 0 180-50.5T525 194q0-92-68-148.5T277-11Q152-11 60 35v38q94-47 213-47 98 0 155 45.5T485 194q0 86-62.5 126.5T262 361q-93 0-184-32z"/><glyph glyph-name="six" unicode="6" horiz-adv-x="607" d="M98 313q106 100 240 100 93 0 159-54.5T563 204 497 46.5 331-11q-134 0-203.5 88T58 321q0 189 80 279.5T358 691q80 0 149-37v-38q-69 37-148 37-121 0-191-80T98 320v-7zm2-43q11-117 69.5-180.5T329 26q85 0 139.5 46T523 203q0 87-55 130t-138 43q-63 0-124-27.5T100 270z"/><glyph glyph-name="seven" unicode="7" horiz-adv-x="520" d="M35 680h466v-34L189 0h-43l310 642H35v38z"/><glyph glyph-name="eight" unicode="8" horiz-adv-x="643" d="M81 524q0 69 61 118t179 49q110 0 175.5-53T563 514q1-59-28.5-107T451 328q64-26 100.5-64.5T588 165q0-73-68.5-124.5T323-11 125.5 44.5 56 183q0 60 34.5 112t97.5 83Q81 430 81 524zm244-194q-64 17-101 32-61-26-94.5-73T96 186q0-72 58.5-116T324 26q104 0 164 40t60 98q0 30-12 53.5t-30 39-47 29-55.5 22T340 326q-10 3-15 4zm198 178q0 58-54.5 102T320 654q-97 0-148.5-37.5T120 525q0-36 16-62.5t47-43.5 57.5-27 66.5-21q10-3 15-4 42-11 93-26 51 27 79.5 70.5T523 508z"/><glyph glyph-name="nine" unicode="9" horiz-adv-x="607" d="M44 476q0 100 66 157.5T276 691q134 0 203.5-88T549 359q0-189-80-279.5T249-11q-80 0-149 37v38q69-37 148-37 122 0 192 80t70 253v8Q403 267 269 267q-93 0-159 54.5T44 476zm40 1q0-87 55.5-130T278 304q63 0 124 28t106 79q-11 116-70 179.5T278 654q-85 0-139.5-46T84 477z"/><glyph glyph-name="colon" unicode=":" horiz-adv-x="198" d="M129 402q0-13-8.5-21T99 373q-12 0-21 8t-9 21 9 21 21 8q13 0 21.5-8t8.5-21zm0-379q0-14-8.5-22T99-7 77.5 1 69 23q0 13 9 21t21 8q13 0 21.5-8t8.5-21z"/><glyph glyph-name="semicolon" unicode=";" horiz-adv-x="288" d="M119-144H87l51 218h40zm58 587q0-13-8.5-21t-21.5-8q-12 0-21 8t-9 21q0 14 8.5 22t21.5 8 21.5-8 8.5-22z"/><glyph glyph-name="less" unicode="&lt;" horiz-adv-x="483" d="M407 209v-38L46 330v40l361 159v-38L85 350z"/><glyph glyph-name="equal" unicode="=" horiz-adv-x="543" d="M470 422H73v37h397v-37zm0-181H73v37h397v-37z"/><glyph glyph-name="greater" unicode="&gt;" horiz-adv-x="483" d="M437 330L76 171v38l322 141L76 491v38l361-159v-40z"/><glyph glyph-name="question" unicode="?" horiz-adv-x="488" d="M251 192h-38q0 37 20 75t48.5 70 57 64.5 48.5 70 20 73.5q0 61-48.5 94.5T225 673q-95 0-187-56v38q88 56 192 56 98 0 157.5-43T447 548q0-40-20-80t-49-73.5-58-65.5-49-68-20-69zm10-169q0-14-8.5-22T231-7t-21.5 8-8.5 22q0 13 9 21t21 8q13 0 21.5-8t8.5-21z"/><glyph glyph-name="at" unicode="@" horiz-adv-x="1056" d="M50 240q0 91 32.5 175T175 565.5t153.5 106T536 711q88 0 165-26.5T832 614t93-100 57.5-116 18.5-119q0-131-50-200.5T820 9q-61 0-98 32t-44 93q-24-47-69-74.5T509 32q-85 0-140 57t-55 149q0 91 55 148.5T509 444q56 0 100-28t66-71v90h37V155q0-53 27.5-82.5T820 43q65 0 103.5 62T962 279q0 68-28.5 137t-80 126.5-135 94T536 673q-104 0-190-36t-141-96.5-85-138T90 240q0-101 38-184.5t102.5-137 149-82.5T558-193q121 0 223 36v-38q-101-36-224-36-101 0-191.5 31.5T204-110 91.5 38.5 50 240zm625 50q-16 50-60 84t-102 34q-69 0-115-46.5T352 238t46-123.5T513 68q58 0 102 34t60 84v104z"/><glyph glyph-name="A" unicode="A" horiz-adv-x="708" d="M57 0H14l318 700h45L694 0h-42l-93 204H149zm290 642L166 241h378L363 642q-1 3-3.5 9t-4.5 9q-1-3-4-9t-4-9z"/><glyph glyph-name="B" unicode="B" horiz-adv-x="678" d="M101 700h261q108 0 171.5-43.5T597 525q0-67-39-106.5T460 368q30-6 56-17t52-30.5 41.5-53.5 15.5-78q0-47-18-82.5t-44.5-55-64.5-32-70.5-16T358 0H101v700zm484-507q0 36-14.5 64T535 301.5t-49 27-53 14.5-49 4H141V38h210q37 0 65 2.5T477.5 52 533 77t37 45.5 15 70.5zm-28 327q0 142-198 142H141V385h251q68 0 116.5 36t48.5 99z"/><glyph glyph-name="C" unicode="C" horiz-adv-x="657" d="M51 342q0 88 31.5 160T166 618.5 281.5 687 413 711q108 0 196-48v-40q-83 50-191 50-61 0-118-21t-104.5-60.5-76-104.5T91 342q0-77 29-139t76.5-99.5 105-57T420 27q114 0 197 51V38q-89-49-204-49-67 0-130.5 22.5T167 76 83 187.5 51 342z"/><glyph glyph-name="D" unicode="D" horiz-adv-x="731" d="M101 700h207q181 0 276-96.5T679 350 584 96.5 308 0H101v700zm538-350q0 144-84 228t-247 84H141V38h167q163 0 247 84t84 228z"/><glyph glyph-name="E" unicode="E" horiz-adv-x="624" d="M101 700h459v-38H141V371h389v-38H141V38h428V0H101v700z"/><glyph glyph-name="F" unicode="F" horiz-adv-x="597" d="M101 700h461v-38H141V362h392v-38H141V0h-40v700z"/><glyph glyph-name="G" unicode="G" horiz-adv-x="708" d="M52 350q0 90 31.5 161t85 113.5 118 64.5T421 711q112 0 204-47v-39q-85 48-199 48-64 0-122-19t-106.5-56-77-101T92 350q0-84 29-148t78-101 107.5-55.5T431 27q96 0 173 37v303h39V37q-98-48-215-48-73 0-138.5 20.5T170 72 84 185.5 52 350z"/><glyph glyph-name="H" unicode="H" horiz-adv-x="766" d="M625 700h40V0h-40v333H141V0h-40v700h40V371h484v329z"/><glyph glyph-name="I" unicode="I" horiz-adv-x="242" d="M101 700h40V0h-40v700z"/><glyph glyph-name="J" unicode="J" horiz-adv-x="521" d="M163 700h264V187q0-97-59.5-147T210-10Q98-10 31 33v40q67-45 173-45 85 0 134 39.5T387 188v474H163v38z"/><glyph glyph-name="K" unicode="K" horiz-adv-x="656" d="M141 0h-40v700h40V378h202l237 322h46L374 359 652 0h-47L343 340H141V0z"/><glyph glyph-name="L" unicode="L" horiz-adv-x="576" d="M101 700h40V38h418V0H101v700z"/><glyph glyph-name="M" unicode="M" horiz-adv-x="898" d="M764 700h33V0h-40v623L461 188h-24L141 623V0h-40v700h32l316-463z"/><glyph glyph-name="N" unicode="N" horiz-adv-x="766" d="M141 0h-40v700h36L625 67v633h40V0h-35L141 632V0z"/><glyph glyph-name="O" unicode="O" horiz-adv-x="825" d="M50 350q0 67 23 130.5T139.5 596 254 679.5 412 711q88 0 159-31.5T685.5 596 752 480.5 775 350t-23-130.5T685.5 104 571 20.5 412-11q-87 0-158 31.5T139.5 104 73 219.5 50 350zm685 0q0 61-20.5 117.5t-59 103-102 74.5T412 673t-141-28-101.5-74.5-59-103T90 350t20.5-117.5 59-103T271 55t141-28 141.5 28 102 74.5 59 103T735 350z"/><glyph glyph-name="P" unicode="P" horiz-adv-x="653" d="M101 700h223q293 0 293-219 0-220-293-220H141V0h-40v700zm476-219q0 181-251 181H141V299h185q251 0 251 182z"/><glyph glyph-name="Q" unicode="Q" horiz-adv-x="825" d="M776-33l-26-26L634 57q-95-68-222-68-87 0-158 31.5T139.5 104 73 219.5 50 350t23 130.5T139.5 596 254 679.5 412 711q88 0 159-31.5T685.5 596 752 480.5 775 350q0-76-29-147T662 81zM90 350q0-61 20.5-117.5t59-103T271 55t141-28q112 0 194 59L454 238l25 25 155-154q50 45 75.5 109T735 350q0 61-20.5 117.5t-59 103-102 74.5T412 673t-141-28-101.5-74.5-59-103T90 350z"/><glyph glyph-name="R" unicode="R" horiz-adv-x="685" d="M141 0h-40v700h266q64 0 118-18.5t93-66.5 39-120q0-96-62.5-145.5T402 292L662 0h-49L356 289H141V0zm0 662V327h228q85 0 146.5 40.5T577 495t-61 127-147 40H141z"/><glyph glyph-name="S" unicode="S" horiz-adv-x="568" d="M57 537q0 85 65 129.5T280 711q114 0 202-49v-39q-87 50-200 50-79 0-132-33.5T97 538q0-42 24-73t62-49.5 84-33.5 92.5-31.5T444 312t62-59.5 24-88.5q0-89-68-132T290-11Q157-11 52 48v40q107-61 236-61 89 0 145.5 32T490 161q0 45-24 77.5t-62 52-84 35-92.5 32T143 395t-62 57-24 85z"/><glyph glyph-name="T" unicode="T" horiz-adv-x="594" d="M14 700h566v-38H317V0h-40v662H14v38z"/><glyph glyph-name="U" unicode="U" horiz-adv-x="750" d="M617 700h40V245q0-69-21.5-120t-61-80-89-42.5T375-11 264.5 2.5t-89 42.5-61 80T93 245v455h40V246q0-219 242-219t242 219v454z"/><glyph glyph-name="V" unicode="V" horiz-adv-x="681" d="M361 0h-41L18 700h43L340 45l280 655h43z"/><glyph glyph-name="W" unicode="W" horiz-adv-x="993" d="M925 700h43L745 0h-43L496 628 291 0h-43L25 700h43L270 51l209 643h36L723 51z"/><glyph glyph-name="X" unicode="X" horiz-adv-x="614" d="M55 0H8l276 360L23 700h47l237-309 237 309h47L331 360 606 0h-47L307 329z"/><glyph glyph-name="Y" unicode="Y" horiz-adv-x="634" d="M337 0h-40v279L21 700h45l251-384 251 384h45L337 279V0z"/><glyph glyph-name="Z" unicode="Z" horiz-adv-x="574" d="M543 0H27v35l458 627H44v38h490v-35L75 38h468V0z"/><glyph glyph-name="bracketleft" unicode="[" horiz-adv-x="249" d="M226-110H76v920h150v-38H116V-72h110v-38z"/><glyph glyph-name="backslash" unicode="\" horiz-adv-x="406" d="M367-57h-30L40 757h30z"/><glyph glyph-name="bracketright" unicode="]" horiz-adv-x="249" d="M173-110H23v38h111v844H23v38h150v-920z"/><glyph glyph-name="asciicircum" unicode="^" horiz-adv-x="495" d="M96 398H53l177 302h34l178-302h-43L247 658z"/><glyph glyph-name="underscore" unicode="_" horiz-adv-x="434" d="M434-132H0v36h434v-36z"/><glyph glyph-name="grave" unicode="`" horiz-adv-x="170" d="M148 776h-42L12 913h48z"/><glyph glyph-name="a" unicode="a" horiz-adv-x="540" d="M450 77q0-46 48-46 16 0 37 7V6q-24-8-47-8-33 0-54.5 19T412 76v13Q337-11 204-11q-68 0-116.5 36T39 129q0 79 60.5 116T248 282q83 0 164-26v44q0 71-43 113t-122 42q-90 0-171-31v37q85 30 174 30 95 0 147.5-51.5T450 296V77zM78 130q0-52 39-79.5T211 23q62 0 115.5 29.5T412 136v87q-81 26-160 26-73 0-123.5-28.5T78 130z"/><glyph glyph-name="b" unicode="b" horiz-adv-x="615" d="M81 700h38V370q30 53 84.5 87T329 491q103 0 171-69.5T568 240 500 58.5 329-11q-71 0-126 34.5T116 114V0H81v700zm449-460q0 99-58 157t-147 58q-72 0-127.5-41T119 310V170q23-63 78.5-104T325 25q89 0 147 58.5T530 240z"/><glyph glyph-name="c" unicode="c" horiz-adv-x="493" d="M47 236q0 124 77 189.5T305 491q84 0 143-39v-37q-58 40-139 40-92 0-158-55T85 237q0-103 63-157.5T300 25q86 0 153 38V25q-68-36-157-36-102 0-175.5 63.5T47 236z"/><glyph glyph-name="d" unicode="d" horiz-adv-x="615" d="M496 700h38V0h-35v114q-32-56-87.5-90.5T286-11q-104 0-171.5 69.5T47 240t67.5 181.5T286 491q70 0 125-34t85-87v330zm0-390q-24 63-79.5 104T289 455q-89 0-146.5-58T85 240q0-98 58-156.5T289 25q72 0 127.5 41T496 170v140z"/><glyph glyph-name="e" unicode="e" horiz-adv-x="546" d="M47 240q0 116 70 183.5T282 491q52 0 93.5-17t66-44.5T483 367t18.5-72.5T498 221H85q4-98 69.5-147T314 25q91 0 156 38V25q-66-36-161-36-112 0-187 63.5T47 240zm418 15q4 33-4 66.5t-28 64-58.5 50T284 455q-81 0-138.5-53.5T85 255h380z"/><glyph glyph-name="f" unicode="f" horiz-adv-x="356" d="M145 0h-38v444H23v36h84v77q0 80 45 117t112 37q65 0 115-23v-36q-41 23-108 23-126 0-126-120v-75h205v-36H145V0z"/><glyph glyph-name="g" unicode="g" horiz-adv-x="615" d="M47 240q0 112 67.5 181.5T286 491q70 0 125.5-34.5T499 366v114h35V0q0-115-73.5-173T280-231q-103 0-190 46v37q91-47 186-47t157.5 48T496 0v111q-30-53-85-87.5T286-11q-104 0-171.5 69.5T47 240zm449 70q-24 63-79.5 104T289 455q-89 0-146.5-58T85 240q0-98 58-156.5T289 25q72 0 127.5 40T496 166v144z"/><glyph glyph-name="h" unicode="h" d="M81 700h38V385q30 43 79.5 74.5T312 491q82 0 136-53.5T502 295V0h-38v291q0 78-43.5 121T309 455q-64 0-113-35t-77-85V0H81v700z"/><glyph glyph-name="i" unicode="i" horiz-adv-x="208" d="M123 0H85v480h38V0zm9 620q0-28-28-28t-28 28q0 27 28 27t28-27z"/><glyph glyph-name="j" unicode="j" horiz-adv-x="208" d="M123-109q0-65-35-93.5T1-231q-36 0-70 12v36q25-11 61-11 93 0 93 89v585h38v-589zm8 729q0-28-28-28-11 0-19.5 7.5T75 620t8.5 20 19.5 7q28 0 28-27z"/><glyph glyph-name="k" unicode="k" horiz-adv-x="498" d="M494 0h-46L239 229H119V0H81v700h38V265h123l180 215h45L272 246z"/><glyph glyph-name="l" unicode="l" horiz-adv-x="208" d="M85 730h38V0H85v730z"/><glyph glyph-name="m" unicode="m" horiz-adv-x="892" d="M119 0H81v480h35v-92q28 40 75.5 71.5T300 491q56 0 97.5-28t59.5-75q79 103 187 103 78 0 125.5-51T817 309V0h-38v308q0 65-37.5 106T640 455q-100 0-171-104 4-17 4-42V0h-38v308q0 65-37.5 106T296 455q-58 0-103.5-34T119 342V0z"/><glyph glyph-name="n" unicode="n" d="M116 381q29 44 80 77t116 33q82 0 136-53.5T502 295V0h-38v291q0 78-43.5 121T309 455q-64 0-113-35t-77-85V0H81v480h35v-99z"/><glyph glyph-name="o" unicode="o" horiz-adv-x="591" d="M46 240q0 116 73.5 183.5T295 491q103 0 176.5-67.5T545 240 471.5 56.5 295-11q-102 0-175.5 67.5T46 240zm461 0q0 98-61.5 156T295 454t-150-58-61-156 61-156 150-58 150.5 58T507 240z"/><glyph glyph-name="p" unicode="p" horiz-adv-x="615" d="M116 366q32 56 87 90.5T329 491q103 0 171-69.5T568 240 500 58.5 329-11q-71 0-125.5 34T119 110v-330H81v700h35V366zm414-126q0 98-58 156.5T325 455q-72 0-127.5-41T119 310V170q23-63 78.5-104T325 25q89 0 147 58t58 157z"/><glyph glyph-name="q" unicode="q" horiz-adv-x="615" d="M47 240q0 112 67.5 181.5T286 491q70 0 125.5-34.5T499 366v114h35v-700h-38v330q-30-53-85-87T286-11q-104 0-171.5 69.5T47 240zm449 70q-24 63-79.5 104T289 455q-88 0-146-58.5T85 240q0-99 57.5-157T289 25q72 0 127.5 41T496 170v140z"/><glyph glyph-name="r" unicode="r" horiz-adv-x="344" d="M116 349q26 62 83.5 102.5T332 490v-38q-82 3-138-45t-75-119V0H81v480h35V349z"/><glyph glyph-name="s" unicode="s" horiz-adv-x="455" d="M51 365q0 63 50.5 94.5T222 491q94 0 165-42v-36q-67 43-163 43-56 0-95.5-22.5T89 366q0-34 24-57t60.5-33.5 79-23.5 79-26 60.5-41.5 24-69.5q0-63-53-94.5T232-11q-49 0-100.5 13T48 37v38q34-23 84.5-36.5T230 25q65 0 106.5 22t41.5 67q0 39-33.5 63t-82 36.5T166 240t-81.5 45T51 365z"/><glyph glyph-name="t" unicode="t" horiz-adv-x="376" d="M105 636l38 11V480h208v-36H143V141q0-115 118-115 58 0 103 24V14Q318-9 251-9q-69 0-107.5 37T105 136v308H15v36h90v156z"/><glyph glyph-name="u" unicode="u" d="M458 480h38V0h-35v99q-29-44-80-77T265-11q-85 0-137.5 53T75 185v295h38V189q0-78 42.5-121T268 25q64 0 113 35t77 85v335z"/><glyph glyph-name="v" unicode="v" horiz-adv-x="525" d="M463 480h42L283 0h-41L20 480h42L263 43z"/><glyph glyph-name="w" unicode="w" horiz-adv-x="799" d="M734 480h40L594 0h-39L399 423 244 0h-39L25 480h40L225 45l156 429h36L574 45z"/><glyph glyph-name="x" unicode="x" horiz-adv-x="483" d="M412 480h45L264 246 467 0h-44L241 219 60 0H15l204 246L26 480h44l171-206z"/><glyph glyph-name="y" unicode="y" horiz-adv-x="531" d="M276 40l194 440h40L260-84q-35-79-74.5-113T96-231q-26 0-50 7v34q28-7 46-7 43 0 75.5 30.5T229-69l29 67L15 480h41z"/><glyph glyph-name="z" unicode="z" horiz-adv-x="449" d="M45 480h358v-33L79 34h338V0H32v33l325 413H45v34z"/><glyph glyph-name="braceleft" unicode="{" horiz-adv-x="271" d="M231-76v-34q-115-21-115 97v251q0 47-27.5 72T27 333v34q34-2 61.5 23t27.5 72v251q0 56 28 82.5t87 14.5v-34q-42 6-58.5-13T156 699V460q0-47-19.5-75T87 350q30-7 49.5-35t19.5-75V1q0-45 16.5-64T231-76z"/><glyph glyph-name="bar" unicode="|" horiz-adv-x="192" d="M116-100H76v910h40v-910z"/><glyph glyph-name="braceright" unicode="}" horiz-adv-x="271" d="M155-13q0-118-115-97v34q42-6 59 13t17 64v239q0 47 19.5 75t49.5 35q-30 7-49.5 35T116 460v239q0 45-17 64t-59 13v34q59 12 87-14.5t28-82.5V462q0-47 27.5-72t61.5-23v-34q-34 2-61.5-23T155 238V-13z"/><glyph glyph-name="asciitilde" unicode="~" horiz-adv-x="581" d="M509 369q1-40-23.5-65.5T420 278q-37 0-126 33.5T169 345q-27 0-41.5-15T114 290H77q-1 41 23.5 66t65.5 25q38 0 126-33t124-33q26 0 41.5 14.5T472 369h37z"/><glyph glyph-name="exclamdown" unicode="¡" horiz-adv-x="191" d="M116-216H76l3 523h34zm9 678q0-13-8.5-21T95 433q-12 0-20.5 8T66 462t8.5 21 20.5 8q13 0 21.5-8t8.5-21z"/><glyph glyph-name="cent" unicode="¢" horiz-adv-x="511" d="M320 25q79 5 137 38V25Q399-6 320-11v-109h-34v109q-98 5-166.5 68.5T51 236q0 117 69 182t166 72v110h34V491q78-3 132-39v-37q-55 38-132 40V25zm-34 429q-83-8-140-63T89 237q0-97 57-151t140-60v428z"/><glyph glyph-name="sterling" unicode="£" horiz-adv-x="605" d="M560 0H38v38h33q36 0 57 25t21 69v187H67v38h82v106q0 114 64 170.5T369 690q81 0 143-38v-38q-62 39-139 39-79 0-131.5-47T189 462V357h247v-38H189V132q0-72-43-94h414V0z"/><glyph glyph-name="currency" unicode="¤" horiz-adv-x="572" d="M166 201l-64-65-27 27 63 63q-47 50-47 124t47 124l-63 63 27 27 64-65q52 38 120 38t120-38l64 65 27-27-63-63q46-51 46-124t-46-124l63-63-27-27-64 65q-52-38-120-38t-120 38zm-37 149q0-68 45.5-110T286 198t111 42 45 110q0 67-45.5 109.5T286 502q-66 0-111.5-42T129 350z"/><glyph glyph-name="yen" unicode="¥" horiz-adv-x="635" d="M556 680h44L356 309h166v-34H337v-87h185v-34H337V0h-39v154H114v34h184v87H114v34h164L35 680h44l238-364z"/><glyph glyph-name="brokenbar" unicode="¦" horiz-adv-x="210" d="M125 463H85v347h40V463zm0-563H85v347h40v-347z"/><glyph glyph-name="section" unicode="§" horiz-adv-x="486" d="M422 88q0-59-51.5-90.5T243-34Q140-34 72 11v36Q141 0 241 0q62 0 102.5 23T384 88q0 20-9.5 36.5T354 151t-35.5 20.5-39 15T232 201q-34 9-51.5 14.5t-45 17.5-41 25T70 292.5 59 341q0 81 98 133-88 37-88 112 0 59 49 92t120 33q89 0 157-40v-36q-66 42-155 42-56 0-94.5-24T107 587q0-25 11-42.5t35.5-30 45-19.5 57.5-17q10-3 15-4 38-10 61-18.5t49.5-24.5 39.5-39.5 13-56.5q0-79-104-130 92-38 92-117zM243 235q3-1 21.5-6t27.5-9q105 38 105 110 0 20-8 36t-19 26.5-31 20-36.5 15T260 440q-56 16-65 19-39-13-69-43t-30-70q0-21 9-37t20-26.5 34.5-20.5 38-14 45.5-13z"/><glyph glyph-name="dieresis" unicode="¨" horiz-adv-x="282" d="M273 836q0-13-9-22t-22-9-22 9-9 22q0 12 9 21.5t22 9.5 22-9.5 9-21.5zm-201 0q0-13-9-22t-22-9-22 9-9 22q0 12 9 21.5t22 9.5 22-9.5 9-21.5z"/><glyph glyph-name="copyright" unicode="©" horiz-adv-x="854" d="M800 350q0-86-33.5-157t-88-114T559 12.5 427-11 295 12.5 175.5 79t-88 114T54 350t33.5 157 88 114T295 687.5 427 711t132-23.5T678.5 621t88-114T800 350zM573 183q-65-34-133-34-79 0-138 50t-59 143q0 103 62 156t146 53q68 0 122-35v-30q-53 34-117 34-74 0-127-44t-53-133q0-81 50-122t121-41q65 0 126 33v-30zM73 350q0-82 31.5-149t83-108.5 113-63.5T427 7t127 22 113.5 63.5 83 108.5T782 350t-31.5 149-83 108.5T554 671t-127 22-126.5-22-113-63.5-83-108.5T73 350z"/><glyph glyph-name="guillemotleft" unicode="«" horiz-adv-x="434" d="M371 66h-42L210 235v10l119 169h42L248 240zm-159 0h-42L51 235v10l119 169h42L89 240z"/><glyph glyph-name="logicalnot" unicode="¬" horiz-adv-x="579" d="M503 294h-38v150H73v36h430V294z"/><glyph glyph-name="registered" unicode="®" horiz-adv-x="854" d="M800 350q0-86-33.5-157t-88-114T559 12.5 427-11 295 12.5 175.5 79t-88 114T54 350t33.5 157 88 114T295 687.5 427 711t132-23.5T678.5 621t88-114T800 350zm-727 0q0-82 31.5-149t83-108.5 113-63.5T427 7t127 22 113.5 63.5 83 108.5T782 350t-31.5 149-83 108.5T554 671t-127 22-126.5-22-113-63.5-83-108.5T73 350zm252-200h-30v395h155q24 0 46.5-5t46.5-17.5 38.5-38T596 423q0-90-91-110l114-163h-34L475 308q-11-1-29-1H325V150zm0 365V336h123q118 0 118 87 0 92-118 92H325z"/><glyph glyph-name="macron" unicode="¯" horiz-adv-x="312" d="M24 840h264v-36H24v36z"/><glyph glyph-name="degree" unicode="°" horiz-adv-x="392" d="M343 573q0-65-43.5-104.5T196 429 92.5 468.5 49 573t43.5 104.5T196 717t103.5-39.5T343 573zm-264 0q0-52 34-83t83-31 83 31 34 83-34 83-83 31-83-31-34-83z"/><glyph glyph-name="plusminus" unicode="±" horiz-adv-x="578" d="M307 579V382h197v-37H307V148h-36v197H74v37h197v197h36zM504 0H74v36h430V0z"/><glyph glyph-name="acute" unicode="´" horiz-adv-x="170" d="M71 776H28l89 137h47z"/><glyph glyph-name="paragraph" unicode="¶" horiz-adv-x="601" d="M291-220h-40v512q-101 0-158.5 54T35 496t57.5 150T251 700h265v-920h-39v882H291v-882z"/><glyph glyph-name="periodcentered" unicode="·" horiz-adv-x="199" d="M130 239q0-13-8.5-21t-21.5-8q-12 0-21 8t-9 21 9 21 21 8q13 0 21.5-8t8.5-21z"/><glyph glyph-name="cedilla" unicode="¸" horiz-adv-x="211" d="M85 0h34L98-86q48 9 82.5-8t35.5-55-30.5-60T98-231q-54 0-98 22v33q41-23 94-23 44 0 66.5 14.5T182-148q0 29-39.5 38.5T58-113z"/><glyph glyph-name="guillemotright" unicode="»" horiz-adv-x="434" d="M263 66h-41l123 174-123 174h41l120-169v-10zm-159 0H63l123 174L63 414h41l120-169v-10z"/><glyph glyph-name="onequarter" unicode="¼" horiz-adv-x="919" d="M763 408h37V127h82V96h-82V0h-34v96H532v30zm3-281v235L574 127h192zM210-11h-22l456 722h22zm-47 691h25V304h77v-32H56v32h99v340l-91-34v32z"/><glyph glyph-name="onehalf" unicode="½" horiz-adv-x="873" d="M206-11h-22l456 722h22zm357 388q56 38 127 38 60 0 97-28t37-77q0-33-19-61t-39.5-43.5T707 168q-4-2-17.5-10.5t-18-11T655 136t-16.5-11.5-14-11.5T611 99.5t-10-14-9-16-5-17.5-2-20h243V0H548v18q0 29 9.5 53.5t19 39.5 33.5 33.5 34.5 24.5 40.5 24q37 22 54 33t34 34 17 50q0 34-27.5 53.5T687 383q-63 0-124-40v34zM159 680h25V304h77v-32H52v32h99v340l-91-34v32z"/><glyph glyph-name="threequarters" unicode="¾" horiz-adv-x="967" d="M281-11h-22l456 722h22zm531 419h37V127h82V96h-82V0h-34v96H581v30zm3-281v235L623 127h192zM327 581q0-32-18.5-57.5T257 489q37-9 61.5-34.5T343 385q0-55-40-85.5T200 269q-82 0-142 27v33q57-28 140-28 51 0 82 21.5t31 64.5-31 63-80 20h-62v33h58q48 0 73 21.5t25 54.5q0 35-28 57.5T188 659q-63 0-123-29v33q56 28 127 28 61 0 98-31t37-79z"/><glyph glyph-name="questiondown" unicode="¿" horiz-adv-x="478" d="M444-171q-89-56-192-56-98 0-157.5 43T35-64q0 40 20.5 80T105 89.5t57.5 65.5 49 68 20.5 69h38q0-37-20-75t-48.5-70T144 82.5t-49-70T75-61q0-61 48.5-94.5T257-189q95 0 187 56v-38zM281 461q0-13-9-21t-21-8q-13 0-21.5 8t-8.5 21q0 14 8.5 22t21.5 8 21.5-8 8.5-22z"/><glyph glyph-name="Agrave" unicode="À" horiz-adv-x="708" d="M57 0H14l318 700h45L694 0h-42l-93 204H149zm290 642L166 241h378L363 642q-1 3-3.5 9t-4.5 9q-1-3-4-9t-4-9zm48 134h-42l-94 137h48z"/><glyph glyph-name="Aacute" unicode="Á" horiz-adv-x="708" d="M57 0H14l318 700h45L694 0h-42l-93 204H149zm290 642L166 241h378L363 642q-1 3-3.5 9t-4.5 9q-1-3-4-9t-4-9zm6 134h-43l89 137h47z"/><glyph glyph-name="Acircumflex" unicode="Â" horiz-adv-x="708" d="M57 0H14l318 700h45L694 0h-42l-93 204H149zm290 642L166 241h378L363 642q-1 3-3.5 9t-4.5 9q-1-3-4-9t-4-9zm-8 265h33l128-131h-44L356 877 255 776h-44z"/><glyph glyph-name="Atilde" unicode="Ã" horiz-adv-x="708" d="M57 0H14l318 700h45L694 0h-42l-93 204H149zm290 642L166 241h378L363 642q-1 3-3.5 9t-4.5 9q-1-3-4-9t-4-9zm156 221q4-37-13.5-59T440 782q-30 0-87 26.5T277 835t-29-13-8-35h-34q-5 36 13.5 59t49.5 23q29 0 86.5-26.5T432 816q42 0 37 47h34z"/><glyph glyph-name="Adieresis" unicode="Ä" horiz-adv-x="708" d="M57 0H14l318 700h45L694 0h-42l-93 204H149zm290 642L166 241h378L363 642q-1 3-3.5 9t-4.5 9q-1-3-4-9t-4-9zm138 194q0-13-9-22t-22-9-22 9-9 22q0 12 9 21.5t22 9.5 22-9.5 9-21.5zm-201 0q0-13-9-22t-22-9-22 9-9 22q0 12 9 21.5t22 9.5 22-9.5 9-21.5z"/><glyph glyph-name="Aring" unicode="Å" horiz-adv-x="708" d="M57 0H14l318 700h45L694 0h-42l-93 204H149zm290 642L166 241h378L363 642q-1 3-3.5 9t-4.5 9q-1-3-4-9t-4-9zm99 202q0-40-27.5-65T354 754q-38 0-65.5 25T261 844q0 39 27.5 63.5T354 932q37 0 64.5-24.5T446 844zm-154-1q0-27 18.5-44t43.5-17 43.5 17 18.5 44-18.5 44-43.5 17-43.5-17-18.5-44z"/><glyph glyph-name="AE" unicode="Æ" horiz-adv-x="991" d="M540 333V38h396V0H500v205H179L33 0h-45l496 700h446v-38H540V371h360v-38H540zm-338-92h298v418z"/><glyph glyph-name="Ccedilla" unicode="Ç" horiz-adv-x="657" d="M617 78V38Q536-7 430-10l-18-72q48 7 82-11t35-56-30.5-60-87.5-22q-54 0-98 22v33q41-23 94-23 44 0 66.5 14.5T495-148q0 29-39.5 38.5T371-113l25 103q-65 3-125.5 26.5T160.5 82 81 191.5 51 342q0 88 31.5 160T166 618.5 281.5 687 413 711q108 0 196-48v-40q-83 50-191 50-61 0-118-21t-104.5-60.5-76-104.5T91 342q0-77 29-139t76.5-99.5 105-57T420 27q114 0 197 51z"/><glyph glyph-name="Egrave" unicode="È" horiz-adv-x="624" d="M101 700h459v-38H141V371h389v-38H141V38h428V0H101v700zm273 76h-42l-94 137h48z"/><glyph glyph-name="Eacute" unicode="É" horiz-adv-x="624" d="M101 700h459v-38H141V371h389v-38H141V38h428V0H101v700zm231 76h-43l89 137h47z"/><glyph glyph-name="Ecircumflex" unicode="Ê" horiz-adv-x="624" d="M101 700h459v-38H141V371h389v-38H141V38h428V0H101v700zm217 207h33l128-131h-44L335 877 234 776h-44z"/><glyph glyph-name="Edieresis" unicode="Ë" horiz-adv-x="624" d="M101 700h459v-38H141V371h389v-38H141V38h428V0H101v700zm363 136q0-13-9-22t-22-9-22 9-9 22q0 12 9 21.5t22 9.5 22-9.5 9-21.5zm-201 0q0-13-9-22t-22-9-22 9-9 22q0 12 9 21.5t22 9.5 22-9.5 9-21.5z"/><glyph glyph-name="Igrave" unicode="Ì" horiz-adv-x="242" d="M101 700h40V0h-40v700zm61 76h-42L26 913h48z"/><glyph glyph-name="Iacute" unicode="Í" horiz-adv-x="242" d="M101 700h40V0h-40v700zm19 76H77l89 137h47z"/><glyph glyph-name="Icircumflex" unicode="Î" horiz-adv-x="242" d="M101 700h40V0h-40v700zm5 207h33l128-131h-44L123 877 22 776h-44z"/><glyph glyph-name="Idieresis" unicode="Ï" horiz-adv-x="242" d="M101 700h40V0h-40v700zm151 136q0-13-9-22t-22-9-22 9-9 22q0 12 9 21.5t22 9.5 22-9.5 9-21.5zm-201 0q0-13-9-22t-22-9-22 9-9 22q0 12 9 21.5t22 9.5 22-9.5 9-21.5z"/><glyph glyph-name="Eth" unicode="Ð" horiz-adv-x="732" d="M103 700h206q182 0 276.5-96T680 350 585.5 96 309 0H103v331H22v37h81v332zm39-662h167q163 0 247 84t84 228-84 228-247 84H142V368h234v-37H142V38z"/><glyph glyph-name="Ntilde" unicode="Ñ" horiz-adv-x="766" d="M141 0h-40v700h36L625 67v633h40V0h-35L141 632V0zm391 863q4-37-13.5-59T469 782q-30 0-87 26.5T306 835t-29-13-8-35h-34q-5 36 13.5 59t49.5 23q29 0 86.5-26.5T461 816q42 0 37 47h34z"/><glyph glyph-name="Ograve" unicode="Ò" horiz-adv-x="825" d="M50 350q0 67 23 130.5T139.5 596 254 679.5 412 711q88 0 159-31.5T685.5 596 752 480.5 775 350t-23-130.5T685.5 104 571 20.5 412-11q-87 0-158 31.5T139.5 104 73 219.5 50 350zm685 0q0 61-20.5 117.5t-59 103-102 74.5T412 673t-141-28-101.5-74.5-59-103T90 350t20.5-117.5 59-103T271 55t141-28 141.5 28 102 74.5 59 103T735 350zM454 776h-42l-94 137h48z"/><glyph glyph-name="Oacute" unicode="Ó" horiz-adv-x="825" d="M50 350q0 67 23 130.5T139.5 596 254 679.5 412 711q88 0 159-31.5T685.5 596 752 480.5 775 350t-23-130.5T685.5 104 571 20.5 412-11q-87 0-158 31.5T139.5 104 73 219.5 50 350zm685 0q0 61-20.5 117.5t-59 103-102 74.5T412 673t-141-28-101.5-74.5-59-103T90 350t20.5-117.5 59-103T271 55t141-28 141.5 28 102 74.5 59 103T735 350zM412 776h-43l89 137h47z"/><glyph glyph-name="Ocircumflex" unicode="Ô" horiz-adv-x="825" d="M50 350q0 67 23 130.5T139.5 596 254 679.5 412 711q88 0 159-31.5T685.5 596 752 480.5 775 350t-23-130.5T685.5 104 571 20.5 412-11q-87 0-158 31.5T139.5 104 73 219.5 50 350zm685 0q0 61-20.5 117.5t-59 103-102 74.5T412 673t-141-28-101.5-74.5-59-103T90 350t20.5-117.5 59-103T271 55t141-28 141.5 28 102 74.5 59 103T735 350zM398 907h33l128-131h-44L415 877 314 776h-44z"/><glyph glyph-name="Otilde" unicode="Õ" horiz-adv-x="825" d="M50 350q0 67 23 130.5T139.5 596 254 679.5 412 711q88 0 159-31.5T685.5 596 752 480.5 775 350t-23-130.5T685.5 104 571 20.5 412-11q-87 0-158 31.5T139.5 104 73 219.5 50 350zm685 0q0 61-20.5 117.5t-59 103-102 74.5T412 673t-141-28-101.5-74.5-59-103T90 350t20.5-117.5 59-103T271 55t141-28 141.5 28 102 74.5 59 103T735 350zM562 863q4-37-13.5-59T499 782q-30 0-87 26.5T336 835t-29-13-8-35h-34q-5 36 13.5 59t49.5 23q29 0 86.5-26.5T491 816q42 0 37 47h34z"/><glyph glyph-name="Odieresis" unicode="Ö" horiz-adv-x="825" d="M50 350q0 67 23 130.5T139.5 596 254 679.5 412 711q88 0 159-31.5T685.5 596 752 480.5 775 350t-23-130.5T685.5 104 571 20.5 412-11q-87 0-158 31.5T139.5 104 73 219.5 50 350zm685 0q0 61-20.5 117.5t-59 103-102 74.5T412 673t-141-28-101.5-74.5-59-103T90 350t20.5-117.5 59-103T271 55t141-28 141.5 28 102 74.5 59 103T735 350zM544 836q0-13-9-22t-22-9-22 9-9 22q0 12 9 21.5t22 9.5 22-9.5 9-21.5zm-201 0q0-13-9-22t-22-9-22 9-9 22q0 12 9 21.5t22 9.5 22-9.5 9-21.5z"/><glyph glyph-name="multiply" unicode="×" horiz-adv-x="451" d="M226 326L93 193l-25 25 133 133L68 483l25 25 133-132 132 132 25-25-133-132 133-133-25-25z"/><glyph glyph-name="Oslash" unicode="Ø" horiz-adv-x="825" d="M725 748l-82-113q64-51 98-127t34-158q0-67-23-130.5T685.5 104 571 20.5 412-11q-112 0-199 54l-67-91h-39l79 109q-66 51-101 128.5T50 350q0 67 23 130.5T139.5 596 254 679.5 412 711q117 0 205-57l69 94h39zm-313-75q-78 0-141-28t-101.5-74.5-59-103T90 350q0-75 30.5-144T210 93l384 529q-75 51-182 51zM236 74q76-47 177-47 78 0 141 28t101.5 74.5 59 103T735 350q0 73-29 140.5T621 604z"/><glyph glyph-name="Ugrave" unicode="Ù" horiz-adv-x="750" d="M617 700h40V245q0-69-21.5-120t-61-80-89-42.5T375-11 264.5 2.5t-89 42.5-61 80T93 245v455h40V246q0-219 242-219t242 219v454zm-199 76h-42l-94 137h48z"/><glyph glyph-name="Uacute" unicode="Ú" horiz-adv-x="750" d="M617 700h40V245q0-69-21.5-120t-61-80-89-42.5T375-11 264.5 2.5t-89 42.5-61 80T93 245v455h40V246q0-219 242-219t242 219v454zm-241 76h-43l89 137h47z"/><glyph glyph-name="Ucircumflex" unicode="Û" horiz-adv-x="750" d="M617 700h40V245q0-69-21.5-120t-61-80-89-42.5T375-11 264.5 2.5t-89 42.5-61 80T93 245v455h40V246q0-219 242-219t242 219v454zM362 907h33l128-131h-44L379 877 278 776h-44z"/><glyph glyph-name="Udieresis" unicode="Ü" horiz-adv-x="750" d="M617 700h40V245q0-69-21.5-120t-61-80-89-42.5T375-11 264.5 2.5t-89 42.5-61 80T93 245v455h40V246q0-219 242-219t242 219v454zM508 836q0-13-9-22t-22-9-22 9-9 22q0 12 9 21.5t22 9.5 22-9.5 9-21.5zm-201 0q0-13-9-22t-22-9-22 9-9 22q0 12 9 21.5t22 9.5 22-9.5 9-21.5z"/><glyph glyph-name="Yacute" unicode="Ý" horiz-adv-x="634" d="M337 0h-40v279L21 700h45l251-384 251 384h45L337 279V0zm-20 776h-43l89 137h47z"/><glyph glyph-name="Thorn" unicode="Þ" horiz-adv-x="651" d="M141 569h183q293 0 293-219T324 131H141V0h-40v700h40V569zm0-400h185q251 0 251 181T326 531H141V169z"/><glyph glyph-name="germandbls" unicode="ß" horiz-adv-x="589" d="M551 149q0-78-58-119T350-11q-75 0-130 30v34q56-30 124-30 73 0 121 32t48 97q0 30-16 59t-39.5 51-46.5 43-39 43-16 42q0 27 19.5 53.5t39 56T434 564q0 45-39 79t-104 34q-76 0-124-45t-48-124V0H81v502q0 98 57.5 153T291 711q84 0 132.5-44T472 567q0-38-19.5-68.5t-39-55.5-19.5-48q0-18 16-38.5t39-41 46.5-44T535 216t16-67z"/><glyph glyph-name="agrave" unicode="à" horiz-adv-x="540" d="M450 77q0-46 48-46 16 0 37 7V6q-24-8-47-8-33 0-54.5 19T412 76v13Q337-11 204-11q-68 0-116.5 36T39 129q0 79 60.5 116T248 282q83 0 164-26v44q0 71-43 113t-122 42q-90 0-171-31v37q85 30 174 30 95 0 147.5-51.5T450 296V77zM78 130q0-52 39-79.5T211 23q62 0 115.5 29.5T412 136v87q-81 26-160 26-73 0-123.5-28.5T78 130zm213 426h-42l-94 137h48z"/><glyph glyph-name="aacute" unicode="á" horiz-adv-x="540" d="M450 77q0-46 48-46 16 0 37 7V6q-24-8-47-8-33 0-54.5 19T412 76v13Q337-11 204-11q-68 0-116.5 36T39 129q0 79 60.5 116T248 282q83 0 164-26v44q0 71-43 113t-122 42q-90 0-171-31v37q85 30 174 30 95 0 147.5-51.5T450 296V77zM78 130q0-52 39-79.5T211 23q62 0 115.5 29.5T412 136v87q-81 26-160 26-73 0-123.5-28.5T78 130zm171 426h-43l89 137h47z"/><glyph glyph-name="acircumflex" unicode="â" horiz-adv-x="540" d="M450 77q0-46 48-46 16 0 37 7V6q-24-8-47-8-33 0-54.5 19T412 76v13Q337-11 204-11q-68 0-116.5 36T39 129q0 79 60.5 116T248 282q83 0 164-26v44q0 71-43 113t-122 42q-90 0-171-31v37q85 30 174 30 95 0 147.5-51.5T450 296V77zM78 130q0-52 39-79.5T211 23q62 0 115.5 29.5T412 136v87q-81 26-160 26-73 0-123.5-28.5T78 130zm157 557h33l128-131h-44L252 657 151 556h-44z"/><glyph glyph-name="atilde" unicode="ã" horiz-adv-x="540" d="M450 77q0-46 48-46 16 0 37 7V6q-24-8-47-8-33 0-54.5 19T412 76v13Q337-11 204-11q-68 0-116.5 36T39 129q0 79 60.5 116T248 282q83 0 164-26v44q0 71-43 113t-122 42q-90 0-171-31v37q85 30 174 30 95 0 147.5-51.5T450 296V77zM78 130q0-52 39-79.5T211 23q62 0 115.5 29.5T412 136v87q-81 26-160 26-73 0-123.5-28.5T78 130zm321 513q4-37-13.5-59T336 562q-30 0-87 26.5T173 615t-29-13-8-35h-34q-5 36 13.5 59t49.5 23q29 0 86.5-26.5T328 596q42 0 37 47h34z"/><glyph glyph-name="adieresis" unicode="ä" horiz-adv-x="540" d="M450 77q0-46 48-46 16 0 37 7V6q-24-8-47-8-33 0-54.5 19T412 76v13Q337-11 204-11q-68 0-116.5 36T39 129q0 79 60.5 116T248 282q83 0 164-26v44q0 71-43 113t-122 42q-90 0-171-31v37q85 30 174 30 95 0 147.5-51.5T450 296V77zM78 130q0-52 39-79.5T211 23q62 0 115.5 29.5T412 136v87q-81 26-160 26-73 0-123.5-28.5T78 130zm303 486q0-13-9-22t-22-9-22 9-9 22q0 12 9 21.5t22 9.5 22-9.5 9-21.5zm-201 0q0-13-9-22t-22-9-22 9-9 22q0 12 9 21.5t22 9.5 22-9.5 9-21.5z"/><glyph glyph-name="aring" unicode="å" horiz-adv-x="540" d="M450 77q0-46 48-46 16 0 37 7V6q-24-8-47-8-33 0-54.5 19T412 76v13Q337-11 204-11q-68 0-116.5 36T39 129q0 79 60.5 116T248 282q83 0 164-26v44q0 71-43 113t-122 42q-90 0-171-31v37q85 30 174 30 95 0 147.5-51.5T450 296V77zM78 130q0-52 39-79.5T211 23q62 0 115.5 29.5T412 136v87q-81 26-160 26-73 0-123.5-28.5T78 130zm264 494q0-40-27.5-65T250 534q-38 0-65.5 25T157 624q0 39 27.5 63.5T250 712q37 0 64.5-24.5T342 624zm-154-1q0-27 18.5-44t43.5-17 43.5 17 18.5 44-18.5 44-43.5 17-43.5-17-18.5-44z"/><glyph glyph-name="ae" unicode="æ" horiz-adv-x="908" d="M455 105q-46-57-111-86.5T208-11 88 25 39 129q0 79 61 116t152 37q87 0 168-26v44q0 72-43 113.5T247 455q-90 0-171-31v37q85 30 174 30 86 0 135.5-38.5T447 345q24 68 82 107t125 39q81 0 133-43t68-104 4-128H458q4-94 69-142.5T681 25q84 0 149 38V27q-68-38-156-38-68 0-127.5 29.5T455 105zM78 130q0-52 39.5-79.5T215 23q140 0 225 108-16 41-19 92-85 26-165 26-76 0-127-28.5T78 130zm576 325q-80 0-136.5-54T458 250h367q5 49-8.5 93.5t-55.5 78T654 455z"/><glyph glyph-name="ccedilla" unicode="ç" horiz-adv-x="493" d="M453 63V25Q389-8 310-10l-19-76q48 9 82.5-8t35.5-55-30.5-60-87.5-22-98 22v33q40-23 94-23 44 0 66.5 14.5T375-148q0 29-39.5 38.5T251-113l25 103q-96 7-162.5 70T47 236q0 124 77 189.5T305 491q84 0 143-39v-37q-58 40-139 40-92 0-158-55T85 237q0-103 63-157.5T300 25q86 0 153 38z"/><glyph glyph-name="egrave" unicode="è" horiz-adv-x="546" d="M47 240q0 116 70 183.5T282 491q52 0 93.5-17t66-44.5T483 367t18.5-72.5T498 221H85q4-98 69.5-147T314 25q91 0 156 38V25q-66-36-161-36-112 0-187 63.5T47 240zm418 15q4 33-4 66.5t-28 64-58.5 50T284 455q-81 0-138.5-53.5T85 255h380zM323 556h-42l-94 137h48z"/><glyph glyph-name="eacute" unicode="é" horiz-adv-x="546" d="M47 240q0 116 70 183.5T282 491q52 0 93.5-17t66-44.5T483 367t18.5-72.5T498 221H85q4-98 69.5-147T314 25q91 0 156 38V25q-66-36-161-36-112 0-187 63.5T47 240zm418 15q4 33-4 66.5t-28 64-58.5 50T284 455q-81 0-138.5-53.5T85 255h380zM281 556h-43l89 137h47z"/><glyph glyph-name="ecircumflex" unicode="ê" horiz-adv-x="546" d="M47 240q0 116 70 183.5T282 491q52 0 93.5-17t66-44.5T483 367t18.5-72.5T498 221H85q4-98 69.5-147T314 25q91 0 156 38V25q-66-36-161-36-112 0-187 63.5T47 240zm418 15q4 33-4 66.5t-28 64-58.5 50T284 455q-81 0-138.5-53.5T85 255h380zM267 687h33l128-131h-44L284 657 183 556h-44z"/><glyph glyph-name="edieresis" unicode="ë" horiz-adv-x="546" d="M47 240q0 116 70 183.5T282 491q52 0 93.5-17t66-44.5T483 367t18.5-72.5T498 221H85q4-98 69.5-147T314 25q91 0 156 38V25q-66-36-161-36-112 0-187 63.5T47 240zm418 15q4 33-4 66.5t-28 64-58.5 50T284 455q-81 0-138.5-53.5T85 255h380zm-52 361q0-13-9-22t-22-9-22 9-9 22q0 12 9 21.5t22 9.5 22-9.5 9-21.5zm-201 0q0-13-9-22t-22-9-22 9-9 22q0 12 9 21.5t22 9.5 22-9.5 9-21.5z"/><glyph glyph-name="igrave" unicode="ì" horiz-adv-x="207" d="M122 0H84v480h38V0zm29 556h-37L28 693h43z"/><glyph glyph-name="iacute" unicode="í" horiz-adv-x="207" d="M85 480h38V0H85v480zm18 76H60l89 137h47z"/><glyph glyph-name="icircumflex" unicode="î" horiz-adv-x="206" d="M88 677h33l100-121h-42l-75 91-75-91h-41zm-4-197h38V0H84v480z"/><glyph glyph-name="idieresis" unicode="ï" horiz-adv-x="206" d="M206 616q0-12-8.5-20.5T177 587t-20.5 8.5T148 616q0 11 8.5 20t20.5 9 20.5-9 8.5-20zm-149 0q0-12-8.5-20.5T28 587t-20.5 8.5T-1 616q0 11 8.5 20t20.5 9 20.5-9 8.5-20zm27-136h38V0H84v480z"/><glyph glyph-name="eth" unicode="ð" horiz-adv-x="595" d="M538 267q0-128-68-203T291-11q-106 0-175 64.5T47 223q0 98 68 161.5T278 448q80 0 144-44t81-124q0 15-1 23-12 246-222 328L167 519l-22 23 101 101q-71 21-145 21v36q87 0 173-29l85 85 22-23-76-76q103-45 168-139t65-251zM85 223q0-90 57-143.5T291 26q83 0 135.5 47T494 201q-2 99-63.5 155T283 412q-84 0-141-53T85 223z"/><glyph glyph-name="ntilde" unicode="ñ" d="M116 381q29 44 80 77t116 33q82 0 136-53.5T502 295V0h-38v291q0 78-43.5 121T309 455q-64 0-113-35t-77-85V0H81v480h35v-99zm321 262q4-37-13.5-59T374 562q-30 0-87 26.5T211 615t-29-13-8-35h-34q-5 36 13.5 59t49.5 23q29 0 86.5-26.5T366 596q42 0 37 47h34z"/><glyph glyph-name="ograve" unicode="ò" horiz-adv-x="591" d="M46 240q0 116 73.5 183.5T295 491q103 0 176.5-67.5T545 240 471.5 56.5 295-11q-102 0-175.5 67.5T46 240zm461 0q0 98-61.5 156T295 454t-150-58-61-156 61-156 150-58 150.5 58T507 240zM336 550h-42l-94 137h48z"/><glyph glyph-name="oacute" unicode="ó" horiz-adv-x="591" d="M46 240q0 116 73.5 183.5T295 491q103 0 176.5-67.5T545 240 471.5 56.5 295-11q-102 0-175.5 67.5T46 240zm461 0q0 98-61.5 156T295 454t-150-58-61-156 61-156 150-58 150.5 58T507 240zM294 550h-43l89 137h47z"/><glyph glyph-name="ocircumflex" unicode="ô" horiz-adv-x="591" d="M46 240q0 116 73.5 183.5T295 491q103 0 176.5-67.5T545 240 471.5 56.5 295-11q-102 0-175.5 67.5T46 240zm461 0q0 98-61.5 156T295 454t-150-58-61-156 61-156 150-58 150.5 58T507 240zM280 681h33l128-131h-44L297 651 196 550h-44z"/><glyph glyph-name="otilde" unicode="õ" horiz-adv-x="591" d="M46 240q0 116 73.5 183.5T295 491q103 0 176.5-67.5T545 240 471.5 56.5 295-11q-102 0-175.5 67.5T46 240zm461 0q0 98-61.5 156T295 454t-150-58-61-156 61-156 150-58 150.5 58T507 240zm-63 397q4-37-13.5-59T381 556q-30 0-87 26.5T218 609t-29-13-8-35h-34q-5 36 13.5 59t49.5 23q29 0 86.5-26.5T373 590q42 0 37 47h34z"/><glyph glyph-name="odieresis" unicode="ö" horiz-adv-x="591" d="M46 240q0 116 73.5 183.5T295 491q103 0 176.5-67.5T545 240 471.5 56.5 295-11q-102 0-175.5 67.5T46 240zm461 0q0 98-61.5 156T295 454t-150-58-61-156 61-156 150-58 150.5 58T507 240zm-81 370q0-13-9-22t-22-9-22 9-9 22q0 12 9 21.5t22 9.5 22-9.5 9-21.5zm-201 0q0-13-9-22t-22-9-22 9-9 22q0 12 9 21.5t22 9.5 22-9.5 9-21.5z"/><glyph glyph-name="divide" unicode="÷" horiz-adv-x="638" d="M559 332H79v36h480v-36zM349 125q0-13-8.5-21T319 96q-12 0-21 8t-9 21q0 14 8.5 21.5T319 154q30 0 30-29zm0 447q0-13-8.5-21t-21.5-8q-12 0-21 8t-9 21q0 14 8.5 21.5T319 601q30 0 30-29z"/><glyph glyph-name="oslash" unicode="ø" horiz-adv-x="591" d="M507 543l-63-98q101-69 101-205 0-116-73.5-183.5T295-11q-68 0-126 32l-50-79H84l61 94q-99 70-99 204 0 116 73.5 183.5T295 491q67 0 124-31l53 83h35zm-212-89q-89 0-150-58T84 240q0-113 82-173l233 363q-46 24-104 24zM190 52q47-26 105-26 89 0 150.5 58T507 240q0 115-84 175z"/><glyph glyph-name="ugrave" unicode="ù" d="M458 480h38V0h-35v99q-29-44-80-77T265-11q-85 0-137.5 53T75 185v295h38V189q0-78 42.5-121T268 25q64 0 113 35t77 85v335zm-125 76h-42l-94 137h48z"/><glyph glyph-name="uacute" unicode="ú" d="M458 480h38V0h-35v99q-29-44-80-77T265-11q-85 0-137.5 53T75 185v295h38V189q0-78 42.5-121T268 25q64 0 113 35t77 85v335zm-167 76h-43l89 137h47z"/><glyph glyph-name="ucircumflex" unicode="û" d="M458 480h38V0h-35v99q-29-44-80-77T265-11q-85 0-137.5 53T75 185v295h38V189q0-78 42.5-121T268 25q64 0 113 35t77 85v335zM277 687h33l128-131h-44L294 657 193 556h-44z"/><glyph glyph-name="udieresis" unicode="ü" d="M458 480h38V0h-35v99q-29-44-80-77T265-11q-85 0-137.5 53T75 185v295h38V189q0-78 42.5-121T268 25q64 0 113 35t77 85v335zm-35 136q0-13-9-22t-22-9-22 9-9 22q0 12 9 21.5t22 9.5 22-9.5 9-21.5zm-201 0q0-13-9-22t-22-9-22 9-9 22q0 12 9 21.5t22 9.5 22-9.5 9-21.5z"/><glyph glyph-name="yacute" unicode="ý" horiz-adv-x="531" d="M276 40l194 440h40L260-84q-35-79-74.5-113T96-231q-26 0-50 7v34q28-7 46-7 43 0 75.5 30.5T229-69l29 67L15 480h41zm-19 516h-43l89 137h47z"/><glyph glyph-name="thorn" unicode="þ" horiz-adv-x="615" d="M81 700h38V370q30 53 84.5 87T329 491q103 0 171-69.5T568 240 500 58.5 329-11q-71 0-125.5 34T119 110v-330H81v920zm449-460q0 98-58 156.5T325 455q-72 0-127.5-41T119 310V170q23-63 78.5-104T325 25q89 0 147 58t58 157z"/><glyph glyph-name="ydieresis" unicode="ÿ" horiz-adv-x="531" d="M276 40l194 440h40L260-84q-35-79-74.5-113T96-231q-26 0-50 7v34q28-7 46-7 43 0 75.5 30.5T229-69l29 67L15 480h41zm113 576q0-13-9-22t-22-9-22 9-9 22q0 12 9 21.5t22 9.5 22-9.5 9-21.5zm-201 0q0-13-9-22t-22-9-22 9-9 22q0 12 9 21.5t22 9.5 22-9.5 9-21.5z"/><glyph glyph-name="Amacron" unicode="Ā" horiz-adv-x="708" d="M57 0H14l318 700h45L694 0h-42l-93 204H149zm290 642L166 241h378L363 642q-1 3-3.5 9t-4.5 9q-1-3-4-9t-4-9zM222 840h264v-36H222v36z"/><glyph glyph-name="amacron" unicode="ā" horiz-adv-x="540" d="M450 77q0-46 48-46 16 0 37 7V6q-24-8-47-8-33 0-54.5 19T412 76v13Q337-11 204-11q-68 0-116.5 36T39 129q0 79 60.5 116T248 282q83 0 164-26v44q0 71-43 113t-122 42q-90 0-171-31v37q85 30 174 30 95 0 147.5-51.5T450 296V77zM78 130q0-52 39-79.5T211 23q62 0 115.5 29.5T412 136v87q-81 26-160 26-73 0-123.5-28.5T78 130zm40 490h264v-36H118v36z"/><glyph glyph-name="Abreve" unicode="Ă" horiz-adv-x="708" d="M57 0H14l318 700h45L694 0h-42l-93 204H149zm290 642L166 241h378L363 642q-1 3-3.5 9t-4.5 9q-1-3-4-9t-4-9zm135 178q-51-42-128-42t-128 42v39q56-44 128-44t128 44v-39z"/><glyph glyph-name="abreve" unicode="ă" horiz-adv-x="540" d="M450 77q0-46 48-46 16 0 37 7V6q-24-8-47-8-33 0-54.5 19T412 76v13Q337-11 204-11q-68 0-116.5 36T39 129q0 79 60.5 116T248 282q83 0 164-26v44q0 71-43 113t-122 42q-90 0-171-31v37q85 30 174 30 95 0 147.5-51.5T450 296V77zM78 130q0-52 39-79.5T211 23q62 0 115.5 29.5T412 136v87q-81 26-160 26-73 0-123.5-28.5T78 130zm300 470q-51-42-128-42t-128 42v39q56-44 128-44t128 44v-39z"/><glyph glyph-name="Aogonek" unicode="Ą" horiz-adv-x="709" d="M582-143q0-26 16-41t45-15q35 0 69 20v-32q-34-20-77-20t-66.5 22-23.5 59q0 71 103 158l-89 196H149L57 0H14l318 700h45L694 0h1Q582-77 582-143zM346 642L165 241h379L362 642q-6 12-8 18-2-6-8-18z"/><glyph glyph-name="aogonek" unicode="ą" horiz-adv-x="540" d="M211 23q62 0 115.5 29.5T412 136v87q-81 26-160 26-73 0-123.5-28.5T78 130q0-52 39-79.5T211 23zm322-205v-32q-28-11-58-11-42-1-66 21.5T385-145q0 72 97 143-31 2-50.5 20.5T412 76v13Q337-11 204-11q-68 0-116.5 36T39 129q0 79 60.5 116T248 282q83 0 164-26v44q0 71-43 113t-122 42q-90 0-171-31v37q85 30 174 30 95 0 147.5-51.5T450 296V77q0-46 48-46 16 0 37 7V6Q421-71 421-138q0-25 16.5-40t45.5-15q25 0 50 11z"/><glyph glyph-name="Cacute" unicode="Ć" horiz-adv-x="657" d="M51 342q0 88 31.5 160T166 618.5 281.5 687 413 711q108 0 196-48v-40q-83 50-191 50-61 0-118-21t-104.5-60.5-76-104.5T91 342q0-77 29-139t76.5-99.5 105-57T420 27q114 0 197 51V38q-89-49-204-49-67 0-130.5 22.5T167 76 83 187.5 51 342zm350 434h-43l89 137h47z"/><glyph glyph-name="cacute" unicode="ć" horiz-adv-x="493" d="M47 236q0 124 77 189.5T305 491q84 0 143-39v-37q-58 40-139 40-92 0-158-55T85 237q0-103 63-157.5T300 25q86 0 153 38V25q-68-36-157-36-102 0-175.5 63.5T47 236zm250 320h-43l89 137h47z"/><glyph glyph-name="Cdotaccent" unicode="Ċ" horiz-adv-x="657" d="M51 342q0 88 31.5 160T166 618.5 281.5 687 413 711q108 0 196-48v-40q-83 50-191 50-61 0-118-21t-104.5-60.5-76-104.5T91 342q0-77 29-139t76.5-99.5 105-57T420 27q114 0 197 51V38q-89-49-204-49-67 0-130.5 22.5T167 76 83 187.5 51 342zm313 478q0 16 10.5 25.5T400 855t25.5-9.5T436 820t-10.5-26-25.5-10-25.5 10-10.5 26z"/><glyph glyph-name="cdotaccent" unicode="ċ" horiz-adv-x="493" d="M47 236q0 124 77 189.5T305 491q84 0 143-39v-37q-58 40-139 40-92 0-158-55T85 237q0-103 63-157.5T300 25q86 0 153 38V25q-68-36-157-36-102 0-175.5 63.5T47 236zm213 364q0 16 10.5 25.5T296 635t25.5-9.5T332 600t-10.5-26-25.5-10-25.5 10-10.5 26z"/><glyph glyph-name="Ccaron" unicode="Č" horiz-adv-x="657" d="M51 342q0 88 31.5 160T166 618.5 281.5 687 413 711q108 0 196-48v-40q-83 50-191 50-61 0-118-21t-104.5-60.5-76-104.5T91 342q0-77 29-139t76.5-99.5 105-57T420 27q114 0 197 51V38q-89-49-204-49-67 0-130.5 22.5T167 76 83 187.5 51 342zm497 555L420 766h-33L259 897h44l101-101 100 101h44z"/><glyph glyph-name="ccaron" unicode="č" horiz-adv-x="493" d="M47 236q0 124 77 189.5T305 491q84 0 143-39v-37q-58 40-139 40-92 0-158-55T85 237q0-103 63-157.5T300 25q86 0 153 38V25q-68-36-157-36-102 0-175.5 63.5T47 236zm397 441L316 546h-33L155 677h44l101-101 100 101h44z"/><glyph glyph-name="Dcaron" unicode="Ď" horiz-adv-x="731" d="M101 700h207q181 0 276-96.5T679 350 584 96.5 308 0H101v700zm538-350q0 144-84 228t-247 84H141V38h167q163 0 247 84t84 228zM487 897L359 766h-33L198 897h44l101-101 100 101h44z"/><glyph glyph-name="dcaron" unicode="ď" horiz-adv-x="615" d="M616 700h37l-22-163h-33zm-120 0h38V0h-35v114q-32-56-87.5-90.5T286-11q-104 0-171.5 69.5T47 240t67.5 181.5T286 491q70 0 125-34t85-87v330zm0-390q-24 63-79.5 104T289 455q-89 0-146.5-58T85 240q0-98 58-156.5T289 25q72 0 127.5 41T496 170v140z"/><glyph glyph-name="Dcroat" unicode="Đ" horiz-adv-x="732" d="M103 700h206q182 0 276.5-96T680 350 585.5 96 309 0H103v331H22v37h81v332zm39-662h167q163 0 247 84t84 228-84 228-247 84H142V368h234v-37H142V38z"/><glyph glyph-name="dcroat" unicode="đ" horiz-adv-x="615" d="M534 618h74v-30h-74V0h-35v114q-32-56-87.5-90.5T286-11q-104 0-171.5 69.5T47 240t67.5 181.5T286 491q70 0 125-34t85-87v218H301v30h195v82h38v-82zM289 25q72 0 127.5 41T496 170v140q-24 63-79.5 104T289 455q-89 0-146.5-58T85 240q0-98 58-156.5T289 25z"/><glyph glyph-name="Emacron" unicode="Ē" horiz-adv-x="624" d="M101 700h459v-38H141V371h389v-38H141V38h428V0H101v700zm100 140h264v-36H201v36z"/><glyph glyph-name="emacron" unicode="ē" horiz-adv-x="546" d="M47 240q0 116 70 183.5T282 491q52 0 93.5-17t66-44.5T483 367t18.5-72.5T498 221H85q4-98 69.5-147T314 25q91 0 156 38V25q-66-36-161-36-112 0-187 63.5T47 240zm418 15q4 33-4 66.5t-28 64-58.5 50T284 455q-81 0-138.5-53.5T85 255h380zM150 620h264v-36H150v36z"/><glyph glyph-name="Edotaccent" unicode="Ė" horiz-adv-x="624" d="M101 700h459v-38H141V371h389v-38H141V38h428V0H101v700zm194 120q0 16 10.5 25.5T331 855t25.5-9.5T367 820t-10.5-26-25.5-10-25.5 10-10.5 26z"/><glyph glyph-name="edotaccent" unicode="ė" horiz-adv-x="546" d="M47 240q0 116 70 183.5T282 491q52 0 93.5-17t66-44.5T483 367t18.5-72.5T498 221H85q4-98 69.5-147T314 25q91 0 156 38V25q-66-36-161-36-112 0-187 63.5T47 240zm418 15q4 33-4 66.5t-28 64-58.5 50T284 455q-81 0-138.5-53.5T85 255h380zM244 600q0 16 10.5 25.5T280 635t25.5-9.5T316 600t-10.5-26-25.5-10-25.5 10-10.5 26z"/><glyph glyph-name="Eogonek" unicode="Ę" horiz-adv-x="624" d="M568-187v-32q-28-12-62-12-42-1-66 21.5T416-151q0 76 104 151H101v700h459v-38H141V371h389v-38H141V38h428V0Q452-79 452-144q0-25 16-40t46-15q27 0 54 12z"/><glyph glyph-name="eogonek" unicode="ę" horiz-adv-x="546" d="M460-211q-34-20-77-20t-66.5 22-23.5 59q0 69 111 152-47-13-95-13-112 0-187 63.5T47 240q0 116 70 183.5T282 491q64 0 112.5-25.5t71-65 33-87-.5-92.5H85q4-98 69.5-147T314 25q91 0 156 38V25Q329-81 329-143q0-54 62-56 38 2 69 20v-32zM284 455q-81 0-138.5-53.5T85 255h380q4 33-4 66.5t-28 64-58.5 50T284 455z"/><glyph glyph-name="Ecaron" unicode="Ě" horiz-adv-x="624" d="M101 700h459v-38H141V371h389v-38H141V38h428V0H101v700zm378 197L351 766h-33L190 897h44l101-101 100 101h44z"/><glyph glyph-name="ecaron" unicode="ě" horiz-adv-x="546" d="M47 240q0 116 70 183.5T282 491q52 0 93.5-17t66-44.5T483 367t18.5-72.5T498 221H85q4-98 69.5-147T314 25q91 0 156 38V25q-66-36-161-36-112 0-187 63.5T47 240zm418 15q4 33-4 66.5t-28 64-58.5 50T284 455q-81 0-138.5-53.5T85 255h380zm-37 422L300 546h-33L139 677h44l101-101 100 101h44z"/><glyph glyph-name="Gbreve" unicode="Ğ" horiz-adv-x="708" d="M52 350q0 90 31.5 161t85 113.5 118 64.5T421 711q112 0 204-47v-39q-85 48-199 48-64 0-122-19t-106.5-56-77-101T92 350q0-84 29-148t78-101 107.5-55.5T431 27q96 0 173 37v303h39V37q-98-48-215-48-73 0-138.5 20.5T170 72 84 185.5 52 350zm482 470q-51-42-128-42t-128 42v39q56-44 128-44t128 44v-39z"/><glyph glyph-name="gbreve" unicode="ğ" horiz-adv-x="615" d="M47 240q0 112 67.5 181.5T286 491q70 0 125.5-34.5T499 366v114h35V0q0-115-73.5-173T280-231q-103 0-190 46v37q91-47 186-47t157.5 48T496 0v111q-30-53-85-87.5T286-11q-104 0-171.5 69.5T47 240zm449 70q-24 63-79.5 104T289 455q-89 0-146.5-58T85 240q0-98 58-156.5T289 25q72 0 127.5 40T496 166v144zm-79 290q-51-42-128-42t-128 42v39q56-44 128-44t128 44v-39z"/><glyph glyph-name="Gdotaccent" unicode="Ġ" horiz-adv-x="708" d="M52 350q0 90 31.5 161t85 113.5 118 64.5T421 711q112 0 204-47v-39q-85 48-199 48-64 0-122-19t-106.5-56-77-101T92 350q0-84 29-148t78-101 107.5-55.5T431 27q96 0 173 37v303h39V37q-98-48-215-48-73 0-138.5 20.5T170 72 84 185.5 52 350zm316 470q0 16 10.5 25.5T404 855t25.5-9.5T440 820t-10.5-26-25.5-10-25.5 10-10.5 26z"/><glyph glyph-name="gdotaccent" unicode="ġ" horiz-adv-x="615" d="M47 240q0 112 67.5 181.5T286 491q70 0 125.5-34.5T499 366v114h35V0q0-115-73.5-173T280-231q-103 0-190 46v37q91-47 186-47t157.5 48T496 0v111q-30-53-85-87.5T286-11q-104 0-171.5 69.5T47 240zm449 70q-24 63-79.5 104T289 455q-89 0-146.5-58T85 240q0-98 58-156.5T289 25q72 0 127.5 40T496 166v144zM251 600q0 16 10.5 25.5T287 635t25.5-9.5T323 600t-10.5-26-25.5-10-25.5 10-10.5 26z"/><glyph glyph-name="Gcommaaccent" unicode="Ģ" horiz-adv-x="708" d="M52 350q0 90 31.5 161t85 113.5 118 64.5T421 711q112 0 204-47v-39q-85 48-199 48-64 0-122-19t-106.5-56-77-101T92 350q0-84 29-148t78-101 107.5-55.5T431 27q96 0 173 37v303h39V37q-98-48-215-48-73 0-138.5 20.5T170 72 84 185.5 52 350zm365-578h-34l21 172h38z"/><glyph glyph-name="gcommaaccent" unicode="ģ" horiz-adv-x="615" d="M312 549h-37l25 155h32zM47 240q0 112 67.5 181.5T286 491q70 0 125.5-34.5T499 366v114h35V0q0-115-73.5-173T280-231q-103 0-190 46v37q91-47 186-47t157.5 48T496 0v111q-30-53-85-87.5T286-11q-104 0-171.5 69.5T47 240zm449 70q-24 63-79.5 104T289 455q-89 0-146.5-58T85 240q0-98 58-156.5T289 25q72 0 127.5 40T496 166v144z"/><glyph glyph-name="Hbar" unicode="Ħ" horiz-adv-x="768" d="M142 0h-40v516H25v34h77v150h40V550h484v150h40V550h77v-34h-77V0h-40v333H142V0zm0 516V371h484v145H142z"/><glyph glyph-name="hbar" unicode="ħ" d="M119 385q29 43 79 74.5T312 491q82 0 136-53.5T502 295V0h-38v291q0 78-43.5 121T308 455q-64 0-112.5-35T119 335V0H81v583H9v30h72v87h38v-87h197v-30H119V385z"/><glyph glyph-name="Imacron" unicode="Ī" horiz-adv-x="242" d="M101 700h40V0h-40v700zM-11 840h264v-36H-11v36z"/><glyph glyph-name="imacron" unicode="ī" horiz-adv-x="206" d="M-7 624h220v-36H-7v36zm91-144h38V0H84v480z"/><glyph glyph-name="Iogonek" unicode="Į" horiz-adv-x="242" d="M63-144q0-25 16.5-40t45.5-15q35 0 69 20v-32q-34-20-77-20-42-1-66 21.5T27-151q0 67 74 157v694h40V0q-26-32-39.5-50t-26-45T63-144z"/><glyph glyph-name="iogonek" unicode="į" horiz-adv-x="208" d="M132 620q0-28-28-28-11 0-19.5 7.5T76 620t8.5 20 19.5 7q28 0 28-27zM47-144q0-25 16.5-40t45.5-15q35 0 69 20v-32q-34-20-77-20-42-1-66 21.5T11-151Q11-83 85 0v480h38V0Q47-86 47-144z"/><glyph glyph-name="Idotaccent" unicode="İ" horiz-adv-x="242" d="M101 700h40V0h-40v700zM83 820q0 16 10.5 25.5T119 855t25.5-9.5T155 820t-10.5-26-25.5-10-25.5 10T83 820z"/><glyph glyph-name="dotlessi" unicode="ı" horiz-adv-x="208" d="M85 480h38V0H85v480z"/><glyph glyph-name="IJ" unicode="Ĳ" horiz-adv-x="763" d="M101 700h40V0h-40v700zm304 0h264V187q0-97-59.5-147T452-10q-112 0-179 43v40q67-45 173-45 85 0 134 39.5T629 188v474H405v38z"/><glyph glyph-name="ij" unicode="ĳ" horiz-adv-x="416" d="M123 0H85v480h38V0zm9 620q0-28-28-28t-28 28q0 27 28 27t28-27zm199-729q0-65-35-93.5T209-231q-36 0-70 12v36q25-11 61-11 93 0 93 89v585h38v-589zm8 729q0-28-28-28-11 0-19.5 7.5T283 620t8.5 20 19.5 7q28 0 28-27z"/><glyph glyph-name="Kcommaaccent" unicode="Ķ" horiz-adv-x="656" d="M141 0h-40v700h40V378h202l237 322h46L374 359 652 0h-47L343 340H141V0zm211-218h-34l21 172h38z"/><glyph glyph-name="kcommaaccent" unicode="ķ" horiz-adv-x="498" d="M494 0h-46L239 229H119V0H81v700h38V265h123l180 215h45L272 246zM267-218h-34l21 172h38z"/><glyph glyph-name="Lacute" unicode="Ĺ" horiz-adv-x="576" d="M101 700h40V38h418V0H101v700zm34 76H92l89 137h47z"/><glyph glyph-name="lacute" unicode="ĺ" horiz-adv-x="208" d="M85 730h38V0H85v730zm28 52H70l89 137h47z"/><glyph glyph-name="Lcommaaccent" unicode="Ļ" horiz-adv-x="576" d="M101 700h40V38h418V0H101v700zm223-918h-34l21 172h38z"/><glyph glyph-name="lcommaaccent" unicode="ļ" horiz-adv-x="208" d="M85 730h38V0H85v730zm16-948H67L88-46h38z"/><glyph glyph-name="Lcaron" unicode="Ľ" horiz-adv-x="576" d="M373 700h37l-22-163h-33zm-272 0h40V38h418V0H101v700z"/><glyph glyph-name="lcaron" unicode="ľ" horiz-adv-x="207" d="M204 730h37l-22-163h-33zm-119 0h38V0H85v730z"/><glyph glyph-name="Ldot" unicode="Ŀ" horiz-adv-x="582" d="M379 338q0-13-8.5-21t-21.5-8q-12 0-21 8t-9 21 9 21 21 8q13 0 21.5-8t8.5-21zM101 700h40V38h418V0H101v700z"/><glyph glyph-name="ldot" unicode="ŀ" horiz-adv-x="247" d="M85 730h38V0H85v730zm173-380q0-13-8.5-21t-21.5-8q-12 0-21 8t-9 21 9 21 21 8q13 0 21.5-8t8.5-21z"/><glyph glyph-name="Lslash" unicode="Ł" horiz-adv-x="581" d="M564 0H106v286l-92-40v34l92 40v380h40V335l234 102v-34L146 301V38h418V0z"/><glyph glyph-name="lslash" unicode="ł" horiz-adv-x="235" d="M99 730h38V398l87 38v-34l-87-38V0H99v348l-88-38v34l88 39v347z"/><glyph glyph-name="Nacute" unicode="Ń" horiz-adv-x="766" d="M141 0h-40v700h36L625 67v633h40V0h-35L141 632V0zm241 776h-43l89 137h47z"/><glyph glyph-name="nacute" unicode="ń" d="M116 381q29 44 80 77t116 33q82 0 136-53.5T502 295V0h-38v291q0 78-43.5 121T309 455q-64 0-113-35t-77-85V0H81v480h35v-99zm171 175h-43l89 137h47z"/><glyph glyph-name="Ncommaaccent" unicode="Ņ" horiz-adv-x="766" d="M141 0h-40v700h36L625 67v633h40V0h-35L141 632V0zm247-218h-34l21 172h38z"/><glyph glyph-name="ncommaaccent" unicode="ņ" d="M116 381q29 44 80 77t116 33q82 0 136-53.5T502 295V0h-38v291q0 78-43.5 121T309 455q-64 0-113-35t-77-85V0H81v480h35v-99zm177-599h-34l21 172h38z"/><glyph glyph-name="Ncaron" unicode="Ň" horiz-adv-x="766" d="M141 0h-40v700h36L625 67v633h40V0h-35L141 632V0zm388 897L401 766h-33L240 897h44l101-101 100 101h44z"/><glyph glyph-name="ncaron" unicode="ň" d="M116 381q29 44 80 77t116 33q82 0 136-53.5T502 295V0h-38v291q0 78-43.5 121T309 455q-64 0-113-35t-77-85V0H81v480h35v-99zm318 296L306 546h-33L145 677h44l101-101 100 101h44z"/><glyph glyph-name="Eng" unicode="Ŋ" horiz-adv-x="766" d="M665-106q0-64-35.5-94T540-230q-34 0-69 11v37q30-10 62-10 92 0 92 90V5L141 633V0h-40v700h35L625 68v632h40v-806z"/><glyph glyph-name="eng" unicode="ŋ" d="M502-109q0-65-35-93.5T380-231q-36 0-70 12v36q28-12 61-12 93 0 93 90v396q0 78-43.5 121T309 455q-64 0-113-35t-77-85V0H81v480h35v-99q29 44 80 77t116 33q82 0 136-53.5T502 295v-404z"/><glyph glyph-name="Omacron" unicode="Ō" horiz-adv-x="825" d="M50 350q0 67 23 130.5T139.5 596 254 679.5 412 711q88 0 159-31.5T685.5 596 752 480.5 775 350t-23-130.5T685.5 104 571 20.5 412-11q-87 0-158 31.5T139.5 104 73 219.5 50 350zm685 0q0 61-20.5 117.5t-59 103-102 74.5T412 673t-141-28-101.5-74.5-59-103T90 350t20.5-117.5 59-103T271 55t141-28 141.5 28 102 74.5 59 103T735 350zM281 840h264v-36H281v36z"/><glyph glyph-name="omacron" unicode="ō" horiz-adv-x="591" d="M46 240q0 116 73.5 183.5T295 491q103 0 176.5-67.5T545 240 471.5 56.5 295-11q-102 0-175.5 67.5T46 240zm461 0q0 98-61.5 156T295 454t-150-58-61-156 61-156 150-58 150.5 58T507 240zM163 614h264v-36H163v36z"/><glyph glyph-name="Ohungarumlaut" unicode="Ő" horiz-adv-x="825" d="M50 350q0 67 23 130.5T139.5 596 254 679.5 412 711q88 0 159-31.5T685.5 596 752 480.5 775 350t-23-130.5T685.5 104 571 20.5 412-11q-87 0-158 31.5T139.5 104 73 219.5 50 350zm685 0q0 61-20.5 117.5t-59 103-102 74.5T412 673t-141-28-101.5-74.5-59-103T90 350t20.5-117.5 59-103T271 55t141-28 141.5 28 102 74.5 59 103T735 350zM504 779h-41l74 143h43zm-153 0h-41l74 143h43z"/><glyph glyph-name="ohungarumlaut" unicode="ő" horiz-adv-x="591" d="M46 240q0 116 73.5 183.5T295 491q103 0 176.5-67.5T545 240 471.5 56.5 295-11q-102 0-175.5 67.5T46 240zm461 0q0 98-61.5 156T295 454t-150-58-61-156 61-156 150-58 150.5 58T507 240zM386 553h-41l74 143h43zm-153 0h-41l74 143h43z"/><glyph glyph-name="OE" unicode="Œ" horiz-adv-x="1024" d="M533 0q-46-11-122-11-87 0-158 31.5T139 104 73 219.5 50 350t23 130.5T139 596t114 83.5T411 711q76 0 122-11h430v-38H573V371h360v-38H573V38h396V0H533zM90 350q0-63 21-120t60.5-103T274 54t140-27q69 0 120 12v622q-51 12-120 12-77 0-140-27t-102.5-73T111 470 90 350z"/><glyph glyph-name="oe" unicode="œ" horiz-adv-x="991" d="M519 151q-24-77-85-119.5T293-11q-103 0-174.5 67.5T47 240t71.5 183.5T293 491q80 0 141.5-43T520 328q23 76 82 119.5T732 491q51 0 91.5-17t64.5-44.5 40-63.5 18-74-3-76H539q4-94 69-142.5T762 25q86 0 151 38V27q-67-38-158-38-81 0-147 41t-89 121zM85 240q0-99 59.5-156.5T293 26t148.5 57.5T501 240t-59.5 156.5T293 454t-148.5-57.5T85 240zm649 215q-78 0-135-54.5T539 250h370q4 35-3.5 69t-26 65.5-56.5 51-89 19.5z"/><glyph glyph-name="Racute" unicode="Ŕ" horiz-adv-x="685" d="M141 0h-40v700h266q64 0 118-18.5t93-66.5 39-120q0-96-62.5-145.5T402 292L662 0h-49L356 289H141V0zm0 662V327h228q85 0 146.5 40.5T577 495t-61 127-147 40H141zm197 114h-43l89 137h47z"/><glyph glyph-name="racute" unicode="ŕ" horiz-adv-x="344" d="M116 349q26 62 83.5 102.5T332 490v-38q-82 3-138-45t-75-119V0H81v480h35V349zm75 207h-43l89 137h47z"/><glyph glyph-name="Rcommaaccent" unicode="Ŗ" horiz-adv-x="685" d="M141 0h-40v700h266q64 0 118-18.5t93-66.5 39-120q0-96-62.5-145.5T402 292L662 0h-49L356 289H141V0zm0 662V327h228q85 0 146.5 40.5T577 495t-61 127-147 40H141zm215-880h-34l21 172h38z"/><glyph glyph-name="rcommaaccent" unicode="ŗ" horiz-adv-x="344" d="M116 349q26 62 83.5 102.5T332 490v-38q-82 3-138-45t-75-119V0H81v480h35V349zM95-218H61L82-46h38z"/><glyph glyph-name="Rcaron" unicode="Ř" horiz-adv-x="685" d="M141 0h-40v700h266q64 0 118-18.5t93-66.5 39-120q0-96-62.5-145.5T402 292L662 0h-49L356 289H141V0zm0 662V327h228q85 0 146.5 40.5T577 495t-61 127-147 40H141zm344 235L357 766h-33L196 897h44l101-101 100 101h44z"/><glyph glyph-name="rcaron" unicode="ř" horiz-adv-x="344" d="M116 349q26 62 83.5 102.5T332 490v-38q-82 3-138-45t-75-119V0H81v480h35V349zm222 328L210 546h-33L49 677h44l101-101 100 101h44z"/><glyph glyph-name="Sacute" unicode="Ś" horiz-adv-x="568" d="M57 537q0 85 65 129.5T280 711q114 0 202-49v-39q-87 50-200 50-79 0-132-33.5T97 538q0-42 24-73t62-49.5 84-33.5 92.5-31.5T444 312t62-59.5 24-88.5q0-89-68-132T290-11Q157-11 52 48v40q107-61 236-61 89 0 145.5 32T490 161q0 45-24 77.5t-62 52-84 35-92.5 32T143 395t-62 57-24 85zm216 239h-43l89 137h47z"/><glyph glyph-name="sacute" unicode="ś" horiz-adv-x="455" d="M51 365q0 63 50.5 94.5T222 491q94 0 165-42v-36q-67 43-163 43-56 0-95.5-22.5T89 366q0-34 24-57t60.5-33.5 79-23.5 79-26 60.5-41.5 24-69.5q0-63-53-94.5T232-11q-49 0-100.5 13T48 37v38q34-23 84.5-36.5T230 25q65 0 106.5 22t41.5 67q0 39-33.5 63t-82 36.5T166 240t-81.5 45T51 365zm169 191h-43l89 137h47z"/><glyph glyph-name="Scedilla" unicode="Ş" horiz-adv-x="568" d="M97 538q0-42 24-73t62-49.5 84-33.5 92.5-31.5T444 312t62-59.5 24-88.5q0-85-61-127.5T313-10l-20-76q48 9 83-8t36-55-30.5-60-87.5-22-98 22v33q40-23 94-23 44 0 66.5 14.5T378-148q-1 29-40.5 38.5T254-113l25 103Q154-8 52 48v40q107-61 236-61 89 0 145.5 32T490 161q0 45-24 77.5t-62 52-84 35-92.5 32T143 395t-62 57-24 85q0 85 65 129.5T280 711q114 0 202-49v-39q-87 50-200 50-79 0-132-33.5T97 538z"/><glyph glyph-name="scedilla" unicode="ş" horiz-adv-x="455" d="M89 366q0-34 24-57t60.5-33.5 79-23.5 79-26 60.5-41.5 24-69.5q0-59-45.5-90T254-10l-16-76q48 9 82.5-8t35.5-55-30.5-60-87.5-22q-54 0-98 22v33q41-23 95-23 44 0 66 14.5t22 36.5q-1 29-40.5 38.5T199-113l22 103Q117-8 48 37v38q34-23 84.5-36.5T230 25q65 0 106.5 22t41.5 67q0 39-33.5 63t-82 36.5T166 240t-81.5 45T51 365q0 63 50.5 94.5T222 491q94 0 165-42v-36q-67 43-163 43-56 0-95.5-22.5T89 366z"/><glyph glyph-name="Scaron" unicode="Š" horiz-adv-x="568" d="M57 537q0 85 65 129.5T280 711q114 0 202-49v-39q-87 50-200 50-79 0-132-33.5T97 538q0-42 24-73t62-49.5 84-33.5 92.5-31.5T444 312t62-59.5 24-88.5q0-89-68-132T290-11Q157-11 52 48v40q107-61 236-61 89 0 145.5 32T490 161q0 45-24 77.5t-62 52-84 35-92.5 32T143 395t-62 57-24 85zm363 360L292 766h-33L131 897h44l101-101 100 101h44z"/><glyph glyph-name="scaron" unicode="š" horiz-adv-x="455" d="M51 365q0 63 50.5 94.5T222 491q94 0 165-42v-36q-67 43-163 43-56 0-95.5-22.5T89 366q0-34 24-57t60.5-33.5 79-23.5 79-26 60.5-41.5 24-69.5q0-63-53-94.5T232-11q-49 0-100.5 13T48 37v38q34-23 84.5-36.5T230 25q65 0 106.5 22t41.5 67q0 39-33.5 63t-82 36.5T166 240t-81.5 45T51 365zm316 312L239 546h-33L78 677h44l101-101 100 101h44z"/><glyph glyph-name="Tcommaaccent" unicode="Ţ" horiz-adv-x="594" d="M14 700h566v-38H317V0h-40v662H14v38zm279-918h-34l21 172h38z"/><glyph glyph-name="tcommaaccent" unicode="ţ" horiz-adv-x="376" d="M105 636l38 11V480h208v-36H143V141q0-115 118-115 58 0 103 24V14Q318-9 251-9q-69 0-107.5 37T105 136v308H15v36h90v156zm130-854h-34l21 172h38z"/><glyph glyph-name="Tcaron" unicode="Ť" horiz-adv-x="594" d="M14 700h566v-38H317V0h-40v662H14v38zm431 197L317 766h-33L156 897h44l101-101 100 101h44z"/><glyph glyph-name="tcaron" unicode="ť" horiz-adv-x="376" d="M251 730h37l-22-159h-33zm-146-94l38 11V480h208v-36H143V141q0-115 118-115 58 0 103 24V14Q318-9 251-9q-69 0-107.5 37T105 136v308H15v36h90v156z"/><glyph glyph-name="Tbar" unicode="Ŧ" horiz-adv-x="606" d="M323 0h-40v338H149v34h134v290H20v38h566v-38H323V372h135v-34H323V0z"/><glyph glyph-name="tbar" unicode="ŧ" horiz-adv-x="376" d="M143 141q0-115 118-115 58 0 103 24V14Q318-9 251-9q-69 0-107.5 37T105 136v134H51v34h54v140H15v36h90v156l38 11V480h208v-36H143V304h164v-34H143V141z"/><glyph glyph-name="Umacron" unicode="Ū" horiz-adv-x="750" d="M617 700h40V245q0-69-21.5-120t-61-80-89-42.5T375-11 264.5 2.5t-89 42.5-61 80T93 245v455h40V246q0-219 242-219t242 219v454zM245 840h264v-36H245v36z"/><glyph glyph-name="umacron" unicode="ū" d="M458 480h38V0h-35v99q-29-44-80-77T265-11q-85 0-137.5 53T75 185v295h38V189q0-78 42.5-121T268 25q64 0 113 35t77 85v335zM160 620h264v-36H160v36z"/><glyph glyph-name="Uring" unicode="Ů" horiz-adv-x="750" d="M617 700h40V245q0-69-21.5-120t-61-80-89-42.5T375-11 264.5 2.5t-89 42.5-61 80T93 245v455h40V246q0-219 242-219t242 219v454zM469 844q0-40-27.5-65T377 754q-38 0-65.5 25T284 844q0 39 27.5 63.5T377 932q37 0 64.5-24.5T469 844zm-154-1q0-27 18.5-44t43.5-17 43.5 17 18.5 44-18.5 44-43.5 17-43.5-17-18.5-44z"/><glyph glyph-name="uring" unicode="ů" d="M458 480h38V0h-35v99q-29-44-80-77T265-11q-85 0-137.5 53T75 185v295h38V189q0-78 42.5-121T268 25q64 0 113 35t77 85v335zm-74 144q0-40-27.5-65T292 534q-38 0-65.5 25T199 624q0 39 27.5 63.5T292 712q37 0 64.5-24.5T384 624zm-154-1q0-27 18.5-44t43.5-17 43.5 17 18.5 44-18.5 44-43.5 17-43.5-17-18.5-44z"/><glyph glyph-name="Uhungarumlaut" unicode="Ű" horiz-adv-x="750" d="M617 700h40V245q0-69-21.5-120t-61-80-89-42.5T375-11 264.5 2.5t-89 42.5-61 80T93 245v455h40V246q0-219 242-219t242 219v454zm-149 79h-41l74 143h43zm-153 0h-41l74 143h43z"/><glyph glyph-name="uhungarumlaut" unicode="ű" d="M458 480h38V0h-35v99q-29-44-80-77T265-11q-85 0-137.5 53T75 185v295h38V189q0-78 42.5-121T268 25q64 0 113 35t77 85v335zm-75 79h-41l74 143h43zm-153 0h-41l74 143h43z"/><glyph glyph-name="Uogonek" unicode="Ų" horiz-adv-x="750" d="M567-211q-34-20-77-20-42-1-66 21.5T400-151q0 34 23.5 77.5T485 5q-48-16-110-16-61 0-110.5 13.5t-89 42.5-61 80T93 245v455h40V246q0-219 242-219t242 219v454h40V245q0-142-94-207-59-41-93-92.5T437-144q-1-25 15-40t46-15q35 0 69 20v-32z"/><glyph glyph-name="uogonek" unicode="ų" d="M496 480V0q-48-33-78-72t-30-74q0-25 15-39t41-14q25 0 52 11v-31q-27-12-60-12-40 0-62 21t-22 57q0 82 109 163v89q-29-44-80-77T265-11q-85 0-137.5 53T75 185v295h38V189q0-78 42.5-121T268 25q64 0 113 35t77 85v335h38z"/><glyph glyph-name="Wcircumflex" unicode="Ŵ" horiz-adv-x="993" d="M925 700h43L745 0h-43L496 628 291 0h-43L25 700h43L270 51l209 643h36L723 51zM481 907h33l128-131h-44L498 877 397 776h-44z"/><glyph glyph-name="wcircumflex" unicode="ŵ" horiz-adv-x="799" d="M734 480h40L594 0h-39L399 423 244 0h-39L25 480h40L225 45l156 429h36L574 45zM384 687h33l128-131h-44L401 657 300 556h-44z"/><glyph glyph-name="Ycircumflex" unicode="Ŷ" horiz-adv-x="634" d="M337 0h-40v279L21 700h45l251-384 251 384h45L337 279V0zm-34 907h33l128-131h-44L320 877 219 776h-44z"/><glyph glyph-name="ycircumflex" unicode="ŷ" horiz-adv-x="531" d="M276 40l194 440h40L260-84q-35-79-74.5-113T96-231q-26 0-50 7v34q28-7 46-7 43 0 75.5 30.5T229-69l29 67L15 480h41zm-33 647h33l128-131h-44L260 657 159 556h-44z"/><glyph glyph-name="Ydieresis" unicode="Ÿ" horiz-adv-x="634" d="M337 0h-40v279L21 700h45l251-384 251 384h45L337 279V0zm112 836q0-13-9-22t-22-9-22 9-9 22q0 12 9 21.5t22 9.5 22-9.5 9-21.5zm-201 0q0-13-9-22t-22-9-22 9-9 22q0 12 9 21.5t22 9.5 22-9.5 9-21.5z"/><glyph glyph-name="Zacute" unicode="Ź" horiz-adv-x="574" d="M543 0H27v35l458 627H44v38h490v-35L75 38h468V0zM290 776h-43l89 137h47z"/><glyph glyph-name="zacute" unicode="ź" horiz-adv-x="449" d="M45 480h358v-33L79 34h338V0H32v33l325 413H45v34zm188 76h-43l89 137h47z"/><glyph glyph-name="Zdotaccent" unicode="Ż" horiz-adv-x="574" d="M543 0H27v35l458 627H44v38h490v-35L75 38h468V0zM253 820q0 16 10.5 25.5T289 855t25.5-9.5T325 820t-10.5-26-25.5-10-25.5 10-10.5 26z"/><glyph glyph-name="zdotaccent" unicode="ż" horiz-adv-x="449" d="M45 480h358v-33L79 34h338V0H32v33l325 413H45v34zm151 120q0 16 10.5 25.5T232 635t25.5-9.5T268 600t-10.5-26-25.5-10-25.5 10-10.5 26z"/><glyph glyph-name="Zcaron" unicode="Ž" horiz-adv-x="574" d="M543 0H27v35l458 627H44v38h490v-35L75 38h468V0zM437 897L309 766h-33L148 897h44l101-101 100 101h44z"/><glyph glyph-name="zcaron" unicode="ž" horiz-adv-x="449" d="M45 480h358v-33L79 34h338V0H32v33l325 413H45v34zm335 197L252 546h-33L91 677h44l101-101 100 101h44z"/><glyph glyph-name="Scommaaccent" unicode="Ș" horiz-adv-x="568" d="M57 537q0 85 65 129.5T280 711q114 0 202-49v-39q-87 50-200 50-79 0-132-33.5T97 538q0-42 24-73t62-49.5 84-33.5 92.5-31.5T444 312t62-59.5 24-88.5q0-89-68-132T290-11Q157-11 52 48v40q107-61 236-61 89 0 145.5 32T490 161q0 45-24 77.5t-62 52-84 35-92.5 32T143 395t-62 57-24 85zm228-755h-34l21 172h38z"/><glyph glyph-name="scommaaccent" unicode="ș" horiz-adv-x="455" d="M51 365q0 63 50.5 94.5T222 491q94 0 165-42v-36q-67 43-163 43-56 0-95.5-22.5T89 366q0-34 24-57t60.5-33.5 79-23.5 79-26 60.5-41.5 24-69.5q0-63-53-94.5T232-11q-49 0-100.5 13T48 37v38q34-23 84.5-36.5T230 25q65 0 106.5 22t41.5 67q0 39-33.5 63t-82 36.5T166 240t-81.5 45T51 365zm184-583h-34l21 172h38z"/><glyph glyph-name="uni021A" unicode="Ț" horiz-adv-x="594" d="M14 700h566v-38H317V0h-40v662H14v38zm279-918h-34l21 172h38z"/><glyph glyph-name="uni021B" unicode="ț" horiz-adv-x="376" d="M105 636l38 11V480h208v-36H143V141q0-115 118-115 58 0 103 24V14Q318-9 251-9q-69 0-107.5 37T105 136v308H15v36h90v156zm130-854h-34l21 172h38z"/><glyph glyph-name="circumflex" unicode="ˆ" horiz-adv-x="275" d="M121 907h33l128-131h-44L138 877 37 776H-7z"/><glyph glyph-name="caron" unicode="ˇ" horiz-adv-x="275" d="M282 897L154 766h-33L-7 897h44l101-101 100 101h44z"/><glyph glyph-name="breve" unicode="˘" horiz-adv-x="321" d="M289 820q-51-42-128-42T33 820v39q56-44 128-44t128 44v-39z"/><glyph glyph-name="dotaccent" unicode="˙" horiz-adv-x="92" d="M10 820q0 16 10.5 25.5T46 855t25.5-9.5T82 820t-10.5-26T46 784t-25.5 10T10 820z"/><glyph glyph-name="ring" unicode="˚" horiz-adv-x="206" d="M195 844q0-40-27.5-65T103 754q-38 0-65.5 25T10 844q0 39 27.5 63.5T103 932q37 0 64.5-24.5T195 844zm-154-1q0-27 18.5-44t43.5-17 43.5 17 18.5 44-18.5 44-43.5 17-43.5-17T41 843z"/><glyph glyph-name="ogonek" unicode="˛" horiz-adv-x="206" d="M125 0h42Q53-77 53-144q0-25 16.5-40t45.5-15q35 0 69 20v-32q-34-20-77-20-42-1-66 21.5T17-151Q17-75 125 0z"/><glyph glyph-name="tilde" unicode="˜" horiz-adv-x="319" d="M308 863q4-37-13.5-59T245 782q-30 0-87 26.5T82 835t-29-13-8-35H11q-5 36 13.5 59T74 869q29 0 86.5-26.5T237 816q42 0 37 47h34z"/><glyph glyph-name="hungarumlaut" unicode="˝" horiz-adv-x="318" d="M218 779h-41l74 143h43zm-153 0H24l74 143h43z"/><glyph glyph-name="uni0326" unicode="̦" horiz-adv-x="100" d="M55-218H21L42-46h38z"/><glyph glyph-name="uni0401" unicode="Ё" horiz-adv-x="622" d="M464 836q0-13-9-22t-22-9-22 9-9 22q0 12 9 21.5t22 9.5 22-9.5 9-21.5zm-201 0q0-13-9-22t-22-9-22 9-9 22q0 12 9 21.5t22 9.5 22-9.5 9-21.5zM101 700h459v-38H141V371h389v-38H141V38h428V0H101v700z"/><glyph glyph-name="uni0410" unicode="А" horiz-adv-x="708" d="M57 0H14l318 700h45L694 0h-42l-93 204H149zm290 642L166 241h378L363 642q-1 3-3.5 9t-4.5 9q-1-3-4-9t-4-9z"/><glyph glyph-name="uni0411" unicode="Б" horiz-adv-x="658" d="M141 401h195q60 0 106-8t88-28.5 65-62T618 200 595 98t-65-61.5T442 8 336 0H101v700h465v-38H141V401zm0-363h197q53 0 91.5 6T504 66t55 49.5 19 84.5-19 85-55 50-74.5 22-91.5 6H141V38z"/><glyph glyph-name="uni0412" unicode="В" horiz-adv-x="679" d="M101 700h261q108 0 171.5-43.5T597 525q0-67-39-106.5T460 368q30-6 56-17t52-30.5 41.5-53.5 15.5-78q0-47-18-82.5t-44.5-55-64.5-32-70.5-16T358 0H101v700zm484-507q0 36-14.5 64T535 301.5t-49 27-53 14.5-49 4H141V38h210q37 0 65 2.5T477.5 52 533 77t37 45.5 15 70.5zm-28 327q0 142-198 142H141V385h251q68 0 116.5 36t48.5 99z"/><glyph glyph-name="uni0413" unicode="Г" horiz-adv-x="568" d="M141 0h-40v700h453v-38H141V0z"/><glyph glyph-name="uni0414" unicode="Д" horiz-adv-x="749" d="M55-174H17V38h74q67 120 98 296t31 366h412V38h86v-212h-38V0H55v-174zm204 836Q249 251 135 38h456v624H259z"/><glyph glyph-name="uni0415" unicode="Е" horiz-adv-x="622" d="M101 700h459v-38H141V371h389v-38H141V38h428V0H101v700z"/><glyph glyph-name="uni0416" unicode="Ж" horiz-adv-x="930" d="M56 0H10l240 359L36 700h45l200-322h164v322h40V378h164l200 322h45L680 359 920 0h-46L648 340H485V0h-40v340H282z"/><glyph glyph-name="uni0417" unicode="З" horiz-adv-x="603" d="M551 188q0-53-24-93t-64-62-85.5-33T283-11Q143-11 41 33v39q99-45 239-45 44 0 82.5 8.5t73 26.5 55 51.5T511 191q0 57-37 93.5t-85.5 49T280 346H147v38h129q94 0 150 38t56 104q0 73-59 110t-153 37q-116 0-217-46v39q96 45 220 45 109 0 179-46.5T522 530q0-66-43.5-108.5T363 366q79-10 133.5-53T551 188z"/><glyph glyph-name="uni0418" unicode="И" horiz-adv-x="766" d="M665 0h-40v632L136 0h-35v700h40V67l488 633h36V0z"/><glyph glyph-name="uni0419" unicode="Й" horiz-adv-x="766" d="M625 0h40v700h-36L141 67v633h-40V0h35l489 632V0zM511 820q-51-42-128-42t-128 42v39q56-44 128-44t128 44v-39z"/><glyph glyph-name="uni041A" unicode="К" horiz-adv-x="656" d="M141 0h-40v700h40V378h202l237 322h46L374 359 652 0h-47L343 340H141V0z"/><glyph glyph-name="uni041B" unicode="Л" horiz-adv-x="735" d="M235 700h399V0h-40v662H273q-5-65-8.5-103.5t-9.5-98-11.5-96.5-13.5-87-17-81-21-68-27-59-32.5-41.5T93.5-1 47-10Q19-10-4-1v38q22-7 46-7 21 0 39 9t32.5 28.5 27 41.5 22.5 58.5 18 67.5 15 81 12 87 10.5 96 8.5 98 8 103z"/><glyph glyph-name="uni041C" unicode="М" horiz-adv-x="898" d="M764 700h33V0h-40v623L461 188h-24L141 623V0h-40v700h32l316-463z"/><glyph glyph-name="uni041D" unicode="Н" horiz-adv-x="766" d="M625 700h40V0h-40v333H141V0h-40v700h40V371h484v329z"/><glyph glyph-name="uni041E" unicode="О" horiz-adv-x="825" d="M50 350q0 67 23 130.5T139.5 596 254 679.5 412 711q88 0 159-31.5T685.5 596 752 480.5 775 350t-23-130.5T685.5 104 571 20.5 412-11q-87 0-158 31.5T139.5 104 73 219.5 50 350zm685 0q0 61-20.5 117.5t-59 103-102 74.5T412 673t-141-28-101.5-74.5-59-103T90 350t20.5-117.5 59-103T271 55t141-28 141.5 28 102 74.5 59 103T735 350z"/><glyph glyph-name="uni041F" unicode="П" horiz-adv-x="748" d="M141 0h-40v700h546V0h-39v662H141V0z"/><glyph glyph-name="uni0420" unicode="Р" horiz-adv-x="653" d="M101 700h223q293 0 293-219 0-220-293-220H141V0h-40v700zm476-219q0 181-251 181H141V299h185q251 0 251 182z"/><glyph glyph-name="uni0421" unicode="С" horiz-adv-x="662" d="M51 342q0 88 31.5 160T166 618.5 281.5 687 413 711q108 0 196-48v-40q-83 50-191 50-61 0-118-21t-104.5-60.5-76-104.5T91 342q0-77 29-139t76.5-99.5 105-57T420 27q114 0 197 51V38q-89-49-204-49-67 0-130.5 22.5T167 76 83 187.5 51 342z"/><glyph glyph-name="uni0422" unicode="Т" horiz-adv-x="594" d="M14 700h566v-38H317V0h-40v662H14v38z"/><glyph glyph-name="uni0423" unicode="У" horiz-adv-x="621" d="M351 159q-49-97-98-133.5T143-11q-43 0-80 12v37q39-11 74-11 50 0 87.5 26.5T300 147l12 24L12 700h44l277-491 247 491h43z"/><glyph glyph-name="uni0424" unicode="Ф" horiz-adv-x="848" d="M444-36h-40v94q-171 2-271.5 78.5T32 350t100.5 213.5T404 642v94h40v-94q171-2 271.5-78.5T816 350 715.5 136.5 444 58v-94zM72 350q0-120 87.5-187T404 94v512q-157-2-244.5-69T72 350zm372 256V94q157 2 244.5 69T776 350t-87.5 187T444 606z"/><glyph glyph-name="uni0425" unicode="Х" horiz-adv-x="614" d="M55 0H8l276 360L23 700h47l237-309 237 309h47L331 360 606 0h-47L307 329z"/><glyph glyph-name="uni0426" unicode="Ц" horiz-adv-x="765" d="M734-174h-38V0H101v700h40V38h468v662h39V38h86v-212z"/><glyph glyph-name="uni0427" unicode="Ч" horiz-adv-x="675" d="M574 0h-40v290q-113-40-225-38-124 2-192 61.5T49 487v213h40V486q0-99 60-147t168-49q107-2 217 39v371h40V0z"/><glyph glyph-name="uni0428" unicode="Ш" horiz-adv-x="1062" d="M961 0H101v700h40V38h370v662h40V38h371v662h39V0z"/><glyph glyph-name="uni0429" unicode="Щ" horiz-adv-x="1078" d="M1047-174h-38l1 174H101v700h40V38h370v662h40V38h371v662h39V38h86v-212z"/><glyph glyph-name="uni042A" unicode="Ъ" horiz-adv-x="751" d="M422 0H199v662H14v38h225V438h183q293 0 293-219T422 0zM239 400V38h185q251 0 251 181T424 400H239z"/><glyph glyph-name="uni042B" unicode="Ы" horiz-adv-x="842" d="M324 0H101v700h40V438h183q293 0 293-219T324 0zM141 400V38h185q251 0 251 181T326 400H141zM741 0h-40v700h40V0z"/><glyph glyph-name="uni042C" unicode="Ь" horiz-adv-x="653" d="M324 0H101v700h40V438h183q293 0 293-219T324 0zM141 400V38h185q251 0 251 181T326 400H141z"/><glyph glyph-name="uni042D" unicode="Э" horiz-adv-x="657" d="M48 663q87 48 197 48 67 0 130.5-23.5t115-67.5 83-116T605 344q0-89-31.5-159t-84-111.5-115.5-63T243-11Q135-11 48 38v41q86-52 190-52 131 0 227 77.5T565 331H167v38h398q-7 144-103 224t-222 80q-111 0-192-50v40z"/><glyph glyph-name="uni042E" unicode="Ю" horiz-adv-x="1079" d="M1029 350q0-67-23-130.5T939.5 104 825 20.5 666-11q-112 0-194.5 51T349 167t-44 164H141V0h-40v700h40V369h164q4 88 44 164t122.5 127T666 711q88 0 159-31.5T939.5 596t66.5-115.5 23-130.5zm-685 0q0-61 20.5-117.5t59-103T525 55t141-28 141.5 28 102 74.5 59 103T989 350t-20.5 117.5-59 103-102 74.5T666 673t-141-28-101.5-74.5-59-103T344 350z"/><glyph glyph-name="uni042F" unicode="Я" horiz-adv-x="679" d="M85 0H37l214 275q-85 17-136.5 70.5T63 485q0 104 73.5 159.5T323 700h255V0h-39v269H323q-19 0-28 1zm19 485q0-87 60.5-132.5T322 307h217v355H322q-97 0-157.5-45.5T104 485z"/><glyph glyph-name="uni0430" unicode="а" horiz-adv-x="543" d="M450 77q0-46 48-46 16 0 37 7V6q-24-8-47-8-33 0-54.5 19T412 76v13Q337-11 204-11q-68 0-116.5 36T39 129q0 79 60.5 116T248 282q83 0 164-26v44q0 71-43 113t-122 42q-90 0-171-31v37q85 30 174 30 95 0 147.5-51.5T450 296V77zM78 130q0-52 39-79.5T211 23q62 0 115.5 29.5T412 136v87q-81 26-160 26-73 0-123.5-28.5T78 130z"/><glyph glyph-name="uni0431" unicode="б" horiz-adv-x="589" d="M542 225q0-107-66.5-171.5T301-11q-111 0-179.5 76T53 264q0 112 42 198.5T205 591q57 35 117.5 51T425 670t69 40v-41q-32-28-118-48.5T227 562Q118 496 91 324q27 63 86 99.5T307 460q100 0 167.5-66T542 225zM91 247q0-95 57.5-158T300 26q92 0 148 55t56 143-56 144-146 56q-77 0-136.5-48T91 247z"/><glyph glyph-name="uni0432" unicode="в" horiz-adv-x="542" d="M339 0H81v480h246q68 0 107-33t39-92q0-41-21-70t-58-40q43-9 70-38.5t27-79.5q0-61-41-94T339 0zM119 227V34h215q54 0 86.5 23t32.5 72q0 52-32 75t-83 23H119zm0 219V260h207q53 0 81 24t28 68q0 45-30 69.5T323 446H119z"/><glyph glyph-name="uni0433" unicode="г" horiz-adv-x="437" d="M119 0H81v480h341v-36H119V0z"/><glyph glyph-name="uni0434" unicode="д" horiz-adv-x="611" d="M62-136H25V35h62q48 95 69.5 197.5T178 480h332V35h69v-171h-38V0H62v-136zm152 581q-1-129-22.5-224.5T127 35h344v410H214z"/><glyph glyph-name="uni0435" unicode="е" horiz-adv-x="544" d="M47 240q0 116 70 183.5T282 491q52 0 93.5-17t66-44.5T483 367t18.5-72.5T498 221H85q4-98 69.5-147T314 25q91 0 156 38V25q-66-36-161-36-112 0-187 63.5T47 240zm418 15q4 33-4 66.5t-28 64-58.5 50T284 455q-81 0-138.5-53.5T85 255h380z"/><glyph glyph-name="uni0436" unicode="ж" horiz-adv-x="719" d="M709 0h-43L468 227h-90V0h-38v227h-89L53 0H9l211 246L36 480h43l173-217h88v217h38V263h89l172 217h44L499 246z"/><glyph glyph-name="uni0437" unicode="з" horiz-adv-x="466" d="M416 127q0-69-57-103.5T213-11q-95 0-172 35v37q74-36 168-36 73 0 121 24.5t48 80.5q0 47-36.5 71.5T259 226H142v36h117q109 8 109 89 0 51-44.5 78T210 456q-82 0-162-35v36q81 34 166 34 86 0 139-35.5t53-99.5q0-44-25-73t-70-37q44-11 74.5-42t30.5-77z"/><glyph glyph-name="uni0438" unicode="и" horiz-adv-x="585" d="M115 0H81v480h38V60l350 420h35V0h-38v420z"/><glyph glyph-name="uni0439" unicode="й" horiz-adv-x="585" d="M420 602q-50-41-128-41t-128 41v37q56-44 128-44t128 44v-37zM115 0H81v480h38V60l350 420h35V0h-38v420z"/><glyph glyph-name="uni043A" unicode="к" horiz-adv-x="502" d="M119 0H81v480h38V265h123l180 215h45L272 246 494 0h-46L239 229H119V0z"/><glyph glyph-name="uni043B" unicode="л" horiz-adv-x="586" d="M216 444q-10-224-46.5-337T53-6Q31-6 8 2v31q14-6 35-6 65 0 97 114t39 339h326V0h-38v444H216z"/><glyph glyph-name="uni043C" unicode="м" horiz-adv-x="663" d="M117 0H81v480h41l210-298 209 298h41V0h-36v423L345 139h-27L117 423V0z"/><glyph glyph-name="uni043D" unicode="н" d="M119 0H81v480h38V258h339v222h38V0h-38v222H119V0z"/><glyph glyph-name="uni043E" unicode="о" horiz-adv-x="591" d="M46 240q0 116 73.5 183.5T295 491q103 0 176.5-67.5T545 240 471.5 56.5 295-11q-102 0-175.5 67.5T46 240zm461 0q0 98-61.5 156T295 454t-150-58-61-156 61-156 150-58 150.5 58T507 240z"/><glyph glyph-name="uni043F" unicode="п" d="M119 0H81v480h415V0h-38v444H119V0z"/><glyph glyph-name="uni0440" unicode="р" horiz-adv-x="615" d="M116 366q32 56 87 90.5T329 491q103 0 171-69.5T568 240 500 58.5 329-11q-71 0-125.5 34T119 110v-330H81v700h35V366zm414-126q0 98-58 156.5T325 455q-72 0-127.5-41T119 310V170q23-63 78.5-104T325 25q89 0 147 58t58 157z"/><glyph glyph-name="uni0441" unicode="с" horiz-adv-x="497" d="M47 236q0 124 77 189.5T305 491q84 0 143-39v-37q-58 40-139 40-92 0-158-55T85 237q0-103 63-157.5T300 25q86 0 153 38V25q-68-36-157-36-102 0-175.5 63.5T47 236z"/><glyph glyph-name="uni0442" unicode="т" horiz-adv-x="455" d="M247 0h-38v444H15v36h425v-36H247V0z"/><glyph glyph-name="uni0443" unicode="у" horiz-adv-x="531" d="M276 40l194 440h40L260-84q-35-79-74.5-113T96-231q-26 0-50 7v34q28-7 46-7 43 0 75.5 30.5T229-69l29 67L15 480h41z"/><glyph glyph-name="uni0444" unicode="ф" horiz-adv-x="703" d="M370-220h-38v209Q207-9 126.5 58T46 240t80.5 182T332 491v209h38V491q125-2 206-69t81-182-81-182-206-69v-209zM84 240q0-100 69-157.5T332 23v434q-110-2-179-59.5T84 240zm286 217V23q111 2 179.5 59.5T618 240t-68.5 157.5T370 457z"/><glyph glyph-name="uni0445" unicode="х" horiz-adv-x="483" d="M412 480h45L264 246 467 0h-44L241 219 60 0H15l204 246L26 480h44l171-206z"/><glyph glyph-name="uni0446" unicode="ц" horiz-adv-x="592" d="M559-136h-37V0H81v480h38V36h333v444h38V36h69v-172z"/><glyph glyph-name="uni0447" unicode="ч" horiz-adv-x="517" d="M436 0h-38v181q-72-31-161-31T96.5 193 45 322v158h38V324q0-138 164-138 87 0 151 29v265h38V0z"/><glyph glyph-name="uni0448" unicode="ш" horiz-adv-x="808" d="M727 0H81v480h38V36h266v444h38V36h266v444h38V0z"/><glyph glyph-name="uni0449" unicode="щ" horiz-adv-x="829" d="M796-136h-37V0H81v480h38V36h266v444h38V36h266v444h38V36h69v-172z"/><glyph glyph-name="uni044A" unicode="ъ" horiz-adv-x="579" d="M190 300h175q82 0 131.5-42T546 150 496.5 42 365 0H152v446H16v34h174V300zm0-265h171q68 0 107 31.5t39 83.5q0 53-39.5 84T361 265H190V35z"/><glyph glyph-name="uni044B" unicode="ы" horiz-adv-x="691" d="M294 0H81v480h38V300h175q82 0 131.5-42T475 150 425.5 42 294 0zM119 265V35h171q68 0 107 31.5t39 83.5q0 53-39.5 84T290 265H119zM610 0h-38v480h38V0z"/><glyph glyph-name="uni044C" unicode="ь" horiz-adv-x="508" d="M294 0H81v480h38V300h175q82 0 131.5-42T475 150 425.5 42 294 0zM119 265V35h171q68 0 107 31.5t39 83.5q0 53-39.5 84T290 265H119z"/><glyph glyph-name="uni044D" unicode="э" horiz-adv-x="502" d="M455 234q0-122-72.5-183.5T209-11q-89 0-166 43v36q73-43 160-43 90 0 150.5 48T417 222H137v36h280q-6 98-71.5 147.5T191 455q-79 0-143-43v35q66 44 147 44 105 0 182.5-66T455 234z"/><glyph glyph-name="uni044E" unicode="ю" horiz-adv-x="804" d="M757 240q0-116-73-183.5T508-11q-99 0-171 63t-78 170H119V0H81v480h38V258h140q6 107 78 170t171 63q103 0 176-67.5T757 240zm-461 0q0-98 61-156t150-58 150.5 58T719 240t-61.5 156T507 454t-150-58-61-156z"/><glyph glyph-name="uni044F" unicode="я" horiz-adv-x="539" d="M81 0H36l145 191q-59 12-92 50t-33 92q0 65 48 106t130 41h224V0h-38v186H222zm13 333q0-51 38.5-81.5T237 221h183v224H237q-67 0-105-30.5T94 333z"/><glyph glyph-name="uni0451" unicode="ё" horiz-adv-x="544" d="M413 616q0-13-9-22t-22-9-22 9-9 22q0 12 9 21.5t22 9.5 22-9.5 9-21.5zm-201 0q0-13-9-22t-22-9-22 9-9 22q0 12 9 21.5t22 9.5 22-9.5 9-21.5zM47 240q0 116 70 183.5T282 491q52 0 93.5-17t66-44.5T483 367t18.5-72.5T498 221H85q4-98 69.5-147T314 25q91 0 156 38V25q-66-36-161-36-112 0-187 63.5T47 240zm418 15q4 33-4 66.5t-28 64-58.5 50T284 455q-81 0-138.5-53.5T85 255h380z"/><glyph glyph-name="Wgrave" unicode="Ẁ" horiz-adv-x="993" d="M925 700h43L745 0h-43L496 628 291 0h-43L25 700h43L270 51l209 643h36L723 51zm-388 76h-42l-94 137h48z"/><glyph glyph-name="wgrave" unicode="ẁ" horiz-adv-x="799" d="M734 480h40L594 0h-39L399 423 244 0h-39L25 480h40L225 45l156 429h36L574 45zm-294 76h-42l-94 137h48z"/><glyph glyph-name="Wacute" unicode="Ẃ" horiz-adv-x="993" d="M925 700h43L745 0h-43L496 628 291 0h-43L25 700h43L270 51l209 643h36L723 51zm-430 76h-43l89 137h47z"/><glyph glyph-name="wacute" unicode="ẃ" horiz-adv-x="799" d="M734 480h40L594 0h-39L399 423 244 0h-39L25 480h40L225 45l156 429h36L574 45zm-336 76h-43l89 137h47z"/><glyph glyph-name="Wdieresis" unicode="Ẅ" horiz-adv-x="993" d="M925 700h43L745 0h-43L496 628 291 0h-43L25 700h43L270 51l209 643h36L723 51zM627 836q0-13-9-22t-22-9-22 9-9 22q0 12 9 21.5t22 9.5 22-9.5 9-21.5zm-201 0q0-13-9-22t-22-9-22 9-9 22q0 12 9 21.5t22 9.5 22-9.5 9-21.5z"/><glyph glyph-name="wdieresis" unicode="ẅ" horiz-adv-x="799" d="M734 480h40L594 0h-39L399 423 244 0h-39L25 480h40L225 45l156 429h36L574 45zM530 616q0-13-9-22t-22-9-22 9-9 22q0 12 9 21.5t22 9.5 22-9.5 9-21.5zm-201 0q0-13-9-22t-22-9-22 9-9 22q0 12 9 21.5t22 9.5 22-9.5 9-21.5z"/><glyph glyph-name="Ygrave" unicode="Ỳ" horiz-adv-x="634" d="M337 0h-40v279L21 700h45l251-384 251 384h45L337 279V0zm22 776h-42l-94 137h48z"/><glyph glyph-name="ygrave" unicode="ỳ" horiz-adv-x="531" d="M276 40l194 440h40L260-84q-35-79-74.5-113T96-231q-26 0-50 7v34q28-7 46-7 43 0 75.5 30.5T229-69l29 67L15 480h41zm23 516h-42l-94 137h48z"/><glyph glyph-name="endash" unicode="–" horiz-adv-x="568" d="M499 226H69v36h430v-36z"/><glyph glyph-name="emdash" unicode="—" horiz-adv-x="752" d="M683 226H69v36h614v-36z"/><glyph glyph-name="quoteleft" unicode="‘" horiz-adv-x="189" d="M94 482H54l59 218h32z"/><glyph glyph-name="quoteright" unicode="’" horiz-adv-x="186" d="M87 482H55l51 218h40z"/><glyph glyph-name="quotesinglbase" unicode="‚" horiz-adv-x="203" d="M70-144H38L89 74h40z"/><glyph glyph-name="quotedblleft" unicode="“" horiz-adv-x="317" d="M222 482h-40l59 218h32zm-128 0H54l59 218h32z"/><glyph glyph-name="quotedblright" unicode="”" horiz-adv-x="314" d="M215 482h-32l51 218h40zm-128 0H55l51 218h40z"/><glyph glyph-name="quotedblbase" unicode="„" horiz-adv-x="331" d="M198-144h-32l51 218h40zm-128 0H38L89 74h40z"/><glyph glyph-name="dagger" unicode="†" horiz-adv-x="488" d="M264-220h-40v662H34v38h190v220h40V480h190v-38H264v-662z"/><glyph glyph-name="daggerdbl" unicode="‡" horiz-adv-x="519" d="M279-220h-39v328H50v38h190v296H50v38h190v220h39V480h190v-38H279V146h190v-38H279v-328z"/><glyph glyph-name="bullet" unicode="•" horiz-adv-x="293" d="M96 350q0 23 14.5 36.5T146 400q22 0 36.5-13.5T197 350t-14.5-36.5T146 300q-21 0-35.5 13.5T96 350z"/><glyph glyph-name="ellipsis" unicode="…" horiz-adv-x="492" d="M423 23q0-14-8.5-22T393-7t-21.5 8-8.5 22q0 13 9 21t21 8q13 0 21.5-8t8.5-21zm-294 0q0-14-8.5-22T99-7 77.5 1 69 23q0 13 9 21t21 8q13 0 21.5-8t8.5-21zm147 0q0-14-8.5-22T246-7t-21.5 8-8.5 22q0 13 9 21t21 8q13 0 21.5-8t8.5-21z"/><glyph glyph-name="perthousand" unicode="‰" horiz-adv-x="1249" d="M255-60h-39l409 820h39zm84 624q0-69-44-108t-107-39-107.5 39T36 564t44.5 108T188 711t107-39 44-108zm-266 0q0-52 32.5-82.5T189 451q49 0 82 31t33 82-33 82-82 31q-51 0-83.5-30.5T73 564zm770-428q0-69-44-108T692-11 584.5 28 540 136t44.5 108T692 283t107-39 44-108zm-266 0q0-52 32.5-82.5T693 23q49 0 82 31t33 82-33 82-82 31q-51 0-83.5-30.5T577 136zm637 0q0-69-44-108t-107-39-107.5 39T911 136t44.5 108 107.5 39 107-39 44-108zm-266 0q0-52 32.5-82.5T1064 23q49 0 82 31t33 82-33 82-82 31q-51 0-83.5-30.5T948 136z"/><glyph glyph-name="guilsinglleft" unicode="‹" horiz-adv-x="275" d="M212 66h-42L51 235v10l119 169h42L89 240z"/><glyph glyph-name="guilsinglright" unicode="›" horiz-adv-x="275" d="M104 66H63l123 174L63 414h41l120-169v-10z"/><glyph glyph-name="fraction" unicode="⁄" horiz-adv-x="165" d="M-136-11h-22l456 722h22z"/><glyph glyph-name="Euro" unicode="€" horiz-adv-x="736" d="M670 38q-89-49-196-49-78 0-147.5 28.5t-123 89.5T132 252H44v34h82q-3 24-3 51 0 33 4 57H44v34h89q29 124 125.5 193.5T474 691q108 0 196-48v-40q-81 50-190 50-106 0-192-59T175 428h379v-34H168q-5-22-5-57 0-27 3-51h388v-34H174q26-109 112.5-167T482 27q105 0 188 51V38z"/><glyph glyph-name="trademark" unicode="™" horiz-adv-x="660" d="M331 448h-25v252h29l107-151 107 151h29V448h-25v216L449 519h-15L331 664V448zm-169 0h-25v228H46v24h207v-24h-91V448z"/><glyph glyph-name="oneeighth" unicode="⅛" horiz-adv-x="900" d="M553 313q0 41 38 71.5T699 415q66 0 106-32.5t42-76.5q0-70-63-108 77-34 77-97 0-44-41-76T701-7 580.5 26.5 538 110q0 74 75 115-60 31-60 88zm149-121q-56 18-59 19-34-15-52.5-41.5T572 114q0-40 33.5-64.5T701 25q58 0 92 21.5t34 53.5q0 17-8 30.5T802 152t-29.5 16.5-32 12T702 192zm111 108q0 34-30.5 58.5T699 383q-51 0-81.5-20T587 313q0-50 68-74 9-4 46-15 31-8 54-15 58 34 58 91zM202-11h-22l456 722h22zm-43 691h25V304h77v-32H52v32h99v340l-91-34v32z"/><glyph glyph-name="threeeighths" unicode="⅜" horiz-adv-x="948" d="M601 313q0 41 38 71.5T747 415q66 0 106-32.5t42-76.5q0-70-63-108 77-34 77-97 0-44-41.5-76T749-7q-78 0-120.5 33.5T586 110q0 74 75 115-60 31-60 88zm149-121q-56 18-59 19-34-15-52.5-41.5T620 114q0-40 33.5-64.5T749 25q58 0 92 21.5t34 53.5q0 17-8 30.5T850 152t-29.5 16.5-32 12T750 192zm111 108q0 34-30.5 58.5T747 383q-51 0-81.5-20T635 313q0-50 68-74 9-4 46-15 31-8 54-15 58 34 58 91zM260-11h-22l456 722h22zm63 592q0-32-18.5-57.5T253 489q37-9 61.5-34.5T339 385q0-55-40-85.5T196 269q-82 0-142 27v33q57-28 140-28 51 0 82 21.5t31 64.5-31 63-80 20h-62v33h58q48 0 73 21.5t25 54.5q0 35-28 57.5T184 659q-63 0-123-29v33q56 28 127 28 61 0 98-31t37-79z"/><glyph glyph-name="fiveeighths" unicode="⅝" horiz-adv-x="938" d="M591 313q0 41 38 71.5T737 415q66 0 106-32.5t42-76.5q0-70-63-108 77-34 77-97 0-44-41.5-76T739-7q-78 0-120.5 33.5T576 110q0 74 75 115-60 31-60 88zm149-121q-56 18-59 19-34-15-52.5-41.5T610 114q0-40 33.5-64.5T739 25q58 0 92 21.5t34 53.5q0 17-8 30.5T840 152t-29.5 16.5-32 12T740 192zm111 108q0 34-30.5 58.5T737 383q-51 0-81.5-20T625 313q0-50 68-74 9-4 46-15 31-8 54-15 58 34 58 91zM250-11h-22l456 722h22zM76 680h239v-32H108l-9-144q42 13 84 13 64 0 108-31t44-95q0-58-42.5-92T182 265q-76 0-130 28v32q54-28 127-28 55 0 88 25t33 69q0 94-129 94-56 0-108-19z"/><glyph glyph-name="seveneighths" unicode="⅞" horiz-adv-x="837" d="M145-11h-22l456 722h22zm343 324q0 41 38 71.5T634 415q66 0 106-32.5t42-76.5q0-70-63-108 77-34 77-97 0-44-41-76T636-7 515.5 26.5 473 110q0 74 75 115-60 31-60 88zm149-121q-55 18-59 19-34-15-52.5-41.5T507 114q0-40 33.5-64.5T636 25q58 0 92 21.5t34 53.5q0 17-8 30.5T737 152t-29.5 16.5-32 12T637 192zm111 108q0 34-30.5 58.5T634 383q-52 0-82-20t-30-50q0-50 68-74 9-4 46-15 31-8 54-15 58 34 58 91zm-603-28h-36l166 376H38v32h275v-30z"/><glyph glyph-name="partialdiff" unicode="∂" horiz-adv-x="594" d="M538 267q0-128-68-203T291-11q-106 0-175 64.5T47 223q0 98 68 161.5T278 448q80 0 144-44t81-124q0 15-1 23-6 92-42 163t-92 113.5T244.5 643 101 664v36q86 0 162.5-26t139-77 99-136T538 267zM85 223q0-90 57-143.5T291 26q83 0 135.5 47T494 201q-2 99-63.5 155T283 412q-84 0-141-53T85 223z"/><glyph glyph-name="emptyset" unicode="∅" horiz-adv-x="820" d="M723 700l-71-83q119-108 119-267 0-149-106-255T410-11q-127 0-227 81L123 0H97l71 83q-56 50-87.5 120T49 350q0 149 106 255t255 106q127 0 227-81l60 70h26zm-312-12q-140 0-239-99T73 350q0-73 29.5-138T184 101l439 512q-93 75-212 75zM199 88q94-76 212-76 139 0 238.5 99T749 350q0 72-29.5 137.5T638 600z"/><glyph glyph-name="product" unicode="∏" horiz-adv-x="730" d="M178-220h-40v882H37v38h656v-38H592v-882h-40v882H178v-882z"/><glyph glyph-name="summation" unicode="∑" horiz-adv-x="562" d="M509 0H40v24l284 326L40 676v24h466v-38H104l267-307v-10L104 38h405V0z"/><glyph glyph-name="minus" unicode="−" horiz-adv-x="515" d="M442 330H73v36h369v-36z"/><glyph glyph-name="radical" unicode="√" horiz-adv-x="718" d="M349 0h-36L125 442H30v38h120L331 46l343 734h42z"/><glyph glyph-name="infinity" unicode="∞" horiz-adv-x="827" d="M414 389q29 44 50.5 69.5t59.5 48 83 22.5q69 0 116.5-46.5T771 358t-47.5-124.5T607 187q-34 0-63 11t-53 33.5-40.5 43T413 327q-28-44-49.5-69.5t-59.5-48-83-22.5q-70 0-117.5 46.5T56 358t47.5 124.5T221 529q64 0 106-36t87-104zm-21-32q-29 45-47 69t-50.5 45.5T225 493q-56 0-93.5-36T94 358t37.5-99 93.5-36q29 0 53 10t45.5 32 35 40.5T393 357zm340 1q0 64-37.5 99.5T601 493q-28 0-52-10t-45.5-32-35-40.5T434 359q29-45 47-69t50.5-45.5T601 223q57 0 94.5 35.5T733 358z"/><glyph glyph-name="integral" unicode="∫" horiz-adv-x="396" d="M179 656q0 71 40.5 103t95.5 32q41 0 71-14v-36q-29 13-67 13-42 0-72-23t-30-76V-96q0-71-40.5-103T81-231q-37 0-71 14v36q29-13 64-13 105 0 105 99v751z"/><glyph glyph-name="approxequal" unicode="≈" horiz-adv-x="582" d="M509 471q1-40-23.5-65.5T420 380q-37 0-126 33.5T169 447q-27 0-41.5-15T114 392H77q-1 41 23.5 66t65.5 25q38 0 126-33t124-33q26 0 41.5 14.5T472 471h37zm0-144q1-41-23-66.5T420 235q-37 0-126 33.5T169 302q-27 0-41.5-15T114 247H77q-1 41 23.5 66t65.5 25q38 0 126-33t124-33q26 0 41.5 15t14.5 40h37z"/><glyph glyph-name="notequal" unicode="≠" horiz-adv-x="543" d="M158 140h-35l63 101H73v37h135l92 144H73v37h249l63 101h36l-64-101h113v-37H335l-92-144h227v-37H222z"/><glyph glyph-name="lessequal" unicode="≤" horiz-adv-x="514" d="M434 219v-38L73 340v39l361 159v-38L112 360zm0-219H73v36h361V0z"/><glyph glyph-name="greaterequal" unicode="≥" horiz-adv-x="514" d="M441 340L80 181v38l322 141L80 500v38l361-159v-39zm0-340H80v36h361V0z"/><glyph glyph-name="lozenge" unicode="◊" horiz-adv-x="547" d="M295 0h-43L39 350l213 350h43l213-350zM83 350L274 39l192 311-192 311z"/><glyph glyph-name="i.loclTRK" horiz-adv-x="208" d="M85 480h38V0H85v480zM66 600q0 16 10.5 25.5T102 635t25.5-9.5T138 600t-10.5-26-25.5-10-25.5 10T66 600z"/><glyph glyph-name="a.ss01" horiz-adv-x="615" d="M499 114q-31-56-85.5-90.5T289-11q-104 0-173 69.5T47 240t69 181.5T289 491q70 0 124.5-34.5T499 366v114h35V0h-35v114zM85 240q0-99 59-157t148-58q72 0 127 41t77 104v140q-22 63-77 104t-127 41q-89 0-148-58.5T85 240z"/><glyph glyph-name="aacute.ss01" horiz-adv-x="615" d="M499 114q-31-56-85.5-90.5T289-11q-104 0-173 69.5T47 240t69 181.5T289 491q70 0 124.5-34.5T499 366v114h35V0h-35v114zM85 240q0-99 59-157t148-58q72 0 127 41t77 104v140q-22 63-77 104t-127 41q-89 0-148-58.5T85 240zm222 316h-43l89 137h47z"/><glyph glyph-name="abreve.ss01" horiz-adv-x="615" d="M499 114q-31-56-85.5-90.5T289-11q-104 0-173 69.5T47 240t69 181.5T289 491q70 0 124.5-34.5T499 366v114h35V0h-35v114zM85 240q0-99 59-157t148-58q72 0 127 41t77 104v140q-22 63-77 104t-127 41q-89 0-148-58.5T85 240zm351 360q-51-42-128-42t-128 42v39q56-44 128-44t128 44v-39z"/><glyph glyph-name="acircumflex.ss01" horiz-adv-x="615" d="M499 114q-31-56-85.5-90.5T289-11q-104 0-173 69.5T47 240t69 181.5T289 491q70 0 124.5-34.5T499 366v114h35V0h-35v114zM85 240q0-99 59-157t148-58q72 0 127 41t77 104v140q-22 63-77 104t-127 41q-89 0-148-58.5T85 240zm208 447h33l128-131h-44L310 657 209 556h-44z"/><glyph glyph-name="adieresis.ss01" horiz-adv-x="615" d="M499 114q-31-56-85.5-90.5T289-11q-104 0-173 69.5T47 240t69 181.5T289 491q70 0 124.5-34.5T499 366v114h35V0h-35v114zM85 240q0-99 59-157t148-58q72 0 127 41t77 104v140q-22 63-77 104t-127 41q-89 0-148-58.5T85 240zm354 376q0-13-9-22t-22-9-22 9-9 22q0 12 9 21.5t22 9.5 22-9.5 9-21.5zm-201 0q0-13-9-22t-22-9-22 9-9 22q0 12 9 21.5t22 9.5 22-9.5 9-21.5z"/><glyph glyph-name="agrave.ss01" horiz-adv-x="615" d="M499 114q-31-56-85.5-90.5T289-11q-104 0-173 69.5T47 240t69 181.5T289 491q70 0 124.5-34.5T499 366v114h35V0h-35v114zM85 240q0-99 59-157t148-58q72 0 127 41t77 104v140q-22 63-77 104t-127 41q-89 0-148-58.5T85 240zm264 316h-42l-94 137h48z"/><glyph glyph-name="amacron.ss01" horiz-adv-x="615" d="M499 114q-31-56-85.5-90.5T289-11q-104 0-173 69.5T47 240t69 181.5T289 491q70 0 124.5-34.5T499 366v114h35V0h-35v114zM85 240q0-99 59-157t148-58q72 0 127 41t77 104v140q-22 63-77 104t-127 41q-89 0-148-58.5T85 240zm91 380h264v-36H176v36z"/><glyph glyph-name="aogonek.ss01" horiz-adv-x="615" d="M534 480V0q-47-33-77-72.5T427-147q0-24 15-38t41-14q28 0 51 10v-31q-25-11-59-11-39-1-61.5 20T391-154q0 84 108 165v103q-31-56-85.5-90.5T289-11q-104 0-173 69.5T47 240t69 181.5T289 491q70 0 124.5-34.5T499 366v114h35zM292 25q72 0 127 41t77 104v140q-22 63-77 104t-127 41q-89 0-148-58.5T85 240q0-99 59-157t148-58z"/><glyph glyph-name="aring.ss01" horiz-adv-x="615" d="M499 114q-31-56-85.5-90.5T289-11q-104 0-173 69.5T47 240t69 181.5T289 491q70 0 124.5-34.5T499 366v114h35V0h-35v114zM85 240q0-99 59-157t148-58q72 0 127 41t77 104v140q-22 63-77 104t-127 41q-89 0-148-58.5T85 240zm315 384q0-40-27.5-65T308 534q-38 0-65.5 25T215 624q0 39 27.5 63.5T308 712q37 0 64.5-24.5T400 624zm-154-1q0-27 18.5-44t43.5-17 43.5 17 18.5 44-18.5 44-43.5 17-43.5-17-18.5-44z"/><glyph glyph-name="atilde.ss01" horiz-adv-x="615" d="M499 114q-31-56-85.5-90.5T289-11q-104 0-173 69.5T47 240t69 181.5T289 491q70 0 124.5-34.5T499 366v114h35V0h-35v114zM85 240q0-99 59-157t148-58q72 0 127 41t77 104v140q-22 63-77 104t-127 41q-89 0-148-58.5T85 240zm372 403q4-37-13.5-59T394 562q-30 0-87 26.5T231 615t-29-13-8-35h-34q-5 36 13.5 59t49.5 23q29 0 86.5-26.5T386 596q42 0 37 47h34z"/><glyph glyph-name="ae.ss01" horiz-adv-x="999" d="M499 114q-31-56-85.5-90.5T289-11q-104 0-173 69.5T47 240t69 181.5T289 491q70 0 124.5-34.5T499 366v114h35V349q25 67 81 104.5T739 491q84 0 137.5-44t70-104.5T951 216H538q4-95 69.5-143T767 25q90 0 155 38V27q-68-38-158-38-80 0-142 35.5T534 130V0h-35v114zM85 240q0-99 59-157t148-58q72 0 127 41t77 104v140q-22 63-77 104t-127 41q-89 0-148-58.5T85 240zm652 215q-82 0-139-54t-60-151h380q4 35-4 69.5T886 385t-58.5 50.5T737 455z"/><glyph glyph-name="y.ss01" d="M496-6q-1-60-22-105t-56-70-75-37.5-84-12.5q-102 0-164 38v35q61-37 160-37 84 0 143.5 45.5T458-6V95q-30-43-79.5-74.5T265-11q-85 0-137.5 53T75 185v295h38V189q0-78 42.5-121T268 25q64 0 113 35t77 85v335h38V-6z"/><glyph glyph-name="yacute.ss01" d="M496-6q-1-60-22-105t-56-70-75-37.5-84-12.5q-102 0-164 38v35q61-37 160-37 84 0 143.5 45.5T458-6V95q-30-43-79.5-74.5T265-11q-85 0-137.5 53T75 185v295h38V189q0-78 42.5-121T268 25q64 0 113 35t77 85v335h38V-6zM291 556h-43l89 137h47z"/><glyph glyph-name="ycircumflex.ss01" d="M496-6q-1-60-22-105t-56-70-75-37.5-84-12.5q-102 0-164 38v35q61-37 160-37 84 0 143.5 45.5T458-6V95q-30-43-79.5-74.5T265-11q-85 0-137.5 53T75 185v295h38V189q0-78 42.5-121T268 25q64 0 113 35t77 85v335h38V-6zM277 687h33l128-131h-44L294 657 193 556h-44z"/><glyph glyph-name="ydieresis.ss01" d="M496-6q-1-60-22-105t-56-70-75-37.5-84-12.5q-102 0-164 38v35q61-37 160-37 84 0 143.5 45.5T458-6V95q-30-43-79.5-74.5T265-11q-85 0-137.5 53T75 185v295h38V189q0-78 42.5-121T268 25q64 0 113 35t77 85v335h38V-6zm-73 622q0-13-9-22t-22-9-22 9-9 22q0 12 9 21.5t22 9.5 22-9.5 9-21.5zm-201 0q0-13-9-22t-22-9-22 9-9 22q0 12 9 21.5t22 9.5 22-9.5 9-21.5z"/><glyph glyph-name="ygrave.ss01" d="M496-6q-1-60-22-105t-56-70-75-37.5-84-12.5q-102 0-164 38v35q61-37 160-37 84 0 143.5 45.5T458-6V95q-30-43-79.5-74.5T265-11q-85 0-137.5 53T75 185v295h38V189q0-78 42.5-121T268 25q64 0 113 35t77 85v335h38V-6zM333 556h-42l-94 137h48z"/><glyph glyph-name="f_b" horiz-adv-x="956" d="M460 370q30 53 84.5 87T670 491q103 0 171-69.5T909 240 841 58.5 670-11q-71 0-126 34.5T457 114V0h-35v640q-65 35-144 35-60 0-96.5-32T145 553v-73h184v-36H145V0h-38v444H23v36h84v73q0 76 48 117t122 41q77 0 145-35v16l38 11V370zm0-200q23-63 78.5-104T666 25q89 0 147 58.5T871 240q0 99-58 157t-147 58q-72 0-127.5-41T460 310V170z"/><glyph glyph-name="f_f_b" horiz-adv-x="1266" d="M770 370q30 53 84.5 87T980 491q103 0 171-69.5t68-181.5-68-181.5T980-11q-71 0-126 34.5T767 114V0h-35v644q-65 35-144 35-60 0-96.5-32.5T455 553v-73h184v-36H455V0h-38v444H145V0h-38v444H23v36h84v57q0 76 49 117t127 41q79 0 159-51 43 71 145 71 77 0 145-35v16l38 11V370zM417 480v73q0 31 10 61-65 45-143 45-64 0-101.5-32T145 537v-57h272zm353-310q23-63 78.5-104T976 25q89 0 147 58.5t58 156.5q0 99-58 157t-147 58q-72 0-127.5-41T770 310V170z"/><glyph glyph-name="f_f_h" horiz-adv-x="1228" d="M770 385q30 43 79.5 74.5T963 491q82 0 136-53.5t54-142.5V0h-38v291q0 78-43.5 121T960 455q-64 0-113-35t-77-85V0h-38v644q-65 35-144 35-60 0-96.5-32.5T455 553v-73h184v-36H455V0h-38v444H145V0h-38v444H23v36h84v57q0 76 49 117t127 41q79 0 159-51 43 71 145 71 77 0 145-35v16l38 11V385zm-353 95v73q0 31 10 61-65 45-143 45-64 0-101.5-32T145 537v-57h272z"/><glyph glyph-name="f_f_j" horiz-adv-x="845" d="M760-109q0-65-35-93.5T638-231q-36 0-70 12v36q28-12 61-12 93 0 93 90v549H455V0h-38v444H145V0h-38v444H23v36h84v57q0 76 49 117t127 41q81 0 157-50 46 70 147 70 78 0 153-43v-39q-72 46-152 46-60 0-96.5-31.5T455 559v-79h305v-589zM145 537v-57h272v79q0 31 9 56-66 44-142 44-64 0-101.5-32T145 537z"/><glyph glyph-name="f_f_k" horiz-adv-x="1149" d="M1118 480L923 246 1145 0h-46L890 229H770V0h-38v644q-65 35-144 35-60 0-96.5-32.5T455 553v-73h184v-36H455V0h-38v444H145V0h-38v444H23v36h84v57q0 76 49 117t127 41q79 0 159-51 43 71 145 71 77 0 145-35v16l38 11V265h123l180 215h45zm-701 0v73q0 31 10 61-65 45-143 45-64 0-101.5-32T145 537v-57h272z"/><glyph glyph-name="f_h" horiz-adv-x="918" d="M460 385q30 43 79.5 74.5T653 491q82 0 136-53.5T843 295V0h-38v291q0 78-43.5 121T650 455q-64 0-113-35t-77-85V0h-38v640q-65 35-144 35-60 0-96.5-32T145 553v-73h184v-36H145V0h-38v444H23v36h84v73q0 76 48 117t122 41q77 0 145-35v16l38 11V385z"/><glyph glyph-name="f_i" horiz-adv-x="535" d="M145 480h305V0h-38v444H145V0h-38v444H23v36h84v73q0 76 48 117t122 41q78 0 153-43v-39q-72 46-152 46-60 0-96.5-32T145 553v-73z"/><glyph glyph-name="f_j" horiz-adv-x="535" d="M145 480h305v-589q0-65-35-93.5T328-231q-36 0-70 12v36q28-12 61-12 93 0 93 90v549H145V0h-38v444H23v36h84v73q0 76 48 117t122 41q78 0 153-43v-39q-72 46-152 46-60 0-96.5-32T145 553v-73z"/><glyph glyph-name="f_k" horiz-adv-x="839" d="M808 480L613 246 835 0h-46L580 229H460V0h-38v640q-65 35-144 35-60 0-96.5-32T145 553v-73h184v-36H145V0h-38v444H23v36h84v73q0 76 48 117t122 41q77 0 145-35v16l38 11V265h123l180 215h45z"/><glyph glyph-name="f_l" horiz-adv-x="545" d="M422 676v16l38 11V0h-38v640q-65 35-144 35-60 0-96.5-32T145 553v-73h184v-36H145V0h-38v444H23v36h84v73q0 76 48 117t122 41q77 0 145-35z"/><glyph glyph-name="uni0414.loclBGR" horiz-adv-x="792" d="M65-174H27V38h73l273 662h46L692 38h73v-212h-38V0H65v-174zm332 831L143 38h507z"/><glyph glyph-name="uni041B.loclBGR" horiz-adv-x="675" d="M317 700h41L660 0h-43L337 655 58 0H15z"/><glyph glyph-name="uni0424.loclBGR" horiz-adv-x="890" d="M465-106h-40v98Q256-4 153.5 96.5T51 350t102.5 253.5T425 708v98h40v-98q169-4 271.5-104.5T839 350 736.5 96.5 465-8v-98zM91 350q0-136 90-226t244-94v640q-154-4-244-94T91 350zm374 320V30q155 4 244.5 94T799 350t-89.5 226T465 670z"/><glyph glyph-name="uni0432.loclBGR" horiz-adv-x="576" d="M486 550q0-112-122-160 73-9 120-62t47-131q0-90-62.5-149T306-11q-107 0-171.5 69.5T70 263v115q-1 160 60 246.5T308 711q79 0 128.5-46.5T486 550zm-38-2q0 53-38.5 90T308 675q-92 0-146-70.5T108 378v-14l184 33q76 14 116 54.5t40 96.5zM108 263q0-120 53.5-179T306 25q83 0 135 47t52 125q0 82-57.5 130.5T292 361l-184-33v-65z"/><glyph glyph-name="uni0433.loclBGR" horiz-adv-x="467" d="M419 37q-32-22-83.5-35T235-11q-85 0-139.5 31.5T41 117q0 39 18.5 65.5t48.5 40 66 22 71.5 16 65.5 18 48.5 31T378 362q0 47-40.5 70T237 455q-90 0-172-42v36q84 42 174 42 74 0 125.5-32.5T416 362q0-44-25-73t-62.5-40-81-22-81-19.5T104 176t-25-60q0-46 43-68.5T237 25q47 0 97.5 13.5T419 75V37z"/><glyph glyph-name="uni0434.loclBGR" horiz-adv-x="615" d="M47 240q0 112 67.5 181.5T286 491q70 0 125.5-34.5T499 366v114h35V0q0-115-73.5-173T280-231q-103 0-190 46v37q91-47 186-47t157.5 48T496 0v111q-30-53-85-87.5T286-11q-104 0-171.5 69.5T47 240zm449 70q-24 63-79.5 104T289 455q-89 0-146.5-58T85 240q0-98 58-156.5T289 25q72 0 127.5 40T496 166v144z"/><glyph glyph-name="uni0436.loclBGR" horiz-adv-x="719" d="M53 0H9l211 246L36 480h43l173-217h88v437h38V263h89l172 217h44L499 246 709 0h-43L468 227h-90V0h-38v227h-89z"/><glyph glyph-name="uni0438.loclBGR" d="M458 480h38V0h-35v99q-29-44-80-77T265-11q-85 0-137.5 53T75 185v295h38V189q0-78 42.5-121T268 25q64 0 113 35t77 85v335z"/><glyph glyph-name="uni0439.loclBGR" d="M420 602q-50-41-128-41t-128 41v37q56-44 128-44t128 44v-37zm38-122h38V0h-35v99q-29-44-80-77T265-11q-85 0-137.5 53T75 185v295h38V189q0-78 42.5-121T268 25q64 0 113 35t77 85v335z"/><glyph glyph-name="uni043A.loclBGR" horiz-adv-x="502" d="M494 0h-46L239 229H119V0H81v700h38V265h123l180 215h45L272 246z"/><glyph glyph-name="uni043B.loclBGR" horiz-adv-x="525" d="M505 0h-42L263 437 62 0H20l222 480h41z"/><glyph glyph-name="uni043F.loclBGR" d="M116 381q29 44 80 77t116 33q82 0 136-53.5T502 295V0h-38v291q0 78-43.5 121T309 455q-64 0-113-35t-77-85V0H81v480h35v-99z"/><glyph glyph-name="uni0442.loclBGR" horiz-adv-x="892" d="M119 0H81v480h35v-92q28 40 75.5 71.5T300 491q56 0 97.5-28t59.5-75q79 103 187 103 78 0 125.5-51T817 309V0h-38v308q0 65-37.5 106T640 455q-100 0-171-104 4-17 4-42V0h-38v308q0 65-37.5 106T296 455q-58 0-103.5-34T119 342V0z"/><glyph glyph-name="uni0446.loclBGR" horiz-adv-x="603" d="M496 89q0-58 60-58h21v-167h-36V-2q-83 4-83 97-30-43-79.5-74.5T265-11q-85 0-137.5 53T75 185v295h38V189q0-78 42.5-121T268 25q64 0 113 35t77 85v335h38V89z"/><glyph glyph-name="uni0448.loclBGR" horiz-adv-x="892" d="M773 480h38V0h-35v92q-28-40-75.5-71.5T592-11q-56 0-97.5 28T435 92Q356-11 248-11q-78 0-125.5 51T75 171v309h38V172q0-65 37.5-106T252 25q100 0 171 104-4 17-4 42v309h38V172q0-65 37.5-106T596 25q58 0 103.5 34t73.5 79v342z"/><glyph glyph-name="uni0449.loclBGR" horiz-adv-x="918" d="M811 89q0-58 60-58h21v-167h-36V-2q-83 4-83 90-28-39-75-69T592-11q-56 0-97 27t-61 74Q354-11 248-11q-78 0-125.5 51T75 171v309h38V172q0-65 37.5-106T252 25q100 0 171 104-4 17-4 42v309h38V172q0-65 37.5-106T596 25q58 0 103.5 34t73.5 79v342h38V89z"/><glyph glyph-name="uni044E.loclBGR" horiz-adv-x="804" d="M757 240q0-116-73-183.5T508-11q-99 0-171 63t-78 170H119V0H81v700h38V258h140q6 107 78 170t171 63q103 0 176-67.5T757 240zm-461 0q0-98 61-156t150-58 150.5 58T719 240t-61.5 156T507 454t-150-58-61-156z"/><glyph glyph-name="uni0430.ss01" horiz-adv-x="615" d="M499 114q-31-56-85.5-90.5T289-11q-104 0-173 69.5T47 240t69 181.5T289 491q70 0 124.5-34.5T499 366v114h35V0h-35v114zM85 240q0-99 59-157t148-58q72 0 127 41t77 104v140q-22 63-77 104t-127 41q-89 0-148-58.5T85 240z"/><glyph glyph-name="uni0437.ss01" horiz-adv-x="451" d="M374 330q0-113-123-160 73-8 120.5-61.5T419-22q0-95-66-152t-171-57q-99 0-168 45v37q67-47 163-47 89 0 146.5 46T381-22t-59 132-145 31l-59-13v35l67 15q80 19 115.5 56t35.5 94q0 58-40.5 92.5T192 455q-89 0-162-44v36q75 44 164 44 78 0 129-44.5T374 330z"/><glyph glyph-name="uni0443.ss01" d="M496-6q-1-60-22-105t-56-70-75-37.5-84-12.5q-102 0-164 38v35q61-37 160-37 84 0 143.5 45.5T458-6V95q-30-43-79.5-74.5T265-11q-85 0-137.5 53T75 185v295h38V189q0-78 42.5-121T268 25q64 0 113 35t77 85v335h38V-6z"/><glyph glyph-name="zero.osf" horiz-adv-x="658" d="M607 260q0-108-74-189.5T330-11q-87 0-152 40.5t-95.5 101T52 260t30.5 129.5 95.5 101T330 531t152-40.5 95-101T607 260zm-515 0q0-95 63-164t175-69q111 0 174 69t63 164-63 164-174 69q-112 0-175-69T92 260z"/><glyph glyph-name="one.osf" horiz-adv-x="411" d="M221 520h28V38h138V0H56v38h153v439L56 419v38z"/><glyph glyph-name="two.osf" horiz-adv-x="523" d="M469 0H49v26q0 21 5.5 40.5t11.5 33 22 28 25 22.5 33 21 33 17 39 17.5 37 16.5q9 4 37.5 16.5t40 18 33 19 30.5 25 17 30 8 39.5q0 55-45 89.5T263 494q-94 0-195-58v40q93 55 198 55 82 0 138.5-44.5T461 370q0-23-5.5-42.5T437 292t-24.5-27.5-33.5-24-34.5-18.5-39-18-36.5-16q-10-5-34-15.5t-33.5-15-29-14.5-27.5-16.5-21-17.5-18-20.5-9.5-23T92 38h377V0z"/><glyph glyph-name="three.osf" horiz-adv-x="539" d="M462 350q0-55-32-98.5T341 195q63-14 106-57.5T490 20q0-89-67-140t-162-51q-127 0-211 45v39q85-46 208-46 82 0 138 40.5T452 22q0 76-52.5 113.5T274 173h-90v38l86-1q72 0 112.5 40t40.5 97q0 66-47 106.5T250 494q-93 0-188-49v39q91 47 192 47 93 0 150.5-50.5T462 350z"/><glyph glyph-name="four.osf" horiz-adv-x="592" d="M388 520h43V43h134V5H431v-165h-39V5H19v35zm4-477v420L67 43h325z"/><glyph glyph-name="five.osf" horiz-adv-x="529" d="M92 520h361v-38H130l-18-268q70 24 144 24 61 0 111.5-19.5t85.5-67T488 34q0-92-67-148.5T250-171q-110 0-197 46v38q89-47 193-47 90 0 146 45.5T448 34q0 85-58.5 126T245 201q-88 0-174-32z"/><glyph glyph-name="six.osf" horiz-adv-x="580" d="M98 315q45 47 103 72.5T318 413q86 0 150.5-54.5T533 204q0-98-63.5-156.5T317-11q-124 0-191.5 88.5T58 321q0 95 23.5 168T146 605t90.5 64.5T342 691q76 0 145-37v-38q-69 37-144 37-101 0-173-82.5T98 320v-5zm2-44q10-117 66-181t149-64q74 0 126 46.5T493 203q0 86-53.5 129.5T310 376q-56 0-112.5-28T100 271z"/><glyph glyph-name="seven.osf" horiz-adv-x="470" d="M23 520h436v-34L157-160h-43l300 642H23v38z"/><glyph glyph-name="eight.osf" horiz-adv-x="613" d="M81 524q0 67 60.5 117T306 691q100 0 163-53.5T533 514q1-111-112-186 64-26 100.5-64.5T558 165q0-72-65.5-124T308-11q-118 0-185 55T56 183q0 58 34.5 109t97.5 85Q81 429 81 524zm227-193q-17 6-45 16t-40 14q-60-29-93.5-75.5T96 186q0-71 56.5-115.5T309 26q95 0 152 40.5t57 97.5q0 45-28 76.5t-57 44-97 36.5q-19 7-28 10zm185 177q0 58-52 102t-136 44q-82 0-133.5-38T120 525q0-34 13.5-59t46-44.5T231 394t64-23q8-3 11-4 45-15 80-26 107 69 107 167z"/><glyph glyph-name="nine.osf" horiz-adv-x="566" d="M39 316q0 98 63.5 156.5T255 531q125 0 192-88.5T514 199q0-95-23.5-168T426-85t-90.5-64.5T230-171q-76 0-145 37v38q69-37 144-37 47 0 89.5 18.5T397-58t57 104.5T475 200v6q-93-99-221-99-86 0-150.5 54.5T39 316zm40 1q0-86 53.5-129.5T263 144q57 0 113.5 28t96.5 78q-10 116-67 180t-149 64q-74 0-126-46.5T79 317z"/><glyph glyph-name="zero.sinf" horiz-adv-x="432" d="M394 104q0-95-45.5-153T216-107 83.5-49 38 104t45.5 153T216 315t132.5-58T394 104zm-322 0q0-84 36-131t108-47 108 47.5T360 104t-36 130.5T216 282t-108-47-36-131z"/><glyph glyph-name="one.sinf" horiz-adv-x="258" d="M138 308h25V-68h77v-32H31v32h99v340l-91-34v32z"/><glyph glyph-name="two.sinf" horiz-adv-x="347" d="M46 277q56 38 127 38 60 0 97-28t37-77q0-33-19-61t-39.5-43.5T190 68q-4-2-17.5-10.5t-18-11T138 36t-16.5-11.5-14-11.5T94-.5t-10-14-9-16T70-48t-2-20h243v-32H31v18q0 29 9.5 53.5t19 39.5T93 44.5 127.5 69 168 93q37 22 54 33t34 34 17 50q0 34-27.5 53.5T170 283q-63 0-124-40v34z"/><glyph glyph-name="three.sinf" horiz-adv-x="357" d="M304 205q0-32-18.5-57.5T234 113q37-9 61.5-34.5T320 9q0-55-40-85.5T177-107q-82 0-142 27v33q57-28 140-28 51 0 82 21.5T288 11t-31 63-80 20h-62v33h58q48 0 73 21.5t25 54.5q0 35-28 57.5T165 283q-63 0-123-29v33q56 28 127 28 61 0 98-31t37-79z"/><glyph glyph-name="four.sinf" horiz-adv-x="392" d="M251 308h37V27h82V-4h-82v-96h-34v96H20v30zm3-281v235L62 27h192z"/><glyph glyph-name="five.sinf" horiz-adv-x="353" d="M62 308h239v-32H94l-9-144q42 13 84 13 64 0 108-31t44-95q0-58-42.5-92T168-107q-76 0-130 28v32q54-28 127-28 55 0 88 25t33 69q0 94-129 94-56 0-108-19z"/><glyph glyph-name="six.sinf" horiz-adv-x="378" d="M73 98q64 53 138 53 55 0 96-33.5T348 24q0-61-40.5-96T206-107q-82 0-124.5 53.5T39 94q0 111 49.5 166T221 315q49 0 93-23v-33q-40 23-92 23-67 0-107.5-44T73 98zm1-34q6-68 39.5-103.5T204-75q48 0 79 25t31 72q0 50-31.5 73.5T203 119q-74 0-129-55z"/><glyph glyph-name="seven.sinf" horiz-adv-x="309" d="M125-100H89l166 376H18v32h275v-30z"/><glyph glyph-name="eight.sinf" horiz-adv-x="397" d="M52 213q0 41 38 71.5T198 315q66 0 106-32.5t42-76.5q0-70-63-108 77-34 77-97 0-44-41-76t-119-32T79.5-73.5 37 10q0 74 75 115-60 31-60 88zM201 92q-55 18-59 19-34-15-52.5-41.5T71 14q0-40 33.5-64.5T200-75q58 0 92 21.5T326 0q0 17-8 30.5T301 52t-29.5 16.5-32 12T201 92zm111 108q0 34-30.5 58.5T198 283q-52 0-82-20t-30-50q0-50 68-74 9-4 46-15 31-8 54-15 58 34 58 91z"/><glyph glyph-name="nine.sinf" horiz-adv-x="378" d="M30 184q0 61 40.5 96T172 315q83 0 125-53t42-148q0-112-49-166.5T157-107q-49 0-93 23v33q40-23 92-23 67 0 107.5 44T305 110q-64-53-138-53-55 0-96 33.5T30 184zm34 2q0-50 31.5-73.5T175 89q74 0 129 55-6 68-39.5 103.5T174 283q-48 0-79-25t-31-72z"/><glyph glyph-name="zero.sups" horiz-adv-x="432" d="M394 580q0-95-45.5-153T216 369 83.5 427 38 580t45.5 153T216 791t132.5-58T394 580zm-322 0q0-84 36-131t108-47 108 47.5T360 580t-36 130.5T216 758t-108-47-36-131z"/><glyph glyph-name="one.sups" horiz-adv-x="258" d="M138 780h25V404h77v-32H31v32h99v340l-91-34v32z"/><glyph glyph-name="two.sups" horiz-adv-x="348" d="M46 753q56 38 127 38 60 0 97-28t37-77q0-33-19-61t-39.5-43.5T190 544q-4-2-17.5-10.5t-18-11T138 512t-16.5-11.5-14-11.5T94 475.5t-10-14-9-16-5-17.5-2-20h243v-32H31v18q0 29 9.5 53.5t19 39.5T93 520.5t34.5 24.5 40.5 24q37 22 54 33t34 34 17 50q0 34-27.5 53.5T170 759q-63 0-124-40v34z"/><glyph glyph-name="three.sups" horiz-adv-x="357" d="M304 681q0-32-18.5-57.5T234 589q37-9 61.5-34.5T320 485q0-55-40-85.5T177 369q-82 0-142 27v33q57-28 140-28 51 0 82 21.5t31 64.5-31 63-80 20h-62v33h58q48 0 73 21.5t25 54.5q0 35-28 57.5T165 759q-63 0-123-29v33q56 28 127 28 61 0 98-31t37-79z"/><glyph glyph-name="four.sups" horiz-adv-x="392" d="M251 780h37V499h82v-31h-82v-96h-34v96H20v30zm3-281v235L62 499h192z"/><glyph glyph-name="five.sups" horiz-adv-x="353" d="M62 780h239v-32H94l-9-144q42 13 84 13 64 0 108-31t44-95q0-58-42.5-92T168 365q-76 0-130 28v32q54-28 127-28 55 0 88 25t33 69q0 94-129 94-56 0-108-19z"/><glyph glyph-name="six.sups" horiz-adv-x="378" d="M73 574q64 53 138 53 55 0 96-33.5t41-93.5q0-61-40.5-96T206 369q-82 0-124.5 53.5T39 570q0 111 49.5 166T221 791q49 0 93-23v-33q-40 23-92 23-67 0-107.5-44T73 574zm1-34q6-68 39.5-103.5T204 401q48 0 79 25t31 72q0 50-31.5 73.5T203 595q-74 0-129-55z"/><glyph glyph-name="seven.sups" horiz-adv-x="309" d="M125 372H89l166 376H18v32h275v-30z"/><glyph glyph-name="eight.sups" horiz-adv-x="397" d="M52 689q0 41 38 71.5T198 791q66 0 106-32.5t42-76.5q0-70-63-108 77-34 77-97 0-44-41-76t-119-32-120.5 33.5T37 486q0 74 75 115-60 31-60 88zm149-121q-56 18-59 19-34-15-52.5-41.5T71 490q0-40 33.5-64.5T200 401q58 0 92 21.5t34 53.5q0 17-8 30.5T301 528t-29.5 16.5-32 12T201 568zm111 108q0 34-30.5 58.5T198 759q-52 0-82-20t-30-50q0-50 68-75 12-4 37-11l9-3q31-8 54-15 58 34 58 91z"/><glyph glyph-name="nine.sups" horiz-adv-x="378" d="M30 660q0 61 40.5 96T172 791q83 0 125-53t42-148q0-112-49-166.5T157 369q-49 0-93 23v33q40-23 92-23 67 0 107.5 44T305 586q-64-53-138-53-55 0-96 33.5T30 660zm34 2q0-50 31.5-73.5T175 565q74 0 129 55-6 68-39.5 103.5T174 759q-48 0-79-25t-31-72z"/><glyph glyph-name="zero.tf" horiz-adv-x="618" d="M581 340q0-157-71.5-254T309-11 108.5 86 37 340q0 158 71.5 254.5T309 691t200.5-96.5T581 340zm-504 0q0-144 60.5-228.5T309 27t171.5 84.5T541 340t-60.5 228.5T309 653t-171.5-84.5T77 340z"/><glyph glyph-name="one.tf" horiz-adv-x="618" d="M323 680h28V38h218V0H75v38h236v599l-207-77v38z"/><glyph glyph-name="two.tf" horiz-adv-x="618" d="M85 628q93 63 217 63 105 0 167.5-45.5T532 521q0-42-15-76.5T470.5 381 408 331.5 329 286q-35-19-54-29.5t-48.5-30-46-36.5-34-40.5T121 98t-8-60h436V0H70v22q0 48 15 89t34 68 55.5 55 61.5 43 69 38q48 26 74.5 43t56.5 42.5 43 55 13 66.5q0 61-51.5 96.5T299 654q-114 0-214-65v39z"/><glyph glyph-name="three.tf" horiz-adv-x="618" d="M525 510q0-55-33-98.5T398 355q67-13 111-56.5T553 180q0-91-66.5-141T310-11Q168-11 69 35v39q102-48 238-47 97 0 152.5 39.5T515 182q0 78-57 114.5T307 333H203v38l100-1q92 0 137.5 39t45.5 98q0 64-51 105.5T291 654q-109 0-210-49v39q96 47 214 47 107 0 168.5-51.5T525 510z"/><glyph glyph-name="four.tf" horiz-adv-x="618" d="M414 680h43V203h135v-38H457V0h-39v165H21v35zm4-477v423L71 203h347z"/><glyph glyph-name="five.tf" horiz-adv-x="618" d="M114 680h405v-38H152l-18-268q75 24 161 24 113 0 186-50t73-154q0-93-70-149T299-11Q167-11 75 35v38q94-47 220-47 101 0 160 45.5T514 194q0 86-63.5 126.5T284 361q-100 0-191-32z"/><glyph glyph-name="six.tf" horiz-adv-x="618" d="M103 313q106 100 240 100 93 0 159-54.5T568 204 502 46.5 336-11q-134 0-203.5 88T63 321q0 189 80 279.5T363 691q80 0 149-37v-38q-69 37-148 37-121 0-191-80t-70-253v-7zm2-43q11-117 69.5-180.5T334 26q85 0 139.5 46T528 203q0 87-55 130t-138 43q-63 0-124-27.5T105 270z"/><glyph glyph-name="seven.tf" horiz-adv-x="618" d="M66 680h502v-34L240 0h-43l326 642H66v38z"/><glyph glyph-name="eight.tf" horiz-adv-x="618" d="M68 524q0 68 63 117.5T308 691q110 0 175.5-53T550 514q1-59-28.5-107.5T438 328q64-26 100.5-64.5T575 165q0-73-68.5-124.5T310-11 112.5 44.5 43 183q0 60 34.5 112t97.5 83Q68 428 68 524zm244-194q-62 17-101 31-61-25-94.5-72T83 186q0-72 58.5-116T311 26q104 0 164 40t60 98q0 30-12 53.5t-30 39-47 29-55.5 22T327 326q-10 3-15 4zm198 178q0 58-54.5 102T307 654q-93 0-146.5-38T107 525q0-36 16-62.5t47-43.5 57.5-27 66.5-21q10-3 15-4 48-13 92-26 52 27 80.5 70.5T510 508z"/><glyph glyph-name="nine.tf" horiz-adv-x="618" d="M49 476q0 100 66 157.5T281 691q134 0 203.5-88T554 359q0-189-80-279.5T254-11q-80 0-149 37v38q69-37 148-37 122 0 192 80t70 253v8Q408 267 274 267q-93 0-159 54.5T49 476zm40 1q0-87 55.5-130T283 304q63 0 124 28t106 79q-11 116-70 179.5T283 654q-85 0-139.5-46T89 477z"/><glyph glyph-name="zero.tosf" horiz-adv-x="618" d="M586 260q0-108-74-189.5T309-11 106 70.5 32 260q0 109 74 190t203 81 203-81 74-190zm-514 0q0-95 63-164t174-69 174 69 63 164-63 164-174 69-174-69-63-164z"/><glyph glyph-name="one.tosf" horiz-adv-x="618" d="M322 520h28V38h218V0H74v38h236v439l-207-77v38z"/><glyph glyph-name="two.tosf" horiz-adv-x="618" d="M545 0H70v26q0 44 20.5 79t59 58 73.5 37 83 28q100 29 143 56.5t43 84.5q0 56-50 90.5T304 494q-117 0-215-65v39q90 63 218 63 103 0 164-44.5T532 368q0-71-51-106.5T320 194q-33-10-59-19t-55-23-48.5-30-32-37.5T113 38h432V0z"/><glyph glyph-name="three.tosf" horiz-adv-x="618" d="M522 350q0-55-33-98.5T395 195q67-13 111-56.5T550 20q0-91-66-141t-175-50q-146 0-239 45v39q96-47 236-46 95 0 150.5 39.5T512 22q0 77-56.5 114T306 173H204v38l98-1q91 0 136 39.5t45 97.5q0 64-50.5 105.5T290 494q-109 0-208-47v39q93 45 212 45 105 0 166.5-51.5T522 350z"/><glyph glyph-name="four.tosf" horiz-adv-x="618" d="M412 520h43V43h136V5H455v-165h-39V5H19v35zm4-477v423L69 43h347z"/><glyph glyph-name="five.tosf" horiz-adv-x="618" d="M117 520h401v-38H155l-18-268q75 24 158 24 112 0 185-50t73-154q0-93-69-149t-185-56q-129 0-221 46v38q94-47 217-47 102 0 160 45t58 123q0 86-63.5 126.5T284 201q-97 0-188-32z"/><glyph glyph-name="six.tosf" horiz-adv-x="618" d="M103 313q106 100 240 100 93 0 159-54.5T568 204 502 46.5 336-11q-134 0-203.5 88T63 321q0 189 80 279.5T363 691q80 0 149-37v-38q-69 37-148 37-121 0-191-80t-70-253v-7zm2-43q11-117 69.5-180.5T334 26q85 0 139.5 46T528 203q0 87-55 130t-138 43q-63 0-124-27.5T105 270z"/><glyph glyph-name="seven.tosf" horiz-adv-x="618" d="M64 520h502v-34L238-160h-43l326 642H64v38z"/><glyph glyph-name="eight.tosf" horiz-adv-x="618" d="M68 524q0 68 63 117.5T308 691q110 0 175.5-53T550 514q1-59-28.5-107.5T438 328q64-26 100.5-64.5T575 165q0-73-68.5-124.5T310-11 112.5 44.5 43 183q0 60 34.5 112t97.5 83Q68 428 68 524zm244-194q-62 17-101 31-61-25-94.5-72T83 186q0-72 58.5-116T311 26q104 0 164 40t60 98q0 30-12 53.5t-30 39-47 29-55.5 22T327 326q-10 3-15 4zm199 178q0 58-54.5 102T308 654q-93 0-146.5-38T108 525q0-36 16-62.5t47-43.5 57.5-27 66.5-21q10-3 15-4 48-13 92-26 52 27 80.5 70.5T511 508z"/><glyph glyph-name="nine.tosf" horiz-adv-x="618" d="M49 316q0 100 66 157.5T281 531q134 0 203.5-88T554 199q0-189-80-279.5T254-171q-80 0-149 37v38q69-37 148-37 122 0 192 80t70 253v8Q408 107 274 107q-93 0-159 54.5T49 316zm40 1q0-87 55.5-130T283 144q63 0 124 28t106 79q-11 116-70 179.5T283 494q-85 0-139.5-46T89 317z"/><glyph glyph-name="zero.dnom" horiz-adv-x="432" d="M394 204q0-95-45.5-153T216-7 83.5 51 38 204t45.5 153T216 415t132.5-58T394 204zm-322 0q0-84 36-131t108-47 108 47.5T360 204t-36 130.5T216 382t-108-47-36-131z"/><glyph glyph-name="one.dnom" horiz-adv-x="258" d="M138 408h25V32h77V0H31v32h99v340l-91-34v32z"/><glyph glyph-name="two.dnom" horiz-adv-x="347" d="M46 377q56 38 127 38 60 0 97-28t37-77q0-33-19-61t-39.5-43.5T190 168q-4-2-17.5-10.5t-18-11T138 136t-16.5-11.5-14-11.5T94 99.5t-10-14-9-16T70 52t-2-20h243V0H31v18q0 29 9.5 53.5t19 39.5T93 144.5t34.5 24.5 40.5 24q37 22 54 33t34 34 17 50q0 34-27.5 53.5T170 383q-63 0-124-40v34z"/><glyph glyph-name="three.dnom" horiz-adv-x="357" d="M304 305q0-32-18.5-57.5T234 213q37-8 61.5-34t24.5-70q0-55-40-85.5T177-7Q95-7 35 20v33q57-28 140-28 51 0 82 21.5t31 64.5-31 63-80 20h-62v33h58q48 0 73 21.5t25 54.5q0 35-28 57.5T165 383q-63 0-123-29v33q56 28 127 28 61 0 98-31t37-79z"/><glyph glyph-name="four.dnom" horiz-adv-x="392" d="M251 408h37V127h82V96h-82V0h-34v96H20v30zm3-281v235L62 127h192z"/><glyph glyph-name="five.dnom" horiz-adv-x="353" d="M62 408h239v-32H94l-9-144q42 13 84 13 64 0 108-31t44-95q0-58-42.5-92T168-7Q92-7 38 21v32q54-28 127-28 55 0 88 25t33 69q0 94-129 94-56 0-108-19z"/><glyph glyph-name="six.dnom" horiz-adv-x="378" d="M73 198q64 53 138 53 55 0 96-33.5t41-93.5q0-61-40.5-96T206-7Q124-7 81.5 46.5T39 194q0 111 49.5 166T221 415q49 0 93-23v-33q-40 23-92 23-67 0-107.5-44T73 198zm1-34q6-68 39.5-103.5T204 25q48 0 79 25t31 72q0 50-31.5 73.5T203 219q-74 0-129-55z"/><glyph glyph-name="seven.dnom" horiz-adv-x="309" d="M125 0H89l166 376H18v32h275v-30z"/><glyph glyph-name="eight.dnom" horiz-adv-x="397" d="M52 313q0 41 38 71.5T198 415q66 0 106-32.5t42-76.5q0-70-63-108 77-34 77-97 0-44-41-76T200-7 79.5 26.5 37 110q0 74 75 115-60 31-60 88zm149-121q-55 18-59 19-34-15-52.5-41.5T71 114q0-40 33.5-64.5T200 25q58 0 92 21.5t34 53.5q0 17-8 30.5T301 152t-29.5 16.5-32 12T201 192zm111 108q0 34-30.5 58.5T198 383q-52 0-82-20t-30-50q0-26 19-44.5t34.5-24.5 51.5-17l9-3q31-8 54-15 58 34 58 91z"/><glyph glyph-name="nine.dnom" horiz-adv-x="378" d="M30 284q0 61 40.5 96T172 415q83 0 125-53t42-148q0-112-49-166.5T157-7q-49 0-93 23v33q40-23 92-23 67 0 107.5 44T305 210q-64-53-138-53-55 0-96 33.5T30 284zm34 2q0-50 31.5-73.5T175 189q74 0 129 55-6 68-39.5 103.5T174 383q-48 0-79-25t-31-72z"/><glyph glyph-name="zero.numr" horiz-adv-x="432" d="M394 480q0-95-45.5-153T216 269 83.5 327 38 480t45.5 153T216 691t132.5-58T394 480zm-322 0q0-84 36-131t108-47 108 47.5T360 480t-36 130.5T216 658t-108-47-36-131z"/><glyph glyph-name="one.numr" horiz-adv-x="258" d="M138 680h25V304h77v-32H31v32h99v340l-91-34v32z"/><glyph glyph-name="two.numr" horiz-adv-x="348" d="M46 653q56 38 127 38 60 0 97-28t37-77q0-33-19-61t-39.5-43.5T190 444q-4-2-17.5-10.5t-18-11T138 412t-16.5-11.5-14-11.5T94 375.5t-10-14-9-16-5-17.5-2-20h243v-32H31v18q0 29 9.5 53.5t19 39.5T93 420.5t34.5 24.5 40.5 24q37 22 54 33t34 34 17 50q0 34-27.5 53.5T170 659q-63 0-124-40v34z"/><glyph glyph-name="three.numr" horiz-adv-x="357" d="M304 581q0-32-18.5-57.5T234 489q37-9 61.5-34.5T320 385q0-55-40-85.5T177 269q-82 0-142 27v33q57-28 140-28 51 0 82 21.5t31 64.5-31 63-80 20h-62v33h58q48 0 73 21.5t25 54.5q0 35-28 57.5T165 659q-63 0-123-29v33q56 28 127 28 61 0 98-31t37-79z"/><glyph glyph-name="four.numr" horiz-adv-x="392" d="M251 680h37V399h82v-31h-82v-96h-34v96H20v30zm3-281v235L62 399h192z"/><glyph glyph-name="five.numr" horiz-adv-x="353" d="M62 680h239v-32H94l-9-144q42 13 84 13 64 0 108-31t44-95q0-58-42.5-92T168 265q-76 0-130 28v32q54-28 127-28 55 0 88 25t33 69q0 94-129 94-56 0-108-19z"/><glyph glyph-name="six.numr" horiz-adv-x="378" d="M73 474q64 53 138 53 55 0 96-33.5t41-93.5q0-61-40.5-96T206 269q-82 0-124.5 53.5T39 470q0 111 49.5 166T221 691q49 0 93-23v-33q-40 23-92 23-67 0-107.5-44T73 474zm1-34q6-68 39.5-103.5T204 301q48 0 79 25t31 72q0 50-31.5 73.5T203 495q-74 0-129-55z"/><glyph glyph-name="seven.numr" horiz-adv-x="309" d="M125 272H89l166 376H18v32h275v-30z"/><glyph glyph-name="eight.numr" horiz-adv-x="397" d="M52 589q0 41 38 71.5T198 691q66 0 106-32.5t42-76.5q0-70-63-108 77-34 77-97 0-44-41-76t-119-32-120.5 33.5T37 386q0 74 75 115-60 31-60 88zm149-121q-56 18-59 19-34-15-52.5-41.5T71 390q0-40 33.5-64.5T200 301q58 0 92 21.5t34 53.5q0 17-8 30.5T301 428t-29.5 16.5-32 12T201 468zm111 108q0 34-30.5 58.5T198 659q-52 0-82-20t-30-50q0-50 68-74 9-4 46-15 31-8 54-15 58 34 58 91z"/><glyph glyph-name="nine.numr" horiz-adv-x="378" d="M30 560q0 61 40.5 96T172 691q83 0 125-53t42-148q0-112-49-166.5T157 269q-49 0-93 23v33q40-23 92-23 67 0 107.5 44T305 486q-64-53-138-53-55 0-96 33.5T30 560zm34 2q0-50 31.5-73.5T175 465q74 0 129 55-6 68-39.5 103.5T174 659q-48 0-79-25t-31-72z"/><glyph glyph-name="emdash.case" horiz-adv-x="760" d="M687 332H73v36h614v-36z"/><glyph glyph-name="endash.case" horiz-adv-x="576" d="M503 332H73v36h430v-36z"/><glyph glyph-name="hyphen.case" horiz-adv-x="493" d="M73 368h347v-36H73v36z"/><glyph glyph-name="guillemotleft.case" horiz-adv-x="452" d="M379 176h-42L218 345v10l119 169h42L256 350zm-159 0h-42L59 345v10l119 169h42L97 350z"/><glyph glyph-name="guillemotright.case" horiz-adv-x="452" d="M273 176h-41l123 174-123 174h41l120-169v-10zm-159 0H73l123 174L73 524h41l120-169v-10z"/><glyph glyph-name="guilsinglleft.case" horiz-adv-x="293" d="M220 176h-42L59 345v10l119 169h42L97 350z"/><glyph glyph-name="guilsinglright.case" horiz-adv-x="293" d="M114 176H73l123 174L73 524h41l120-169v-10z"/><glyph glyph-name="cent.tf" horiz-adv-x="618" d="M372 25q78 3 139 38V25Q451-6 372-11v-109h-34v109q-98 6-165.5 69T105 236q0 116 68 181t165 73v110h34V491q78-3 134-39v-37q-56 38-134 40V25zm-34 429q-83-9-139-64t-56-153q0-97 56-151t139-60v428z"/><glyph glyph-name="currency.tf" horiz-adv-x="618" d="M189 201l-84-85-27 27 83 83q-47 50-47 124t47 124l-83 83 27 27 84-85q52 38 120 38 69 0 119-38l85 85 27-27-84-83q47-50 47-124t-47-124l84-83-27-27-85 85q-50-38-119-38-68 0-120 38zm-37 149q0-68 45.5-110T309 198t111 42 45 110q0 67-45.5 109.5T309 502q-66 0-111.5-42T152 350z"/><glyph glyph-name="dollar.tf" horiz-adv-x="618" d="M329-130h-34v120Q176-5 79 48v40q107-61 239-61 89 0 143.5 31T516 159q0 45-24 77t-63 50-85.5 32-93 29-85.5 35-63 55.5T78 522q0 82 61.5 124T294 690v120h34V690q105-5 181-48v-39q-87 50-199 50-85 0-138.5-31T118 523q0-42 24-72.5t63-47.5 85.5-30.5 93-29 85.5-36 63-57.5 24-88q0-87-63.5-129T329-11v-119z"/><glyph glyph-name="Euro.tf" horiz-adv-x="618" d="M144 252q27-108 117-166.5T461 27q65 0 125 21V10q-66-21-132-21-79 0-150.5 28.5t-127 89.5T103 252H15v34h82q-3 22-3 48 0 28 5 60H15v34h90q30 123 128.5 193T448 691q70 0 133-21v-37q-60 20-126 20-103 0-191-59.5T147 428h344v-34H139q-5-32-5-60 0-26 3-48h354v-34H144z"/><glyph glyph-name="sterling.tf" horiz-adv-x="618" d="M570 0H40v38h45q30 0 48 22.5t18 59.5v199H73v38h78v106q0 115 65 171t163 56q81 0 143-38v-38q-62 39-139 39-84 0-138-47t-54-144V357h247v-38H191V120q0-62-36-82h415V0z"/><glyph glyph-name="yen.tf" horiz-adv-x="618" d="M543 680h44L347 309h166v-34H329v-87h184v-34H329V0h-40v154H105v34h184v87H105v34h166L31 680h44l234-364z"/></font>
</defs>
</svg>
